<?xml version="1.0" encoding="UTF-8"?>
<svg version="1.1" xmlns="http://www.w3.org/2000/svg" width="1600" height="592">
<path d="M0 0 C1.97435028 -0.01117104 1.97435028 -0.01117104 3.98858643 -0.02256775 C7.59078314 -0.04162672 11.19147209 -0.01698307 14.79351354 0.01667047 C18.57639752 0.04565777 22.35922731 0.03791844 26.14219666 0.03520203 C32.50178823 0.03619158 38.86079645 0.06459379 45.22021484 0.11035156 C52.5434047 0.1628107 59.86586499 0.1770419 67.1892224 0.1693185 C74.25967032 0.16236581 81.32987453 0.17836285 88.40026665 0.20607567 C91.39555348 0.2176963 94.39072576 0.22232922 97.38603401 0.22127724 C100.92808152 0.2214045 104.46947435 0.24208676 108.01133728 0.27766991 C109.90882375 0.2923249 111.80642841 0.28795685 113.70396423 0.28271484 C132.92043859 0.54095646 148.8715464 9.14514886 162.57397461 22.1081543 C175.99856565 35.90694997 182.45066554 53.9049434 182.32992554 72.92817688 C182.3369455 74.65880781 182.3369455 74.65880781 182.34410727 76.42440099 C182.35599309 80.25831427 182.34662463 84.09186584 182.3371582 87.92578125 C182.33957789 90.68823476 182.34646307 93.45067332 182.35308838 96.21311951 C182.36638349 102.92090104 182.36356552 109.62858148 182.35485046 116.33636687 C182.3480514 121.797848 182.34716677 127.25930098 182.35042191 132.72078514 C182.3508816 133.50072123 182.3513413 134.28065731 182.35181493 135.08422783 C182.35277422 136.66922561 182.35374686 138.25422338 182.35473271 139.83922114 C182.36327587 154.68376433 182.3534726 169.52825184 182.33733161 184.37278589 C182.32395845 197.06333057 182.32623377 209.75379279 182.34008789 222.44433594 C182.35621305 237.22183896 182.36242157 251.99929308 182.3532511 266.77680367 C182.3522956 268.35905245 182.35135248 269.94130124 182.35042191 271.52355003 C182.34995908 272.30178112 182.34949625 273.0800122 182.3490194 273.88182605 C182.34644803 279.32039748 182.3507607 284.75893748 182.35786057 290.19750404 C182.36635454 296.84970917 182.36383354 303.5018084 182.34801833 310.15400169 C182.34023551 313.53720405 182.33853586 316.9200886 182.34696579 320.30331039 C182.39235198 340.38880356 181.11818912 360.0349411 176.63647461 379.6706543 C176.42482666 380.61239502 176.21317871 381.55413574 175.99511719 382.52441406 C166.12981012 424.98219794 137.90156939 461.35615831 103.60131836 487.7409668 C101.22755592 489.63578159 98.99346393 491.60677038 96.74194336 493.64331055 C92.12998369 497.76802094 87.29790206 501.49605846 82.32397461 505.1706543 C81.02182007 506.1438562 81.02182007 506.1438562 79.69335938 507.13671875 C75.73050608 510.0914554 71.75232343 513.0152482 67.70288086 515.8503418 C59.32808483 521.74060801 52.55108248 528.03465647 45.94897461 535.8581543 C20.69320045 565.76912412 -19.13969321 589.33238922 -58.53186035 593.09512329 C-63.42620727 593.39402639 -68.31107954 593.4302556 -73.21313477 593.37963867 C-75.68352585 593.35808887 -78.15103048 593.37965277 -80.62133789 593.4050293 C-109.84074282 593.45627457 -135.87624112 581.57464038 -157.05102539 561.8581543 C-157.73551758 561.24327148 -158.42000977 560.62838867 -159.12524414 559.99487305 C-172.4944872 547.43588714 -182.47714594 529.84712119 -189.05102539 512.8581543 C-189.05102539 511.8681543 -189.05102539 510.8781543 -189.05102539 509.8581543 C-188.39102539 509.8581543 -187.73102539 509.8581543 -187.05102539 509.8581543 C-186.8202832 509.32706055 -186.58954102 508.7959668 -186.35180664 508.2487793 C-184.64042537 505.10353805 -182.46666546 502.39509401 -180.23852539 499.6081543 C-179.75496582 498.9975415 -179.27140625 498.38692871 -178.77319336 497.7578125 C-174.57870885 492.47757865 -170.30637579 487.26131055 -166.03686523 482.04174805 C-162.04459885 477.1383444 -158.18257252 472.1472687 -154.36352539 467.1081543 C-149.88887116 461.20442898 -145.28808711 455.46773223 -140.50805664 449.80737305 C-135.88955231 444.26369933 -131.48645002 438.54853305 -127.05102539 432.8581543 C-119.61599496 423.32924251 -112.08007435 413.89029938 -104.41479492 404.54516602 C-103.17988512 403.0175565 -101.98591141 401.45707715 -100.79711914 399.89331055 C-99.93280273 398.8859082 -99.93280273 398.8859082 -99.05102539 397.8581543 C-98.39102539 397.8581543 -97.73102539 397.8581543 -97.05102539 397.8581543 C-96.87152344 398.37385986 -96.69202148 398.88956543 -96.50708008 399.42089844 C-89.73265636 418.62002019 -81.19866964 437.41322088 -69.05102539 453.8581543 C-68.29563477 454.89584961 -67.54024414 455.93354492 -66.76196289 457.00268555 C-39.67217436 493.58943758 -3.24550373 510.98085275 40.70678711 519.38085938 C45.42876091 520.07599934 50.19570913 520.42603925 54.94897461 520.8581543 C54.61897461 392.1581543 54.28897461 263.4581543 53.94897461 130.8581543 C44.03147135 142.99001542 44.03147135 142.99001542 34.44897461 155.3581543 C29.65233745 161.69273986 24.71951566 167.89622409 19.68774414 174.04516602 C14.80653132 180.01339022 10.0371336 186.06393025 5.29174805 192.14038086 C3.01663543 195.05087038 0.73234418 197.95414137 -1.55102539 200.8581543 C-4.29157165 204.3446653 -7.03112171 207.83193588 -9.76586914 211.32299805 C-13.96102881 216.67510528 -18.16931119 222.01457755 -22.43188477 227.31323242 C-27.20339245 233.24487138 -31.88630017 239.23159449 -36.48852539 245.2956543 C-41.31114674 251.6464492 -46.26215098 257.87370719 -51.31201172 264.04492188 C-56.19337773 270.01316896 -60.96279636 276.06384057 -65.70825195 282.14038086 C-68.4416482 285.63714013 -71.18752795 289.12410978 -73.9309082 292.61303711 C-76.20148959 295.50155135 -78.46931563 298.39213003 -80.73071289 301.2878418 C-85.62836093 307.55202705 -90.58368569 313.76196688 -95.61352539 319.9206543 C-100.37729718 325.75606544 -105.02377544 331.66332439 -109.59399414 337.65112305 C-113.56021772 342.84411252 -117.61982634 347.96436391 -121.66430664 353.09643555 C-123.03520222 354.83805218 -124.4030253 356.58203314 -125.76977539 358.3269043 C-130.99783205 364.99899891 -136.26566941 371.63711973 -141.56811523 378.25024414 C-146.77513885 384.75018536 -151.91591452 391.30135448 -157.05102539 397.8581543 C-158.86265146 400.17134086 -160.67500985 402.4839487 -162.48852539 404.7956543 C-162.94122803 405.37283203 -163.39393066 405.95000977 -163.86035156 406.54467773 C-166.69531102 410.1523527 -169.55590254 413.73820036 -172.43188477 417.31323242 C-177.20339245 423.24487138 -181.88630017 429.23159449 -186.48852539 435.2956543 C-191.31114674 441.6464492 -196.26215098 447.87370719 -201.31201172 454.04492188 C-206.19337773 460.01316896 -210.96279636 466.06384057 -215.70825195 472.14038086 C-218.4416482 475.63714013 -221.18752795 479.12410978 -223.9309082 482.61303711 C-226.20148959 485.50155135 -228.46931563 488.39213003 -230.73071289 491.2878418 C-235.62836093 497.55202705 -240.58368569 503.76196688 -245.61352539 509.9206543 C-250.37729718 515.75606544 -255.02377544 521.66332439 -259.59399414 527.65112305 C-263.56021772 532.84411252 -267.61982634 537.96436391 -271.66430664 543.09643555 C-273.03520222 544.83805218 -274.4030253 546.58203314 -275.76977539 548.3269043 C-280.99267733 554.9924204 -286.254492 561.62467769 -291.55273438 568.23046875 C-295.53256029 573.19730705 -299.47428268 578.19313933 -303.39868164 583.20385742 C-304.61469581 584.75641374 -305.8328054 586.30732818 -307.05102539 587.8581543 C-307.61854397 588.73311145 -308.18606255 589.6080686 -308.77077866 590.5095396 C-311.05102539 592.8581543 -311.05102539 592.8581543 -314.16693497 593.47339344 C-316.01973886 593.46647999 -316.01973886 593.46647999 -317.90997314 593.45942688 C-318.59942764 593.463699 -319.28888214 593.46797113 -319.99922919 593.47237271 C-322.3091481 593.48060787 -324.61725046 593.45311274 -326.92700195 593.42578125 C-328.58274289 593.42437088 -330.23848696 593.42516255 -331.89422607 593.42799377 C-336.38998705 593.42942976 -340.88508251 593.40001068 -345.38068867 593.36512399 C-350.07852629 593.33389081 -354.77637877 593.33093215 -359.4743042 593.32499695 C-368.3708093 593.30944955 -377.26700759 593.26840898 -386.16337752 593.2182495 C-396.29140835 593.1623839 -406.41945375 593.13487654 -416.54760027 593.10977232 C-437.38224662 593.05749391 -458.21661669 592.96953421 -479.05102539 592.8581543 C-477.78942874 589.59080956 -476.61780827 587.01660346 -474.36352539 584.3269043 C-473.57051025 583.36856689 -473.57051025 583.36856689 -472.76147461 582.39086914 C-472.19702637 581.72007324 -471.63257813 581.04927734 -471.05102539 580.3581543 C-469.86477761 578.92437593 -468.67989635 577.48946595 -467.49633789 576.0534668 C-466.61703613 574.98854004 -466.61703613 574.98854004 -465.7199707 573.90209961 C-463.39644189 571.05649059 -461.1517297 568.15555349 -458.92602539 565.2331543 C-451.59369752 555.63382651 -444.12837049 546.15236876 -436.48852539 536.7956543 C-431.72367919 530.95877004 -427.07657006 525.04967409 -422.50415039 519.0612793 C-415.6511489 510.08947541 -408.59597474 501.27394579 -401.53417969 492.46630859 C-396.78608277 486.53943733 -392.09302842 480.57030796 -387.40991211 474.59204102 C-384.6681742 471.09368984 -381.92027583 467.60017479 -379.17358398 464.10571289 C-376.892463 461.20313007 -374.61274276 458.29947157 -372.33618164 455.39331055 C-367.65066433 449.4156141 -362.93673122 443.46367597 -358.17602539 437.5456543 C-353.9217827 432.25557204 -349.77522812 426.89405235 -345.67602539 421.4831543 C-340.63631213 414.83661991 -335.40811338 408.373774 -330.07763672 401.95898438 C-325.74933014 396.73946682 -321.57947761 391.42494446 -317.47290039 386.0300293 C-313.51595477 380.84770696 -309.46929347 375.73633833 -305.43334961 370.61547852 C-304.0744592 368.88794528 -302.7201883 367.15689964 -301.36743164 365.42456055 C-296.47174508 359.16114489 -291.51721418 352.9529325 -286.48852539 346.7956543 C-281.72360346 340.95883429 -277.07656783 335.04967117 -272.50415039 329.0612793 C-266.66912983 321.42219441 -260.69240253 313.89151758 -254.66821289 306.40112305 C-249.91603345 300.4919994 -245.25513065 294.52751789 -240.67602539 288.4831543 C-235.63631213 281.83661991 -230.40811338 275.373774 -225.07763672 268.95898438 C-220.74817362 263.73807216 -216.5776745 258.42169839 -212.46899414 253.02612305 C-205.62915531 244.0647187 -198.58583582 235.26130029 -191.53417969 226.46630859 C-186.78608277 220.53943733 -182.09302842 214.57030796 -177.40991211 208.59204102 C-174.6681742 205.09368984 -171.92027583 201.60017479 -169.17358398 198.10571289 C-166.892463 195.20313007 -164.61274276 192.29947157 -162.33618164 189.39331055 C-157.10612032 182.72047368 -151.83752239 176.08061193 -146.53393555 169.46606445 C-141.78600306 163.5392079 -137.09295824 157.57021837 -132.40991211 151.59204102 C-129.6681742 148.09368984 -126.92027583 144.60017479 -124.17358398 141.10571289 C-121.892463 138.20313007 -119.61274276 135.29947157 -117.33618164 132.39331055 C-112.10612032 125.72047368 -106.83752239 119.08061193 -101.53393555 112.46606445 C-96.78600306 106.5392079 -92.09295824 100.57021837 -87.40991211 94.59204102 C-84.6681742 91.09368984 -81.92027583 87.60017479 -79.17358398 84.10571289 C-76.892463 81.20313007 -74.61274276 78.29947157 -72.33618164 75.39331055 C-67.10612032 68.72047368 -61.83752239 62.08061193 -56.53393555 55.46606445 C-51.78600306 49.5392079 -47.09295824 43.57021837 -42.40991211 37.59204102 C-39.67269142 34.09945363 -36.92972078 30.61137718 -34.18676758 27.12329102 C-31.82818602 24.12322248 -29.47355576 21.12017676 -27.12524414 18.11206055 C-26.6418457 17.49395508 -26.15844727 16.87584961 -25.66040039 16.23901367 C-24.74892521 15.07337715 -23.8386578 13.9067946 -22.92993164 12.73901367 C-22.10615569 11.68655145 -21.27045977 10.64326552 -20.42086697 9.61153126 C-19.02543213 7.89512508 -19.02543213 7.89512508 -17.94291019 6.0393095 C-13.34488537 -0.75505807 -7.6455824 -0.11651583 0 0 Z " fill="#221D51" transform="translate(479.051025390625,-0.858154296875)"/>
<path d="M0 0 C4.48173147 0.07381625 8.96307917 0.04854328 13.44524801 0.03566134 C21.19938801 0.0267716 28.95108563 0.0798397 36.70461118 0.1757046 C47.91428714 0.31421082 59.12278911 0.35817289 70.33322795 0.37950046 C88.52321918 0.41665439 106.71191016 0.52964077 124.90119588 0.69064486 C142.56421591 0.84682753 160.22688204 0.96709108 177.8904537 1.03927767 C178.98027867 1.04374397 180.07010365 1.04821027 181.19295362 1.05281191 C186.66060324 1.07499848 192.12825534 1.0964813 197.59590912 1.11761427 C242.91431066 1.29368357 288.23129438 1.59295977 333.54841268 1.97311556 C332.16175243 4.82992613 330.72343044 7.15555741 328.67731893 9.59030306 C328.10884237 10.27221713 327.54036581 10.95413119 326.95466268 11.65670931 C326.34622518 12.37987338 325.73778768 13.10303744 325.11091268 13.84811556 C320.68029418 19.16666988 316.29462766 24.50604383 312.04841268 29.97311556 C307.96986001 35.21469598 303.78478301 40.35834075 299.54841268 45.47311556 C294.73791278 51.28125682 290.01547109 57.14533497 285.3760494 63.09079134 C281.97325807 67.44751902 278.49720325 71.73829168 274.98591268 76.00827181 C267.49237725 85.12300482 260.05686985 94.27804339 252.80524862 103.58664095 C248.33139056 109.30296542 243.7022198 114.88963604 239.0545162 120.46505892 C238.48273641 121.15349886 237.91095663 121.84193881 237.32185018 122.55124056 C236.81057577 123.16386752 236.29930135 123.77649447 235.77253377 124.40768588 C234.46696284 125.97045491 234.46696284 125.97045491 233.54841268 127.97311556 C159.62841268 128.30311556 85.70841268 128.63311556 9.54841268 128.97311556 C9.54841268 174.84311556 9.54841268 220.71311556 9.54841268 267.97311556 C70.26841268 267.97311556 130.98841268 267.97311556 193.54841268 267.97311556 C193.54841268 312.52311556 193.54841268 357.07311556 193.54841268 402.97311556 C132.82841268 402.97311556 72.10841268 402.97311556 9.54841268 402.97311556 C9.54841268 466.00311556 9.54841268 529.03311556 9.54841268 593.97311556 C-37.64158732 593.97311556 -84.83158732 593.97311556 -133.45158732 593.97311556 C-133.53978789 537.2662569 -133.61363736 480.55946299 -133.65584864 423.85255536 C-133.6608514 417.15608833 -133.66602404 410.45962144 -133.67131388 403.76315463 C-133.67183692 403.09679057 -133.67235995 402.43042651 -133.67289884 401.7438696 C-133.68993147 380.16139523 -133.71996715 358.57896286 -133.7567762 336.99651392 C-133.79561847 314.18037473 -133.81958004 291.36425715 -133.8279413 268.54808545 C-133.83342667 254.88543239 -133.85074493 241.22289996 -133.88325319 227.56028403 C-133.90441517 218.18825538 -133.91078352 208.81628898 -133.90559283 199.44423817 C-133.90303371 194.03900984 -133.90692595 188.63399214 -133.92840922 183.22880137 C-133.94795894 178.27375831 -133.94880284 173.31906637 -133.9351829 168.36400671 C-133.93350103 166.57775965 -133.93850352 164.79149015 -133.95112005 163.00528686 C-134.08529642 142.82469947 -128.57163412 127.99210466 -116.01408732 112.03561556 C-114.58753985 110.19376084 -113.16177714 108.35129808 -111.73674357 106.50827181 C-110.66190714 105.12406039 -110.66190714 105.12406039 -109.56535685 103.71188509 C-106.31463246 99.49998556 -103.1329518 95.23749773 -99.95158732 90.97311556 C-91.51955555 79.70082046 -82.97537147 68.51488998 -74.43107951 57.32760775 C-66.61300151 47.08883796 -58.81538423 36.83656128 -51.11345255 26.5099808 C-49.9801134 24.99307536 -48.81629464 23.49855384 -47.62595236 22.0259558 C-45.87976941 19.57428946 -44.71421448 17.48984376 -43.45140898 14.80494177 C-34.21612547 -2.74422468 -17.34887746 -0.35858058 0 0 Z " fill="#221D51" transform="translate(871.4515873193741,-1.9731155633926392)"/>
<path d="M0 0 C0.99420065 -0.00085442 1.98840129 -0.00170885 3.01272923 -0.00258917 C6.33533264 -0.00423283 9.65788527 0.00125917 12.98048401 0.00672913 C15.36572264 0.00701126 17.75096137 0.00685274 20.13619995 0.00628662 C25.93521144 0.00602946 31.73420637 0.01036093 37.53321408 0.01672428 C44.28311893 0.02388283 51.03302144 0.02537032 57.78292955 0.02651245 C69.81948765 0.02869903 81.85603896 0.03534844 93.89259338 0.04481506 C105.58237168 0.05399937 117.27214814 0.06107522 128.96192932 0.06532288 C129.68294319 0.0655856 130.40395705 0.06584832 131.14681982 0.06611901 C134.76407061 0.06742408 138.38132142 0.06868778 141.99857223 0.06993091 C171.98937375 0.08029126 201.98016734 0.0979734 231.97096252 0.12025452 C231.19715307 5.16709315 228.96135657 7.86746531 225.59596252 11.55775452 C224.48937874 12.80822385 223.38526771 14.06088516 222.28346252 15.31556702 C221.72529846 15.95010803 221.1671344 16.58464905 220.59205627 17.23841858 C218.16072469 20.06081374 215.87360315 22.98591896 213.59596252 25.93275452 C207.73009634 33.49177181 201.63773308 40.85693953 195.53688049 48.22669983 C191.9956807 52.50882418 188.48291482 56.81414216 184.97096252 61.12025452 C184.24658997 62.00680725 184.24658997 62.00680725 183.50758362 62.91127014 C177.72220507 69.99395443 171.96597474 77.09287398 166.34596252 84.30775452 C162.38743671 89.38717118 158.29374576 94.32549466 154.10426331 99.21546936 C151.2021966 102.61899993 148.39313626 106.08034341 145.64356995 109.60829163 C144.70427716 110.81291407 143.75921894 112.01306575 142.80812073 113.20838928 C140.82994366 115.69694948 138.95303382 118.14780643 137.21705627 120.81556702 C135.59341304 123.15133447 134.40527265 124.64278305 131.97096252 126.12025452 C127.88263555 126.58192954 124.08111256 126.08190206 120.03102112 125.43763733 C116.37961408 124.87508351 112.70683479 124.50805472 109.03346252 124.12025452 C108.24310608 124.03356506 107.45274963 123.94687561 106.63844299 123.8575592 C96.44141276 122.78036551 86.21619445 122.41335857 75.97096252 122.12025452 C74.91038635 122.08520813 74.91038635 122.08520813 73.8283844 122.04945374 C23.83548846 120.54865792 -28.95843982 129.06286578 -74.02903748 151.12025452 C-74.93009216 151.55853577 -75.83114685 151.99681702 -76.75950623 152.44837952 C-90.01856381 158.96160079 -102.30015158 166.13297083 -114.02903748 175.12025452 C-114.9906781 175.85115295 -115.95231873 176.58205139 -116.94309998 177.33509827 C-132.15757922 189.22877012 -145.52079575 202.64924903 -157.02903748 218.12025452 C-157.66688171 218.96692688 -157.66688171 218.96692688 -158.31761169 219.83070374 C-171.34016581 237.17908897 -181.26380402 256.18911891 -189.84153748 276.05775452 C-190.21480164 276.92174866 -190.5880658 277.7857428 -190.97264099 278.67591858 C-191.68225743 280.34730924 -192.37674864 282.02521373 -193.05491638 283.70960999 C-193.68779239 285.27577984 -194.35521123 286.82858362 -195.06175232 288.3629303 C-198.47239503 296.54520207 -195.219512 303.25299563 -192.11888123 311.08509827 C-191.41113677 312.74681672 -190.69335177 314.40428803 -189.96653748 316.05775452 C-189.57442078 316.95671448 -189.18230408 317.85567444 -188.77830505 318.78187561 C-179.01112224 340.91412244 -167.58692589 361.51433397 -152.02903748 380.12025452 C-151.53903259 380.71177307 -151.04902771 381.30329163 -150.54417419 381.91273499 C-140.96201747 393.44766811 -130.87874531 403.86573063 -119.02903748 413.12025452 C-118.0931781 413.86146545 -117.15731873 414.60267639 -116.19309998 415.36634827 C-64.07951134 455.6740435 8.17257853 464.50940164 71.97096252 468.12025452 C72.7383374 468.16368988 73.50571228 468.20712524 74.29634094 468.25187683 C90.93778297 469.16144397 107.57092071 469.32003403 124.23371887 469.30913544 C126.37595199 469.30773491 128.51818213 469.30783958 130.66041565 469.30793762 C160.98110201 469.29762914 191.15104492 468.19340782 221.35768127 465.48744202 C224.9072233 465.17853862 228.40496304 465.03746183 231.97096252 465.12025452 C231.63927505 471.1182696 228.98805773 474.08997322 225.22096252 478.43275452 C224.02475502 479.85669294 222.83081046 481.28253494 221.63893127 482.71009827 C221.02710999 483.43954651 220.4152887 484.16899475 219.78492737 484.92054749 C216.93812091 488.37273136 214.23338421 491.92775301 211.53346252 495.49525452 C210.45044942 496.92127902 209.36711287 498.34705794 208.28346252 499.77259827 C207.74076721 500.48657776 207.1980719 501.20055725 206.63893127 501.93617249 C202.05520835 507.93821951 197.39379976 513.88077364 192.7502594 519.83656311 C190.95209601 522.14446931 189.15642695 524.45429382 187.36158752 526.76478577 C181.99873941 533.66789459 176.6296288 540.56546324 171.22096252 547.43275452 C167.4347041 552.24096162 163.68373868 557.07446783 159.96144104 561.93251038 C157.45812701 565.19652444 154.93934815 568.44786981 152.40846252 571.69056702 C151.78818176 572.48559631 151.167901 573.28062561 150.52882385 574.0997467 C149.31371611 575.65602359 148.09747127 577.21141356 146.87989807 578.76576233 C146.31569153 579.48860413 145.75148499 580.21144592 145.17018127 580.95619202 C144.67348938 581.59089417 144.17679749 582.22559631 143.66505432 582.87953186 C141.7757819 585.23132141 141.7757819 585.23132141 140.20866394 588.70666504 C138.3527384 591.2724301 137.38364985 592.02124934 134.26838779 592.76861191 C130.65378397 593.01427951 127.09643731 593.03102342 123.47364807 592.97840881 C122.08328491 592.98298593 120.69292892 592.99058702 119.30259705 593.00097656 C115.52608178 593.02007609 111.75099989 592.99533493 107.97463202 592.96173835 C103.99936387 592.93274183 100.02414704 592.94049171 96.04879761 592.94320679 C89.35277313 592.94221602 82.65730128 592.91378348 75.96144104 592.86805725 C68.28233991 592.81584383 60.60393413 592.80133938 52.92467469 592.80909032 C45.48959404 592.81608449 38.05474271 592.79993275 30.61971474 592.77233315 C27.48280247 592.76079813 24.34599877 592.75607207 21.20906639 592.75713158 C-41.64226717 592.74068859 -97.25772944 571.51039624 -143.02903748 528.12025452 C-143.53080505 527.64716858 -144.03257263 527.17408264 -144.54954529 526.68666077 C-152.55005624 519.09260664 -159.44029346 510.95577247 -166.02903748 502.12025452 C-166.66688171 501.28155823 -166.66688171 501.28155823 -167.31761169 500.42591858 C-174.57253099 490.86984265 -180.51644143 480.76771935 -186.02903748 470.12025452 C-186.61515808 468.98910217 -186.61515808 468.98910217 -187.21311951 467.83509827 C-207.2386851 428.64112516 -211.52896227 387.84890121 -211.43201399 344.51753926 C-211.42427516 339.95740735 -211.43150166 335.39729107 -211.43617249 330.8371582 C-211.4415901 323.18645416 -211.43454527 315.53583775 -211.42015076 307.88514709 C-211.40383794 299.11514443 -211.40911916 290.34535127 -211.42562997 281.57535368 C-211.43936718 273.96599574 -211.44110538 266.35669984 -211.43331397 258.74733347 C-211.42870305 254.23752738 -211.42782581 249.7278188 -211.43792343 245.21801949 C-211.48464448 221.07797835 -211.42302671 196.77853101 -205.27903748 173.24525452 C-205.02372253 172.22826477 -204.76840759 171.21127502 -204.50535583 170.16346741 C-195.90761812 136.92286323 -180.53444815 106.13830642 -158.02903748 80.12025452 C-157.37032654 79.3506842 -156.7116156 78.58111389 -156.03294373 77.78822327 C-144.8352789 65.02415542 -132.8519838 53.01856823 -119.02903748 43.12025452 C-118.37274353 42.64668518 -117.71644958 42.17311584 -117.04026794 41.68519592 C-87.15293178 20.35315363 -53.19438714 6.91713677 -17.02903748 1.12025452 C-16.03128264 0.94978387 -15.03352781 0.77931322 -14.00553799 0.6036768 C-9.34056058 -0.05461745 -4.70335073 -0.01487171 0 0 Z " fill="#221D51" transform="translate(1368.029037475586,-0.1202545166015625)"/>
<path d="M0 0 C0.66 0 1.32 0 2 0 C2.26925293 0.77355835 2.26925293 0.77355835 2.54394531 1.56274414 C9.31836903 20.76186589 17.85235575 39.55506658 30 56 C30.75539063 57.03769531 31.51078125 58.07539063 32.2890625 59.14453125 C59.68217316 96.14094213 97.9929353 115.09482701 143 122 C145.9389155 122.30261646 148.8729858 122.55680146 151.8203125 122.76049805 C154 123 154 123 156 124 C154.47920927 127.50827915 152.4004327 129.95271646 149.8125 132.75 C147.0192846 135.78745522 144.27783119 138.83972652 141.625 142 C117.08020774 169.95534426 77.71728989 191.68380953 40.51916504 195.23696899 C35.62481812 195.53587209 30.73994586 195.57210131 25.83789062 195.52148438 C23.36749954 195.49993457 20.89999491 195.52149847 18.4296875 195.546875 C-10.78971743 195.59812028 -36.82521573 183.71648608 -58 164 C-58.68449219 163.38511719 -59.36898438 162.77023437 -60.07421875 162.13671875 C-73.44346181 149.57773284 -83.42612055 131.9889669 -90 115 C-90 114.01 -90 113.02 -90 112 C-89.34 112 -88.68 112 -88 112 C-87.65388672 111.20335937 -87.65388672 111.20335937 -87.30078125 110.390625 C-85.58939998 107.24538375 -83.41564007 104.53693972 -81.1875 101.75 C-80.46216064 100.83408081 -80.46216064 100.83408081 -79.72216797 99.8996582 C-75.52768346 94.61942436 -71.2553504 89.40315626 -66.98583984 84.18359375 C-62.99357346 79.2801901 -59.13154713 74.2891144 -55.3125 69.25 C-50.83784577 63.34627468 -46.23706172 57.60957794 -41.45703125 51.94921875 C-36.83852692 46.40554503 -32.43542463 40.69037876 -28 35 C-20.56496957 25.47108822 -13.02904896 16.03214508 -5.36376953 6.68701172 C-4.12885973 5.15940221 -2.93488602 3.59892285 -1.74609375 2.03515625 C-1.16988281 1.36355469 -0.59367187 0.69195312 0 0 Z " fill="#B3A080" transform="translate(380,397)"/>
</svg>
