<?xml version="1.0" encoding="UTF-8" standalone="no"?>
<svg xmlns="http://www.w3.org/2000/svg" viewBox="0 0 1041.5596 906.17998">
    <title>CONCACAF logo</title>
    <g id="logo" transform="matrix(0.421506,0,0,0.42662386,-157.68234,-152.95294)">
        <g id="type" style="fill:#28282a">
            <path d="m 613,2444 c -115,0 -204,-90 -204,-204 0,-115 90,-204 204,-204 72,0 139,38 176,100 l 1,2 -56,35 -1,-3 c -25,-46 -68,-73 -120,-73 -78,0 -140,62 -140,142 0,79 61,141 139,141 55,0 100,-29 124,-79 l 1,-3 58,31 -1,3 c -36,70 -104,112 -181,112 z"/>
            <path d="m 957,2218 c -44,0 -79,36 -79,83 0,47 35,83 79,83 44,0 80,-37 80,-83 0,-46 -36,-83 -80,-83 z m 0,226 c -80,0 -142,-63 -142,-143 0,-80 62,-143 142,-143 80,0 143,63 143,143 0,79 -64,143 -143,143 z"/>
            <path d="m 1323,2439 v -155 c 0,-45 -22,-69 -62,-69 -39,0 -65,30 -65,73 v 151 h -63 v -274 h 63 v 30 c 20,-23 48,-35 80,-35 69,0 112,46 112,120 v 160 h -64 z"/>
            <path d="m 1561,2444 c -80,0 -143,-63 -143,-143 0,-80 63,-143 143,-143 58,0 108,32 130,84 l 1,3 -57,24 -1,-3 c -13,-31 -40,-49 -73,-49 -45,0 -81,36 -81,83 0,47 36,83 82,83 33,0 60,-19 73,-51 l 1,-3 58,24 -1,3 c -24,55 -72,86 -132,86 z"/>
            <path d="m 1857,2217 c -46,0 -82,37 -82,84 0,47 36,85 82,85 46,0 82,-37 82,-85 0,-47 -36,-84 -82,-84 z m -8,227 c -67,0 -137,-53 -137,-143 0,-93 71,-143 137,-143 33,0 65,13 86,35 v -30 h 63 v 274 h -63 v -32 c -21,24 -53,37 -87,37 z"/>
            <path d="m 2175,2444 c -80,0 -143,-63 -143,-143 0,-80 63,-143 143,-143 58,0 108,32 130,84 l 1,3 -57,24 -1,-3 c -13,-31 -40,-49 -73,-49 -45,0 -81,36 -81,83 0,47 36,83 82,83 33,0 60,-19 73,-51 l 1,-3 57,24 -1,3 c -24,55 -72,86 -132,86 z"/>
            <path d="m 2471,2217 c -46,0 -82,37 -82,84 0,47 36,85 82,85 46,0 82,-37 82,-85 0,-47 -36,-84 -82,-84 z m -8,227 c -67,0 -137,-53 -137,-143 0,-93 71,-143 137,-143 33,0 65,13 86,35 v -30 h 63 v 274 h -63 v -32 c -21,24 -53,37 -87,37 z"/>
            <path d="m 2688,2439 v -217 h -45 v -57 h 45 v -11 c 0,-85 27,-112 113,-112 h 8 v 59 h -3 c -50,0 -54,8 -54,54 v 11 h 57 v 57 h -57 v 217 h -64 z"/>
        </g>
        <g id="mark" style="fill:#d5ba81">
            <path d="m 1605,680 -31,-139 31,-140 c 1,-4 7,-4 8,0 l 31,140 -31,139 c -1,4 -7,4 -8,0 z"/>
            <path d="m 1535,686 -52,-133 10,-143 c 0,-4 6,-5 8,-1 l 52,133 -9,143 c 0,4 -6,5 -8,1 z"/>
            <path d="m 1467,702 -72,-124 -12,-142 c 0,-4 5,-6 7,-2 l 72,124 13,142 c 0,4 -5,6 -7,2 z"/>
            <path d="m 1402,729 -90,-111 -34,-139 c -1,-4 4,-7 7,-3 l 90,111 34,139 c 1,4 -4,7 -7,3 z"/>
            <path d="m 1343,765 -106,-96 -55,-132 c -2,-4 3,-7 6,-5 l 106,96 55,132 c 2,4 -3,7 -6,5 z"/>
            <path d="m 1289,810 -119,-79 -74,-122 c -2,-4 2,-8 6,-5 l 119,79 74,122 c 2,4 -2,8 -6,5 z"/>
            <path d="m 1243,863 -130,-60 -92,-109 c -3,-3 1,-8 5,-6 l 130,60 92,109 c 3,3 -1,8 -5,6 z"/>
            <path d="M 1205,922 1068,883 960,789 c -3,-3 0,-8 4,-7 l 137,39 108,94 c 3,3 0,8 -4,7 z"/>
            <path d="M 1177,986 1035,968 914,891 c -4,-2 -2,-8 3,-7 l 142,18 121,76 c 4,2 2,8 -3,7 z"/>
            <path d="m 1159,1053 -143,4 -131,-57 c -4,-2 -3,-7 1,-8 l 143,-4 131,57 c 4,2 3,7 -1,8 z"/>
            <path d="m 1152,1123 -141,26 -138,-37 c -4,-1 -4,-7 0,-8 l 141,-26 138,36 c 4,1 4,7 0,8 z"/>
            <path d="m 1155,1193 -135,47 -142,-15 c -4,-1 -5,-6 -1,-8 l 135,-47 142,15 c 4,1 5,6 1,8 z"/>
            <path d="m 1169,1261 -126,67 -143,7 c -4,0 -6,-5 -2,-8 l 126,-67 143,-7 c 4,0 6,5 2,8 z"/>
            <path d="m 1193,1327 -115,86 -140,29 c -4,1 -7,-5 -3,-7 l 115,-85 140,-29 c 4,-1 7,5 3,7 z"/>
            <path d="m 1227,1388 -100,102 -134,50 c -4,1 -7,-4 -4,-7 l 100,-102 134,-50 c 4,-1 7,4 4,7 z"/>
            <path d="m 1270,1444 -83,116 -125,70 c -4,2 -8,-2 -5,-6 l 84,-116 125,-70 c 4,-2 8,2 5,6 z"/>
            <path d="m 1321,1492 -65,127 -113,88 c -3,3 -8,-1 -6,-5 l 65,-127 113,-88 c 3,-3 8,1 6,5 z"/>
            <path d="m 1378,1532 -44,136 -98,104 c -3,3 -8,0 -7,-4 l 45,-136 98,-104 c 3,-3 8,0 7,4 z"/>
            <path d="m 1441,1562 -23,141 -81,118 c -2,3 -8,1 -7,-3 l 23,-141 81,-118 c 2,-3 8,-1 7,3 z"/>
            <path d="m 1508,1583 -1,143 -62,129 c -2,4 -8,2 -8,-2 l 2,-143 62,-129 c 2,-4 8,-2 8,2 z"/>
            <path d="m 1578,1593 20,141 -42,137 c -1,4 -7,4 -8,-1 l -20,-141 42,-137 c 1,-4 7,-4 8,1 z"/>
            <path d="m 1647,1592 42,137 -20,141 c -1,4 -6,5 -8,1 l -42,-137 20,-141 c 1,-4 6,-5 8,-1 z"/>
            <path d="m 1717,1581 62,129 1,143 c 0,4 -6,6 -8,2 l -62,-129 -2,-143 c 0,-4 6,-6 8,-2 z"/>
            <path d="m 1783,1559 81,118 23,141 c 1,4 -5,6 -7,3 l -81,-118 -23,-141 c -1,-4 5,-6 7,-3 z"/>
            <path d="m 1846,1528 98,104 44,136 c 1,4 -4,7 -7,4 l -98,-104 -45,-136 c -1,-4 4,-7 7,-4 z"/>
            <path d="m 1902,1487 113,88 65,127 c 2,4 -3,7 -6,5 l -113,-88 -65,-127 c -2,-4 3,-7 6,-5 z"/>
            <path d="m 1952,1438 125,70 83,116 c 2,3 -1,8 -5,6 l -125,-70 -83,-116 c -2,-3 1,-8 5,-6 z"/>
            <path d="m 1994,1382 134,50 100,102 c 3,3 0,8 -4,7 l -134,-50 -100,-102 c -3,-3 0,-8 4,-7 z"/>
            <path d="m 2027,1320 140,29 115,86 c 3,3 1,8 -3,7 l -140,-29 -115,-85 c -3,-3 -1,-8 3,-7 z"/>
            <path d="m 2050,1254 143,7 126,67 c 4,2 2,8 -2,8 l -143,-7 -126,-67 c -4,-2 -2,-8 2,-8 z"/>
            <path d="m 2063,1185 142,-15 135,47 c 4,1 3,7 -1,8 l -142,15 -135,-47 c -4,-1 -3,-7 1,-8 z"/>
            <path d="m 2065,1115 138,-37 141,26 c 4,1 4,7 0,8 l -138,36 -141,-26 c -4,-1 -4,-7 0,-8 z"/>
            <path d="m 2057,1046 131,-57 143,4 c 4,0 5,6 1,8 l -131,57 -143,-4 c -4,0 -5,-6 -1,-8 z"/>
            <path d="m 2038,979 121,-77 142,-18 c 4,0 6,5 3,7 l -121,76 -142,18 c -4,0 -6,-5 -3,-7 z"/>
            <path d="m 2008,915 108,-94 137,-39 c 4,-1 7,4 4,7 l -108,94 -137,39 c -4,1 -7,-4 -4,-7 z"/>
            <path d="m 1970,857 92,-109 130,-60 c 4,-2 7,3 5,6 l -92,109 -130,60 c -4,2 -7,-3 -5,-6 z"/>
            <path d="m 1923,805 74,-122 119,-79 c 4,-2 8,2 6,5 l -74,122 -119,79 c -4,2 -8,-2 -6,-5 z"/>
            <path d="m 1869,761 55,-132 106,-96 c 3,-3 8,1 6,5 l -55,132 -106,96 c -3,3 -8,-1 -6,-5 z"/>
            <path d="m 1808,725 34,-139 90,-111 c 3,-3 8,-1 7,3 l -34,139 -90,111 c -3,3 -8,1 -7,-3 z"/>
            <path d="m 1743,700 12,-142 72,-124 c 2,-4 8,-2 7,2 l -13,142 -72,124 c -2,4 -8,2 -7,-2 z"/>
            <path d="m 1675,684 -10,-143 52,-133 c 2,-4 7,-3 8,1 l 9,143 -52,133 c -2,4 -7,3 -8,-1 z"/>
        </g>
    </g>
</svg>
