<svg id="Layer_1" data-name="Layer 1" xmlns="http://www.w3.org/2000/svg" xmlns:xlink="http://www.w3.org/1999/xlink" viewBox="0 0 339.8 294.37"><defs><linearGradient id="linear-gradient" x1="326.97" y1="480.56" x2="286.25" y2="410.04" gradientTransform="matrix(1.85, 0, 0, -1.85, -191.19, 1153.23)" gradientUnits="userSpaceOnUse"><stop offset="0" stop-color="#8cbae4"/><stop offset="0.11" stop-color="#6dacdf"/><stop offset="0.54" stop-color="#005ca4"/><stop offset="1" stop-color="#005ca4"/></linearGradient><linearGradient id="linear-gradient-2" x1="339.69" y1="487.72" x2="282.17" y2="388.09" gradientTransform="matrix(1.85, 0, 0, -1.85, -191.19, 1153.23)" gradientUnits="userSpaceOnUse"><stop offset="0.05" stop-color="#8cbae4"/><stop offset="0.54" stop-color="#005ca4"/><stop offset="1" stop-color="#005ca4"/></linearGradient></defs><title>CONMEBOL logo - Brandlogos.net</title><path d="M261.82,531.17a18.87,18.87,0,0,1-5-.74,12.21,12.21,0,0,1-4.62-2.4,13.13,13.13,0,0,1-3.33-4.62,17,17,0,0,1-1.29-7.21V488.26a15.91,15.91,0,0,1,1.11-5.73,13.5,13.5,0,0,1,7.4-7.77,15.17,15.17,0,0,1,11.28,0,13.5,13.5,0,0,1,4.44,3.14,14.43,14.43,0,0,1,3,4.81,16.83,16.83,0,0,1,1.11,6.1v3.33a.74.74,0,0,1-.74.74h-8.32a.74.74,0,0,1-.74-.74v-2.77a6.47,6.47,0,0,0-1.29-4.07,3.88,3.88,0,0,0-3.33-1.66,3.7,3.7,0,0,0-3.51,1.66,10.36,10.36,0,0,0-.92,4.81v25.71a7.58,7.58,0,0,0,.92,4.07,3.7,3.7,0,0,0,3.51,1.48h1.66l1.48-.92a4.25,4.25,0,0,0,1.11-1.66,7.21,7.21,0,0,0,.37-2.77v-2.77a.74.74,0,0,1,.74-.74H275a.74.74,0,0,1,.74.74v3.51a15,15,0,0,1-4.07,10.17,14.8,14.8,0,0,1-4.44,3.14A12.76,12.76,0,0,1,261.82,531.17Z" transform="translate(-214.1 -236.82)" style="fill:#005ca4"/><path d="M296.23,531.17a15,15,0,0,1-5.18-.92,14.61,14.61,0,0,1-4.81-3,14.24,14.24,0,0,1-3.33-4.81,16.46,16.46,0,0,1-1.29-6.84V489a16.65,16.65,0,0,1,1.29-6.66,14.24,14.24,0,0,1,3.33-4.81,14.61,14.61,0,0,1,4.81-3,14.8,14.8,0,0,1,10.54,0,14.61,14.61,0,0,1,4.81,3,14.24,14.24,0,0,1,3.33,4.81A16.65,16.65,0,0,1,311,489v26.82a16.46,16.46,0,0,1-1.29,6.84,14.24,14.24,0,0,1-3.33,4.81,14.61,14.61,0,0,1-4.81,3A15.17,15.17,0,0,1,296.23,531.17Zm0-47.72a4.81,4.81,0,0,0-5,5.55v26.82a5.18,5.18,0,0,0,1.48,4.07,5.55,5.55,0,0,0,7.21,0,5.18,5.18,0,0,0,1.48-4.07V489a5.36,5.36,0,0,0-1.48-4.07,5.18,5.18,0,0,0-3.7-1.29Z" transform="translate(-214.1 -236.82)" style="fill:#005ca4"/><path d="M346.54,530.8H339a.74.74,0,0,1-.74-.55l-10.73-27.93a.55.55,0,0,0-.92.18v27.38a.74.74,0,0,1-.74.74H317.5a.74.74,0,0,1-.74-.74V474.94a.74.74,0,0,1,.74-.74h7.77a.74.74,0,0,1,.74.55l10.54,27.93a.55.55,0,0,0,.92-.18V474.94a.74.74,0,0,1,.74-.74h8.14a.74.74,0,0,1,.74.74v54.94a.74.74,0,0,1-.51.91Z" transform="translate(-214.1 -236.82)" style="fill:#005ca4"/><path d="M393,530.8h-8.14a.74.74,0,0,1-.74-.74V502.68a.55.55,0,0,0-.92-.18l-6.29,19.61-.55.37h-4.44l-.55-.37-6.1-19.61a.55.55,0,0,0-.92.18v27.19a.74.74,0,0,1-.74.74h-8.14a.74.74,0,0,1-.74-.74V474.94a.74.74,0,0,1,.74-.74h7.77a.74.74,0,0,1,.74.55l9.8,26.45a.55.55,0,0,0,.92,0l9.62-26.64A.74.74,0,0,1,385,474h8a.74.74,0,0,1,.74.74v54.94a.74.74,0,0,1-.74,1.11Z" transform="translate(-214.1 -236.82)" style="fill:#005ca4"/><path d="M426.45,530.8h-24.6a.74.74,0,0,1-.74-.74V474.94a.74.74,0,0,1,.74-.74h24.79a.74.74,0,0,1,.74.74v8a.74.74,0,0,1-.74.74H411.28a.55.55,0,0,0-.55.55h0v12.76a.55.55,0,0,0,.55.55h13.13a.74.74,0,0,1,.74.74v8a.74.74,0,0,1-.74.74H411.28a.55.55,0,0,0-.55.55h0v12.76a.55.55,0,0,0,.55.55h15.35a.74.74,0,0,1,.74.74v8.32a.74.74,0,0,1-.92.92Z" transform="translate(-214.1 -236.82)" style="fill:#005ca4"/><path d="M444.76,530.8H433.48a.74.74,0,0,1-.74-.74V474.94a.74.74,0,0,1,.74-.74h12a17.39,17.39,0,0,1,7,1.29,13.69,13.69,0,0,1,4.81,3.51,16.65,16.65,0,0,1,3.7,9.43c.37,5.18-.74,10.36-5,13.5h-.18a9.8,9.8,0,0,1,3.7,4.07,19.42,19.42,0,0,1,1.29,11.1,16.65,16.65,0,0,1-3.7,9.06C454.57,529.14,450.31,530.8,444.76,530.8Zm-2.4-10.54a.55.55,0,0,0,.55.55h2.4a8.14,8.14,0,0,0,3.7-.74c3.88-2,4.07-9.06,1.11-12l-.55-.55c-1.85-1.29-4.44-.92-6.66-.92a.55.55,0,0,0-.55.55h0Zm0-23.12a.55.55,0,0,0,.55.55h2.59c2.59,0,4.25-.55,5.18-1.85a9.8,9.8,0,0,0-.18-10.36,6.47,6.47,0,0,0-5.36-1.85h-2.4a.55.55,0,0,0-.55.55h0Z" transform="translate(-214.1 -236.82)" style="fill:#005ca4"/><path d="M481.2,531.17a15,15,0,0,1-5.18-.92,14.61,14.61,0,0,1-4.81-3,14.24,14.24,0,0,1-3.33-4.81,16.46,16.46,0,0,1-1.29-6.84V489a16.65,16.65,0,0,1,1.29-6.66,14.24,14.24,0,0,1,3.33-4.81,14.61,14.61,0,0,1,4.81-3,14.8,14.8,0,0,1,10.54,0,14.61,14.61,0,0,1,4.81,3,14.24,14.24,0,0,1,3.33,4.81A16.65,16.65,0,0,1,496,489v26.82a16.46,16.46,0,0,1-1.29,6.84,14.24,14.24,0,0,1-3.33,4.81,14.61,14.61,0,0,1-4.81,3A15.17,15.17,0,0,1,481.2,531.17Zm0-47.72a4.81,4.81,0,0,0-5,5.55v26.82a5.18,5.18,0,0,0,1.48,4.07,5.55,5.55,0,0,0,7.21,0,5.18,5.18,0,0,0,1.48-4.07V489a5.36,5.36,0,0,0-1.48-4.07,5.18,5.18,0,0,0-3.7-1.29Z" transform="translate(-214.1 -236.82)" style="fill:#005ca4"/><path d="M528.74,530.8H504a.74.74,0,0,1-.74-.74V474.94a.74.74,0,0,1,.74-.74h8.14a.74.74,0,0,1,.74.74v45.32a.55.55,0,0,0,.55.55h15.35a.74.74,0,0,1,.74.74v8.32a.74.74,0,0,1-.74.92Z" transform="translate(-214.1 -236.82)" style="fill:#005ca4"/><rect x="321.48" y="260.69" width="18.31" height="9.97" rx="0.18" ry="0.18" style="fill:#005ca4"/><rect y="260.69" width="18.31" height="9.97" rx="0.18" ry="0.18" style="fill:#005ca4"/><path d="M384.09,268.88a144.65,144.65,0,0,0-33.48,3.88,127.82,127.82,0,0,0-30.52,11.47,4.81,4.81,0,0,0-2.59,3.7c-.37,3.14-.74,6.1-.92,9.06s-.37,6.1-.37,9.06a131.89,131.89,0,0,0,17.57,65.85,129.85,129.85,0,0,0,47.91,47.91,4.62,4.62,0,0,0,4.62,0,129.85,129.85,0,0,0,48.09-47.91A131.89,131.89,0,0,0,452,306.06c0-3-.18-5.92-.37-9.06s-.55-6.1-.92-9.06h0a4.81,4.81,0,0,0-2.59-3.7,128,128,0,0,0-30.52-11.47A144.83,144.83,0,0,0,384.09,268.88Z" transform="translate(-214.1 -236.82)" style="fill:url(#linear-gradient)"/><path d="M302.7,359.51,289,390.59h-.37a105.81,105.81,0,0,1-11.1-47.54h0l23.68,12.21A3.33,3.33,0,0,1,302.7,359.51Zm160.19-65.67c.18,3.51.37,6.84.37,10.17a147.42,147.42,0,0,1-5,37.73l29.41-22.2a105.62,105.62,0,0,0-12.39-30.89l-12.76.55c.18,1.66.37,3.14.55,4.81ZM341.73,262.77l4.07-18.87a106.54,106.54,0,0,0-39.4,26.64l19.24-2.4A145,145,0,0,1,341.73,262.77Zm100.44,5.36,19.24,2.4a106.54,106.54,0,0,0-39-26.64l3.88,18.87a144.83,144.83,0,0,1,16.09,5.36Zm-33.3-9.25-8-20.72a106.36,106.36,0,0,0-33.85,0l-8,20.9a164.07,164.07,0,0,1,49.76,0ZM304.74,304c0-3.33.18-6.66.37-10.17a26.73,26.73,0,0,1,.55-4.62l-12.95-.55a105.62,105.62,0,0,0-12.39,31.08l29.41,22.2A147.42,147.42,0,0,1,304.74,304Zm185.71,38.84-23.68,12.39a3.33,3.33,0,0,0-1.48,4.25L479,390.59h.37a105.81,105.81,0,0,0,11.1-47.54ZM324.16,377.27c-2-3.51-3.7-7-5.36-10.54L301.22,410a106.73,106.73,0,0,0,36.44,29l24.6-18.5A145,145,0,0,1,324.16,377.27Zm56.42,56.23-18.31,13.87a107.1,107.1,0,0,0,43.47,0L387.42,433.5a5.55,5.55,0,0,0-6.66,0Zm63.08-56.23a145.2,145.2,0,0,1-38.1,43.28L430,439.24a106.73,106.73,0,0,0,36.44-29l-17.57-43.28a59.16,59.16,0,0,1-5,10.36Z" transform="translate(-214.1 -236.82)" style="fill:url(#linear-gradient-2)"/><path d="M421.46,330.29a.55.55,0,0,1,0,.74l-1.29,1.66h-.74a28.3,28.3,0,0,0-9.62-7.21,29.78,29.78,0,0,0-12.39-2.59H397a29.6,29.6,0,0,0-16.65,5.36,26.45,26.45,0,0,0-10,12.21l-.55.37h0l-.37-.37-.74-3.14a1.11,1.11,0,0,1,.18-.74,28.86,28.86,0,0,1,2.77-4.25,30.52,30.52,0,0,1,6.66-6.66,32.93,32.93,0,0,1,18.5-5.92h.37a33.11,33.11,0,0,1,13.69,3A31.63,31.63,0,0,1,421.46,330.29Zm1.29-6.1h0a38.1,38.1,0,0,0-25.53-9.62h-.55a39,39,0,0,0-18.68,5A35.89,35.89,0,0,0,365,332a.56.56,0,0,0,0,.37v.74l1.66.92h.74a32.74,32.74,0,0,1,11.84-11.28,35.88,35.88,0,0,1,17.2-4.62H397a35,35,0,0,1,25,10.17h.55a.55.55,0,0,0,.37-.55v-2.77a.92.92,0,0,0,0-.74Zm0-6.66a44.58,44.58,0,0,0-25.34-8h-.55a44.58,44.58,0,0,0-22,6.1,40.88,40.88,0,0,0-14.8,15,.55.55,0,0,0,0,.55l.55.37h2l.74-.37a37.92,37.92,0,0,1,13.13-12.76,41.43,41.43,0,0,1,20.35-5.73h.55a41.06,41.06,0,0,1,25,8.32h.55a.55.55,0,0,0,.37-.55v-2.22a.92.92,0,0,0-.55-.74Zm-25.34-12.95h-.74a50.5,50.5,0,0,0-24.6,6.66A46.43,46.43,0,0,0,355.79,327a.74.74,0,0,0,0,.92l1.11,1.48h.92A43.1,43.1,0,0,1,373.55,314a47.35,47.35,0,0,1,23.12-6.29h.55a46.8,46.8,0,0,1,25,6.84h.74l1.48-1.29a.55.55,0,0,0,.18-.55v-.37a49.94,49.94,0,0,0-27-7.77Zm28.49,2.59a55.86,55.86,0,0,0-28.3-7.58h-.74a56.23,56.23,0,0,0-26.45,6.84,52.16,52.16,0,0,0-18.13,16.46.92.92,0,0,0,0,.92l1.29,1.48h.92a48.83,48.83,0,0,1,17.39-16.09,53.09,53.09,0,0,1,24.79-6.47h.74a52.72,52.72,0,0,1,27.19,7.4h.55l.37-.37.55-2A.55.55,0,0,0,425.9,307.17Zm-29.41-9.43H397a.55.55,0,0,0,0-.55l-.74-1.66a.92.92,0,0,0-.92-.55h0a62.34,62.34,0,0,0-25.9,6.66,57.9,57.9,0,0,0-20,16.65.92.92,0,0,0-.18.92l.92,1.85.37.37h.55A56.79,56.79,0,0,1,396.49,297.73Zm12.95,1.11A57.71,57.71,0,0,1,425,304.39h.55a.55.55,0,0,0,.18-.55l-.55-2.4a.92.92,0,0,0-.55-.55,61,61,0,0,0-12.39-4.44h-.74l-2.22,1.48a.55.55,0,0,0-.18.55Zm-41.43.92a63.63,63.63,0,0,1,13.32-5,65.67,65.67,0,0,1,14.24-2l.55-.37a.55.55,0,0,0,0-.55L395,290a.92.92,0,0,0-.92-.37,68.81,68.81,0,0,0-13.5,2A66.78,66.78,0,0,0,366.52,297a63.45,63.45,0,0,0-21.64,18.31.55.55,0,0,0,0,.55l.37.37,1.85.74h.74A60.3,60.3,0,0,1,368,299.77Zm-7-1.85a68.63,68.63,0,0,1,23.31-9.06l.37-.37a.55.55,0,0,0-.18-.55l-1.85-1.66h-.74a71.77,71.77,0,0,0-22.57,9.06,67.89,67.89,0,0,0-17.2,15,.92.92,0,0,0-.18.74l.37,2.59.37.37h.55A64.56,64.56,0,0,1,361,297.73Zm-17.39,7h.55a72.69,72.69,0,0,1,32.19-19.42l.37-.37a.55.55,0,0,0-.18-.55l-1.29-1.48a.92.92,0,0,0-.92-.18A76,76,0,0,0,343,301.43a.92.92,0,0,0-.18.74l.37,2.4Zm1.66-12.21v.37l1.66,1.29h.74a78.24,78.24,0,0,1,19.05-11.1.6.6,0,0,0,0-1.11l-2.77-.92h-.74a81.39,81.39,0,0,0-17.76,11.1ZM344,290.52h.55a83.24,83.24,0,0,1,8.69-5.92.55.55,0,0,0,.18-.55l-.37-.37-2.4-.74h-.74l-6.29,4.44a.92.92,0,0,0-.37.92l.37,2ZM399.82,346h0a4.44,4.44,0,0,0-2.59-.92h0A4.07,4.07,0,0,0,393,349q0,.09,0,.19a4.44,4.44,0,0,0,1.29,2.77l6.47,5.92h.74l1.85-1.11v-.37a.55.55,0,0,0-.18-.55c-2.59-2.22-6.84-6.1-6.84-6.1l-.37-.74A1.11,1.11,0,0,1,397,348h.74l5.92,5.18h.55l.37-.37.74-2a.55.55,0,0,0-.18-.55Zm4.07-3.51a10.36,10.36,0,0,0-6.66-2.59h-.37a10,10,0,0,0-6.84,2.77,8.88,8.88,0,0,0-2.77,6.47,8.69,8.69,0,0,0,2,5.36,40.51,40.51,0,0,0,12.21,10H402a.55.55,0,0,0,.18-.55l-.74-2.77v-.37a37,37,0,0,1-9.8-8.14,5.63,5.63,0,0,1,.55-7.77,6.84,6.84,0,0,1,4.62-1.85h.37a7,7,0,0,1,4.62,1.85l5.18,4.62h.74l1.66-1.29v-.37a.55.55,0,0,0-.18-.37Zm3.51-3.88a13.32,13.32,0,0,0-3-2,16.09,16.09,0,0,0-7.21-1.66H397a15.72,15.72,0,0,0-10.73,4.25,13.69,13.69,0,0,0-4.25,10.17,13.5,13.5,0,0,0,3,8.14,45,45,0,0,0,10.36,9.62h.55l2.22-.92.37-.37a.55.55,0,0,0-.18-.55,42.17,42.17,0,0,1-10.73-9.62,10.36,10.36,0,0,1-2.22-6.29,10.54,10.54,0,0,1,3.51-8,12.58,12.58,0,0,1,8.51-3.33h.18a13,13,0,0,1,5.73,1.29l2.22,1.66,5.55,5.18h.55a.55.55,0,0,0,.37-.37v-2.77a.92.92,0,0,0-.18-.74Zm-10.17-8.69h-.37a21.27,21.27,0,0,0-14.43,5.73,18.5,18.5,0,0,0-5.92,13.69,18.31,18.31,0,0,0,3.88,10.91A50.13,50.13,0,0,0,391.68,371h.55l.37-.37.55-2A.55.55,0,0,0,393,368a47.35,47.35,0,0,1-10.17-9.62,15.17,15.17,0,0,1-3.14-9.06,15.35,15.35,0,0,1,5-11.47,18.13,18.13,0,0,1,12.21-4.81h.37a18.13,18.13,0,0,1,13.13,5.55h.92l1.11-1.66a.74.74,0,0,0-.18-.74A21.46,21.46,0,0,0,397.23,329.92Zm0-5h-.37a26.82,26.82,0,0,0-18.31,7.4,23.31,23.31,0,0,0-7.4,17.39A22.94,22.94,0,0,0,376,363.58a55.86,55.86,0,0,0,16.28,13.87H393l1.48-1.48a.55.55,0,0,0,.18-.55v-.37a52.9,52.9,0,0,1-15.72-13.87,19.92,19.92,0,0,1,2.22-27,23.68,23.68,0,0,1,16.09-6.47h0A24,24,0,0,1,413.5,334h.74l1.85-1.11v-.37a.55.55,0,0,0-.18-.55,27,27,0,0,0-18.68-7.21Zm-7,57.53h.74l.92-1.66a.55.55,0,0,0-.18-.74,59.19,59.19,0,0,1-17.76-15.72h-.55l-.37.37-.55,2.4a.92.92,0,0,0,.18.74A62.89,62.89,0,0,0,390.2,382.45Zm3.33,7.4h.18v-2.77a.55.55,0,0,0-.37-.55,65.48,65.48,0,0,1-17.76-12.76H375a.55.55,0,0,0-.37.55v2.77a.92.92,0,0,0,.37.74A69,69,0,0,0,393.16,390ZM380,384.67l-.37.37-.37,2a.92.92,0,0,0,.37.92,76.39,76.39,0,0,0,11.28,6.47h.55v-2.59a.55.55,0,0,0-.37-.55,72.88,72.88,0,0,1-10.54-6.47Zm16.46,17.57h.37a.55.55,0,0,0,0-.55l-1.66-2.77h-.37a79,79,0,0,1-14.8-7.77h-.55a.55.55,0,0,0-.18.55v2.4a.92.92,0,0,0,.37.74,82.31,82.31,0,0,0,16.46,8Zm-12.58-3.33h-.55a.55.55,0,0,0-.18.55l.92,2.59.55.55a89,89,0,0,0,11.65,4.81H397l2.59-1.29a.55.55,0,0,0,0-.92,85.46,85.46,0,0,1-15.91-6.1Z" transform="translate(-214.1 -236.82)" style="fill:#fff"/><path d="M413.13,360.62v7.21h-1.66v-5.36l-1.29.55a2.22,2.22,0,0,1-.55-1.48l2.22-.92h1.29Z" transform="translate(-214.1 -236.82)" style="fill:#fff"/><path d="M419.61,364c0,3-1.66,4.07-4.44,4.07a1.85,1.85,0,0,1-.18-.92,2.41,2.41,0,0,1,0-.55c1.66,0,2.77-.18,3-1.66a1.85,1.85,0,0,1-1.29.55,2.22,2.22,0,0,1-2.4-2.4,2.59,2.59,0,0,1,2.59-2.59h0C418.68,360.44,419.61,361.92,419.61,364Zm-2.77,0,1.29-.37c0-1.11-.55-1.85-1.29-1.85a1.23,1.23,0,1,0,0,2.4Z" transform="translate(-214.1 -236.82)" style="fill:#fff"/><path d="M423.68,360.62v7.21H422v-5.36l-1.29.55a2.22,2.22,0,0,1-.55-1.48l2.22-.92h1.29Z" transform="translate(-214.1 -236.82)" style="fill:#fff"/><path d="M430.34,365.43a2.4,2.4,0,0,1-2.77,2.59,2.59,2.59,0,0,1-2.77-3,4.81,4.81,0,0,1,4.25-4.81,2.4,2.4,0,0,1,.37,1.48,3.33,3.33,0,0,0-3,1.85l1.29-.37a2,2,0,0,1,2.59,2.22Zm-1.48,0a.92.92,0,0,0-.91-.94l-.2,0-1.29.37h0c0,.92.55,1.48,1.11,1.48a.92.92,0,0,0,1.29-.74Z" transform="translate(-214.1 -236.82)" style="fill:#fff"/></svg>