<?xml version="1.0" encoding="UTF-8"?>
<svg x="300" y="200" width="308.6" height="308.6" version="1.1" viewBox="0 0 308.6 308.6" xml:space="preserve" xmlns="http://www.w3.org/2000/svg"><style>.st2{fill:#fff}</style><radialGradient id="SVGID_1_" cx="299.5" cy="203.37" r="149.26" gradientTransform="translate(-145.2,-49)" gradientUnits="userSpaceOnUse"><stop stop-color="#4a1516" offset=".546"/><stop stop-color="#d92927" offset=".571"/><stop stop-color="#e72c27" offset=".632"/><stop stop-color="#ee3730" offset=".761"/><stop stop-color="#cf2527" offset=".939"/><stop stop-color="#371515" offset="1"/></radialGradient><circle cx="154.3" cy="154.4" r="149.3" fill="url(#SVGID_1_)"/><linearGradient id="SVGID_7" x1="252.91" x2="352.98" y1="249.96" y2="149.89" gradientTransform="translate(-145.2,-49)" gradientUnits="userSpaceOnUse"><stop stop-color="#39b9eb" offset="0"/><stop stop-color="#131347" offset="1"/></linearGradient><path d="m234.7 154.4c0 44.4-36 80.4-80.4 80.4s-80.4-36-80.4-80.4 36-80.4 80.4-80.4 80.4 36 80.4 80.4" fill="url(#SVGID_7)"/><path class="st2" d="m154.3 237.1c-45.6 0-82.8-37.1-82.8-82.8 0-45.6 37.1-82.8 82.8-82.8s82.8 37.1 82.8 82.8-37.2 82.8-82.8 82.8m0-160.8c-43 0-78 35-78 78s35 78 78 78 78-35 78-78-35-78-78-78"/><linearGradient id="SVGID_3" x1="180.24" x2="401.57" y1="62.674" y2="323.79" gradientTransform="translate(-145.2,-49)" gradientUnits="userSpaceOnUse"><stop stop-color="#646565" offset="0"/><stop stop-color="#f2f2f2" offset="1"/></linearGradient><path d="m154.3 307.6c-84.5 0-153.2-68.7-153.2-153.2s68.7-153.2 153.2-153.2 153.2 68.7 153.2 153.2c0 84.4-68.7 153.2-153.2 153.2m0-296.5c-79 0-143.3 64.3-143.3 143.3s64.3 143.3 143.3 143.3 143.3-64.3 143.3-143.3-64.3-143.3-143.3-143.3" fill="url(#SVGID_3)"/><linearGradient id="SVGID_2" x1="179.41" x2="402.29" y1="61.692" y2="324.64" gradientTransform="translate(-145.2,-49)" gradientUnits="userSpaceOnUse"><stop stop-color="#bebdbd" offset="0"/><stop stop-color="#f2f2f2" offset=".313"/><stop stop-color="#bfbfbf" offset=".472"/><stop stop-color="#eaeae9" offset=".81"/><stop stop-color="#b7b7b7" offset="1"/></linearGradient><path d="m154.3 308.6c-85.1 0-154.3-69.2-154.3-154.3s69.2-154.3 154.3-154.3 154.3 69.2 154.3 154.3-69.2 154.3-154.3 154.3m0-298.5c-79.5 0-144.3 64.7-144.3 144.3 0 79.5 64.7 144.3 144.3 144.3 79.5 0 144.3-64.7 144.3-144.3s-64.8-144.3-144.3-144.3" fill="url(#SVGID_2)"/><path class="st2" d="m138.4 131.2c0 0.9 0.7 1.7 1.7 1.7h91.7c-0.3-1.1-0.6-2.2-1-3.3h-90.7c-0.9 0-1.7 0.7-1.7 1.6m-30 0c0 0.9 0.7 1.7 1.7 1.7h18.1c0.9 0 1.7-0.7 1.7-1.7 0-0.9-0.7-1.7-1.7-1.7h-18.1c-1 0.1-1.7 0.8-1.7 1.7m25 7.5c0 0.9 0.7 1.7 1.7 1.7h98.4c-0.2-1.1-0.4-2.2-0.7-3.3h-97.7c-1-0.1-1.7 0.7-1.7 1.6m-21.7 7.4c0 0.9 0.7 1.7 1.7 1.7h121l-0.3-3.3h-120.7c-1 0-1.7 0.7-1.7 1.6m122.9 5.8h-116.2c-0.9 0-1.7 0.7-1.7 1.7 0 0.9 0.7 1.7 1.7 1.7h116.3v-0.9c0-0.8 0-1.7-0.1-2.5m-22.7 9.2c0 0.9 0.7 1.7 1.7 1.7h20.7l0.3-3.3h-21c-1-0.1-1.7 0.6-1.7 1.6m-95.2 0c0 0.9 0.7 1.7 1.7 1.7h84.9c0.9 0 1.7-0.7 1.7-1.7 0-0.9-0.7-1.7-1.7-1.7h-84.9c-0.9 0-1.7 0.7-1.7 1.7m-20 1.6h8.1c0.9 0 1.7-0.7 1.7-1.7 0-0.9-0.7-1.7-1.7-1.7h-8.1c-0.9 0-1.7 0.7-1.7 1.7s0.7 1.7 1.7 1.7m96.5 4.1h-101.5c-0.9 0-1.7 0.7-1.7 1.7 0 0.9 0.7 1.7 1.7 1.7h101.6c0.9 0 1.7-0.7 1.7-1.7-0.1-0.9-0.9-1.7-1.8-1.7m13.7 3.4h3.1c0.9 0 1.7-0.7 1.7-1.7 0-0.9-0.7-1.7-1.7-1.7h-3.1c-0.9 0-1.7 0.7-1.7 1.7 0 0.9 0.7 1.7 1.7 1.7m15-1.7c0 0.9 0.7 1.7 1.7 1.7h9.6l0.6-3.3h-10.2c-1-0.1-1.7 0.7-1.7 1.6m-95.5 5.8h-34.8c-0.9 0-1.7 0.7-1.7 1.7s0.7 1.7 1.7 1.7h34.8c0.9 0 1.7-0.7 1.7-1.7s-0.7-1.7-1.7-1.7m28.4 1.7c0-0.9-0.7-1.7-1.7-1.7h-8.1c-0.9 0-1.7 0.7-1.7 1.7s0.7 1.7 1.7 1.7h8.1c1-0.1 1.7-0.8 1.7-1.7m12 0c0 0.9 0.7 1.7 1.7 1.7h62.8c0.3-1.1 0.7-2.2 0.9-3.3h-63.7c-1-0.1-1.7 0.6-1.7 1.6m-50.4 5.8h-24.8c-0.9 0-1.7 0.7-1.7 1.7 0 0.9 0.7 1.7 1.7 1.7h24.8c0.9 0 1.7-0.7 1.7-1.7s-0.7-1.7-1.7-1.7m0 7.4h-19.8c-0.9 0-1.7 0.7-1.7 1.7 0 0.9 0.7 1.7 1.7 1.7h19.8c0.9 0 1.7-0.7 1.7-1.7 0-0.9-0.7-1.7-1.7-1.7m-16.7 7.5h-3.1c-0.9 0-1.7 0.7-1.7 1.7 0 0.9 0.7 1.7 1.7 1.7h3.1c0.9 0 1.7-0.7 1.7-1.7s-0.7-1.7-1.7-1.7m65.1 0h-3c-0.9 0-1.7 0.7-1.7 1.7 0 0.9 0.7 1.7 1.7 1.7h3.1c0.9 0 1.7-0.7 1.7-1.7-0.1-1-0.8-1.7-1.8-1.7m-6.6 7.4h-3.1c-0.9 0-1.7 0.7-1.7 1.7 0 0.9 0.7 1.7 1.7 1.7h3.1c0.9 0 1.7-0.7 1.7-1.7-0.1-0.9-0.8-1.7-1.7-1.7m-1.7 7.5h-1.4c-0.9 0-1.7 0.7-1.7 1.7 0 0.9 0.7 1.7 1.7 1.7h1.4c0.9 0 1.7-0.7 1.7-1.7s-0.8-1.7-1.7-1.7m55.4-5.8c0 0.9 0.7 1.7 1.7 1.7h1.1c1-1.1 1.9-2.2 2.8-3.3h-3.9c-1-0.1-1.7 0.7-1.7 1.6m-23.4-9.1c-0.9 0-1.7 0.7-1.7 1.7 0 0.9 0.7 1.7 1.7 1.7h3.1c0.9 0 1.7-0.7 1.7-1.7 0-0.9-0.7-1.7-1.7-1.7zm20 3.3h3.1c0.9 0 1.7-0.7 1.7-1.7 0-0.9-0.7-1.7-1.7-1.7h-3.1c-0.9 0-1.7 0.7-1.7 1.7 0.1 1 0.8 1.7 1.7 1.7m-65.4-18.2h-3.1c-0.9 0-1.7 0.7-1.7 1.7 0 0.9 0.7 1.7 1.7 1.7h3.1c0.9 0 1.7-0.7 1.7-1.7s-0.7-1.7-1.7-1.7m0 7.4h-3.1c-0.9 0-1.7 0.7-1.7 1.7 0 0.9 0.7 1.7 1.7 1.7h3.1c0.9 0 1.7-0.7 1.7-1.7 0-0.9-0.7-1.7-1.7-1.7m18.4-5.8c0-0.9-0.7-1.7-1.7-1.7h-8c-0.9 0-1.7 0.7-1.7 1.7 0 0.9 0.7 1.7 1.7 1.7h8c0.9 0 1.7-0.8 1.7-1.7m-3.1 7.5c0 0.9 0.7 1.7 1.7 1.7h7c0.9 0 1.7-0.7 1.7-1.7 0-0.9-0.7-1.7-1.7-1.7h-7c-0.9 0-1.7 0.8-1.7 1.7m16.7-5.8h11.4c0.9 0 1.7-0.7 1.7-1.7 0-0.9-0.7-1.7-1.7-1.7h-11.4c-0.9 0-1.7 0.7-1.7 1.7 0.1 0.9 0.8 1.7 1.7 1.7m3.4 5.8c0 0.9 0.7 1.7 1.7 1.7h10.4c0.9 0 1.7-0.7 1.7-1.7 0-0.9-0.7-1.7-1.7-1.7h-10.4c-1 0-1.7 0.8-1.7 1.7m16.7-7.5c0 0.9 0.7 1.7 1.7 1.7h31.8c0.5-1.1 0.9-2.2 1.3-3.3h-33.2c-0.9 0-1.6 0.7-1.6 1.6m5 7.5c0 0.9 0.7 1.7 1.7 1.7h23.2c0.6-1.1 1.2-2.2 1.7-3.3h-25c-0.9-0.1-1.6 0.7-1.6 1.6m-21.7-67.1c0 0.9 0.7 1.7 1.7 1.7h49.2c-0.4-1.1-0.9-2.2-1.4-3.3h-47.8c-1-0.1-1.7 0.6-1.7 1.6m0-7.5c0 0.9 0.7 1.7 1.7 1.7h45.8l-1.8-3.3h-44c-1-0.1-1.7 0.7-1.7 1.6m10.6-7.5c0 0.9 0.7 1.7 1.7 1.7h30.9c-0.7-1.1-1.5-2.2-2.3-3.3h-28.6c-1 0-1.7 0.7-1.7 1.6m-17.3-7.4c0 0.9 0.7 1.7 1.7 1.7h42.8c-0.9-1.1-1.9-2.3-2.9-3.3h-39.8c-1.1-0.1-1.8 0.7-1.8 1.6m5.5-7.5c0 0.9 0.7 1.7 1.7 1.7h30.1c-1.2-1.1-2.5-2.3-3.8-3.3h-26.3c-0.9 0-1.7 0.7-1.7 1.6m0-7.4c0 0.9 0.7 1.7 1.7 1.7h20.8c-1.7-1.2-3.5-2.3-5.3-3.3h-15.6c-0.8-0.1-1.6 0.7-1.6 1.6m-14.9-7.5c0 0.9 0.7 1.7 1.7 1.7h22.4c-2.9-1.3-6-2.4-9.1-3.3h-13.3c-1-0.1-1.7 0.7-1.7 1.6m2.4 43.1h-6.4c-0.9 0-1.7 0.7-1.7 1.7 0 0.9 0.7 1.7 1.7 1.7h6.4c0.9 0 1.7-0.7 1.7-1.7s-0.7-1.7-1.7-1.7m-16.7 0h-1.3c-0.9 0-1.7 0.7-1.7 1.7 0 0.9 0.7 1.7 1.7 1.7h1.4c0.9 0 1.7-0.7 1.7-1.7-0.1-1-0.8-1.7-1.8-1.7m16.7-7.5h-6.4c-0.9 0-1.7 0.7-1.7 1.7 0 0.9 0.7 1.7 1.7 1.7h6.4c0.9 0 1.7-0.7 1.7-1.7 0-0.9-0.7-1.7-1.7-1.7m-49.8 10.8h14.8c0.9 0 1.7-0.7 1.7-1.7 0-0.9-0.7-1.7-1.7-1.7h-14.7c-0.9 0-1.7 0.7-1.7 1.7s0.7 1.7 1.6 1.7m-11.7 0h4.7c0.9 0 1.7-0.7 1.7-1.7 0-0.9-0.7-1.7-1.7-1.7h-4.7c-0.9 0-1.7 0.7-1.7 1.7 0.1 1 0.8 1.7 1.7 1.7m16.7-7.4h6.4c0.9 0 1.7-0.7 1.7-1.7 0-0.9-0.7-1.7-1.7-1.7h-6.4c-0.9 0-1.7 0.7-1.7 1.7 0.1 0.9 0.8 1.7 1.7 1.7m-10 0h1.4c0.9 0 1.7-0.7 1.7-1.7 0-0.9-0.7-1.7-1.7-1.7h-1.4c-0.9 0-1.7 0.7-1.7 1.7 0.1 0.9 0.8 1.7 1.7 1.7m59.9-10.8h-22.5c-0.9 0-1.7 0.7-1.7 1.7 0 0.9 0.7 1.7 1.7 1.7h22.5c0.9 0 1.7-0.7 1.7-1.7-0.1-1-0.8-1.7-1.7-1.7m-23.2-4.1h18.1c0.9 0 1.7-0.7 1.7-1.7 0-0.9-0.7-1.7-1.7-1.7h-18.1c-0.9 0-1.7 0.7-1.7 1.7 0 0.9 0.8 1.7 1.7 1.7m-26.1 7.4h9.1c0.9 0 1.7-0.7 1.7-1.7 0-0.9-0.7-1.7-1.7-1.7h-9.1c-0.9 0-1.7 0.7-1.7 1.7 0.1 1 0.8 1.7 1.7 1.7m1.1-7.4h3.1c0.9 0 1.7-0.7 1.7-1.7 0-0.9-0.7-1.7-1.7-1.7h-3.1c-0.9 0-1.7 0.7-1.7 1.7 0 0.9 0.7 1.7 1.7 1.7m35.6-7.5h12.5c0.9 0 1.7-0.7 1.7-1.7 0-0.9-0.7-1.7-1.7-1.7h-12.5c-0.9 0-1.7 0.7-1.7 1.7s0.8 1.7 1.7 1.7m-44.2-1.7c0-0.9-0.7-1.7-1.7-1.7h-8.2c-1.3 1.1-2.6 2.2-3.8 3.3h12c0.9 0.1 1.7-0.6 1.7-1.6m44.2-5.8h12.5c0.9 0 1.7-0.7 1.7-1.7 0-0.9-0.7-1.7-1.7-1.7h-12.5c-0.9 0-1.7 0.7-1.7 1.7s0.8 1.7 1.7 1.7"/><path d="m101.7 60.5-15.8-18-4.6 4.1 15.9 18.1 0.2 0.2s2 2.1 1.9 4.8c-0.1 2.1-1.4 4.4-3.9 6.6s-4.9 3.2-7 3c-2.8-0.3-4.5-2.5-4.5-2.5l-16-18.3-4.6 4.1 15.8 18c0.6 0.8 3.6 4.3 8.7 4.8 3.9 0.4 7.9-1.1 11.8-4.5h0.1q5.85-5.1 6-11.1c-0.2-5.1-3.3-8.5-4-9.3m36-2.3c-3.3 0.6-5.8 0.3-7.6-1-2.2-1.6-2.6-4.4-2.6-4.4l-0.5-2.5 15.9-3.1-1.2-6-15.9 3.1-1.8-9.2 18.2-3.5-1.2-6-24.2 4.7 4.5 23.5c0.1 1 1 5.5 5 8.5 3.2 2.4 7.4 3.1 12.4 2.1l9.6-1.8-1.2-6zm51.6-22.6 7.9 1.9 1.4-6-7.8-1.9c-5-1.2-9.2-0.7-12.5 1.5-4.2 2.8-5.2 7.3-5.4 8.3l-5.6 23.3 6 1.5 3.7-15.1 15.8 3.8 1.4-6-15.9-3.9 0.5-2.3v-0.2s0.5-2.8 2.8-4.3c1.9-1.2 4.5-1.4 7.7-0.6m13.7 39.5 24.4-14.5-3.7 12.8-4.6-3.5-5.7 3.4 8.5 6.4-2.3 7.9 5.3 4 10.7-36.7c0.4-1.2-0.1-2.5-1.1-3.3s-2.3-0.8-3.4-0.2l-33.3 19.7z" fill="#4a1516"/><path class="st2" d="m102.1 59.2-15.8-18-4.6 4.1 15.9 18.1 0.2 0.2s2 2.1 1.9 4.8c-0.1 2.1-1.4 4.4-3.9 6.6s-4.9 3.2-7 3c-2.8-0.3-4.5-2.5-4.5-2.5l-16-18.3-4.6 4.1 15.8 18c0.6 0.8 3.6 4.3 8.7 4.8 3.9 0.4 7.9-1.1 11.8-4.5h0.1q5.85-5.1 6-11.1c-0.2-5.1-3.3-8.5-4-9.3m36-2.3c-3.3 0.6-5.8 0.3-7.6-1-2.2-1.6-2.6-4.4-2.6-4.4l-0.5-2.5 15.9-3.1-1.2-6-15.9 3.1-1.8-9.2 18.2-3.5-1.2-6-24.2 4.7 4.5 23.5c0.1 1 1 5.5 5 8.5 3.2 2.4 7.4 3.1 12.4 2.1l9.6-1.8-1.2-6zm51.6-22.6 7.9 1.9 1.4-6-7.8-1.9c-5-1.2-9.2-0.7-12.5 1.5-4.2 2.8-5.2 7.3-5.4 8.3l-5.6 23.3 6 1.5 3.7-15.1 15.8 3.8 1.4-6-15.8-3.8 0.6-2.3v-0.2s0.5-2.8 2.8-4.3c1.7-1.3 4.3-1.5 7.5-0.7m13.7 39.5 24.4-14.5-3.7 12.8-4.6-3.5-5.7 3.4 8.5 6.4-2.3 7.9 5.3 4 10.7-36.7c0.4-1.2-0.1-2.5-1.1-3.3-1-0.7-2.3-0.8-3.4-0.2l-33.3 19.7z"/></svg>
