<?xml version="1.0" encoding="UTF-8" standalone="no"?>
<svg
   viewBox="200.36 279.08 415.29 415.29"
   version="1.1"
   id="svg60"
   sodipodi:docname="algeria-national-team.svg"
   inkscape:version="1.4.2 (ebf0e940, 2025-05-08)"
   xmlns:inkscape="http://www.inkscape.org/namespaces/inkscape"
   xmlns:sodipodi="http://sodipodi.sourceforge.net/DTD/sodipodi-0.dtd"
   xmlns="http://www.w3.org/2000/svg"
   xmlns:svg="http://www.w3.org/2000/svg">
  <sodipodi:namedview
     id="namedview60"
     pagecolor="#ffffff"
     bordercolor="#000000"
     borderopacity="0.25"
     inkscape:showpageshadow="2"
     inkscape:pageopacity="0.0"
     inkscape:pagecheckerboard="0"
     inkscape:deskcolor="#d1d1d1"
     showgrid="false"
     inkscape:zoom="1.20157"
     inkscape:cx="207.645"
     inkscape:cy="207.645"
     inkscape:window-width="1440"
     inkscape:window-height="766"
     inkscape:window-x="0"
     inkscape:window-y="25"
     inkscape:window-maximized="1"
     inkscape:current-layer="svg60" />
  <defs
     id="defs30">
    <clipPath
       id="a"
       clipPathUnits="userSpaceOnUse">
      <path
         d="M-263.994 520.217h612v-792h-612Z"
         id="path1" />
    </clipPath>
    <clipPath
       id="b"
       clipPathUnits="userSpaceOnUse">
      <path
         d="M-368.28 520.217h612v-792h-612Z"
         id="path2" />
    </clipPath>
    <clipPath
       id="c"
       clipPathUnits="userSpaceOnUse">
      <path
         d="M-274.7 506.65h612v-792h-612Z"
         id="path3" />
    </clipPath>
    <clipPath
       id="d"
       clipPathUnits="userSpaceOnUse">
      <path
         d="M-301.446 528.887h612v-792h-612Z"
         id="path4" />
    </clipPath>
    <clipPath
       id="e"
       clipPathUnits="userSpaceOnUse">
      <path
         d="M-348.574 490.941h612v-792h-612Z"
         id="path5" />
    </clipPath>
    <clipPath
       id="f"
       clipPathUnits="userSpaceOnUse">
      <path
         d="M-249.944 509.506h612v-792h-612Z"
         id="path6" />
    </clipPath>
    <clipPath
       id="g"
       clipPathUnits="userSpaceOnUse">
      <path
         d="M-228.129 513.484h612v-792h-612Z"
         id="path7" />
    </clipPath>
    <clipPath
       id="h"
       clipPathUnits="userSpaceOnUse">
      <path
         d="M-334.734 383.686h612v-792h-612Z"
         id="path8" />
    </clipPath>
    <clipPath
       id="i"
       clipPathUnits="userSpaceOnUse">
      <path
         d="M-203.38 353.23h612v-792h-612Z"
         id="path9" />
    </clipPath>
    <clipPath
       id="j"
       clipPathUnits="userSpaceOnUse">
      <path
         d="M-203.38 340.922h612v-792h-612Z"
         id="path10" />
    </clipPath>
    <clipPath
       id="k"
       clipPathUnits="userSpaceOnUse">
      <path
         d="M-334.734 371.378h612v-792h-612Z"
         id="path11" />
    </clipPath>
    <clipPath
       id="l"
       clipPathUnits="userSpaceOnUse">
      <path
         d="M-267.238 328.613h612v-792h-612Z"
         id="path12" />
    </clipPath>
    <clipPath
       id="m"
       clipPathUnits="userSpaceOnUse">
      <path
         d="M-284.898 340.217h612v-792h-612Z"
         id="path13" />
    </clipPath>
    <clipPath
       id="n"
       clipPathUnits="userSpaceOnUse">
      <path
         d="M-380.074 391.734h612v-792h-612Z"
         id="path14" />
    </clipPath>
    <clipPath
       id="o"
       clipPathUnits="userSpaceOnUse">
      <path
         d="M-318.258 321.497h612v-792h-612Z"
         id="path15" />
    </clipPath>
    <clipPath
       id="p"
       clipPathUnits="userSpaceOnUse">
      <path
         d="M-203.38 425.86h612v-792h-612Z"
         id="path16" />
    </clipPath>
    <clipPath
       id="q"
       clipPathUnits="userSpaceOnUse">
      <path
         d="M-241.169 372.39h612v-792h-612Z"
         id="path17" />
    </clipPath>
    <clipPath
       id="r"
       clipPathUnits="userSpaceOnUse">
      <path
         d="M-304.635 390.766h612v-792h-612Z"
         id="path18" />
    </clipPath>
    <clipPath
       id="s"
       clipPathUnits="userSpaceOnUse">
      <path
         d="M-203.419 424.36h612v-792h-612Z"
         id="path19" />
    </clipPath>
    <clipPath
       id="t"
       clipPathUnits="userSpaceOnUse">
      <path
         d="M-316.373 418.904h612v-792h-612Z"
         id="path20" />
    </clipPath>
    <clipPath
       id="u"
       clipPathUnits="userSpaceOnUse">
      <path
         d="M-244.544 480.398h612v-792h-612Z"
         id="path21" />
    </clipPath>
    <clipPath
       id="v"
       clipPathUnits="userSpaceOnUse">
      <path
         d="M-274.923 407.77h612v-792h-612Z"
         id="path22" />
    </clipPath>
    <clipPath
       id="w"
       clipPathUnits="userSpaceOnUse">
      <path
         d="M-341.262 383.696h612v-792h-612Z"
         id="path23" />
    </clipPath>
    <clipPath
       id="x"
       clipPathUnits="userSpaceOnUse">
      <path
         d="M-378.04 349.966h612v-792h-612Z"
         id="path24" />
    </clipPath>
    <clipPath
       id="y"
       clipPathUnits="userSpaceOnUse">
      <path
         d="M-368.578 349.966h612v-792h-612Z"
         id="path25" />
    </clipPath>
    <clipPath
       id="z"
       clipPathUnits="userSpaceOnUse">
      <path
         d="M-363.58 359.079h612v-792h-612Z"
         id="path26" />
    </clipPath>
    <clipPath
       id="A"
       clipPathUnits="userSpaceOnUse">
      <path
         d="M-345.443 371.388h612v-792h-612Z"
         id="path27" />
    </clipPath>
    <clipPath
       id="B"
       clipPathUnits="userSpaceOnUse">
      <path
         d="M-385.486 371.388h612v-792h-612Z"
         id="path28" />
    </clipPath>
    <clipPath
       id="C"
       clipPathUnits="userSpaceOnUse">
      <path
         d="M-353.705 413.01h612v-792h-612Z"
         id="path29" />
    </clipPath>
    <clipPath
       id="D"
       clipPathUnits="userSpaceOnUse">
      <path
         d="M-306 271.221h612v-792h-612Z"
         id="path30" />
    </clipPath>
  </defs>
  <path
     d="m 0,0 c -86.009,0 -155.733,-69.725 -155.733,-155.734 0,-86.008 69.724,-155.732 155.733,-155.732 86.009,0 155.733,69.724 155.733,155.732 C 155.733,-69.725 86.009,0 0,0"
     clip-path="url(#D)"
     style="fill:#ffffff;fill-opacity:1;fill-rule:nonzero;stroke:none"
     transform="matrix(1.33333,0,0,-1.33333,408,279.083)"
     id="path61"
     sodipodi:nodetypes="csssc" />
  <path
     d="M0 0c-1.368 2.754-1.654 4.795-1.654 4.795l-.744-.647h-2.161v18.854c0 1.242 1.773 1.531 1.773 1.531-3.09 1.938-4.509 3.244-5.978 4.742-1.534 1.565-2.33 2.756-2.33 2.756.153-.613.186-2.652.186-2.652V-4.387H2.804S.967-1.945 0 0"
     clip-path="url(#a)"
     style="fill:#4f9a44;fill-opacity:1;fill-rule:nonzero;stroke:none"
     transform="matrix(1.33333 0 0 -1.33333 351.992 611.077)"
     id="path31" />
  <path
     d="M0 0c-1.367 2.754-1.654 4.795-1.654 4.795l-.742-.647h-2.163v18.854c0 1.242 1.774 1.531 1.774 1.531-3.09 1.938-4.508 3.244-5.979 4.742-1.533 1.565-2.33 2.756-2.33 2.756.153-.613.186-2.652.186-2.652V-4.387H2.805S.969-1.945 0 0"
     clip-path="url(#b)"
     style="fill:#4f9a44;fill-opacity:1;fill-rule:nonzero;stroke:none"
     transform="matrix(1.33333 0 0 -1.33333 491.04 611.077)"
     id="path32" />
  <path
     d="M0 0a2.98 2.98 0 0 0-2.972-2.992c-1.64 0-2.971 1.34-2.971 2.992s1.331 2.992 2.971 2.992A2.98 2.98 0 0 0 0 0"
     clip-path="url(#c)"
     style="fill:#4f9a44;fill-opacity:1;fill-rule:nonzero;stroke:none"
     transform="matrix(1.33333 0 0 -1.33333 366.266 592.988)"
     id="path33" />
  <path
     d="M0 0a2.98 2.98 0 0 0-2.972-2.992A2.98 2.98 0 0 0-5.943 0c0 1.65 1.33 2.99 2.971 2.99A2.98 2.98 0 0 0 0 0"
     clip-path="url(#d)"
     style="fill:#4f9a44;fill-opacity:1;fill-rule:nonzero;stroke:none"
     transform="matrix(1.33333 0 0 -1.33333 401.928 622.637)"
     id="path34" />
  <path
     d="M0 0c-1.469-1.498-2.887-2.805-5.979-4.742 0 0 1.774-.289 1.774-1.531v-19.873h-32.086c-.939.517-2.031 1.281-2.828 2.271-2.554 3.168-6.033 7.994-9.415 10.4-.664.473-1.853 1.235-3.771 1.575-2.04.205-4.516-.307-6.17-2.039 0 0-2.296-2.721-3.174-3.469-.877-.748-2.769-1.156-2.769-1.156l6.889-5.168s-.135 2.175.134 3.263c.271 1.088 3.582 2.653 6.418 1.02 3.719-2.139 4.63-5.344 4.855-6.697h-26.807v6.833s-2.634-3.177-5.808-5.304c-2.099-1.406-2.837-1.625-2.837-1.625s1.013-.338 1.419-1.436c.237-.642 1.012-4.123.471-7.142-.369-2.067-2.396-3.159-4.22-3.159h-2.127s4.593-4.584 6.821-3.98c4.286 1.162 6.186 5.117 6.935 7.35.308.998 1.22.947 1.22.947h31.602l5.43-4.897h9.859s-2.43 2.45-2.297 3.809c.068.682.473.969.863 1.088H2.145V.104s.033 2.039.185 2.652c0 0-.797-1.192-2.33-2.756"
     clip-path="url(#e)"
     style="fill:#4f9a44;fill-opacity:1;fill-rule:nonzero;stroke:none"
     transform="matrix(1.33333 0 0 -1.33333 464.766 572.043)"
     id="path35" />
  <path
     d="M0 0s-1.924-4.42-4.626-6.258c-.662-.449-2.228-1.324-3.579-1.324h-16.177v5.746s-2.347-2.602-4.981-4.336c-1.824-1.199-3.09-1.478-3.09-1.478s1.317-.205 1.317-1.276v-7.701s.202-2.449-1.419-2.754c-1.621-.307-4.761.102-4.761.102s4.254-4.59 8.51-3.571c3.26.782 4.973 3.717 5.778 6.516.3 1.373 1.787 1.236 1.787 1.236H0Z"
     clip-path="url(#f)"
     style="fill:#4f9a44;fill-opacity:1;fill-rule:nonzero;stroke:none"
     transform="matrix(1.33333 0 0 -1.33333 333.26 596.796)"
     id="path36" />
  <path
     d="M0 0h11.651S8.032 3.471 7.396 4.59c-.27.476-.473 1.224-.068 2.244s2.837 3.877 4.863 4.488c0 0-2.228.408-4.187.205-1.959-.205-5.671-1.076-6.214-2.857-.25-.818.54-.68.607-4.283C2.397 4.387.811 1.02 0 0"
     clip-path="url(#g)"
     style="fill:#4f9a44;fill-opacity:1;fill-rule:nonzero;stroke:none"
     transform="matrix(1.33333 0 0 -1.33333 304.172 602.1)"
     id="path37" />
  <path
     d="M0 0v9.112c-31.099.369-33.718 18.096-59.997 20.955a64 64 0 0 1-4.092-8.802C-33.908 19.896-32.641.387 0 0"
     clip-path="url(#h)"
     style="fill:#4f9a44;fill-opacity:1;fill-rule:nonzero;stroke:none"
     transform="matrix(1.33333 0 0 -1.33333 446.313 429.036)"
     id="path38" />
  <path
     d="M0 0v-9.113h40.625A83 83 0 0 0 45.494 0z"
     clip-path="url(#i)"
     style="fill:#4f9a44;fill-opacity:1;fill-rule:nonzero;stroke:none"
     transform="matrix(1.33333 0 0 -1.33333 271.175 388.428)"
     id="path39" />
  <path
     d="M0 0v-9.112h47.577A79.6 79.6 0 0 0 54.856 0Z"
     clip-path="url(#j)"
     style="fill:#4f9a44;fill-opacity:1;fill-rule:nonzero;stroke:none"
     transform="matrix(1.33333 0 0 -1.33333 271.175 372.017)"
     id="path40" />
  <path
     d="M0 0v9.112c-27.725.329-32.815 14.453-52.215 19.54a60.5 60.5 0 0 1-6.013-7.918C-33.585 17.291-30.385.36 0 0"
     clip-path="url(#k)"
     style="fill:#4f9a44;fill-opacity:1;fill-rule:nonzero;stroke:none"
     transform="matrix(1.33333 0 0 -1.33333 446.313 412.625)"
     id="path41" />
  <path
     d="M0 0h-63.857v-9.112h57.996A74.7 74.7 0 0 0 5.392-.197C3.691-.07 1.902 0 0 0"
     clip-path="url(#l)"
     style="fill:#4f9a44;fill-opacity:1;fill-rule:nonzero;stroke:none"
     transform="matrix(1.33333 0 0 -1.33333 356.318 355.605)"
     id="path42" />
  <path
     d="M0 0c17.49-5.563 23.277-18.537 49.836-18.852v9.113C27.342-9.472 19.747-.124 7.321 6.111A56.3 56.3 0 0 1 0 0"
     clip-path="url(#m)"
     style="fill:#4f9a44;fill-opacity:1;fill-rule:nonzero;stroke:none"
     transform="matrix(1.33333 0 0 -1.33333 379.865 371.077)"
     id="path43" />
  <path
     d="M0 0c-2.764-32.711-27.809-58.327-58.307-58.327-.976 0-1.943.03-2.908.08a63.7 63.7 0 0 0-18.439-24.955 65 65 0 0 1 9.506-.703c38.88 0 70.404 34.629 70.404 77.341C.256-4.353.166-2.164 0 0"
     clip-path="url(#n)"
     style="fill:#db1f26;fill-opacity:1;fill-rule:nonzero;stroke:none"
     transform="matrix(1.33333 0 0 -1.33333 506.766 439.766)"
     id="path44" />
  <path
     d="M0 0a65 65 0 0 1-8.332.542c-27.566 0-51.43-17.408-62.986-42.761a63.7 63.7 0 0 0 13.158 1.373h7.105C-42.941-18.013-23.313-1.514 0 0"
     clip-path="url(#o)"
     style="fill:#db1f26;fill-opacity:1;fill-rule:nonzero;stroke:none"
     transform="matrix(1.33333 0 0 -1.33333 424.344 346.117)"
     id="path45" />
  <path
     d="M0 0c0 31.324 25.393 56.716 56.717 56.716S113.432 31.324 113.432 0 88.04-56.717 56.717-56.717 0-31.324 0 0"
     clip-path="url(#p)"
     style="fill:#fff;fill-opacity:1;fill-rule:nonzero;stroke:none"
     transform="matrix(1.33333 0 0 -1.33333 271.175 485.267)"
     id="path46" />
  <path
     d="M0 0c-15.254-5.401-27.503-17.139-33.592-32.054l23.958 10.82z"
     clip-path="url(#q)"
     style="fill:#000;fill-opacity:1;fill-rule:nonzero;stroke:none"
     transform="matrix(1.33333 0 0 -1.33333 321.559 413.975)"
     id="path47" />
  <path
     d="M0 0c-8.322 10.547-20.303 18.063-34.034 20.636l13.162-17.375Z"
     clip-path="url(#r)"
     style="fill:#000;fill-opacity:1;fill-rule:nonzero;stroke:none"
     transform="matrix(1.33333 0 0 -1.33333 406.18 438.475)"
     id="path48" />
  <path
     d="M0 0c-.013-.5-.038-.998-.038-1.5 0-14.867 5.728-28.393 15.088-38.506l2.458 20.553z"
     clip-path="url(#s)"
     style="fill:#000;fill-opacity:1;fill-rule:nonzero;stroke:none"
     transform="matrix(1.33333 0 0 -1.33333 271.225 483.267)"
     id="path49" />
  <path
     d="m0 0-11.393-14.709 2.508-23.395A56.45 56.45 0 0 1 .439-6.955C.439-4.598.279-2.281 0 0"
     clip-path="url(#t)"
     style="fill:#000;fill-opacity:1;fill-rule:nonzero;stroke:none"
     transform="matrix(1.33333 0 0 -1.33333 421.83 475.993)"
     id="path50" />
  <path
     d="M0 0a56.7 56.7 0 0 1 15.554-2.178 56.44 56.44 0 0 1 30.034 8.612l-25.954 4.037z"
     clip-path="url(#u)"
     style="fill:#000;fill-opacity:1;fill-rule:nonzero;stroke:none"
     transform="matrix(1.33333 0 0 -1.33333 326.059 557.986)"
     id="path51" />
  <path
     d="m0 0-31.826-1.36-5.986-29.107 27.747-13.33L12.24-21.762z"
     clip-path="url(#v)"
     style="fill:#000;fill-opacity:1;fill-rule:nonzero;stroke:none"
     transform="matrix(1.33333 0 0 -1.33333 366.564 461.147)"
     id="path52" />
  <path
     d="M0 0h10.408l11.158 12.309h2.895L25.277 0h8.237v21.421H19.42Z"
     clip-path="url(#w)"
     style="fill:#4f9a44;fill-opacity:1;fill-rule:nonzero;stroke:none"
     transform="matrix(1.33333 0 0 -1.33333 455.016 429.05)"
     id="path53" />
  <path
     d="M0 0v-9.113h22.318L30.58 0Z"
     clip-path="url(#x)"
     style="fill:#4f9a44;fill-opacity:1;fill-rule:nonzero;stroke:none"
     transform="matrix(1.33333 0 0 -1.33333 504.052 384.075)"
     id="path54" />
  <path
     d="M0 0h-30.58v-9.113h22.318Z"
     clip-path="url(#y)"
     style="fill:#4f9a44;fill-opacity:1;fill-rule:nonzero;stroke:none"
     transform="matrix(1.33333 0 0 -1.33333 491.437 384.075)"
     id="path55" />
  <path
     d="M0 0h11.195v9.113H8.262Z"
     clip-path="url(#z)"
     style="fill:#4f9a44;fill-opacity:1;fill-rule:nonzero;stroke:none"
     transform="matrix(1.33333 0 0 -1.33333 484.773 396.226)"
     id="path56" />
  <path
     d="M0 0h3.715l8.26 9.113h-19.42v-21.422L0-4.096Z"
     clip-path="url(#A)"
     style="fill:#4f9a44;fill-opacity:1;fill-rule:nonzero;stroke:none"
     transform="matrix(1.33333 0 0 -1.33333 460.591 412.638)"
     id="path57" />
  <path
     d="M0 0h3.713l8.262 9.113H-7.447v-21.422L0-4.096Z"
     clip-path="url(#B)"
     style="fill:#4f9a44;fill-opacity:1;fill-rule:nonzero;stroke:none"
     transform="matrix(1.33333 0 0 -1.33333 513.982 412.638)"
     id="path58" />
  <path
     d="m0 0 6.682 13.438-13.305-6.945-10.717 10.508L-14.846 2.2l-13.3-6.943 14.841-2.203 2.496-14.797 6.68 13.439 14.848-2.201z"
     clip-path="url(#C)"
     style="fill:#db1f26;fill-opacity:1;fill-rule:nonzero;stroke:none"
     transform="matrix(1.33333 0 0 -1.33333 471.607 468.135)"
     id="path59" />
  <path
     d="M0 0c-86.009 0-155.733-69.725-155.733-155.734 0-86.008 69.724-155.732 155.733-155.732s155.733 69.724 155.733 155.732C155.733-69.725 86.009 0 0 0m151-155.734c0-83.394-67.605-151-151-151s-151 67.606-151 151C-151-72.338-83.395-4.733 0-4.733s151-67.605 151-151.001"
     clip-path="url(#D)"
     style="fill:#4f9a44;fill-opacity:1;fill-rule:nonzero;stroke:none"
     transform="matrix(1.33333 0 0 -1.33333 408 279.083)"
     id="path60" />
</svg>
