<?xml version="1.0" encoding="UTF-8"?>
<svg id="_图层_1" data-name="图层_1" xmlns="http://www.w3.org/2000/svg" version="1.1" viewBox="0 0 800 800">
  <!-- Generator: Adobe Illustrator 29.1.0, SVG Export Plug-In . SVG Version: 2.1.0 Build 142)  -->
  <path d="M580.5578,277.8633l9.7957.0012v-45.9876l-9.7938-.0008-36.4819-.0027v-31.9143h-285.9581v31.9136h-46.2759v45.9871h29.3236v8.5616h-29.3236v45.9803h46.2759v254.1178c0,29.285,13.211,44.0434,24.2937,51.267,14.5192,9.4638,31.238,10.4857,37.7521,10.4857l1.0619-.0002,1.0943-.0002c15.9784,0,40.1272,0,56.1715,9.9735,5.6819,3.5318,10.7497,7.9626,15.0629,13.169l7.5424,9.1046,7.5426-9.1046c4.3134-5.2065,9.3813-9.6373,15.063-13.169,16.0442-9.9735,40.1932-9.9735,56.173-9.9735l1.0922.0002,1.0617.0002c6.515,0,23.2338-1.0219,37.7529-10.4857,11.0828-7.2236,24.2939-21.982,24.2939-51.267v-254.1178h46.2757v-45.9803h-30.4965v-8.5604l20.7008.0023Z" style="fill: #cfab4b;"/>
  <g>
    <rect x="250.9618" y="258.0954" width="299.1006" height="46.3313" style="fill: #fff;"/>
    <rect x="221.6382" y="241.6742" width="358.9207" height="26.3912" style="fill: #3ba0cb;"/>
    <rect x="221.6382" y="296.216" width="358.9207" height="26.3912" style="fill: #3ba0cb;"/>
  </g>
  <g>
    <path d="M363.1246,524.158l-29.4702-116.5124h-10.8497l-34.6996,116.5124h-10.5566v18.9626h39.2937v-18.9626h-13.8799l5.2132-17.7897h36.755l4.4119,17.7897h-13.7821v18.9626h39.4402v-18.9626h-11.876ZM312.9324,489.9472l15.1505-51.5118,12.4626,51.5118h-27.613Z" style="fill: #1a3b61;"/>
    <path d="M510.329,524.158l-29.4702-116.5124h-10.8497l-34.6996,116.5124h-10.5566v18.9626h39.2937v-18.9626h-13.8799l5.2132-17.7897h36.755l4.4119,17.7897h-13.7821v18.9626h39.4402v-18.9626h-11.876ZM460.1368,489.9472l15.1505-51.5118,12.4626,51.5118h-27.613Z" style="fill: #1a3b61;"/>
    <path d="M386.4368,550.3049v-161.7196s-53.6622-.8797-67.7375-48.6772c0,0,29.9051,20.3925,67.7375,19.0603,41.6395-1.4662,46.7711-12.4625,67.0044-12.4625s40.6132,12.9024,40.6132,39.4402-22.1393,9.0903-27.2709,5.2782c-5.1316-3.8121-15.5904-14.6129-29.5191-13.8798-13.9287.7331-37.4045,11.2407-37.4045,11.2407v59.6735h21.3254v-21.113h14.8084v63.7788h-14.8084v-22.0904h-21.3254v81.2508c11.1355,0,24.4777,12.9757,27.9232,15.4682,3.4455,2.4925,11.5828,7.6241,16.9344,5.0583,5.3516-2.5658,12.4625-4.5452,13.4155,2.4925.953,7.0377-8.6505,17.6675-21.6261,17.6675s-20.4165-5.0217-27.7108-12.3159c-7.2942-7.2942-13.1956-10.7764-20.5265-10.7764s-12.3892,1.3929-18.1073,5.1316c-5.7181,3.7388-11.143,2.0527-9.6768-3.5921,1.4662-5.6448,5.938-11.0697,12.9024-14.955,6.9644-3.8854,13.049-3.9587,13.049-3.9587Z" style="fill: #1a3b61;"/>
  </g>
  <g>
    <path d="M237.9714,394.794c-.3641.0002-.7323.1779-1.0838.528-5.2323,5.2323-8.6876,14.2819-10.695,21.0773-.2632,22.6898-5.4297,49.0324-7.0258,56.6176.0659-.1153.1152-.2304.1646-.3455,26.5506-54.4183,22.8267-77.8791,18.64-77.8774Z" style="fill: #cfab4b;"/>
    <path d="M211.3678,473.0169l.0165-.0165c-1.6289-7.865-6.9599-35.7212-6.4169-58.954-1.9252-6.4005-5.1337-14.3641-10.0204-19.251-.3457-.3457-.7146-.5205-1.0878-.5203-4.371.0018-9.2626,24.0015,17.5087,78.7417Z" style="fill: #cfab4b;"/>
    <path d="M594.8563,416.3994c-.2632,22.6898-5.4297,49.0324-7.0258,56.6176,26.7341-54.6641,22.9948-78.2273,18.8045-78.2246-.3641.0003-.7324.1785-1.0837.5297-5.2323,5.2323-8.6876,14.2819-10.695,21.0773Z" style="fill: #cfab4b;"/>
    <path d="M579.8669,472.6715c.0493.1151.0987.2302.1645.3455l.0165-.0165c-1.6289-7.865-6.9599-35.7212-6.4169-58.954-1.9252-6.4005-5.1337-14.3641-10.0204-19.251-.3467-.3467-.7166-.522-1.0908-.5219-4.3668.002-9.2352,23.9145,17.3472,78.3978Z" style="fill: #cfab4b;"/>
    <path d="M226.1926,515.5499c-.2632,22.6734-5.4297,49.0159-7.0258,56.6011,26.7271-54.6345,22.9963-78.2126,18.8074-78.2114-.3652,0-.7343.1794-1.0866.5331-5.2323,5.2322-8.6876,14.2653-10.695,21.0772Z" style="fill: #cfab4b;"/>
    <path d="M211.3678,572.151l.0165-.0165c-1.6289-7.8485-6.9599-35.7046-6.4169-58.9541-1.9252-6.3839-5.1337-14.3641-10.0204-19.2509-.3454-.3453-.7143-.52-1.0872-.52-4.3712.0008-9.265,24.0125,17.5081,78.7414Z" style="fill: #cfab4b;"/>
    <path d="M238.1729,585.0413c-.5194.0002-.9456.3198-1.2358.9307-3.1592,6.6968-3.3731,16.3552-2.9781,23.4467,7.1903,20.8308,11.1556,46.4984,12.3567,54.9724v.0165c.0329.1314.0823.2466.1152.3784,6.4954-58.3409-4.0075-79.7453-8.2579-79.7447Z" style="fill: #cfab4b;"/>
    <path d="M239.0595,667.6983c-4.1629-6.8615-18.5763-31.2787-25.8818-53.3597-3.9654-5.364-9.6584-11.7974-15.8944-14.7427-.2765-.131-.5384-.196-.7825-.1958-4.7247.0028-2.4687,24.4294,42.5587,68.3146v-.0163Z" style="fill: #cfab4b;"/>
    <path d="M281.5762,675.3162c21.2583,7.9144,44.3101,21.6697,50.908,25.7338-34.8844-35.8802-56.9276-45.2523-64.4433-45.2511-2.4172.0004-3.3329.9703-2.6883,2.3397,3.1592,6.6966,10.4975,12.9983,16.2235,17.1777Z" style="fill: #cfab4b;"/>
    <path d="M272.181,694.5014c-1.3267-.0689-2.729-.1109-4.1737-.1109-5.8115,0-12.3074.6809-17.3149,3.0397-4.5782,2.1553,7.1729,12.8806,47.1166,12.8806,9.1514,0,19.7899-.5636,32.0426-1.9224,0,0,0-.0165-.0165-.0165-7.9307-1.1189-35.9515-5.4957-57.6541-13.8706Z" style="fill: #cfab4b;"/>
    <path d="M467.1255,701.05c6.598-4.064,29.6498-17.8194,50.908-25.7338,5.726-4.1793,13.0643-10.4811,16.2234-17.1777.6448-1.3698-.2707-2.3397-2.6904-2.3397-7.5212.0004-29.5719,9.3738-64.441,45.2511Z" style="fill: #cfab4b;"/>
    <path d="M548.9173,697.4302c-5.0079-2.359-11.5031-3.0399-17.3149-3.0397-1.4442,0-2.8474.042-4.1737.1109-21.7026,8.3749-49.7234,12.7517-57.6705,13.8706v.0165c12.2537,1.3592,22.8842,1.9224,32.0365,1.9224,39.9317,0,51.7006-10.7255,47.1227-12.8806Z" style="fill: #cfab4b;"/>
    <path d="M560.4021,585.0433c-4.2566.0018-14.7987,21.4659-8.2434,80.0387,1.0531-7.6673,5.0513-34.224,12.4391-55.6633.4113-7.0915.1974-16.7498-2.9617-23.4467-.2897-.61-.7149-.9289-1.234-.9287Z" style="fill: #cfab4b;"/>
    <path d="M602.0736,599.3996c-.2441,0-.5074.0653-.7838.1962-6.2361,2.9453-11.9455,9.3788-15.8944,14.7427-7.322,22.0811-21.719,46.4982-25.8983,53.3597l.0165.0163c.0329-.0327.0658-.0657.0987-.0986,44.9334-43.8383,47.1863-68.218,42.4613-68.2164Z" style="fill: #cfab4b;"/>
    <path d="M594.8563,515.5499c-.2632,22.6734-5.4297,49.0159-7.0258,56.6011,26.7271-54.6345,22.9963-78.2126,18.8074-78.2114-.3652,0-.7343.1794-1.0866.5331-5.2323,5.2322-8.6876,14.2653-10.695,21.0772Z" style="fill: #cfab4b;"/>
    <path d="M573.631,513.1805c-1.9252-6.3839-5.1337-14.3641-10.0204-19.2509-.3454-.3453-.7143-.52-1.0872-.52-4.3712.0008-9.265,24.0125,17.5081,78.7414l.0165-.0165c-1.6289-7.8485-6.9599-35.7046-6.4169-58.9541Z" style="fill: #cfab4b;"/>
    <path d="M589.7063,591.6487c-.1316-4.9691-.7075-8.4079-1.7606-10.3822.0329-.0988.0659-.1812.0823-.2798,0,0,.148-3.6364-.3785-7.9471.0494-.2633.1152-.5596.181-.8886,1.5961-7.5852,6.7626-33.9277,7.0258-56.6011.0987-9.6419-.6581-18.6256-2.9946-25.1907-1.596-4.4919-3.1426-7.4866-4.6893-9.0331.1645-1.7771.3126-4.0313.2467-6.3678.0659-.2961.2139-.9872.4113-1.9414,1.5961-7.5852,6.7626-33.9277,7.0258-56.6176.0987-9.6254-.6581-18.6092-2.9946-25.1743-2.4398-6.8759-4.781-10.2983-7.1713-10.2981-2.3974.0003-4.8443,3.4433-7.489,10.2981-2.3529,6.1044-3.373,14.1339-3.5704,22.8214-.543,23.2327,4.788,51.089,6.4169,58.954l-.0165.0165c-.0658-.1153-.1152-.2304-.1645-.3455-.0165.3125-.0165.6251.0165.9707.4442,4.5575.3949,8.2761.3291,10.2836-.9708,1.6289-1.9745,3.7678-3.0111,6.4335-2.3529,6.1043-3.373,14.1338-3.5704,22.8212-.543,23.2494,4.788,51.1056,6.4169,58.9541l-.0165.0165c.4278,1.9414.7569,3.7186,1.0038,5.2157.2303,1.4974.3784,2.7151.4771,3.587-1.6124,1.234-3.4717,3.1427-5.6108,5.7588-4.4096,5.4134-8.161,13.5908-11.3037,22.7061-7.3877,21.4393-11.386,47.996-12.4391,55.6633-.181,1.3985-.2797,2.205-.2797,2.205v.0327c-.5594,1.086-1.2176,2.024-1.9251,2.8302-1.8064-.3457-4.0624-.5114-6.8258-.5114-.1314,0-.2639.0004-.3975.0012-6.9599.0165-15.664,2.3198-24.6972,5.6765-21.2583,7.9144-44.3101,21.6697-50.908,25.7338-.5429.3292-1.0037.6088-1.3163.8062-2.0732-1.7769-5.3968-3.916-10.4153-5.3802,10.9911-10.9912,12.0113-22.2785,12.0113-22.2785-11.4354,4.6893-33.1215,8.6547-43.5368,14.9564-10.4153,6.3182-16.4209,17.7372-16.4209,17.7372h-15.006s-5.9891-11.419-16.4044-17.7372c-10.4153-6.3017-32.1014-10.2672-43.5531-14.9564,0,0,1.0201,11.2873,12.0277,22.2785-5.1337,1.4972-8.4737,3.6856-10.5469,5.4953-.3126-.1972-.8062-.51-1.4808-.9213-6.598-4.064-29.6498-17.8194-50.908-25.7338-9.0332-3.3566-17.7372-5.66-24.7136-5.6765-.1269-.0006-.2527-.001-.3774-.001-2.8687,0-5.1813.1814-7.0103.5439-1.2505-1.3491-2.4352-3.1098-3.044-5.3967-.0328-.1318-.0822-.247-.1152-.3784v-.0165c-1.2011-8.4739-5.1664-34.1416-12.3567-54.9724-3.1427-9.1153-6.8778-17.2928-11.2874-22.7061-1.8921-2.32-3.554-4.064-5.0349-5.2981.1152-1.1848.3785-3.7021,1.0201-6.9929.0165-.0329.0329-.0659.0494-.0986,0,0,.181-.79.4607-2.172,1.5961-7.5852,6.7626-33.9277,7.0258-56.6011.1152-9.6419-.6581-18.6256-2.9946-25.1907-1.4315-4.064-2.8465-6.8778-4.245-8.5396-.0165-2.1059.0493-5.0018.3619-8.3749.0329-.2798.0165-.5266.0165-.7733-.0494.1151-.0987.2302-.1646.3455,1.5961-7.5852,6.7626-33.9277,7.0258-56.6176.1152-9.6254-.6581-18.6092-2.9946-25.1743-2.4315-6.8759-4.7726-10.2981-7.1651-10.2981-2.3995,0-4.8506,3.4433-7.4952,10.2981-2.3529,6.1044-3.373,14.1339-3.5704,22.8214-.543,23.2327,4.788,51.089,6.4169,58.954.1974.938.3291,1.596.4113,1.925-.0822,3.11.1974,6.0716.4443,7.9308-1.2012,1.7113-2.4188,4.2123-3.7021,7.503-2.3529,6.1043-3.373,14.1338-3.5704,22.8212-.543,23.2494,4.788,51.1056,6.4169,58.9541.0494.2961.1152.5758.1646.8062-.4278,3.4882-.4113,6.4992-.3785,7.4866-1.415,1.744-2.1554,5.4461-2.3035,11.2214-.1646,6.5323,1.5795,14.4465,4.3109,22.6898,7.3055,22.0811,21.7189,46.4982,25.8818,53.3597v.0163c.5758.905.9543,1.5303,1.1024,1.7605.0165.0329.0329.0494.0494.0823,0,.0165.0165.0165.0165.0329,1.2669,2.1885,2.9617,3.8668,4.4919,5.0679.5265,2.1718,2.9124,5.0677,7.1903,8.7698,4.9526,4.2779,12.1758,7.9471,20.2711,11.0734,21.7026,8.3749,49.7233,12.7517,57.6541,13.8706,1.4151.1972,2.2213.3125,2.2213.3125.0383.0064.0767.0094.1156.0094.4618,0,.958-.4427,1.3981-1.0952,2.682,1.9744,8.2269,4.8373,19.5801,7.5028-11.7316,4.3932-23.4467,14.0843-25.5034,20.238,2.2625.4885,5.3745.7745,9.0069.7745,11.6627,0,28.6679-2.9519,39.9595-11.6339-10.9252,10.9253-14.6603,22.1469-14.6603,25.5198h11.7316c1.7934-6.5156,11.4519-31.6736,26.2603-34.6351,14.8248,2.9616,24.4832,28.1195,26.2767,34.6351h11.7316c0-3.3729-3.735-14.5945-14.6604-25.5198,11.2925,8.6828,28.2967,11.6339,39.9596,11.6339,3.6312,0,6.745-.2862,9.0069-.7745-2.0567-6.1537-13.7883-15.8448-25.5198-20.238,11.1063-2.6161,16.6513-5.3969,19.3991-7.355.4051.5702.8648.9488,1.2919.9488.0414,0,.0824-.0036.1231-.0108,0,0,.8062-.1153,2.2049-.3125,7.9471-1.1189,35.968-5.4957,57.6705-13.8706,8.0952-3.1263,15.3185-6.7954,20.2546-11.0734,4.3931-3.7845,6.779-6.7295,7.2232-8.918,1.415-1.1682,2.9287-2.7312,4.064-4.7222.3949-.6911.5923-1.4315.6417-2.1718-.0329.0329-.0658.0659-.0987.0986l-.0165-.0163c4.1792-6.8615,18.5763-31.2787,25.8983-53.3597,2.7149-8.2434,4.4755-16.1575,4.3109-22.6898Z" style="fill: #cfab4b;"/>
  </g>
  <g>
    <polygon points="549.304 161.5003 539.2019 130.4094 565.6493 111.1942 532.9585 111.1942 522.8565 80.1034 512.7544 111.1942 480.0636 111.1942 506.511 130.4094 496.409 161.5003 522.8565 142.2851 549.304 161.5003" style="fill: #cfab4b;"/>
    <polygon points="436.0152 160.8802 422.254 118.5277 458.2811 92.3524 413.7491 92.3524 399.988 50 386.2268 92.3524 341.6948 92.3524 377.7219 118.5277 363.9608 160.8802 399.988 134.7049 436.0152 160.8802" style="fill: #cfab4b;"/>
    <polygon points="303.5669 161.5003 293.4649 130.4094 319.9124 111.1942 287.2215 111.1942 277.1194 80.1034 267.0174 111.1942 234.3265 111.1942 260.774 130.4094 250.672 161.5003 277.1194 142.2851 303.5669 161.5003" style="fill: #cfab4b;"/>
  </g>
</svg>