<svg xmlns="http://www.w3.org/2000/svg" viewBox="201.94 29.71 1130.45 958.64"><!-- Source: https://football-logos.cc --><path fill="#fec20c" fill-rule="evenodd" d="M1236.19 119.59a.938.919-13.564 0 1 .87.52q11.96 24.13 23.15 53.13 31.24 80.92 52.06 178.5 16.77 78.59 19.79 157.01 1.5 39.04-3.78 82.6-5.4 44.58-18.61 80.45-27.86 75.67-89.79 129.81c-6.21 5.43-16.77 14.12-24.99 19.95q-31.4 22.25-62.61 38.5-47.26 24.6-99.34 44.12-26.96 10.11-55.66 19.58c-53.91 17.78-129.62 39.22-165.08 49.97q-25.22 7.64-42.52 13.94-1.65.6-2.89.67a2.2 2.2 53.546 0 1-.93-.14q-18.03-7-38.69-13.1-.81-.24-54.78-16-50.11-14.63-98.88-30.15-50.34-16.01-97.79-34.95c-38.26-15.27-76.74-34.04-112.07-56.16q-33.81-21.17-61.09-47.15-26.71-25.45-47.52-57.97-19.16-29.95-31.17-63.86c-11.2-31.61-17.47-64.77-19.99-98.87q-.44-6.01-.86-12.09-.48-7.01-.48-10.3c0-4.64-.58-8.8-.59-13.8q-.04-17.39.18-24.02c.7-20.43 2.3-45.47 5.46-69.91q6.59-50.88 13.79-84.04 9.97-45.98 15.19-65.07 4.95-18.09 12.08-42.38 8.6-29.26 21.81-65.22 11.17-30.42 24.78-58.89.72-1.5 2.17-4a.654.65-74.551 0 1 .56-.32q46.69-.01 79.31-4.25 39.62-5.15 79.75-15.66c44.98-11.79 88.6-26.76 131.53-40.19q11.49-3.59 45.32-12.67 14.73-3.95 40.07-8.81 22.45-4.31 40.6-6.06 44.82-4.33 83.96-1.46 50.26 3.69 97.95 15.49 28.78 7.13 58.74 16.51c29.42 9.22 54.14 17.62 82.53 25.99q21.74 6.4 33.63 9.75 28.78 8.1 63.62 13.92 50.83 8.49 101.21 7.08m-417.46 68.22-24.44-17.76a.677.677-56.576 0 1-.18-.88l15.15-26.25a.492.488 5.992 0 0-.58-.71l-28.54 9.29a.805.801 70.013 0 1-1-.47l-11.24-28.39a.514.511 45.423 0 0-.95-.01l-11.97 28.9a.288.282 20.418 0 1-.36.16l-29.07-9.59a.407.407 84.14 0 0-.48.59l15.39 26.66a.47.459 57.665 0 1-.13.61L715.2 188a.262.259 31.046 0 0 .12.47l31.14 3.98a.362.361 5.712 0 1 .32.39l-2.51 30.45a.309.306 71.789 0 0 .51.26l22.33-20.12a.46.46 78.21 0 1 .62 0l22.64 19.91a.356.355 17.937 0 0 .59-.3l-3.07-29.5a.695.687 83.145 0 1 .59-.76q18.41-2.7 25.84-3.92 1.87-.31 4.11-.21a.466.465-25.411 0 0 .3-.84M457.55 502.04q13.85 13.29 13.99 32.95c.13 18.25-3.99 42.39-5.67 55.34-1.03 7.89-2.61 23.38 7.09 27.54 1.9.82 5.63 1.18 7.54 1.17q52.51-.21 57.6-.25c17.22-.14 37.49.36 56.61.11a.575.571-10.335 0 0 .53-.76q-2.25-6.26-7.88-9.99-5.1-3.36-7.44-4.11-13.52-4.31-26.85-4.66-37.65-.99-41.34-1.03c-6.7-.1-14.56-.72-16.82-7.92-1.65-5.24-.99-11.05.05-16.45q2.11-10.94 6.19-23.6 2.93-9.1 15.58-44.07 1.9-5.26 3.83-11.2c2.83-8.74 5.19-16.6 6.07-25.41 1.73-17.35-6.51-34.24-18.5-46.46a.815.807-45.791 0 1-.01-1.12q6.74-7.29 13.32-13.42 2.66-2.48 16-17.52 1.1-1.24 3.52-5.01a.732.724 42.034 0 0-.05-.87c-6.92-8.23-11.75-18.41-12.34-28.84q-.04-.73.2-1.3a.432.429-41.94 0 1 .81.04q1.67 5.57 5.08 10.66c6.09 9.11 13.9 17.33 21.87 24.87q4.53 4.29 7.28 7.88 5.08 6.64 5.83 8.28 5.73 12.56-5.61 19.43a.682.681-52.87 0 0 .17 1.24q3.6.98 8.32.89c7.79-.16 13.51-6.85 14.07-14.38q.36-4.79-2.79-13.23-4.25-11.38-9.58-22.1-5.89-11.84-6.85-13.86-1.35-2.84-1.72-5.62a2.486 2.463-31.453 0 1 .44-1.79q5.84-8.2 10.06-14.86 11.1-17.5 9.72-39.37-1.06-16.79-4.38-41.73-1.21-9.12-1.73-26.66c-.14-4.51.41-7.74 4.75-9.38 10.13-3.83 21.74-6.88 32.54-7.26 6.59-.24 10.97-5.58 10.93-12.24-.02-2.65-2.2-4.83-4.12-5.85q-10.13-5.42-18.84-10.84-2.56-1.59-5.06-5.42c-3.69-5.64-11.4-6.9-17.62-8.03a1.206 1.203-72.019 0 1-.87-1.71c4.21-8.77 2.7-17.74 1.84-27.13a1.404 1.398 75.62 0 0-1.95-1.16q-7.42 3.2-12.62 9.39c-4.06 4.82-4.54 11.67-5.38 17.75a.522.522 41.056 0 1-1.02.07c-1.62-5.7-4.55-10.46-9.44-14.37q-7.74-6.19-16.21-10.63a1.348 1.346-72.665 0 0-1.96 1.03q-1.57 13 2.52 24.91 3.09 8.99 11.11 13.53a1.589 1.569-71.207 0 1 .78 1.61q-1.36 9-1.38 21.16-.02 11.17-.67 14.99-2.06 12.07-10.83 22c-2.97 3.35-7.85 8.99-12 12.99q-11.02 10.65-16.51 15.49-12.21 10.77-27.06 22.59-10.01 7.97-17.43 13.17-8.71 6.11-17.6 12.92-11.6 8.87-24.26 22.23-30.96 32.66-31.65 78.75c-.44 30.02-.4 52.14.89 77.09q.73 14.1-1.56 30.86c-2.31 16.85-8.36 31.63-20.59 43.85-9.38 9.37-24.32 15.44-37.32 18.67q-22.74 5.64-43.63 9.2c-9.54 1.63-16.6 4.84-20.66 13.26a.551.545-77.646 0 0 .5.79q23.73-.27 54.96.09c11.78.14 23.62-.89 34.41-2.96q24.49-4.7 43.99-21.13 1.72-1.45 3.95-3.83c3.09-3.3 6.5-6.22 9.36-10.04q10.25-13.65 17.05-26.9c8.89-17.32 17.83-34.64 25.94-52.23a.32.318 34.808 0 1 .51-.09m626.62-75.25q11.66 7.02 21.53 17.08 14.66 14.93 27.02 33.3 4.64 6.9 6.45 12.17 2.55 7.45 2.99 13.43.89 12.21.65 26.73-.53 32-2.55 56.75c-.8 9.8-3.79 15.51-14.26 16.46q-.51.05-16.48 1.36-8.63.71-16.41 6.6-3.58 2.71-4.98 7.66a.498.494 7.913 0 0 .48.63l64.75-.1a2.296 2.128 31.231 0 0 .78-.16q5.39-2.19 6.09-7.77.58-4.57.48-13.76-.05-4.71.47-13.83 4-70.23 4.34-78.09.72-16.19.87-23.49.13-6.15-1.52-8.92-11.31-19.1-18.56-30.83-2.55-4.12-5.76-8.67a.592.592 76.068 0 1 .56-.93q3.84.53 14.89.71 6.68.1 14.87.99 19.75 2.15 38.98 7.33c10.61 2.85 21.52 7.02 30.7 12.69a.283.278 14.328 0 0 .43-.25c-1.17-23.96-6.46-48.17-16.79-70.03-15.66-33.15-45.43-60.85-81.17-70.26q-16.05-4.23-31.77-4.6-13.21-.31-20.98.16c-18.69 1.12-38.11 5.36-57.79 8.81q-6.78 1.19-14.7 1.6c-17.43.9-29.72-8.6-29.87-26.75q-.05-5.85 1.02-12.11c3.58-21.11 7.53-36.11 13.78-63.06 2.44-10.53 6.22-25.35.75-35.11q-4.77-8.49-14.65-10.27-16.48-2.96-25.34 10.06c-1.64 2.4-2.74 3.08-5.19 3.97-5.48 1.99-17.7 3.81-22.24 9.24a1.085 1.08 40.93 0 0 .11 1.5c1.73 1.56 3.84 2.04 6.31 2.04q9.92-.01 19.8 3.48c11.12 3.93 13.2 11.33 11.14 22.15-3.11 16.34-7.91 32.82-12.83 47.77q-5.3 16.12-7.1 22.38c-4.64 16.14-8.29 28.83-9.38 43.74-3.39 46.53 29.48 75.81 71.03 86.96 10.07 2.69 20.76 5.69 28.88 11.2q12 8.16 22.15 19.97c6.38 7.42 12.85 16.2 15.21 24.22q2.45 8.3-.31 16.61-5.26 15.86-10.26 28.54-4.19 10.61-5.45 13.91c-5.79 15.21-12.47 30.03-18.68 45.14q-1.23 3-4.13 8.15-4.17 7.4-12.99 8.78-13.66 2.12-21.1 3.13c-8.56 1.16-17.01 3.89-20.03 12.83a.828.828 8.727 0 0 .8 1.09q27.59-.32 62.04-.38 2.97 0 6.27-2.83 1.64-1.41 3.04-6.3 1.55-5.39 7.79-20.28 15.41-36.77 29.51-70.43 7.74-18.49 10.27-25.48c3.42-9.43 3.84-20.09-.88-28.91q-10.21-19.09-23.45-37.31a.282.282 87.204 0 1 .37-.41M739.92 257.55l-7.37-11.28a.985.978-16.586 0 0-.82-.44h-17.39a1.091 1.08 16.422 0 0-.91.49q-1.67 2.48-1.91 4.83a2.016 2.008-58.624 0 0 .31 1.29l3.5 5.35a1.181 1.17 73.126 0 0 .98.53h23.19a.5.496-16.628 0 0 .42-.77m19.1.289a1.15 1.15 65.798 0 0 .962.521h21.571a1.15 1.15-63.795 0 0 .962-1.78l-6.705-10.24a1.15 1.15 73.725 0 0-.962-.52h-21.562a1.15 1.15-6.988 0 0-.962 1.779zm60.417-11.855a.49.49-28.618 0 0-.398-.204h-23.503a.49.49 78.176 0 0-.41.758l7.599 11.62a.49.49 52.058 0 0 .41.222h19.994a.49.49-23.037 0 0 .488-.45l.438-5.32a.5.5-85.708 0 0-.09-.326zM929.36 472.29c-9.98 5.76-21.45-.24-29.95-6.71-18.53-14.09-32.37-30.32-44.9-49.6q-8.28-12.73-14.17-25.87-13.6-30.29-19.51-61.98-3.17-17.01-4.68-33.62a.173.168 4.898 0 0-.13-.15q-16.61-4-34.53-5.2-10.13-.68-18.2.01a.763.755 87.169 0 0-.69.77c.36 18.61 3.54 36.6 6.76 55.73q2.56 15.12 9.69 37.84c1.69 5.39 3.74 9.58 5.43 14.54q1.67 4.89 4.37 10.77 7.63 16.63 16.34 31.02 9.68 15.99 23.42 30.56c13.14 13.96 29.55 25.09 48.02 29.16 6.26 1.38 12.14 1.29 18.88.72q10.14-.85 19.27-6.24 12.29-7.25 15.14-21.35a.378.377 80.45 0 0-.56-.4M707.98 300.77c6.41 3.11 8.69 10.72 9.06 17.49.7 12.73-1.38 24.06-4.64 37.15q-.9 3.59-6.19 17.89c-3.9 10.51-10.32 22.29-14.94 29.97q-5.16 8.57-12.8 18.46-18.38 23.79-41.36 43.15-12.74 10.73-27.62 19.69a.701.689-24.791 0 0-.31.82q8.85 26.64 25.21 50.1a.411.405 55.709 0 0 .56.11q36.17-23.06 65.14-53.22 19.02-19.8 35.72-48.33c9.89-16.9 16.97-35.29 20.07-52.8 3.9-21.97 2.22-46.23-11.02-64.88q-7.27-10.23-18.42-14.71c-6.03-2.43-11.92-2.54-18.34-1.64a.397.397-35.951 0 0-.12.75m127.16.85q6.49 9.95 11.12 17.84 21.23 36.17 31.31 76.28c2.49 9.91 3.8 19.44 5.45 31.25 2.07 14.88 13.76 29.47 25.52 37.54 7.25 4.98 14.92 8.8 22.3 1.12a2.326 2.287-19.105 0 0 .62-1.25c1.4-9.12 2.07-18.16 1.36-27.12q-.2-2.43-.58-6.99c-2.42-28.45-14.81-57.17-31.88-79.68q-13.48-17.76-29.55-29.96-15.94-12.1-35.2-19.6a.39.386-5.779 0 0-.47.57M605.75 464.19q.03-.01.11.03a.155.075-64.079 0 0 .14-.11q24.13-49.25 65.82-84.8c8.36-7.12 13.38-10.43 23.63-18.11q3.42-2.57 5.97-7.01c5.84-10.2 10.4-22.8 9.83-34.09-.4-8.06-1.54-14.29-9.36-18.21a1.401 1.388 51.992 0 0-.94-.12q-5.54 1.22-11.65 4.05-22.39 10.35-40.3 28.4c-14.69 14.81-26.98 33.71-34.89 54.34q-4.28 11.17-5 14.06-3.09 12.49-4.15 19.35-3.27 21.17.19 41.87a.455.453-14.569 0 0 .6.35M673.66 586c-1.45-9.16 3.71-14.6 10.97-19.12 14.24-8.85 31.31-13.97 47.87-16.13q39.9-5.21 78.05 2.74 36.11 7.52 68.07 24.71a.779.765-54.224 0 0 .93-.16q6.56-7.05 11.67-13.06c7.8-9.18 14.43-20.84 20.12-32.29a.85.85-57.564 0 0-.38-1.14q-19.68-9.9-41.22-18.27-10.79-4.19-31.84-10.06c-21.68-6.06-43.65-9.21-65.4-9.8-22.96-.63-46.54 2.58-67.19 11.9q-15.77 7.11-27.54 19.68c-16.52 17.65-21.56 41.79-4.5 61.18a.226.221 19.674 0 0 .39-.18m189.8 5.83a.389.384 79.994 0 0-.38-.27q-10.52.5-24.36.35c-20.18-.22-39.86-3.46-58.7-7.97q-18.84-4.51-37.79-13.41-25.99-12.22-51.93-.54c-8.18 3.69-15.23 10.96-12.04 20.56a3.46 3.397-78.853 0 0 .96 1.46q12.09 10.73 26.75 17.29 30.73 13.74 65.06 13.4 29.5-.29 56.46-10.51c12.99-4.92 24.89-12.19 35.84-19.88q.23-.16.13-.48M622 730.26c8.88 10.22 26.21 12.39 38.62 9.43q7.65-1.83 12.98-7.29c7.11-7.27 7.89-19.39 1.07-27.12-6.1-6.92-17.07-9.53-24.67-11.99q-1.38-.45-2.83-1.61c-2-1.6-1.22-4.51.67-5.77q1.35-.89 3.42-.99 8.94-.4 16.44 5.4a.876.868 37.729 0 0 1.22-.15l9.03-11.34a.897.895-50.985 0 0-.13-1.25q-14.58-11.94-33.3-8.57c-9.73 1.75-18.28 9.12-19.16 19.36-1.35 15.68 11.94 21.02 24.23 24.81 2.87.88 7.4 2.27 8.27 5.13 1.49 4.9-5.32 6.34-8.77 6.01q-8.58-.83-15.32-6.71a.999.992-48.486 0 0-1.4.09L622 729.49a.586.577-45.421 0 0 0 .77m-115.547-2.841q10.412-.018 11.139-.071a.522.518 78.468 0 1 .528.352l3.78 11.61a.711.703 80.859 0 0 .67.49h20.8a.497.493 79.692 0 0 .46-.67L518 670.28a.91.91-10.009 0 0-.822-.575q-5.412-.098-10.827-.089-5.417.01-10.829.128a.91.91 9.805 0 0-.82.578l-25.584 68.941a.497.493-79.897 0 0 .462.669l20.8-.075a.711.703-81.063 0 0 .668-.492l3.739-11.623a.522.518-78.672 0 1 .526-.354q.728.05 11.14.031m75.317 13.633c14.363.012 26.108-5.244 30.404-18.763q1.816-5.729 1.596-18.549-.18-10.51-.04-33.66a.36.35 90 0 0-.35-.36H593.5a.54.53-.521 0 0-.54.54q.1 35.35-.068 42.213c-.169 6.745-4.318 11.609-11.108 11.603-6.79-.005-10.931-4.876-11.089-11.621q-.157-6.863.001-42.213a.54.53.614 0 0-.539-.541l-19.88-.032a.36.35-89.907 0 0-.351.359q.102 23.15-.095 33.66-.241 12.82 1.566 18.551c4.274 13.526 16.011 18.801 30.373 18.813m132.245-1.163q8.742.02 9.742-.041a.643.639-1.804 0 0 .603-.638v-52.06a.65.65-54.477 0 1 .65-.65h18.67a.63.63 45 0 0 .63-.63v-15.51a.596.595 89.825 0 0-.599-.596q-26.935-.043-29.532-.049t-29.533-.089a.596.595-89.557 0 0-.601.593l-.072 15.51a.63.63 45 0 0 .627.633l18.669.087a.65.65-44.985 0 1 .647.653l-.243 52.06a.643.639 2.072 0 0 .6.64q1 .066 9.742.087m142.14-12.458q10.374-.004 11.099-.055a.52.516 78.548 0 1 .526.351l3.75 11.573a.708.7 80.939 0 0 .667.489l20.724.029a.495.491 79.772 0 0 .459-.667l-25.64-68.636a.904.903-9.929 0 0-.818-.574q-5.393-.105-10.787-.103-5.399.002-10.791.112a.904.903 9.885 0 0-.818.574l-25.587 68.656a.495.491-79.817 0 0 .46.667l20.724-.045a.708.7-80.983 0 0 .667-.49l3.741-11.576a.52.516-78.592 0 1 .525-.351q.725.05 11.099.046m45.605-57.711a.51.51 0 0 0-.51.51v69.07a.51.51 0 0 0 .51.51h49.11a.51.51 44.964 0 0 .51-.51v-16.16a.51.51 45.025 0 0-.51-.51h-28.29a.51.51 44.994 0 1-.51-.51v-51.89a.51.51 0 0 0-.51-.51zm80.58.462a.47.47 0 0 0-.471-.469l-19.98.034a.47.47 0 0 0-.469.471l.12 69.12a.47.47 0 0 0 .471.469l19.98-.034a.47.47 0 0 0 .469-.471zM774.67 715.99h6.61a1.004.989-12.687 0 1 .9.56l11.18 22.71a.941.938 76.683 0 0 .84.52h22.47a.553.55-19.616 0 0 .43-.9q-2.69-3.29-4.84-6.9-4.28-7.19-11.43-19.47a.804.794 62.229 0 1 .34-1.12q11.33-5.5 11.67-17.81c.34-12.36-6.21-19.59-17.52-22.4q-5.9-1.46-7.58-1.47-14.52-.04-33.89-.02a.4.39 0 0 0-.4.39v69.09a.73.73-44.963 0 0 .73.73h18.9a.89.89 87.546 0 0 .89-.89v-22.32a.7.7-60.196 0 1 .7-.7m253.141 11.428q10.408-.011 11.135-.062a.522.518 78.511 0 1 .527.352l3.77 11.608a.71.703 80.902 0 0 .669.49l20.792.016a.496.493 79.735 0 0 .46-.67l-25.768-68.841a.907.906-9.966 0 0-.821-.576q-5.41-.102-10.822-.097-5.416.006-10.825.12a.907.906 9.848 0 0-.82.577l-25.626 68.894a.496.493-79.854 0 0 .462.669l20.791-.059a.71.703-81.02 0 0 .669-.491l3.745-11.616a.522.518-78.629 0 1 .527-.353q.727.05 11.135.039m77.072 20.208a.275.274 21.112 0 0 .202.453q4.594.106 8.862.253 20.192.701 31.192-15.875a.223.223-88.463 0 0-.26-.334c-6.897 2.46-14.208 2.945-21.136 4.149-8.549 1.486-13.433 5.274-18.86 11.354m-673.493-.076c-5.54-6.09-10.51-9.87-19.16-11.29-7.01-1.15-14.4-1.57-21.39-3.99a.226.226 65.517 0 0-.26.34q11.27 16.64 31.66 15.74 4.31-.19 8.95-.34a.278.276-21.651 0 0 .2-.46M401 756.73a.244.242 72.915 0 0-.21.4q11.36 13.24 28.97 11.75c4.9-.42 11.33-2.99 16.05-4.08q3.52-.81 6.87-1.54a.408.405 59.624 0 0 .18-.7q-10.82-9.54-25.3-6.03c-7.36 1.78-18.33 4.79-24.86.86q-.97-.58-1.7-.66m734.039-.067q-.714.081-1.661.653c-6.371 3.872-17.116.975-24.323-.735q-14.181-3.372-24.725 6.007a.399.396-59.874 0 0 .179.684q3.28.7 6.727 1.478c4.623 1.046 10.924 3.532 15.719 3.922q17.234 1.382 28.291-11.619a.238.237-73.166 0 0-.207-.39M421.98 782.6a.425.424-28.201 0 0-.24.79c4.87 2.85 9.8 4.85 16.04 5.17q14.15.73 25.75-4.99 10.11-4.97 12.41-5.94a9.985 9.379-60.829 0 1 1.7-.54l2.3-.5a.494.494 49.893 0 0 .08-.94q-4.41-1.81-6.64-2.85c-7.32-3.44-16.17-3.09-23.12.03q-13.26 5.93-20 8.43-4.24 1.57-8.28 1.34m691.52.27c-7.96-.93-15.03-4.3-22.25-8.24-10.33-5.63-20.8-6.2-31.09.48a.508.507 37.535 0 0 .12.91c3.89 1.25 7.07 3.08 12.79 6.17 9.52 5.13 18.85 7.36 29.82 5.71q5.89-.88 10.8-4.29a.409.408 30.679 0 0-.19-.74m-23.19 19.39c-10.3-.65-16.22-6.52-26.65-14.11q-7.63-5.56-19.15-6.08c-4.91-.23-9.4 2.2-14.31 3.71a.466.462-40.565 0 0-.07.86q4.85 2.37 11.27 6.66 8.09 5.41 11.1 6.89c11.19 5.5 25.94 7.76 37.98 3.21a.59.589 36.55 0 0-.17-1.14m-644.39.34a.321.32-32.423 0 0-.14.62q16.08 5.79 32.46 2.2 10.31-2.25 16.92-7.07 9.28-6.77 17.33-10.67a.498.498-46.922 0 0-.03-.91q-1.72-.69-7.1-2.34c-9.49-2.91-19.54-1.78-27.34 3.39q-10.36 6.86-13.55 8.9c-5.22 3.34-12.15 6.46-18.55 5.88m554.95-9.12a.463.462-33.739 0 0-.17.85c6.64 4.07 11.41 10.97 17.93 15.65q18.79 13.49 41.54 8.96.51-.11.67-.55a.494.49 16.585 0 0-.35-.64c-11.89-2.77-18.71-9.08-29.08-18.92-5.94-5.63-15.42-8.57-23.98-6.64q-3.35.75-6.56 1.29m-520.64 25.14q1.28.63 3.34.97c13.25 2.22 27.54 1.7 38.91-6.47 6.29-4.52 11.24-9.41 16.36-14.15 1.89-1.74 3.91-2.74 6.36-3.84a.445.441 40.467 0 0-.07-.83q-4.43-1.23-8.2-1.99c-8.61-1.75-17.99.97-24.48 6.68-9.07 7.97-14.94 14.06-24.95 17.71q-1.96.72-3.56.9-3.78.42-3.78.43a.354.354-51.829 0 0 .07.59m546.16 10.69a.448.444-52.75 0 0-.1-.76q-10.05-4.21-17.5-11.86-9.46-9.71-10.22-10.47-12.01-12.04-28.39-6.58a.326.325-36.081 0 0-.09.57q4.96 3.66 10.12 9.65c3.83 4.46 9.63 9.94 14.95 12.97q14.36 8.16 30.28 6.82.58-.05.95-.34m-507.47-.4a.461.461-50.114 0 0 .08.9q14.54 1.58 28.47-2.88 8.71-2.79 14.9-9.09c7.89-8.03 12.71-13.17 17.6-16.23a.44.438 37.872 0 0-.1-.79q-6.34-2.03-12.39-2.32c-12.32-.59-23.23 10.08-30.68 18.7q-7.38 8.54-17.88 11.71m473.82 6.64c-10.27-5.15-14.93-11.95-25.69-23.95q-4.61-5.14-11.96-7.48c-5.24-1.66-10.16-.77-16.38.02a.586.586-31.854 0 0-.25 1.07c4.29 2.87 6.36 5.84 10.64 11.22q4.54 5.69 10.27 10.21 14.7 11.61 33.24 9.62a.377.375-34.754 0 0 .13-.71m-364.55-27.64q-9.77-1.2-18.21-2.36-12.52-1.72-22.12 5.35-2.58 1.9-7.12 6.84c-6.46 7-11.32 12.3-19.27 16.79a4.348 4.121 19.968 0 1-.69.3l-3.17 1.04a.478.476-51.869 0 0 .11.93q17.84 1.24 32.99-4.37 6.53-2.42 9.02-4.5 4.63-3.87 9.53-5.83a3.755 3.719 13.843 0 0 1.07-.64c5.43-4.58 10.81-9.07 18-12.8a.401.398 34.675 0 0-.14-.75m331.041 33.518a.382.378 54.535 0 0 .114-.704c-6.237-3.575-10.855-7.586-15.674-13.49-7.63-9.327-13.391-17.863-26.408-19.261-2.881-.304-7.56.764-11.323 1.3a.335.334 60.661 0 0-.165.589c5.93 4.897 11.462 12.907 15.97 17.267q13.592 13.126 34.016 14.494 1.829.117 3.47-.195M600.23 843.89q16.24 1.6 30.96-3.97c11.25-4.25 17.1-10.99 26.71-21.52q2.82-3.08 5.45-4.9.44-.3.18-.77-.17-.32-.6-.39c-9.84-1.77-18.68-2.2-27.1 4.2q-5.55 4.22-8.66 7.89c-6.8 8.02-16.58 16.34-26.99 18.55a.462.461-48.187 0 0 .05.91m326.514 2.312a.391.388 54.341 0 0 .115-.722c-6.4-3.639-11.143-7.731-16.098-13.76-7.846-9.525-13.775-18.246-27.11-19.633-2.951-.302-7.739.808-11.591 1.37a.343.342 60.468 0 0-.167.604c6.09 4.994 11.783 13.178 16.414 17.627q13.964 13.395 34.884 14.725 1.874.114 3.553-.211m-284.45 4.475q1.727.31 3.649.167 21.446-1.663 35.583-15.606c4.689-4.631 10.414-13.11 16.591-18.321a.352.351-61.263 0 0-.18-.617c-3.96-.522-8.889-1.593-11.913-1.241-13.662 1.613-19.622 10.646-27.536 20.531-4.999 6.257-9.807 10.524-16.322 14.349a.401.398-55.137 0 0 .128.738m250.316.283a.397.393 55.367 0 0 .13-.73c-6.43-3.81-11.17-8.05-16.09-14.26-7.79-9.81-13.65-18.77-27.16-20.42-2.99-.36-7.87.68-11.79 1.18a.348.347 61.494 0 0-.18.61c6.09 5.18 11.72 13.59 16.34 18.19q13.93 13.85 35.14 15.58 1.9.15 3.61-.15m-162.64-32.3q-18.73-3.95-29.24 10.74c-7.24 10.12-12.13 19.4-22.27 26.36a.4.4 29.02 0 0 .21.73q15.51.55 27.63-8.69c8.78-6.69 13.24-14.13 19.51-23.76q1.57-2.4 4.33-4.68a.399.399-58.706 0 0-.17-.7m126.01 37.83a.527.526-24.446 0 0 .35-.93c-5.67-4.71-9.71-9.35-14.21-16.19-6.55-9.96-14.02-21.49-27.63-21.01q-4.74.16-8.07.4a.422.421 62.107 0 0-.23.75q1.74 1.4 3.25 3.54 4.24 6.05 6.75 10.25c8.55 14.29 23.33 22.79 39.79 23.19m-143.26 4.08a.384.384-68.844 0 0 .3.68c10.94-1.84 20.97-4.91 29.32-12.18q7.83-6.8 12.61-15.12 4.03-7.02 8.34-13.99a.365.361-70.659 0 0-.26-.55c-9.22-1.27-16.86-.17-24.08 6.53-5.62 5.2-9.67 13.75-12.87 19.11q-5.52 9.26-13.36 15.52m110.065-.052q-7.685-6.234-13.059-15.409c-3.116-5.311-7.045-13.774-12.549-18.945-7.07-6.663-14.597-7.806-23.7-6.623a.36.356 71.099 0 0-.261.54q4.198 6.907 8.12 13.862 4.651 8.242 12.322 15.008c8.181 7.233 18.05 10.337 28.826 12.235a.379.378 69.284 0 0 .301-.668m-64.936-13.284a10.61 8.99-175.1 0 0 9.803 9.863 10.61 8.99-175.1 0 0 11.339-8.051 10.61 8.99-175.1 0 0-9.803-9.863 10.61 8.99-175.1 0 0-11.339 8.051" data-source="https://football-logos.cc"></path><path fill="#0f5e2a" fill-rule="evenodd" d="M818.73 187.81a.466.465-25.411 0 1-.3.84q-2.24-.1-4.11.21-7.43 1.22-25.84 3.92a.695.687 83.145 0 0-.59.76l3.07 29.5a.356.355 17.937 0 1-.59.3l-22.64-19.91a.46.46 43.189 0 0-.62 0l-22.33 20.12a.309.306 71.789 0 1-.51-.26l2.51-30.45a.362.361 5.712 0 0-.32-.39l-31.14-3.98a.262.259 31.046 0 1-.12-.47l25.13-18.04a.47.459 57.665 0 0 .13-.61l-15.39-26.66a.407.407 84.14 0 1 .48-.59l29.07 9.59a.288.282 20.418 0 0 .36-.16l11.97-28.9a.514.511 45.423 0 1 .95.01l11.24 28.39a.805.801 70.013 0 0 1 .47l28.54-9.29a.492.488 5.992 0 1 .58.71l-15.15 26.25a.677.677-56.576 0 0 .18.88zM1084.17 426.79a.282.282 87.204 0 0-.37.41q13.24 18.22 23.45 37.31c4.72 8.82 4.3 19.48.88 28.91q-2.53 6.99-10.27 25.48-14.1 33.66-29.51 70.43-6.24 14.89-7.79 20.28-1.4 4.89-3.04 6.3-3.3 2.83-6.27 2.83-34.45.06-62.04.38a.828.828 8.727 0 1-.8-1.09c3.02-8.94 11.47-11.67 20.03-12.83q7.44-1.01 21.1-3.13 8.82-1.38 12.99-8.78 2.9-5.15 4.13-8.15c6.21-15.11 12.89-29.93 18.68-45.14q1.26-3.3 5.45-13.91 5-12.68 10.26-28.54 2.76-8.31.31-16.61c-2.36-8.02-8.83-16.8-15.21-24.22Q1056 444.91 1044 436.75c-8.12-5.51-18.81-8.51-28.88-11.2-41.55-11.15-74.42-40.43-71.03-86.96 1.09-14.91 4.74-27.6 9.38-43.74q1.8-6.26 7.1-22.38c4.92-14.95 9.72-31.43 12.83-47.77 2.06-10.82-.02-18.22-11.14-22.15q-9.88-3.49-19.8-3.48c-2.47 0-4.58-.48-6.31-2.04a1.085 1.08 40.93 0 1-.11-1.5c4.54-5.43 16.76-7.25 22.24-9.24 2.45-.89 3.55-1.57 5.19-3.97q8.86-13.02 25.34-10.06 9.88 1.78 14.65 10.27c5.47 9.76 1.69 24.58-.75 35.11-6.25 26.95-10.2 41.95-13.78 63.06q-1.07 6.26-1.02 12.11c.15 18.15 12.44 27.65 29.87 26.75q7.92-.41 14.7-1.6c19.68-3.45 39.1-7.69 57.79-8.81q7.77-.47 20.98-.16 15.72.37 31.77 4.6c35.74 9.41 65.51 37.11 81.17 70.26 10.33 21.86 15.62 46.07 16.79 70.03a.283.278 14.328 0 1-.43.25c-9.18-5.67-20.09-9.84-30.7-12.69q-19.23-5.18-38.98-7.33-8.19-.89-14.87-.99-11.05-.18-14.89-.71a.592.592 76.068 0 0-.56.93q3.21 4.55 5.76 8.67 7.25 11.73 18.56 30.83 1.65 2.77 1.52 8.92-.15 7.3-.87 23.49-.34 7.86-4.34 78.09-.52 9.12-.47 13.83.1 9.19-.48 13.76-.7 5.58-6.09 7.77a2.296 2.128 31.231 0 1-.78.16l-64.75.1a.498.494 7.913 0 1-.48-.63q1.4-4.95 4.98-7.66 7.78-5.89 16.41-6.6 15.97-1.31 16.48-1.36c10.47-.95 13.46-6.66 14.26-16.46q2.02-24.75 2.55-56.75.24-14.52-.65-26.73-.44-5.98-2.99-13.43-1.81-5.27-6.45-12.17-12.36-18.37-27.02-33.3-9.87-10.06-21.53-17.08"></path><path d="M581.91 145.715a1.404 1.398 75.62 0 0-.55.115q-7.42 3.2-12.62 9.39c-4.06 4.82-4.54 11.67-5.38 17.75a.522.522 0 0 1-1.02.07c-1.62-5.7-4.55-10.46-9.44-14.37q-7.74-6.19-16.21-10.63a1.346 1.348 17.335 0 0-1.96 1.03q-1.57 13 2.52 24.91 3.09 8.99 11.11 13.53a1.569 1.589 18.793 0 1 .78 1.61q-1.36 9-1.38 21.16-.02 11.17-.67 14.99-2.06 12.07-10.83 22c-2.97 3.35-7.85 8.99-12 12.99q-11.02 10.65-16.51 15.49-12.21 10.77-27.06 22.59-10.011 7.97-17.43 13.17a521 521 0 0 0-17.6 12.92q-11.6 8.87-24.26 22.23-30.96 32.66-31.65 78.75c-.44 30.02-.4 52.14.89 77.09q.73 14.1-1.56 30.86c-2.31 16.85-8.36 31.63-20.59 43.85-9.38 9.37-24.32 15.44-37.32 18.67q-22.74 5.64-43.63 9.2c-9.54 1.63-16.6 4.84-20.66 13.26a.545.551 12.354 0 0 .5.79q23.73-.27 54.96.09c11.78.14 23.62-.89 34.41-2.96q24.49-4.7 43.99-21.13 1.72-1.45 3.95-3.83c3.09-3.3 6.5-6.22 9.36-10.04q10.25-13.65 17.05-26.9c8.89-17.32 17.83-34.64 25.94-52.23a.32.318 34.808 0 1 .51-.09q13.85 13.29 13.99 32.95c.13 18.25-3.99 42.39-5.67 55.34-1.03 7.89-2.61 23.38 7.09 27.54 1.9.82 5.63 1.18 7.54 1.17q52.51-.21 57.6-.25c17.22-.14 37.49.36 56.61.11a.571.575 79.665 0 0 .53-.76q-2.25-6.26-7.88-9.99-5.1-3.36-7.44-4.11-13.52-4.31-26.85-4.66-37.65-.99-41.34-1.03c-6.7-.1-14.56-.72-16.82-7.92-1.65-5.24-.99-11.05.05-16.45q2.111-10.94 6.19-23.6 2.93-9.099 15.58-44.07a365 365 0 0 0 3.83-11.2c2.83-8.74 5.19-16.6 6.07-25.41 1.73-17.35-6.51-34.24-18.5-46.46a.807.815 44.209 0 1-.01-1.12q6.739-7.29 13.32-13.42 2.66-2.481 16-17.52 1.1-1.24 3.52-5.01a.732.724 42.034 0 0-.05-.87c-6.92-8.23-11.75-18.41-12.34-28.84q-.04-.73.2-1.3a.429.432 48.06 0 1 .81.04q1.67 5.57 5.08 10.66c6.09 9.11 13.9 17.33 21.87 24.87q4.53 4.29 7.28 7.88 5.08 6.64 5.83 8.28 5.73 12.56-5.61 19.43a.681.682 37.13 0 0 .17 1.24q3.6.98 8.32.89c7.79-.16 13.51-6.85 14.07-14.38q.36-4.79-2.79-13.23a232 232 0 0 0-9.58-22.1q-5.89-11.839-6.85-13.86-1.35-2.84-1.72-5.62a2.463 2.486 58.547 0 1 .44-1.79q5.84-8.2 10.06-14.86 11.1-17.5 9.72-39.37-1.06-16.79-4.38-41.73-1.21-9.12-1.73-26.66c-.14-4.51.41-7.74 4.75-9.38 10.13-3.83 21.74-6.88 32.54-7.26 6.59-.24 10.97-5.58 10.93-12.24-.02-2.65-2.2-4.83-4.12-5.85q-10.131-5.42-18.84-10.84-2.56-1.59-5.06-5.42c-3.69-5.64-11.4-6.9-17.62-8.03a1.203 1.206 17.981 0 1-.87-1.71c4.21-8.77 2.7-17.74 1.84-27.13a1.404 1.398 75.62 0 0-1.4-1.275" style="fill:#0f5e2a;fill-opacity:1"></path><path fill="#0f5e2a" fill-rule="evenodd" d="M739.92 257.55a.5.496-16.628 0 1-.42.77h-23.19a1.181 1.17 73.126 0 1-.98-.53l-3.5-5.35a2.016 2.008-58.624 0 1-.31-1.29q.24-2.35 1.91-4.83a1.091 1.08 16.422 0 1 .91-.49h17.39a.985.978-16.586 0 1 .82.44zM759.02 257.839l-6.696-10.24a1.15 1.15 15.3 0 1 .962-1.779h21.562a1.15 1.15-83.298 0 1 .962.52l6.705 10.24a1.15 1.15-63.413 0 1-.962 1.78h-21.571a1.15 1.15-64.287 0 1-.962-.521M819.437 245.984l4.528 6.3a.5.5-22.043 0 1 .09.326l-.438 5.32a.49.49 42.135 0 1-.488.45h-19.994a.49.49-67.499 0 1-.41-.222l-7.599-11.62a.49.49-69.609 0 1 .41-.758h23.503a.49.49 15.531 0 1 .398.204M929.36 472.29a.378.377 80.45 0 1 .56.4q-2.85 14.1-15.14 21.35-9.13 5.39-19.27 6.24c-6.74.57-12.62.66-18.88-.72-18.47-4.07-34.88-15.2-48.02-29.16q-13.74-14.57-23.42-30.56-8.71-14.39-16.34-31.02-2.7-5.88-4.37-10.77c-1.69-4.96-3.74-9.15-5.43-14.54q-7.13-22.72-9.69-37.84c-3.22-19.13-6.4-37.12-6.76-55.73a.763.755 87.169 0 1 .69-.77q8.07-.69 18.2-.01 17.92 1.2 34.53 5.2a.173.168 4.898 0 1 .13.15q1.51 16.61 4.68 33.62 5.91 31.69 19.51 61.98 5.89 13.14 14.17 25.87c12.53 19.28 26.37 35.51 44.9 49.6 8.5 6.47 19.97 12.47 29.95 6.71M707.98 300.77a.397.397-35.951 0 1 .12-.75c6.42-.9 12.31-.79 18.34 1.64q11.15 4.48 18.42 14.71c13.24 18.65 14.92 42.91 11.02 64.88-3.1 17.51-10.18 35.9-20.07 52.8q-16.7 28.53-35.72 48.33-28.97 30.16-65.14 53.22a.411.405 55.709 0 1-.56-.11q-16.36-23.46-25.21-50.1a.701.689-24.791 0 1 .31-.82q14.88-8.96 27.62-19.69 22.98-19.36 41.36-43.15 7.64-9.89 12.8-18.46c4.62-7.68 11.04-19.46 14.94-29.97q5.29-14.3 6.19-17.89c3.26-13.09 5.34-24.42 4.64-37.15-.37-6.77-2.65-14.38-9.06-17.49"></path><path fill="#0f5e2a" fill-rule="evenodd" d="M835.14 301.62a.39.386-5.779 0 1 .47-.57q19.26 7.5 35.2 19.6 16.07 12.2 29.55 29.96c17.07 22.51 29.46 51.23 31.88 79.68q.38 4.56.58 6.99c.71 8.96.04 18-1.36 27.12a2.326 2.287-19.105 0 1-.62 1.25c-7.38 7.68-15.05 3.86-22.3-1.12-11.76-8.07-23.45-22.66-25.52-37.54-1.65-11.81-2.96-21.34-5.45-31.25q-10.08-40.11-31.31-76.28-4.63-7.89-11.12-17.84M605.75 464.19a.455.453-14.569 0 1-.6-.35q-3.46-20.7-.19-41.87 1.06-6.86 4.15-19.35.72-2.89 5-14.06c7.91-20.63 20.2-39.53 34.89-54.34q17.91-18.05 40.3-28.4 6.11-2.83 11.65-4.05a1.401 1.388 51.992 0 1 .94.12c7.82 3.92 8.96 10.15 9.36 18.21.57 11.29-3.99 23.89-9.83 34.09q-2.55 4.44-5.97 7.01c-10.25 7.68-15.27 10.99-23.63 18.11q-41.69 35.55-65.82 84.8a.155.075-64.079 0 1-.14.11q-.08-.04-.11-.03M673.66 586a.226.221 19.674 0 1-.39.18c-17.06-19.39-12.02-43.53 4.5-61.18q11.77-12.57 27.54-19.68c20.65-9.32 44.23-12.53 67.19-11.9 21.75.59 43.72 3.74 65.4 9.8q21.05 5.87 31.84 10.06 21.54 8.37 41.22 18.27a.85.85-33.623 0 1 .38 1.14c-5.69 11.45-12.32 23.11-20.12 32.29q-5.11 6.01-11.67 13.06a.779.765-54.224 0 1-.93.16q-31.96-17.19-68.07-24.71-38.15-7.95-78.05-2.74c-16.56 2.16-33.63 7.28-47.87 16.13-7.26 4.52-12.42 9.96-10.97 19.12" data-source="https://football-logos.cc"></path><path fill="#0f5e2a" fill-rule="evenodd" d="M863.46 591.83q.1.32-.13.48c-10.95 7.69-22.85 14.96-35.84 19.88q-26.96 10.22-56.46 10.51-34.33.34-65.06-13.4-14.66-6.56-26.75-17.29a3.46 3.397-78.853 0 1-.96-1.46c-3.19-9.6 3.86-16.87 12.04-20.56q25.94-11.68 51.93.54 18.95 8.9 37.79 13.41c18.84 4.51 38.52 7.75 58.7 7.97q13.84.15 24.36-.35a.389.384 79.994 0 1 .38.27M622 730.26a.586.577-45.421 0 1 0-.77l10.37-11.79a.999.992-48.486 0 1 1.4-.09q6.74 5.88 15.32 6.71c3.45.33 10.26-1.11 8.77-6.01-.87-2.86-5.4-4.25-8.27-5.13-12.29-3.79-25.58-9.13-24.23-24.81.88-10.24 9.43-17.61 19.16-19.36q18.72-3.37 33.3 8.57a.897.895-50.985 0 1 .13 1.25l-9.03 11.34a.876.868 37.729 0 1-1.22.15q-7.5-5.8-16.44-5.4-2.07.1-3.42.99c-1.89 1.26-2.67 4.17-.67 5.77q1.45 1.16 2.83 1.61c7.6 2.46 18.57 5.07 24.67 11.99 6.82 7.73 6.04 19.85-1.07 27.12q-5.33 5.46-12.98 7.29c-12.41 2.96-29.74.79-38.62-9.43M506.351 669.616q5.415-.009 10.827.089a.91.91-10.009 0 1 .822.575l25.83 68.85a.497.493 79.692 0 1-.46.67h-20.8a.711.703 80.859 0 1-.67-.49l-3.78-11.61a.522.518 78.468 0 0-.528-.352q-.727.053-11.139.071-10.412.019-11.14-.031a.522.518-78.672 0 0-.526.354l-3.739 11.623a.711.703-81.063 0 1-.668.492l-20.8.075a.497.493-79.897 0 1-.462-.669l25.584-68.941a.91.91 9.805 0 1 .82-.578q5.412-.118 10.829-.128m-7.083 42.038a.36.36-39.448 0 0 .35.459l13.474-.141a.36.36 84.145 0 0 .34-.466l-6.974-22.585a.36.36-63.529 0 0-.69.007zM581.784 724.076c6.79.006 10.939-4.858 11.108-11.603q.168-6.863.068-42.213a.54.53-.521 0 1 .54-.54h19.88a.36.35-90 0 1 .35.36q-.14 23.15.04 33.66.22 12.82-1.596 18.549c-4.296 13.519-16.041 18.775-30.404 18.763s-26.099-5.287-30.373-18.813q-1.807-5.731-1.566-18.551.197-10.51.095-33.66a.36.35-89.907 0 1 .351-.359l19.88.032a.54.53.614 0 1 .539.541q-.158 35.35-.001 42.213c.158 6.745 4.299 11.616 11.089 11.621M714.179 669.715q2.597.006 29.532.049a.596.595 89.825 0 1 .599.596v15.51a.63.63 45 0 1-.63.63h-18.67a.65.65 87.535 0 0-.65.65v52.06a.643.639-1.804 0 1-.603.638q-1 .061-9.742.041-8.742-.021-9.742-.087a.643.639 2.072 0 1-.6-.64l.243-52.06a.65.65-44.985 0 0-.647-.653l-18.669-.087a.63.63-45 0 1-.627-.633l.072-15.51a.596.595-89.557 0 1 .601-.593q26.936.083 29.533.089M856.155 727.431q-10.374.004-11.099-.046a.52.516-78.592 0 0-.525.351l-3.741 11.576a.708.7-80.983 0 1-.667.49l-20.724.045a.495.491-79.817 0 1-.46-.667l25.587-68.656a.904.903 9.885 0 1 .818-.574q5.392-.11 10.791-.112 5.394-.002 10.787.103a.904.903-9.929 0 1 .818.574l25.64 68.636a.495.491 79.772 0 1-.459.667l-20.724-.029a.708.7 80.939 0 1-.667-.489l-3.75-11.573a.52.516 78.548 0 0-.526-.351q-.725.051-11.099.055m-.206-15.307 6.668-.014a.489.485 81.535 0 0 .463-.63l-6.82-22.63a.009.002 89.567 0 0-.002-.01q-.113-.236-.359-.236-.246.001-.358.238a.009.002-89.809 0 0-.002.01l-6.724 22.658a.489.485-81.778 0 0 .466.628zM901.76 669.72h19.8a.51.51 0 0 1 .51.51v51.89a.51.51-44.975 0 0 .51.51h28.29a.51.51-45.006 0 1 .51.51v16.16a.51.51 44.996 0 1-.51.51h-49.11a.51.51 0 0 1-.51-.51v-69.07a.51.51 0 0 1 .51-.51M982.46 739.302a.47.47 0 0 1-.469.471l-19.98.034a.47.47 0 0 1-.471-.469l-.12-69.12a.47.47 0 0 1 .469-.471l19.98-.034a.47.47 0 0 1 .471.469zM773.97 716.69v22.32a.89.89-54.466 0 1-.89.89h-18.9a.73.73 44.995 0 1-.73-.73v-69.09a.4.39 0 0 1 .4-.39q19.37-.02 33.89.02 1.68.01 7.58 1.47c11.31 2.81 17.86 10.04 17.52 22.4q-.34 12.31-11.67 17.81a.804.794 62.229 0 0-.34 1.12q7.15 12.28 11.43 19.47 2.15 3.61 4.84 6.9a.553.55-19.616 0 1-.43.9H794.2a.941.938 76.683 0 1-.84-.52l-11.18-22.71a1.004.989-12.687 0 0-.9-.56h-6.61a.7.7-84.138 0 0-.7.7m-.167-30.693.074 14.26a.68.68 87.303 0 0 .684.676l9.38-.049a7.9 7.33-.3 0 0 7.861-7.371l-.005-.96a7.9 7.33-.3 0 0-7.938-7.289l-9.38.05a.68.68-2.687 0 0-.676.683M1027.811 727.418q-10.408.011-11.135-.039a.522.518-78.629 0 0-.527.353l-3.745 11.616a.71.703-81.02 0 1-.669.491l-20.791.059a.496.493-79.854 0 1-.462-.669l25.626-68.894a.907.906 9.848 0 1 .82-.577q5.409-.114 10.825-.12 5.412-.005 10.822.097a.907.906-9.966 0 1 .821.576l25.768 68.841a.496.493 79.735 0 1-.46.67l-20.792-.016a.71.703 80.902 0 1-.669-.49l-3.77-11.608a.522.518 78.511 0 0-.527-.352q-.727.051-11.135.062m-7.194-15.564a.33.33-29.146 0 0 .32.421l13.406-.117a.33.33-62.031 0 0 .312-.427l-6.899-22.53a.33.33 18.722 0 0-.633.005z"></path><path fill="#fec20c" fill-rule="evenodd" d="M773.803 685.997a.68.68 35.232 0 1 .676-.683l9.38-.05a7.9 7.33-.3 0 1 7.938 7.289l.005.96a7.9 7.33-.3 0 1-7.861 7.371l-9.38.049a.68.68-54.768 0 1-.684-.676zM499.268 711.654l6.5-22.726a.36.36-8.298 0 1 .69-.007l6.974 22.585a.36.36-65.666 0 1-.34.466l-13.474.141a.36.36 55.013 0 1-.35-.459M855.899 688.604q.246 0 .359.236a.009.002 89.567 0 1 .002.01l6.82 22.63a.489.485 81.535 0 1-.463.63l-6.668.014-6.668.014a.489.485-81.778 0 1-.466-.628l6.724-22.658a.009.002-89.809 0 1 .002-.01q.112-.237.358-.238M1020.617 711.854l6.506-22.648a.33.33 79.366 0 1 .633-.005l6.899 22.53a.33.33-62.354 0 1-.312.427l-13.406.117a.33.33 50.353 0 1-.32-.421"></path><path fill="#0f5e2a" fill-rule="evenodd" d="M1104.883 747.626c5.427-6.08 10.311-9.868 18.86-11.354 6.928-1.204 14.239-1.689 21.136-4.149a.223.223-47.579 0 1 .26.334q-11 16.576-31.192 15.875-4.268-.147-8.862-.253a.275.274 21.112 0 1-.202-.453M431.39 747.55a.278.276-21.651 0 1-.2.46q-4.64.15-8.95.34-20.39.9-31.66-15.74a.226.226-77.55 0 1 .26-.34c6.99 2.42 14.38 2.84 21.39 3.99 8.65 1.42 13.62 5.2 19.16 11.29M401 756.73q.73.08 1.7.66c6.53 3.93 17.5.92 24.86-.86q14.48-3.51 25.3 6.03a.408.405 59.624 0 1-.18.7q-3.35.73-6.87 1.54c-4.72 1.09-11.15 3.66-16.05 4.08q-17.61 1.49-28.97-11.75a.244.242 72.915 0 1 .21-.4M1135.039 756.663a.238.237-73.166 0 1 .207.39q-11.057 13.001-28.291 11.619c-4.795-.39-11.096-2.876-15.719-3.922q-3.447-.778-6.727-1.478a.399.396-59.874 0 1-.179-.684q10.544-9.379 24.725-6.007c7.207 1.71 17.952 4.607 24.323.735q.947-.572 1.661-.653M421.98 782.6q4.04.23 8.28-1.34 6.74-2.5 20-8.43c6.95-3.12 15.8-3.47 23.12-.03q2.23 1.04 6.64 2.85a.494.494 49.893 0 1-.08.94l-2.3.5a9.985 9.379-60.829 0 0-1.7.54q-2.3.97-12.41 5.94-11.6 5.72-25.75 4.99c-6.24-.32-11.17-2.32-16.04-5.17a.425.424-28.201 0 1 .24-.79M1113.5 782.87a.409.408 30.679 0 1 .19.74q-4.91 3.41-10.8 4.29c-10.97 1.65-20.3-.58-29.82-5.71-5.72-3.09-8.9-4.92-12.79-6.17a.508.507 37.535 0 1-.12-.91c10.29-6.68 20.76-6.11 31.09-.48 7.22 3.94 14.29 7.31 22.25 8.24M1090.31 802.26a.59.589 36.55 0 1 .17 1.14c-12.04 4.55-26.79 2.29-37.98-3.21q-3.01-1.48-11.1-6.89-6.42-4.29-11.27-6.66a.466.462-40.565 0 1 .07-.86c4.91-1.51 9.4-3.94 14.31-3.71q11.52.52 19.15 6.08c10.43 7.59 16.35 13.46 26.65 14.11M445.92 802.6c6.4.58 13.33-2.54 18.55-5.88q3.19-2.04 13.55-8.9c7.8-5.17 17.85-6.3 27.34-3.39q5.38 1.65 7.1 2.34a.498.498-46.922 0 1 .03.91q-8.05 3.9-17.33 10.67-6.61 4.82-16.92 7.07-16.38 3.59-32.46-2.2a.321.32-32.423 0 1 .14-.62M1000.87 793.48q3.21-.54 6.56-1.29c8.56-1.93 18.04 1.01 23.98 6.64 10.37 9.84 17.19 16.15 29.08 18.92a.494.49 16.585 0 1 .35.64q-.16.44-.67.55-22.75 4.53-41.54-8.96c-6.52-4.68-11.29-11.58-17.93-15.65a.463.462-33.739 0 1 .17-.85M480.16 818.03q0-.01 3.78-.43 1.6-.18 3.56-.9c10.01-3.65 15.88-9.74 24.95-17.71 6.49-5.71 15.87-8.43 24.48-6.68q3.77.76 8.2 1.99a.445.441 40.467 0 1 .07.83c-2.45 1.1-4.47 2.1-6.36 3.84-5.12 4.74-10.07 9.63-16.36 14.15-11.37 8.17-25.66 8.69-38.91 6.47q-2.06-.34-3.34-.97a.354.354-51.829 0 1-.07-.59M1026.39 829.31q-.37.29-.95.34-15.92 1.34-30.28-6.82c-5.32-3.03-11.12-8.51-14.95-12.97q-5.16-5.99-10.12-9.65a.326.325-36.081 0 1 .09-.57q16.38-5.46 28.39 6.58.76.76 10.22 10.47 7.45 7.65 17.5 11.86a.448.444-52.75 0 1 .1.76M518.92 828.91q10.5-3.17 17.88-11.71c7.45-8.62 18.36-19.29 30.68-18.7q6.05.29 12.39 2.32a.44.438 37.872 0 1 .1.79c-4.89 3.06-9.71 8.2-17.6 16.23q-6.19 6.3-14.9 9.09-13.93 4.46-28.47 2.88a.461.461-50.114 0 1-.08-.9M992.74 835.55a.377.375-34.754 0 1-.13.71q-18.54 1.99-33.24-9.62-5.73-4.52-10.27-10.21c-4.28-5.38-6.35-8.35-10.64-11.22a.586.586-31.854 0 1 .25-1.07c6.22-.79 11.14-1.68 16.38-.02q7.35 2.34 11.96 7.48c10.76 12 15.42 18.8 25.69 23.95M628.19 807.91a.401.398 34.675 0 1 .14.75c-7.19 3.73-12.57 8.22-18 12.8a3.755 3.719 13.843 0 1-1.07.64q-4.9 1.96-9.53 5.83-2.49 2.08-9.02 4.5-15.15 5.61-32.99 4.37a.478.476-51.869 0 1-.11-.93l3.17-1.04a4.348 4.121 19.968 0 0 .69-.3c7.95-4.49 12.81-9.79 19.27-16.79q4.54-4.94 7.12-6.84 9.6-7.07 22.12-5.35 8.44 1.16 18.21 2.36M959.231 841.428q-1.641.312-3.47.195-20.424-1.368-34.016-14.494c-4.508-4.36-10.04-12.37-15.97-17.267a.335.334 60.661 0 1 .165-.589c3.763-.536 8.442-1.604 11.323-1.3 13.017 1.398 18.778 9.934 26.408 19.261 4.819 5.904 9.437 9.915 15.674 13.49a.382.378 54.535 0 1-.114.704M600.23 843.89a.462.461-48.187 0 1-.05-.91c10.41-2.21 20.19-10.53 26.99-18.55q3.11-3.67 8.66-7.89c8.42-6.4 17.26-5.97 27.1-4.2q.43.07.6.39.26.47-.18.77-2.63 1.82-5.45 4.9c-9.61 10.53-15.46 17.27-26.71 21.52q-14.72 5.57-30.96 3.97M926.744 846.202q-1.679.325-3.553.211-20.92-1.33-34.884-14.725c-4.631-4.449-10.324-12.633-16.414-17.627a.343.342 60.468 0 1 .167-.604c3.852-.562 8.64-1.672 11.591-1.37 13.335 1.387 19.264 10.108 27.11 19.633 4.955 6.029 9.698 10.121 16.098 13.76a.391.388 54.341 0 1-.115.722M642.294 850.677a.401.398-55.137 0 1-.128-.738c6.515-3.825 11.323-8.092 16.322-14.349 7.914-9.885 13.874-18.918 27.536-20.531 3.024-.352 7.953.719 11.913 1.241a.352.351-61.263 0 1 .18.617c-6.177 5.211-11.902 13.69-16.591 18.321q-14.137 13.943-35.583 15.606-1.922.143-3.649-.167M892.61 850.96q-1.71.3-3.61.15-21.21-1.73-35.14-15.58c-4.62-4.6-10.25-13.01-16.34-18.19a.348.347 61.494 0 1 .18-.61c3.92-.5 8.8-1.54 11.79-1.18 13.51 1.65 19.37 10.61 27.16 20.42 4.92 6.21 9.66 10.45 16.09 14.26a.397.393 55.367 0 1-.13.73M729.97 818.66a.399.399-58.706 0 1 .17.7q-2.76 2.28-4.33 4.68c-6.27 9.63-10.73 17.07-19.51 23.76q-12.12 9.24-27.63 8.69a.4.4 29.02 0 1-.21-.73c10.14-6.96 15.03-16.24 22.27-26.36q10.51-14.69 29.24-10.74M855.98 856.49c-16.46-.4-31.24-8.9-39.79-23.19q-2.51-4.2-6.75-10.25-1.51-2.14-3.25-3.54a.422.421 62.107 0 1 .23-.75q3.33-.24 8.07-.4c13.61-.48 21.08 11.05 27.63 21.01 4.5 6.84 8.54 11.48 14.21 16.19a.527.526-24.446 0 1-.35.93M712.72 860.57q7.84-6.26 13.36-15.52c3.2-5.36 7.25-13.91 12.87-19.11 7.22-6.7 14.86-7.8 24.08-6.53a.365.361-70.659 0 1 .26.55q-4.31 6.97-8.34 13.99-4.78 8.32-12.61 15.12c-8.35 7.27-18.38 10.34-29.32 12.18a.384.384-68.844 0 1-.3-.68M822.785 860.518a.379.378 69.284 0 1-.301.668c-10.776-1.898-20.645-5.002-28.826-12.235q-7.671-6.766-12.322-15.008-3.922-6.955-8.12-13.862a.36.356 71.099 0 1 .261-.54c9.103-1.183 16.63-.04 23.7 6.623 5.504 5.171 9.433 13.634 12.549 18.945q5.374 9.175 13.059 15.409M757.849 847.234a10.61 8.99-175.1 0 1 11.339-8.051 10.61 8.99-175.1 0 1 9.803 9.863 10.61 8.99-175.1 0 1-11.339 8.051 10.61 8.99-175.1 0 1-9.803-9.863" data-source="https://football-logos.cc"></path><!-- source: https://football-logos.cc --></svg>