<svg xmlns="http://www.w3.org/2000/svg" fill-rule="evenodd" stroke-linejoin="round" stroke-miterlimit="2" clip-rule="evenodd" viewBox="0 0 200 262.3"><g fill-rule="nonzero"><path fill="#fefefe" d="M47.007.278 46.728 0c.279 0 .279 0 .279.278"/><path fill="#f1f1f1" d="M101.943 262.305h-4.172c0-.278-.278-.417-.556-.557-2.087-.278-4.173-.695-6.12-1.39a95 95 0 0 1-15.16-5.842c-6.258-3.06-12.378-6.676-18.22-10.709-4.867-3.338-9.318-7.093-13.629-11.126-2.503-2.365-4.868-4.729-7.232-7.093a150 150 0 0 1-8.762-10.014c-3.06-3.894-5.98-7.789-8.762-11.961-2.504-3.894-4.868-7.928-6.954-12.239-3.616-7.093-6.398-14.464-8.484-22.114-.974-3.616-1.67-7.093-2.225-10.848a85 85 0 0 1-1.252-11.96c0-.279 0-.696-.417-.696V0h199.718l.279.278v145.2c-.418 0-.557.278-.418.695 0 2.92-.278 5.702-.695 8.623-.417 3.755-.974 7.51-1.947 11.126-1.113 4.312-2.364 8.623-3.894 12.796-1.67 4.59-3.616 9.04-5.842 13.49-2.781 5.425-5.841 10.57-9.318 15.438a170 170 0 0 1-14.186 17.524c-2.92 2.921-5.842 5.842-8.901 8.762s-5.842 5.285-9.04 7.65c-3.756 2.92-7.789 5.563-11.961 8.066-5.285 3.2-10.849 5.842-16.551 8.206-4.311 1.808-8.901 3.199-13.49 4.034-.557 0-1.53-.418-1.809.417M99.857 5.98H7.369c-1.67 0-1.67 0-1.67 1.67v133.099c0 2.364 0 4.59.14 6.954.278 4.59.834 9.18 1.808 13.769 1.808 8.9 4.729 17.385 8.623 25.451 2.642 5.564 5.841 10.849 9.18 15.856 4.45 6.536 9.318 12.656 14.742 18.358 5.285 5.702 11.126 10.987 17.246 15.716s12.656 8.762 19.61 12.1c5.563 2.782 11.544 5.007 17.663 6.676 2.364.695 4.868.834 7.232.556 3.894-.695 7.65-1.808 11.266-3.199 5.563-2.086 10.848-4.728 15.994-7.649 2.782-1.53 5.424-3.338 8.067-5.146 5.285-3.616 10.152-7.65 14.742-11.96 3.06-2.782 5.98-5.842 8.762-8.902 2.92-3.06 5.702-6.398 8.206-9.736a140 140 0 0 0 11.265-17.106c3.755-6.815 6.815-14.047 9.04-21.558 1.113-3.894 2.087-7.788 2.782-11.683.974-4.728 1.39-9.457 1.53-14.186V7.788c0-1.669 0-1.669-1.669-1.669z"/><path fill="#fdfdfd" d="M7.647 5.98h184.698c1.67 0 1.67 0 1.67 1.67V144.92c0 4.729-.557 9.458-1.53 14.186-.696 3.895-1.67 7.789-2.782 11.683a124 124 0 0 1-9.18 21.697c-3.337 5.98-7.093 11.682-11.265 17.246-2.503 3.337-5.285 6.675-8.206 9.735-2.781 3.06-5.702 6.12-8.762 8.901-4.59 4.45-9.596 8.345-14.742 11.961-2.643 1.808-5.285 3.616-8.067 5.146-5.146 2.92-10.43 5.424-15.994 7.65-3.616 1.39-7.371 2.503-11.266 3.198-2.364.278-4.867.14-7.232-.556-6.12-1.53-11.96-3.755-17.663-6.676-6.954-3.338-13.49-7.51-19.61-12.239S45.755 226.84 40.47 221.137c-5.424-5.702-10.431-11.822-14.743-18.358-3.477-5.007-6.536-10.431-9.179-15.856a110 110 0 0 1-8.623-25.451c-.973-4.59-1.53-9.18-1.808-13.77-.139-2.364-.139-4.589-.139-6.953V7.649c0-1.669 0-1.669 1.669-1.669"/><path d="M67.173 20.723h3.894v3.06h-3.894zm5.563 0h3.895v3.06h-3.895zm-12.378 9.18 4.45-4.451h14.048c1.39 1.53 2.92 2.92 4.45 4.45v9.736l-4.45 4.45H64.809c-1.39-1.53-2.92-2.92-4.45-4.45zm4.312 1.39v6.815l2.503 2.503h9.319l2.503-2.503v-6.954l-2.503-2.504h-9.04c-1.113.835-1.809 1.67-2.782 2.643m22.67-5.98h23.922v5.424h-4.312v-1.948H94.99v4.034h10.291V36.3H94.99v4.59h3.2v3.337h-10.85V40.89h3.2V28.93h-3.2zm27.955.139h20.862l3.199 3.198v4.59c-.557.417-.974.974-1.53 1.39a8 8 0 0 0 1.53 1.53v4.73c-1.113 1.112-2.086 2.225-3.2 3.198h-20.722v-3.477h3.199V28.79h-3.199c0-1.112 0-2.225-.14-3.337m7.79 7.37h10.709c.417-.416.834-.834 1.251-1.112v-1.669c-.556-.417-.973-1.39-1.947-1.252h-10.014zm0 7.928h10.709l1.251-1.251v-2.087c-.417-.417-.834-.834-1.251-1.112h-10.57zm-92.489-9.04c1.113-.417 2.504-.278 3.477.556-.278.418-.695.696-.973 1.113-.557-.417-1.808-.695-2.087.278 0 .417.557.417.835.557.695 0 1.53.278 1.947.834.695.974.417 2.225-.556 2.92 0 0-.14 0-.14.14-1.251.556-2.92.417-4.033-.557.278-.278.696-.695 1.113-.973.695.417 1.39.556 2.225.278.417-.139.417-.973-.139-.973-.834-.14-1.808-.14-2.364-.835-.696-.974-.417-2.225.556-2.92 0-.418 0-.418.14-.418m6.397-.278h4.45v1.53h-2.92v1.112h2.781v1.391h-2.642v1.113h2.781v1.39h-4.45a51 51 0 0 1 0-6.536m7.093 0h1.669v6.537h-1.669c.139-2.226.139-4.312 0-6.537m4.311 0h4.868v1.39h-1.669v5.147h-1.669c0-1.67.14-3.477 0-5.146h-1.53zm99.443 0h1.669v6.537h-1.67zm4.45 1.808c.14-1.808 2.782-2.364 3.894-1.113.557.696.696 1.67.279 2.504-.557 1.112-1.113 2.364-1.67 3.477h-1.668l1.251-2.504c-1.112.14-2.086-.695-2.086-1.808zm1.947-.417c-.695.278-.417 1.669.418 1.39s.556-1.807-.418-1.39m6.259-1.252c1.113-.417 2.364 0 2.782 1.113 0 .139 0 .139.139.278.139 1.252.139 2.364 0 3.616-.418 1.113-1.53 1.808-2.782 1.39-.556-.138-.974-.556-1.252-1.112-.139-1.113-.278-2.225-.139-3.199-.278-.973.278-1.808 1.252-2.086m.556 1.252c-.417.278-.278.695-.278 1.112V36.3c.14.278.417.417.835.278a.3.3 0 0 0 .278-.278c.139-.974 0-1.947 0-2.92 0-.28-.278-.557-.557-.696-.139 0-.278 0-.278.139m5.007 2.503c.696-1.252 1.252-2.642 1.947-3.894h1.67c-.696 1.39-1.53 2.782-2.226 4.311h.973v-.834h1.391c0 .417-.139.974.557.974v1.39h-.557v.835h-1.53v-.835h-2.642c.139-.834.139-1.39.417-1.947M22.111 43.671c9.18 3.338 18.359 6.259 27.677 8.762 8.484 2.364 17.107 4.312 25.87 6.12 1.529.139 2.92.834 4.032 1.947.835 1.251 1.113 2.642 1.113 4.172v20.584c0 2.364 1.947 4.311 4.312 4.311.278 0 .556 0 .834-.139 2.364-.556 3.477-3.06 4.172-5.146.974-4.033 1.67-8.066 1.948-12.239-1.808 0-3.477 0-5.285.278 0-1.808.139-3.616.695-5.424.278-1.112 1.113-1.808 2.225-2.225 1.808-.417 3.755-.556 5.563-.556 0-1.947 1.391-3.477 3.338-3.755h7.232c1.809.139 3.338 1.39 3.617 3.198.834 7.094 1.53 14.187 2.642 21.28.14 2.086 1.39 3.894 3.199 4.59 2.364.556 4.729-.974 5.285-3.478 0-.278.139-.556.139-.695V66.202a8.73 8.73 0 0 1 .835-5.285c.973-1.252 2.364-1.947 3.894-2.225 10.292-2.226 20.445-4.73 30.458-7.65 7.372-2.225 14.743-4.59 21.975-7.232v27.677a583 583 0 0 1-38.247 3.755v5.702c12.795-.834 25.59-1.947 38.247-3.755v24.2a1754 1754 0 0 0-38.247-.834v5.563c12.656.139 25.452.417 38.108.834v28.79c-12.24-5.563-25.035-9.736-38.247-12.24v5.703c13.212 2.643 26.008 6.954 38.108 12.656.139 5.007 0 10.014-.557 14.882-.834 6.815-2.364 13.49-4.728 19.888-3.616-6.258-8.067-11.96-13.491-16.69-6.398-5.701-13.63-10.152-21.557-13.629-.696 1.808-1.391 3.477-2.226 5.146 8.206 3.338 15.577 8.206 21.975 14.325 5.285 5.007 9.596 10.988 12.517 17.663-6.954 15.3-17.941 28.65-30.597 39.638 7.927-15.577 5.84-34.492-5.425-47.843-3.06-3.755-6.815-6.815-10.848-9.319-1.53 1.252-3.06 2.643-4.59 3.755 7.372 4.034 13.213 10.153 16.69 17.803 8.762 19.193.417 41.724-18.776 50.486s-41.724.417-50.486-18.776c-8.484-18.359-1.112-40.055 16.69-49.513-1.67-1.112-3.199-2.503-4.729-3.755-17.385 10.431-25.312 31.432-19.054 50.765.696 2.086 1.53 4.311 2.504 6.258-12.657-10.848-23.505-24.2-30.459-39.36 3.894-8.483 9.597-15.855 16.968-21.557 5.285-4.311 11.265-7.788 17.524-10.43-.835-1.67-1.669-3.339-2.364-5.147-8.762 3.755-16.69 8.901-23.505 15.438-4.45 4.311-8.345 9.318-11.544 14.742-1.947-5.563-3.477-11.265-4.311-17.106s-1.113-11.822-.974-17.664c12.1-5.702 25.035-10.013 38.108-12.656v-5.841c-13.212 2.503-26.008 6.676-38.247 12.239v-28.79c12.657-.417 25.452-.695 38.108-.834v-5.563c-12.795.139-25.451.556-38.247.834V77.19c12.657 1.668 25.452 2.92 38.247 3.615v-5.563a593 593 0 0 1-38.247-3.755c.14-9.318.14-18.498.14-27.816m57.161 56.606v20.027c.14 3.755 0 7.51 0 11.266.14 3.337.835 6.675 2.225 9.735 1.809 4.312 4.59 8.067 8.067 11.266a29.9 29.9 0 0 0 9.18 6.258c1.251.557 2.642-.139 3.755-.695 2.92-1.67 5.702-3.755 8.205-6.12q4.8-4.59 7.51-10.848c1.391-3.199 2.087-6.537 2.226-10.014v-10.987c.139-6.676 0-13.352 0-20.028-13.63-.139-27.399-.139-41.029 0m21.836 78.998c-.417 1.252-.835 2.503-1.53 3.755-.974-1.113-1.113-2.642-1.669-3.755-3.199-1.113-6.259-2.504-9.04-4.312-4.45 1.67-8.484 4.451-11.822 7.928.974 4.033 1.252 8.206 1.113 12.378.834.556 1.808 1.252 2.503 1.947q-1.669.626-3.338.417a35.9 35.9 0 0 1-8.345 7.51c.279 5.008 1.947 10.015 4.59 14.326 3.755.278 7.371 1.113 10.987 2.225.974-.834 2.226-1.39 3.338-1.947-.139 1.252-.556 2.365-.973 3.616 2.086 2.921 3.616 6.12 4.867 9.458 4.868 1.39 9.875 1.53 14.882.556.278-.139.695 0 .835-.278 1.251-3.477 2.92-6.676 5.006-9.736-.417-1.112-.695-2.364-.973-3.477 1.252.418 2.364 1.113 3.338 1.947 4.033-1.251 8.066-2.086 12.239-2.364 2.503-4.033 4.033-8.484 4.45-13.213-3.616-2.364-6.815-5.146-9.596-8.483-1.113 0-2.225 0-3.338-.279.695-.834 1.53-1.669 2.503-2.225-.139-4.59.279-9.04 1.252-13.49-3.199-3.2-7.093-5.564-11.404-7.094-3.06 1.947-6.398 3.477-9.875 4.59m-2.92 11.822a9.5 9.5 0 0 1 1.668-3.616c.556 1.112 1.113 2.364 1.39 3.616 3.617 1.947 7.094 4.311 10.015 7.232 1.251-.14 2.364.139 3.616.417-.835.835-1.808 1.67-2.92 2.225-.418 1.808-.835 3.616-1.392 5.285-.695 2.226-1.669 4.312-2.503 6.398.139 1.113.695 2.086.695 3.199-1.112-.417-2.225-.974-3.199-1.808H93.877c-.974.834-2.087 1.39-3.2 1.808.14-1.113.418-2.225.696-3.199-1.112-2.503-2.086-5.007-2.781-7.51-.418-1.391-.557-2.782-.974-4.173-.974-.695-1.947-1.39-2.782-2.225.14-.278.557-.278.835-.278.834-.14 1.808-.14 2.642-.14 3.06-2.92 6.398-5.284 10.014-7.231"/><path fill="#fe0101" d="M79.273 100.277c13.63-.14 27.399-.14 41.029 0v20.027a224.6 224.6 0 0 0-41.029 0q.21-10.014 0-20.027m2.225 40.61a96.6 96.6 0 0 1 36.857 0c0 .14-.14.418-.14.557-1.807 4.034-4.31 7.789-7.51 10.848a36 36 0 0 1-8.205 6.12c-1.113.556-2.504 1.252-3.756.695-3.338-1.53-6.536-3.616-9.179-6.258-3.477-3.199-6.12-6.954-8.067-11.266.14-.278 0-.556 0-.695"/></g></svg>