<svg xmlns="http://www.w3.org/2000/svg" id="LOGO" viewBox="0 0 159.4 310.23"><defs><style>.cls-1{fill:#b59c56}.cls-6{fill:#1d1d1b}</style></defs><path d="M77.5 0v6.07h-6.07v4.39h6.07v6.08h4.39v-6.08h6.08V6.07h-6.08V0zM52.42 54.72h54.56v4.39H52.42zm0-8.82h54.56v4.39H52.42zM77.5 20.92h4.39v20.57H77.5zM54.8 40c-1.65-3.08-3.35-6.27-3.35-8.73a6.34 6.34 0 0 1 8.21-5.62 14.9 14.9 0 0 1 2.1-3.9 10.68 10.68 0 0 0-14.69 9.52c0 3.37 1.76 6.85 3.55 10.23h5zm15.71 1.49c-.14-.36-.29-.72-.45-1.09-1.19-2.9-2.67-6.5-2.67-8.94 0-3.65 2-5.5 3.77-6a3.5 3.5 0 0 1 2 0V21a8 8 0 0 0-3.11.23c-4.25 1.17-7 5.18-7 10.21 0 3.13 1.42 6.76 2.77 10ZM102.17 21a10.6 10.6 0 0 0-4.53.77 15 15 0 0 1 2.11 3.9 6.33 6.33 0 0 1 8.2 5.62c0 2.46-1.7 5.65-3.34 8.73-.27.5-.53 1-.79 1.5h5c1.8-3.38 3.56-6.86 3.56-10.23A10.48 10.48 0 0 0 102.17 21m-15.88 0v4.5a3.5 3.5 0 0 1 1.95 0C90 26 92 27.81 92 31.46c0 2.44-1.48 6-2.67 8.94l-.45 1.09h4.75c1.34-3.27 2.76-6.9 2.76-10 0-5-2.75-9-7-10.21a8 8 0 0 0-3.1-.28m58.82 259.86c-7.28 0-14.29 5.3-14.29 5.3h28.58s-7-5.3-14.29-5.3m-16.3 8.45c-7.29 0-14.29 5.3-14.29 5.3h28.58s-7-5.3-14.29-5.3m-10.81 9.8c-6.52-3.25-15.15-1.63-15.15-1.63l25.58 12.75s-3.9-7.87-10.43-11.12m-21.14 0c-6.52-3.25-15.16-1.63-15.16-1.63l25.58 12.75s-3.9-7.87-10.42-11.12m54.21-28.77c4.64-5.62 5-14.4 5-14.4L137.89 278s8.55-2 13.18-7.66M133.51 278c4-6.08 3.47-14.84 3.47-14.84L121.21 287s8.28-2.91 12.3-9m-24.79 15.18c6.52-3.25 10.42-11.12 10.42-11.12l-25.58 12.76s8.64 1.62 15.16-1.64m-94.43-12.32c7.29 0 14.29 5.3 14.29 5.3H0s7-5.3 14.29-5.3m16.3 8.45c7.29 0 14.29 5.3 14.29 5.3H16.3s7-5.3 14.29-5.3m10.77 9.8c6.52-3.25 15.16-1.63 15.16-1.63l-25.58 12.75s3.9-7.87 10.42-11.12m21.19 0c6.52-3.25 15.15-1.63 15.15-1.63l-25.58 12.75s3.91-7.87 10.43-11.12M8.33 270.34c-4.64-5.62-5-14.4-5-14.4L21.51 278s-8.51-2-13.18-7.66M25.89 278c-4-6.08-3.47-14.84-3.47-14.84L38.2 287s-8.29-2.91-12.31-9m24.8 15.19c-6.53-3.26-10.43-11.13-10.43-11.13l25.58 12.76s-8.63 1.62-15.15-1.63" class="cls-1"/><path d="M29.49 260.26a75.4 75.4 0 0 0 25.15 14.86v-205H29.58Z" style="fill:#ffd500"/><path d="M54.64 275.12c10.27 4.28 25.12 4.28 25.12 4.28L79.7 70.09H54.64Z" style="fill:#e30613"/><path d="m29.58 70.09-.09 190.17A75.38 75.38 0 0 1 4.2 203.84V70.09zm50.18 58.19a75.56 75.56 0 0 1 0 151.12Z" class="cls-6"/><path d="M2 67.9v135.94a77.76 77.76 0 1 0 155.52 0V67.9Zm75.51 209.25a73.2 73.2 0 0 1-20.67-3.63V72.29h20.67ZM31.77 72.29h20.67v199.62a73.6 73.6 0 0 1-20.67-12.64ZM6.39 203.84V72.29h21v182.85a73.12 73.12 0 0 1-21-51.3m146.73 0a73.44 73.44 0 0 1-71.22 73.31V130.53a73.43 73.43 0 0 1 71.22 73.31" class="cls-1"/><path d="M95.93 113.21h.36l1.17 4.79h-2.74Zm-5.16 10.55h2.48l.89-3.52H98l.87 3.52h2.78v-1.69l-3.22-11.49H94l-3.22 11.49Zm-8.78 0h3.07v-5.5h4.43V116h-4.43v-3.13h4.65v-2.27H82Zm60.64-17.56h2.86v-8h.34l3.79 8h3.47V93h-2.87v8h-.36l-3.76-8h-3.47ZM135 95.65h.36l1.17 4.75h-2.74Zm-5.2 10.55h2.49l.88-3.52h3.88l.87 3.52h2.79v-1.7L137.48 93H133l-3.2 11.5Zm-5 0h3.07V93h-3.07Zm-7-5.14h1.89v2a2 2 0 0 1-.69.72 2.3 2.3 0 0 1-1.29.32 2.26 2.26 0 0 1-1.3-.34 1.87 1.87 0 0 1-.7-.77V96.2a2 2 0 0 1 .69-.79 2.49 2.49 0 0 1 2.51 0 1.75 1.75 0 0 1 .68.79v1.35h3v-2.16a6 6 0 0 0-.57-.86 4.3 4.3 0 0 0-1-.86 6 6 0 0 0-1.42-.67 6.3 6.3 0 0 0-1.94-.27 6.2 6.2 0 0 0-2 .28 6 6 0 0 0-1.46.71 4.3 4.3 0 0 0-1 .93 6 6 0 0 0-.59 1v8a6 6 0 0 0 .59 1 4.3 4.3 0 0 0 1 .93 5.7 5.7 0 0 0 1.46.71 6.2 6.2 0 0 0 2 .28 6.3 6.3 0 0 0 1.94-.27 5.4 5.4 0 0 0 1.42-.68 4.6 4.6 0 0 0 1-.86 7 7 0 0 0 .57-.84v-5h-4.75ZM104 106.2h7.16v-2.28H107V93h-3Zm-10.21 0h8v-2.28h-5v-3.31h4.5v-2.28h-4.5v-3h4.84V93h-7.88Zm-8.73-2.2v-3.47H87a2.1 2.1 0 0 1 1 .24 1.5 1.5 0 0 1 .66.61v1.71a1.65 1.65 0 0 1-.61.65 2.15 2.15 0 0 1-1.13.26Zm0-5.6v-3.16h1.86a2 2 0 0 1 1 .24 1.46 1.46 0 0 1 .62.66v1.38a2 2 0 0 1-.64.62 1.7 1.7 0 0 1-.9.24ZM82 106.2h5.6a4.5 4.5 0 0 0 1.4-.2 4.3 4.3 0 0 0 1.1-.52 4 4 0 0 0 .85-.72 5 5 0 0 0 .58-.8v-3.2a3.1 3.1 0 0 0-.7-.8 6.4 6.4 0 0 0-.84-.56 4.4 4.4 0 0 0 .83-.62 4 4 0 0 0 .6-.72v-2.8a5 5 0 0 0-.57-.81 4.4 4.4 0 0 0-.82-.72 4.4 4.4 0 0 0-1.07-.52A4.1 4.1 0 0 0 87.6 93H82Zm45.79-17.56h7.15v-2.28h-4.08V75.45h-3.07Zm-7.67-10.55h.36l1.16 4.75h-2.73ZM115 88.64h2.48l.89-3.52h3.88l.87 3.52h2.78v-1.7l-3.22-11.49h-4.46L115 86.94Zm-6.58 0h3.07v-5.18l3.51-6.31v-1.7h-2.53L110.3 80h-.36l-2.1-4.52h-2.77v1.7l3.31 6ZM93.61 86a5.3 5.3 0 0 0 .6 1 4.2 4.2 0 0 0 1 .93 6 6 0 0 0 1.46.71 7 7 0 0 0 3.92 0 5.8 5.8 0 0 0 1.46-.71 4.3 4.3 0 0 0 1-.93 4.7 4.7 0 0 0 .59-1v-8a4.7 4.7 0 0 0-.59-1 4.3 4.3 0 0 0-1-.93 5.8 5.8 0 0 0-1.46-.71 7 7 0 0 0-3.92 0 6 6 0 0 0-1.46.71 4.2 4.2 0 0 0-1 .93 5.3 5.3 0 0 0-.6 1Zm3.07-7.4a2 2 0 0 1 .69-.8 2.49 2.49 0 0 1 2.51 0 1.9 1.9 0 0 1 .68.8v6.81a2 2 0 0 1-.68.78 2.49 2.49 0 0 1-2.51 0 2.1 2.1 0 0 1-.69-.78Zm-11.62 3v-3.87h1.83a2.15 2.15 0 0 1 1 .24 1.52 1.52 0 0 1 .68.67v2.12a1.5 1.5 0 0 1-.67.67 2.1 2.1 0 0 1-1 .24Zm4.2 7h2.39v-1.7l-2.28-3.48a4.2 4.2 0 0 0 1.25-.77 5 5 0 0 0 .9-1.14v-3.82A4.16 4.16 0 0 0 89.87 76a4.6 4.6 0 0 0-2.31-.59H82v13.23h3.07V83.8h1.28ZM106 118.07a1.23 1.23 0 0 0 .48.53 1.73 1.73 0 0 0 1 .26 1.67 1.67 0 0 0 1-.26 1.23 1.23 0 0 0 .48-.53v-1.43a1.35 1.35 0 0 0-.48-.53 1.75 1.75 0 0 0-1-.26 1.8 1.8 0 0 0-1 .26 1.35 1.35 0 0 0-.48.53Zm38.14 3.81a4.4 4.4 0 0 0 .52.64 4.1 4.1 0 0 0 .89.71 5.5 5.5 0 0 0 1.31.58 5.9 5.9 0 0 0 1.76.23 5.9 5.9 0 0 0 1.76-.24 6.2 6.2 0 0 0 1.32-.58 4 4 0 0 0 1.39-1.34v-4.62a3.8 3.8 0 0 0-.48-.72 3.2 3.2 0 0 0-.76-.65 4 4 0 0 0-1-.46 4.2 4.2 0 0 0-1.27-.18 4.7 4.7 0 0 0-1.47.21 3.8 3.8 0 0 0-1.09.6V113h6v-2.37h-8.76v7.49H147a1.9 1.9 0 0 1 .58-.44 2.1 2.1 0 0 1 1-.24 2.2 2.2 0 0 1 1.11.28 1.34 1.34 0 0 1 .62.63v2.58a1.33 1.33 0 0 1-.62.65 2.17 2.17 0 0 1-1.11.27 2.1 2.1 0 0 1-1.12-.28 1.54 1.54 0 0 1-.63-.64v-1h-2.73Zm-2.62-9.88a4.7 4.7 0 0 0-1-.81 6 6 0 0 0-1.38-.63 5.8 5.8 0 0 0-1.79-.26 5.7 5.7 0 0 0-1.77.25 6 6 0 0 0-1.33.59 4.2 4.2 0 0 0-.89.72 4 4 0 0 0-.49.61v4.61a2.8 2.8 0 0 0 .48.74 3.4 3.4 0 0 0 .76.64 4.5 4.5 0 0 0 1 .46 4.4 4.4 0 0 0 1.3.18 4.6 4.6 0 0 0 1.5-.22 3.9 3.9 0 0 0 1.14-.59v2.6a1.45 1.45 0 0 1-.62.64 2.4 2.4 0 0 1-2.25 0 1.45 1.45 0 0 1-.62-.64V120h-2.66v1.9a5 5 0 0 0 .51.63 4.5 4.5 0 0 0 .89.71 6.2 6.2 0 0 0 1.32.58 5.9 5.9 0 0 0 1.76.24 6.1 6.1 0 0 0 1.79-.24 5.5 5.5 0 0 0 1.38-.62 4.4 4.4 0 0 0 1-.82 4.5 4.5 0 0 0 .57-.84v-8.74a3.5 3.5 0 0 0-.6-.8m-2.4 4.48a3.8 3.8 0 0 1-.79.43 2.7 2.7 0 0 1-.91.16 2.24 2.24 0 0 1-1.16-.29 1.42 1.42 0 0 1-.63-.64v-2.67a1.45 1.45 0 0 1 .62-.64 2.33 2.33 0 0 1 2.25 0 1.45 1.45 0 0 1 .62.64Zm-8.93 1.35a4.3 4.3 0 0 0-1.14-.87 5 5 0 0 0 1-.73 6 6 0 0 0 .52-.59v-3.31a7 7 0 0 0-.47-.55 4.2 4.2 0 0 0-.86-.67 5.8 5.8 0 0 0-1.3-.57 5.6 5.6 0 0 0-1.78-.25 5.9 5.9 0 0 0-1.76.24 5.6 5.6 0 0 0-1.3.56 4.3 4.3 0 0 0-.87.68 5.5 5.5 0 0 0-.48.56v3.31a3 3 0 0 0 .52.61 4 4 0 0 0 1 .71 4.4 4.4 0 0 0-1.13.89 4.6 4.6 0 0 0-.64.88v2.79a3.5 3.5 0 0 0 .55.82 4.4 4.4 0 0 0 1 .82 6.33 6.33 0 0 0 5 .63 6 6 0 0 0 1.37-.63 4.4 4.4 0 0 0 1-.82 3.5 3.5 0 0 0 .56-.82v-2.79a4.4 4.4 0 0 0-.79-.9m-5.74-4.51a1.9 1.9 0 0 1 .6-.52 2.32 2.32 0 0 1 2.17 0 1.8 1.8 0 0 1 .6.52v1.91a1.8 1.8 0 0 1-.6.54 2.32 2.32 0 0 1-2.17 0 1.9 1.9 0 0 1-.6-.54Zm3.43 7.56a1.45 1.45 0 0 1-.62.64 2.15 2.15 0 0 1-1.13.28 2.1 2.1 0 0 1-1.11-.28 1.5 1.5 0 0 1-.63-.64v-2a1.5 1.5 0 0 1 .63-.65 2.2 2.2 0 0 1 1.11-.28 2.25 2.25 0 0 1 1.13.28 1.47 1.47 0 0 1 .62.65Zm-15.25 2.88h6.74v-1.94h-1.86v-11.24h-2.47l-2.43.82v1.77l1.96-.2v8.85h-1.94z" class="cls-6"/></svg>