<svg xmlns="http://www.w3.org/2000/svg" width="316.228" height="316.228" viewBox="0 0 305.86 305.86"><circle cx="152.93" cy="152.93" r="152.93" fill="#fff"/><path fill="#0d499c" fill-rule="evenodd" d="M152.93 300.24a147.35 147.35 0 0 0 147.31-147.31A147.31 147.31 0 0 0 152.93 5.62a147.31 147.31 0 0 0 0 294.62M37.08 152.93A115.9 115.9 0 0 1 152.93 37.08a115.91 115.91 0 0 1 115.85 115.85 115.92 115.92 0 0 1-115.85 115.85A115.91 115.91 0 0 1 37.08 152.93"/><path fill="#1c4c9d" fill-rule="evenodd" d="M300 152.93a147 147 0 1 0-147 147 147.1 147.1 0 0 0 147-147m-6.05 0a141 141 0 1 1-141-141 141 141 0 0 1 140.95 141z"/><path fill="#25509e" fill-rule="evenodd" d="M296.93 152.93a144 144 0 1 0-144 144 144 144 0 0 0 144-144m-6 0a138 138 0 1 1-138-138 138.09 138.09 0 0 1 138.07 138z"/><path fill="#2f53a0" fill-rule="evenodd" d="M293.9 152.93a141 141 0 1 0-141 141 141 141 0 0 0 141-141m-6 0a135 135 0 1 1-135-135 135 135 0 0 1 135.03 135z"/><path fill="#3756a0" fill-rule="evenodd" d="M291 152.93a138 138 0 1 0-138 138 138.09 138.09 0 0 0 138-138m-6.05 0a132 132 0 1 1-132-132 132 132 0 0 1 131.95 132z"/><path fill="#3f5ba2" fill-rule="evenodd" d="M287.93 152.93a135 135 0 1 0-135 135 135 135 0 0 0 135-135m-6 0a129 129 0 1 1-129-129 129.08 129.08 0 0 1 129.07 129z"/><path fill="#455da2" fill-rule="evenodd" d="M284.9 152.93a132 132 0 1 0-132 132 132 132 0 0 0 132-132m-6 0a126 126 0 1 1-126-126 126 126 0 0 1 126.03 126z"/><path fill="#4c61a4" fill-rule="evenodd" d="M282 152.93a129 129 0 1 0-129 129 129.09 129.09 0 0 0 129-129m-6.05 0a123 123 0 1 1-123-123 123 123 0 0 1 122.95 123z"/><path fill="#5164a5" fill-rule="evenodd" d="M278.93 152.93a126 126 0 1 0-126 126 126 126 0 0 0 126-126m-6 0a120 120 0 1 1-120-120 120.08 120.08 0 0 1 120.07 120z"/><path fill="#5868a6" fill-rule="evenodd" d="M275.9 152.93a123 123 0 1 0-123 123 123 123 0 0 0 123-123m-6 0a117 117 0 1 1-117-117 117 117 0 0 1 117.03 117z"/><path fill="#5d6ca7" fill-rule="evenodd" d="M273 152.93a120 120 0 1 0-120 120 120.09 120.09 0 0 0 120-120m-235.87 0a115.9 115.9 0 0 1 115.8-115.85 115.91 115.91 0 0 1 115.85 115.85 115.92 115.92 0 0 1-115.85 115.85A115.91 115.91 0 0 1 37.08 152.93z"/><path fill="#6370a9" fill-rule="evenodd" d="M269.93 152.93a117 117 0 1 0-117 117 117 117 0 0 0 117-117m-232.85 0A115.9 115.9 0 0 1 152.93 37.08a115.91 115.91 0 0 1 115.85 115.85 115.92 115.92 0 0 1-115.85 115.85A115.91 115.91 0 0 1 37.08 152.93"/><path fill="#bcbec0" fill-rule="evenodd" d="M152.93 5.69a147.24 147.24 0 0 1 0 294.48v5.69a152.93 152.93 0 0 0 0-305.86zm0 0V0a152.93 152.93 0 0 0 0 305.86v-5.69a147.24 147.24 0 0 1 0-294.48"/><path fill="#ffd520" fill-rule="evenodd" d="M152.93 80.78a8.5 8.5 0 0 0 4-.93A221 221 0 0 1 185 70.56c1.08-.22 2.09-.14 1.8-2.52 0 0-3.82-12.17-8.93-18.36-7.42-4.1-16-5.18-24.91-5.4-8.93.22-17.5 1.3-25 5.4-5 6.19-8.85 18.36-8.85 18.36-.29 2.38.72 2.3 1.8 2.52A222 222 0 0 1 149 79.85a8.5 8.5 0 0 0 3.93.93M84.24 130.68a8.4 8.4 0 0 0 .36-4.1A214 214 0 0 1 84.46 97c.14-1 .5-1.94-1.8-2.44 0 0-12.82-.08-20.24 2.8-6.26 5.76-9.93 13.61-12.88 22.11-2.52 8.57-4.18 17.06-2.6 25.41 4.4 6.7 14.76 14 14.76 14 2.16 1 2.38 0 3-.93a218 218 0 0 1 17.49-23.76 8.56 8.56 0 0 0 2.05-3.51M110.52 211.39a8.5 8.5 0 0 0-3.82-1.58 214 214 0 0 1-28.15-9.07c-1-.36-1.73-1.08-3 1 0 0-4 12.17-3.6 20.16 3.6 7.71 9.94 13.61 17.06 19 7.35 5.11 14.91 9.29 23.4 10.3 7.71-2 18-9.58 18-9.58 1.59-1.8.72-2.3 0-3.09a212 212 0 0 1-17.28-24 9 9 0 0 0-2.61-3.14M195.34 211.39a8.4 8.4 0 0 0-2.67 3.1 210 210 0 0 1-17.28 24c-.72.79-1.58 1.29 0 3.09 0 0 10.3 7.56 18 9.58 8.5-1 16.06-5.19 23.4-10.3 7.13-5.4 13.47-11.3 17.07-19 .43-8-3.6-20.16-3.6-20.16-1.23-2.08-1.95-1.36-3-1a214 214 0 0 1-28.15 9.07 8.5 8.5 0 0 0-3.77 1.62M221.62 130.68a8.45 8.45 0 0 0 2.08 3.53A216.6 216.6 0 0 1 241.2 158c.58.93.79 1.94 3 .93 0 0 10.37-7.34 14.76-14 1.59-8.35 0-16.84-2.59-25.41-2.95-8.5-6.62-16.35-12.89-22.11-7.41-2.88-20.23-2.8-20.23-2.8-2.3.5-1.94 1.44-1.8 2.44a215.5 215.5 0 0 1-.14 29.6 8.3 8.3 0 0 0 .31 4.03"/><path fill="#ffd520" d="M186.77 68s-3.77-12.13-8.93-18.32c-7.42-4.1-16-5.18-24.91-5.4-8.93.22-17.5 1.3-25 5.4-5 6.19-8.85 18.36-8.85 18.36-.29 2.38.72 2.3 1.73 2.52A220 220 0 0 1 149 79.85a8.9 8.9 0 0 0 7.92 0A221 221 0 0 1 185 70.56c1.05-.22 2.06-.14 1.77-2.56"/><path fill="#ffd949" fill-rule="evenodd" d="M127.94 49.68c-.43.58-.93 1.22-1.36 1.87a54.17 54.17 0 0 1 52.7 0c-.5-.65-.94-1.29-1.44-1.87-7.42-4.1-16-5.18-24.91-5.4-8.93.22-17.5 1.3-25 5.4z"/><path fill="#ffd94f" fill-rule="evenodd" d="M127.94 49.68c-.93 1.22-1.87 2.66-2.8 4.18a53 53 0 0 1 55.51 0 30 30 0 0 0-2.81-4.18c-7.42-4.1-16-5.18-24.91-5.4-8.93.22-17.5 1.3-25 5.4z"/><path fill="#ffdb55" fill-rule="evenodd" d="M179.28 51.55a54.17 54.17 0 0 0-52.7 0 47 47 0 0 0-2.67 4.61 51.6 51.6 0 0 1 58 0c-.83-1.58-1.69-3.16-2.63-4.61"/><path fill="#ffdc5d" fill-rule="evenodd" d="M180.65 53.86a53 53 0 0 0-55.51 0c-.87 1.51-1.66 3.09-2.38 4.68a50.35 50.35 0 0 1 60.26 0c-.72-1.54-1.51-3.17-2.37-4.68"/><path fill="#ffde62" fill-rule="evenodd" d="M181.94 56.16a51.6 51.6 0 0 0-58 0c-.79 1.66-1.58 3.31-2.23 4.82a49.22 49.22 0 0 1 62.42 0c-.67-1.51-1.39-3.16-2.19-4.82"/><path fill="#ffde67" fill-rule="evenodd" d="M183 58.54a50.35 50.35 0 0 0-60.26 0c-.79 1.8-1.51 3.52-2.09 5a47.78 47.78 0 0 1 64.51 0c-.55-1.48-1.27-3.2-2.16-5"/><path fill="#ffde6e" fill-rule="evenodd" d="M184.1 61a49.22 49.22 0 0 0-62.42 0c-.86 2.09-1.58 4-2 5.33a46.59 46.59 0 0 1 66.53 0C185.76 65 185 63.07 184.1 61"/><path fill="#ffe073" fill-rule="evenodd" d="M185.18 63.58a47.78 47.78 0 0 0-64.51 0c-1 2.59-1.58 4.46-1.58 4.46a3.3 3.3 0 0 0-.07.79 45.31 45.31 0 0 1 67.82 0 3.3 3.3 0 0 0-.07-.79s-.58-1.87-1.59-4.46"/><path fill="#ffe077" fill-rule="evenodd" d="M186.19 66.31a46.59 46.59 0 0 0-66.53 0 12 12 0 0 0-.57 1.73c-.15 1.22.07 1.8.43 2.09a44.18 44.18 0 0 1 66.82 0c.36-.29.57-.87.43-2.09z"/><path fill="#ffe37e" fill-rule="evenodd" d="M186.84 68.83a45.31 45.31 0 0 0-67.82 0c0 1.59.93 1.51 1.8 1.73a42.86 42.86 0 0 1 64.22 0c.86-.22 1.73-.14 1.8-1.73"/><path fill="#ffe382" fill-rule="evenodd" d="M186.34 70.13a44.18 44.18 0 0 0-66.82 0 2.7 2.7 0 0 0 1.3.43c.5.14.93.22 1.36.36a41.6 41.6 0 0 1 61.42 0c.5-.14.94-.22 1.37-.36a2.77 2.77 0 0 0 1.37-.43"/><path fill="#ffe388" fill-rule="evenodd" d="M185 70.56a42.86 42.86 0 0 0-64.22 0c.93.22 1.87.43 2.8.72a40.23 40.23 0 0 1 58.61 0c.94-.29 1.87-.5 2.74-.72z"/><path fill="#ffe58c" fill-rule="evenodd" d="M183.6 70.92a41.6 41.6 0 0 0-61.42 0c.94.22 1.88.43 2.81.72a39.11 39.11 0 0 1 55.87 0c.94-.29 1.88-.5 2.74-.72"/><path fill="#ffe690" fill-rule="evenodd" d="M182.23 71.28a40.23 40.23 0 0 0-58.61 0c.87.22 1.8.5 2.74.72a37.81 37.81 0 0 1 53.06 0c.94-.22 1.88-.5 2.81-.72"/><path fill="#ffe896" fill-rule="evenodd" d="M180.86 71.64a39.11 39.11 0 0 0-55.87 0c.94.29 1.87.5 2.81.79a36.55 36.55 0 0 1 50.26 0c.94-.29 1.87-.5 2.8-.79"/><path fill="#ffe89a" fill-rule="evenodd" d="M179.42 72a37.81 37.81 0 0 0-53.06 0l2.81.86a35.16 35.16 0 0 1 47.45 0z"/><path fill="#ffe89e" fill-rule="evenodd" d="M178.06 72.43a36.55 36.55 0 0 0-50.26 0l2.81.87a34 34 0 0 1 44.64 0z"/><path fill="#ffe8a0" fill-rule="evenodd" d="M176.62 72.86a35.16 35.16 0 0 0-47.45 0c1 .29 1.94.58 2.88.87a32.61 32.61 0 0 1 41.76 0z"/><path fill="#ffe9a4" fill-rule="evenodd" d="M175.25 73.3a34 34 0 0 0-44.64 0l2.88.86a31.55 31.55 0 0 1 38.88 0c.93-.29 1.87-.58 2.88-.86"/><path fill="#ffeba6" fill-rule="evenodd" d="M173.81 73.73a32.61 32.61 0 0 0-41.76 0c.93.29 1.94.65 2.88.93a30.41 30.41 0 0 1 36 0c.93-.28 1.87-.66 2.88-.93"/><path fill="#ffebaa" fill-rule="evenodd" d="M172.37 74.16a31.55 31.55 0 0 0-38.88 0c1 .36 1.94.65 2.95 1a28.79 28.79 0 0 1 33 0c.98-.35 1.92-.64 2.93-1"/><path fill="#ffebac" fill-rule="evenodd" d="M170.93 74.66a30.41 30.41 0 0 0-36 0c1 .36 2 .65 2.95 1a27.86 27.86 0 0 1 30 0c1.03-.35 2.04-.66 3.05-1"/><path fill="#ffedb1" fill-rule="evenodd" d="M169.42 75.17a28.79 28.79 0 0 0-33 0l3 1.08a26.1 26.1 0 0 1 13.47-3.75 26.7 26.7 0 0 1 13.46 3.68c1.05-.29 2.06-.65 3.07-1.01"/><path fill="#ffedb3" fill-rule="evenodd" d="M167.9 75.67a27.86 27.86 0 0 0-30 0c1.08.36 2.16.72 3.17 1.08a25.4 25.4 0 0 1 23.76 0c.99-.36 1.99-.75 3.07-1.08"/><path fill="#ffeeb7" fill-rule="evenodd" d="M166.39 76.18a26.7 26.7 0 0 0-13.46-3.68 26.1 26.1 0 0 0-13.47 3.75c1.08.36 2.16.72 3.17 1.08a24.1 24.1 0 0 1 20.59 0c.94-.33 2.02-.72 3.17-1.15"/><path fill="#feb" fill-rule="evenodd" d="M164.81 76.75a25.4 25.4 0 0 0-23.76 0c1.15.43 2.3.87 3.31 1.23a23 23 0 0 1 17.14 0c1-.36 2.16-.8 3.31-1.23"/><path fill="#ffeebd" fill-rule="evenodd" d="M163.22 77.33a24.1 24.1 0 0 0-20.59 0c1.3.5 2.45.93 3.46 1.37a21.6 21.6 0 0 1 6.84-1.16 20.9 20.9 0 0 1 6.77 1.16c1-.44 2.23-.87 3.52-1.37"/><path fill="#fff0c1" fill-rule="evenodd" d="M161.5 78a23 23 0 0 0-17.14 0l3.64 1.42a20.95 20.95 0 0 1 9.79 0z"/><path fill="#fff0c3" fill-rule="evenodd" d="M159.7 78.7a20.9 20.9 0 0 0-6.77-1.16 21.6 21.6 0 0 0-6.84 1.16c1.22.43 2.23.86 2.88 1.15l1.08.43a20 20 0 0 1 2.88-.22 21 21 0 0 1 2.88.22l1.08-.43c.65-.29 1.65-.72 2.81-1.15"/><path fill="#fff1c7" fill-rule="evenodd" d="M157.82 79.42a20.95 20.95 0 0 0-9.79 0 9 9 0 0 1 .94.43 8.5 8.5 0 0 0 4 .93 8.5 8.5 0 0 0 4-.93 9 9 0 0 1 .85-.43"/><path fill="#fff1c9" fill-rule="evenodd" d="M155.81 80.28a21 21 0 0 0-2.88-.22 20 20 0 0 0-2.88.22 7.9 7.9 0 0 0 2.88.5 8.2 8.2 0 0 0 2.88-.5"/><path fill="#ffd520" d="M84.24 130.68a8.4 8.4 0 0 0 .36-4.1A214 214 0 0 1 84.46 97c.14-1 .5-1.94-1.8-2.44 0 0-12.82-.08-20.24 2.8-6.26 5.76-9.93 13.61-12.88 22.11-2.52 8.57-4.18 17.06-2.6 25.41 4.4 6.7 14.76 14 14.76 14 2.16 1 2.38 0 3-.93a218 218 0 0 1 17.49-23.76 8.56 8.56 0 0 0 2.05-3.51"/><path fill="#ffd520" fill-rule="evenodd" d="M62.42 97.34c-6.26 5.76-9.93 13.61-12.88 22.11-.44 1.44-.87 3-1.23 4.39a63.5 63.5 0 0 1 33.55-29.3c-2.88 0-13.1.36-19.44 2.8"/><path fill="#ffd529" fill-rule="evenodd" d="M62.42 97.34a10 10 0 0 0-.79.72 13 13 0 0 1 1.23-.93z"/><path fill="#ffd733" fill-rule="evenodd" d="M62.42 97.34a39 39 0 0 0-5.83 7A70 70 0 0 1 67.25 96a30 30 0 0 0-4.83 1.36z"/><path fill="#ffd73a" fill-rule="evenodd" d="M62.86 97.13a13 13 0 0 0-1.23.93 45.1 45.1 0 0 0-8.06 11.52 68.2 68.2 0 0 1 17.71-14.32 46 46 0 0 0-8.42 1.87"/><path fill="#ffd940" fill-rule="evenodd" d="M67.25 96a70 70 0 0 0-10.66 8.35 59 59 0 0 0-5.33 10.58 65.7 65.7 0 0 1 24-20.09A67 67 0 0 0 67.25 96"/><path fill="#ffd949" fill-rule="evenodd" d="M71.28 95.26a68.2 68.2 0 0 0-17.71 14.32 100 100 0 0 0-4 9.87c-.08.36-.22.79-.36 1.22a64.24 64.24 0 0 1 30.21-26.06c-2.09.07-5.12.29-8.14.65"/><path fill="#ffd94f" fill-rule="evenodd" d="M75.24 94.82a65.7 65.7 0 0 0-24 20.09c-.64 1.51-1.15 3-1.72 4.54-.72 2.37-1.37 4.75-1.88 7.13a62.47 62.47 0 0 1 35.66-31.9c-.21-.07-.43-.07-.64-.14h-.15c-.51 0-3.51 0-7.27.28"/><path fill="#ffdb55" fill-rule="evenodd" d="M79.42 94.61a64.24 64.24 0 0 0-30.24 26.06 75 75 0 0 0-2.6 12.33 61.14 61.14 0 0 1 38-37.15c-.07-.57-.43-1-1.87-1.29h-.15c-.34-.02-1.49-.02-3.14.05"/><path fill="#ffdc5d" fill-rule="evenodd" d="M83.3 94.68a62.47 62.47 0 0 0-35.64 31.9A52 52 0 0 0 46.3 139a59.79 59.79 0 0 1 38.16-41.58V97c.07-.95.43-1.82-1.16-2.32"/><path fill="#ffde62" fill-rule="evenodd" d="M84.53 95.83A61.14 61.14 0 0 0 46.58 133a42.7 42.7 0 0 0 .22 11 57.92 57.92 0 0 1 37.51-44.93c.07-.72.15-1.37.15-2.09a3.2 3.2 0 0 0 .07-1.15"/><path fill="#ffde67" fill-rule="evenodd" d="M84.46 97.42A59.79 59.79 0 0 0 46.3 139a41 41 0 0 0 .64 5.9 16 16 0 0 0 1 1.37 56.5 56.5 0 0 1 36.29-45.57z"/><path fill="#ffde6e" fill-rule="evenodd" d="M84.31 99.07a57.92 57.92 0 0 0-37.51 44.86c.07.29.07.65.14.93a28 28 0 0 0 2.31 3 55.05 55.05 0 0 1 34.92-45.58c.07-1.12.07-2.2.14-3.21"/><path fill="#ffe073" fill-rule="evenodd" d="M84.24 100.66A56.5 56.5 0 0 0 48 146.23a36 36 0 0 0 2.67 3.17 53.43 53.43 0 0 1 33.43-45.5c.07-1.08.07-2.16.14-3.24"/><path fill="#ffe077" fill-rule="evenodd" d="M84.17 102.31a55.05 55.05 0 0 0-34.92 45.58c.86 1 1.8 1.94 2.73 3a51.93 51.93 0 0 1 32.12-45.34c0-1.08 0-2.16.07-3.24"/><path fill="#ffe37e" fill-rule="evenodd" d="M84.1 103.9a53.43 53.43 0 0 0-33.48 45.5l2.8 2.81A50.7 50.7 0 0 1 84 107.14c0-1.08.1-2.14.1-3.24"/><path fill="#ffe382" fill-rule="evenodd" d="M84.1 105.55A51.93 51.93 0 0 0 52 150.84c1 .94 2 1.8 3 2.59a48.92 48.92 0 0 1 29-44.64c0-1.08 0-2.16.1-3.24"/><path fill="#ffe388" fill-rule="evenodd" d="M84 107.14a50.7 50.7 0 0 0-30.6 45.07c1 .86 2 1.73 3 2.52v-1.23a47.34 47.34 0 0 1 27.64-43z"/><path fill="#ffe58c" fill-rule="evenodd" d="M84 108.79a48.92 48.92 0 0 0-29.08 44.64c1.08 1 2.08 1.87 3 2.59-.07-.79-.07-1.65-.07-2.52A46 46 0 0 1 84 112z"/><path fill="#ffe690" fill-rule="evenodd" d="M84 110.45a47.34 47.34 0 0 0-27.62 43.05v1.23c1.22 1 2.3 1.87 3.16 2.59a35 35 0 0 1-.21-3.82A44.58 44.58 0 0 1 84 113.69z"/><path fill="#ffe896" fill-rule="evenodd" d="M84 112a46 46 0 0 0-26.11 41.5c0 .87 0 1.73.07 2.52 1.37 1.16 2.52 2 3.17 2.52a38 38 0 0 1-.29-5 43 43 0 0 1 23.26-38.2c-.1-1.08-.1-2.16-.1-3.34"/><path fill="#ffe89a" fill-rule="evenodd" d="M84 113.69a44.58 44.58 0 0 0-24.67 39.81 35 35 0 0 0 .21 3.82c1.3 1 2.16 1.58 2.16 1.58a2.1 2.1 0 0 0 1 .36 52 52 0 0 1-.36-5.76A41.61 41.61 0 0 1 84.1 117c0-1.08-.1-2.16-.1-3.31"/><path fill="#ffe89e" fill-rule="evenodd" d="M84.1 115.34a43 43 0 0 0-23.26 38.16 38 38 0 0 0 .29 5l.57.36c1.52.72 2.09.44 2.45-.07a45 45 0 0 1-.36-5.33 40.07 40.07 0 0 1 20.38-34.84c-.07-.97-.07-2.12-.07-3.28"/><path fill="#ffe8a0" fill-rule="evenodd" d="M84.1 117a41.61 41.61 0 0 0-21.75 36.5 52 52 0 0 0 .36 5.76c1.23.29 1.51-.5 1.95-1.29.21-.36.5-.79.79-1.23-.07-1.08-.15-2.16-.15-3.24a38.41 38.41 0 0 1 18.94-33.12c-.07-1.08-.07-2.16-.14-3.38"/><path fill="#ffe9a4" fill-rule="evenodd" d="M84.17 118.66a40.07 40.07 0 0 0-20.38 34.84 45 45 0 0 0 .36 5.33c.22-.29.29-.57.51-.86.64-1.08 1.36-2.23 2.16-3.39v-1.08A37.05 37.05 0 0 1 84.31 122c-.07-1-.14-2.12-.14-3.34"/><path fill="#ffeba6" fill-rule="evenodd" d="M84.24 120.38A38.41 38.41 0 0 0 65.3 153.5c0 1.08.08 2.16.15 3.24.86-1.44 1.87-2.88 2.81-4.32a35.66 35.66 0 0 1 16.12-28.65c-.07-1.01-.14-2.16-.14-3.39"/><path fill="#ffebaa" fill-rule="evenodd" d="M84.31 122a37.05 37.05 0 0 0-17.49 31.5v1.08c1-1.51 2-3 3.09-4.53a34.22 34.22 0 0 1 14.62-24.55c-.07-.94-.15-2.09-.22-3.5"/><path fill="#ffebac" fill-rule="evenodd" d="M84.38 123.77a35.66 35.66 0 0 0-16.12 28.65c1.15-1.65 2.37-3.38 3.6-5a32.45 32.45 0 0 1 12.81-20.23c0-.14-.07-.36-.07-.57-.07-.69-.14-1.7-.22-2.85"/><path fill="#ffedb1" fill-rule="evenodd" d="M84.53 125.5a34.22 34.22 0 0 0-14.62 24.55c1.44-2 2.88-4 4.25-5.76A31.23 31.23 0 0 1 84.67 129a14 14 0 0 0-.07-2.44c0-.27-.07-.63-.07-1.06"/><path fill="#ffedb3" fill-rule="evenodd" d="M84.67 127.15a32.75 32.75 0 0 0-12.81 20.23c2-2.8 4-5.47 5.83-7.77a30.2 30.2 0 0 1 6.19-8 3.8 3.8 0 0 0 .36-.94 8.2 8.2 0 0 0 .43-3.52"/><path fill="#ffeeb7" fill-rule="evenodd" d="M84.67 129a31.23 31.23 0 0 0-10.51 15.27c3.46-4.68 6.55-8.5 8-10.08a8.56 8.56 0 0 0 2.09-3.53 7.7 7.7 0 0 0 .42-1.66"/><path fill="#feb" fill-rule="evenodd" d="M83.88 131.62a30.2 30.2 0 0 0-6.19 8c1.94-2.45 3.53-4.39 4.46-5.4a8.9 8.9 0 0 0 1.73-2.6"/><path fill="#ffd520" d="M113.18 214.49a9 9 0 0 0-2.66-3.1 8.5 8.5 0 0 0-3.82-1.58 214 214 0 0 1-28.15-9.07c-1-.36-1.8-1.08-3 1 0 0-4 12.17-3.6 20.16 3.6 7.71 9.94 13.61 17.06 19 7.35 5.11 14.91 9.29 23.33 10.3 7.78-2 18.07-9.58 18.07-9.58 1.59-1.8.72-2.3 0-3.09a212 212 0 0 1-17.23-24.04"/><path fill="#ffd520" fill-rule="evenodd" d="M112.39 251.21a45.6 45.6 0 0 0 11.45-5.21 78.2 78.2 0 0 1-41-43.49c-1.51-.57-3-1.15-4.25-1.72a5.2 5.2 0 0 0-1.29-.44c-.51 0-1 .36-1.66 1.44s-4 12.17-3.6 20.16c3.6 7.71 9.94 13.61 17.06 19 7.31 5.05 14.9 9.25 23.29 10.26"/><path fill="#ffd529" fill-rule="evenodd" d="M72 221.4a95 95 0 0 0 6.26 9.79 74 74 0 0 0 10.8 9.72 78 78 0 0 0 9.29 5.69 92.5 92.5 0 0 1-25.77-32.54 37 37 0 0 0-.58 7.34"/><path fill="#ffd733" fill-rule="evenodd" d="M72.14 217.51a95.1 95.1 0 0 0 17 23.47c5.47 3.75 11 7.06 17 8.86a90 90 0 0 1-32.91-39.17 58 58 0 0 0-1.09 6.84"/><path fill="#ffd73a" fill-rule="evenodd" d="M72.58 214.06a92.5 92.5 0 0 0 25.77 32.54 41.3 41.3 0 0 0 13.65 4.61 89 89 0 0 1-38-43.78c-.49 1.95-1.06 4.25-1.42 6.63"/><path fill="#ffd940" fill-rule="evenodd" d="M73.22 210.67a90 90 0 0 0 32.91 39.17 32.7 32.7 0 0 0 6.26 1.37 15.4 15.4 0 0 0 2.38-.72 86.25 86.25 0 0 1-39.89-46.23 65 65 0 0 0-1.66 6.41"/><path fill="#ffd949" fill-rule="evenodd" d="M73.94 207.43a89 89 0 0 0 38 43.78h.43a26 26 0 0 0 4.68-1.66 84.27 84.27 0 0 1-41.18-48.24c-.07.15-.22.29-.29.43s-.77 2.38-1.64 5.69"/><path fill="#ffd94f" fill-rule="evenodd" d="M74.88 204.26a86.25 86.25 0 0 0 39.89 46.23c1.51-.58 3-1.3 4.53-2a82.15 82.15 0 0 1-41.61-48.09c-.15 0-.29-.08-.43-.08-.51 0-1 .36-1.66 1.44s-.29.92-.72 2.5"/><path fill="#ffdb55" fill-rule="evenodd" d="M75.89 201.31a84.27 84.27 0 0 0 41.18 48.24c1.51-.72 3-1.44 4.39-2.23a80.33 80.33 0 0 1-41.4-45.94l-1.51-.64a5.2 5.2 0 0 0-1.29-.44c-.44 0-.87.29-1.37 1.01"/><path fill="#ffdc5d" fill-rule="evenodd" d="M77.69 200.38a82.15 82.15 0 0 0 41.61 48.09c1.52-.79 3-1.58 4.25-2.37a78.1 78.1 0 0 1-41-43.78 42 42 0 0 1-4-1.58 3.5 3.5 0 0 1-.86-.36"/><path fill="#ffde62" fill-rule="evenodd" d="M80.06 201.38a80.33 80.33 0 0 0 41.4 45.94c1.52-.79 2.88-1.66 4.11-2.45a76.8 76.8 0 0 1-40.68-41.61c-1.66-.65-3.31-1.26-4.83-1.88"/><path fill="#ffde67" fill-rule="evenodd" d="M82.51 202.32a78.1 78.1 0 0 0 41 43.78c1.51-.87 2.88-1.73 4-2.52a74.12 74.12 0 0 1-40.17-39.46c-1.59-.58-3.24-1.12-4.83-1.8"/><path fill="#ffde6e" fill-rule="evenodd" d="M84.89 203.26a76.8 76.8 0 0 0 40.68 41.61c1.73-1.08 3.09-2 4-2.59A72.53 72.53 0 0 1 89.93 205z"/><path fill="#ffe073" fill-rule="evenodd" d="M87.41 204.12a74.12 74.12 0 0 0 40.17 39.46c1.73-1.16 2.88-2 2.88-2a5 5 0 0 0 .65-.86 70.68 70.68 0 0 1-38.66-35c-1.66-.45-3.39-1.02-5.04-1.6"/><path fill="#ffe077" fill-rule="evenodd" d="M89.93 205a72.53 72.53 0 0 0 39.6 37.3c.57-.43.93-.65.93-.65 1.59-1.8.72-2.3 0-3.09l-.07-.08A69.22 69.22 0 0 1 95 206.57c-1.62-.51-3.34-1.01-5.07-1.57"/><path fill="#ffe37e" fill-rule="evenodd" d="M92.45 205.78a70.68 70.68 0 0 0 38.66 35c.65-1.15-.07-1.59-.65-2.23-.86-1.08-1.87-2.24-2.8-3.39a67.36 67.36 0 0 1-30-27.79c-1.61-.44-3.34-1.02-5.21-1.59"/><path fill="#ffe382" fill-rule="evenodd" d="M95 206.57a69.22 69.22 0 0 0 35.35 31.89c-1.8-2.08-3.67-4.46-5.47-6.91a64.7 64.7 0 0 1-24.48-23.4c-1.62-.43-3.4-.93-5.4-1.58"/><path fill="#ffe388" fill-rule="evenodd" d="M97.7 207.36a67.36 67.36 0 0 0 30 27.79c-2-2.45-3.89-5.11-5.76-7.63a63.5 63.5 0 0 1-18.65-18.58c-1.63-.43-3.5-.94-5.59-1.58"/><path fill="#ffe58c" fill-rule="evenodd" d="M100.44 208.15a64.7 64.7 0 0 0 24.48 23.4c-2.3-3-4.46-6.05-6.41-8.85a61.2 61.2 0 0 1-12.45-13c-1.3-.32-3.24-.83-5.62-1.55"/><path fill="#ffe690" fill-rule="evenodd" d="M103.25 208.94a63.5 63.5 0 0 0 18.65 18.58c-3.1-4.32-5.84-8.35-7.49-11a69 69 0 0 1-5.26-5.9 8.6 8.6 0 0 0-2.45-.79c-.79-.24-2.01-.53-3.45-.89"/><path fill="#ffe896" fill-rule="evenodd" d="M106.06 209.66a61.2 61.2 0 0 0 12.45 13c-2.52-3.6-4.46-6.7-5.33-8.21a9 9 0 0 0-2.66-3.1 8.5 8.5 0 0 0-3.82-1.58c-.21-.03-.43-.03-.64-.11"/><path fill="#ffe89a" fill-rule="evenodd" d="M109.15 210.6a69 69 0 0 0 5.26 5.9c-.51-.79-.94-1.51-1.23-2a9 9 0 0 0-2.66-3.1 9.6 9.6 0 0 0-1.37-.8"/><path fill="#ffd520" d="M227.3 200.74a214 214 0 0 1-28.15 9.07 8.5 8.5 0 0 0-3.81 1.58 8.4 8.4 0 0 0-2.67 3.1 210 210 0 0 1-17.28 24c-.72.79-1.58 1.29 0 3.09 0 0 10.3 7.56 18 9.58 8.5-1 16.06-5.19 23.4-10.3 7.13-5.4 13.47-11.3 17.07-19 .43-8-3.6-20.16-3.6-20.16-1.26-2.04-1.95-1.32-2.96-.96"/><path fill="#ffd520" fill-rule="evenodd" d="M193.39 251.21c8.5-1 16.06-5.19 23.4-10.3 7.13-5.4 13.47-11.3 17.07-19 .43-8-3.6-20.16-3.6-20.16-.51-.79-.87-1.22-1.23-1.36a82.08 82.08 0 0 1-42.33 48.16 31.4 31.4 0 0 0 6.69 2.66"/><path fill="#ffd529" fill-rule="evenodd" d="M218.45 239.62c6.41-5 12.09-10.66 15.41-17.72a26 26 0 0 0-.08-3.38 94.2 94.2 0 0 1-15.33 21.1"/><path fill="#ffd733" fill-rule="evenodd" d="M208.3 246.24a96 96 0 0 0 8.49-5.33c7.13-5.4 13.47-11.3 17.07-19a39.3 39.3 0 0 0-.44-7 92.4 92.4 0 0 1-25.12 31.33"/><path fill="#ffd73a" fill-rule="evenodd" d="M218.45 239.62a94.2 94.2 0 0 0 15.33-21.1 45 45 0 0 0-1-7 89.6 89.6 0 0 1-32.91 38.3c6-1.87 11.45-5.18 16.92-8.93.58-.41 1.08-.84 1.66-1.27"/><path fill="#ffd940" fill-rule="evenodd" d="M208.3 246.24a92.4 92.4 0 0 0 25.12-31.32c-.36-2.38-.86-4.68-1.36-6.7a87.6 87.6 0 0 1-38.38 43 44.5 44.5 0 0 0 14.62-4.98"/><path fill="#ffd949" fill-rule="evenodd" d="M199.87 249.84a89.6 89.6 0 0 0 32.91-38.3c-.51-2.52-1.08-4.83-1.59-6.56a85.5 85.5 0 0 1-40.25 45.44 12.6 12.6 0 0 0 2.45.79 32.6 32.6 0 0 0 6.48-1.37"/><path fill="#ffd94f" fill-rule="evenodd" d="M193.68 251.21a87.6 87.6 0 0 0 38.38-43c-.87-3.74-1.8-6.48-1.8-6.48a83.58 83.58 0 0 1-41.69 47.67 25 25 0 0 0 4.82 1.8h.29z"/><path fill="#ffdb55" fill-rule="evenodd" d="M190.94 250.42A85.5 85.5 0 0 0 231.19 205c-.5-1.94-.93-3.24-.93-3.24-.65-1.08-1.16-1.36-1.59-1.44a81.3 81.3 0 0 1-42.41 48c1.59.8 3.17 1.52 4.68 2.1"/><path fill="#ffdc5d" fill-rule="evenodd" d="M188.57 249.41a83.58 83.58 0 0 0 41.69-47.67c-.65-1.08-1.16-1.44-1.66-1.44a5.4 5.4 0 0 0-1.3.44 7.4 7.4 0 0 1-1.08.5 79.5 79.5 0 0 1-42.12 45.94c1.44.82 2.96 1.58 4.47 2.23"/><path fill="#ffde62" fill-rule="evenodd" d="M186.26 248.33a81.3 81.3 0 0 0 42.41-48h-.07a5.4 5.4 0 0 0-1.3.44c-1.08.5-2.3 1-3.52 1.44A77.62 77.62 0 0 1 181.94 246c1.37.74 2.81 1.54 4.32 2.33"/><path fill="#ffde67" fill-rule="evenodd" d="M184.1 247.18a79.5 79.5 0 0 0 42.12-45.94c-1.51.58-3.24 1.22-4.89 1.87a75.87 75.87 0 0 1-41.4 41.55c1.22.79 2.66 1.65 4.17 2.52"/><path fill="#ffde6e" fill-rule="evenodd" d="M181.94 246a77.62 77.62 0 0 0 41.84-43.77c-1.59.64-3.32 1.22-5 1.8a74 74 0 0 1-41 39.38c1.22.67 2.58 1.59 4.16 2.59"/><path fill="#ffe073" fill-rule="evenodd" d="M179.93 244.66a75.87 75.87 0 0 0 41.4-41.55l-5.11 1.73A71.74 71.74 0 0 1 175.9 242c.72.5 2.16 1.5 4.03 2.66"/><path fill="#ffe077" fill-rule="evenodd" d="M177.84 243.36a74 74 0 0 0 41-39.38c-1.73.64-3.53 1.22-5.19 1.72a69.85 69.85 0 0 1-39.09 34.64 3.6 3.6 0 0 0 .86 1.29s.91.65 2.42 1.73"/><path fill="#ffe37e" fill-rule="evenodd" d="M175.9 242a71.74 71.74 0 0 0 40.32-37.15c-1.8.65-3.6 1.15-5.26 1.73a68 68 0 0 1-34.85 31c-.29.36-.5.65-.72.94-.72.79-1.58 1.29 0 3.09a2.7 2.7 0 0 0 .51.39"/><path fill="#ffe382" fill-rule="evenodd" d="M174.53 240.34a69.85 69.85 0 0 0 39.09-34.64c-1.87.58-3.67 1.16-5.4 1.66a65.8 65.8 0 0 1-29.44 26.93c-1.16 1.51-2.31 3-3.39 4.25-.5.57-1.08.93-.86 1.8"/><path fill="#ffe388" fill-rule="evenodd" d="M176.11 237.6a68 68 0 0 0 34.85-31c-2 .57-3.89 1.15-5.54 1.58a63.47 63.47 0 0 1-23.84 22.54c-1.8 2.42-3.67 4.79-5.47 6.88"/><path fill="#ffe58c" fill-rule="evenodd" d="M178.78 234.29a65.8 65.8 0 0 0 29.44-26.93c-2.08.65-4 1.15-5.61 1.58a62.3 62.3 0 0 1-18.07 17.72c-1.8 2.52-3.75 5.18-5.76 7.63"/><path fill="#ffe690" fill-rule="evenodd" d="M181.58 230.69a63.47 63.47 0 0 0 23.84-22.54c-2.45.72-4.47 1.23-5.76 1.51a59 59 0 0 1-11.74 12.17c-1.87 2.74-4.03 5.83-6.34 8.86"/><path fill="#ffe896" fill-rule="evenodd" d="M184.54 226.66a62.3 62.3 0 0 0 18.07-17.72c-1.51.36-2.67.65-3.46.87a8.1 8.1 0 0 0-2.81.93 45.4 45.4 0 0 1-4.39 4.9c-1.44 2.36-4.17 6.55-7.41 11.02"/><path fill="#ffe89a" fill-rule="evenodd" d="M187.92 221.83a59 59 0 0 0 11.74-12.17c-.22.08-.36.08-.51.15a8.5 8.5 0 0 0-3.81 1.58 8.4 8.4 0 0 0-2.67 3.1c-.79 1.37-2.52 4.1-4.75 7.34"/><path fill="#ffe89e" fill-rule="evenodd" d="M192 215.64a45.4 45.4 0 0 0 4.39-4.9 6.4 6.4 0 0 0-1 .65 8.4 8.4 0 0 0-2.67 3.1c-.26.36-.48.72-.72 1.15"/><path fill="#ffd520" d="M256.25 119.45c-2.95-8.5-6.55-16.35-12.82-22.11-7.41-2.88-20.23-2.8-20.23-2.8-2.3.5-1.94 1.44-1.8 2.44a215.5 215.5 0 0 1-.14 29.6 8.3 8.3 0 0 0 .36 4.1 8.45 8.45 0 0 0 2.08 3.53A216.6 216.6 0 0 1 241.2 158c.58.93.79 1.94 3 .93 0 0 10.37-7.34 14.76-14 1.54-8.42-.12-16.93-2.71-25.48"/><path fill="#ffd520" fill-rule="evenodd" d="M253.15 111.53a44.1 44.1 0 0 0-9.72-14.19 41.5 41.5 0 0 0-10.29-2.23 66 66 0 0 1 20.01 16.42"/><path fill="#ffd733" fill-rule="evenodd" d="M244 97.85a3.8 3.8 0 0 0-.58-.51c-.07-.07-.21-.07-.29-.14z"/><path fill="#ffd73a" fill-rule="evenodd" d="M249.26 104.33a36.2 36.2 0 0 0-5.83-7 30 30 0 0 0-4.82-1.33 66 66 0 0 1 10.65 8.33"/><path fill="#ffd940" fill-rule="evenodd" d="m244 97.85-.87-.65a43 43 0 0 0-8.64-1.94 66.4 66.4 0 0 1 17.79 14.47A41.9 41.9 0 0 0 244 97.85"/><path fill="#ffd949" fill-rule="evenodd" d="M249.26 104.33A66 66 0 0 0 238.61 96a68 68 0 0 0-8.21-1.16 65.65 65.65 0 0 1 24.26 20.31 60 60 0 0 0-5.4-10.82"/><path fill="#ffd94f" fill-rule="evenodd" d="M252.29 109.73a66.4 66.4 0 0 0-17.79-14.47 81 81 0 0 0-8.35-.65 64 64 0 0 1 30.6 26.39 10.4 10.4 0 0 0-.5-1.58 82 82 0 0 0-3.96-9.69"/><path fill="#ffdb55" fill-rule="evenodd" d="M254.66 115.13a65.65 65.65 0 0 0-24.26-20.31c-3.53-.28-6.34-.28-7-.28h-.22a7 7 0 0 0-.86.21 62.64 62.64 0 0 1 36 32.4c-.58-2.59-1.3-5.11-2.09-7.7-.49-1.51-.99-2.88-1.57-4.32"/><path fill="#ffdc5d" fill-rule="evenodd" d="M256.75 121a64 64 0 0 0-30.6-26.42c-1.44-.07-2.37-.07-2.73-.07h-.22c-1.58.28-1.87.86-1.94 1.44a60.82 60.82 0 0 1 38.08 37.72 72.7 72.7 0 0 0-2.59-12.67"/><path fill="#ffde62" fill-rule="evenodd" d="M258.34 127.15a62.64 62.64 0 0 0-36-32.4c-1.37.58-1 1.37-.94 2.23v.65a59.33 59.33 0 0 1 38.09 42.05 50 50 0 0 0-1.15-12.53"/><path fill="#ffde67" fill-rule="evenodd" d="M259.34 133.7A60.82 60.82 0 0 0 221.26 96a5 5 0 0 0 .14 1c0 .8.07 1.52.14 2.31a57.69 57.69 0 0 1 37.37 45.36 37.2 37.2 0 0 0 .43-10.97"/><path fill="#ffde6e" fill-rule="evenodd" d="M259.49 139.68a59.33 59.33 0 0 0-38.09-42.05c.07 1.08.14 2.23.22 3.31a56.39 56.39 0 0 1 36.07 45.65c.43-.57.86-1.15 1.22-1.73a41 41 0 0 0 .58-5.18"/><path fill="#ffe073" fill-rule="evenodd" d="M258.91 144.65a57.69 57.69 0 0 0-37.37-45.36c.08 1.08.15 2.23.15 3.31a54.73 54.73 0 0 1 34.63 45.58 26 26 0 0 0 2.59-3.32z"/><path fill="#ffe077" fill-rule="evenodd" d="M257.69 146.59a56.39 56.39 0 0 0-36.07-45.65c.07 1.08.07 2.24.14 3.32A53.26 53.26 0 0 1 255 149.69c.89-1.01 1.82-2.09 2.69-3.1"/><path fill="#ffe37e" fill-rule="evenodd" d="M256.32 148.18a54.73 54.73 0 0 0-34.63-45.58c.07 1.08.07 2.23.07 3.31a51.61 51.61 0 0 1 31.75 45.22c.94-.94 1.95-1.95 2.81-2.95"/><path fill="#ffe382" fill-rule="evenodd" d="M255 149.69a53.26 53.26 0 0 0-33.19-45.43c0 1.08.07 2.23.07 3.31a50 50 0 0 1 30.17 45c.95-.94 1.95-1.87 2.95-2.88"/><path fill="#ffe388" fill-rule="evenodd" d="M253.51 151.13a51.61 51.61 0 0 0-31.75-45.22c.07 1.15.07 2.23.07 3.31a48.62 48.62 0 0 1 28.66 44.28v.36c1.01-.86 2.01-1.72 3.02-2.73"/><path fill="#ffe58c" fill-rule="evenodd" d="M252 152.57a50 50 0 0 0-30.17-45V111A47 47 0 0 1 249 153.5v1.66z"/><path fill="#ffe690" fill-rule="evenodd" d="M250.49 153.5a48.62 48.62 0 0 0-28.66-44.28v3.39a45.45 45.45 0 0 1 25.63 40.89c0 1 0 1.95-.07 3 .94-.72 2-1.66 3.1-2.6z"/><path fill="#ffe896" fill-rule="evenodd" d="M249 153.5a47 47 0 0 0-27.17-42.5v3.31A44 44 0 0 1 246 153.5c0 1.44-.07 2.81-.21 4.25.86-.65 2-1.51 3.24-2.59z"/><path fill="#ffe89a" fill-rule="evenodd" d="M247.46 153.5a45.45 45.45 0 0 0-25.63-40.89c0 1.15-.07 2.3-.07 3.38a42.46 42.46 0 0 1 22.68 37.51 45 45 0 0 1-.36 5.48l.07-.08s1.37-.93 3.24-2.44c.07-1.01.07-1.95.07-2.96"/><path fill="#ffe89e" fill-rule="evenodd" d="M246 153.5a44 44 0 0 0-24.12-39.24c-.07 1.16-.07 2.31-.07 3.39a40.82 40.82 0 0 1 20.74 41.69 2.84 2.84 0 0 0 1.65-.44s.65-.43 1.59-1.15c.09-1.44.21-2.81.21-4.25"/><path fill="#ffe8a0" fill-rule="evenodd" d="M244.44 153.5a42.46 42.46 0 0 0-22.68-37.5c0 1.15-.07 2.31-.07 3.39a39.41 39.41 0 0 1 19.73 34.12c0 1.52-.08 3-.22 4.4v.09c.58.93.79 1.94 2.88 1a45 45 0 0 0 .36-5.5"/><path fill="#ffe9a4" fill-rule="evenodd" d="M242.93 153.5a41 41 0 0 0-21.17-35.85c-.07 1.22-.14 2.37-.14 3.45a37.93 37.93 0 0 1 18.28 32.4c0 .8 0 1.52-.07 2.31.51.72.94 1.44 1.37 2.16.36.65.58 1.29 1.3 1.37a41 41 0 0 0 .43-5.84"/><path fill="#ffeba6" fill-rule="evenodd" d="M241.42 153.5a39.41 39.41 0 0 0-19.73-34.12c-.07 1.29-.15 2.44-.15 3.45a36.57 36.57 0 0 1 16.85 30.67v.08c1 1.44 2 2.95 2.81 4.32.14-1.44.22-2.9.22-4.4"/><path fill="#ffebaa" fill-rule="evenodd" d="M239.9 153.5a37.93 37.93 0 0 0-18.28-32.4c-.08 1.3-.15 2.52-.22 3.46a35.09 35.09 0 0 1 15.41 26.71c1 1.59 2.09 3 3 4.54.09-.81.09-1.51.09-2.31"/><path fill="#ffebac" fill-rule="evenodd" d="M238.39 153.5a36.57 36.57 0 0 0-16.85-30.67c-.07 1.51-.21 2.67-.28 3.53A33.42 33.42 0 0 1 235 148.75c1.15 1.59 2.3 3.24 3.38 4.83z"/><path fill="#ffedb1" fill-rule="evenodd" d="M236.81 151.27a35.09 35.09 0 0 0-15.41-26.71c-.07.86-.07 1.51-.14 2a5.5 5.5 0 0 0-.08 1.58 32 32 0 0 1 11.67 17.64c1.29 1.82 2.66 3.69 3.96 5.49"/><path fill="#ffedb3" fill-rule="evenodd" d="M235 148.75a33.42 33.42 0 0 0-13.75-22.39v.22a8.46 8.46 0 0 0 .21 3.74 30.2 30.2 0 0 1 8.54 11.74c1.62 2.01 3.35 4.32 5 6.69"/><path fill="#ffeeb7" fill-rule="evenodd" d="M232.85 145.8a32 32 0 0 0-11.67-17.64 7.1 7.1 0 0 0 .44 2.52 8.45 8.45 0 0 0 2.08 3.53c1.59 1.73 5.3 6.33 9.15 11.59"/><path fill="#feb" fill-rule="evenodd" d="M230 142.06a30.2 30.2 0 0 0-8.57-11.74c.07.14.07.22.15.36a8.45 8.45 0 0 0 2.08 3.53c1.27 1.29 3.64 4.25 6.34 7.85"/><path fill="#838dc4" fill-rule="evenodd" d="M77.54 94.75v15.12l-2.88-3.89-.57-1.22 1.22-2.23 1.3-1.15v-5.91z"/><path fill="#838dc4" fill-rule="evenodd" d="M81 88.34v32.55l-.94-.43-.57-2.16-.65-2.45v-4.03l-1.3-1.88-2.88-3.96-.57-1.22 1.22-2.23 1.3-1.15v-5.91l2.23-1.8 1.22-2.23v-1.8z"/><path fill="#818bc3" fill-rule="evenodd" d="M77.54 109.87V94.75l1.3-1.08 1.22-2.23v-1.8l1.3-1.87v-3.39l2.23-3.02h.87v39.6l-.22.07-1.58.65-1.3-.65-1.3-.57-.57-2.16-.65-2.45v-4.03l-1.3-1.88z"/><path fill="#7d88c2" fill-rule="evenodd" d="M81 120.89V88.34l.36-.57v-3.39l2.23-3.02h1.87l1.95.58.5.36v40.03l-1.8-1.3v-.57l-1.87.57-1.58.65-1.3-.65z"/><path fill="#7b87c1" fill-rule="evenodd" d="M84.46 120.96v-39.6h1l1.95.58 1.58 1.22h1.87l.51.43v41.19l-5.26-3.75v-.57z"/><path fill="#7985c0" fill-rule="evenodd" d="M87.91 122.33V82.3l1.08.86h1.87l.65.65.65 3.96.65 1.22.65 1.87h1.36v50.69l-.43-.5-.93-3.03v-2.8l-.65-1.23-1.3-2.45v-.93l.65-2.45v-2.81z"/><path fill="#7783be" fill-rule="evenodd" d="M91.37 124.78V83.59l.14.22.65 3.96.65 1.22.65 1.87h2.23l2.52.58.07.07v56.95h-.07l-1.95-2.16v-1.8l-.57-1.87-1.3-1.58-.93-3.03v-2.8l-.65-1.23-1.3-2.45v-.93l.65-2.45v-2.81z"/><path fill="#7581bd" fill-rule="evenodd" d="M94.82 141.55V90.86h.87l2.52.58 1.58 1.58 1.3 1.23h.65v55.58l-1.3-.72-2.23-.65-1.95-2.16v-1.8l-.57-1.87z"/><path fill="#737fbc" fill-rule="evenodd" d="M98.28 148.46V91.51l1.51 1.51 1.3 1.23h3.45l.65-1.15v59.04l-1.58-1.16-3.17-1.87z"/><path fill="#6f7dbb" fill-rule="evenodd" d="M101.74 149.83V94.25h2.8l.65-1.23v-.57l1.3-3.46h.65l1.51-1.65v67.82l-3.46-3.02-1.58-1.16z"/><path fill="#6d7bba" fill-rule="evenodd" d="M105.19 152.14V92.45l1.3-3.46h.65l2.52-2.73.93-.65 1.51-.94v74.52l-.86-.65-.65-2.44-1.58-.58z"/><path fill="#6c7ab9" fill-rule="evenodd" d="M108.65 155.16V87.34l1.01-1.08.93-.65 1.95-1.23h1.87l1.15.51v76.89l-4.32-3.24-.65-2.44-1.58-.58z"/><path fill="#6778b8" fill-rule="evenodd" d="M112.1 159.19V84.67l.44-.29h1.87l4.17 1.88h.44v80.85l-1.73-.5v-.65l-.65-.65v-2.73z"/><path fill="#6676b7" fill-rule="evenodd" d="M115.56 161.78V84.89l3.02 1.37h3.89v84.67l-3.31-3.75-1.87-.57v-.65l-.65-.65v-2.73z"/><path fill="#6474b6" fill-rule="evenodd" d="M119.02 167.11V86.26h3.67l1.87.93h1.3l.07-.07v87.84l-.07-.07-2.52-1.8v-1.3l-.65-.57-3.53-4.04z"/><path fill="#6273b5" fill-rule="evenodd" d="M122.47 170.93V86.26h.22l1.87.93h1.3l1.58-1.58.65-2.45 1.22-1.22h.07v95.4l-1.29-.29-2.23-2.16-2.52-1.8v-1.3l-.65-.57z"/><path fill="#6071b4" fill-rule="evenodd" d="M125.93 174.96V87.12l1.51-1.51.65-2.45 1.22-1.22h.65v.57l.65 1.3v1.22l2.23.79v91.88h-1.58l-3.17-.65z"/><path fill="#5e70b3" fill-rule="evenodd" d="M129.38 177.34v-95.4h.58v.57l.65 1.3v1.22l3.45 1.23 1.95.93.29.22v91.08l-.29-.22-1.3-1.22h-.65l-1.22.65h-1.58z"/><path fill="#5a6eb3" fill-rule="evenodd" d="M132.84 177.7V85.82l1.22.44 1.95.93.65.58 3.09.57v102.03l-.29-.36-.57-4.68v-3.03l-.65-2.16-2.23-1.87-1.3-1.22h-.65z"/><path fill="#586cb2" fill-rule="evenodd" d="M136.3 178.49V87.41l.36.36 3.45.65 2.52-.65.58.29V195.7l-.58-.44-1.22-1.29v-.87l-1.95-3.09-.57-4.68v-3.03l-.65-2.16z"/><path fill="#566bb1" fill-rule="evenodd" d="M139.75 190.37V88.34l.36.08 2.52-.65 2.23 1.22.65.65h1.15v109.15l-1.15-1.08-2.88-2.45-1.22-1.29v-.87z"/><path fill="#5469b0" fill-rule="evenodd" d="M143.21 195.7V88.06l1.65.93.65.65h1.3l1.58 1.8h1.73v110.38l-1.08-.72-3.53-3.39z"/><path fill="#5268af" fill-rule="evenodd" d="M146.66 198.79V89.64h.15l1.58 1.8h1.87l1.3-.58h.65v.58l.65 1.58h.64v111.24l-4.5-3.16-2.38-2.31zm6.84 14.62v2.81l-.64-.65-1.3-.94-1.3-.65z"/><path fill="#4d66ae" fill-rule="evenodd" d="M150.12 201.82V91.44h.14l1.3-.58h.65v.58l.65 1.58h2.73l1.37-.43V208.3l-.07-.15-1.3-1.8-1.87-1.87zm6.88 10.87v3.45h-1.37v.65l-.57.65-1-.65-1.15-1.22-1.3-.94-1.3-.65 3.46-.57H155z"/><path fill="#4b64ad" fill-rule="evenodd" d="M153.5 216.22v-2.81h1.52l3.16-1.23-1.29-4.03-1.3-1.8-1.87-1.87-.22-.22V93.02h2.09l1.95-.57h2.88V216.5l-3.53-.36h-1.3v.65l-.57.65-1.01-.65z"/><path fill="#4963ac" fill-rule="evenodd" d="M156.96 216.14v-3.45l1.22-.51-1.22-3.88V92.59l.58-.14h5.4l.64.57.29.15v123.62h-.93z"/><path fill="#4660aa" fill-rule="evenodd" d="M160.42 216.5V92.45h2.52l.64.57.94.65 2.52 1.8.29.15v122.25l-.29-.43h-1.22l-1.3-.65h-1.58z"/><path fill="#415fa9" fill-rule="evenodd" d="M163.87 216.79V93.17l.65.5 2.52 1.8 1.94.65 1.8.36v125.35l-1.8-.43-.64-1.51v-.65l-.65-.58-.65-1.22h-1.22l-1.3-.65z"/><path fill="#3f5da8" fill-rule="evenodd" d="M167.33 217.87V95.62l1.65.5 2.88.58 1.88-1.8.5-.44v131.98l-.5-.72-.65-1.8-1.23-1.87-2.88-.65-.64-1.51v-.65l-.65-.58z"/><path fill="#3d5ca7" fill-rule="evenodd" d="M170.78 221.83V96.48l1.08.22 1.88-1.8 2.88-2.45h1.08v137.16l-2.67-1.73v-.65l-.65-.57-.64-.94-.65-1.8-1.23-1.87z"/><path fill="#3b5aa6" fill-rule="evenodd" d="M174.24 226.44V94.46l2.38-2.01h1.87v1.22l.65.58h2.01v139.17l-2.01-1.22-1.3-1.22v-1.23l-2.81-1.87v-.65l-.65-.57z"/><path fill="#3959a5" fill-rule="evenodd" d="M177.7 229.61V92.45h.79v1.22l.65.58h4.75l.72-.43V236.3l-.07-.14-1.88-1.8-3.52-2.16-1.3-1.22v-1.23z"/><path fill="#3657a4" fill-rule="evenodd" d="M181.15 233.42V94.25h2.74l1.94-1.23v-.57l.94-1.59 1.29 1.08v147.68l-1.29-.65-1.59-1.51-.64-1.3-1.88-1.8z"/><path fill="#3156a4" fill-rule="evenodd" d="M184.61 236.3V93.82l1.22-.8v-.57l.94-1.59 1.87 1.59h2.88v151.34l-1.58-1.15-.65-1.22-1.23-1.8-1.29-.65-1.59-1.51z"/><path fill="#2e54a3" fill-rule="evenodd" d="M188.06 239.62V91.94l.58.51h4.75l.65 1.8h.65v1.22l.29.29v118.37l-.29.5-.65 1.51v.65l.65 1.87.29.22v2.02l-.29 1.15-.65 3.02v2.16l.65.65.29.14v8.5l-.29.29-.65 2.81-.65.57v1.87l-1.22 2.16-2.23-1.58-.65-1.22z"/><path fill="#2c53a2" fill-rule="evenodd" d="M191.52 243.79V92.45h1.87l.65 1.8h.65v1.22l.65.65 2.8.58.29-.22v114.91l-1.87.79-1.22 1.23-.65 1.22-.65 1.51v.65l.65 1.87.65.58-.65 2.81-.65 3.02v2.16l.65.65 1.29.65.58 1.22 1.01.58v2.81l-2.88 3.67-.65 2.81-.65.57v1.87l-1.22 2.16z"/><path fill="#2c53a2" fill-rule="evenodd" d="M195 236.52V228l1 .51.58 1.22 1 .58v2.81zm0-15.62v-2l.36.36zm0-6.77V95.76l.36.36 2.8.58 1.3-1.23v-.57l1.94-1.23h.51v116.71l-2.45.58-2.88 1.22-1.22 1.23z"/><path fill="#2853a2" fill-rule="evenodd" d="M198.43 211.39V96.48l1.01-1.01v-.57l1.94-1.23h1.59l.65.58.57 1.87 1.15-1.08v101.74l-1.15-.36v3.45l.65 1.23-.65 1.22-1.22 3.38v1.8l.65 2.52-4.18.94z"/><path fill="#2a51a1" fill-rule="evenodd" d="M201.89 210.38V93.67h1.08l.65.58.57 1.87 1.95-1.87.64 1.87v2.16l2.02.86v96.92l-.43.36-2.23.64-1.95-.64v3.45l.65 1.23-.65 1.22-1.22 3.38v1.8l.65 2.52z"/><path fill="#2551a1" fill-rule="evenodd" d="M205.34 196.78V95.04l.8-.79.64 1.87v2.16l2.81 1.22.65.65v1.23l-.65 1.15v1.58l1.95 2.45.72.22v85.68h-.72l-.65.64-.65.87-1.22.65v1.22l-.65.58-2.23.64z"/><path fill="#2750a0" fill-rule="evenodd" d="M208.8 196.06V99.14l.79.36.65.65v1.23l-.65 1.15v1.58l1.95 2.45 2.23.65h1.94v85.68l-1.37-.43h-2.8l-.65.64-.65.87-1.22.65v1.22z"/><path fill="#2350a0" fill-rule="evenodd" d="M212.26 192.46v-85.68l1.51.43h3.81l1.59.43v74.3l-1.59-1.22v2.16l-.64 3.1 2.23.64v11.96l-1.59-1.52-.64-1.22v-1.22l-.65-1.52-1.95-.64z"/><path fill="#204fa0" fill-rule="evenodd" d="M215.71 192.89v-85.68h1.87l2.24.57h1.22l1.58-.43v75.96l-.93.22-1.3-.65-2.81-2.16v2.16l-.64 3.1 4.1 1.22-.65 2.16v.65l1.95.65v.57h.28v4.47l-2.8 3.52-2.24-2.16-.64-1.22v-1.22l-.65-1.52z"/><path fill="#204fa0" fill-rule="evenodd" d="M219.17 198.58v-12l1.87.58-.65 2.16v.68l2 .65v.57h.61l3.1 2.45v1.08l-.29.5H223l-3.16 4-.65-.64zm0-16.64v-74.3l.65.14H221l1.94-.57.65-.65 2.16-1.22v-.58h.29v23.69l-.29.29v4l-.57 1.87.86 2.74v45.07l-1.51.43-2.88.65-1.3-.65z"/><path fill="#1a4ea0" fill-rule="evenodd" d="M222.62 195.7v-4.47h.38l3.46 2.74-.65 1.29H223l-.36.44zm0-12.39v-76l.36-.14.65-.65 2.16-1.22v-.58h2l1.8-.43v19.22l-2.45 3.39-1.3 1.8v4l-.57 1.87 1.22 4 .65.65 1.94 1.22.51.22V183l-1.8.51-1.3-1.23-1.87.58z"/><path fill="#1d4d9f" fill-rule="evenodd" d="M226.08 194.76v-1.08l.36.29zm0-12.31v-45.07l.36 1.22.65.65 1.94 1.22 1.59.58H233v15.55l-.5-.5v-.58l-1.23.58-.64.64v.58l.64 1.22-.64.65h1.22l1.15.81v18.58l-1.15.36-1.22 4.61-.65-.65-2.23.65-1.3-1.23-.36.15zm0-54v-23.69h1.66l2.88-.65 1.22.65 1.15.72v13.75l-.5.58-1.23 1.19-1.26 1.9-2.88 4z"/><path fill="#194c9e" fill-rule="evenodd" d="M229.54 183v-42.31l1.08.36h3.16l.94 1.58v3.1L236 147l.43 1.44v9.36l-1.73-.43-1.58-.58-.65-.64v-.58l-1.23.58-.64.64v.58l.64 1.22-.64.65h1.22l1.3.94 1.58 1.22 1.3 2.45v1.51l.43.87v12.74h-1.73l-.94-.65-1.94.65-1.22 4.61-.65-.65-.43.14zm0-59.47v-19.2l1.08-.22 1.22.65 1.94 1.22 1.59-.64h.63v1.87l-.65 4-.65.65.65 1.87-.65 3.38-2.23 2.74-1.21 1.15-1.26 1.9z"/><path fill="#134c9e" fill-rule="evenodd" d="M233 178.56V160l.15.15 1.58 1.22 1.3 2.45v1.51l.57 1.3 1.95 1.22.64 1.23.72 1.22v8.57l-.07.07h-5.11l-.94-.65-.79.29zm0-22v-15.51h.79l.94 1.58v3.1L236 147l.57 2.16h3.31v9.43h-.07l-2.59-.57-2.52-.65-1.58-.58-.15-.14zm0-37.37v-13.71l.79.5 1.59-.64h.62v1.87l-.65 4-.65.65.65 1.87-.65 3.38z"/><path fill="#134c9e" fill-rule="evenodd" d="M236.45 178.92v-12.74l.14.43 1.95 1.22.64 1.23 1.59 2.73v5.91l-.94 1.22zm0-21.17v-9.36l.14.72h4.18l1.29.58-.64 1.29 1.29 1.16.65.21v5.55l-.07.07-1.23.57h-2.23l-2.59-.57z"/><path fill="#104a9d" fill-rule="evenodd" d="M239.9 178.85v-8.57l.87 1.51v5.91zm0-20.31v-9.43h.87l1.29.58-.64 1.29 1.29 1.16 1.87.64h2.24l-.65 2.09-1.59 1.23-1.29 1.9-1.23.57z"/><path fill="#0d499c" fill-rule="evenodd" d="M243.36 157.9v-5.55l1.22.43h2.24l-.65 2.09-1.59 1.23z"/><g fill="#fff"><path d="M35.64 103a2 2 0 0 0 .14-1.44c-.07-.43-.43-.72-1.08-1a1.64 1.64 0 0 0-.79-.21v-2.21a2.86 2.86 0 0 1 1.87.21 6 6 0 0 1 1.16.72 2.8 2.8 0 0 1 .72 1 2.5 2.5 0 0 1 .28 1.3 5 5 0 0 1-.43 1.65l-1.58 3.67-2-.86v-2.59l1.37.57zm-1.73-2.66a1.5 1.5 0 0 0-.65.14 1.3 1.3 0 0 0-.5.36c-.14.22-.22.43-.36.65l-.36.94 1.87.79v2.59l-4.53-1.94v-2.6l1.15.51.21-.58a2.54 2.54 0 0 0 .26-1.48 1.56 1.56 0 0 0-.93-.86 3 3 0 0 0-.72-.15v-2.45a3.6 3.6 0 0 1 1.36.36 2.7 2.7 0 0 1 1.3 1 2 2 0 0 1 .36 1.59 2.15 2.15 0 0 1 1.44-1.08h.07zm-4.53-4.11v2.45a.62.62 0 0 0-.51.07 1.77 1.77 0 0 0-.86 1l-.36.79 1.73.72v2.6l-4.25-1.8 1.58-3.6a9 9 0 0 1 .65-1.23 4.2 4.2 0 0 1 .86-.72 2.2 2.2 0 0 1 1.16-.29zM37 95a7 7 0 0 0 1.29.43 1.7 1.7 0 0 0 .87-.07 1.9 1.9 0 0 0 .65-.65 1.27 1.27 0 0 0 .14-.86 2.25 2.25 0 0 0-.43-.8c-.29-.21-.65-.5-1.08-.79s-1.08-.65-1.8-1a5 5 0 0 1-.72-.36v-2.56c.57.22 1.15.51 1.8.8s1.51.86 2.16 1.29a6.5 6.5 0 0 1 1.44 1.3 3.5 3.5 0 0 1 .57 1.65 5.4 5.4 0 0 1-.57 2.09A5.5 5.5 0 0 1 40 97.13a3.4 3.4 0 0 1-1.66.5 5.3 5.3 0 0 1-1.94-.43c-.14-.07-.29-.07-.43-.14v-2.6A7.5 7.5 0 0 0 37 95m-1.08-4.11c-.43-.21-.79-.36-1.08-.5a3.5 3.5 0 0 0-1.3-.36 1.38 1.38 0 0 0-.93.07 1 1 0 0 0-.58.65 1.08 1.08 0 0 0-.14.79 1 1 0 0 0 .43.79 7.3 7.3 0 0 0 1.08.87c.5.29 1.08.57 1.8.93a2.9 2.9 0 0 0 .72.36v2.6c-.58-.29-1.15-.51-1.8-.87S32.62 95.4 32 95a5.3 5.3 0 0 1-1.44-1.37 2.72 2.72 0 0 1-.56-1.69 3.7 3.7 0 0 1 .58-2.08 3.94 3.94 0 0 1 1.32-1.66 3.1 3.1 0 0 1 1.65-.43 5.1 5.1 0 0 1 2 .36l.43.21zM41.69 87.41a3.2 3.2 0 0 0 .72.36 1.6 1.6 0 0 0 .57.07.94.94 0 0 0 .58-.22 1.9 1.9 0 0 0 .5-.57 1.57 1.57 0 0 0 .15-1c0-.36-.29-.65-.65-.94a4.5 4.5 0 0 0-.65-.28 2.1 2.1 0 0 0-.65.07 2.3 2.3 0 0 0-.64.29l-.87.64a10 10 0 0 1-1.22.87 3.5 3.5 0 0 1-1.08.43 3.2 3.2 0 0 1-1.15 0 5.5 5.5 0 0 1-1.16-.5 3.14 3.14 0 0 1-1.72-2.16 4 4 0 0 1 .64-2.74 3.3 3.3 0 0 1 .87-1.08 3.1 3.1 0 0 1 1.07-.73 3.4 3.4 0 0 1 1.22-.14 3.9 3.9 0 0 1 1.37.5l.29.22-1.15 1.87a2.54 2.54 0 0 0-1.3-.36 1 1 0 0 0-.86.57 1.15 1.15 0 0 0-.22.65.65.65 0 0 0 0 .51.73.73 0 0 0 .29.36 2.4 2.4 0 0 0 .43.36 2.1 2.1 0 0 0 .86.28 2.3 2.3 0 0 0 1.08-.5l1.59-1.15a6 6 0 0 1 1.15-.65c.29-.07.65-.14.94-.22a3.8 3.8 0 0 1 .86.15 2.2 2.2 0 0 1 .86.43 3.4 3.4 0 0 1 1.8 2.3 4.45 4.45 0 0 1-.86 3 3.8 3.8 0 0 1-2.16 2 3.28 3.28 0 0 1-2.59-.57l-.43-.22 1.22-2zM48.02 77.11v-.07l-6.55-4.61 1.23-1.73 9.57 6.7-1.51 2.23-8.35-2.37h-.07l6.76 4.75-1.22 1.73-9.65-6.77 1.59-2.16zM52.92 69.62l-2.45-1.22v-2.23l8 3.6-1.58 1.94-2.23-1.15-1.96 2.38 1.59 1.94-1.59 1.94-2.23-3.09V70.2l1 1.15zm-2.45-1.22-2.37-1.22 2.37 3v3.53L45.58 67l1.87-2.3 3 1.44zM53.21 58.32l1.58-1.73 8.43 8.14-1.59 1.73zM61.06 50.54l3.02 3.39 2.02-1.8-2.96-3.39 1.73-1.51 7.78 8.79-1.73 1.51-3.46-3.89-2.08 1.8 3.45 3.89-1.73 1.58-7.77-8.78zM72.94 43.42l-3.32 2.52 1.66 2.16 3.1-2.38 1.22 1.51-3.1 2.45 1.95 2.45 3.38-2.59 1.15 1.51-5.25 4.03-7.13-9.22 5.11-4.03zM78.91 43.13a2.5 2.5 0 0 0 .87-1.08 1.92 1.92 0 0 0-.44-1.37 1.41 1.41 0 0 0-1.34-.79v-2.16a3.4 3.4 0 0 1 1.22-.07 2.77 2.77 0 0 1 1.94 1.44 3.36 3.36 0 0 1 .63 1.9 2.32 2.32 0 0 1-.65 1.58v.07a2.05 2.05 0 0 1 1.37-.28 2.38 2.38 0 0 1 1.23.93 5 5 0 0 1 .43.58 4.6 4.6 0 0 1 .5.65 10.5 10.5 0 0 0 .94 1.15.75.75 0 0 0 .72.29v.14l-2.09 1.37a1.9 1.9 0 0 1-.5-.29c-.15-.22-.29-.36-.44-.58L82 44.78a2.6 2.6 0 0 0-.87-.72 1.26 1.26 0 0 0-1.08.29L79 45l2.81 4.1-1.94 1.37L78 47.74v-4.25l.07.14zM78 39.89a1.5 1.5 0 0 0-.87.36l-.93.57 1.8 2.67v4.25l-4.68-7 3.6-2.45a4 4 0 0 1 1.08-.56zM86.26 35A1.1 1.1 0 0 0 85 35a1 1 0 0 0-.5.58 2.06 2.06 0 0 0 0 .93 4.2 4.2 0 0 0 .5 1.3 19 19 0 0 0 1 1.87 15.5 15.5 0 0 0 1.15 1.8 2.9 2.9 0 0 0 .87.94 1 1 0 0 0 .72.29 2.1 2.1 0 0 0 .64-.15l.44-.43c.14-.14.14-.36.21-.58a2.9 2.9 0 0 0-.21-.93 11.4 11.4 0 0 0-.65-1.37l2-1.22c.29.57.58 1.15.8 1.65a4.3 4.3 0 0 1 .21 1.59 2.8 2.8 0 0 1-.43 1.44 4.2 4.2 0 0 1-1.44 1.22 5.7 5.7 0 0 1-2 .72 2.64 2.64 0 0 1-1.65-.5 5.1 5.1 0 0 1-1.44-1.37c-.43-.65-.87-1.3-1.37-2.09s-.79-1.51-1.08-2.16a4.3 4.3 0 0 1-.5-1.94 2.82 2.82 0 0 1 .36-1.73 4.3 4.3 0 0 1 1.58-1.44 4.8 4.8 0 0 1 1.94-.65 3 3 0 0 1 1.44.36 3.5 3.5 0 0 1 1.08 1 6.7 6.7 0 0 1 .8 1.15l-2 1.15A4.3 4.3 0 0 0 86.26 35M95.9 29.81l-3.74 1.8 1.22 2.45 3.53-1.73.87 1.73-3.53 1.8 1.44 2.8 3.81-1.94.87 1.73-5.98 2.95-5.18-10.44 5.83-2.95zM102.38 27.94a2.8 2.8 0 0 0-.43-.51 2.6 2.6 0 0 0-.57-.29 1 1 0 0 0-.65.08 1.19 1.19 0 0 0-.72 1.36 9.1 9.1 0 0 0 .86 3c.29.65.51 1.22.79 1.73a4.1 4.1 0 0 0 .8 1.22 1.8 1.8 0 0 0 .79.72 1.22 1.22 0 0 0 .86-.07.48.48 0 0 0 .36-.29.88.88 0 0 0 .36-.5 1.7 1.7 0 0 0 .07-.65 3 3 0 0 0-.14-.79l-.5-1.16-1.44.65-.65-1.65 3.53-1.44 2.44 5.83-1.65.65-.36-1h-.07a2.2 2.2 0 0 1-.58 1.29 3 3 0 0 1-1.15.87 3.4 3.4 0 0 1-1.8.29 2.7 2.7 0 0 1-1.37-.65 4.7 4.7 0 0 1-1.22-1.59 24 24 0 0 1-1.23-2.44 15.5 15.5 0 0 1-.79-2.45 4.44 4.44 0 0 1-.14-2 2.63 2.63 0 0 1 .64-1.51 5.3 5.3 0 0 1 1.58-1.01 3.63 3.63 0 0 1 2.95-.21 4.22 4.22 0 0 1 1.87 2.23l-2.09.86a1.46 1.46 0 0 0-.35-.57M111 31.82a.83.83 0 0 0 .51.36 1.16 1.16 0 0 0 .86-.07.89.89 0 0 0 .72-.5 1.6 1.6 0 0 0 .22-.87 5 5 0 0 0-.22-1.29c-.14-.58-.36-1.23-.58-1.95s-.5-1.36-.72-1.87a6.4 6.4 0 0 0-.64-1.22c-.08-.07-.08-.15-.15-.22V22c.07 0 .07 0 .15.07a2.6 2.6 0 0 1 1.51.79 4.15 4.15 0 0 1 1.15 1.66 14.3 14.3 0 0 1 .94 2.3 17 17 0 0 1 .64 2.31 6.7 6.7 0 0 1 .15 2 3.37 3.37 0 0 1-.79 1.59 4.3 4.3 0 0 1-1.8 1.08 7.8 7.8 0 0 1-2 .29zm-.86-1.44a4.4 4.4 0 0 0 .65 1.23l.21.21v2.24c-.07 0-.14-.08-.21-.08a2.62 2.62 0 0 1-1.52-.79 5.6 5.6 0 0 1-1.15-1.58c-.29-.72-.57-1.44-.86-2.31s-.51-1.65-.72-2.37a6.1 6.1 0 0 1-.07-2 2.62 2.62 0 0 1 .72-1.58 4.13 4.13 0 0 1 1.81-1.1 3.9 3.9 0 0 1 2-.25v2.23a2.6 2.6 0 0 0-.57-.36 1.3 1.3 0 0 0-.87.07 1.37 1.37 0 0 0-.72.51 1.54 1.54 0 0 0-.21.86 6 6 0 0 0 .21 1.37c.15.5.36 1.15.58 1.87s.45 1.33.67 1.83zM120.1 28.22v-.07l-.51-8.78 2.31-.65.43 12.02-2.88.8-5.62-10.66 2.45-.65zM123.41 18.43l2.3-.43 2.38 11.45-2.31.5zM134.5 24.62v-.07l-1.23-7.92 2.09-.29 1.8 11.6-2.59.36-4.11-7.64h-.07l1.3 8.14-2.09.29-1.87-11.59 2.66-.44zM143.21 22.9l-1.15-3.75V15.7l.86-.08L147 27l-2.37.22-.8-2.45-1.72.21V23zm-1.15-3.75-.36-1.44-.08.07-.62 5.33 1.08-.14v2l-1.37.08-.29 2.52-2.45.21L140 15.84l2-.14zM155.09 25.13c.14 0 .21 0 .29-.07a.92.92 0 0 0 .64-.29 1.1 1.1 0 0 0 .36-.58 2.9 2.9 0 0 0 .08-.93c.07-.65-.08-1.08-.44-1.3a1.2 1.2 0 0 0-.93-.36v-1.87h.14a5.8 5.8 0 0 1 1.59.21 3.8 3.8 0 0 1 1.15.65 2.8 2.8 0 0 1 .65 1.08 3.9 3.9 0 0 1 .28 1.66 6.4 6.4 0 0 1-.28 1.73 3.1 3.1 0 0 1-.8 1.08 4.1 4.1 0 0 1-1.22.64 8 8 0 0 1-1.51.22zm0-7.92v-2h3.24l-.07 2zm-.51 7.92h.51V27l-.15-.07h-3.52l.14-11.74 3.53.07v2l-1.23-.07-.07 2.59h1.3v1.82c-.15 0-.29-.07-.43-.07h-.87l-.07 3.6zM164.23 25.85a1.2 1.2 0 0 0 .51-.15 1.4 1.4 0 0 0 .5-.72 4.7 4.7 0 0 0 .36-1.29c.07-.58.14-1.23.22-2s.07-1.44.07-2a4.3 4.3 0 0 0-.07-1.37 1.25 1.25 0 0 0-1.23-1.08h-.36v-1.76h.51a3.9 3.9 0 0 1 2 .65 2.65 2.65 0 0 1 1.08 1.29 5.6 5.6 0 0 1 .36 2 15 15 0 0 1-.07 2.45 21 21 0 0 1-.29 2.45 4.8 4.8 0 0 1-.72 1.87 2.47 2.47 0 0 1-1.29 1.08 3.6 3.6 0 0 1-1.59.29zm-.36 0a.33.33 0 0 0 .36 0v1.73h-.5a4.27 4.27 0 0 1-2.09-.65 2.45 2.45 0 0 1-1.08-1.3 5.4 5.4 0 0 1-.36-1.94 15 15 0 0 1 .07-2.45 21 21 0 0 1 .29-2.45 6.1 6.1 0 0 1 .72-1.87 3.23 3.23 0 0 1 1.3-1.15 2.94 2.94 0 0 1 1.65-.29v1.73a1.05 1.05 0 0 0-.5.14 2 2 0 0 0-.58.72c-.14.36-.21.79-.36 1.37s-.14 1.15-.21 1.94a20 20 0 0 0-.08 2 6.7 6.7 0 0 0 .08 1.37 2.3 2.3 0 0 0 .43.79 1.12 1.12 0 0 0 .86.31M172.44 28.58a4.74 4.74 0 0 1-2-.72 2.77 2.77 0 0 1-.93-1.44 4.9 4.9 0 0 1-.29-1.94c.07-.72.14-1.58.29-2.45a20 20 0 0 1 .5-2.37 4.6 4.6 0 0 1 .79-1.88 3 3 0 0 1 1.37-1.08 4.4 4.4 0 0 1 2.16-.07 4 4 0 0 1 1.87.65 3.7 3.7 0 0 1 .94 1.22 4.8 4.8 0 0 1 .22 1.44 8 8 0 0 1-.15 1.37l-2.3-.36a4.05 4.05 0 0 0 0-1.87 1.19 1.19 0 0 0-1-.79 1.2 1.2 0 0 0-.72.14 1.55 1.55 0 0 0-.58.72 7.5 7.5 0 0 0-.43 1.3c-.14.57-.29 1.29-.43 2.09s-.14 1.58-.22 2.16a5.6 5.6 0 0 0 .08 1.29 1 1 0 0 0 .43.65 1.5 1.5 0 0 0 .57.29h.58a2.6 2.6 0 0 0 .58-.36 6 6 0 0 0 .43-.87 14 14 0 0 0 .36-1.51l2.3.36c-.14.65-.29 1.23-.43 1.8a4.3 4.3 0 0 1-.79 1.37 2.4 2.4 0 0 1-1.23.79 3.34 3.34 0 0 1-1.97.07M179.78 17.78l2.31.51-1.01 4.32 2.66.65 1.01-4.4 2.31.51-2.6 11.45-2.3-.51 1.15-5.11-2.66-.58-1.15 5.12-2.31-.58zM192 28.37l.43-5.33h-.07l-1.22 2.3v-3.88l.43-.8 2.81.8-.43 12.16-2.38-.72.22-2.52-.65-.21v-2zm-.86-3-1.37 2.38 1.37.43v2l-2.31-.72-1.22 2.23-2.3-.72 5.83-9.5zM202.54 24.34l2.08.86-2.88 6.91 5.48-5.83 2.37.94-4.53 10.87-2.02-.87 2.88-6.98-5.54 5.83-2.31-.93zM214.56 36.14l.36-6.33 2.3 1.22-.5 4.03 3.1-2.66 2.3 1.22-5.18 3.82-.29 6.62-2.31-1.29.44-4.25-3.39 2.66-2.23-1.22zM223.63 34.56l5.47 3.46-1 1.65-3.53-2.23-1.44 2.38 3.31 2.08-1.08 1.59-3.24-2.02-1.73 2.67 3.67 2.3-1 1.58-5.69-3.52zM231.34 45.72c.07 0 .14 0 .14-.07a1.5 1.5 0 0 0 1.15-.79 2.3 2.3 0 0 0 .51-1.3 1.72 1.72 0 0 0-.8-1.15l-.79-.58-.21.43v-2.73l2.66 1.94a3.3 3.3 0 0 1 1.08 1.15 2.36 2.36 0 0 1 .29 1.23 1.92 1.92 0 0 1-.22 1.22 9 9 0 0 1-.57 1.15 3.8 3.8 0 0 1-1.16 1.08 2.9 2.9 0 0 1-1.22.51 3.5 3.5 0 0 1-.86-.07zm-1-.36a1.9 1.9 0 0 0 1 .36v2a1.4 1.4 0 0 1-.51-.15 3.8 3.8 0 0 1-1.29-.72l-1.08-.72-2.74 3.87-1.87-1.37 6.84-9.5.65.43v2.73l-1.8 2.52zM235.44 57.53l-4.9-4.11 7.49-9 1.8 1.52-6.26 7.48 2.09 1.8 6.26-7.56 1.8 1.52-6.26 7.48.86.72-2.74 3.32-1.65-1.44zM245.74 50.98l4.75 4.46-1.37 1.44L246.1 54l-1.88 2.02 2.81 2.66-1.29 1.44-2.81-2.74-2.23 2.31 3.16 2.95-1.36 1.44-4.83-4.61zM251.78 56.81l4.25 4.53-1.44 1.37L252 59.9l-7.13 6.7-1.65-1.73zM254.88 71.21c.36-.29.65-.58 1.08-.87l1.51-1.29a10 10 0 0 0 .87-1 1.76 1.76 0 0 0 .28-.86 1.16 1.16 0 0 0-.36-.8 1.2 1.2 0 0 0-.72-.5 1.23 1.23 0 0 0-.86.07 4.6 4.6 0 0 0-1.22.72 7 7 0 0 0-.58.36V64.3a3.6 3.6 0 0 1 1.3-.51 2.84 2.84 0 0 1 1.72.15 4.36 4.36 0 0 1 1.73 1.29 4.5 4.5 0 0 1 1 2 3.54 3.54 0 0 1-.22 1.72 6.9 6.9 0 0 1-1.15 1.59 13.7 13.7 0 0 1-1.87 1.65c-.65.58-1.37 1.08-1.94 1.52-.22.07-.36.21-.58.28zm-3.31.65a1.2 1.2 0 0 0 .72.5 1.27 1.27 0 0 0 .86-.07 6.3 6.3 0 0 0 1.23-.72 2.2 2.2 0 0 0 .5-.36v2.73a5.2 5.2 0 0 1-1.22.51 2.82 2.82 0 0 1-1.73-.15 3.55 3.55 0 0 1-1.66-1.36 3.85 3.85 0 0 1-1-1.88 2.84 2.84 0 0 1 .15-1.72 7.6 7.6 0 0 1 1.15-1.59 20 20 0 0 1 1.8-1.65c.72-.58 1.37-1.08 2-1.52l.5-.28V67c-.29.29-.65.51-1 .87-.57.5-1.08.93-1.51 1.29a4.8 4.8 0 0 0-.86 1 1.7 1.7 0 0 0-.29.86 1.16 1.16 0 0 0 .36.84M262.37 76.25a1.25 1.25 0 0 0 1-.36 1.62 1.62 0 0 0 .72-1 2.1 2.1 0 0 0-.51-1.22l-.5-.72-.72.57v-2.89l.79-.57 2.3 3.16a4.5 4.5 0 0 1 .65 1.16 3.4 3.4 0 0 1 .22 1.15 3.3 3.3 0 0 1-.36 1.08 3.5 3.5 0 0 1-1 1 3 3 0 0 1-1.58.64 2.4 2.4 0 0 1-1-.21zm-1.37-.94a2.53 2.53 0 0 0 1.08.94h.29v1.8a1.35 1.35 0 0 1-.51-.36h-.07a2.07 2.07 0 0 1 .22 1.8 2.73 2.73 0 0 1-1.23 1.51 3.8 3.8 0 0 1-1.15.65 2.36 2.36 0 0 1-1.22.14h-.07v-2.37a2.1 2.1 0 0 0 1.15-.44 2 2 0 0 0 .57-.57 1.13 1.13 0 0 0 .22-.65 1 1 0 0 0-.07-.65c-.07-.14-.22-.36-.36-.57l-.58-.87-.93.65v-2.88l4-2.81v2.88l-1.73 1.23zm-2.66-1.87v2.88l-1.95 1.44.51.72a2.38 2.38 0 0 0 1.15.94h.29v2.37a3.3 3.3 0 0 1-1.23-.5 4.9 4.9 0 0 1-1.22-1.23l-2.31-3.24zM268.63 77.83l1.15 1.95-6.4 3.88 7.92-1.51 1.29 2.16-10.01 6.12-1.15-1.87 6.41-3.96-7.85 1.51-1.37-2.16zM273.74 86.26l1.08 2.08-4.03 2.09 1.3 2.45 3.96-2.09 1.08 2.09-10.37 5.4-1.08-2.09 4.61-2.37-1.3-2.45-4.61 2.37-1.08-2.08zM275.11 101.16l2.67-1.87-2.67.5v-2l4-.65 1.15 2.66-5.11 4zm-1.73 1.22 1.73-1.22v2.66l-4.46 3.46-.94-2.23 2-1.51-1.15-2.81-2.52.5-.92-2.23 8-1.22v2l-2.66.51zM18.86 143.5l8 .64-.22 2.16-11.66-.93.21-2.67 8.43-2.23-8.21-.72.21-2.16 11.67 1.01-.22 2.66zM20.74 152.93h1.94c.58-.07 1-.15 1.37-.22a2.2 2.2 0 0 0 .79-.5 1.6 1.6 0 0 0 .22-.87 1.56 1.56 0 0 0-.22-.86 1.6 1.6 0 0 0-.79-.5 12 12 0 0 0-1.3-.22 17 17 0 0 0-2-.07v-2.38a23 23 0 0 1 2.44.15 4.7 4.7 0 0 1 1.95.57 3.35 3.35 0 0 1 1.22 1.23 4.24 4.24 0 0 1 .43 2.08 4.07 4.07 0 0 1-.43 2.09 2.8 2.8 0 0 1-1.29 1.15 4.8 4.8 0 0 1-1.95.58c-.72.07-1.51.07-2.37.07zm-2-3.24c-.58.07-1 .14-1.37.21a1.47 1.47 0 0 0-.72.51 1.15 1.15 0 0 0-.29.86 1.6 1.6 0 0 0 .22.87 2.2 2.2 0 0 0 .79.5l1.3.22a17 17 0 0 0 2 .07h.08v2.3h-.08c-.86 0-1.72-.07-2.44-.14a5.5 5.5 0 0 1-1.95-.58 2.93 2.93 0 0 1-1.22-1.22 3.86 3.86 0 0 1-.36-2 4.6 4.6 0 0 1 .43-2.16 3.2 3.2 0 0 1 1.21-1.13 8 8 0 0 1 1.95-.58c.72-.07 1.51-.07 2.45-.07v2.38zM24.05 161.5a3.3 3.3 0 0 0 .65-.29 1.34 1.34 0 0 0 .43-.43 1.5 1.5 0 0 0 .14-.65 1.26 1.26 0 0 0-1-1.15 9.4 9.4 0 0 0-3.16-.22c-.72.07-1.37.14-2 .22a9 9 0 0 0-1.44.28 2.5 2.5 0 0 0-.86.58 1.07 1.07 0 0 0-.29.79 1.4 1.4 0 0 0 .14.51 2.7 2.7 0 0 0 .36.43 2 2 0 0 0 .65.36 1.47 1.47 0 0 0 .79.07l1.23-.07-.07-1.51 1.72-.15.22 3.82-6.34.36-.07-1.73 1.08-.07a2.34 2.34 0 0 1-1-1 3.5 3.5 0 0 1-.43-1.37 4.2 4.2 0 0 1 .29-1.8 2.6 2.6 0 0 1 1.15-1.15 6.5 6.5 0 0 1 1.87-.65c.8-.07 1.66-.21 2.67-.21a14 14 0 0 1 2.59 0 4.7 4.7 0 0 1 1.94.57 2.58 2.58 0 0 1 1.16 1.15 3.5 3.5 0 0 1 .5 1.88 3.66 3.66 0 0 1-.79 2.8 4.08 4.08 0 0 1-2.67 1l-.14-2.23c.25-.07.46-.07.68-.14M21.74 171H22c.79-.07 1.44-.22 1.94-.29a10 10 0 0 0 1.37-.43 1.6 1.6 0 0 0 .65-.58 1.1 1.1 0 0 0 .14-.86c-.07-.36-.14-.65-.36-.79a1.17 1.17 0 0 0-.79-.43 6.7 6.7 0 0 0-1.37-.08c-.5.08-1.08.15-1.8.22v-2.38c.72-.07 1.37-.14 2-.14a5.5 5.5 0 0 1 2 .29 3.1 3.1 0 0 1 1.37 1 5.52 5.52 0 0 1 .58 4.24 3.6 3.6 0 0 1-1.15 1.37 5.8 5.8 0 0 1-1.8.79l-2.45.44h-.51zm-2.16-2.95a11 11 0 0 0-1.36.43 1.6 1.6 0 0 0-.65.58 1.5 1.5 0 0 0-.15.86c.08.36.15.65.36.79a1.22 1.22 0 0 0 .8.43 6.6 6.6 0 0 0 1.36.08c.51-.08 1.08-.15 1.8-.22v2.38c-.72.07-1.36.14-1.94.14a5.6 5.6 0 0 1-2-.29 3.2 3.2 0 0 1-1.36-1.08 3.7 3.7 0 0 1-.65-2 4.16 4.16 0 0 1 .14-2.16 2.9 2.9 0 0 1 1.07-1.38 5.8 5.8 0 0 1 1.8-.79l2.45-.44h.5v2.38h-.21c-.8.07-1.45.24-1.96.29M28.87 177.05l-7.7 3.31v.07l8.42-.07.72 3.46-11.45 2.37-.5-2.09 9.22-1.94-9.65-.14-.36-1.8 8.71-3.96v-.08l-9.14 1.95-.44-2.16 11.45-2.38zM30.67 191.88l-1.15-4.03-2.66.79 1.08 3.74-1.88.58-1.08-3.82-3.02.87 1.22 4.17-1.87.58-1.87-6.48 11.23-3.24 1.87 6.26zM33.41 199.66l-.87-2.45-9.21 3.31-.79-2.23 9.21-3.31-.86-2.38 1.8-.65 2.52 6.99zM30.38 208.01l7.35-3.17.86 1.94-10.73 4.68-1.08-2.44 6.41-5.91-.07-.07-7.49 3.31-.86-2.01 10.73-4.68 1.08 2.52zM39.31 208.08l1.01 2.09-10.51 5.25-1.01-2.16zM45.43 218.81l-12.31 2.95-.94-1.51 12.32-3.03zM51.34 227.95l-1.59 1.15-2.37-3.45-2.31 1.58 2.31 3.24-1.66 1.08-2.23-3.17-4.18 2.88-1.37-1.94 9.65-6.7zM46.8 235.51a4.3 4.3 0 0 0-.58.51c-.14.21-.28.43-.36.57a2 2 0 0 0-.07.65.92.92 0 0 0 .29.58 1.24 1.24 0 0 0 .58.5.8.8 0 0 0 .57 0 1.13 1.13 0 0 0 .65-.22l.65-.43 6.41-5.11 1.51 1.87-6.41 5a4.4 4.4 0 0 1-1.66.94 3.4 3.4 0 0 1-1.44.07 2.7 2.7 0 0 1-1.22-.58 12 12 0 0 1-.94-1 13 13 0 0 1-.79-1.16 2.9 2.9 0 0 1-.29-1.29 2.13 2.13 0 0 1 .36-1.37 4.6 4.6 0 0 1 1.3-1.44l6.41-5.11 1.44 1.87zM55.15 244.51c.36-.36.87-.79 1.44-1.29s.94-.87 1.3-1.23a4.8 4.8 0 0 0 .72-1.08 1.47 1.47 0 0 0 .14-.93 2 2 0 0 0-.5-.94l-.72-.79-2.38 2.23v-3.17l2.09-1.94 2.59 2.88a3.7 3.7 0 0 1 1.08 1.75 2.93 2.93 0 0 1-.07 1.58 6.4 6.4 0 0 1-.94 1.66 17 17 0 0 1-1.65 1.72 18.4 18.4 0 0 1-2.09 1.66c-.36.22-.72.43-1 .58zm-2.95.07a2.06 2.06 0 0 0 .79.65 1.48 1.48 0 0 0 .94-.07 2.7 2.7 0 0 0 1.15-.65h.07v2.67c-.29.07-.57.14-.79.21a3.3 3.3 0 0 1-1.66-.14 4.1 4.1 0 0 1-1.58-1.25l-2.52-2.73 6.55-6v3.17l-3.67 3.38zM62.14 247.39a2.08 2.08 0 0 0 1.29.79 1.6 1.6 0 0 0 1.15-.57 1.78 1.78 0 0 0 .51-1.15 2.36 2.36 0 0 0-.72-1.16l-.65-.57-1.94 2.09v-3.46l1.44-1.51 2.88 2.73a3.9 3.9 0 0 1 .86 1 3.3 3.3 0 0 1 .43 1.08 2.2 2.2 0 0 1-.14 1.15 3 3 0 0 1-.79 1.23 3.4 3.4 0 0 1-1.44.86 2.1 2.1 0 0 1-1.59-.29v.08a2.38 2.38 0 0 1 .51 1.65 2.78 2.78 0 0 1-.87 1.8 5.2 5.2 0 0 1-1 .79c-.14.08-.21.08-.28.15v-3.31c0-.08 0-.08.07-.15a2 2 0 0 0 .07-.65 1.1 1.1 0 0 0-.14-.43v-2.44zm-.36-.57-.15.14.15.14v2.45c0-.07-.08-.07-.08-.14-.14-.22-.28-.36-.43-.58l-.79-.65-2.38 2.52.65.65A2.25 2.25 0 0 0 60 252a1.6 1.6 0 0 0 1.36-.65 2.5 2.5 0 0 0 .44-.57v3.31a2.06 2.06 0 0 1-.94.21 3.15 3.15 0 0 1-1.37-.21 5.6 5.6 0 0 1-1.44-1l-2.88-2.74 6.63-7zM69.05 255.89l2.16-4.11h-.07l-2.09 1.66v-2.52l2.3-1.66 2.23 1.88-4.53 9.86zm-.36.65.36-.65V261l-.58 1.15-1.87-1.58 1.15-2.23-2.37-2-2 1.58-1.87-1.58 7.56-5.4v2.52l-2.16 1.66zM76.54 253.44l1.87 1.44-5.69 7.92 3.38 2.45-1.15 1.58-5.33-3.89zM79.78 266a2.9 2.9 0 0 0-.36.72.77.77 0 0 0-.08.57 1 1 0 0 0 .22.58 1.35 1.35 0 0 0 .58.5 1.22 1.22 0 0 0 1 .22c.36 0 .65-.29.94-.65a2.5 2.5 0 0 0 .29-.65v-.64a6 6 0 0 0-.36-.72c-.15-.22-.36-.51-.65-.87a4.6 4.6 0 0 1-.79-1.15 4.3 4.3 0 0 1-.43-1.15 2.8 2.8 0 0 1 0-1.15 3.4 3.4 0 0 1 .57-1.16 3 3 0 0 1 2.16-1.65 3.66 3.66 0 0 1 2.74.72 6.5 6.5 0 0 1 1.15.86 4.4 4.4 0 0 1 .65 1.08 2.7 2.7 0 0 1 .07 1.3A2.5 2.5 0 0 1 87 264l-.15.29-1.94-1.22a2.3 2.3 0 0 0 .43-1.23 1 1 0 0 0-.58-.86 1.3 1.3 0 0 0-.64-.29h-.51a1.6 1.6 0 0 0-.43.29c-.07.14-.22.29-.29.43a1.44 1.44 0 0 0-.29.87 2.16 2.16 0 0 0 .44 1.08l1.13 1.64a7.3 7.3 0 0 1 .57 1.08 2.7 2.7 0 0 1 .22 1 1.84 1.84 0 0 1-.14.86 2.6 2.6 0 0 1-.44.87 3.09 3.09 0 0 1-2.38 1.77 5.07 5.07 0 0 1-3-.87 3.8 3.8 0 0 1-2-2.3 3.3 3.3 0 0 1 .58-2.59l.29-.36 1.94 1.22zM89.42 267.48l4.9-2.74 2.23 1.23-5.18 2.95-.15 7.56-2.3-1.3.14-5.4-1.36.8-1.66 3.02-2.09-1.08 5.62-10.3 2.09 1.08zM97.49 266.4l2.09 1.01-5.04 10.58-2.09-1.01zM103.18 278.14c-.08.21-.15.5-.22.72a1.4 1.4 0 0 0 .07.57 1.2 1.2 0 0 0 .29.51c.14.21.36.28.65.43a1.44 1.44 0 0 0 1.08 0 1.08 1.08 0 0 0 .79-.87 1.56 1.56 0 0 0 0-1.29 2.4 2.4 0 0 0-.43-.58c-.22-.21-.51-.5-.79-.72a7 7 0 0 1-1.08-1.08 3 3 0 0 1-.65-1 1.86 1.86 0 0 1-.15-1.08 3.1 3.1 0 0 1 .29-1.29 3 3 0 0 1 1.8-2 3.5 3.5 0 0 1 2.81.15 5.6 5.6 0 0 1 1.3.64 3.6 3.6 0 0 1 .86.94 2.4 2.4 0 0 1 .36 1.22 3.6 3.6 0 0 1-.29 1.44l-.07.29-2.16-.79a2.3 2.3 0 0 0 .22-1.3 1.12 1.12 0 0 0-.8-.79 1.07 1.07 0 0 0-.64-.14 1.4 1.4 0 0 0-.51.14 1.5 1.5 0 0 0-.36.29 3.6 3.6 0 0 0-.21.5 2.1 2.1 0 0 0-.15.94 1.9 1.9 0 0 0 .72.94l1.44 1.44c.29.36.58.64.79.93a4.5 4.5 0 0 1 .36.94 3.1 3.1 0 0 1 .08.86 5.6 5.6 0 0 1-.29.94 3.27 3.27 0 0 1-2 2.16 5 5 0 0 1-3.16-.29 3.7 3.7 0 0 1-2.31-1.87 3.25 3.25 0 0 1 .07-2.59l.15-.51 2.23.87zM114.7 280.94l.5-5.4h-.07l-1.3 2.38V274l.51-.86 2.8.86-.5 12.17-2.3-.72.21-2.59-.72-.15v-2.08zm-.87-3-1.37 2.38 1.37.36v2.08l-2.3-.72-1.23 2.16-2.37-.72 5.9-9.43zM121.32 284.11l.07.07 3.67-8.06 2.38.58-5.33 10.8-2.95-.72.14-12.03 2.45.58zM134.28 279.86l-4.1-.72-.51 2.74 3.89.65-.36 1.87-3.89-.65-.5 3.1 4.25.79-.29 1.87-6.63-1.15 2.02-11.52 6.48 1.08zM139.46 280.44l-3.96-.43.22-1.95 6.7.8-.22 1.72-5.26 7.49 4.47.51-.22 1.94-7.05-.79.14-1.73zM147.17 279.14l2.37.08-.07 4.46 2.74.07.07-4.53 2.3.07-.14 11.73-2.3-.07.07-5.18-2.74-.07-.14 5.25-2.31-.07zM160.13 289.3a2.3 2.3 0 0 0 .79-.29 2.06 2.06 0 0 0 .5-.79 6 6 0 0 0 .15-1.37c0-.58 0-1.23-.07-2a16 16 0 0 0-.15-2 5.3 5.3 0 0 0-.29-1.3 1.5 1.5 0 0 0-.57-.72.85.85 0 0 0-.58-.22v-1.72a3.37 3.37 0 0 1 1.8.28 3 3 0 0 1 1.3 1.23 6.4 6.4 0 0 1 .65 1.87c.07.79.21 1.58.21 2.45a15 15 0 0 1 0 2.52 4.2 4.2 0 0 1-.43 1.94 2.73 2.73 0 0 1-1.15 1.23 4.24 4.24 0 0 1-2.09.57h-.29v-1.68zm-.22-8.72h-.21a1.2 1.2 0 0 0-.87.29 1.24 1.24 0 0 0-.43.79 7 7 0 0 0-.22 1.3c0 .58.08 1.22.08 2s.07 1.51.14 2 .22 1 .29 1.37a1.9 1.9 0 0 0 .57.72 4.3 4.3 0 0 0 .65.22V291a3.6 3.6 0 0 1-1.87-.36 2.66 2.66 0 0 1-1.22-1.15 3.83 3.83 0 0 1-.65-1.87 19 19 0 0 1-.29-2.45v-2.45a6.6 6.6 0 0 1 .43-1.94 3.6 3.6 0 0 1 1.15-1.37 4.3 4.3 0 0 1 2.09-.5h.36zM164.74 278.71l6.19-.72.21 1.95-3.88.43 1.15 9.72-2.38.29zM177.05 287.35a1.53 1.53 0 0 0 .79-.36 1.16 1.16 0 0 0 .36-.86 4.4 4.4 0 0 0 0-1.37c-.07-.58-.14-1.22-.29-2s-.29-1.44-.36-1.94a5.6 5.6 0 0 0-.5-1.3 1.7 1.7 0 0 0-.58-.64c-.07 0-.14 0-.14-.08V277a2.4 2.4 0 0 1 1.08.15 3.4 3.4 0 0 1 1.44 1 5.8 5.8 0 0 1 .86 1.8 18.5 18.5 0 0 1 .51 2.44 17.5 17.5 0 0 1 .36 2.45 4.3 4.3 0 0 1-.22 1.95 3 3 0 0 1-1 1.44 4.1 4.1 0 0 1-1.94.79 6.4 6.4 0 0 1-1.08.07v-1.8a1.2 1.2 0 0 0 .71.06m-.72-8.57a1.5 1.5 0 0 0-.79 0 1.8 1.8 0 0 0-.8.36 1.6 1.6 0 0 0-.28.87 3.9 3.9 0 0 0 0 1.37 13 13 0 0 0 .28 1.94c.15.79.29 1.44.36 2a5.5 5.5 0 0 0 .51 1.29 1.67 1.67 0 0 0 .57.65h.15v1.8a2.5 2.5 0 0 1-1.08-.14 3 3 0 0 1-1.44-1 5.3 5.3 0 0 1-.87-1.8c-.21-.72-.36-1.51-.57-2.38s-.22-1.65-.29-2.45a4.5 4.5 0 0 1 .22-2 3.07 3.07 0 0 1 .93-1.44 4.7 4.7 0 0 1 2-.79 5.2 5.2 0 0 1 1.08-.08zM180.22 276.41l3.45-.87 3.75 7.56-.44-8.42 3.39-.94 2.95 11.38-2.09.5-2.37-9h-.08l.36 9.58-1.72.43-4.4-8.49h-.07l2.38 9.07-2.09.57zM191.52 273.31l6.19-2.16.65 1.87-3.96 1.37.94 2.59 3.67-1.29.65 1.8-3.68 1.29 1.01 3.03 4.11-1.44.64 1.8-6.33 2.23zM201.46 271.73l-2.38 1.01-.72-1.8 6.91-2.88.72 1.8-2.37 1 3.81 9-2.23.94zM205.92 267.77l2.16-1.08 1.94 4.03 2.52-1.22-2.01-4.04 2.09-1.08 5.25 10.52-2.16 1.08-2.3-4.68-2.45 1.22 2.3 4.68-2.08 1.08zM213.77 263.81l1.94-1.15 3.82 6.48-1.3-7.92 2.16-1.3 5.98 10.08-1.95 1.15-3.81-6.48 1.29 7.92-2.16 1.3zM228.38 254.09l4.04 12.09-1.52 1.01-4.03-12.02zM243.29 252.22a3.9 3.9 0 0 0-.87-1.88 8 8 0 0 0-.86-.72 2.5 2.5 0 0 0-.86-.36 1.8 1.8 0 0 0-.87 0v-2a2.65 2.65 0 0 1 1.3-.15 3.64 3.64 0 0 1 1.65.51 4.14 4.14 0 0 1 1.44 1.15 4.68 4.68 0 0 1 1.3 3.38 4.42 4.42 0 0 1-1.8 3.1l1 1.15L243 258l-1-1.16a6.6 6.6 0 0 1-2.16 1.23V256a3.5 3.5 0 0 0 1-.58l-1-1.08v-3.38l2.67 3a2 2 0 0 0 .78-1.74m-3.46-3v.08a1.9 1.9 0 0 0-.93.5l.93 1.08v3.38l-2.59-3a2.3 2.3 0 0 0-.65.79 1.9 1.9 0 0 0-.14.87 2 2 0 0 0 .21.93 5.8 5.8 0 0 0 .65.94A3.38 3.38 0 0 0 239 256a1.5 1.5 0 0 0 .79 0v2.09a3.5 3.5 0 0 1-1.22.07 4.57 4.57 0 0 1-3.17-1.73 4.7 4.7 0 0 1-.94-1.58 5 5 0 0 1-.28-1.73 4.4 4.4 0 0 1 .5-1.58 5.1 5.1 0 0 1 1.22-1.52l-.93-1.15 1.8-1.58.93 1.15a5.7 5.7 0 0 1 1.73-1 1.3 1.3 0 0 1 .36-.14zM250.06 251.35l-.22.22a.24.24 0 0 1-.14.07c0 .07-.08.14-.15.22s-.21.14-.29.21l-1.26-1.22a3.4 3.4 0 0 0 .5-.51c.29-.28.43-.5.36-.79a2.5 2.5 0 0 0-.21-.93l-.08-.29-8.42-3.75 1.87-1.87 5.33 2.81-2.95-5.18 1.73-1.73 4 7.92c.29.57.5 1.08.72 1.51a3.7 3.7 0 0 1 .21 1.15 1.9 1.9 0 0 1-.21 1.08 3.5 3.5 0 0 1-.79 1.08M257.26 240.62l-3.68-3.24v-3l5.19 4.46.72-.79 3.24 2.74-1.44 1.65-1.73-1.51-3.74 4.32 1.8 1.51-1.44 1.66-2.6-2.3v-5.48a15 15 0 0 1 .94 1.16 10 10 0 0 1 .72 1.15zm-3.68-3.24-2.23-1.94-1.51 1.73 1.44 1.22c.36.29.72.65 1.15 1s.72.72 1.08 1.15l.07.07v4.25a10 10 0 0 0-.79-1.58 9 9 0 0 0-1-1.3 10 10 0 0 0-1.22-1.22c-.43-.43-.94-.87-1.44-1.3L247 237.6l4.39-5.11 2.23 1.87v3zm0 7.49v1.23l-.64-.51zM262.37 234.36a2 2 0 0 0 .43-.72 1.1 1.1 0 0 0 .14-.65.9.9 0 0 0-.28-.65 2.8 2.8 0 0 0-.65-.64 1.72 1.72 0 0 0-1-.44v-2.37a2.7 2.7 0 0 1 1 .14 3.9 3.9 0 0 1 1.44.72 6.6 6.6 0 0 1 1.22 1.23 3.1 3.1 0 0 1 .22 2.73 6 6 0 0 1-.79 1.44l-2.16 2.85-.94-.72v-2.95l.86.72zm-1.37-3.1h-.36a3.2 3.2 0 0 0-1.15.94l-.51.72 2 1.44v2.95l-8.5-6.26 4-5.47 1.58 1.15-2.66 3.6 2.08 1.51.87-1.15a5.3 5.3 0 0 1 1.08-1.15 2.84 2.84 0 0 1 1.15-.58.66.66 0 0 1 .36-.07zM266.4 223.92l-2.52-.94v-2.16l8.06 2.67-1.29 2-2.38-.86-1.73 2.66 1.8 1.8-1.29 2-3.17-3.46v-3.09l1.3 1.29zm-2.52-.94-2.52-.93 2.52 2.52v3.09l-5-5.47 1.58-2.45 3.46 1.08zM273.1 221.69a2.5 2.5 0 0 0-.29.5c-.15.15-.22.29-.29.36l-1.8-.93c.07-.08.07-.15.14-.22l.08-.07a4 4 0 0 1 .21-.51 1.4 1.4 0 0 0-.07-.5 5 5 0 0 0-.65-.72 9.3 9.3 0 0 0-1.37-1l-2.3-1.44c-1-.5-2.16-1.22-3.6-1.94l3.17-5.91 10.29 5.55-1.08 2.09-8.64-4.61-1 1.8c1.22.65 2.3 1.22 3.16 1.8s1.66 1 2.24 1.37a14 14 0 0 1 1.44 1.22 2.9 2.9 0 0 1 .64 1.08 1.56 1.56 0 0 1 .08 1 3.5 3.5 0 0 1-.36 1.08M279.29 209.59a4.5 4.5 0 0 1-1.23 1.8 3.5 3.5 0 0 1-1.65.58 6.6 6.6 0 0 1-2-.29 20 20 0 0 1-2.3-.94c-.79-.36-1.58-.72-2.23-1.08a7 7 0 0 1-1.51-1.29 3.64 3.64 0 0 1-.65-1.66 4.24 4.24 0 0 1 .5-2.09 3.4 3.4 0 0 1 1.15-1.65 3.1 3.1 0 0 1 1.44-.58 3.3 3.3 0 0 1 1.44.15 5.7 5.7 0 0 1 1.23.5l-.94 2.16a4.55 4.55 0 0 0-1.8-.5c-.5 0-.79.28-1 .79a.87.87 0 0 0-.07.72 1.5 1.5 0 0 0 .51.72 5 5 0 0 0 1.15.79c.5.29 1.15.58 1.87.94s1.51.64 2 .79a3.3 3.3 0 0 0 1.29.29 1.8 1.8 0 0 0 .72-.15 1.08 1.08 0 0 0 .43-.57 1.3 1.3 0 0 0 .15-.58.94.94 0 0 0-.22-.58 2.6 2.6 0 0 0-.65-.64 7.8 7.8 0 0 0-1.36-.8l.93-2.16a9.4 9.4 0 0 1 1.66.94 3.2 3.2 0 0 1 1.08 1.08 2.6 2.6 0 0 1 .43 1.44 3.1 3.1 0 0 1-.37 1.87M270.36 200.45l.79-2.23 4.39 1.65v-.07l-3.31-4.39.94-2.45 3.53 4.75 7.56-.93-.94 2.44-5.4.58 1.01 1.3 3.24 1.22-.87 2.23zM273.38 192.17l.65-2.16 7.2 2.16-6.41-4.9.72-2.45 11.24 3.32-.65 2.16-7.13-2.09 6.34 4.82-.72 2.45zM289.15 178.42a4 4 0 0 1-.86 1.94 3 3 0 0 1-1.44 1 5.8 5.8 0 0 1-2 .14c-.72-.07-1.58-.14-2.44-.29s-1.66-.36-2.38-.57a8.4 8.4 0 0 1-1.8-.94 2.57 2.57 0 0 1-1-1.44 4.36 4.36 0 0 1-.07-2.16 4 4 0 0 1 .79-1.87 2.7 2.7 0 0 1 1.23-.86 4.4 4.4 0 0 1 1.44-.22c.5.07.93.14 1.36.22l-.43 2.3a4.5 4.5 0 0 0-1.94-.07 1.12 1.12 0 0 0-.72 1 .85.85 0 0 0 .07.72 2.6 2.6 0 0 0 .65.64 10 10 0 0 0 1.37.44 20 20 0 0 0 2 .5c.87.14 1.59.22 2.16.29a8 8 0 0 0 1.3 0 1.74 1.74 0 0 0 .72-.36 2.4 2.4 0 0 0 .21-.65.73.73 0 0 0 0-.58.9.9 0 0 0-.28-.57 4.4 4.4 0 0 0-.87-.43 5.7 5.7 0 0 0-1.44-.44l.43-2.3a10 10 0 0 1 1.73.43 3.75 3.75 0 0 1 1.37.87 2.57 2.57 0 0 1 .79 1.29 4.2 4.2 0 0 1 .05 1.97M286.13 167.54l-2.74.29v-2.09l7.49-1-.29 2.44-2.52.22-.36 3.1 2.38.86-.29 2.45-6.41-2.59v-2.16l2.45.79zm-2.74.29-2.66.22v.07l2.66.94v2.16l-4.82-1.95.29-2.88 4.53-.65zM289.44 159.91a2.26 2.26 0 0 0-.36-1.44 1.47 1.47 0 0 0-1.37-.57h-.07v-2.45h.29a4.2 4.2 0 0 1 1.29.21 2.2 2.2 0 0 1 1.08.72 2.5 2.5 0 0 1 .65 1.16 3.1 3.1 0 0 1 .22 1.72l-.15 4-3.38-.14v-2.42l1.73.08zm-1.8-2a2.7 2.7 0 0 0-.79.07 1.25 1.25 0 0 0-.51.36 1.7 1.7 0 0 0-.36.57 2.3 2.3 0 0 0-.07.72l-.07 1 1.8.07v2.38l-5-.22v-2.37l1.51.07.08-.65a2.86 2.86 0 0 0-.29-1.51 1.72 1.72 0 0 0-1.15-.5h-.15v-2.38a2.56 2.56 0 0 1 1.51.58 2.06 2.06 0 0 1 .87 1.36h.07A2.3 2.3 0 0 1 286 156a2.54 2.54 0 0 1 1.66-.5zm-5-2.38v2.38a1.5 1.5 0 0 0-1.08.36 2.74 2.74 0 0 0-.43 1.29v.87l1.51.07v2.37l-3.38-.21.21-3.89a4.3 4.3 0 0 1 .22-1.37 2.3 2.3 0 0 1 .5-1 2.25 2.25 0 0 1 .94-.64 4.2 4.2 0 0 1 1.44-.22zM279.65 153.94l-.07-6.48h1.94v4.17h2.81l-.07-3.89 1.94-.07v3.96h3.17v-4.39h1.94v6.7zM291.1 142.2a4.7 4.7 0 0 1-.1 1.8 2.4 2.4 0 0 1-.57 1.22 3.9 3.9 0 0 1-1.08.72 8.2 8.2 0 0 1-1.59.29h-.14l-.22-2.37h.15a2.2 2.2 0 0 0 .72-.08 2.8 2.8 0 0 0 .65-.28 1.2 1.2 0 0 0 .36-.44 1.44 1.44 0 0 0 .14-.79 1.57 1.57 0 0 0-.5-1.08 2.77 2.77 0 0 0-1.44-.29 2 2 0 0 0-1.37.51 1.83 1.83 0 0 0-.36 1.37c0 .07.07.14.07.28v.44l-1.8.14v-.43a2.18 2.18 0 0 0-.58-1.37 2 2 0 0 0-1.44-.29c-.5.07-.86.15-1 .43a1.22 1.22 0 0 0-.29.94 1.47 1.47 0 0 0 .29.86 1.64 1.64 0 0 0 .86.44h.65l.14 2.3h-.07a3.18 3.18 0 0 1-2.52-.79A3.83 3.83 0 0 1 279 143a4.16 4.16 0 0 1 .58-2.66 2.88 2.88 0 0 1 2.23-1.08h.86a3.4 3.4 0 0 1 1.51.79 6.5 6.5 0 0 1 .44.72 2.9 2.9 0 0 1 .72-1.58 3.1 3.1 0 0 1 1.8-.65 3.31 3.31 0 0 1 2.88.79 4.46 4.46 0 0 1 1.08 2.87"/></g></svg>