<svg xmlns="http://www.w3.org/2000/svg" viewBox="0 0 56.25 80"><path d="M87.848 91.124 86.791 87.8l2.7-2.044v-.14h-3.377l-1.06-3.328h-.12l-1.032 3.327h-3.38v.141l2.675 2.044-1.032 3.324h.193l2.635-1.97 2.662 1.97zM74.974 94.648l-1.057-3.328 2.699-2.04v-.144h-3.377l-1.06-3.325h-.116l-1.036 3.325h-3.376v.144l2.675 2.04-1.036 3.328h.193l2.635-1.973 2.663 1.973zM95.067 94.648l1.057-3.328-2.7-2.04v-.144h3.377l1.06-3.325h.117l1.035 3.325h3.377v.144l-2.675 2.04 1.036 3.328h-.193l-2.635-1.973-2.663 1.973zM64.228 102.528l-1.063-3.324 2.703-2.044v-.14H62.49l-1.06-3.325h-.12l-1.032 3.324h-3.377v.145l2.672 2.04-1.032 3.324h.193l2.638-1.97 2.66 1.97zM111.471 102.528l-1.06-3.324 2.703-2.044v-.14h-3.38l-1.057-3.325h-.12l-1.032 3.324h-3.376v.145l2.674 2.04-1.035 3.324h.193l2.635-1.97 2.66 1.97zm0 0" style="fill:#19ae47;fill-opacity:1;fill-rule:evenodd;stroke:none;stroke-width:.78437352" transform="translate(-56.9 -82.288)"/><path d="M85.023 157.428c-3.538-3.162-6.998-4.559-9.89-5.73-3.337-1.347-5.748-2.325-7.706-5.576-1.314-2.181-2.01-4.746-2.01-7.414v-19.196a17.25 17.25 0 0 0-2.295-8.637c4.06-1.437 6.925-3.843 9.544-6.042 3.665-3.08 6.56-5.513 12.357-5.513 5.779 0 8.812 2.544 12.023 5.234l.325.275c2.62 2.2 5.485 4.609 9.544 6.046a17.36 17.36 0 0 0-2.291 8.637v19.196c0 2.665-.693 5.23-2.007 7.418-1.863 3.094-3.977 4.062-7.55 5.509l-.168.067c-2.887 1.17-6.343 2.568-9.876 5.726" style="fill:#0c87d1;fill-opacity:1;fill-rule:nonzero;stroke:none;stroke-width:.78437352" transform="translate(-56.9 -82.288)"/><path d="M99.329 116.868v18.767h-.165l-3.757-3.772a2.82 2.82 0 0 0-1.985-.821h-3.6v3.6c0 .741.297 1.455.82 1.982l3.772 3.769v.165H75.648v-.165l3.774-3.769c.521-.527.819-1.24.819-1.982v-3.6h-3.616c-.744 0-1.461.297-1.985.824l-3.76 3.772h-.165v-18.773h.165l3.76 3.771c.524.527 1.24.825 1.985.825h3.616v-3.6c0-.742-.298-1.456-.819-1.983l-3.774-3.769v-.165h18.766v.165l-3.771 3.77a2.82 2.82 0 0 0-.821 1.981v3.604h3.6c.744 0 1.458-.297 1.985-.824l3.757-3.772zm0 0" style="fill:#fff;fill-opacity:1;fill-rule:nonzero;stroke:none;stroke-width:.78437352" transform="translate(-56.9 -82.288)"/><path d="M77.74 126.697q.001.445.062.732.058.285.217.448.155.165.435.23.275.064.711.064h.861q.217 0 .493-.007.284-.005.677-.016l-.294 1.62q-.335.01-.567.017-.233.005-.416.007h-.883q-.897-.002-1.52-.16-.623-.16-1.014-.518a2.1 2.1 0 0 1-.57-.953q-.178-.596-.177-1.473v-.88q-.001-.84.178-1.434.18-.593.576-.956c.26-.245.6-.422 1.01-.536.411-.11.917-.168 1.508-.168h.892q.22 0 .518.007.298.004.701.015l-.297 1.621a16 16 0 0 0-.8-.022h-.885q-.438 0-.711.064a.84.84 0 0 0-.435.23.8.8 0 0 0-.211.447 4 4 0 0 0-.059.733zM83.942 128.327h1.507q.456.002.644-.144.187-.142.187-.536v-.129q.001-.415-.19-.558-.195-.143-.668-.144h-1.48zm2.142-3.566q0-.318-.16-.45c-.104-.09-.288-.133-.542-.133h-1.44v1.293h1.41q.404.002.57-.144.16-.142.162-.469zm-3.91-2.026h3.59q1.132 0 1.637.438.511.443.512 1.312v.129q-.002 1.026-.821 1.421.494.189.76.58t.266 1.023v.177q.002 1.036-.622 1.496-.623.46-1.869.46h-3.453zM94.286 122.735 94 124.276H90.83v1.364h3.002l-.275 1.492H90.83v2.638h-1.857v-7.035zm0 0" style="fill:#193375;fill-opacity:1;fill-rule:nonzero;stroke:none;stroke-width:.78437352" transform="translate(-56.9 -82.288)"/><path d="M70.715 126.253H66.29v-4.792h4.425zM99.329 126.253h4.427v4.792H99.33zm0 0" style="fill:#19ae47;fill-opacity:1;fill-rule:nonzero;stroke:none;stroke-width:.78437352" transform="translate(-56.9 -82.288)"/><path d="M103.753 138.708c0 2.51-.65 4.917-1.884 6.964-1.805 3.003-3.986 3.882-7.286 5.218-1.443.582-3.061 1.238-4.77 2.15v-12.482H85.02v15.712c-3.45-2.91-6.82-4.274-9.553-5.38-3.306-1.336-5.488-2.215-7.292-5.218-1.235-2.047-1.885-4.455-1.885-6.964v-7.663h4.425v-4.792H66.29v-6.741c0-2.846-.665-5.653-1.927-8.175 3.714-1.513 6.44-3.799 8.867-5.84 2.408-2.022 4.382-3.67 6.998-4.568v11.015h4.792v-11.75c5.476 0 8.126 2.224 11.793 5.303 2.427 2.041 5.151 4.33 8.865 5.84a18.3 18.3 0 0 0-1.925 8.175v1.949H99.33v4.792h4.424zm4.278-17.247h-3.407v-1.949c0-3.076.805-6.042 2.291-8.637-4.06-1.437-6.921-3.843-9.54-6.042-3.665-3.077-6.56-5.51-12.355-5.51v-3.407c-1.795 0-3.37.209-4.792.564v3.536c-2.929.935-5.068 2.724-7.559 4.817-2.62 2.2-5.487 4.605-9.544 6.042a17.3 17.3 0 0 1 2.289 8.637v6.74h-3.401v4.793h3.401v7.663c0 2.668.699 5.23 2.01 7.414 1.958 3.251 4.37 4.229 7.706 5.574 2.892 1.17 6.351 2.564 9.89 5.732v4.86c1.615-1.87 3.217-3.223 4.792-4.271v-3.986c1.811-1.005 3.536-1.704 5.096-2.335 3.34-1.345 5.754-2.323 7.706-5.574 1.317-2.184 2.01-4.746 2.01-7.414v-12.455h3.407zm0 0" style="fill:#fddc02;fill-opacity:1;fill-rule:nonzero;stroke:none;stroke-width:.78437352" transform="translate(-56.9 -82.288)"/><path d="M89.812 100.929c-1.37-.469-2.91-.735-4.792-.735v11.75h4.792zM80.231 153.04a27.2 27.2 0 0 1 4.79 3.23v-15.712h-4.79zm0 0" style="fill:#19ae47;fill-opacity:1;fill-rule:nonzero;stroke:none;stroke-width:.78437352" transform="translate(-56.9 -82.288)"/><path d="M85.023 99.324c5.791 0 8.687 2.432 12.351 5.509 2.62 2.2 5.482 4.605 9.541 6.042a17.36 17.36 0 0 0-2.291 8.637v1.949h3.407v-1.949c0-4.354 1.994-8.245 5.113-10.813-6.63-.484-10.245-3.677-13.91-6.753-3.668-3.076-7.384-6.03-14.21-6.03h-.004v3.408zM65.414 119.512c0-3.076-.8-6.042-2.289-8.637 4.057-1.437 6.925-3.843 9.544-6.042 2.491-2.093 4.63-3.882 7.56-4.817V96.48c-9.389 2.36-11.818 11.38-23.33 12.22a14.1 14.1 0 0 1 3.73 4.736 13.9 13.9 0 0 1 1.384 6.076v6.74h3.401zM75.13 151.696c-3.337-1.348-5.748-2.323-7.706-5.574-1.311-2.184-2.01-4.746-2.01-7.414v-7.666h-3.401v7.666c0 3.223.83 6.406 2.494 9.17 5.01 8.325 12.651 5.307 20.504 14.4v-4.859c-3.533-3.162-6.989-4.556-9.881-5.723M104.624 138.708c0 2.668-.693 5.23-2.007 7.414-1.955 3.251-4.37 4.229-7.71 5.574-1.559.631-3.287 1.333-5.104 2.34v3.987c2.261-1.51 4.464-2.39 6.542-3.233 3.52-1.421 6.685-2.748 9.192-6.912 1.66-2.764 2.494-5.947 2.494-9.17v-12.455h-3.407zm0 0" style="fill:#193375;fill-opacity:1;fill-rule:nonzero;stroke:none;stroke-width:.78437352" transform="translate(-56.9 -82.288)"/></svg>