<svg xmlns="http://www.w3.org/2000/svg" width="272.203" height="385.964" viewBox="0 0 72.02 102.12"><defs><clipPath id="a" clipPathUnits="userSpaceOnUse"><path d="M-11.765-33.108h23.48V.183h-23.48z"/></clipPath><clipPath id="b" clipPathUnits="userSpaceOnUse"><path d="M-11.15-33.02h31.451V3.728h-31.45z"/></clipPath><clipPath id="c" clipPathUnits="userSpaceOnUse"><path d="M-13.262-33.15H18.19V3.596h-31.45z"/></clipPath><clipPath id="d" clipPathUnits="userSpaceOnUse"><path d="M-24.292-32.494H7.159V4.254h-31.451z"/></clipPath><clipPath id="e" clipPathUnits="userSpaceOnUse"><path d="M-24.731-24.747h31.45v36.748h-31.45z"/></clipPath><clipPath id="f" clipPathUnits="userSpaceOnUse"><path d="M-24.146-23.332H7.305v36.748h-31.45z"/></clipPath><clipPath id="g" clipPathUnits="userSpaceOnUse"><path d="M-20.275-18.612h31.451v36.748h-31.45z"/></clipPath><clipPath id="h" clipPathUnits="userSpaceOnUse"><path d="M-17.01-16.876h31.45v36.748h-31.45z"/></clipPath><clipPath id="i" clipPathUnits="userSpaceOnUse"><path d="M-15.268-18.211h31.451v36.748h-31.45z"/></clipPath><clipPath id="j" clipPathUnits="userSpaceOnUse"><path d="M-16.165-16.168h31.451V20.58h-31.45z"/></clipPath><clipPath id="k" clipPathUnits="userSpaceOnUse"><path d="M-7.873-18.404h31.451v36.748h-31.45z"/></clipPath><clipPath id="l" clipPathUnits="userSpaceOnUse"><path d="M-9.038-24.909h31.451V11.84h-31.45z"/></clipPath><clipPath id="m" clipPathUnits="userSpaceOnUse"><path d="M-21.647-22.435h31.45v36.748h-31.45z"/></clipPath><clipPath id="n" clipPathUnits="userSpaceOnUse"><path d="M-18.445-24.46h31.45v36.748h-31.45z"/></clipPath><clipPath id="o" clipPathUnits="userSpaceOnUse"><path d="M-19.741-24.902H11.71v36.748h-31.451z"/></clipPath></defs><path d="M0 0s-2.69.08-6.031-.133c-3.34-.212-5.565-.681-5.565-.681l.033-16.381s-.208-4.656 1.412-7.842C-7.642-29.971.017-32.928.017-32.928s7.708 2.907 10.084 7.941c1.349 2.858 1.445 7.759 1.445 7.759V-.814s-2.075.405-5.1.631S0 0 0 0Z" clip-path="url(#a)" style="fill:#fff;stroke:#b2770e;stroke-width:.336;stroke-linecap:butt;stroke-linejoin:miter;stroke-miterlimit:10;stroke-dasharray:none;stroke-opacity:1;fill-opacity:1" transform="matrix(3.06753 0 0 -3.06753 36.087 .56)"/><path d="M0 0s-2.69.08-6.031-.133c-3.34-.212-5.565-.681-5.565-.681l.033-16.381s-.208-4.656 1.412-7.842C-7.642-29.971.017-32.928.017-32.928s7.708 2.907 10.084 7.941c1.349 2.858 1.445 7.759 1.445 7.759V-.814s-2.075.405-5.1.631S0 0 0 0Z" clip-path="url(#a)" style="fill:none;stroke:#b2770e;stroke-width:.336;stroke-linecap:butt;stroke-linejoin:miter;stroke-miterlimit:10;stroke-dasharray:none;stroke-opacity:1" transform="matrix(3.06753 0 0 -3.06753 36.087 .56)"/><path d="m123.96 122.748.048.132.14.005-.115.083.044.138-.114-.092-.119.092.047-.143-.119-.078.148-.002zM123.264 122.77l.047.132.141.005-.116.083.044.138-.114-.092-.119.092.048-.143-.12-.078.148-.002zM122.57 122.812l.046.132.142.005-.116.082.044.139-.115-.092-.118.092.047-.143-.12-.079.149-.002zM121.877 122.878l.047.131.141.005-.115.083.043.139-.114-.092-.119.092.048-.143-.12-.079.148-.002zM121.184 122.961l.048.132.14.005-.115.083.044.139-.114-.093-.119.093.047-.143-.119-.08.148-.001zM124.66 122.748l.048.132.14.005-.115.083.044.138-.114-.092-.119.092.047-.143-.119-.078.148-.002zM125.353 122.774l.047.132.141.005-.116.083.044.139-.114-.093-.119.093.048-.143-.12-.079.148-.002zM126.05 122.82l.047.132.14.005-.115.083.044.139-.114-.093-.119.093.047-.143-.119-.079.148-.002zM126.744 122.886l.047.132.141.005-.115.083.043.139-.114-.093-.118.093.047-.143-.12-.079.148-.002zM127.432 122.972l.047.132.141.005-.115.083.043.138-.114-.092-.118.092.047-.142-.12-.08.148-.001z" style="fill:#b2770e;fill-opacity:1;fill-rule:nonzero;stroke:none;stroke-width:.352778" transform="matrix(8.69536 0 0 8.69536 -1044.493 -1044.493)"/><path d="M0 0s-1.377-.05-2.336-.137c-.96-.087-1.882-.174-1.882-.174s-.71-.05-1.065-.524c-.355-.473-.299-.897-.299-.897l-.013-2.822s-.025-.137.113-.131c.137.006.669.081.669.081s.097 0 .109.156c.013.155.013 1.373.013 1.373s-.003.225.252.25c.212.02 1.81.183 1.81.183s.131.025.137.131.006.517.006.517.006.106-.143.094c-.174-.015-1.863-.181-1.863-.181s-.187-.012-.206.162.007.623.007.623.037.206.249.224 1.863.187 2.38.218L0-.723s.131.031.137.15c.006.118.013.448.013.448S.1.006 0 0" clip-path="url(#b)" style="fill:#1c2e63;fill-opacity:1;fill-rule:nonzero;stroke:none" transform="matrix(3.06753 0 0 -3.06753 24.672 6.79)"/><path d="M0 0s-.606-.001-.938-.473c-.271-.387-.271-.493-.283-.835-.013-.343-.013-1.67-.013-1.67s-.011-.454.306-.804c.149-.165.479-.436.891-.442.411-.006 1.744.006 2.149.006s2.118-.031 2.118-.031.156.006.156.118v.486s.012.137-.131.137-2.106.032-2.455.044a55 55 0 0 1-1.688-.019s-.28-.018-.286.225c-.007.243 0 2.311 0 2.311s0 .206.236.218c.237.013 1.558.025 1.981.013S4.236-.76 4.236-.76s.131-.013.144.131c.012.143.006.473.006.473s.019.112-.118.131-2.2.062-2.536.062S0 0 0 0" clip-path="url(#c)" style="fill:#1c2e63;fill-opacity:1;fill-rule:nonzero;stroke:none" transform="matrix(3.06753 0 0 -3.06753 31.15 6.39)"/><path d="M0 0s-1.735.227-2.526.296c-.792.068-1.763.118-1.763.118s-.673.013-.985-.324c-.311-.336-.305-.635-.317-.766s-.013-2.884-.013-2.884-.012-.144.081-.156c.094-.013.704-.056.704-.056s.125 0 .137.137 0 1.327 0 1.327-.009.271.265.261c.156-.005 1.797-.137 1.797-.137s.144-.025.162.106.019.468.019.468.031.13-.143.155c-.175.025-1.826.144-1.826.144s-.258.018-.265.18c-.006.162.004.648.004.648s.074.193.267.181a136 136 0 0 0 2.019-.156 96 96 0 0 0 2.336-.28s.169-.044.175.093.012.492.012.492S.125-.022 0 0" clip-path="url(#d)" style="fill:#1c2e63;fill-opacity:1;fill-rule:nonzero;stroke:none" transform="matrix(3.06753 0 0 -3.06753 64.986 8.405)"/><path d="M0 0s-.368.231-1.24.417c-.872.187-2.049.418-3.115.486-1.065.069-2.062.1-3.32.019a19 19 0 0 1-3.159-.461c-.76-.187-1.14-.349-1.14-.349s-.511.43-.91.642-.766.399-1.339.461-1.072 0-1.365-.1c-.293-.099-.355-.156-.355-.156s.299-.261.418-.573c.118-.311.224-.797.168-1.327s-.281-1.47-.281-1.47-.461-.511-.728-1.178c-.268-.666-.362-1.127-.368-1.277s-.006-.293-.006-.293-1.28-.468-1.888-.772c-.997-.498-1.738-1.04-1.738-1.04s1.14.348 1.508.436c.367.087 1.108.28 1.439.336s.716.131.716.131.256-.692.648-1.246c.393-.555.741-.959 1.065-1.215.324-.255.493-.393.493-.393s-.349.705-.443 1.265c-.093.561-.012 1.265.168 1.72s.692 1.377 1.521 2.018c.828.642 1.962 1.253 2.791 1.576.828.324 2.324.81 3.165.916s1.781.169 2.479.063 1.308-.262 1.583-.468c.274-.205.367-.398.367-.398s1.171.498 1.745.785c.573.286 1.005.594 1.208.797.193.193.281.274.162.436C.157-.086 0 0 0 0" clip-path="url(#e)" style="fill:#1c2e63;fill-opacity:1;fill-rule:nonzero;stroke:none" transform="matrix(3.06753 0 0 -3.06753 66.334 32.17)"/><path d="M0 0s-.573-.299-.935-.449c-.361-.149-2.099-.903-2.859-1.221-.76-.317-2.43-.978-2.43-.978l.013-1.975 3.7.2s-1.302-.492-1.925-.754-1.782-.804-1.782-.804l-.006-11.146s1.215.804 1.757 1.24 1.62 1.334 2.05 1.832 1.09 1.377 1.52 2.517.623 2.056.722 3.327c.1 1.271.175 2.71.181 3.844S0 0 0 0" clip-path="url(#f)" style="fill:#1c2e63;fill-opacity:1;fill-rule:nonzero;stroke:none" transform="matrix(3.06753 0 0 -3.06753 64.537 36.508)"/><path d="M0 0s-1.325-.059-1.57-.075c-.245-.015-.905-.066-.905-.066s-.038-.295-.137-.594c-.1-.299-.241-.561-.241-.561s.905.481 1.279.644S0 0 0 0" clip-path="url(#g)" style="fill:#1c2e63;fill-opacity:1;fill-rule:nonzero;stroke:none" transform="matrix(3.06753 0 0 -3.06753 52.663 50.988)"/><path d="M0 0s.419.635.577 1.18.129 1.025-.02 1.354c-.15.328-.445.614-.707.743s-.423.199-.423.199l2.878 1.101.635.253c.042.017.204.142.042.262s-.503.162-.781.175a11.6 11.6 0 0 1-1.69-.096c-.681-.091-1.516-.324-2.143-.519A21 21 0 0 1-3.634 3.9c-.573-.253-.902-.44-1.57-.993-.669-.552-.943-1.059-1.118-1.487A2.46 2.46 0 0 1-6.446.042c.087-.486.303-.968.478-1.255.174-.286.427-.648.539-.731s.233-.166.233-.166 0-.772.237-1.885c.237-1.114.473-1.595.739-2.218s.777-1.404.777-1.404-.129.972-.129 1.42c0 .449.071 1.425.233 2.002s.544 1.607.98 2.226S-1.192-.648-.885-.432c.308.216.735.519.735.519s-.078.274-.278.511a2.6 2.6 0 0 1-.61.511c-.137.079-.212.12-.212.12s-.69-.182-1.184-.378a9.6 9.6 0 0 1-1.3-.635c-.278-.17-.764-.536-.764-.536s-.294.477-.312.789c-.029.503.166.868.274 1.064.106.19.387.44.387.44s.776-.058 1.258-.141 1.209-.245 1.579-.416.639-.324.884-.56.328-.428.366-.54S0 0 0 0" clip-path="url(#h)" style="fill:#1c2e63;fill-opacity:1;fill-rule:nonzero;stroke:none" transform="matrix(3.06753 0 0 -3.06753 42.649 56.313)"/><path d="M0 0s-.523.168-.928.237-.81.112-.81.112V-.723s.517.293.897.43S0 0 0 0" clip-path="url(#i)" style="fill:#dd052b;fill-opacity:1;fill-rule:nonzero;stroke:none" transform="matrix(3.06753 0 0 -3.06753 37.304 52.217)"/><path d="M0 0s-1.121-.922-1.576-1.776c-.455-.853-.71-1.638-.854-2.647-.143-1.01 0-2.038.069-2.461.068-.424.199-1.103.199-1.103l-.48.729.013-3.701 1.321-.617L0-10.971z" clip-path="url(#j)" style="fill:#dd052b;fill-opacity:1;fill-rule:nonzero;stroke:none" transform="matrix(3.06753 0 0 -3.06753 40.056 58.486)"/><path d="M0 0s-.86-.137-1.29-.249-1.003-.256-1.003-.256.031-1.495.187-3.127.505-2.623.854-3.377.965-1.894 2.143-2.878 1.875-1.533 2.255-1.794.754-.511.754-.511v6.872s-.118.61-.143.953l-.044.61s-1.364.873-1.751 1.19c-.386.318-.99.916-1.345 1.464C.262-.554 0 0 0 0" clip-path="url(#k)" style="fill:#1c2e63;fill-opacity:1;fill-rule:nonzero;stroke:none" transform="matrix(3.06753 0 0 -3.06753 14.62 51.625)"/><path d="M0 0s-1.327-.056-1.925-.112S-3.47-.268-3.47-.268v-5.869s.673.368 1.19.58 1.009.405 1.009.405.106.81.312 1.296c.205.486.448.884.535 1.015s.281.393.281.393.187.76.236 1.183c.05.424.019.829-.006.966S0 0 0 0" clip-path="url(#l)" style="fill:#1c2e63;fill-opacity:1;fill-rule:nonzero;stroke:none" transform="matrix(3.06753 0 0 -3.06753 18.193 31.673)"/><path d="M0 0s-.137.268-.511.424-1.059.324-1.732.355A10.4 10.4 0 0 1-4.785.561C-5.632.368-7.034-.112-7.781-.442c-.748-.331-1.695-.841-2.299-1.377-.605-.536-.941-.904-1.296-1.664S-11.7-4.679-11.7-5.04c0-.362.249-.991.392-1.265s.561-.785.561-.785-.442.96-.529 1.402-.094 1.128.068 1.501c.162.374.43.997.966 1.464.536.468 1.258 1.053 2.249 1.433.99.38 1.95.711 2.592.866.641.156 1.806.38 2.579.368.772-.013 1.146-.1 1.289-.218.144-.119.181-.312.181-.312l1.346.567z" clip-path="url(#m)" style="fill:#dd052b;fill-opacity:1;fill-rule:nonzero;stroke:none" transform="matrix(3.06753 0 0 -3.06753 56.873 39.26)"/><path d="m0 0-1.514.05s.511-.386.729-.43.424-.037.579.093A.7.7 0 0 1 0 0" clip-path="url(#n)" style="fill:#fff;fill-opacity:1;fill-rule:nonzero;stroke:none" transform="matrix(3.06753 0 0 -3.06753 47.05 33.049)"/><path d="M0 0s-.797.181-1.595.218S-3.906.162-4.61.05s-2.449-.536-2.449-.536-.342.386-.922.667a5.2 5.2 0 0 1-1.588.442c-.281.019-.623.025-.623.025s.517-.037.971-.212c.455-.174.692-.274.985-.586s.38-.697.38-.697-.972-.549-1.452-1.016-.909-.966-1.096-1.24-.443-.747-.443-.747.623.916 1.259 1.433 1.389 1.084 2.336 1.445 1.857.698 2.978.841 2.206.231 2.997.2C-.486.037 0 0 0 0" clip-path="url(#o)" style="fill:#fff;fill-opacity:1;fill-rule:nonzero;stroke:none" transform="matrix(3.06753 0 0 -3.06753 51.026 31.692)"/></svg>