<svg xmlns="http://www.w3.org/2000/svg" width="314.27" height="318.198" version="1.2" viewBox="0 0 2400 2430"><style>.b{fill:#c5281c}.c{fill:#2d2a26}</style><path d="m2390 1413.8-21.9-50.5-68.6-158.3c3.1.5 6.4.8 9.6.8 40.5 0 72.3-31.7 72.6-72.2 0-19.5-7.2-37.8-20.8-51.5-10.7-10.9-24.3-17.7-39.3-20.2l28.9-31.6c15.7-17.1 21.8-40.1 16.1-61.4-5.6-21.4-22-38.4-44-45.7l-.9-.3-.8-.3-78.3-22.9 7.1-246.5c1.1-19.2-5.7-38.2-18.8-52.3-11.7-12.7-28-20.6-45.2-22.3l-218.9-44.9-20-73.1-.3-1-.3-1c-9.1-28.5-33.3-46.9-61.9-46.9-16 0-31.9 6.1-44.6 17.4l-3 2.5-2.5 2.9-251.3 295.8 44.2-474.6c1.8-19.7-4.2-38.1-16.9-51.9-12.2-13.3-29.6-20.8-48-21-6.8 0-13.6 1-20.3 3.1l-5.9 1.8-5.4 3.1-129.5 74.8-147.4-231.9C1241.9 13.4 1220.4 1 1197.1 1c-23.2 0-44.5 12.4-56.5 32.6l-147.5 232-129.3-74.8-5.5-3.1-6-1.8c-6.7-1.9-13.5-2.9-20.3-2.9-18.4 0-36 7.7-48.2 21-12.6 13.9-18.7 32.3-16.9 51.9l44.2 474.7-251.3-295.8-2.5-2.9-2.8-2.5C541.9 418.1 526 412 509.9 412c-28.3 0-53.2 18.8-62.1 47l-.3.9-.3.9-20 73-218.9 44.9c-17.4 1.8-33.5 9.6-45.2 22.4-13.1 14.1-19.9 33-18.8 52.3l7.1 246.4-78.3 23-.8.3-.9.3c-22 7.2-38.4 24.4-43.9 45.7-5.5 21.4.5 44.4 16.2 61.4l44.6 48.6c6.8 7.5 14.9 13.9 23.7 18.8-23.7 12.3-44.2 28.3-61.1 47.9C7.5 1196 1 1254.4 1 1284.9c0 74.7 33.9 136.6 93.2 174.2-15.9 3.5-29.5 12.2-38.5 25.1-16.3 23.1-11.4 48-8.3 58.2 69.9 244.9 220.4 465.6 423.7 621.3 210.2 161.1 461.5 246.1 726.9 246.1 265.5 0 516.8-85 727-246.1 203.3-155.7 353.6-376.4 423.7-621.3 3-9.5 7.4-31.8-5.5-53.6 17.4-.6 33.2-9.6 42.8-24 10-15.1 11.6-34.1 4.3-50.7z" style="fill:#fff"/><path d="M900 1539.3c-6.6-16.3-24.5-28.4-44.8-28.4l-410.2-.3h-.1c-68.3 0-79.3 23.7-45.8 89.5 47.5 108 156.6 225.2 156.6 225.2 23.5 27.2 43.5 31.8 60.3 31.8l174.6-3.8c12.5-.8 24-6.8 30.3-15.3l110.5-148.9c9.7-11 14.3-32.9 7.5-50.7zM1357.1 1695.5c-.7 0-159.4 5.3-159.4 5.3s-158.6-5.3-159.4-5.3c-17.7.3-40.1 8.7-49.7 21.9l-116.8 163.3c-9 12.1-8 37.5 3.6 50.7l110 126.4c7 7.8 18.6 20.4 42.9 26.2 47.1 7.5 112.7 16 166 16h6.8c53.4 0 119-8.5 166.1-16 24.3-5.8 36-18.2 42.8-26.2l110.1-126.4c11.4-13.4 12.6-38.7 3.6-50.7l-116.8-163.3c-9.6-13.3-32.1-21.8-49.8-21.9" class="b"/><path d="M2286.2 1510.7c-14.7 0-176.9 47.4-176.9 47.4-14.7 5.1-31.7 16-39.9 27.3-40.4 82.8-83.1 178.1-206.5 302.6 0 0-11.2 10.9-6.5 34.5 4.2 18.9 29.6 131.7 29.6 131.7 2.3 9.5 11 13.2 19.6 13.2 2.2 0 4.3-.3 6.4-.8-108.9 91.2-235.4 161.7-373.7 206.2 18.3-10.6 16.8-30-4-48.1l-75.4-76c-9.6-8.7-22-14.3-37.3-14.3-3.7 0-7.7.3-11.7 1-81.2 20.6-167.9 24.7-211.9 24.9h-2.9c-44.9 0-129.5-4.7-208.9-24.9-4-.7-8-1-11.7-1-15.1 0-27.6 5.6-37.2 14.3l-75.4 76c-20.8 18.1-22.2 37.4-4.2 48.1-138.2-44.3-264.6-115-373.3-206 1.9.4 4 .6 6.1.6 8.6 0 17.3-3.9 19.5-13.3 0 0 25.5-112.8 29.7-131.8 4.9-23.4-6.6-34.5-6.6-34.5-123.4-124.5-166.2-219.6-206.5-302.6-8.1-11.4-25.2-22.2-39.8-27.2 0 0-162.4-47.4-177.1-47.4-16.7 0-10.9 16.1-10.9 16.1C235.2 2005.5 675.7 2356 1198.2 2356s962.9-350.5 1099.4-829.3c0 0 5.6-16.1-11-16.1h-.3z" class="b"/><path d="m1604.9 1853.3 174.6 3.8c16.8 0 36.9-4.6 60.3-31.8 0 0 108.9-117.2 156.5-225.2 33.4-65.7 22.5-89.5-45.8-89.5l-410.2.3c-20.2 0-38.3 12-44.8 28.4l-38.9 99.1c-6.9 18-2.3 39.7 7.5 50.7l110.5 148.9c6.3 8.5 18 14.7 30.3 15.3M2305.9 973.7l-100.5-29.4c-10-3.5-17.6-14.7-16.7-25.2l7.7-268.4c.7-10.5-7.1-19.1-17.8-19.1l-233.3-47.8c-10.5 0-21.8-8.3-25-18.4l-24.9-90.7c-2-6.2-6.3-9.6-11-9.6-3 0-6.2 1.3-9.2 4L1529 876.4c-3 2.5-5.5 3.8-7.6 3.8-3.5 0-5.6-3.5-5-10.2l57.6-619.5c.8-8.7-4.1-14.4-11.7-14.4-1.6 0-3.2.3-5 .8l-157.8 91.3c-2.1.6-4.1.8-6.4.8-8.5 0-17.7-4.4-22.3-11.5L1208 61.2c-2.3-4.2-6.7-6.9-10.9-6.9-4.1 0-8.4 2.7-10.8 6.9l-162.8 256.3c-4.6 7.1-13.6 11.7-22.4 11.7-2.2 0-4.2-.3-6.3-.9L837 237c-1.8-.6-3.4-.7-5-.7-7.6 0-12.5 5.8-11.7 14.4l57.6 619.5c.6 6.6-1.5 10.2-5 10.2-2.1 0-4.8-1.2-7.8-3.9L518.9 469.2c-2.9-2.6-6.2-4-9.2-4-4.8 0-9 3.4-10.9 9.6l-24.9 90.7c-3.3 10.1-14.5 18.4-25 18.4l-233.4 47.9c-10.5 0-18.5 8.6-17.8 19.1l7.7 268.3c.8 10.5-6.8 21.9-16.7 25.2L88.3 973.9c-10.1 3.4-12.5 12.4-5.2 20.3l44.6 48.6c7.1 7.8 18.8 14.2 32.1 14.2h2074.5c13.4 0 25.1-6.4 32.2-14.2l44.4-48.6c7.1-7.9 4.8-16.9-5.2-20.3 0 0 .2 0 .2-.2" class="b"/><path d="M339.1 1326.8c-3.4 9.1-7.7 18.8-21.8 30.4-15.9 12.9-37.6 20.2-61.2 20.2-61.9 0-88.9-47.5-88.9-93.2 0-64.2 43.6-94.6 92.3-94.6 15.4 0 35.6 3.4 51.7 13.7 15.9 10.2 20.9 21.7 25.2 30.3l100-17.9c-9.9-28.6-32.9-95.4-179.5-95.4-171.9 0-202.7 105.6-202.7 164.2 0 82.9 51.4 130.3 113.3 149.6 27.9 8.6 56.9 11.1 86.4 11.1 66.2 0 135.5-15.4 171-70.1 9.7-15.4 13.6-26.5 17-37.6l-103.1-10.7z" class="c"/><path fill-rule="evenodd" d="M682.2 1133.2 813 1435H695.4l-16.3-49.2H563.7l-16.3 49.2H429l22.2-51.6 16.5-38 17.2-39.9 74.2-172.3zm-25.5 185.9-35.6-102.2-34.6 102.2z" class="c"/><path d="M1072.3 1201.5c0 40.6.4 55.1 2 96.6-21.3-27.9-26.9-34.7-53.4-63.3L928.1 1133h-89.3v301.8h106.9v-64.1c-.4-38.5-.4-50.1-1.7-102.2 13.7 17.1 18.8 23.5 34.2 41.4l110.8 124.9h89.8V1133h-106.5z" class="c"/><path fill-rule="evenodd" d="m1460.3 1133.2 130.8 301.8h-117.7l-16.3-49.2h-115.4l-16.3 49.2h-118.3l130-301.8zm-25.4 185.9-35.6-102.2-34.7 102.2zM2334.8 1420.8l6.2 14.2h-117.5l-16.3-49.2h-115.4l-16.3 49.2h-118.4l130-301.8h123.1l108.9 251.3zm-150.2-101.7-35.6-102.2-34.7 102.2zM1969.6 1286.8c0 23.6-4.2 47.6-13.6 68.9-7 15.7-19 36.8-46.1 54-3.3 2-6.7 4-10.4 5.9-32.4 17.2-62.5 19.2-91.5 19.2h-191.6V1133h171.4c31.3 0 118.8-1.8 160.8 71.4 5.6 10 17.7 31.9 20.4 67.9.6 4.4.6 9.3.6 14.5m-130.1 61.8h.2c14.3-12.9 24.3-38.1 24.3-63.7 0-28.6-11.6-50.4-27-62.8-18.7-15-44.4-17.1-64.4-17.1H1722v161.7h47.4c36.8 0 57.7-6.8 70.1-17.9zM2329.4 1143.7c1.4 8 2.1 13 5.1 18.4h-16.2c-1.9-3.6-2.5-7.6-3.2-12.8-1.5-11.1-2-11.7-10.5-12h-2.6v24.6h-14v-58.8h20.9c5 0 9.9.1 13.9 1.5 7.4 2.3 10.3 9.2 10.3 14.5 0 8.7-6.5 11.8-10.2 13.5 3.6 2.4 5.2 3.8 6.5 11.1m-12.7-18.7c1.8-1 2.5-3.4 2.5-5.2 0-1.7-.7-4.1-3.1-5.1-1.6-.6-2.7-.6-9.6-.6h-4.3v12.1h6.2c4.2 0 6.5-.1 8.2-1.2z" class="c"/><path fill-rule="evenodd" d="M2354.9 1133.2c-.1 25.3-20 45.5-45.8 45.5-8.4 0-16.7-2.4-23.8-6.7-12.6-7.7-21.6-21.6-21.6-39q0-4.65.9-9c1.9-9.6 6.6-17.9 13.3-24.2 4.4-4.1 9.6-7.4 15.2-9.4 5.1-2 10.6-3 16.3-3 26.3 0 45.5 20.9 45.5 45.8m-45.5 41.5h-.1zm-.1 0c23.5-.1 41.6-18.6 41.6-41.5.1-22.8-18.4-41.8-41.4-41.8-22.9 0-40.8 17.9-41.7 40v1.6c0 12.8 5.6 24 14.3 31.6 7.4 6.3 16.9 10 27.2 10.1" class="c"/></svg>