<svg xmlns="http://www.w3.org/2000/svg" viewBox="2.57 4.51 255.6 255.6"><g fill="none" stroke-width="2"><path stroke="#82aed1" d="M129.39 23.75h.41a.25.24 4.6 0 1 .25.29q-.46 2.45 1.23 4.14a.68.68 0 0 0 1.09-.18l2.09-4.17a.39.39 0 0 1 .73.14q.19 2.37.05 5.03-.05.99.37 1.46.76.85 2.09-.1a1.34 1.34 0 0 0 .55-1.08V16.69a1.19 1.19 0 0 0-2.23-.57l-4.09 7.35a.52.52 0 0 1-.94-.06c-.94-2.42-.58-6.38-3.1-7.85a1.06 1.06 0 0 0-1.6.9l-.14 13.48q0 .62.61.58l1.78-.12q.69-.05.67-.74l-.17-5.56q-.01-.36.35-.35M118.814 31.665a7.8 5.79 83.2 0 0 4.825-8.43 7.8 5.79 83.2 0 0-6.673-7.06 7.8 5.79 83.2 0 0-4.825 8.43 7.8 5.79 83.2 0 0 6.673 7.06M150.24 23.59c3.07-5.51-3.44-7.06-7.27-7.29q-.5-.03-.57.46l-1.92 13.48a.69.69 0 0 0 .53.76c4.27.96 12.79 1.03 9.2-6.45q-.23-.49.03-.96M158.583 20.225a1.04 1.04 0 0 0-.756-1.262l-1.086-.273a1.04 1.04 0 0 0-1.262.756l-3.162 12.589a1.04 1.04 0 0 0 .755 1.262l1.087.273a1.04 1.04 0 0 0 1.262-.756l3.162-12.589M106.79 30.08q-1.18-4.83-2.17-9.69-.23-1.15-.84-1.33-.73-.22-1.92.28a.91.91 0 0 0-.53 1.04l3.04 13.08q.15.64.79.49l6.14-1.37q.55-.13.64-.69.23-1.46-1-2.09a.96.95-40 0 0-.75-.06l-2.56.81a.66.65 74 0 1-.84-.47M158.31 34.52a1.65 1.62 36.8 0 0 1.5-.2q2.19-1.53 4.35.11.33.25.37.65.19 2.06 2.18 2.38a.98.97-84.6 0 0 1.13-.94l.44-13.52a1.79 1.79 0 0 0-3.26-1.09q-3.82 5.44-7.5 11.28-.53.84.79 1.33M97.713 36.56a7.79 5.8 71.1 0 0 2.964-9.249 7.79 5.8 71.1 0 0-8.01-5.491 7.79 5.8 71.1 0 0-2.964 9.249 7.79 5.8 71.1 0 0 8.01 5.491M174.37 33.16a.5.5 0 0 1 .92-.04q1.67 3.65.95 6.93-.23 1.05 0 1.41.37.57 1.47.79a1.23 1.23 0 0 0 1.37-.73q2.33-5.59 5.11-11.27.69-1.41-1.02-2.12-1.13-.47-1.63.65L179.21 34a.4.4 0 0 1-.76-.1l-1.38-8.2a1.12 1.12 0 0 0-2.11-.31l-5.44 11.24a1.62 1.61-68.6 0 0 .98 2.25c2.32.7 3.28-4.12 3.87-5.72M89.59 37.05q-5.85.65-6.56-5.14-.33-2.75 1.69-4.01a1.21 1.2-68.4 0 0-.94-2.19c-8.04 2.13-3.25 16.48 5.42 14.07q1.64-.46 1.18-2.18a.74.73 79.6 0 0-.79-.55M72 39.53l-8.11-2.75a.95.94 82.6 0 0-1.09 1.42q3.58 5.41 7.11 10.88.72 1.11 2.06.32 1.41-.83.49-2.18l-3.43-5.03q-.57-.83.39-.53 4.01 1.24 7.38 3.71a1.53 1.52-89 0 0 2.16-2.09l-7.33-10.79a.65.65 0 0 0-.93-.16l-1.38 1.03q-.62.45-.17 1.07L72.39 39a.35.35 0 0 1-.39.53M185.06 44.25a2.61 2.59 7.1 0 1 1.96 2.5q.01 1.94 1.96 2.25a.74.73-78.2 0 0 .82-.54l3.43-13.2a1.57 1.57 0 0 0-2.53-1.6l-10.19 8.61a1.4 1.4 0 0 0 1.54 2.32q1.45-.73 3.01-.34" vector-effect="non-scaling-stroke"/><path stroke="#fa989f" d="M139.31 39.34q-8.63-1.29-17.25-.02a.73.73 0 0 0-.33 1.3l8.35 6.33q.35.27.71.02 4.26-2.94 8.44-5.97.65-.47.5-1.26-.06-.35-.42-.4" vector-effect="non-scaling-stroke"/><path stroke="#82aed1" d="M53.815 42.745a1.29.89 95.1 0 0 1.002-1.206 1.29.89 95.1 0 0-.772-1.364 1.29.89 95.1 0 0-1.001 1.206 1.29.89 95.1 0 0 .771 1.364M202.35 41.47l-8.88 10.01a.81.81 0 0 0 .06 1.14l1.03.91a7.56 7.1 41.6 0 0 10.37-.29l.53-.6a7.56 7.1 41.6 0 0-.94-10.32l-1.03-.91a.81.81 0 0 0-1.14.06" vector-effect="non-scaling-stroke"/><path stroke="#fa989f" d="M124.31 52.44q-6.77-5.37-13.98-10.65a1.66 1.64 55.8 0 0-1.38-.27q-33.77 8.6-54.15 36.65c-.8 1.1-.88 1.82-.5 3.06q2.6 8.54 4.82 17.19c.41 1.57 1.09 2.56 2.68 3.22q9.03 3.73 17.86 6.48a3.02 3.01-51 0 0 2.41-.26l43.3-24.98a3.23 3.23 0 0 0 1.62-2.8q.03-11.47 0-23.46c-.01-2.39-1-2.85-2.68-4.18M207.1 79.42c-12.65-18.7-33.06-32.74-55.01-37.96a1.12 1.1 33 0 0-.94.19l-15.31 11.37a3.96 3.93 71.8 0 0-1.59 3.17v23.57a3.69 3.68-75.2 0 0 1.85 3.2q20.96 12.09 41.89 24.31c3.91 2.29 12.89-2.35 19.51-4.78q2.17-.79 3.63-1.72a1.34 1.33 81.8 0 0 .56-.75l5.57-19.58a1.22 1.21-54.2 0 0-.16-1.02" vector-effect="non-scaling-stroke"/><path stroke="#82aed1" d="M65.362 54.951a7.7 5.78 49 0 0-.69-9.603 7.7 5.78 49 0 0-9.414-2.02 7.7 5.78 49 0 0 .69 9.604 7.7 5.78 49 0 0 9.414 2.02M58.945 60.342a.97.97 0 0 0-.016-1.372l-9.319-9.093a.97.97 0 0 0-1.371.017l-.824.844a.97.97 0 0 0 .016 1.372l9.319 9.093a.97.97 0 0 0 1.371-.017l.824-.844M212.46 53.92l2.49 2.36a.58.57-43.8 0 0 .78.01l1.22-1.07q.52-.46.05-.96l-4.17-4.51a.55.54 46.8 0 0-.78-.03l-9.44 8.85a1.5 1.49 47.3 0 0-.08 2.11l3.46 3.76a.81.81 0 0 0 1.17.03l1.02-1.03q.43-.43.01-.87l-1.94-1.97q-.48-.49.01-.98l2.26-2.26a.56.55-44.6 0 1 .79 0l2.36 2.44a.84.81-32 0 0 .88.19q1.48-.57 1.19-2.25-.09-.47-.5-.72-1.55-.9-1.79-2.58a.6.6 0 0 1 1.01-.52M50.06 63.69q-6.15-1.97-4.21-8.1.19-.62-.4-.88l-1.08-.48a.62.61-64.3 0 0-.8.29c-4.29 8.52 5.85 16.47 11.87 9.89q.26-.29.14-.67-.45-1.41-1.97-1.25-.48.05-.85.36-1.49 1.23-2.7.84M218.32 67.91l1.74 2.37a1.32 1.32 0 0 0 2.29-1.26q-.47-1.22-1.75-2.62a.68.68 0 0 1-.14-.66q.28-.89 1.52-.2.41.22.74.55l1.38 1.38a1.27 1.27 0 0 0 1.96-1.6l-3.33-5.04a.52.52 0 0 0-.74-.14l-11.32 8.23a.71.71 0 0 0-.14 1.02l1.21 1.5q.31.39.71.09l5.04-3.74q.47-.35.83.12M45.39 76.82c-2.07-2.64.82-4.4 3.21-4.45a1.52 1.52 0 0 0 .4-2.97l-12.87-3.83a1.32 1.32 0 0 0-1.65 1.61c.85 3.19 6.52 8.94 8.8 11.66q.35.41.75.05l1.27-1.12a.7.7 0 0 0 .09-.95M221.58 77.15l8.17-4.68a.91.91 0 0 0 .12-1.49l-1.18-.95a.74.73-40.6 0 0-.85-.06c-3.91 2.35-14.49 6.43-8.71 12.81 3.75 4.14 10.35-.92 13.82-3.06q1.2-.74.51-2.15a1.34 1.34 0 0 0-1.8-.61q-3.41 1.69-7 3.8c-1.45.85-2.84 1.14-3.85-.39a2.27 2.27 0 0 1 .77-3.22M234.915 73.368a1.33 1 5.1 0 0-1.236-1.114 1.33 1 5.1 0 0-1.414.878 1.33 1 5.1 0 0 1.236 1.114 1.33 1 5.1 0 0 1.414-.878M38.06 84.31l.37-.36q.26-.27.63-.21 3.42.5 3.97-2.93.1-.62-.5-.47l-7.15 1.74q-.73.18-.49-.53c.64-1.9 1.28-4.39-.34-5.9-3.66-3.39-7.28 2.87-8.42 5.54a.58.57-65.3 0 0 .27.74l11.76 6.12a1.28 1.28 0 0 0 1.87-1.19q-.08-1.75-1.82-2.07a.28.28 0 0 1-.15-.48M223.84 92.43q.32.69 1.01.38l9.79-4.29a.58.58 0 0 1 .75.26l.8 1.58a.75.74-28.2 0 0 1.04.31l1.29-.76a.63.63 0 0 0 .25-.83q-1.59-3.15-3.14-6.3-.54-1.1-1.73-.63a1.21 1.2 67.9 0 0-.67 1.59l.49 1.19q.25.61-.36.87l-9.96 4.22q-.55.23-.3.77l.74 1.64M29.78 91.19l1.41-2.82a.61.61 0 0 0-.31-.84l-1.39-.58q-.66-.27-.92.39l-1.16 2.95a1.02 1.02 0 0 1-1.97-.48q.15-1.51 1.1-2.74a.62.62 0 0 0-.2-.93l-1.33-.72q-.54-.29-.79.27l-2.58 5.71q-.28.6.34.85l12.73 5.03a.83.82 18.8 0 0 1.1-.54q.59-2.09 1.57-4.22.48-1.02.27-1.66-.34-1.02-1.66-1-.46 0-.61.43l-1.03 2.88q-.2.53-.73.32l-3.51-1.42a.64.63 24.5 0 1-.33-.88" vector-effect="non-scaling-stroke"/><path stroke="#fa989f" d="M173.54 114.02q-20.05-12.22-40.53-23.75c-1.83-1.03-2.41-1.59-4.51-.37q-20.48 11.85-40.22 23.6a4.1 4.09-22.4 0 0-1.88 4.51q5.77 23.02 11.77 45.7c1.16 4.41.75 7.89 6.82 7.94q27.14.23 53.67-.22a3.04 3.04 0 0 0 2.89-2.28l13.31-51.89a2.95 2.93 23 0 0-1.32-3.24M48.99 91.73a1.16 1.16 0 0 0-2.21-.11l-5.73 15.31a1.16 1.16 0 0 0 1.75 1.36l8.2-5.66a1.16 1.16 0 0 0 .47-1.24l-2.48-9.66M218.6 108.27a1.12 1.12 0 0 0 1.65-1.34l-5.84-15.22a1.12 1.12 0 0 0-2.12.11l-2.64 9.74a1.12 1.12 0 0 0 .47 1.24l8.48 5.47" vector-effect="non-scaling-stroke"/><path stroke="#82aed1" d="M225.78 97.46c.95 4.02 4.26 11.14 9.2 6.3 1.81-1.78 3.58-.78 5.15-1.99 2.4-1.87.98-6.1-.07-8.67q-.14-.35-.5-.24l-13.49 4.11q-.38.11-.29.49M18.43 104.64l12.99 3.43a.8.8 0 0 0 .98-.57l.35-1.32a7.67 7.44-75.2 0 0-5.24-9.32l-.15-.04a7.67 7.44-75.2 0 0-9.15 5.52l-.35 1.32a.8.8 0 0 0 .57.98M244.988 110.731a7.69 5.79-9.8 0 0-8.564-4.396 7.69 5.79-9.8 0 0-6.592 7.014 7.69 5.79-9.8 0 0 8.564 4.397 7.69 5.79-9.8 0 0 6.592-7.015M23.97 113.18l.36-3.41q.08-.69-.58-.9l-1.33-.45a.58.57 13.8 0 0-.74.44l-.65 3.81q-.1.58-.69.58h-.82a.59.58-84.3 0 1-.57-.7q.29-1.51.41-3.24a1.28 1.28 0 0 0-2.53-.32l-1.08 5.82a.68.68 0 0 0 .55.79l13.63 2.26q.58.1.67-.49l1-6.13a.64.64 0 0 0-.63-.74h-1.45q-.57 0-.69.55l-.6 2.81a.76.75-78.2 0 1-.88.58l-2.85-.55a.65.64 8.5 0 1-.53-.71" vector-effect="non-scaling-stroke"/><path stroke="#fa989f" d="m76.25 115.35-18.4-6.8a1.43 1.42 38.3 0 0-1.3.15q-8.28 5.55-16.79 11.33-.93.64-1.13 2.72-3.61 37.75 19.48 66.68a1.96 1.95 71 0 0 1.51.74l19.41.28a3.63 3.62-71.2 0 0 2.97-1.47l9.81-13.17a3.02 3.01-33.8 0 0 .51-2.56l-13.93-55.51a3.44 3.44 0 0 0-2.14-2.39M220.56 119.44q-7.92-5.5-16.15-10.87a1.02 1.01-38 0 0-.92-.11q-8.42 3.14-16.85 6.29c-1.98.74-3.5 1.98-3.99 3.92q-6.57 25.8-13.24 51.56c-.65 2.48-.74 4.42.88 6.65q4.78 6.58 9.53 12.55a2.81 2.81 0 0 0 2.24 1.06l19.5-.33a1.04 1.01-66.5 0 0 .71-.29q2.11-2.04 4.24-5.09 15.42-22.13 16.87-48.77c.21-3.8.61-14.19-2.82-16.57" vector-effect="non-scaling-stroke"/><path stroke="#82aed1" d="M15.1 119.98q-.39 2.6-.48 5.49-.01.59.57.64l13.57 1.34q.58.06.67-.52l.25-1.83a.69.69 0 0 0-.65-.79l-6-.36a.63.62-85.9 0 1-.58-.68l.36-3.83a.63.62-87.1 0 0-.62-.69h-.91a1.18 1.18 0 0 0-1.17 1.03l-.42 3.14a.97.97 0 0 1-1.94-.13v-2.61a1.33 1.33 0 0 0-2.65-.2M234.29 124.17a.58.58 0 0 1 .52-.63l10.92-.91a.58.58 0 0 0 .53-.59l-.03-2.01a.58.58 0 0 0-.63-.57l-13.79 1.17a.58.58 0 0 0-.53.62l.4 6.53a.58.58 0 0 0 .7.53l1.75-.38a.58.58 0 0 0 .45-.62l-.29-3.14" vector-effect="non-scaling-stroke"/><path stroke="#fbf180" d="M126.27 232.39c-53.31-3.94-93.37-43.8-96.08-97.12a1.39 1.39 0 0 0-1.45-1.32l-13.98.65a1.38 1.38 0 0 0-1.32 1.45c2.98 60.22 50.57 111.22 112.3 112.94q1.75.04 1.75-1.7v-13.58a1.32 1.32 0 0 0-1.22-1.32" vector-effect="non-scaling-stroke"/><path stroke="#fa989f" d="m246.15 134.56-14.15-.37a1.11 1.11 0 0 0-1.14 1.05q-1.99 37.08-26.46 64.65-.4.44.02.86l10.7 10.55q.48.47.93-.02 29.43-31.88 31.13-75.61a1.06 1.06 0 0 0-1.03-1.11M162.83 180.26a1.9 1.88 71.3 0 0-1.51-.76h-60.83a2.97 2.96-71.2 0 0-2.35 1.16l-10.38 13.59a3.05 3.05 0 0 0-.51 2.67q2.56 8.98 4.53 18.03c.17.77 1.11 1.74 1.94 2.08q33.46 13.89 68.22 2.16 3.75-1.26 6.64-2.89.45-.26.56-.76c1.35-6.15 4.58-13.88 4.74-19.96a1.54 1.53 27.5 0 0-.3-.94l-10.75-14.38M68.19 198.41a.99.99 0 0 0-.59 1.78l13.09 10.04a.99.99 0 0 0 1.56-1.03l-2.56-10.21a.99.99 0 0 0-.97-.75l-10.53.17M178.89 209.11a1 1 0 0 0 1.57 1.05l13.13-10.11a1 1 0 0 0-.61-1.79l-10.45.01a1 1 0 0 0-.97.74l-2.67 10.1" vector-effect="non-scaling-stroke"/><path stroke="#82aed1" d="M210.01 217.36q.42-1-.22-1.65-5.08-5.19-10.09-10.11a.82.82 0 0 0-1.11-.03q-27.3 24.44-64.15 26.69a1 1 0 0 0-.94 1v14.73a1.16 1.15-1.9 0 0 1.23 1.15q43.26-2.65 75.14-31.58a.73.63-14.2 0 0 .14-.2M118.449 28.58a4.76 2.5 83.5 0 0 1.945-5.013 4.76 2.5 83.5 0 0-3.023-4.446 4.76 2.5 83.5 0 0-1.945 5.012 4.76 2.5 83.5 0 0 3.023 4.446M147.347 22.019a1.51 1.4 45.6 0 0-.057-2.058 1.51 1.4 45.6 0 0-2.056-.1 1.51 1.4 45.6 0 0 .056 2.058 1.51 1.4 45.6 0 0 2.057.1M144.3 24.97l-.02 3.36a.44.44 0 0 0 .43.45h.1a2.92 1.99.5 0 0 2.94-1.96v-.26a2.92 1.99.5 0 0-2.9-2.02h-.1a.44.44 0 0 0-.45.43M163.06 31.08l1.33.42a.42.42 0 0 0 .53-.27l.04-.12a4.47 1.08-72.3 0 0 .33-4.59l-.07-.02a4.47 1.08-72.3 0 0-2.39 3.93l-.04.12a.42.42 0 0 0 .27.53M96.757 33.74a4.82 2.57 70.4 0 0 .804-5.402 4.82 2.57 70.4 0 0-4.038-3.679 4.82 2.57 70.4 0 0-.804 5.403 4.82 2.57 70.4 0 0 4.038 3.679M186.13 41.21a.34.34 0 0 0 .06.53l1.59 1.02a.34.34 0 0 0 .5-.17l1.47-4.04a.34.34 0 0 0-.55-.36l-3.07 3.02M202.86 45.27l-5.3 6.26a.18.18 0 0 0 .03.26l.06.05a4.12 3.3-49.8 0 0 5.18-1.02l.2-.24a4.12 3.3-49.8 0 0 .14-5.28l-.06-.05a.18.18 0 0 0-.25.02M63.323 52.719a4.75 2.55 50 0 0-1.1-5.278 4.75 2.55 50 0 0-5.006-2 4.75 2.55 50 0 0 1.1 5.278 4.75 2.55 50 0 0 5.006 2M41.95 72.94a.41.41 0 0 0 .65-.03l1.09-1.55a.41.41 0 0 0-.2-.62l-3.4-1.23a.41.41 0 0 0-.46.65l2.32 2.78M30 80.48l1.5.76a.47.47 0 0 0 .63-.2l.08-.16a2.84 1.18-63.1 0 0 .23-3.06l-.23-.12a2.84 1.18-63.1 0 0-2.34 2l-.07.15a.47.47 0 0 0 .2.63M235.93 99.29q3.46 1.05 2.59-2.48-.16-.63-.76-.39l-1.91.74a1.13 1.13 0 0 0 .08 2.13M232.62 98.22l-2.6.85a.75.75 0 0 0-.48.95l.04.12a2.66 1.99 71.9 0 0 2.72 1.91l.24-.08a2.66 1.99 71.9 0 0 1.07-3.14l-.04-.13a.75.75 0 0 0-.95-.48M21.5 102.29l8.19 2.2a.18.18 0 0 0 .22-.13l.02-.06a4.25 3.36 15 0 0-3.24-4.34l-.33-.09a4.25 3.36 15 0 0-4.97 2.14l-.02.06a.18.18 0 0 0 .13.22M242.238 111.275a4.9 2.47-9.1 0 0-5.229-1.664 4.9 2.47-9.1 0 0-4.447 3.214 4.9 2.47-9.1 0 0 5.229 1.664 4.9 2.47-9.1 0 0 4.447-3.214" vector-effect="non-scaling-stroke"/></g><path fill="#fff" d="M258.17 132.31a127.8 127.8 0 0 1-127.8 127.8 127.8 127.8 0 0 1-127.8-127.8 127.8 127.8 0 0 1 127.8-127.8 127.8 127.8 0 0 1 127.8 127.8M129.39 23.75h.41a.25.24 4.6 0 1 .25.29q-.46 2.45 1.23 4.14a.68.68 0 0 0 1.09-.18l2.09-4.17a.39.39 0 0 1 .73.14q.19 2.37.05 5.03-.05.99.37 1.46.76.85 2.09-.1a1.34 1.34 0 0 0 .55-1.08V16.69a1.19 1.19 0 0 0-2.23-.57l-4.09 7.35a.52.52 0 0 1-.94-.06c-.94-2.42-.58-6.38-3.1-7.85a1.06 1.06 0 0 0-1.6.9l-.14 13.48q0 .62.61.58l1.78-.12q.69-.05.67-.74l-.17-5.56q-.01-.36.35-.35m-10.576 7.915a7.8 5.79 83.2 0 0 4.825-8.43 7.8 5.79 83.2 0 0-6.673-7.06 7.8 5.79 83.2 0 0-4.825 8.43 7.8 5.79 83.2 0 0 6.673 7.06m31.426-8.075c3.07-5.51-3.44-7.06-7.27-7.29q-.5-.03-.57.46l-1.92 13.48a.69.69 0 0 0 .53.76c4.27.96 12.79 1.03 9.2-6.45q-.23-.49.03-.96m8.343-3.365a1.04 1.04 0 0 0-.756-1.262l-1.086-.273a1.04 1.04 0 0 0-1.262.756l-3.162 12.589a1.04 1.04 0 0 0 .755 1.262l1.087.273a1.04 1.04 0 0 0 1.262-.756zM106.79 30.08q-1.18-4.83-2.17-9.69-.23-1.15-.84-1.33-.73-.22-1.92.28a.91.91 0 0 0-.53 1.04l3.04 13.08q.15.64.79.49l6.14-1.37q.55-.13.64-.69.23-1.46-1-2.09a.96.95-40 0 0-.75-.06l-2.56.81a.66.65 74 0 1-.84-.47m51.52 4.44a1.65 1.62 36.8 0 0 1.5-.2q2.19-1.53 4.35.11.33.25.37.65.19 2.06 2.18 2.38a.98.97-84.6 0 0 1.13-.94l.44-13.52a1.79 1.79 0 0 0-3.26-1.09q-3.82 5.44-7.5 11.28-.53.84.79 1.33m-60.597 2.04a7.79 5.8 71.1 0 0 2.964-9.249 7.79 5.8 71.1 0 0-8.01-5.491 7.79 5.8 71.1 0 0-2.964 9.249 7.79 5.8 71.1 0 0 8.01 5.491m76.657-3.4a.5.5 0 0 1 .92-.04q1.67 3.65.95 6.93-.23 1.05 0 1.41.37.57 1.47.79a1.23 1.23 0 0 0 1.37-.73q2.33-5.59 5.11-11.27.69-1.41-1.02-2.12-1.13-.47-1.63.65L179.21 34a.4.4 0 0 1-.76-.1l-1.38-8.2a1.12 1.12 0 0 0-2.11-.31l-5.44 11.24a1.62 1.61-68.6 0 0 .98 2.25c2.32.7 3.28-4.12 3.87-5.72m-84.78 3.89q-5.85.65-6.56-5.14-.33-2.75 1.69-4.01a1.21 1.2-68.4 0 0-.94-2.19c-8.04 2.13-3.25 16.48 5.42 14.07q1.64-.46 1.18-2.18a.74.73 79.6 0 0-.79-.55M72 39.53l-8.11-2.75a.95.94 82.6 0 0-1.09 1.42q3.58 5.41 7.11 10.88.72 1.11 2.06.32 1.41-.83.49-2.18l-3.43-5.03q-.57-.83.39-.53 4.01 1.24 7.38 3.71a1.53 1.52-89 0 0 2.16-2.09l-7.33-10.79a.65.65 0 0 0-.93-.16l-1.38 1.03q-.62.45-.17 1.07L72.39 39a.35.35 0 0 1-.39.53m113.06 4.72a2.61 2.59 7.1 0 1 1.96 2.5q.01 1.94 1.96 2.25a.74.73-78.2 0 0 .82-.54l3.43-13.2a1.57 1.57 0 0 0-2.53-1.6l-10.19 8.61a1.4 1.4 0 0 0 1.54 2.32q1.45-.73 3.01-.34m-45.75-4.91q-8.63-1.29-17.25-.02a.73.73 0 0 0-.33 1.3l8.35 6.33q.35.27.71.02 4.26-2.94 8.44-5.97.65-.47.5-1.26-.06-.35-.42-.4m-85.495 3.405a1.29.89 95.1 0 0 1.002-1.206 1.29.89 95.1 0 0-.772-1.364 1.29.89 95.1 0 0-1.001 1.206 1.29.89 95.1 0 0 .771 1.364M202.35 41.47l-8.88 10.01a.81.81 0 0 0 .06 1.14l1.03.91a7.56 7.1 41.6 0 0 10.37-.29l.53-.6a7.56 7.1 41.6 0 0-.94-10.32l-1.03-.91a.81.81 0 0 0-1.14.06m-78.04 10.97q-6.77-5.37-13.98-10.65a1.66 1.64 55.8 0 0-1.38-.27q-33.77 8.6-54.15 36.65c-.8 1.1-.88 1.82-.5 3.06q2.6 8.54 4.82 17.19c.41 1.57 1.09 2.56 2.68 3.22q9.03 3.73 17.86 6.48a3.02 3.01-51 0 0 2.41-.26l43.3-24.98a3.23 3.23 0 0 0 1.62-2.8q.03-11.47 0-23.46c-.01-2.39-1-2.85-2.68-4.18m82.79 26.98c-12.65-18.7-33.06-32.74-55.01-37.96a1.12 1.1 33 0 0-.94.19l-15.31 11.37a3.96 3.93 71.8 0 0-1.59 3.17v23.57a3.69 3.68-75.2 0 0 1.85 3.2q20.96 12.09 41.89 24.31c3.91 2.29 12.89-2.35 19.51-4.78q2.17-.79 3.63-1.72a1.34 1.33 81.8 0 0 .56-.75l5.57-19.58a1.22 1.21-54.2 0 0-.16-1.02M65.362 54.951a7.7 5.78 49 0 0-.69-9.603 7.7 5.78 49 0 0-9.414-2.02 7.7 5.78 49 0 0 .69 9.604 7.7 5.78 49 0 0 9.414 2.02m-6.417 5.39a.97.97 0 0 0-.016-1.37l-9.319-9.094a.97.97 0 0 0-1.371.017l-.824.844a.97.97 0 0 0 .016 1.372l9.319 9.093a.97.97 0 0 0 1.371-.017zM212.46 53.92l2.49 2.36a.58.57-43.8 0 0 .78.01l1.22-1.07q.52-.46.05-.96l-4.17-4.51a.55.54 46.8 0 0-.78-.03l-9.44 8.85a1.5 1.49 47.3 0 0-.08 2.11l3.46 3.76a.81.81 0 0 0 1.17.03l1.02-1.03q.43-.43.01-.87l-1.94-1.97q-.48-.49.01-.98l2.26-2.26a.56.55-44.6 0 1 .79 0l2.36 2.44a.84.81-32 0 0 .88.19q1.48-.57 1.19-2.25-.09-.47-.5-.72-1.55-.9-1.79-2.58a.6.6 0 0 1 1.01-.52m-162.4 9.77q-6.15-1.97-4.21-8.1.19-.62-.4-.88l-1.08-.48a.62.61-64.3 0 0-.8.29c-4.29 8.52 5.85 16.47 11.87 9.89q.26-.29.14-.67-.45-1.41-1.97-1.25-.48.05-.85.36-1.49 1.23-2.7.84m168.26 4.22 1.74 2.37a1.32 1.32 0 0 0 2.29-1.26q-.47-1.22-1.75-2.62a.68.68 0 0 1-.14-.66q.28-.89 1.52-.2.41.22.74.55l1.38 1.38a1.27 1.27 0 0 0 1.96-1.6l-3.33-5.04a.52.52 0 0 0-.74-.14l-11.32 8.23a.71.71 0 0 0-.14 1.02l1.21 1.5q.31.39.71.09l5.04-3.74q.47-.35.83.12M45.39 76.82c-2.07-2.64.82-4.4 3.21-4.45a1.52 1.52 0 0 0 .4-2.97l-12.87-3.83a1.32 1.32 0 0 0-1.65 1.61c.85 3.19 6.52 8.94 8.8 11.66q.35.41.75.05l1.27-1.12a.7.7 0 0 0 .09-.95m176.19.33 8.17-4.68a.91.91 0 0 0 .12-1.49l-1.18-.95a.74.73-40.6 0 0-.85-.06c-3.91 2.35-14.49 6.43-8.71 12.81 3.75 4.14 10.35-.92 13.82-3.06q1.2-.74.51-2.15a1.34 1.34 0 0 0-1.8-.61q-3.41 1.69-7 3.8c-1.45.85-2.84 1.14-3.85-.39a2.27 2.27 0 0 1 .77-3.22m13.335-3.782a1.33 1 5.1 0 0-1.236-1.114 1.33 1 5.1 0 0-1.414.878 1.33 1 5.1 0 0 1.236 1.114 1.33 1 5.1 0 0 1.414-.878M38.06 84.31l.37-.36q.26-.27.63-.21 3.42.5 3.97-2.93.1-.62-.5-.47l-7.15 1.74q-.73.18-.49-.53c.64-1.9 1.28-4.39-.34-5.9-3.66-3.39-7.28 2.87-8.42 5.54a.58.57-65.3 0 0 .27.74l11.76 6.12a1.28 1.28 0 0 0 1.87-1.19q-.08-1.75-1.82-2.07a.28.28 0 0 1-.15-.48m185.78 8.12q.32.69 1.01.38l9.79-4.29a.58.58 0 0 1 .75.26l.8 1.58a.75.74-28.2 0 0 1.04.31l1.29-.76a.63.63 0 0 0 .25-.83q-1.59-3.15-3.14-6.3-.54-1.1-1.73-.63a1.21 1.2 67.9 0 0-.67 1.59l.49 1.19q.25.61-.36.87l-9.96 4.22q-.55.23-.3.77zM29.78 91.19l1.41-2.82a.61.61 0 0 0-.31-.84l-1.39-.58q-.66-.27-.92.39l-1.16 2.95a1.02 1.02 0 0 1-1.97-.48q.15-1.51 1.1-2.74a.62.62 0 0 0-.2-.93l-1.33-.72q-.54-.29-.79.27l-2.58 5.71q-.28.6.34.85l12.73 5.03a.83.82 18.8 0 0 1.1-.54q.59-2.09 1.57-4.22.48-1.02.27-1.66-.34-1.02-1.66-1-.46 0-.61.43l-1.03 2.88q-.2.53-.73.32l-3.51-1.42a.64.63 24.5 0 1-.33-.88m143.76 22.83q-20.05-12.22-40.53-23.75c-1.83-1.03-2.41-1.59-4.51-.37q-20.48 11.85-40.22 23.6a4.1 4.09-22.4 0 0-1.88 4.51q5.77 23.02 11.77 45.7c1.16 4.41.75 7.89 6.82 7.94q27.14.23 53.67-.22a3.04 3.04 0 0 0 2.89-2.28l13.31-51.89a2.95 2.93 23 0 0-1.32-3.24M48.99 91.73a1.16 1.16 0 0 0-2.21-.11l-5.73 15.31a1.16 1.16 0 0 0 1.75 1.36l8.2-5.66a1.16 1.16 0 0 0 .47-1.24zm169.61 16.54a1.12 1.12 0 0 0 1.65-1.34l-5.84-15.22a1.12 1.12 0 0 0-2.12.11l-2.64 9.74a1.12 1.12 0 0 0 .47 1.24zm7.18-10.81c.95 4.02 4.26 11.14 9.2 6.3 1.81-1.78 3.58-.78 5.15-1.99 2.4-1.87.98-6.1-.07-8.67q-.14-.35-.5-.24l-13.49 4.11q-.38.11-.29.49m-207.35 7.18 12.99 3.43a.8.8 0 0 0 .98-.57l.35-1.32a7.67 7.44-75.2 0 0-5.24-9.32l-.15-.04a7.67 7.44-75.2 0 0-9.15 5.52l-.35 1.32a.8.8 0 0 0 .57.98m226.558 6.091a7.69 5.79-9.8 0 0-8.564-4.396 7.69 5.79-9.8 0 0-6.592 7.014 7.69 5.79-9.8 0 0 8.564 4.397 7.69 5.79-9.8 0 0 6.592-7.015M23.97 113.18l.36-3.41q.08-.69-.58-.9l-1.33-.45a.58.57 13.8 0 0-.74.44l-.65 3.81q-.1.58-.69.58h-.82a.59.58-84.3 0 1-.57-.7q.29-1.51.41-3.24a1.28 1.28 0 0 0-2.53-.32l-1.08 5.82a.68.68 0 0 0 .55.79l13.63 2.26q.58.1.67-.49l1-6.13a.64.64 0 0 0-.63-.74h-1.45q-.57 0-.69.55l-.6 2.81a.76.75-78.2 0 1-.88.58l-2.85-.55a.65.64 8.5 0 1-.53-.71m52.28 2.17-18.4-6.8a1.43 1.42 38.3 0 0-1.3.15q-8.28 5.55-16.79 11.33-.93.64-1.13 2.72-3.61 37.75 19.48 66.68a1.96 1.95 71 0 0 1.51.74l19.41.28a3.63 3.62-71.2 0 0 2.97-1.47l9.81-13.17a3.02 3.01-33.8 0 0 .51-2.56l-13.93-55.51a3.44 3.44 0 0 0-2.14-2.39m144.31 4.09q-7.92-5.5-16.15-10.87a1.02 1.01-38 0 0-.92-.11q-8.42 3.14-16.85 6.29c-1.98.74-3.5 1.98-3.99 3.92q-6.57 25.8-13.24 51.56c-.65 2.48-.74 4.42.88 6.65q4.78 6.58 9.53 12.55a2.81 2.81 0 0 0 2.24 1.06l19.5-.33a1.04 1.01-66.5 0 0 .71-.29q2.11-2.04 4.24-5.09 15.42-22.13 16.87-48.77c.21-3.8.61-14.19-2.82-16.57m-205.46.54q-.39 2.6-.48 5.49-.01.59.57.64l13.57 1.34q.58.06.67-.52l.25-1.83a.69.69 0 0 0-.65-.79l-6-.36a.63.62-85.9 0 1-.58-.68l.36-3.83a.63.62-87.1 0 0-.62-.69h-.91a1.18 1.18 0 0 0-1.17 1.03l-.42 3.14a.97.97 0 0 1-1.94-.13v-2.61a1.33 1.33 0 0 0-2.65-.2m219.19 4.19a.58.58 0 0 1 .52-.63l10.92-.91a.58.58 0 0 0 .53-.59l-.03-2.01a.58.58 0 0 0-.63-.57l-13.79 1.17a.58.58 0 0 0-.53.62l.4 6.53a.58.58 0 0 0 .7.53l1.75-.38a.58.58 0 0 0 .45-.62zM126.27 232.39c-53.31-3.94-93.37-43.8-96.08-97.12a1.39 1.39 0 0 0-1.45-1.32l-13.98.65a1.38 1.38 0 0 0-1.32 1.45c2.98 60.22 50.57 111.22 112.3 112.94q1.75.04 1.75-1.7v-13.58a1.32 1.32 0 0 0-1.22-1.32m119.88-97.83-14.15-.37a1.11 1.11 0 0 0-1.14 1.05q-1.99 37.08-26.46 64.65-.4.44.02.86l10.7 10.55q.48.47.93-.02 29.43-31.88 31.13-75.61a1.06 1.06 0 0 0-1.03-1.11m-83.32 45.7a1.9 1.88 71.3 0 0-1.51-.76h-60.83a2.97 2.96-71.2 0 0-2.35 1.16l-10.38 13.59a3.05 3.05 0 0 0-.51 2.67q2.56 8.98 4.53 18.03c.17.77 1.11 1.74 1.94 2.08q33.46 13.89 68.22 2.16 3.75-1.26 6.64-2.89.45-.26.56-.76c1.35-6.15 4.58-13.88 4.74-19.96a1.54 1.53 27.5 0 0-.3-.94zm-94.64 18.15a.99.99 0 0 0-.59 1.78l13.09 10.04a.99.99 0 0 0 1.56-1.03l-2.56-10.21a.99.99 0 0 0-.97-.75zm110.7 10.7a1 1 0 0 0 1.57 1.05l13.13-10.11a1 1 0 0 0-.61-1.79l-10.45.01a1 1 0 0 0-.97.74zm31.12 8.25q.42-1-.22-1.65-5.08-5.19-10.09-10.11a.82.82 0 0 0-1.11-.03q-27.3 24.44-64.15 26.69a1 1 0 0 0-.94 1v14.73a1.16 1.15-1.9 0 0 1.23 1.15q43.26-2.65 75.14-31.58a.73.63-14.2 0 0 .14-.2"/><path fill="#045da3" d="m129.04 24.1.17 5.56q.02.69-.67.74l-1.78.12q-.61.04-.61-.58l.14-13.48a1.06 1.06 0 0 1 1.6-.9c2.52 1.47 2.16 5.43 3.1 7.85a.52.52 0 0 0 .94.06l4.09-7.35a1.19 1.19 0 0 1 2.23.57v12.59a1.34 1.34 0 0 1-.55 1.08q-1.33.95-2.09.1-.42-.47-.37-1.46.14-2.66-.05-5.03a.39.39 0 0 0-.73-.14L132.37 28a.68.68 0 0 1-1.09.18q-1.69-1.69-1.23-4.14a.25.24 4.6 0 0-.25-.29h-.41q-.36-.01-.35.35"/><path fill="#045da3" d="M118.814 31.665a7.8 5.79 83.2 0 1-6.673-7.06 7.8 5.79 83.2 0 1 4.825-8.43 7.8 5.79 83.2 0 1 6.673 7.06 7.8 5.79 83.2 0 1-4.825 8.43m-.365-3.086a4.76 2.5 83.5 0 0 1.945-5.012 4.76 2.5 83.5 0 0-3.023-4.446 4.76 2.5 83.5 0 0-1.945 5.012 4.76 2.5 83.5 0 0 3.023 4.446M150.21 24.55c3.59 7.48-4.93 7.41-9.2 6.45a.69.69 0 0 1-.53-.76l1.92-13.48q.07-.49.57-.46c3.83.23 10.34 1.78 7.27 7.29q-.26.47-.03.96m-2.864-2.531a1.51 1.4 45.6 0 0-.056-2.058 1.51 1.4 45.6 0 0-2.056-.1 1.51 1.4 45.6 0 0 .056 2.058 1.51 1.4 45.6 0 0 2.057.1M144.3 24.97l-.02 3.36a.44.44 0 0 0 .43.45h.1a2.92 1.99.5 0 0 2.94-1.96v-.26a2.92 1.99.5 0 0-2.9-2.02h-.1a.44.44 0 0 0-.45.43"/><rect width="3.2" height="15.06" x="-1.6" y="-7.53" fill="#045da3" rx="1.04" transform="rotate(14.1 -27.919 641.55)"/><path fill="#045da3" d="m107.63 30.55 2.56-.81a.96.95-40 0 1 .75.06q1.23.63 1 2.09-.09.56-.64.69l-6.14 1.37q-.64.15-.79-.49l-3.04-13.08a.91.91 0 0 1 .53-1.04q1.19-.5 1.92-.28.61.18.84 1.33.99 4.86 2.17 9.69a.66.65 74 0 0 .84.47"/><ellipse fill="#fff" rx="4.76" ry="2.5" transform="rotate(83.5 45.594 77.978)"/><ellipse fill="#fff" rx="1.51" ry="1.4" transform="rotate(45.6 48.238 184.475)"/><path fill="#045da3" d="M158.31 34.52q-1.32-.49-.79-1.33 3.68-5.84 7.5-11.28a1.79 1.79 0 0 1 3.26 1.09l-.44 13.52a.98.97-84.6 0 1-1.13.94q-1.99-.32-2.18-2.38-.04-.4-.37-.65-2.16-1.64-4.35-.11a1.65 1.62 36.8 0 1-1.5.2m4.75-3.44 1.33.42a.42.42 0 0 0 .53-.27l.04-.12a4.47 1.08-72.3 0 0 .33-4.59l-.07-.02a4.47 1.08-72.3 0 0-2.39 3.93l-.04.12a.42.42 0 0 0 .27.53M97.713 36.56a7.79 5.8 71.1 0 1-8.01-5.491 7.79 5.8 71.1 0 1 2.964-9.249 7.79 5.8 71.1 0 1 8.01 5.491 7.79 5.8 71.1 0 1-2.964 9.249m-.956-2.82a4.82 2.57 70.4 0 0 .804-5.402 4.82 2.57 70.4 0 0-4.038-3.679 4.82 2.57 70.4 0 0-.804 5.403 4.82 2.57 70.4 0 0 4.038 3.679"/><ellipse fill="#fff" rx="4.82" ry="2.57" transform="rotate(70.4 26.873 82.035)"/><path fill="#fff" d="M144.3 24.97a.44.44 0 0 1 .45-.43h.1a2.92 1.99.5 0 1 2.9 2.02v.26a2.92 1.99.5 0 1-2.94 1.96h-.1a.44.44 0 0 1-.43-.45z"/><path fill="#045da3" d="M174.37 33.16c-.59 1.6-1.55 6.42-3.87 5.72a1.62 1.61-68.6 0 1-.98-2.25l5.44-11.24a1.12 1.12 0 0 1 2.11.31l1.38 8.2a.4.4 0 0 0 .76.1l2.33-5.22q.5-1.12 1.63-.65 1.71.71 1.02 2.12-2.78 5.68-5.11 11.27a1.23 1.23 0 0 1-1.37.73q-1.1-.22-1.47-.79-.23-.36 0-1.41.72-3.28-.95-6.93a.5.5 0 0 0-.92.04M89.59 37.05a.74.73 79.6 0 1 .79.55q.46 1.72-1.18 2.18c-8.67 2.41-13.46-11.94-5.42-14.07a1.21 1.2-68.4 0 1 .94 2.19q-2.02 1.26-1.69 4.01.71 5.79 6.56 5.14"/><path fill="#fff" d="M163.06 31.08a.42.42 0 0 1-.27-.53l.04-.12a4.47 1.08-72.3 0 1 2.39-3.93l.07.02a4.47 1.08-72.3 0 1-.33 4.59l-.04.12a.42.42 0 0 1-.53.27z"/><path fill="#045da3" d="m72.39 39-3.24-4.57q-.45-.62.17-1.07l1.38-1.03a.65.65 0 0 1 .93.16l7.33 10.79a1.53 1.52-89 0 1-2.16 2.09q-3.37-2.47-7.38-3.71-.96-.3-.39.53l3.43 5.03q.92 1.35-.49 2.18-1.34.79-2.06-.32-3.53-5.47-7.11-10.88a.95.94 82.6 0 1 1.09-1.42L72 39.53a.35.35 0 0 0 .39-.53M185.06 44.25q-1.56-.39-3.01.34a1.4 1.4 0 0 1-1.54-2.32l10.19-8.61a1.57 1.57 0 0 1 2.53 1.6l-3.43 13.2a.74.73-78.2 0 1-.82.54q-1.95-.31-1.96-2.25a2.61 2.59 7.1 0 0-1.96-2.5m1.07-3.04a.34.34 0 0 0 .06.53l1.59 1.02a.34.34 0 0 0 .5-.17l1.47-4.04a.34.34 0 0 0-.55-.36z"/><path fill="#fff" d="m186.13 41.21 3.07-3.02a.34.34 0 0 1 .55.36l-1.47 4.04a.34.34 0 0 1-.5.17l-1.59-1.02a.34.34 0 0 1-.06-.53"/><path fill="#f5313f" d="M139.31 39.34q.36.05.42.4.15.79-.5 1.26-4.18 3.03-8.44 5.97-.36.25-.71-.02l-8.35-6.33a.73.73 0 0 1 .33-1.3q8.62-1.27 17.25.02"/><ellipse fill="#045da3" rx="1.29" ry=".89" transform="rotate(95.1 8.003 45.396)"/><path fill="#045da3" d="M202.35 41.47a.81.81 0 0 1 1.14-.06l1.03.91a7.56 7.1 41.6 0 1 .94 10.32l-.53.6a7.56 7.1 41.6 0 1-10.37.29l-1.03-.91a.81.81 0 0 1-.06-1.14zm.51 3.8-5.3 6.26a.18.18 0 0 0 .03.26l.06.05a4.12 3.3-49.8 0 0 5.18-1.02l.2-.24a4.12 3.3-49.8 0 0 .14-5.28l-.06-.05a.18.18 0 0 0-.25.02"/><path fill="#f5313f" d="M124.31 52.44c1.68 1.33 2.67 1.79 2.68 4.18q.03 11.99 0 23.46a3.23 3.23 0 0 1-1.62 2.8l-43.3 24.98a3.02 3.01-51 0 1-2.41.26q-8.83-2.75-17.86-6.48c-1.59-.66-2.27-1.65-2.68-3.22q-2.22-8.65-4.82-17.19c-.38-1.24-.3-1.96.5-3.06q20.38-28.05 54.15-36.65a1.66 1.64 55.8 0 1 1.38.27q7.21 5.28 13.98 10.65M152.09 41.46c21.95 5.22 42.36 19.26 55.01 37.96a1.22 1.21-54.2 0 1 .16 1.02l-5.57 19.58a1.34 1.33 81.8 0 1-.56.75q-1.46.93-3.63 1.72c-6.62 2.43-15.6 7.07-19.51 4.78q-20.93-12.22-41.89-24.31a3.69 3.68-75.2 0 1-1.85-3.2V56.19a3.96 3.93 71.8 0 1 1.59-3.17l15.31-11.37a1.12 1.1 33 0 1 .94-.19"/><path fill="#045da3" d="M65.362 54.951a7.7 5.78 49 0 1-9.414-2.019 7.7 5.78 49 0 1-.69-9.603 7.7 5.78 49 0 1 9.414 2.019 7.7 5.78 49 0 1 .69 9.603m-2.039-2.232a4.75 2.55 50 0 0-1.1-5.278 4.75 2.55 50 0 0-5.006-2 4.75 2.55 50 0 0 1.1 5.278 4.75 2.55 50 0 0 5.006 2"/><ellipse fill="#fff" rx="4.75" ry="2.55" transform="rotate(50 -22.491 89.165)"/><path fill="#fff" d="M202.86 45.27a.18.18 0 0 1 .25-.02l.06.05a4.12 3.3-49.8 0 1-.14 5.28l-.2.24a4.12 3.3-49.8 0 1-5.18 1.02l-.06-.05a.18.18 0 0 1-.03-.26z"/><rect width="14.96" height="3.12" x="-7.48" y="-1.56" fill="#045da3" rx=".97" transform="rotate(44.3 -41.628 93.09)"/><path fill="#045da3" d="M211.45 54.44q.24 1.68 1.79 2.58.41.25.5.72.29 1.68-1.19 2.25a.84.81-32 0 1-.88-.19l-2.36-2.44a.56.55-44.6 0 0-.79 0l-2.26 2.26q-.49.49-.01.98l1.94 1.97q.42.44-.01.87l-1.02 1.03a.81.81 0 0 1-1.17-.03l-3.46-3.76a1.5 1.49 47.3 0 1 .08-2.11l9.44-8.85a.55.54 46.8 0 1 .78.03l4.17 4.51q.47.5-.05.96l-1.22 1.07a.58.57-43.8 0 1-.78-.01l-2.49-2.36a.6.6 0 0 0-1.01.52M50.06 63.69q1.21.39 2.7-.84.37-.31.85-.36 1.52-.16 1.97 1.25.12.38-.14.67c-6.02 6.58-16.16-1.37-11.87-9.89a.62.61-64.3 0 1 .8-.29l1.08.48q.59.26.4.88-1.94 6.13 4.21 8.1M217.49 67.79l-5.04 3.74q-.4.3-.71-.09l-1.21-1.5a.71.71 0 0 1 .14-1.02l11.32-8.23a.52.52 0 0 1 .74.14l3.33 5.04a1.27 1.27 0 0 1-1.96 1.6l-1.38-1.38q-.33-.33-.74-.55-1.24-.69-1.52.2a.68.68 0 0 0 .14.66q1.28 1.4 1.75 2.62a1.32 1.32 0 0 1-2.29 1.26l-1.74-2.37q-.36-.47-.83-.12M48.6 72.37c-2.39.05-5.28 1.81-3.21 4.45a.7.7 0 0 1-.09.95l-1.27 1.12q-.4.36-.75-.05c-2.28-2.72-7.95-8.47-8.8-11.66a1.32 1.32 0 0 1 1.65-1.61L49 69.4a1.52 1.52 0 0 1-.4 2.97m-6.65.57a.41.41 0 0 0 .65-.03l1.09-1.55a.41.41 0 0 0-.2-.62l-3.4-1.23a.41.41 0 0 0-.46.65z"/><path fill="#fff" d="m41.95 72.94-2.32-2.78a.41.41 0 0 1 .46-.65l3.4 1.23a.41.41 0 0 1 .2.62l-1.09 1.55a.41.41 0 0 1-.65.03"/><path fill="#045da3" d="M221.58 77.15a2.27 2.27 0 0 0-.77 3.22c1.01 1.53 2.4 1.24 3.85.39q3.59-2.11 7-3.8a1.34 1.34 0 0 1 1.8.61q.69 1.41-.51 2.15c-3.47 2.14-10.07 7.2-13.82 3.06-5.78-6.38 4.8-10.46 8.71-12.81a.74.73-40.6 0 1 .85.06l1.18.95a.91.91 0 0 1-.12 1.49z"/><ellipse fill="#045da3" rx="1.33" ry="1" transform="rotate(5.1 -705.586 2659.151)"/><path fill="#045da3" d="M38.21 84.79q1.74.32 1.82 2.07a1.28 1.28 0 0 1-1.87 1.19L26.4 81.93a.58.57-65.3 0 1-.27-.74c1.14-2.67 4.76-8.93 8.42-5.54 1.62 1.51.98 4 .34 5.9q-.24.71.49.53l7.15-1.74q.6-.15.5.47-.55 3.43-3.97 2.93-.37-.06-.63.21l-.37.36a.28.28 0 0 0 .15.48M30 80.48l1.5.76a.47.47 0 0 0 .63-.2l.08-.16a2.84 1.18-63.1 0 0 .23-3.06l-.23-.12a2.84 1.18-63.1 0 0-2.34 2l-.07.15a.47.47 0 0 0 .2.63"/><path fill="#fff" d="M30 80.48a.47.47 0 0 1-.2-.63l.07-.15a2.84 1.18-63.1 0 1 2.34-2l.23.12a2.84 1.18-63.1 0 1-.23 3.06l-.08.16a.47.47 0 0 1-.63.2z"/><path fill="#045da3" d="m223.84 92.43-.74-1.64q-.25-.54.3-.77l9.96-4.22q.61-.26.36-.87l-.49-1.19a1.21 1.2 67.9 0 1 .67-1.59q1.19-.47 1.73.63 1.55 3.15 3.14 6.3a.63.63 0 0 1-.25.83l-1.29.76a.75.74-28.2 0 1-1.04-.31l-.8-1.58a.58.58 0 0 0-.75-.26l-9.79 4.29q-.69.31-1.01-.38M30.11 92.07l3.51 1.42q.53.21.73-.32l1.03-2.88q.15-.43.61-.43 1.32-.02 1.66 1 .21.64-.27 1.66-.98 2.13-1.57 4.22a.83.82 18.8 0 1-1.1.54l-12.73-5.03q-.62-.25-.34-.85l2.58-5.71q.25-.56.79-.27l1.33.72a.62.62 0 0 1 .2.93q-.95 1.23-1.1 2.74a1.02 1.02 0 0 0 1.97.48l1.16-2.95q.26-.66.92-.39l1.39.58a.61.61 0 0 1 .31.84l-1.41 2.82a.64.63 24.5 0 0 .33.88"/><path fill="#f5313f" d="M173.54 114.02a2.95 2.93 23 0 1 1.32 3.24l-13.31 51.89a3.04 3.04 0 0 1-2.89 2.28q-26.53.45-53.67.22c-6.07-.05-5.66-3.53-6.82-7.94q-6-22.68-11.77-45.7a4.1 4.09-22.4 0 1 1.88-4.51q19.74-11.75 40.22-23.6c2.1-1.22 2.68-.66 4.51.37q20.48 11.53 40.53 23.75M48.99 91.73l2.48 9.66a1.16 1.16 0 0 1-.47 1.24l-8.2 5.66a1.16 1.16 0 0 1-1.75-1.36l5.73-15.31a1.16 1.16 0 0 1 2.21.11M218.6 108.27l-8.48-5.47a1.12 1.12 0 0 1-.47-1.24l2.64-9.74a1.12 1.12 0 0 1 2.12-.11l5.84 15.22a1.12 1.12 0 0 1-1.65 1.34"/><path fill="#045da3" d="M234.98 103.76c-4.94 4.84-8.25-2.28-9.2-6.3q-.09-.38.29-.49l13.49-4.11q.36-.11.5.24c1.05 2.57 2.47 6.8.07 8.67-1.57 1.21-3.34.21-5.15 1.99m.95-4.47q3.46 1.05 2.59-2.48-.16-.63-.76-.39l-1.91.74a1.13 1.13 0 0 0 .08 2.13m-3.31-1.07-2.6.85a.75.75 0 0 0-.48.95l.04.12a2.66 1.99 71.9 0 0 2.72 1.91l.24-.08a2.66 1.99 71.9 0 0 1.07-3.14l-.04-.13a.75.75 0 0 0-.95-.48"/><path fill="#fff" d="M235.93 99.29a1.13 1.13 0 0 1-.08-2.13l1.91-.74q.6-.24.76.39.87 3.53-2.59 2.48"/><path fill="#045da3" d="M18.43 104.64a.8.8 0 0 1-.57-.98l.35-1.32a7.67 7.44-75.2 0 1 9.15-5.52l.15.04a7.67 7.44-75.2 0 1 5.24 9.32l-.35 1.32a.8.8 0 0 1-.98.57zm3.07-2.35 8.19 2.2a.18.18 0 0 0 .22-.13l.02-.06a4.25 3.36 15 0 0-3.24-4.34l-.33-.09a4.25 3.36 15 0 0-4.97 2.14l-.02.06a.18.18 0 0 0 .13.22"/><path fill="#fff" d="M232.62 98.22a.75.75 0 0 1 .95.48l.04.13a2.66 1.99 71.9 0 1-1.07 3.14l-.24.08a2.66 1.99 71.9 0 1-2.72-1.91l-.04-.12a.75.75 0 0 1 .48-.95zM21.5 102.29a.18.18 0 0 1-.13-.22l.02-.06a4.25 3.36 15 0 1 4.97-2.14l.33.09a4.25 3.36 15 0 1 3.24 4.34l-.02.06a.18.18 0 0 1-.22.13z"/><path fill="#045da3" d="M244.988 110.731a7.69 5.79-9.8 0 1-6.593 7.015 7.69 5.79-9.8 0 1-8.563-4.397 7.69 5.79-9.8 0 1 6.593-7.014 7.69 5.79-9.8 0 1 8.563 4.396m-2.75.544a4.9 2.47-9.1 0 0-5.229-1.664 4.9 2.47-9.1 0 0-4.447 3.214 4.9 2.47-9.1 0 0 5.229 1.664 4.9 2.47-9.1 0 0 4.447-3.214M24.5 113.89l2.85.55a.76.75-78.2 0 0 .88-.58l.6-2.81q.12-.55.69-.55h1.45a.64.64 0 0 1 .63.74l-1 6.13q-.09.59-.67.49L16.3 115.6a.68.68 0 0 1-.55-.79l1.08-5.82a1.28 1.28 0 0 1 2.53.32q-.12 1.73-.41 3.24a.59.58-84.3 0 0 .57.7h.82q.59 0 .69-.58l.65-3.81a.58.57 13.8 0 1 .74-.44l1.33.45q.66.21.58.9l-.36 3.41a.65.64 8.5 0 0 .53.71"/><path fill="#f5313f" d="M76.25 115.35a3.44 3.44 0 0 1 2.14 2.39l13.93 55.51a3.02 3.01-33.8 0 1-.51 2.56L82 188.98a3.63 3.62-71.2 0 1-2.97 1.47l-19.41-.28a1.96 1.95 71 0 1-1.51-.74q-23.09-28.93-19.48-66.68.2-2.08 1.13-2.72 8.51-5.78 16.79-11.33a1.43 1.42 38.3 0 1 1.3-.15zM220.56 119.44c3.43 2.38 3.03 12.77 2.82 16.57q-1.45 26.64-16.87 48.77-2.13 3.05-4.24 5.09a1.04 1.01-66.5 0 1-.71.29l-19.5.33a2.81 2.81 0 0 1-2.24-1.06q-4.75-5.97-9.53-12.55c-1.62-2.23-1.53-4.17-.88-6.65q6.67-25.76 13.24-51.56c.49-1.94 2.01-3.18 3.99-3.92q8.43-3.15 16.85-6.29a1.02 1.01-38 0 1 .92.11q8.23 5.37 16.15 10.87"/><ellipse fill="#fff" rx="4.9" ry="2.47" transform="rotate(-9.1 822.71 -1435.559)"/><path fill="#045da3" d="M15.1 119.98a1.33 1.33 0 0 1 2.65.2v2.61a.97.97 0 0 0 1.94.13l.42-3.14a1.18 1.18 0 0 1 1.17-1.03h.91a.63.62-87.1 0 1 .62.69l-.36 3.83a.63.62-85.9 0 0 .58.68l6 .36a.69.69 0 0 1 .65.79l-.25 1.83q-.09.58-.67.52l-13.57-1.34q-.58-.05-.57-.64.09-2.89.48-5.49M234.29 124.17l.29 3.14a.58.58 0 0 1-.45.62l-1.75.38a.58.58 0 0 1-.7-.53l-.4-6.53a.58.58 0 0 1 .53-.62l13.79-1.17a.58.58 0 0 1 .63.57l.03 2.01a.58.58 0 0 1-.53.59l-10.92.91a.58.58 0 0 0-.52.63"/><path fill="#f6e200" d="M126.27 232.39a1.32 1.32 0 0 1 1.22 1.32v13.58q0 1.74-1.75 1.7c-61.73-1.72-109.32-52.72-112.3-112.94a1.38 1.38 0 0 1 1.32-1.45l13.98-.65a1.39 1.39 0 0 1 1.45 1.32c2.71 53.32 42.77 93.18 96.08 97.12"/><path fill="#f5313f" d="M246.15 134.56a1.06 1.06 0 0 1 1.03 1.11q-1.7 43.73-31.13 75.61-.45.49-.93.02l-10.7-10.55q-.42-.42-.02-.86 24.47-27.57 26.46-64.65a1.11 1.11 0 0 1 1.14-1.05zM162.83 180.26l10.75 14.38a1.54 1.53 27.5 0 1 .3.94c-.16 6.08-3.39 13.81-4.74 19.96q-.11.5-.56.76-2.89 1.63-6.64 2.89-34.76 11.73-68.22-2.16c-.83-.34-1.77-1.31-1.94-2.08q-1.97-9.05-4.53-18.03a3.05 3.05 0 0 1 .51-2.67l10.38-13.59a2.97 2.96-71.2 0 1 2.35-1.16h60.83a1.9 1.88 71.3 0 1 1.51.76M68.19 198.41l10.53-.17a.99.99 0 0 1 .97.75l2.56 10.21a.99.99 0 0 1-1.56 1.03L67.6 200.19a.99.99 0 0 1 .59-1.78M178.89 209.11l2.67-10.1a1 1 0 0 1 .97-.74l10.45-.01a1 1 0 0 1 .61 1.79l-13.13 10.11a1 1 0 0 1-1.57-1.05"/><path fill="#045da3" d="M210.01 217.36a.73.63-14.2 0 1-.14.2q-31.88 28.93-75.14 31.58a1.16 1.15-1.9 0 1-1.23-1.15v-14.73a1 1 0 0 1 .94-1q36.85-2.25 64.15-26.69a.82.82 0 0 1 1.11.03q5.01 4.92 10.09 10.11.64.65.22 1.65"/></svg>