<svg xmlns="http://www.w3.org/2000/svg" viewBox="0 0 753.65 1080"><defs><linearGradient id="linear-gradient" x1="376.82" x2="376.82" y1="386.03" y2="13.45" gradientUnits="userSpaceOnUse"><stop offset="0" stop-color="#ffd89f"/><stop offset="1" stop-color="#f9b443"/></linearGradient><style>.cls-1{fill:#ffd44d}.cls-1,.cls-2{fill-rule:evenodd}.cls-2,.cls-5{fill:#007fff}.cls-4{fill:#132f51}.cls-6{fill:#fff}</style></defs><g id="Layer_2" data-name="Layer 2"><g id="Layer_1-2" data-name="Layer 1"><path id="path14" d="M376.82 182.24s-152.43 9.9-293-73.24L6.63 169.37s72.26 122.74 38.61 241.52S-76.74 788 151.15 911.73C358 1024 376.82 1080 376.82 1080s18.85-56 225.68-168.27C830.39 788 742.06 529.66 708.41 410.89S747 169.37 747 169.37L669.8 109c-140.55 83.14-293 73.24-293 73.24Z" class="cls-1"/><path d="M602.5 911.73C395.66 1024 376.82 1080 376.82 1080S360.2 1030.62 187 931.68l521.26-521.29c0 .16.1.33.14.5C742.07 529.67 830.39 788 602.5 911.73M701 133.4 34.69 799.75c-71.2-130.67-14.8-299.37 10.55-388.86 33.64-118.78-38.6-241.52-38.6-241.52L83.84 109c140.56 83.15 293 73.25 293 73.25s152.43 9.9 293-73.25Z" class="cls-2"/><path d="M702.08 381 164.23 918.89q-6.4-3.55-13.08-7.16c-46.37-25.17-79.66-55.92-103-89.94L721 149l26 20.37S686.36 272.41 702.08 381" style="fill-rule:evenodd;fill:#ce1021"/><path d="M735.52 672.4c-5.95 102.31-52.17 175.56-141.36 224-136.11 73.86-193.43 124.84-217.34 152.89-23.91-28-81.22-79-217.34-152.89C70.3 848 24.07 774.71 18.11 672.4 13 585.17 39.34 494.31 56.71 434.19c1.89-6.49 3.69-12.69 5.34-18.55C91 313.31 47.23 210.44 29 174.1L85.33 130c112.9 63.1 229.78 70.07 275.75 70.07 8.06 0 13.5-.23 15.74-.34 2.24.11 7.69.34 15.75.34 46 0 162.84-7 275.75-70.07l56.35 44.09c-18.25 36.34-62.07 139.21-33.08 241.54 1.66 5.86 3.46 12.06 5.34 18.55 17.38 60.13 43.67 150.99 38.59 238.22" class="cls-1"/><path d="M518 328.7c-1.16 2.66-2.27 5.25-3.27 7.73 94.65 49.78 159.33 149.13 159.33 263.29a295.63 295.63 0 0 1-62.28 181.86l7.31 4.25a304.17 304.17 0 0 0 63.35-186.11c.03-117.61-66.78-219.94-164.44-271.02m-446.85 271a304.2 304.2 0 0 0 60.67 182.59l5.23-7a295.67 295.67 0 0 1-57.5-175.57c0-114.16 64.69-213.51 159.33-263.29-1-2.48-2.11-5.07-3.26-7.73C138 379.78 71.18 482.11 71.18 599.72ZM192.17 833.67l26 19.55-7.84 10.44-26-19.54-15.33 20.5-13-9.78 42.22-56.25 42.51 31.9-7.84 10.45-29.56-22.14Zm99.27 33.57 5.19-12-48.78-21.12-27.95 64.57 50 21.63 5.19-12-35.13-15.21 6.47-14.94 30 13 5-11.62-30-13 6.07-14Zm24.9 18.91a21.1 21.1 0 0 1 5.73-6.32 20.7 20.7 0 0 1 7.76-3.46 24.8 24.8 0 0 1 9.19-.18 22.8 22.8 0 0 1 9.21 3.54 24.5 24.5 0 0 1 7 7.36l11.83-7.9a32.2 32.2 0 0 0-10.81-11.12 41.7 41.7 0 0 0-15.84-5.7 42.2 42.2 0 0 0-15.4.27 36 36 0 0 0-13.14 5.61 34.7 34.7 0 0 0-9.74 10.16 38.5 38.5 0 0 0-4.54 28.79 35.12 35.12 0 0 0 16.87 22 42 42 0 0 0 14.53 5 41.2 41.2 0 0 0 16.92-.59 32.7 32.7 0 0 0 13.72-7.29l-8.82-11.16a24.05 24.05 0 0 1-8.92 5 22.4 22.4 0 0 1-9.85.53 24.7 24.7 0 0 1-8.68-3A20.5 20.5 0 0 1 317 912a21.25 21.25 0 0 1-3.51-7.78 26.07 26.07 0 0 1 2.85-18.06Zm133.92 8.54a36.1 36.1 0 0 1-1.26 14.76 34.8 34.8 0 0 1-6.7 12.41 37.1 37.1 0 0 1-11.2 8.94 41.5 41.5 0 0 1-14.81 4.46 42.8 42.8 0 0 1-15.63-.91 36.6 36.6 0 0 1-13.06-6.17 34.7 34.7 0 0 1-9.32-10.55 38 38 0 0 1-3.28-28.75 34.6 34.6 0 0 1 6.7-12.41 37.2 37.2 0 0 1 11.29-9 44.6 44.6 0 0 1 30.4-3.53 36.8 36.8 0 0 1 13 6.18 35.06 35.06 0 0 1 13.94 24.58Zm-16.37 1.91a24.3 24.3 0 0 0-2.71-8.9 21.5 21.5 0 0 0-5.41-6.55 20.1 20.1 0 0 0-7.48-3.78 23.3 23.3 0 0 0-8.86-.59 22.8 22.8 0 0 0-8.45 2.6 20.7 20.7 0 0 0-6.4 5.4 21 21 0 0 0-3.82 7.63 25.88 25.88 0 0 0 2.11 18.11 21.3 21.3 0 0 0 5.42 6.61 20.15 20.15 0 0 0 7.47 3.78 23.3 23.3 0 0 0 8.87.59 23 23 0 0 0 8.44-2.6 20.9 20.9 0 0 0 6.41-5.4 21.2 21.2 0 0 0 3.82-7.63 24.4 24.4 0 0 0 .59-9.27m76.93-29.52-30.22 12.11-6.92-17.26 34.24-13.71-4.86-12.13-49.35 19.77 26.16 65.29 15.11-6-9.53-23.79 30.23-12.1Zm66.47-15.42-26.49 19 3.7 15.9-13.5 9.75-15.56-75.43 13.06-9.37L605 850.3l-13.88 10Zm-11.37-7-24.76-15.36 6.61 28.39Z" class="cls-4"/><circle cx="376.82" cy="599.72" r="234.47" class="cls-5"/><circle cx="376.82" cy="599.72" r="230.28" class="cls-5"/><circle cx="376.82" cy="599.72" r="221.91" class="cls-6"/><circle cx="376.82" cy="599.72" r="213.53" class="cls-5"/><path d="m221.24 566.21-1.56 6.6-28.53-6.73 5.09-21.56 5.3 1.25-3.53 15ZM205.43 563l3.23-13.69 5.3 1.25-3.23 13.69ZM204.13 534.59l-3.48-7.5 2.62-6.52 2.77 9.28Zm25.67 5.18a14.4 14.4 0 0 1-3.92 5.71 11 11 0 0 1-11.63 1.88 11.4 11.4 0 0 1-5-3.69 11.2 11.2 0 0 1-2.21-5.52 12.7 12.7 0 0 1 .92-6.26 12.5 12.5 0 0 1 3.53-5 10.5 10.5 0 0 1 5.3-2.41 12 12 0 0 1 6.38.9 7 7 0 0 1 .78.36l.81.41-6.83 17-3.53-1.42 5.6-13.82.11 2.75a6.2 6.2 0 0 0-3.1-.48 5.2 5.2 0 0 0-2.62 1.07 6.25 6.25 0 0 0-2.19 5.45 5.07 5.07 0 0 0 1.16 2.62 6.6 6.6 0 0 0 2.63 1.82l.93.37a6.4 6.4 0 0 0 3.32.46 5.36 5.36 0 0 0 2.84-1.34 7.9 7.9 0 0 0 2-3 8.4 8.4 0 0 0 .67-3.14 7.6 7.6 0 0 0-.58-2.92l4.79-1.82a10.06 10.06 0 0 1 1.05 4.62 14.4 14.4 0 0 1-1.21 5.4M243.14 513.39l-3.95-2.39-5.67-3.57-5.92-3.07-11.22-6.77 3.37-5.59 26.61 16Zm-3.35 6.19a11.34 11.34 0 0 1-4.2 4.17 10.64 10.64 0 0 1-5.54 1.38 13.46 13.46 0 0 1-10.51-6.34 10.5 10.5 0 0 1-1.36-5.53 11.6 11.6 0 0 1 1.75-5.65 9.64 9.64 0 0 1 3.64-3.62 8.3 8.3 0 0 1 5-.86 15.7 15.7 0 0 1 6.2 2.36 16.5 16.5 0 0 1 5 4.33 8.06 8.06 0 0 1 1.6 4.76 9.77 9.77 0 0 1-1.58 5m-4-3.73a5.75 5.75 0 0 0 .84-2.86 5.4 5.4 0 0 0-.78-2.89 7.61 7.61 0 0 0-5.72-3.45 5.56 5.56 0 0 0-2.89.67 5.7 5.7 0 0 0-2.14 2.09 5.8 5.8 0 0 0-.87 2.9 5.65 5.65 0 0 0 .76 2.88 7.57 7.57 0 0 0 5.72 3.44 5.54 5.54 0 0 0 2.92-.66 5.84 5.84 0 0 0 2.16-2.12M233.34 483.76l-1-8.21 4.54-5.37-.28 9.68Zm22.75 13a14.5 14.5 0 0 1-5.51 4.2 11.2 11.2 0 0 1-6.05.78 11.33 11.33 0 0 1-5.59-2.64 11.47 11.47 0 0 1-3.58-5.07 11.16 11.16 0 0 1-.37-5.93 13.45 13.45 0 0 1 7.76-9.31 10.46 10.46 0 0 1 5.78-.63 12.2 12.2 0 0 1 5.79 2.85c.19.17.4.36.62.59l.64.65-11.8 14-2.91-2.46 9.58-11.36-.75 2.57a6.3 6.3 0 0 0-2.8-1.43 5.2 5.2 0 0 0-2.82.2 5.64 5.64 0 0 0-2.45 1.77 5.75 5.75 0 0 0-1.34 2.72 5.06 5.06 0 0 0 .28 2.85 6.46 6.46 0 0 0 1.93 2.55l.76.65a6.4 6.4 0 0 0 3 1.47 5.3 5.3 0 0 0 3.12-.38 7.9 7.9 0 0 0 2.81-2.2 8.2 8.2 0 0 0 1.62-2.77 7.6 7.6 0 0 0 .36-3l5.12-.22a10.06 10.06 0 0 1-.44 4.71 14.3 14.3 0 0 1-2.76 4.8ZM264.87 486.63 249.63 470l4.59-4.22 4.31 4.69-1.89-.77a7.2 7.2 0 0 1-.08-4.84 11 11 0 0 1 3.14-4.57l4.08 4.44-.6.47-.54.46a5.57 5.57 0 0 0-.16 8.68l7.2 7.83ZM286.85 468.51l-2.58-3.51-.9-.54-4.62-6.46a4.24 4.24 0 0 0-2.95-1.9 5.66 5.66 0 0 0-3.86 1.35 11.3 11.3 0 0 0-2.53 2.54 9.3 9.3 0 0 0-1.5 3l-4.57-2.32a14.1 14.1 0 0 1 2.41-4.24 19.8 19.8 0 0 1 3.86-3.67q4.17-3 7.9-2.72t6.75 4.46l7.54 10.41Zm-5.36 4.3a10.44 10.44 0 0 1-4.19 1.92 6.83 6.83 0 0 1-3.78-.29 6.2 6.2 0 0 1-2.85-2.22 6.27 6.27 0 0 1-1.27-3.43 6.42 6.42 0 0 1 1.14-3.74 15.2 15.2 0 0 1 4-4l4.85-3.52 2.24 3.09-4.27 3.09a4.9 4.9 0 0 0-2.12 2.47 2.41 2.41 0 0 0 .41 2 2.34 2.34 0 0 0 2 1 4.46 4.46 0 0 0 2.62-1 5.63 5.63 0 0 0 1.92-2.35 4.43 4.43 0 0 0 .19-2.95l2.58 1.85a5.84 5.84 0 0 1-.16 4.2 9.45 9.45 0 0 1-3.31 3.88M284.84 449.34l-2.41-4.41 13.7-7.5 2.41 4.41Zm18.76 9.5a8.86 8.86 0 0 1-6.42 1.19q-2.91-.72-4.85-4.24l-9.48-17.34 5.73-3.13 9.42 17.26a3 3 0 0 0 1.72 1.56 2.7 2.7 0 0 0 2.17-.3 4.2 4.2 0 0 0 1.91-2l3.76 3.19a7.3 7.3 0 0 1-1.6 2.1 12.5 12.5 0 0 1-2.36 1.71M303.07 430.31a4.15 4.15 0 0 1-3.11.22 3.56 3.56 0 0 1-2.08-4.76 4.18 4.18 0 0 1 2.27-2.13 4.3 4.3 0 0 1 3.08-.27 3.21 3.21 0 0 1 2 1.86 3.55 3.55 0 0 1 .06 2.92 4.06 4.06 0 0 1-2.22 2.16m7.28 24.83-9-20.64 6-2.62 9 20.65ZM330.68 447.79a13.2 13.2 0 0 1-6.55.41 11.37 11.37 0 0 1-5.4-2.66 11.94 11.94 0 0 1-3.49-11.46 11.3 11.3 0 0 1 3-5.2 14.44 14.44 0 0 1 12.19-3.72 11.43 11.43 0 0 1 5.89 19.33 13.2 13.2 0 0 1-5.64 3.3m-1.56-5.13a5.7 5.7 0 0 0 2.58-1.58 5.35 5.35 0 0 0 1.34-2.66 7 7 0 0 0-.25-3.4 6.86 6.86 0 0 0-1.7-3 5.4 5.4 0 0 0-2.58-1.45 6 6 0 0 0-5.61 1.71 5.5 5.5 0 0 0-1.36 2.64 6.7 6.7 0 0 0 .23 3.43 6.8 6.8 0 0 0 1.72 3 5.4 5.4 0 0 0 2.61 1.46 5.67 5.67 0 0 0 3.02-.15M354.91 419.05a10.54 10.54 0 0 1 4.89.43 7.7 7.7 0 0 1 3.73 2.8 11.5 11.5 0 0 1 2 5.42l1.7 12.78-6.47.86-1.57-11.78a5.8 5.8 0 0 0-1.71-3.83 4.4 4.4 0 0 0-3.52-.84 5.9 5.9 0 0 0-2.67 1 4.52 4.52 0 0 0-1.65 2.23 7.5 7.5 0 0 0-.23 3.49l1.47 11-6.47.86-3-22.33 6.19-.82.82 6.18-1.42-1.66a8.3 8.3 0 0 1 3-3.9 10.74 10.74 0 0 1 4.91-1.89M395.86 442.24a17.6 17.6 0 0 1-6.15-1.77 15 15 0 0 1-4.69-3.68 14.7 14.7 0 0 1-2.8-5.14 15.3 15.3 0 0 1-.54-6.16 15.1 15.1 0 0 1 1.83-5.91 14.2 14.2 0 0 1 3.84-4.43 15.1 15.1 0 0 1 5.35-2.62 17.6 17.6 0 0 1 6.4-.43 17.4 17.4 0 0 1 6.71 2 13.3 13.3 0 0 1 4.73 4.4l-4.75 3.53a10.3 10.3 0 0 0-3.06-2.91 9.3 9.3 0 0 0-3.91-1.28 10.4 10.4 0 0 0-3.81.27 8.5 8.5 0 0 0-3.16 1.6 8.8 8.8 0 0 0-2.25 2.75 10.2 10.2 0 0 0-1.09 3.72 10 10 0 0 0 .28 3.86 9 9 0 0 0 1.62 3.16 8.7 8.7 0 0 0 2.76 2.23 10.3 10.3 0 0 0 3.67 1.06 9.3 9.3 0 0 0 4.09-.43 10 10 0 0 0 3.61-2.24l3.9 4.45a13.6 13.6 0 0 1-5.55 3.33 17.2 17.2 0 0 1-7.03.64M419.07 446.66a13.15 13.15 0 0 1-5.75-3.16 11.43 11.43 0 0 1-3.14-5.14 11.95 11.95 0 0 1 3.19-11.54 11.3 11.3 0 0 1 5.33-2.82 14.42 14.42 0 0 1 12.29 3.4 11.13 11.13 0 0 1 3.15 5.1 11.46 11.46 0 0 1-8.53 14.37 13.3 13.3 0 0 1-6.54-.21m1.43-5.17a5.8 5.8 0 0 0 3 .06 5.4 5.4 0 0 0 2.55-1.54 7.78 7.78 0 0 0 1.78-6.43 5.4 5.4 0 0 0-1.41-2.61 5.8 5.8 0 0 0-2.63-1.51 5.85 5.85 0 0 0-3 0 5.56 5.56 0 0 0-2.57 1.51 7.57 7.57 0 0 0-1.78 6.43 5.5 5.5 0 0 0 1.43 2.63 5.67 5.67 0 0 0 2.63 1.46M455 435.4a10.5 10.5 0 0 1 3.9 3 7.7 7.7 0 0 1 1.65 4.36 11.6 11.6 0 0 1-1.26 5.62l-5.41 11.7-5.88-2.75 5-10.79a5.8 5.8 0 0 0 .6-4.15 4.28 4.28 0 0 0-2.6-2.59 5.8 5.8 0 0 0-2.8-.58 4.48 4.48 0 0 0-2.58 1 7.56 7.56 0 0 0-2.07 2.83l-4.68 10.11-5.87-2.76 9.43-20.4 5.66 2.62-2.62 5.66-.27-2.2a8.4 8.4 0 0 1 4.62-1.7 10.84 10.84 0 0 1 5.18 1.02M461 474.84a24 24 0 0 1-4.62-4.11 13.2 13.2 0 0 1-2.74-4.7l4.79-2.4a10.8 10.8 0 0 0 1.93 3.59 14.4 14.4 0 0 0 3.19 3q2.85 2 5 1.58a6.2 6.2 0 0 0 3.9-2.91l1.92-2.8 3.55-4.42 3.15-4.74 2.75-4 5.11 3.51-10.62 15.47q-3.56 5.18-7.93 5.77c-2.9.42-6.03-.54-9.38-2.84m4.57-8.44a11.9 11.9 0 0 1-3.91-4.33 10.8 10.8 0 0 1-1.19-5.44 11.54 11.54 0 0 1 6.5-9.46 10.47 10.47 0 0 1 5.49-.83 11.85 11.85 0 0 1 5.43 2.11 10.5 10.5 0 0 1 3.49 3.79 7.9 7.9 0 0 1 .79 4.86 13.7 13.7 0 0 1-2.5 5.77 13.5 13.5 0 0 1-4.47 4.37 8.1 8.1 0 0 1-4.82 1 10.55 10.55 0 0 1-4.82-1.84Zm4.11-3.68a6.7 6.7 0 0 0 2.91 1.16 5.2 5.2 0 0 0 2.82-.42 6 6 0 0 0 3.29-4.79 5.16 5.16 0 0 0-.64-2.77 6.7 6.7 0 0 0-2.13-2.3 6.56 6.56 0 0 0-2.91-1.16 5.56 5.56 0 0 0-6.11 5.17 5.24 5.24 0 0 0 .64 2.81 6.5 6.5 0 0 0 2.12 2.3ZM486.53 485.06a13.1 13.1 0 0 1-3.57-5.5 11.44 11.44 0 0 1-.33-6 12 12 0 0 1 8.28-8.65 11.3 11.3 0 0 1 6 .08 14.42 14.42 0 0 1 9.21 8.81 11.25 11.25 0 0 1 .35 6 11.45 11.45 0 0 1-14.32 8.61 13.24 13.24 0 0 1-5.62-3.35m3.7-3.87a5.65 5.65 0 0 0 2.64 1.48 5.4 5.4 0 0 0 3-.13 7.81 7.81 0 0 0 4.61-4.83 5.3 5.3 0 0 0 0-3 5.7 5.7 0 0 0-1.6-2.57 5.64 5.64 0 0 0-2.64-1.48 5.47 5.47 0 0 0-3 .11 6.67 6.67 0 0 0-2.88 1.88 7 7 0 0 0-1.74 2.94 5.5 5.5 0 0 0 0 3 5.8 5.8 0 0 0 1.61 2.6M497.14 495.69 521 475.84l4.18 5-23.9 19.85ZM507.85 510.11a10.5 10.5 0 0 1-1.74-4.27 6.8 6.8 0 0 1 .46-3.76 6.2 6.2 0 0 1 2.35-2.75 6.27 6.27 0 0 1 3.47-1.12 6.5 6.5 0 0 1 3.7 1.31 15.1 15.1 0 0 1 3.78 4.17l3.29 5-3.18 2.1-2.9-4.41a4.9 4.9 0 0 0-2.37-2.22 2.38 2.38 0 0 0-2 .32 2.33 2.33 0 0 0-1.12 1.92 4.38 4.38 0 0 0 .87 2.65 5.53 5.53 0 0 0 2.26 2 4.4 4.4 0 0 0 2.94.32l-2 2.5a5.8 5.8 0 0 1-4.19-.35 9.34 9.34 0 0 1-3.62-3.41m4.06 5.55 3.67-2.42.58-.88 6.57-4.33a4.23 4.23 0 0 0 2-2.87 5.64 5.64 0 0 0-1.18-3.91 11.2 11.2 0 0 0-2.42-2.64 9.5 9.5 0 0 0-2.9-1.63l2.52-4.47a14.2 14.2 0 0 1 4.12 2.6 20 20 0 0 1 3.5 4q2.83 4.31 2.38 8c-.31 2.47-1.9 4.66-4.76 6.55l-10.73 7.07ZM517.12 524.66l20.06-10.25 3 5.82-20.06 10.25Zm24.34-8.77a4.13 4.13 0 0 1-.4-3.09 3.54 3.54 0 0 1 4.62-2.36 4.12 4.12 0 0 1 2.27 2.13 4.3 4.3 0 0 1 .45 3.06 3.2 3.2 0 0 1-1.74 2.16 3.55 3.55 0 0 1-2.91.24 4.07 4.07 0 0 1-2.29-2.14M524.64 541.76a22.2 22.2 0 0 1-1.37-5.41 14 14 0 0 1 .09-4.56l5.16.33a14.8 14.8 0 0 0-.13 4 15 15 0 0 0 1 4.1A6.8 6.8 0 0 0 531 543a1.64 1.64 0 0 0 1.74.33 1.27 1.27 0 0 0 .85-1.11 6.5 6.5 0 0 0-.14-2c-.16-.8-.36-1.68-.58-2.63s-.39-1.92-.53-2.91a10 10 0 0 1 0-2.89 5.33 5.33 0 0 1 1.08-2.51 6.63 6.63 0 0 1 6.62-2 8.1 8.1 0 0 1 3.7 2.4 15.2 15.2 0 0 1 2.92 4.88 22.8 22.8 0 0 1 1.23 4.56 12.7 12.7 0 0 1 .08 4.23l-5.12-.34a11.1 11.1 0 0 0 0-3.54 15 15 0 0 0-.83-3.11 6.46 6.46 0 0 0-1.7-2.75 1.7 1.7 0 0 0-1.77-.39 1.34 1.34 0 0 0-.9 1.14 6.7 6.7 0 0 0 .08 2.05c.14.82.32 1.7.56 2.64a24 24 0 0 1 .53 2.92 10.5 10.5 0 0 1 0 2.86 5.6 5.6 0 0 1-1.05 2.5 5.7 5.7 0 0 1-2.63 1.83 5.85 5.85 0 0 1-3.91.18 8.25 8.25 0 0 1-3.68-2.46 15.9 15.9 0 0 1-2.91-5.12M531.63 564.38a14.5 14.5 0 0 1-.08-6.92 11.13 11.13 0 0 1 3-5.33 11.27 11.27 0 0 1 5.45-2.91 11.4 11.4 0 0 1 6.2.16 11.13 11.13 0 0 1 5 3.24 13.46 13.46 0 0 1 2.8 11.78 10.5 10.5 0 0 1-2.95 5 12 12 0 0 1-5.74 2.94c-.25.06-.53.11-.85.16l-.89.12-4.18-17.81 3.71-.87 3.39 14.47-1.67-2.19a6.25 6.25 0 0 0 2.81-1.39 5.27 5.27 0 0 0 1.53-2.38 5.7 5.7 0 0 0 0-3 5.8 5.8 0 0 0-1.39-2.71 5.14 5.14 0 0 0-2.45-1.47 6.54 6.54 0 0 0-3.2 0l-1 .23a6.4 6.4 0 0 0-3 1.54 5.34 5.34 0 0 0-1.55 2.73 7.76 7.76 0 0 0 .09 3.57 8.4 8.4 0 0 0 1.34 2.96 7.7 7.7 0 0 0 2.16 2.06l-2.88 4.24a10.2 10.2 0 0 1-3.52-3.17 14.5 14.5 0 0 1-2.13-5.05M191.12 633.63a11.37 11.37 0 0 1 .34-5.9 10.5 10.5 0 0 1 3.2-4.73 13.38 13.38 0 0 1 12.05-2.32 10.47 10.47 0 0 1 4.71 3.21 11.6 11.6 0 0 1 2.48 5.36 9.7 9.7 0 0 1-.29 5.14 8.34 8.34 0 0 1-3.12 4 15.9 15.9 0 0 1-6.19 2.39 16.3 16.3 0 0 1-6.61.11 8 8 0 0 1-4.38-2.46 9.9 9.9 0 0 1-2.19-4.8m1.66 6.85 4.52-.87 6.6-1.14 6.46-1.67 12.87-2.47 1.23 6.41L194 646.6Zm3.82-6.75a5.75 5.75 0 0 0 1.28 2.7 5.6 5.6 0 0 0 2.51 1.62 7.52 7.52 0 0 0 6.56-1.26 5.53 5.53 0 0 0 1.71-2.43 5.66 5.66 0 0 0 .19-3 5.77 5.77 0 0 0-1.29-2.74 5.5 5.5 0 0 0-2.49-1.63 7.57 7.57 0 0 0-6.56 1.26 5.6 5.6 0 0 0-1.73 2.44 5.7 5.7 0 0 0-.18 3.04M199.82 665.28a14.5 14.5 0 0 1-.91-6.86 10.94 10.94 0 0 1 7.39-9.19 11.44 11.44 0 0 1 6.18-.59 11.24 11.24 0 0 1 5.33 2.62 13.43 13.43 0 0 1 4.24 11.36 10.5 10.5 0 0 1-2.33 5.33 12.07 12.07 0 0 1-5.35 3.6 8 8 0 0 1-.82.26l-.88.23-6.28-17.18 3.58-1.31 5.11 14-1.93-2a6.3 6.3 0 0 0 2.63-1.72 5.16 5.16 0 0 0 1.23-2.55 6.28 6.28 0 0 0-2-5.52 5.1 5.1 0 0 0-2.61-1.16 6.4 6.4 0 0 0-3.17.4l-1 .34a6.5 6.5 0 0 0-2.77 1.88 5.37 5.37 0 0 0-1.21 2.9 7.8 7.8 0 0 0 .51 3.54 8.6 8.6 0 0 0 1.6 2.78 7.7 7.7 0 0 0 2.39 1.78l-2.35 4.55a9.9 9.9 0 0 1-3.87-2.73 14.3 14.3 0 0 1-2.71-4.76M216.65 698.9l-3.65-5.71 24.64-15.87 12 18.62-4.64 2.95-8.29-12.89Zm13.27-9.16 7.62 11.83-4.54 2.95-7.62-11.83ZM235.43 724.64a13.3 13.3 0 0 1-3.1-5.78 11.5 11.5 0 0 1 .18-6 11.91 11.91 0 0 1 9-7.93 11.3 11.3 0 0 1 6 .58 13.3 13.3 0 0 1 5.34 3.79 13.46 13.46 0 0 1 3.1 5.76 11.16 11.16 0 0 1-.14 6 11.46 11.46 0 0 1-15 7.39 13.3 13.3 0 0 1-5.38-3.81m4-3.55a5.8 5.8 0 0 0 2.5 1.7 5.37 5.37 0 0 0 3 .1 7.78 7.78 0 0 0 5-4.42 5.34 5.34 0 0 0 .24-3 6 6 0 0 0-3.88-4.39 5.53 5.53 0 0 0-3-.14 6.74 6.74 0 0 0-3 1.64 6.84 6.84 0 0 0-2 2.78 5.46 5.46 0 0 0-.24 3 5.77 5.77 0 0 0 1.4 2.73ZM256.78 745.28a13.25 13.25 0 0 1-4-5.23 11.4 11.4 0 0 1-.76-6 11.88 11.88 0 0 1 7.62-9.23 11.3 11.3 0 0 1 6-.37 14.41 14.41 0 0 1 9.83 8.12 11 11 0 0 1-1.82 11.61 11.1 11.1 0 0 1-11 4 13.25 13.25 0 0 1-5.87-2.9m3.41-4.14a5.7 5.7 0 0 0 2.74 1.29 5.4 5.4 0 0 0 3-.36 7.74 7.74 0 0 0 4.25-5.14 5.4 5.4 0 0 0-.22-3 5.7 5.7 0 0 0-1.78-2.44 5.63 5.63 0 0 0-2.74-1.29 5.5 5.5 0 0 0-3 .33 7.59 7.59 0 0 0-4.25 5.14 5.6 5.6 0 0 0 .22 3 5.7 5.7 0 0 0 1.78 2.47M279.47 761.4a8.82 8.82 0 0 1-4.18-5q-.8-2.89 1.34-6.3l10.5-16.75 5.53 3.47-10.45 16.68a3 3 0 0 0-.53 2.26 2.73 2.73 0 0 0 1.32 1.74 4.26 4.26 0 0 0 2.67.69l-.95 4.83a7 7 0 0 1-2.61-.37 11.6 11.6 0 0 1-2.64-1.25m-.87-21 2.67-4.25 13.23 8.29-2.67 4.26ZM289.11 766.84l12.79-28.32 6 2.69-5.39 11.94-3.12 5.9-2.64 6.16-1.9 4.19Zm12 5.78a9.94 9.94 0 0 1-4.14-3.24 8.06 8.06 0 0 1-1.4-4.84 16.3 16.3 0 0 1 1.65-6.4 15.3 15.3 0 0 1 3.78-5.46 8.35 8.35 0 0 1 4.6-2.11 9.75 9.75 0 0 1 5.06.91 11.46 11.46 0 0 1 4.62 3.65 10.46 10.46 0 0 1 2 5.32 13.41 13.41 0 0 1-5.05 11.18 10.7 10.7 0 0 1-5.32 2 11.4 11.4 0 0 1-5.8-1.01m1.18-5.35a5.45 5.45 0 0 0 5.72-.61 6.8 6.8 0 0 0 2.07-2.71 6.7 6.7 0 0 0 .67-3.38 5.5 5.5 0 0 0-1-2.78 5.64 5.64 0 0 0-2.34-1.89 5.73 5.73 0 0 0-3-.52 5.4 5.4 0 0 0-2.75 1.1 6.9 6.9 0 0 0-2.06 2.74 7 7 0 0 0-.69 3.35 5.4 5.4 0 0 0 1 2.81 5.7 5.7 0 0 0 2.38 1.89M324.11 781a10.5 10.5 0 0 1-4.12-2.07 6.87 6.87 0 0 1-2.14-3.12 6.64 6.64 0 0 1 1.83-6.75 6.45 6.45 0 0 1 3.63-1.46 15.2 15.2 0 0 1 5.6.65l5.77 1.58-1 3.67-5.09-1.39a4.9 4.9 0 0 0-3.25-.11 2.41 2.41 0 0 0-1.33 1.59 2.34 2.34 0 0 0 .43 2.18 4.44 4.44 0 0 0 2.41 1.42 5.6 5.6 0 0 0 3 0 4.43 4.43 0 0 0 2.42-1.71l.17 3.18a5.8 5.8 0 0 1-3.38 2.5 9.3 9.3 0 0 1-4.95-.16m6.71 1.49 1.16-4.24-.14-1 2.08-7.59a4.23 4.23 0 0 0-.37-3.49 5.62 5.62 0 0 0-3.47-2.16 11.2 11.2 0 0 0-3.56-.39 9.1 9.1 0 0 0-3.25.69l-1-5a14.1 14.1 0 0 1 4.81-.77 20 20 0 0 1 5.27.71c3.32.91 5.67 2.4 7.07 4.46s1.65 4.75.75 8.06l-3.4 12.39ZM344.13 785.32l4.87-30.69 6.45 1-4.84 30.69ZM357.67 787.19l2.59-31 6.51.55-2.59 31ZM381.66 788.78l9.71-30.58 6.66-.75 16.29 27.66-7.07.8-13.54-24.52 2.67-.3-7.81 26.91Zm5.79-7 1.22-5.32 15-1.68 2.4 4.91ZM426.25 781.9a21.7 21.7 0 0 1-5.53.8 13.6 13.6 0 0 1-4.52-.56l.86-5.1a14.4 14.4 0 0 0 3.95.55 15.4 15.4 0 0 0 4.18-.52 6.9 6.9 0 0 0 2.94-1.37 1.69 1.69 0 0 0 .51-1.71 1.27 1.27 0 0 0-1-1 6.6 6.6 0 0 0-2-.08l-2.67.31c-1 .12-2 .19-3 .22a10 10 0 0 1-2.87-.32 5.43 5.43 0 0 1-2.38-1.34 6 6 0 0 1-1.54-2.84 6.1 6.1 0 0 1 .19-4 8.26 8.26 0 0 1 2.77-3.43 15.1 15.1 0 0 1 5.16-2.39 22.7 22.7 0 0 1 4.66-.76 12.6 12.6 0 0 1 4.22.36l-.87 5.06a11.2 11.2 0 0 0-3.52-.4 15.3 15.3 0 0 0-3.18.5 6.64 6.64 0 0 0-2.91 1.41 1.7 1.7 0 0 0-.57 1.72 1.36 1.36 0 0 0 1 1 6.8 6.8 0 0 0 2.05.13c.83 0 1.72-.15 2.68-.28a26 26 0 0 1 3-.23 10.8 10.8 0 0 1 2.84.33 5.6 5.6 0 0 1 2.38 1.3 6.41 6.41 0 0 1 1.32 6.71 8.2 8.2 0 0 1-2.82 3.41 16 16 0 0 1-5.33 2.52M449.1 774.08a21.9 21.9 0 0 1-5.39 1.51 13.6 13.6 0 0 1-4.55 0l.19-5.16a14.7 14.7 0 0 0 4 0 15 15 0 0 0 4.08-1.05 6.76 6.76 0 0 0 2.74-1.74 1.68 1.68 0 0 0 .29-1.75 1.29 1.29 0 0 0-1.14-.82 6.4 6.4 0 0 0-2 .19c-.8.18-1.67.4-2.61.64s-1.91.45-2.91.61a10 10 0 0 1-2.88.05 5.5 5.5 0 0 1-2.54-1 6 6 0 0 1-1.89-2.61 6.06 6.06 0 0 1-.32-4 8.2 8.2 0 0 1 2.31-3.76 15.1 15.1 0 0 1 4.81-3 23 23 0 0 1 4.52-1.35 12.9 12.9 0 0 1 4.23-.18l-.21 5.12a11 11 0 0 0-3.54.06 15.2 15.2 0 0 0-3.09.91 6.6 6.6 0 0 0-2.71 1.77 1.71 1.71 0 0 0-.34 1.78 1.35 1.35 0 0 0 1.16.87 6.6 6.6 0 0 0 2.05-.13c.81-.16 1.69-.37 2.62-.62a25 25 0 0 1 2.91-.61 10.6 10.6 0 0 1 2.86 0 5.7 5.7 0 0 1 2.53 1 6.4 6.4 0 0 1 2.17 6.49 8.25 8.25 0 0 1-2.36 3.74 16 16 0 0 1-4.99 3.04M473.63 761.71a13.25 13.25 0 0 1-6.26 2 11.54 11.54 0 0 1-5.89-1.28 11.16 11.16 0 0 1-4.45-4.29 11.07 11.07 0 0 1 0-11.76 14.36 14.36 0 0 1 10.93-6.55 11.1 11.1 0 0 1 5.87 1.24 11.45 11.45 0 0 1 4.52 16.08 13.3 13.3 0 0 1-4.72 4.56m-2.76-4.6A5.85 5.85 0 0 0 473 755a5.43 5.43 0 0 0 .65-2.91 6.94 6.94 0 0 0-1.07-3.24 6.84 6.84 0 0 0-2.37-2.48 5.33 5.33 0 0 0-2.85-.78 6.06 6.06 0 0 0-5 3 5.53 5.53 0 0 0-.68 2.9 6.66 6.66 0 0 0 1.06 3.27 6.85 6.85 0 0 0 2.37 2.46 5.54 5.54 0 0 0 2.89.78 5.67 5.67 0 0 0 2.87-.89M497.9 744.43a13.9 13.9 0 0 1-5.95 3 11.36 11.36 0 0 1-12.87-15.6 13.8 13.8 0 0 1 4.06-5.28 12.35 12.35 0 0 1 5.73-2.79 9 9 0 0 1 5.71.8l-2.18 5.32a6 6 0 0 0-3.19-.41 5.63 5.63 0 0 0-2.69 1.24 6 6 0 0 0-1.85 2.5 5.4 5.4 0 0 0-.27 3 7.6 7.6 0 0 0 4.26 5.17 5.5 5.5 0 0 0 3 .31 6 6 0 0 0 2.81-1.34 5.8 5.8 0 0 0 1.74-2.39 5.57 5.57 0 0 0 .19-3.22l5.67-1.09a9.05 9.05 0 0 1-.33 5.72 12.4 12.4 0 0 1-3.84 5.06M493 713.63a4.2 4.2 0 0 1-2.8 1.36 3.56 3.56 0 0 1-3.71-3.64 4.08 4.08 0 0 1 1.31-2.82 4.26 4.26 0 0 1 2.75-1.41 3.18 3.18 0 0 1 2.6 1 3.56 3.56 0 0 1 1.15 2.68 4.08 4.08 0 0 1-1.3 2.83m16 20.3-16.1-15.77 4.58-4.67 16.08 15.78ZM527.45 712.85l-3.45-2.71-1-.27-6.21-4.87a4.21 4.21 0 0 0-3.36-1 5.64 5.64 0 0 0-3.34 2.36 11.4 11.4 0 0 0-1.74 3.13 9.4 9.4 0 0 0-.62 3.26l-5-1a14.3 14.3 0 0 1 1.16-4.73 19.6 19.6 0 0 1 2.71-4.59q3.18-4.05 6.85-4.79t7.71 2.44l10.11 7.95Zm-4 5.61a10.4 10.4 0 0 1-3.5 3 6.9 6.9 0 0 1-3.71.76 6.66 6.66 0 0 1-5.51-4.31 6.46 6.46 0 0 1 .07-3.91 15.2 15.2 0 0 1 2.76-4.91l3.7-4.71 3 2.35-3.26 4.15a4.9 4.9 0 0 0-1.36 3 2.42 2.42 0 0 0 1 1.84 2.38 2.38 0 0 0 2.17.45 4.43 4.43 0 0 0 2.25-1.67 5.64 5.64 0 0 0 1.2-2.78 4.45 4.45 0 0 0-.63-2.9l3 1.08a5.83 5.83 0 0 1 1 4.08 9.4 9.4 0 0 1-2.16 4.48ZM540.42 693.83a8.83 8.83 0 0 1-4.92 4.27q-2.89.85-6.33-1.21l-16.95-10.16 3.36-5.6 16.87 10.12a3 3 0 0 0 2.27.48 2.7 2.7 0 0 0 1.72-1.36 4.12 4.12 0 0 0 .64-2.69l4.86.86a7.2 7.2 0 0 1-.33 2.61 11.4 11.4 0 0 1-1.19 2.68m-21 1.28-4.31-2.58 8-13.39 4.31 2.58ZM523.38 670.44a4.1 4.1 0 0 1-2.22 2.18 3.53 3.53 0 0 1-4.67-2.26 4.13 4.13 0 0 1 .34-3.1 4.3 4.3 0 0 1 2.16-2.21 3.21 3.21 0 0 1 2.77.09 3.6 3.6 0 0 1 2 2.18 4.05 4.05 0 0 1-.38 3.12m21.68 14.13-20.27-9.82 2.84-5.88 20.28 9.82ZM555.12 661.69a13.14 13.14 0 0 1-3.52 5.53 11.5 11.5 0 0 1-5.34 2.8 12 12 0 0 1-11.26-3.95 11.27 11.27 0 0 1-2.43-5.5 14.42 14.42 0 0 1 4.2-12 11 11 0 0 1 11.52-2.32 11.06 11.06 0 0 1 7.55 9 13.2 13.2 0 0 1-.72 6.44m-5.06-1.77a5.7 5.7 0 0 0 .25-3 5.36 5.36 0 0 0-1.36-2.65 7.74 7.74 0 0 0-6.3-2.2 5.44 5.44 0 0 0-2.65 1.23 6.05 6.05 0 0 0-1.93 5.53 5.4 5.4 0 0 0 1.33 2.66 7.55 7.55 0 0 0 6.31 2.2 5.5 5.5 0 0 0 2.72-1.25 5.8 5.8 0 0 0 1.63-2.52M540.32 625.89a10.5 10.5 0 0 1 1.88-4.54 7.7 7.7 0 0 1 3.78-2.72 11.56 11.56 0 0 1 5.76-.24l12.7 2.21-1.11 6.4-11.72-2a5.76 5.76 0 0 0-4.16.49 4.37 4.37 0 0 0-1.86 3.1 5.9 5.9 0 0 0 .17 2.85 4.44 4.44 0 0 0 1.63 2.24 7.45 7.45 0 0 0 3.26 1.27l11 1.9-1.11 6.44-22.2-3.85 1.07-6.15 6.15 1.07-2.06.83a8.27 8.27 0 0 1-2.83-4 10.8 10.8 0 0 1-.35-5.3" class="cls-6"/><circle cx="376.82" cy="599.72" r="133.98" class="cls-6"/><path d="M376.83 474.11A125.57 125.57 0 0 0 267.78 662q1.17 2 2.4 4a126.64 126.64 0 0 0 43.45 42.21c1 .59 2 1.16 3 1.7a125.59 125.59 0 1 0 60.18-235.83Zm-21.65 26.52 23.62-22a1.72 1.72 0 0 0 .53-1 121.5 121.5 0 0 1 40.27 7.69 1.66 1.66 0 0 0 .15 1.8l23.44 31.72a1.72 1.72 0 0 1-.35 2.39l-18 13.5a1.7 1.7 0 0 1-1.3.32l-46.64-7.72a1.78 1.78 0 0 1-1-.55L355.06 503a1.7 1.7 0 0 1 .12-2.37M384.92 658l8.27-45.17a1.7 1.7 0 0 1 .92-1.21l42.12-21.41a1.72 1.72 0 0 1 1.81.16l29.07 22.13a1.69 1.69 0 0 1 .64 1.69l-6.05 30.61-3 15.17a1.76 1.76 0 0 1-.88 1.18l-40.24 21.47a1.75 1.75 0 0 1-1.85-.15l-30.16-22.8a1.7 1.7 0 0 1-.65-1.67m-3.37-.63a1.74 1.74 0 0 1-1.21 1.35L337.57 671a1.74 1.74 0 0 1-1.65-.38l-36-33.38a1.74 1.74 0 0 1-.51-1.62l9.59-45.11a1.69 1.69 0 0 1 1.25-1.3l12.07-3 30-7.57a1.75 1.75 0 0 1 1.57.39l6.06 5.48 29.24 26.37a1.7 1.7 0 0 1 .54 1.57Zm-75.17-140.52 15.91-4.72 27.71-8.22a1.72 1.72 0 0 1 1.78.51l20.9 23.81a1.73 1.73 0 0 1 .27 1.83l-9 19.75-11.11 24.47a1.74 1.74 0 0 1-1.14 1l-30.14 7.59-12 3a1.75 1.75 0 0 1-1.76-.59l-10.15-12.79-11-13.89a1.74 1.74 0 0 1-.2-1.82L299 530.85l6.36-13.12a1.7 1.7 0 0 1 1.02-.88m-40 135.08a121.56 121.56 0 0 1-11.73-52.21 124 124 0 0 1 .84-14.4l.36.16a1.72 1.72 0 0 1 .93 1.24l3.58 19.85 5.3 29.35v.28l1.34 15.58a.3.3 0 0 1-.63.15Zm-7.72-70.21a1.7 1.7 0 0 1-2 .34l-.69-.33a122 122 0 0 1 40.63-74.08 1.3 1.3 0 0 1 2 .39l3.52 6.84a1.76 1.76 0 0 1 0 1.55l-19.55 40.31a2.3 2.3 0 0 1-.31.44l-5.07 5.26ZM271.14 661l-1.76-21.46a1.72 1.72 0 0 1 1.8-1.85l24.82 1.15a1.7 1.7 0 0 1 1.09.46l37 34.27a1.74 1.74 0 0 1 .53 1.09l2.56 27.19a1.71 1.71 0 0 1-1.46 1.86l-18.41 2.68A123 123 0 0 1 271.14 661m105.69 60.9a121.5 121.5 0 0 1-54.41-12.79l16.38-2.39a1.6 1.6 0 0 1 .61 0l30 6.62 18.94 4.18a1.65 1.65 0 0 1 1 .63l2.17 2.85a125 125 0 0 1-14.69.9m18.58-1.41L393 717.3a1.73 1.73 0 0 1 .06-2.16l24.29-28.38a1.7 1.7 0 0 1 .49-.4l41.18-22a1.72 1.72 0 0 1 1.8.1l13.12 9.3a122.34 122.34 0 0 1-78.53 46.73m92.42-128.55-17.06 17.12a1.73 1.73 0 0 1-2.26.15l-29.14-22.18a1.7 1.7 0 0 1-.62-.95l-11.86-47.38a1.7 1.7 0 0 1 .63-1.78l18-13.5a1.7 1.7 0 0 1 2.06 0l29.93 22.69a1.76 1.76 0 0 1 .63 1l10.12 43.25a1.72 1.72 0 0 1-.43 1.58m10.17 9.91-5.85-10.47a1.3 1.3 0 0 1-.18-.44l-10.59-45.27a1.5 1.5 0 0 1 0-.57l.6-5.82a.51.51 0 0 1 .94-.2A121.4 121.4 0 0 1 499 599.72v1.88a.53.53 0 0 1-1 .25" class="cls-4"/><path d="M499 599.72v1.88a.53.53 0 0 1-1 .25l-5.85-10.47a1.3 1.3 0 0 1-.18-.44l-10.59-45.27a1.5 1.5 0 0 1 0-.57l.6-5.82a.51.51 0 0 1 .94-.2A121.4 121.4 0 0 1 499 599.72M487.83 591.94l-17.06 17.12a1.73 1.73 0 0 1-2.26.15l-29.14-22.18a1.7 1.7 0 0 1-.62-.95l-11.86-47.38a1.7 1.7 0 0 1 .63-1.78l18-13.5a1.7 1.7 0 0 1 2.06 0l29.93 22.69a1.76 1.76 0 0 1 .63 1l10.12 43.25a1.72 1.72 0 0 1-.43 1.58M467.75 614.18l-6.05 30.61-3 15.17a1.76 1.76 0 0 1-.88 1.18l-40.24 21.47a1.75 1.75 0 0 1-1.85-.15l-30.16-22.8a1.7 1.7 0 0 1-.66-1.67l8.27-45.17a1.7 1.7 0 0 1 .92-1.21l42.12-21.41a1.72 1.72 0 0 1 1.81.16l29.07 22.13a1.69 1.69 0 0 1 .65 1.69M473.93 673.8a122.34 122.34 0 0 1-78.52 46.69L393 717.3a1.73 1.73 0 0 1 .06-2.16l24.29-28.38a1.7 1.7 0 0 1 .49-.4l41.18-22a1.72 1.72 0 0 1 1.8.1ZM391.52 721a125 125 0 0 1-14.69.87 121.5 121.5 0 0 1-54.41-12.79l16.38-2.39a1.6 1.6 0 0 1 .61 0l30 6.62 18.94 4.18a1.65 1.65 0 0 1 1 .63ZM337.16 701.85a1.71 1.71 0 0 1-1.46 1.86l-18.41 2.68A123 123 0 0 1 271.14 661l-1.76-21.46a1.72 1.72 0 0 1 1.8-1.85l24.82 1.15a1.7 1.7 0 0 1 1.09.46l37 34.27a1.74 1.74 0 0 1 .53 1.09ZM389.78 612.41l-8.23 45a1.74 1.74 0 0 1-1.21 1.35L337.57 671a1.74 1.74 0 0 1-1.65-.38l-36-33.38a1.74 1.74 0 0 1-.51-1.62l9.59-45.11a1.69 1.69 0 0 1 1.25-1.3l12.07-3 30-7.57a1.75 1.75 0 0 1 1.57.39l6.06 5.48 29.24 26.37a1.7 1.7 0 0 1 .59 1.53M267 651.78a.3.3 0 0 1-.58.15 121.56 121.56 0 0 1-11.73-52.21 124 124 0 0 1 .84-14.4l.36.16a1.72 1.72 0 0 1 .93 1.24l3.58 19.85 5.3 29.35v.28ZM302.16 516.43l-19.55 40.31a2.3 2.3 0 0 1-.31.44l-5.07 5.26-18.58 19.28a1.7 1.7 0 0 1-2 .34l-.69-.33a122 122 0 0 1 40.63-74.08 1.3 1.3 0 0 1 2 .39l3.52 6.84a1.76 1.76 0 0 1 .05 1.55M372.91 530.06l-9 19.75-11.11 24.47a1.74 1.74 0 0 1-1.14 1l-30.14 7.59-12 3a1.75 1.75 0 0 1-1.76-.59l-10.15-12.79-11-13.89a1.74 1.74 0 0 1-.2-1.82L299 530.85l6.36-13.12a1.7 1.7 0 0 1 1.06-.88l15.91-4.72 27.67-8.22a1.72 1.72 0 0 1 1.78.51l20.9 23.81a1.73 1.73 0 0 1 .23 1.83M442.84 521.17l-18 13.5a1.7 1.7 0 0 1-1.3.32l-46.64-7.72a1.78 1.78 0 0 1-1-.55L355.06 503a1.7 1.7 0 0 1 .12-2.37l23.62-22a1.72 1.72 0 0 0 .53-1 121.5 121.5 0 0 1 40.27 7.69 1.66 1.66 0 0 0 .15 1.8l23.44 31.72a1.72 1.72 0 0 1-.35 2.33" class="cls-6"/><g id="g858"><path d="M376.82 398.59a69.4 69.4 0 0 1-25.14-4.48c-1.24.08-2.46.12-3.65.12-22.33 0-33.69-13.57-38-23.83-6.46-5.67-8.81-13.71-9.25-20.21-3.82-5.3-7.84-13.43-12-24.32-6.39-16.62-18.17-42-22.33-50.89a111.3 111.3 0 0 0-22.84-10.28l-7.61-2.33-1.14-7.93c-.3-2.09-.92-4.94-1.52-7.51-15.89-9.16-22-26.83-23.66-32.57-13.6-27.11-10.75-60.33-8.79-73.81-12-16.77-13.84-38.21-14-47.09a85.7 85.7 0 0 1-11-41.15c0-20.66 12.39-29.91 24.68-29.91 9.1 0 18.43 5.11 24.36 13.34 2.89 4 4.61 4.65 9.19 6.37a57.4 57.4 0 0 1 13.61 6.82c3.13 2.17 5.74 3.32 7.55 3.32.52 0 2.11 0 5.33-2.35 2.1-1.53 18.44-13.28 36-21.49l-.9-5.64 10.63-3.11A82 82 0 0 1 324 16.8l.83-4.53 9.29-1c.42 0 1.3-.12 2.55-.12a33 33 0 0 1 4.65.34 23 23 0 0 1 4.55-3l5.62-2.82 3 1.51c.64-.55 1.33-1.08 2.05-1.59l4.91-3.44 5.76 1.65c.19.05.46.14.79.25a21.5 21.5 0 0 1 4.36-2.33L376.82 0l4.49 1.72A21.7 21.7 0 0 1 385.73 4l.74-.23 5.76-1.65 4.9 3.44c.73.51 1.41 1 2.06 1.59l3-1.51 5.63 2.81a23.7 23.7 0 0 1 4.54 3 33 33 0 0 1 4.66-.34c1.24 0 2.12.08 2.54.12l9.3 1 .82 4.53a82 82 0 0 1 17.69 2.86L458 22.77l-.9 5.64c17.52 8.21 33.86 20 36 21.49 3.21 2.34 4.79 2.35 5.32 2.35 1.81 0 4.42-1.15 7.56-3.32a57.6 57.6 0 0 1 13.6-6.82c4.59-1.72 6.3-2.37 9.19-6.37 5.91-8.23 15.23-13.34 24.35-13.34 12.28 0 24.67 9.25 24.67 29.91a85.85 85.85 0 0 1-10.95 41.15c-.21 8.88-2 30.32-14 47.09 2 13.48 4.81 46.7-8.79 73.82-1.63 5.73-7.78 23.4-23.66 32.56-.61 2.57-1.23 5.42-1.52 7.52l-1.14 7.94-7.73 2.31a112 112 0 0 0-22.81 10.3c-4.16 8.86-15.95 34.27-22.33 50.89-4.18 10.89-8.21 19-12 24.32-.44 6.5-2.79 14.54-9.26 20.21-4.28 10.26-15.63 23.83-38 23.83q-1.8 0-3.66-.12a69.4 69.4 0 0 1-25.12 4.46" class="cls-5"/><path id="path1045" d="M370.18 19.92a18.5 18.5 0 0 0-6.46-4 19.7 19.7 0 0 0-6 7.27c-2.86-1.72-6.28-3.43-6.28-3.43a9.11 9.11 0 0 0-5.13 6.24 21.4 21.4 0 0 0-10.85-2.28L334.32 30c-10.84-2.28-24.53 1.72-24.53 1.72l.71 4.42c-15.34 5.66-33.66 17.45-42.5 23.92s-16.94 6.46-27.43-.81-17.57-4.64-25.86-16.17-26.3-12.7-26.3 9.23a71.64 71.64 0 0 0 11 37.65s-1.34 29.36 14.8 47.14c0 0-8.88 42 7.26 72.74 0 0 4.84 21.82 22.6 28.28 0 0 2.42 8.89 3.22 14.55 0 0 16.14 4.85 29.05 13.74 0 0 16.14 33.94 24.21 55s12.91 24.24 12.91 24.24-1.61 12.12 7.27 17c0 0 4.77 22.16 33.08 18.73 0 0 8.67 4.72 23.05 4.72s23.05-4.72 23.05-4.72c28.31 3.43 33.09-18.73 33.09-18.73 8.88-4.85 7.26-17 7.26-17s4.84-3.23 12.91-24.24 24.21-55 24.21-55c12.91-8.89 29.05-13.74 29.05-13.74.81-5.66 3.23-14.55 3.23-14.55 17.75-6.46 22.59-28.28 22.59-28.28 16.14-30.71 7.27-72.74 7.27-72.74 16.1-17.78 14.75-47.1 14.75-47.1a71.64 71.64 0 0 0 11-37.65c0-21.93-18-20.76-26.29-9.23S523.61 52 513.12 59.25s-18.56 7.27-27.44.81-27.2-18.26-42.53-23.92l.71-4.42s-13.7-4-24.54-1.72l-1.14-6.28A21.35 21.35 0 0 0 407.34 26a9.11 9.11 0 0 0-5.14-6.28s-3.42 1.71-6.27 3.43a19.7 19.7 0 0 0-6-7.28 18.7 18.7 0 0 0-6.45 4.05s-2.42-4.85-6.65-6.47c-4.22 1.62-6.64 6.47-6.64 6.47Z" style="fill:url(#linear-gradient)"/><path id="path925" d="m356.33 245.53-22.2 9L332 285a63.3 63.3 0 0 1 2 20.07l-.19 39.62 43.07-.19 43.07.19-.19-39.62a63.6 63.6 0 0 1 2-20.07l-2.15-30.44-22.19-9a41.14 41.14 0 0 1-20.5-6.46 41.13 41.13 0 0 1-20.49 6.46Z" style="fill:#ce1021"/><path d="m420.46 345.26-43.64-.19-43.64.19.19-40.19a63.3 63.3 0 0 0-1.93-19.9V285l2.17-30.8 22.7-9.2a41 41 0 0 0 20.19-6.37l.32-.23.33.23a41 41 0 0 0 20.19 6.37h.19l22.52 9.15 2.19 30.9v.11a63.4 63.4 0 0 0-1.97 19.84Zm-43.64-1.33 42.5.19-.19-39.05a65.1 65.1 0 0 1 2-20.13L419 255l-21.8-8.9a41.67 41.67 0 0 1-20.38-6.35 41.6 41.6 0 0 1-20.38 6.35l-21.76 8.9-2.12 30a65.8 65.8 0 0 1 1.95 20.16l-.19 39Z" class="cls-4"/><path id="path1061" d="M383.2 222.77c4-5.79 7.88-8.73 18.36-10.73s16.34-10.21 15.91-19.46c0 0-11.08-7.9-19.64.1S384.44 203 376.82 203s-12.45-2.29-21-10.29-19.64-.1-19.64-.1c-.43 9.25 5.43 17.46 15.91 19.46s14.39 4.94 18.36 10.73c4.35 6.36 6.37 16.3 6.37 16.3s2-9.94 6.38-16.3Z" style="fill:#e3ada5"/><path d="M376.27 239.18c0-.1-2-9.9-6.29-16.09-3.77-5.5-7.43-8.47-18-10.49-10.26-2-16.84-10-16.37-20v-.28l.23-.16c.11-.08 11.56-8.07 20.35.15 8.41 7.86 13 10.13 20.62 10.13s12.21-2.27 20.62-10.13c8.81-8.23 20.24-.23 20.35-.15l.23.16v.28c.47 10-6.11 18.08-16.37 20-10.57 2-14.22 5-18 10.49-4.24 6.19-6.26 16-6.28 16.09Zm-39.54-46.29c-.3 9.31 5.88 16.77 15.46 18.59 10.9 2.08 14.86 5.33 18.72 11 3.12 4.55 5 10.8 5.91 14.15.87-3.35 2.79-9.6 5.91-14.15 3.87-5.64 7.82-8.89 18.72-11 9.58-1.82 15.76-9.28 15.46-18.59-1.63-1.08-11.15-6.85-18.69.21-8.56 8-13.56 10.44-21.4 10.44S364 201.1 355.43 193.1c-7.43-6.99-17.1-1.24-18.7-.21" class="cls-4"/><path id="path873" d="M200.61 48.29s-7.42 24 10.84 38.29c0 0-4 20.57 6.28 35.43 0 0 3.42-17.14 14.84-17.72A35.71 35.71 0 0 1 224 74s-10.84-4.58-14.27-14.86-9.13-10.86-9.13-10.86Z" class="cls-4"/><path id="path875" d="M325 115.53c.7 12 13.52 16.57 17.66 24.33 0 20.76-16 34-16 34s18.83-9.75 18.19-34.55c-6.37-9.37-16.5-15.23-19.85-23.78m103.64 0c-3.35 8.55-13.48 14.41-19.9 23.74-.64 24.8 18.19 34.55 18.19 34.55s-15.92-13.2-15.94-34c4.13-7.72 16.95-12.26 17.65-24.29M279.36 139A84.7 84.7 0 0 1 296 154.58c8.12 10 18.16-1.44 23.89-.19-5.54-3.35-14.65 7.34-23-2.3A48.7 48.7 0 0 0 279.36 139m194.92 0a48.76 48.76 0 0 0-17.52 13.13c-8.33 9.64-17.44-1.05-23 2.3 5.73-1.25 15.76 10.15 23.89.19A84.8 84.8 0 0 1 474.28 139m-176.86 44.35c-1.25 9.5-18.95 8.65-28.42 13.65s-15.27 15.27-15 24.67a35.87 35.87 0 0 0 14.25 27.4 41.1 41.1 0 0 1-12-27.47c-.29-8.75 4.4-16.25 14.14-22s29.98-5.6 27.03-16.25m158.8 0c-2.94 10.63 17.21 10.41 27 16.21s14.42 13.29 14.14 22a41.12 41.12 0 0 1-12 27.47 35.83 35.83 0 0 0 14.25-27.4c.31-9.4-5.53-19.64-15-24.67s-27.14-4.11-28.39-13.61M233 202.78a318 318 0 0 1 10 35.57l3.22 2.17A152.4 152.4 0 0 0 233 202.78m287.75 0a152.4 152.4 0 0 0-13.19 37.74l3.22-2.17a315 315 0 0 1 9.92-35.57Zm-224.81 56.36a109 109 0 0 1 7.32 10.21c4.15 6.42 8.51 16.33 10.44 30.2.31-14.42-4.21-24.72-8.54-31.43s-9.22-8.98-9.22-8.98m161.77 0s-4.9 2.27-9.23 9a54.64 54.64 0 0 0-8.48 31.41c1.92-13.87 6.29-23.78 10.43-30.2a110 110 0 0 1 7.28-10.21m-143.31 3.92a83 83 0 0 1 5.19 22.49c1.22 13.17.94 28.82-3.48 39.05 6.87-10 7-25.91 5.72-39.26a50.6 50.6 0 0 0-7.43-22.28m124.84 0a50.74 50.74 0 0 0-7.43 22.28c-1.24 13.35-1.15 29.28 5.73 39.26-4.43-10.23-4.7-25.88-3.48-39.05a83.2 83.2 0 0 1 5.18-22.49m-84.19 96.3c-12-.31-21.84 6.53-34.71 1.54l-.45 2.22c12.03 5.28 23.9-1.86 35.16-3.76m43.54 0c11.27 1.9 23.14 9 35.16 3.76l-.44-2.22c-12.88 4.99-22.71-1.85-34.72-1.54" class="cls-4"/><path id="path877" d="M300.53 118.8a30.44 30.44 0 0 0-16.61 5.3s1.71 13.72 13.69 14.86 19.41 8.57 34.24 2.86c0 0-5.13-15.43-20.54-21.14a29.5 29.5 0 0 0-10.78-1.88m152.58 0a29.5 29.5 0 0 0-10.78 1.88c-15.4 5.71-20.54 21.14-20.54 21.14 14.84 5.71 22.26-1.71 34.24-2.86s13.69-14.86 13.69-14.86a30.44 30.44 0 0 0-16.61-5.3" class="cls-6"/><path d="M432.5 146.1a31.4 31.4 0 0 1-11.5-2.28l-1.91-.73.65-2c.22-.67 5.64-16.47 21.83-22.48a32.3 32.3 0 0 1 11.56-2A32.53 32.53 0 0 1 471 122.4l1 .75-.15 1.22c-.67 5.34-4.79 15.7-15.63 16.73a51.3 51.3 0 0 0-10.45 2.43c-4.11 1.27-8.32 2.57-13.27 2.57m-7.86-5.56c8 2.54 13.56.84 19.87-1.12a54.8 54.8 0 0 1 11.32-2.59c8.22-.79 10.81-8.59 11.53-11.72a29 29 0 0 0-14.28-4.11 27.3 27.3 0 0 0-10 1.74c-11.08 4.05-16.53 13.66-18.44 17.8m-103.49 5.56c-4.95 0-9.16-1.3-13.29-2.57a51 51 0 0 0-10.45-2.43c-10.83-1-15-11.39-15.62-16.73l-.15-1.22 1-.75a32.5 32.5 0 0 1 17.87-5.75 32 32 0 0 1 11.57 2c16.18 6 21.6 21.81 21.83 22.48l.64 2-1.91.73a31.3 31.3 0 0 1-11.49 2.24m-34.86-21c.71 3.13 3.31 10.93 11.53 11.72a54.7 54.7 0 0 1 11.31 2.59c6.31 2 11.82 3.66 19.87 1.12-1.91-4.14-7.39-13.75-18.44-17.85a27 27 0 0 0-10-1.74 29 29 0 0 0-14.27 4.17Z" class="cls-4"/><path id="path879" d="M306.43 119.19s-9.28 4.84-4.84 21l10.08 2s7.27-6.47 5.25-19l-5.21-2.15s1.17 8.61-4.48 14.27c0 0-2.82-4.44 2.83-14.55Zm140.79 0-3.64 1.61c5.65 10.11 2.83 14.55 2.83 14.55-5.65-5.66-4.48-14.27-4.48-14.27l-5.21 2.15c-2 12.52 5.25 19 5.25 19l10.09-2c4.44-16.23-4.84-21.04-4.84-21.04" class="cls-4"/><path id="path938" d="M315.46 236.41c-4.14.25-5.86 13 1.36 25 8.56 14.28 10.28 29.14 8 48.57 0 0 4-8.57 2.85-23.43 0 0 5.14 9 6.28 18.48 0 0 .57-23.62-3.42-34.48s-2.86-27.52-2.86-27.52-4 .28-9.7-5.43a3.34 3.34 0 0 0-2.51-1.19m122.73 0a3.35 3.35 0 0 0-2.51 1.23c-5.71 5.71-9.7 5.43-9.7 5.43s1.14 16.66-2.85 27.52-3.43 34.48-3.43 34.48c1.14-9.53 6.28-18.48 6.28-18.48-1.14 14.86 2.85 23.43 2.85 23.43-2.28-19.43-.57-34.29 8-48.57 7.17-12.06 5.5-24.79 1.36-25.04m-61.37 12.22-23.67 4.82.77 3.73s3.23 4.84 12.93 8.27 6 12.57 10 26.57c4-14 .28-23.14 10-26.57s12.93-8.27 12.93-8.27l.76-3.73Z" class="cls-4"/><path id="path999" d="M346.91 196s-3.23 6.06 2.83 8.89 6.86 7.68 6.86 7.68l12.1 6.43s-.4-9.7-8.88-12.53-11.3-7.68-12.91-10.47m59.82 0c-1.61 2.83-4.44 7.68-12.91 10.51S384.94 219 384.94 219l12.11-6.47s.81-4.85 6.86-7.68 2.82-8.85 2.82-8.85" class="cls-4"/><path id="path1047" d="M553 48.29s7.42 24-10.84 38.29c0 0 4 20.57-6.28 35.43 0 0-3.42-17.14-14.83-17.72A35.74 35.74 0 0 0 529.64 74s10.84-4.58 14.26-14.86 9.1-10.85 9.1-10.85" class="cls-4"/><path id="path892" d="M344.21 350.22c-13.69 1.71-22.82-3.43-21.11-15.43s10.84-29.72 10.84-29.72c5.64 13.55 6.57 30.29 9.7 36 6.22 0 4-3.43 9.7-6.86a31.8 31.8 0 0 1 7.42 6.29 18.9 18.9 0 0 1 8-5.14s5.13 4 8.07 6.85c2.94-2.85 8.08-6.85 8.08-6.85a18.9 18.9 0 0 1 8 5.14 32 32 0 0 1 7.42-6.29c5.74 3.43 3.49 6.86 9.7 6.86 3.14-5.71 4.07-22.45 9.7-36 0 0 9.13 17.71 10.84 29.72s-7.41 17.14-21.11 15.43-24-2.29-32.61-.58c-8.67-1.71-18.94-1.14-32.64.58" class="cls-6"/><path d="M414.29 351.1a41 41 0 0 1-4.93-.32c-13-1.63-23.5-2.35-32.43-.58h-.22c-8.93-1.77-19.42-1.05-32.43.58-8.29 1-14.88-.45-18.56-4.2-2.83-2.87-3.9-6.87-3.18-11.87 1.7-12 10.81-29.72 10.9-29.9l.56-1.09.47 1.13c3.11 7.47 4.82 16 6.19 22.91 1.09 5.44 2 10.16 3.32 12.74 3-.06 3.62-1 4.64-2.5a12.8 12.8 0 0 1 4.43-4.27l.29-.17.28.16a32 32 0 0 1 7.15 5.93 19.86 19.86 0 0 1 7.8-4.83l.29-.1.24.19s4.75 3.71 7.72 6.52c3-2.81 7.68-6.48 7.73-6.52l.24-.19.29.1a19.8 19.8 0 0 1 7.79 4.83 32.2 32.2 0 0 1 7.15-5.93l.29-.16.28.17A12.7 12.7 0 0 1 405 338c1 1.51 1.66 2.44 4.64 2.5 1.3-2.58 2.24-7.31 3.33-12.74 1.37-6.88 3.08-15.44 6.19-22.91l.47-1.13.56 1.09c.09.18 9.19 17.94 10.89 29.9.72 5-.35 9-3.17 11.87s-7.65 4.52-13.62 4.52m-25.57-3.1a171 171 0 0 1 20.78 1.62c7.94 1 14.19-.38 17.62-3.87 2.56-2.6 3.52-6.28 2.86-10.91-1.43-10.05-8.21-24.35-10.22-28.42-2.78 7.09-4.37 15.06-5.66 21.53-1.15 5.75-2.14 10.71-3.6 13.36l-.16.3H410c-3.87 0-4.78-1.32-5.92-3a11.6 11.6 0 0 0-3.78-3.76 32 32 0 0 0-7 6l-.43.51-.43-.52A18.7 18.7 0 0 0 385 336c-1 .83-5.26 4.18-7.78 6.63l-.4.39-.39-.39c-2.53-2.45-6.74-5.8-7.79-6.63a18.5 18.5 0 0 0-7.44 4.87l-.43.52-.44-.51a31.5 31.5 0 0 0-7-6 11.6 11.6 0 0 0-3.78 3.76c-1.14 1.68-2.05 3-5.92 3h-.33l-.17-.3c-1.46-2.65-2.45-7.61-3.59-13.36-1.3-6.47-2.89-14.44-5.66-21.53-2 4.07-8.79 18.37-10.23 28.42-.66 4.63.3 8.31 2.87 10.91 3.42 3.49 9.68 4.87 17.61 3.87 13.06-1.63 23.62-2.36 32.68-.58a61.3 61.3 0 0 1 11.91-1.07" class="cls-4"/><path id="path1059" d="M385.11 262.84a108 108 0 0 0 9.89-7.74 18.3 18.3 0 0 0 5 5.79c6.22-2.19 11.4-4.51 11.4-4.51C415.78 275 421.66 285 421.66 285s11.3-21 10.49-42.84c0 0-10.38 5.2-29.45 3.64s-25.88 2.83-25.88 2.83-6.82-4.39-25.82-2.83-29.46-3.64-29.46-3.64C320.69 264 332 285 332 285s5.89-10 10.26-28.62c0 0 5.17 2.32 11.39 4.51a18.15 18.15 0 0 0 5-5.79 108 108 0 0 0 9.92 7.74 50.6 50.6 0 0 0 8.29-9.79 50.6 50.6 0 0 0 8.29 9.79Z" class="cls-6"/><path d="m332 286.16-.48-.89c-.11-.21-11.36-21.4-10.55-43.13v-.88l.79.4c.1.05 10.49 5.1 29.15 3.57 17.07-1.38 24.38 1.91 25.92 2.75 1.54-.84 8.84-4.14 25.93-2.75 18.66 1.53 29-3.52 29.15-3.57l.79-.4v.88c.8 21.73-10.44 42.92-10.56 43.13l-.48.89-.51-.87c-.06-.1-5.84-10.06-10.16-28.12-1.57.69-5.89 2.52-10.81 4.26l-.28.1-.25-.18a19.5 19.5 0 0 1-4.81-5.35 104 104 0 0 1-9.43 7.31l-.37.25-.32-.29a51.7 51.7 0 0 1-7.92-9.17 51.4 51.4 0 0 1-7.91 9.17l-.33.29-.36-.25a102 102 0 0 1-9.43-7.31 19.3 19.3 0 0 1-4.82 5.35l-.24.18-.29-.1c-4.92-1.74-9.24-3.57-10.81-4.26-4.32 18.06-10.1 28-10.16 28.12ZM322 243c-.42 18.53 7.85 36.49 10 40.75 1.52-2.88 6.13-12.39 9.68-27.53l.16-.67.63.28s5.06 2.27 11.06 4.39a17.2 17.2 0 0 0 4.57-5.4l.32-.68.57.5a108 108 0 0 0 9.49 7.45 50.5 50.5 0 0 0 7.86-9.37l.48-.77.48.77a50 50 0 0 0 7.87 9.37 107 107 0 0 0 9.48-7.45l.57-.5.32.68a17.3 17.3 0 0 0 4.58 5.4c6-2.12 11-4.37 11.05-4.39l.63-.28.16.67c3.55 15.14 8.17 24.65 9.68 27.53 2.11-4.26 10.39-22.23 10-40.75-2.78 1.17-12.68 4.67-29 3.34-18.59-1.52-25.45 2.7-25.52 2.74l-.31.19-.3-.19c-.07 0-6.93-4.26-25.53-2.74-16.25 1.36-26.16-2.14-28.98-3.34" class="cls-4"/><path id="path1012" d="M238.65 130.58c-6.18 3.06-5.82 4.91-7.42 9.72-1.82 5.48-10.27.31-10.27 8 0 2.15 6 4.85 7.42 6.28 2.77 2.77 2.14 11.48 9.13 9.15 6.14-2-.71-7.57-2.28-9.15-1.77-1.77 2.35-9.07 0-11.43-.93-.92 9.77-9.38 3.42-12.57m-17.12 44c-11.76-2-6.54 15.71.57 8.58 3.83-3.84 1.38-4.68-.57-8.58m12 1.72c-4.25.17-2.89 3.5-4 5.71-4.19 8.4 12.12 8.28 8 0-1.9-3.77-.63-4.01-4.01-5.71Zm-20-36.58c2 1 2.85 2.86 4 4 1.54 1.55-2 11.75-4.56 9.15s2.31-9.67.58-13.15Zm39.94 16.58c-.23-1.55-3.49-4.45-4.57-2.29-1.21 2.44 1.71 7.43.57 8.57-.68.69-6.14 10.43-4.56 12 5.62 5.63 7.83-6.12 8-6.28 1.11-1.12 4.73 5.09 8 4 4.7-1.57-3.43-10.66-3.43-8.57 0 3.91 6.13-4.15 4.57-5.72-2.65-2.65-6.62 2.19-8.56-1.71Zm3.42 34.29c-5.59-15.51-10.65 2.66-5.7 5.14 3.56 1.77 4.08-4.33 5.72-5.14Zm-16.55 4c-11.14-.93-10.27-.17-10.27 8.57 0 2-1.61 3.53-.57 4.57 2.17 2.17 2.59-6 2.86-6.29 3.28-3.28 2.74 7.64 7.41-1.71.47-.93 4.36-2.49 2.86-4-1.1-1.12-1.12 1.16-2.27-1.14ZM274 180.87c-3.29.1-10.28-3.42-12.55-2.29-1.8.91 1.69 9.71 2.85 10.29 4.78 2.39 4.05-2.34 5.71-4 3.34-3.35 6 5.55 9.12 4 4.26-2.13-3.82-7.34-5.13-8m13.15-2.87c-8-1.92-7.49 9.58-1.71 5.72 2.63-1.72 1.17-4.62 1.71-5.72m-4-16c-3-1.79-2.35-5.78-4.57-8-.57-.57-2.85.57-3.42 0-.77-.77-2.06-8.22-5.13-5.14-5.78 5.78-1.08 7.45 4 9.14 1.61.54 0 4.56.57 5.72.68 1.37 10.29 1.75 8.56-1.72Zm4.56 5.15c-2.39-1.45-3.78.17-5.7 1.71-6.01 4.83 12.73 1.81 5.71-1.7Zm8.56 4c-9.95 2.52 1.71 11 1.71 2.85.02-2.26.24-1.87-1.7-2.84Zm20-10.86C305.4 162.58 318 172 318 163.15a2.74 2.74 0 0 0-1.75-2.85Zm10.25-2.29c-8.24.65-2.88 8 .58 4.57.7-.69-.58-3.73-.58-4.57m-64.47-24.57c-2.76.63-1.07 5.63-2.29 6.86-1.06 1.06-3.39.51-4.56 2.85-3.54 7.1 7 6.17 9.7 3.43 1.93-1.92-2.9-13.06-2.85-13.13Zm-.57-17.15c-.93 8-9.12 6.28-13.13 10.29-2.45 2.45-2.57 21.62.57 20.57 2.5-.83 4.43-15.86 5.14-16.57.49-.49 3.36-.15 4-.57 2.71-1.81 5.51-9.55 3.43-13.72Zm17.11-1.14c-4.27-.87-16 1.06-13.69 8 1.3 3.91 7.84-3 9.7-1.14.71.71 1.8 10.76 4.56 8 1-.95.19-3.62 1.15-4.57 5.13-5.14 7.54-5.65-1.72-10.29m-34.23-10.28c-14.33.37 1.14 14.74 1.14 2.85 0-1.54.38-2.08-1.14-2.84ZM233 66.58c-5.45-4.17-7.2 14.9-4.57 13.14 3.06-2.07 9.95-10.42 4.57-13.14m3.42 20.57c-1.79.15-4.71-.42-5.71.57-3.76 3.77 7.24 11.16 10.85 9.72 6.84-2.77.18-12.08-5.19-10.29Zm18.26 4c-3.18-1.18-3.36-1.18-6.28.57-3.23 2-3.18 5.8 0 6.86 3.35 1.12 1.11-2.29 3.43-2.29.87 0 5 1.63 5.7 1.15 3-2.3-.68-6.29-2.85-6.29m18.26-8.57c-8.12-.75-9 11.58-4.57 16 1.91 1.91 18.25-2.89 14.27-10.86-1.89-3.79-6.93 5.06-9.13 2.86-.51-.47 2.83-4.58-.62-8Zm1.71 20c-4.53-4.2-12.79 6-9.7 9.14 4.22 4.28 12.05-4.41 9.65-9.14Zm9.7-2.86c-10.77 2.14 2.28 12.78 2.28 4-.05-2.07-.4-3.03-2.33-4Zm4.78-37c.81-4.53-2.07-6.42-5.25-3.23-.69.7.08 1.94-.4 2.42-.63.63-6.1 3-7.26 2.43-.6-.3-2.38-4.09-3.63-2.83-.53.52-.9 2.21-1.21 2.83-5.72 11.37 9.38 2.66 10.84 3.66 1.16.78 1.6 2.1 2.83 2.83 5.45 3.28 5.09-5.95 4.03-8.08Zm-2.69 14.82c0-.85-.83-2.83-1.61-2.83-2.48 0-2.43 0-3.64 2.42-4.14 8.31 10.1 10.12 5.25.41m12.1-11.32a5.4 5.4 0 0 0-3.22 2c-1.86 2.23-4.28 5.09-6.06 6.87s3.8 1.6 4.44 1.21c2.27-1.36 6-7.74 4.84-10.1Zm2.83 12.93c-5.26-2-14.5 11.34-12.11 13.74 1.9 1.9 6.36 1.11 7.67 2.43.59.58 1.23 10.49 5.65 6.06.74-.74 1.05-2.27 1.61-2.83 4.66-4.67-11.6-8.58-7.26-12.93 1.86-1.87 11.25-3.06 4.44-6.47m21.33-12.9c-1.89 0-6.67 1.24-7.66 3.23-.59 1.18-.28 3.53-.81 4.85-.78 2-6.23 4.85.81 4.85 1.12 0 1.14.18 2-.4 1.43-1 2.46-7 4.44-7.68 1.43-.48 6.86-.39 6.86-3.23 0-2.38-4.44-2-5.65-1.62Zm8.88-19c-2.71.07-6.73 1-8.07 3.64-.26.52.32 1.53 0 2-1.44 2.16-4.38 1.5-6.46 5.65-1 1.94 6.68 3.09 7.67 2.43 3.41-2.28 3.2-5 4.44-8.08 1.15-2.89 7.21-3.26 2.42-5.66ZM319.47 44c-3-1.46-5.59 2-7.26 3.63-.24.24-1.2-1-1.61-1.21-1.11-.56-2.51-.24-3.63-.81-1.53-.76-5 3.45-4.84 3.64 1.83 1.84 6.88.43 7.66 1.21 1.13 1.13 2.9 2.91 4.84 2.43s.63-2.65 1.62-3.64c1.62-1.63 6.51-3.61 3.22-5.25m-8.87 14.17c-11.9.56-1 13.4 3.23 3.64.9-2.12-1.96-4.28-3.23-3.64M330 71.91c-2.88-.07-10.88 11.36-10.5 12.12 1 2 8.58 1.27 9.69-.4 1.45-2.18 4.06-12.81.81-11.72m0 19.8c-7.82-3.27-2.68 9-6.46 10.91-13.65 6.84-.26-14.46-10.89-10.91-1.59.53-3.88 18.34-3.23 19 3 3 5.78-3.13 7.26-2s2.57 7.27 4.44 7.27c.4 0-.08-.81 0-1.21a13 13 0 0 1 1.61-3.63c.81-1.62 2.59-2 3.23-3.24 2.2-4.49-1.24-13.56 4.04-16.19m9.68-2c-10.33 1.43-3.85 15.44-.4 9.7 2.58-4.41-.83-7.32.37-9.72Zm12.51 4.44c-8.91-2.82-11 14.42-1.21 10.51 5.22-2.12 4.84-9.3 1.18-10.53Zm2.42-20.6c-5.92-6.91-10 .59-3.63 4.84 1.08.73 1.06 4.71 2.42 5.26 5.06 2.02 3.1-8.19 1.18-10.12Zm8.87-9.3c-12.82 2-2.15 11.45-.4 4.45.39-1.7 1.25-2.7.37-4.47Zm-12.1-17.78a7.5 7.5 0 0 0-2.42-1.21c-.75-.38-2.07.38-2.83 0-3.05-1.53.21-6.77-2.42-8.08-4.08-2-8.17 1.3-6.45 6.46.35 1.05 2.27 1.47 2.82 2 3.16 3.17-3.76 9.11 3.23 10.51 3.4.68 2.9.34 5.25-1.62a14 14 0 0 0 2.42-2c1.29-1.73-.5-4.26.4-6.06m-32.68-8.89c3.4 1.95 12.65.69 9.68-4.44-2.96-4.85-14.13 1.86-9.71 4.42Zm-22.6 6.06c-1.2.19-3.88.66-4.84 1.62-1.59 1.59-2.54 3.09-4.44 4-2.07 1 2.8 2 4 1.62 2.14-.72 10-7.28 5.24-7.28Zm57.7-13.33c1.26-4.67-8.07-6.2-8.07-2 0 .83 2.14 1.59 2.42 2.42 1.37 4.13 1.42 9.9 4.84 13.34.41.4.93-.72 1.21-1.22 2.61-4.56 1.81-8.1-.4-12.52Zm12.51 15.35a10.7 10.7 0 0 0-6.86 1.62c-1.51 1.08-1.06 2.44-2 4-4.65 7.76 2.75 1.43 3.63 1.21.68-.17 6.62 0 6.86-.4 2.06-3.09.95-5.09-1.66-6.45Zm1.61-19.8c-.31-1.48-2.18-1.14-2.82-2.42-2.81-5.62-8.83 9.19-4.44 12.12 5.27 3.52 8.79-6.56 7.23-9.72ZM378 64.23c-8.88.32-7.55.74-9.28 7.68-.18.7-1.06 3.1 0 3.64 5.15 2.58 10.34-8.08 9.28-11.32M376 82c-1.69-5.25-10.63.52-8.88 4 .32.64 1.46.72 2 .81 9.43 1.63 10.06-6.41 6.88-4.81m-12.91 4.45c-8.2.5-2.33 10.64 0 8.89 3.36-2.55 5.2-8.88-.04-8.88Zm6.05 10.1c-.63 1.46-2.1 2.19-2.82 3.63-.33.66.32 2.41.4 2.83 1.55 7.75 11.15-2.09 2.42-6.46m-8.14 9.3c-.54-.08-2.23-1.4-2.82-.81-1.58 1.58-.83 10.12 2.82 7.68 2.08-1.39 2.89-6.87 0-6.87m-9.28 11.72c-2-.11-2.44.14-2.82 2.43-1.47 9 6.59-4.3 2.85-2.43Zm24.28 5.25c-1.47.19-1.9.21-2.42 2-1.68 5.79 9.42 1.52 2.42-2m10.09-1.21c-2.48.13-2.89 1.92-4 3.64-2.74 4 6.91 2.28 3.96-3.64Zm22.59-9.29c-10.72 2.62 1.21 7.32 1.21 2-.04-1.19-.15-1.45-1.25-2Zm-36.31-.81c-2.63 7.9 11.95 1.74 4.44-2-.88-.44-.88-1.18-2-.61-1.36-1.17-2.12 1.53-2.48 2.61Zm17.75-4.85c-5.7-.82-5.15 8.8-.8 4.45 1.68-1.76 1.49-2.26.76-4.45ZM380.4 99c-.29-.52-2.19-1.45-2.82-.81a6.5 6.5 0 0 0-.81 3.24c0 6.18 10 .74 3.63-2.43m16.12-26.69c-3.12.11-2.78-3.78-5.14-4.57-13.52-4.51 6.28 22.44 6.28 10.86 0-3.17.34-3.35-1.14-6.31Zm-10.84 15.41c-6.91.22-2.95 9.81 2.28 4.57 1-1 .52-1.19 0-1.71-1-1-.45-1.94-2.28-2.86m14.26 9.14c-1.87-4.4-10.51 1.56-6.85 4 1.23.82 14.27 5.72 13.13 3.43-1.77-3.53-5.12-5.11-6.28-7.43m13.7-22.28c-1.32-.77-6.15-.26-6.85 1.14-8.79 17.56 15.85-1.14 6.85-1.14m5.7-17.15c-1.31-3-4.49-2.85-7.42-2.85-4.33 0 3.16 4.3 4.57 5.71 3.8 3.81-11.1.89-5.14 6.86 4.99 4.99 16.9-5.26 7.99-9.72m30.81-8.57c-3.9-5.91-5.24 3.37-8.55 1.72-2.75-1.38-8.42-5.86-12.56-1.72-.33.33 5.8 3.11 6.28 3.43 2.25 1.5 9.67 4.6 13.12 1.14 1.03-1.02.2-3.05 1.71-4.57m-30.24 2.86c.5 0-.76-6.17-.57-6.29 1.4-.83 3.11-2.44 4.57-1.71.44.22 1.49 1.93 2.28 1.14 3.13-3.13-4.41-11.3-10.46-8.5s-4.8 15.36 4.18 15.36M437 30c-25.54-2.94-4.75 12.45 0 10.86 1-.33 4.16-8.23 3.42-9.71-.42-.92-2.82-.86-3.42-1.15m-28 1.15c-1.26-.49-3.43-.4-4.09-1.72-.77-1.55-.08-5.31-1-6.28-1.81-1.81-3.93-.19-2.29 2.28.48.71-.27 1.89-.87 2.49-2.87 2.87-4.28-1.3-6.54 3.23-1 2 4.12 4.61 5.7 5.14 4.25 1.42 12.26 1.12 9.13-5.14Zm-11.41 28c-2.51-1.85-7.51-6.2-10.27-3.43-4 4-6.42-9.58-9.13-6.86-1 1-.89 5.09 0 6.29 9.78 13.06 9.45 3.59 13.69 5.71 2.83 1.38 9.8 6.35 5.78-1.71Zm-20.47-22.86c-1.69 0-3.43-.39-3.43 1.71 0 20.09 12.51-6.26 3.43-1.71m8.56-12c-8.44-1.37-6.68 13.62-1.68 10.28 1.78-1.2 4.77-8.73 1.68-10.28M376.55 18c-2.23 1.29-2.49 4.78-4 6.29-4.77 4.78 13.22-1.67 4-6.29m74.75 50.86c-2.47 3.7-8.55-3.44-10.85-1.14-3.26 3.27 10.06 9 10.85 7.43 1.96-3.94 4.45-4.06 0-6.29m-17.69 1.72c-9-3.17-10 1.39-4 7.43 1.84 1.84 5.14 9.72 5.14 1.71 0-3.21 0-6.89-1.14-9.14m13.12 10.28c-14.19-5.19-3.28 11.19-.57 10.29s2.45-9.35.57-10.29m3.42 17.72a12.4 12.4 0 0 0-4-3.43c-12.42-6.22 4 13.5 4 6.29 0-1.76 1-.81 0-2.86m14.27-21.15c-.54-1.33-4.35-6.5-6.28-4.57-4.48 4.5 3 15.87 5.71 13.15.52-.53.17-4.35.57-5.15.73-1.47 2.12-2.36 0-3.43m13.69-13.71c-3.51-1.28-8.11 3.3-10.27 1.14-1.95-2-5.87 2.12-4 4 2.3 2.31 27 1.25 14.26-5.14Zm-25.67-24c-.29 2.53.06 4.63 1.71 6.28 3 3 14.3 5.19 9.13 0-2.89-2.88-9.08-2.75-10.84-6.28m-22.26 48c-4.32-.61-3.38 2.24-5.13 4-9.74 9.76.6 9.66-2.86 16.57-.49 1-4.05 6.8-2.85 8 6.17 6.18 13.4-23.44 10.84-28.57m4 7.43c-1.45 2.09-3 12.09-1.14 14.86 2.14 3.23 8.76 1.87 10.27-1.14 2.28-4.57-5.15-1.73-6.28-2.86-1.54-1.54-1.9-9-2.85-10.86m37.66 5.14c-4-2-14.24 3.46-10.84 6.86.61.62 7.39-1.58 9.13-1.14s10.46 3.8 12 2.28c1.08-1.08-9.74-7.73-10.27-8Zm-1.71 10.29c-2.69 4.74 1.18 13.15 6.84 14.29 1.62.32 4.36-1.92 2.86-3.43-2.25-2.25-4.78-1.93-6.85-4-1.38-1.39-1-5-2.85-6.86m17.11-27.43a7 7 0 0 0-6.24 2.29c-2.43 2.42-2.55 16.41 4 13.14 4.2-2.1 5.78-17.18 2.28-15.43Zm20.54 4c-2.92 0-12.26 5.16-10.27 9.14 1.44 2.88 12.88 2.21 14.27-.57 1.1-2.21-3.42-7.43-4-8.57m6.85 1.14c-1.16 2.21 4 6.32 5.14 5.15 5.51-5.52-1.08-21.12-6.85-23.43-1.17-.47-5-1.5-5.71 0-5 10 12.57 8 7.42 18.28m20.54-30.86c-2.17-1.74-4.51-3.48-6.27-1.71-4.19 4.2 5.8 11.33 9.13 8 1.2-1.21-2.36-5.3-2.86-6.29m-8.56 54.86c-2.54-5.76-5.67-2.89-8.55 0-.81.81.18 2.31 0 3.43-1.38 8.28 6 .07 8 4 .66 1.31 4.32 11.56 6.85 10.29 3-1.51-4.31-17.06-6.28-17.72Zm24.54-8c-5.6-3.11-2.85 1.68-3.42 4.58-.17.82-3.23 5.34-1.72 6.85 2.65 2.65 4.32-1.87 4.57-2.85.86-3.45.57-5.57.57-8.58m-50.78 4c-1.58 1.58-4.43 1.31-5.14 3.43-2.22 6.69 3.79 14 5.71 6.29.4-1.61-.41-3.53 0-5.14.56-2.27 1.27-3.65-.57-4.58m1.14 23.43c-1.85-1.67-5.69-5.36-8-2.28-5.66 7.55 5.26 23.3 9.7 18.86 4.06-4.07-3.92-9.3-3.42-10.29.79-1.6 5.34-4.47 1.71-6.29Zm12.55 2.28c-10.55-2.54-7.14 18.15.57 14.29 6.63-3.29 2.74-12.62-.57-14.29m22.25 8c-15.75-5.29-5.94 21.38-1.71 17.14 4.83-4.82 10.89-12.53 1.71-17.14m-49.64-5.71c-4-2.07-4.21-1.28-5.7 1.71-.44.88 1.71 4.39 1.71 5.71 0 12.57 4.55 6.88 8.56 2.86.93-.93-1.71-4-1.71-5.14 0-3.08.59-5.13-2.86-5.13Zm12.56 18.85c-4.74-1.08-2.38 2.39-4 4-2.27 2.28-7.63.79-9.7 2.86-3.16 3.16.18 11 3.42 12.57 5 2.49 1-6 1.72-7.43 2.42-4.84 8.56-1 8.56-12m2.85 12.58c-1.88-1.28-5.71-2.11-5.71 1.14 0 2 0 3.43 1.14 5.14 1.77 2.65-2 8.14 1.15 9.72 2.67 1.34 9.42-13 3.42-16m20-8.58c-2 .66-13.07-3.53-13.69-2.28-2.15 4.29.47 11.08 6.27 9.14 2.01-.67 12.22-4.43 7.39-6.85Zm10.27 17.15c-1.66.15-3.71-.5-5.14.57-4 3-3 10.17-.57 12.57 1 1 3.26-1.31 4-.57 2.52 2.53 5.13 1.32 5.13-3.43 0-4.4-.46-6.17-3.42-9.14m-14.26 8.57c-3.12.58-3.41 3.61-6.28 4.57-4.92 1.64-10.84-4.25-10.84 5.72 0 .44-.29 2.57 0 2.85 1.58 1.59 9.46-4.33 10.27-5.14s-.23 1.93 0 2.86c.48 1.92 3.68.89 4.56 0 1.35-1.38 8.2-10.85 2.26-10.85Zm13.69 12.57c-1.3-4.33-13.37.32-10.27 3.43 1.11 1.11 6.37 1.62 3.42 4.57-.55.55-4.86 4.71-2.85 5.72 8.65 4.33 11.93-9.25 9.7-13.72m-10.84 28c.44-1.87 2.76-2.9 3.42-4.57 2-5-3.49-5-5.13-1.71-2.1 4.16-2.23 14.11 1.68 6.29Zm-43.56-68.76c-2.6-2.31 3.73-7.39 2.86-9.15s-3.38-1.36-4.57-.57c-1.43 1-2.36 4.66-3.42 5.72-3.86 3.86-7.1 2.71-8.56 8.57 0 .12-1.09 2.91-.57 3.43 5.26 5.26 3.93-4 7.42-5.14 4.16-1.4 4 0 6.84-2.86m8 27.43c-4.35-12.61-7.34 5.3-5.13 9.71 1.75 3.64 5.92-8.05 5.09-9.7Zm-24.53-16c-12.87-5.67 1.14 18.56 1.14 3.43.01-1.7.43-2.62-1.18-3.42Zm6.27 13.71c-1.32.05-3.12-1.29-4.56-.57-.7.35-.38 1.53-.57 2.29-2.28 8.95 11.63-1.71 5.09-1.71ZM428.28 163c-5.56 3.72 6.44 6.82 4.57 1.72s-2.97-2.83-4.57-1.72m10.27 13.72c-10.69-1.81-4.16 7 1.14 3.43 1.31-.93 1.57-4.83-1.14-3.47Zm13.7 5.14c-2.5-.28-4.11.48-6.28 1.72-6.32 3.57 10.68 7.06 6.28-1.76Zm-12.56-23.43c-7.18-.38 1.14 7.94 1.14 1.72 0-1.3.23-1.07-1.14-1.76Zm43.06 51.31c.65-1.25 2.58-3.57 2-5.25-.85-2.56-3.19-5.47-6.85-3.64-.85.43-1.5 2.71-2 3.24-2.75 2.7 4.34 10.63 6.85 5.61Zm-2 5.26c-3.21-2.21-6.08 4.42-4.44 6.06 1.9 1.88 8.48-4.06 4.42-6.06Zm11.7 34.34c-3-.37-3.61.8-5.65 2.83-.62.62-2.43 1.65-2.82 2.43-.58 1.08 8.45 4.02 8.45-5.3Zm-16.54 0c-2.09-5.05-7.15 2.54-5.25 4.45 1.61 1.61 11.61 2.74 8.07-.81a12.2 12.2 0 0 1-2.84-3.68ZM469 225.87c-.09 2.57-1.61 2-2.83 4-2.87 4.79 7 8.55 4.44-1.62-.42-1.71.55-2.42-1.61-2.42Zm-8.47 6.06c-16.27 0 0 12.62 0 2.83 0-1.7 1.46-1.37 0-2.83m-12.11.4c-4.05 3.23 1.62 9.59 1.62 1.21.03-1.43-.16-1.21-1.59-1.21Zm-14.12-19c-4.23-4-7.66 4.85-1.61 4.85 2.48.01 1.64-2.89 1.64-4.84Zm11.7 8.49c-1.19-.82-2 0-2 1.21 0 9.08 6 2.75 2-1.2Zm8.88-2.43c-5.73 2.2 1.12 8.26 3.23 4 1.34-2.57-.42-5.39-3.2-3.99Zm-8.88-8.47c-7.2 6.92 6 7.58 2 3.63-.4-.4.4-2 0-2.42-.69-.7-1.36.1-2-1.21m12.91-11.32c-6.59.26-3.75 5-5.24 6.47s-5.51 3.9-2 5.65c.39.2 1.55.64 2 .41s.68-2.07.8-2.43c.83-2.46 9.63-7.5 4.44-10.1m8.48 2.83c-.8 0-2.08-.22-2.43.81-.48 1.45 1.2 3.24 0 4.44-2.55 2.56-7.66.75-7.66 6.87 0 .55-.22 1.31.4 1.62a13.6 13.6 0 0 0 4.84 0c2-1-.31-3.16.41-3.64s3.24-.7 3.63-.81c6.91-2 1.9-7.11.81-9.29m.4 14.55a4.7 4.7 0 0 0-3.23 1.21c-1.31 1.31-1 7 1.21 4.85a8.4 8.4 0 0 0 1.62-2.83c.62-1.25 3.44-.21 4-.81 1.93-1.93-2.82-2.42-3.63-2.42Zm-19.37-21.42c-1.39.45-3.11-1.07-4.44-.4-2.72 1.36 2.72 5.79 5.25 2.42 1.3-1.74 1.15-1-.81-2Zm-7.26 5.66c-2-.91-2.4-.05-3.23 1.61-.91 1.83 4.09 3.82 5.25 3.24 2.54-1.26.25-4.85-1.99-4.85Zm-6.46-6.06c-5.85-.82-1.9 7.16 0 5.25 1.65-1.62 2.47-5.25.03-5.25Zm-8.07-17c-1 0-2.45 0-3.22.81-1.59 1.59 3.68 3.59 4.84 2.43 1.65-1.61 1.75-4.87-1.59-3.22Zm-113.07 8.6c-14.67-4.35-3.2 7.6.57 5.71.87-.41-.54-5.35-.54-5.69Zm-5.71 6.28c-6.65-.61-1.07 11.3 1.72 5.72.94-1.76-1.69-4.02-1.69-5.7Zm2.86 18.86c-1.49.12-4.26-.61-5.14 1.14-4.29 8.6 11.38 7.66 6.28 0-.71-1.07 1.31-2.37-1.14-1.14m-13.13-5.71c-3.59-.69-2.38 1.24-4 2.85-.63.63-3.24-1.32-3.42-1.14-2.78 2.78 9.7 16.29 9.7 4 0-.81.45-3.55 0-4-.75-.77-1.47-.14-2.25-1.69Zm-12-8c-5.48.23-2.63 11.21 1.14 7.43 1.86-1.79.37-6.68-1.09-7.42Zm0 19.43c-9.82 5.51 12.39 11.84 3.43 2.86-1.41-1.48-1.23-1.77-3.38-2.85Zm13.7 2.29c-1.23-.08-4 .05-4 1.71.05 7.56 10.77-1.7 4.05-1.7Zm-2.86 13.14c-1.25.2-5.7-.7-5.7.58 0 .7-1.75 2.25-1.14 2.85 4.2 4.21 13.44-1.77 6.84-3.43m-12.55 11.43c-13.6-.22 7.22 16.18 1.14 4-.84-1.77 1.2-2.84-1.09-3.99Zm-8.56 2.86c-.34-1.29-3.22-3.63-4.56-2.28-10.98 11.05 13.33 11.03 4.61 2.29Zm9.7 10.29c-4.37 8 7 10.65 2.85 2.28-1-2.09.03-2.27-2.8-2.27Zm13.7 20.57c-9.17.24-6.3 11.45 0 5.14 1.36-1.37.82 2.67 2.28-1.71.75-2.1-.19-2.39-2.23-3.42Zm5.7 17.14c-.53-6.33-12.08-2.38-9.7 0 2.86 2.83 13.82 8.16 9.75.01Zm11.41 8c-18.94-.63 1.14 15 1.14 2.86.04-2.2.44-2.08-1.09-2.85Zm-3.42 16c-2.75-5.58-11.79-.19-6.85 2.28 2.51 1.25 9.31 2.56 6.9-2.26Zm5.71 7.42a3 3 0 0 0-2.86 2.86c.05 10.44 8.54-5.62 2.91-2.84ZM442 315.36c.91.45 6.93-8.05 2.85-10s-8.08 7.39-2.85 10m15.4-22.86c-.89.59-1.39 1.69-2.28 2.28-10.38 6.93-2.2 8.5-1.71 8 1.88-1.88.71-4.28 1.71-6.28.57-1.15 2.52-.81 3.42-1.72.42-.42-1.82-.92-1.14-2.28m4-8c-.37-2.23-1.75-2.86-4-2.86-8.65 0 9.96 14.84 3.98 2.86Zm5.7-17.15c-16.13 7.14-1.14 15.34-1.14 6.29 0-1.24 4.45-3.55 3.42-4.57-.78-.79-1.5-.17-2.28-1.72m4.57-7.43c-5.64 3.17 1.14 13.56 1.14 3.43-.02-1.75.47-2.61-1.16-3.43Zm-22.26 58.29c-4.19-2-9.84 9.72-5.7 9.72.29 0 1.16-2.31 1.71-2.86 1.09-1.07 8.58-4.53 3.97-6.86Zm-10.27 13.15c-.92 1.18-2.8-1.77-3.42-1.15-1.44 1.45.58 14.85 4.56 6.86 1.65-3.3.43-2.56-1.14-5.71m-192.5-116.77c-1.23-.2-3.06-3.8-4.56-2.29-.46.45 4.59 14.23 5.7 12s2.55-9.71-1.14-9.71m4.57 14.86c-1.84.09-2.29 1-2.29 2.85 0 8.92 6.77-.61 2.29-2.85" class="cls-4"/><path id="path1164" d="M249 207.85c-14.75-.08-29.27.81-45.71 2 0 0 65.09-.75 108.41 4.57-24.36-4.76-43.73-6.46-62.7-6.55Zm255.66 0c-19 .09-38.33 1.79-62.7 6.55 43.32-5.32 108.42-4.57 108.42-4.57-16.46-1.17-30.97-2.06-45.73-1.98Zm-200.88 13.2c-56.37.37-106.2 20.78-106.2 20.78s62-17.93 117.54-20.58c-3.8-.16-7.59-.23-11.34-.2m146.11 0c-3.76 0-7.55 0-11.35.2 55.56 2.65 117.55 20.58 117.55 20.58s-49.84-20.41-106.2-20.78M309.4 232.69c-51.33 2.12-92.4 38.85-92.4 38.85s47.58-32.84 92.43-38.85Zm134.84 0c44.86 6 92.43 38.85 92.43 38.85s-41.09-36.73-92.43-38.85" class="cls-4"/></g></g></g></svg>