<svg xmlns="http://www.w3.org/2000/svg" viewBox="0 0 296.91 374"><defs><style>.cls-1{fill:#ba9869}.cls-1,.cls-10,.cls-100,.cls-101,.cls-102,.cls-103,.cls-104,.cls-105,.cls-106,.cls-107,.cls-108,.cls-109,.cls-11,.cls-110,.cls-111,.cls-12,.cls-13,.cls-16,.cls-18,.cls-19,.cls-2,.cls-22,.cls-23,.cls-24,.cls-26,.cls-3,.cls-37,.cls-38,.cls-39,.cls-40,.cls-41,.cls-5,.cls-7,.cls-8,.cls-81,.cls-82,.cls-83,.cls-84,.cls-85,.cls-86,.cls-87,.cls-88,.cls-89,.cls-9,.cls-90,.cls-91,.cls-92,.cls-93,.cls-94,.cls-95,.cls-96,.cls-97,.cls-98,.cls-99{fill-rule:evenodd}.cls-2{fill:#bc9969}.cls-3{fill:#bd9b6c}.cls-5{fill:#c19e6d}.cls-7{fill:#c3a070}.cls-8{fill:#c7a271}.cls-9{fill:#caa472}.cls-10{fill:#caa674}.cls-11{fill:#cda873}.cls-12{fill:#cfa973}.cls-13{fill:#cfaa74}.cls-16{fill:#d3ad72}.cls-18{fill:#d6b071}.cls-19{fill:#d8b271}.cls-22{fill:#dab470}.cls-23{fill:#dcb770}.cls-24{fill:#dfb770}.cls-26,.cls-70{fill:#052763}.cls-37{fill:#0456a0}.cls-38{fill:#0457a2}.cls-39{fill:#0058a3}.cls-40{fill:#e6e7e8}.cls-41{fill:#c8a473}.cls-81{fill:#3f85c5}.cls-82{fill:#4087c7}.cls-83{fill:#ed1c24}.cls-84{fill:#cc171e}.cls-85{fill:#ce181e}.cls-86{fill:#d0181f}.cls-87{fill:#d1181f}.cls-88{fill:#d31820}.cls-89{fill:#d51920}.cls-90{fill:#d71920}.cls-91{fill:#d91921}.cls-92{fill:#db1a21}.cls-93{fill:#dd1a22}.cls-94{fill:#df1a22}.cls-95{fill:#e11b22}.cls-96{fill:#e31b22}.cls-97{fill:#e51b23}.cls-98{fill:#e71c23}.cls-99{fill:#ea1c24}.cls-100{fill:#fff}.cls-101{fill:#e0e1e2}.cls-102{fill:#e4e5e6}.cls-103{fill:#e9e9ea}.cls-104{fill:#ebebec}.cls-105{fill:#efeff0}.cls-106{fill:#f1f2f2}.cls-107{fill:#f3f4f4}.cls-108{fill:#f6f6f6}.cls-109{fill:#f8f8f9}.cls-110{fill:#fcf7dd}.cls-111{fill:#fae095}</style></defs><path d="m133.35 340.56 16.27-.79-1.15 13.17z" class="cls-1"/><path d="m149 347-7.27.36-15.26-12.53a8.4 8.4 0 0 0-1.16-1.15l24.92-1.22Z" class="cls-1"/><path d="m149.62 339.77-16.27.79-6.91-5.69c-2.6-2.66-5.19-5.33-7.78-8.06l32.18-1.59Z" class="cls-2"/><path d="m150.2 332.5-24.92 1.22c-4.39-4.54-8.71-9.14-12.88-13.9l39.09-1.82Z" class="cls-2"/><path d="m150.84 325.22-32.18 1.59c-4.18-4.54-8.21-9.15-12.17-13.9l45.58-2.16Z" class="cls-2"/><path d="m151.49 318-39.09 1.87c-3.89-4.46-7.78-9.14-11.45-13.89l51.77-2.45Z" class="cls-2"/><path d="m152.07 310.75-45.58 2.16c-3.74-4.53-7.34-9.21-10.87-14l57.74-2.73Z" class="cls-3"/><path d="M152.72 303.48 101 305.93c-3.6-4.54-7.06-9.22-10.37-14l63.36-3Z" class="cls-3"/><path d="m153.36 296.21-57.74 2.73c-3.38-4.53-6.7-9.21-9.86-14l68.83-3.32Z" class="cls-3"/><path d="m153.94 288.94-63.36 3c-3.24-4.54-6.41-9.22-9.43-14l74-3.53Z" style="fill-rule:evenodd;fill:#bf9d6c"/><path d="M154.59 281.66 85.76 285c-3.1-4.61-6.12-9.29-9-14l79-3.75Z" class="cls-5"/><path d="m155.16 274.46-74 3.53c-3-4.61-5.83-9.29-8.57-14l83.81-4Z" class="cls-5"/><path d="m155.74 267.19-79 3.75q-4.22-6.92-8.21-14l88.47-4.29Z" style="fill-rule:evenodd;fill:#c19e6f"/><path d="m156.39 259.92-83.81 4c-2.74-4.68-5.33-9.36-7.92-14.11l93-4.46Z" class="cls-7"/><path d="m157 252.65-88.45 4.25c-2.59-4.61-5.11-9.36-7.56-14.12l97.27-4.6Z" class="cls-7"/><path d="m157.61 245.38-93 4.46c-2.45-4.61-4.9-9.36-7.27-14.11l101.52-4.83Z" class="cls-7"/><path d="M158.26 238.18 61 242.78c-2.38-4.6-4.75-9.36-7-14.11l105.48-5Z" class="cls-7"/><path d="m158.91 230.9-101.52 4.83c-2.31-4.68-4.54-9.36-6.7-14.11l109.44-5.26Z" class="cls-8"/><path d="M159.48 223.63 54 228.67c-2.23-4.68-4.39-9.36-6.48-14.18l113.26-5.4Z" class="cls-8"/><path d="m160.13 216.36-109.44 5.26c-2.09-4.68-4.17-9.44-6.19-14.19l116.86-5.54Z" class="cls-8"/><path d="m160.78 209.09-113.26 5.4c-2-4.61-4-9.36-6-14.19L162 194.62Z" class="cls-9"/><path d="M161.36 201.89 44.5 207.43c-2-4.68-4-9.43-5.83-14.18l124-5.83Z" class="cls-10"/><path d="M162 194.62 41.55 200.3c-1.95-4.6-3.82-9.36-5.62-14.11l127.3-6.05Z" class="cls-10"/><path d="m162.65 187.42-124 5.83c-1.8-4.68-3.6-9.36-5.4-14.11l130.61-6.27Z" class="cls-10"/><path d="m163.23 180.14-127.3 6.05c-1.8-4.68-3.53-9.36-5.18-14.18l133.77-6.34Z" class="cls-11"/><path d="m163.88 172.87-130.61 6.27c-1.73-4.68-3.39-9.44-5-14.26l136.83-6.48Z" class="cls-11"/><path d="M164.52 165.67 30.75 172c-1.66-4.68-3.31-9.43-4.9-14.19l139.9-6.69Z" class="cls-12"/><path d="m165.1 158.4-136.87 6.48c-1.59-4.68-3.17-9.43-4.75-14.18l142.92-6.84Z" class="cls-12"/><path d="m165.75 151.13-139.9 6.69c-1.58-4.75-3.09-9.5-4.61-14.25l145.73-7Z" class="cls-13"/><path d="M166.4 143.86 23.48 150.7c-1.52-4.76-3-9.51-4.4-14.26l148.54-7.06Z" class="cls-13"/><path d="m167 136.58-145.73 7-4.32-14.26 151.28-7.2Z" style="fill-rule:evenodd;fill:#d1ab74"/><path d="m167.62 129.38-148.54 7.06c-1.44-4.75-2.88-9.5-4.24-14.26l154-7.34Z" style="fill-rule:evenodd;fill:#d1ad73"/><path d="m168.2 122.11-151.28 7.2-4.1-14.25 156.67-7.49Z" class="cls-16"/><path d="m168.84 114.84-154 7.34c-1.3-4.75-2.67-9.5-4-14.25l159.19-7.63Z" class="cls-16"/><path d="m169.49 107.57-156.67 7.49c-1.3-4.76-2.59-9.51-3.82-14.33L170.72 93Z" class="cls-16"/><path d="m170.07 100.3-159.19 7.63c-1.23-4.75-2.52-9.51-3.75-14.33l164.23-7.78Z" style="fill-rule:evenodd;fill:#d5b073"/><path d="M170.72 93 9 100.73q-1.83-7-3.67-14.26l166.61-7.92Z" class="cls-18"/><path d="M171.36 85.82 7.13 93.6C6 88.92 4.76 84.17 3.6 79.34l169-8.06Z" class="cls-18"/><path d="M171.94 78.55 5.33 86.47 1.88 72.22 173.24 64Z" class="cls-19"/><path d="M172.59 71.28 3.6 79.34C2.52 75 1.52 70.63.51 66.24A5.6 5.6 0 0 1 .15 65l173.66-8.28Z" class="cls-19"/><path d="M173.24 64 1.88 72.22c-.44-2-.94-4-1.37-6-.72-1.94-.94-4.32 1.15-4.54a176.5 176.5 0 0 0 35.06-5.61l137.74-6.55Z" class="cls-19"/><path d="M173.81 56.74.15 65c-.36-1.57-.15-3.15 1.51-3.3 22.68-1.58 41.62-6.12 56.59-13.89l116.86-5.55Z" style="fill-rule:evenodd;fill:#dab271"/><path d="M174.46 49.54 36.72 56.09c13.4-3.67 24.77-9 34-16.06l105-5Z" style="fill-rule:evenodd;fill:#dab472"/><path d="M175.11 42.26 58.25 47.81a77.8 77.8 0 0 0 21-15.41l97.13-4.68Z" class="cls-22"/><path d="m175.68 35-105 5a69.4 69.4 0 0 0 14.64-15.16l88.42-4.18 3 2.45Z" class="cls-22"/><path d="M176.33 27.72 79.2 32.4a70.5 70.5 0 0 0 10.66-15l75.46-3.6 11.44 9.29Z" class="cls-23"/><path d="m173.74 20.66-88.42 4.18A69.2 69.2 0 0 0 93.24 10L157 7Z" class="cls-23"/><path d="m165.32 13.82-75.46 3.6a75.5 75.5 0 0 0 5.9-14.76L148.61.14Z" class="cls-24"/><path d="m157 7-63.76 3a73 73 0 0 0 3.24-10h52Z" class="cls-24"/><path d="M148.61.14 95.76 2.66c.22-.86.51-1.8.72-2.66h52Z" style="fill-rule:evenodd;fill:#e1ba6f"/><path d="M140.26 338.83h9.15l-.94 6.77z" class="cls-26"/><path d="M132.05 332.14h18.36l-1.94 13.46z" class="cls-26"/><path d="M149.41 338.83h-9.15l-9.94-8.13-2.88-2.96v-2.37h23.98z" class="cls-26"/><path d="M150.41 332.14h-18.36l-1.73-1.44-2.88-2.96v-9.07h24.92z" class="cls-26"/><path d="M151.42 325.37h-23.98V311.9h25.93z" class="cls-26"/><path d="M152.36 318.67h-24.92v-13.46h26.86z" class="cls-26"/><path d="M153.37 311.9h-25.93v-13.46h27.8z" class="cls-26"/><path d="M154.3 305.21h-26.86v-13.47h28.73z" class="cls-26"/><path d="M155.24 298.44h-27.8v-13.39h29.74z" style="fill-rule:evenodd;fill:#072967"/><path d="M156.17 291.74h-28.73v-13.46h30.75z" style="fill-rule:evenodd;fill:#052f6d"/><path d="M157.18 285.05h-29.74v-7.92h.65l-.65-5.04v-.51h31.69z" style="fill-rule:evenodd;fill:#073272"/><path d="M158.19 278.28h-30.75v-1.15h.65l-.65-5.04v-.58h-.07l-.72-5.9-.07-.79h33.55z" style="fill-rule:evenodd;fill:#093878"/><path d="M159.13 271.58h-31.69v-.07h-.07l-.72-5.9-.86-7.49h35.28z" style="fill-rule:evenodd;fill:#083c7e"/><path d="M160.13 264.82h-33.55l-.94-7.64-.64-5.83h37.08z" style="fill-rule:evenodd;fill:#0d4183"/><path d="M161.07 258.12h-35.28l-.15-.94-1-8.35-.44-4.17h38.81z" style="fill-rule:evenodd;fill:#0b4589"/><path d="M162.08 251.35H125l-.36-2.52-.94-8.35-.29-2.59h40.61z" style="fill-rule:evenodd;fill:#07498e"/><path d="M163.01 244.66H124.2l-.5-4.18-1.01-8.35-.07-.94h42.41z" style="fill-rule:evenodd;fill:#044d94"/><path d="M164.02 237.89h-40.61l-.72-5.76-.86-7.71h44.14z" style="fill-rule:evenodd;fill:#095199"/><path d="M165.03 231.19h-42.41l-.86-7.49-.72-5.97h45.93z" class="cls-37"/><path d="M165.97 224.42h-44.14l-.07-.72-1.01-8.35-.43-4.39h47.59z" class="cls-37"/><path d="M166.97 217.73h-45.93l-.29-2.38-.94-8.42-.28-2.67h49.39z" class="cls-37"/><path d="M167.91 210.96h-47.59l-.51-4.03-.93-8.35-.15-1.01h51.2z" class="cls-37"/><path d="M168.92 204.26h-49.39l-.65-5.68-.87-7.78h52.85z" class="cls-37"/><path d="M169.93 197.57h-51.2l-.79-7.42-.65-5.97h54.58z" class="cls-37"/><path d="M170.86 190.8h-52.85l-.07-.65-.94-8.35-.5-4.39h56.31z" class="cls-37"/><path d="M171.87 184.18h-54.58l-.29-2.38-.93-8.35-.29-2.74h58.03z" class="cls-37"/><path d="M172.81 177.41H116.5l-.43-3.96-.87-8.43-.14-1.08h59.69z" class="cls-37"/><path d="M173.81 170.71h-58.03l-.58-5.69-.86-7.77h61.42z" class="cls-37"/><path d="M174.75 163.94h-59.69l-.79-7.34-.65-6.12h63.14z" class="cls-37"/><path d="M175.76 157.25h-61.42l-.07-.65-.86-8.42-.51-4.4h64.8z" class="cls-37"/><path d="M176.76 150.48h-63.14l-.21-2.3-.94-8.5-.22-2.66h66.46z" class="cls-37"/><path d="M177.7 143.78h-64.8l-.43-4.1-.86-8.42-.08-.94h68.12z" class="cls-37"/><path d="M178.71 137.02h-66.46l-.64-5.76-.8-7.71h69.84z" class="cls-37"/><path d="M179.65 130.32h-68.12l-.79-7.49-.57-5.97h71.42z" class="cls-37"/><path d="M180.65 123.55h-69.84l-.07-.72-.86-8.49-.44-4.18h73.16z" class="cls-37"/><path d="M181.59 116.86h-71.42l-.29-2.52-.87-8.43-.21-2.52h74.8z" class="cls-37"/><path d="M182.6 110.16h-73.16l-.43-4.25-.79-8.49-.07-.72h76.39z" class="cls-37"/><path d="M183.6 103.39h-74.8l-.58-5.97-.72-7.49h78.05z" class="cls-37"/><path d="M184.54 96.7h-76.39l-.79-7.71-.51-5.76h77.47l1.23 6.7z" class="cls-37"/><path d="M185.55 89.93H107.5l-.14-.94-.8-8.49-.36-4.04h76.9z" class="cls-37"/><path d="M184.32 83.23h-77.47l-.29-2.73-.79-8.5-.21-2.23h76.32z" class="cls-38"/><path d="M183.1 76.46h-76.9l-.43-4.46-.86-8.5V63h75.74z" class="cls-38"/><path d="M181.88 69.77h-76.32l-.65-6.27-.65-7.2h75.24z" class="cls-38"/><path d="M180.65 63h-75.74l-.72-7.99-.5-5.47h74.59z" class="cls-38"/><path d="M179.5 56.3h-75.24l-.07-1.29-.79-8.5-.36-3.67h74.01z" class="cls-38"/><path d="M178.28 49.54h-74.59l-.29-3.03-.79-8.49-.15-1.95h73.37z" class="cls-38"/><path d="M177.05 42.84h-74.01l-.43-4.82-.8-8.5v-.14h72.79z" class="cls-38"/><path d="M175.83 36.07h-73.37l-.65-6.55-.57-6.84h72.14z" class="cls-38"/><path d="M174.6 29.38h-72.79l-.72-8.43-.43-5.04h71.57z" class="cls-38"/><path d="M173.38 22.68h-72.14l-.15-1.73-.72-8.49-.29-3.24h48.39l23.11 3.45z" class="cls-38"/><path d="M172.23 15.91h-71.57l-.29-3.45-.29-3.24h48.39l23.11 3.45zM148.47 9.22h-48.39z" class="cls-39"/><path d="m124.28 324.43-1.8-1.94 1.51-.72-4.46-10.87-3.39-8.43-3.31-8.42-3.24-8.5-3.1-8.49-3.09-8.5-1.51-4.39 1.58.21 3.81.44 3.82.36 3.89.36 3.89.36 2.16.14v.22l1.29 10.87h1.95z" class="cls-40"/><path d="m155.81 346.82 74.81-94.1c-16.92 31-36.72 58.61-60.26 82.15Z" class="cls-41"/><path d="m148.47 345.38 96.84-121.89c-19.95 43.13-44.31 80.71-74.95 111.38l-21.89 18.07Z" class="cls-41"/><path d="m230.62 252.72-74.81 94.1-7.34 6.12v-18.36L255.53 199.8a527 527 0 0 1-24.91 52.92" class="cls-9"/><path d="m245.31 223.49-96.84 121.89v-21.6l115.2-144.93q-8.53 23.15-18.36 44.64" class="cls-9"/><path d="M255.53 199.8 148.47 334.58V313l122-153.43c-4.71 13.81-9.61 27.27-14.94 40.23" class="cls-9"/><path d="m263.67 178.85-115.2 144.93v-21.6l127.8-160.84c-3.96 12.88-8.14 25.34-12.6 37.51" class="cls-9"/><path d="M270.44 159.55 148.47 313v-21.6l133-167.32q-5.2 18.12-11.03 35.47" class="cls-10"/><path d="m276.27 141.34-127.8 160.84v-21.6L286.06 107.5q-4.65 17.28-9.79 33.84" style="fill-rule:evenodd;fill:#caa877"/><path d="m281.45 124.06-133 167.32v-21.6L290.24 91.37c-2.81 11.16-5.69 22.03-8.79 32.69" style="fill-rule:evenodd;fill:#cdaa77"/><path d="M286.06 107.5 148.47 280.58V259L294.12 75.74c-2.59 10.8-5.25 21.32-8.06 31.76" style="fill-rule:evenodd;fill:#cfac7b"/><path d="M290.24 91.37 148.47 269.78v-21.52l147.89-186c.79.79.5 2.52 0 4-1.95 8.48-4.04 16.9-6.12 25.11" style="fill-rule:evenodd;fill:#cfae7b"/><path d="M294.12 75.74 148.47 259v-21.54L288.58 61.13c2.16.21 4.39.43 6.62.57s1.88 2.6 1.16 4.54c-.72 3.24-1.52 6.41-2.24 9.5" style="fill-rule:evenodd;fill:#d1b17f"/><path d="m296.36 62.21-147.89 186v-21.6L280.73 60.26c4.61.58 9.43 1.08 14.47 1.44a2 2 0 0 1 1.16.51" style="fill-rule:evenodd;fill:#d3b37f"/><path d="M288.58 61.13 148.47 237.46v-21.6L273.1 59c4.9.9 10.08 1.62 15.48 2.13" style="fill-rule:evenodd;fill:#d3b581"/><path d="m280.73 60.26-132.26 166.4v-21.6l117.29-147.6c4.75 1.15 9.72 2.01 14.97 2.8" style="fill-rule:evenodd;fill:#d5b784"/><path d="M273.1 59 148.47 215.86v-21.6l110.16-138.6c4.53 1.34 9.43 2.44 14.47 3.34" style="fill-rule:evenodd;fill:#d8ba86"/><path d="m265.76 57.46-117.29 147.6v-21.53l103.32-130a123 123 0 0 0 13.97 3.93" style="fill-rule:evenodd;fill:#d8bb88"/><path d="m258.63 55.66-110.16 138.6v-21.53L245.24 50.9a112 112 0 0 0 13.39 4.76" style="fill-rule:evenodd;fill:#dabe8a"/><path d="m251.79 53.5-103.32 130v-21.6L239 48a111 111 0 0 0 12.79 5.5" style="fill-rule:evenodd;fill:#dac08c"/><path d="m245.24 50.9-96.77 121.83v-21.6L233 44.71a83.4 83.4 0 0 0 12.24 6.19" style="fill-rule:evenodd;fill:#dcc28f"/><path d="m239 48-90.5 113.91v-21.6L227.38 41A88 88 0 0 0 239 48" style="fill-rule:evenodd;fill:#dfc591"/><path d="m233 44.71-84.53 106.42v-21.6l73.73-92.81a78 78 0 0 0 10.8 7.99" style="fill-rule:evenodd;fill:#dfc793"/><path d="m227.38 41-78.91 99.36v-21.6L217.3 32a75 75 0 0 0 10.08 9" style="fill-rule:evenodd;fill:#e1c995"/><path d="m222.2 36.72-73.73 92.81v-21.6l64.44-81.15a66.6 66.6 0 0 0 9.29 9.94" style="fill-rule:evenodd;fill:#e3cc98"/><path d="m217.3 32-68.83 86.69V97.13L209 21a78.5 78.5 0 0 0 8.3 11" style="fill-rule:evenodd;fill:#e3ce9a"/><path d="m212.91 26.78-64.44 81.15v-21.6l57-71.86a70.7 70.7 0 0 0 7.44 12.31" style="fill-rule:evenodd;fill:#e6d09d"/><path d="m209 21-60.53 76.13v-21.6l54.14-68.19A69.3 69.3 0 0 0 209 21" style="fill-rule:evenodd;fill:#e8d39f"/><path d="m205.49 14.47-57 71.86V64.8L199.88 0h.5a80 80 0 0 0 5.11 14.47" style="fill-rule:evenodd;fill:#e8d5a2"/><path d="m202.61 7.34-54.14 68.19V54l42.84-54h9.07c.62 2.52 1.37 5 2.23 7.34" style="fill-rule:evenodd;fill:#ebd8a4"/><path d="m199.88 0-51.41 64.8V43.2L182.74 0z" style="fill-rule:evenodd;fill:#eddaa7"/><path d="m191.31 0-42.84 54V32.4L174.1 0z" style="fill-rule:evenodd;fill:#eddca9"/><path d="m182.74 0-34.27 43.2V21.6L165.53 0z" style="fill-rule:evenodd;fill:#f0dfac"/><path d="m174.1 0-25.63 32.4V10.8l8.5-10.8z" style="fill-rule:evenodd;fill:#f2e2af"/><path d="m165.53 0-17.06 21.6V0z" style="fill-rule:evenodd;fill:#f2e4b1"/><path d="m156.97 0-8.5 10.8V0z" style="fill-rule:evenodd;fill:#f7eab7"/><path d="M148.47 345.6v-6.77h8.13z" class="cls-26"/><path d="M148.47 345.6v-13.46h16.34z" class="cls-26"/><path d="M156.6 338.83h-8.13v-13.46h20.74v2.59l-2.67 2.74z" class="cls-26"/><path d="M164.81 332.14h-16.34v-13.47h20.74v9.29l-2.67 2.74z" class="cls-26"/><path d="M148.47 311.9h20.74v13.46h-20.74z" class="cls-70"/><path d="M148.47 305.21h20.74v13.46h-20.74z" class="cls-70"/><path d="M148.47 298.51h20.74v13.39h-20.74z" class="cls-70"/><path d="M148.47 291.74h20.74v13.46h-20.74z" class="cls-70"/><path d="M148.47 285.05h20.74v13.46h-20.74z" style="fill:#072c68"/><path d="M148.47 278.28h20.74v13.46h-20.74z" style="fill:#10346f"/><path d="M169.21 285.05h-20.74v-13.47h20.3l-.64 5.55h1.08z" style="fill-rule:evenodd;fill:#123d78"/><path d="M169.21 278.28h-20.74v-13.46h21.09l-.07.79-1.36 11.52h1.08z" style="fill-rule:evenodd;fill:#1b4580"/><path d="M168.77 271.58h-20.3v-13.46h21.89l-.87 7.49z" style="fill-rule:evenodd;fill:#1e4d89"/><path d="M169.56 264.82h-21.09v-13.47h22.75l-.72 5.83z" style="fill-rule:evenodd;fill:#215692"/><path d="M170.36 258.12h-21.89v-13.46h23.54l-.5 4.17-1.01 8.35z" style="fill-rule:evenodd;fill:#295e9a"/><path d="M171.22 251.35h-22.75v-13.46h24.34l-.37 2.59-.93 8.35z" style="fill-rule:evenodd;fill:#2d67a4"/><path d="M172.01 244.66h-23.54v-13.47h25.06l-.08.94-1.01 8.35z" style="fill-rule:evenodd;fill:#3471ae"/><path d="M172.81 237.89h-24.34v-13.47h25.85l-.87 7.71z" style="fill-rule:evenodd;fill:#377bba"/><path d="M173.53 231.19h-25.06v-13.46h26.64l-.72 5.97z" class="cls-81"/><path d="M174.32 224.42h-25.85v-13.39h27.43l-.5 4.32-1.01 8.35z" class="cls-81"/><path d="M175.11 217.73h-26.64v-13.47h28.15l-.29 2.67-.93 8.42z" class="cls-81"/><path d="M175.9 211.03h-27.43v-13.46h28.94l-.14 1.01-.94 8.35z" class="cls-81"/><path d="M176.62 204.26h-28.15V190.8h29.66l-.86 7.78z" class="cls-81"/><path d="M177.41 197.57h-28.94v-13.39h30.38l-.64 5.97z" class="cls-81"/><path d="M178.13 190.8h-29.66v-13.39h31.18l-.51 4.39-.93 8.35z" class="cls-81"/><path d="M178.85 184.18h-30.38v-13.47h31.9l-.29 2.74-.94 8.35z" class="cls-81"/><path d="M179.65 177.41h-31.18v-13.47h32.62l-.15 1.08-.86 8.43z" class="cls-81"/><path d="M180.37 170.71h-31.9v-13.46h33.34l-.65 6.05v.21l-.22 1.51z" class="cls-81"/><path d="M181.09 163.94h-32.62v-13.46h34.06l-.65 6.12-.72 6.7v.21z" class="cls-81"/><path d="M181.81 157.25h-33.34v-13.47h34.78l-.51 4.4-.86 8.42z" class="cls-81"/><path d="M182.53 150.48h-34.06v-13.46h35.5l-.29 2.66-.94 8.5z" class="cls-81"/><path d="M183.25 143.78h-34.78v-13.46h36.14l-.07.94-.86 8.42z" class="cls-81"/><path d="M183.97 137.02h-35.5v-13.4h36.86l-.79 7.64z" class="cls-81"/><path d="M184.61 130.32h-36.14v-13.46h37.51l-.57 5.97z" class="cls-81"/><path d="M185.33 123.62h-36.86v-13.46h38.23l-.43 4.18-.86 8.49z" class="cls-81"/><path d="M185.98 116.86h-37.51v-13.47h38.88l-.22 2.52-.86 8.43z" class="cls-81"/><path d="M186.7 110.16h-38.23V96.7H188l-.07.72-.8 8.49z" class="cls-81"/><path d="M187.35 103.39h-38.88V89.93h40.25l-.79 7.49z" class="cls-81"/><path d="M188 96.7h-39.53V83.23h40.9l-.58 5.76z" class="cls-81"/><path d="M188.72 89.93h-40.25V76.46h41.54l-.43 4.04-.79 8.49z" class="cls-81"/><path d="M189.37 83.23h-40.9V69.77h42.12l-.15 2.23-.86 8.5z" class="cls-82"/><path d="M190.01 76.46h-41.54V63h42.77v.5l-.8 8.5z" class="cls-82"/><path d="M190.59 69.77h-42.12V56.3h43.41l-.64 7.2z" class="cls-82"/><path d="M191.24 63h-42.77V49.54h44.06l-.5 5.47z" class="cls-82"/><path d="M191.88 56.3h-43.41V42.84h44.64l-.36 3.67-.72 8.5z" class="cls-82"/><path d="M192.53 49.54h-44.06V36.07h45.29l-.22 1.95-.79 8.49z" class="cls-82"/><path d="M193.11 42.84h-44.64V29.38h45.86v.14l-.79 8.5z" class="cls-82"/><path d="M193.76 36.07h-45.29V22.68h46.44l-.58 6.84z" class="cls-82"/><path d="M194.33 29.38h-45.86V15.91h47.02l-.44 5.04z" class="cls-82"/><path d="M194.91 22.68h-46.44V9.22h47.59l-.29 3.24-.72 8.49z" class="cls-82"/><path d="M195.49 15.91h-47.02V9.22h47.589999999999996l-.29 3.24zM196.06 9.22h-47.59z" class="cls-82"/><path d="m109.23 162.94-.58-5.76-.93-8.43-.87-8.42-.86-8.5-.86-8.42-.65-6.41-2.52-.14-3.82-.29-3.81-.29-3.75-.29-3.74-.36-3.67-.29-3.61-.36-3.59-.36-3.61-.36-3.52-.43-3.46-.43-3.38-.36 1.29 7.06 1.73 9 1.87 8.92 1.88 8.86 2.01 8.93.79 3.6.43.07 3.53.43 3.46.36 3.53.36 3.6.36 3.6.36 3.6.36 3.67.29 3.74.29 3.82.29 3.81.28z" class="cls-83"/><path d="M109.81 259.34h10.44l.07.94-1.01-.07-3.82-.29-3.81-.36z" class="cls-84"/><path d="M101.74 258.48h18.36l.22 1.8-1.01-.07-3.82-.29-3.81-.36-3.82-.36-3.74-.43z" class="cls-84"/><path d="M120.25 259.34h-10.44l-1.95-.14-3.74-.43-3.68-.51-.64-.07-.22-.65h20.45v.36z" class="cls-84"/><path d="M120.1 258.48h-18.36l-1.3-.22-.64-.07-.51-1.58h20.6l.14 1.29z" class="cls-85"/><path d="M120.03 257.54H99.58l-.58-1.87h20.74z" class="cls-85"/><path d="M119.89 256.61h-20.6l-.65-1.8h21.03z" class="cls-86"/><path d="M119.74 255.67H99l-.64-1.8h21.17z" class="cls-87"/><path d="M119.67 254.81H98.64l-.57-1.87h21.38z" class="cls-87"/><path d="M119.53 253.87H98.36l-.65-1.8h21.6z" class="cls-88"/><path d="M119.45 252.94H98.07l-.51-1.44-.14-.36h21.82z" class="cls-88"/><path d="M119.31 252.07h-21.6l-.15-.57-.43-1.3h21.96z" class="cls-89"/><path d="M119.24 251.14H97.42l-.58-1.88h22.18v.29z" class="cls-89"/><path d="M119.09 250.2H97.13l-.57-1.8h22.32l.14 1.15z" class="cls-90"/><path d="M119.02 249.26H96.84l-.64-1.8h22.61z" class="cls-91"/><path d="M118.88 248.4H96.56l-.65-1.87h22.75z" class="cls-91"/><path d="M118.81 247.46H96.2l-.58-1.8h22.97z" class="cls-92"/><path d="M118.66 246.53H95.91l-.58-1.8h23.11z" class="cls-92"/><path d="M118.59 245.66H95.62l-.57-1.87h23.32z" class="cls-93"/><path d="M118.44 244.73H95.33l-.57-1.8-.07-.07h23.54z" class="cls-93"/><path d="M118.37 243.79H95.05l-.29-.86-.36-.94h23.76z" class="cls-94"/><path d="M118.23 242.86H94.69l-.58-1.8h23.9l.07.07z" class="cls-95"/><path d="M118.16 241.99H94.4l-.58-1.87h24.12l.14 1.01z" class="cls-95"/><path d="M118.01 241.06h-23.9l-.58-1.88h24.27z" class="cls-96"/><path d="M117.94 240.12H93.82l-.57-1.8h24.47z" class="cls-96"/><path d="M117.8 239.18H93.53l-.57-1.8h24.69z" class="cls-97"/><path d="M117.72 238.32H93.25l-.58-1.87h24.84z" class="cls-97"/><path d="M117.65 237.38H92.96l-.58-1.8h25.06z" class="cls-97"/><path d="M117.51 236.45H92.67l-.58-1.8h25.2z" class="cls-97"/><path d="M117.44 235.58H92.38l-.43-1.29-.14-.58h25.41z" class="cls-97"/><path d="M117.29 234.65h-25.2l-.14-.36-.43-1.51h25.56z" class="cls-97"/><path d="M117.22 233.71H91.81l-.58-1.8H117l.08.87z" class="cls-97"/><path d="M117.08 232.78H91.52l-.58-1.8h25.92z" class="cls-98"/><path d="M117 231.91H91.23l-.58-1.87h26.14z" class="cls-98"/><path d="M116.86 230.98H90.94l-.58-1.8h26.28z" class="cls-98"/><path d="M116.79 230.04H90.65l-.57-1.8h26.49z" class="cls-98"/><path d="M116.64 229.18H90.36l-.57-1.88h26.64z" class="cls-98"/><path d="M116.57 228.24H90.08l-.51-1.87h26.79z" class="cls-98"/><path d="M116.43 227.3H89.79l-.51-1.65v-.15h26.93z" class="cls-98"/><path d="M116.36 226.37H89.57l-.29-.72-.28-1.08h27.14z" class="cls-98"/><path d="M116.21 225.5H89.28l-.57-1.87H116l.14.72z" class="cls-98"/><path d="M116.14 224.57H89l-.58-1.8h27.5l.22 1.58z" class="cls-98"/><path d="M116 223.63H88.71l-.58-1.8h27.65z" class="cls-99"/><path d="M115.92 222.77h-27.5l-.5-1.87h27.79z" class="cls-99"/><path d="M115.78 221.83H88.13l-.5-1.87h28.01z" class="cls-99"/><path d="M115.71 220.9H87.92l-.58-1.8h28.15z" class="cls-99"/><path d="M115.64 219.96H87.63l-.58-1.8h28.37z" class="cls-99"/><path d="M115.49 219.1H87.34l-.57-1.88h26.49l2.02.15z" class="cls-99"/><path d="M115.42 218.16H87.05l-.36-1.15-.14-.72h15.7l3.31.36 3.81.29 3.89.28 2.02.15z" class="cls-99"/><path d="M113.26 217.22H86.77l-.08-.21-.43-1.59h7.27l.65.08 3.74.43 3.82.36 3.82.36 3.81.29z" class="cls-83"/><path d="M102.25 216.29h-15.7l-.58-1.8.87.14 3.67.43 3.67.44 3.74.43 3.82.36z" class="cls-83"/><path d="M93.53 215.42h-7.27l-.29-.93.87.14 3.67.43z" class="cls-83"/><path d="m175.83 260.28.14-1.08 2.88.86-2.16.15z" class="cls-84"/><path d="m175.83 260.28.29-2.16 5.69 1.66-1.3.14-3.82.29z" class="cls-84"/><path d="m178.85 260.06-2.88-.86.15-1.3.07-.86 8.5 2.52h-.37l-3.81.36z" class="cls-84"/><path d="m181.81 259.78-5.69-1.66v-.22l.21-1.94 11.16 3.31-3.17.29z" class="cls-85"/><path d="m184.69 259.56-8.5-2.52.29-2.16 13.75 4.03-2.16.29z" class="cls-85"/><path d="m187.49 259.27-11.16-3.31.29-2.16 16.27 4.82-1.08.15-3.74.43z" class="cls-86"/><path d="m190.23 258.91-13.75-4.03.28-2.16 18.8 5.54-3.75.51z" class="cls-87"/><path d="m192.89 258.62-16.27-4.82.22-2.16 19.72 5.83-.21.72-.79.07z" class="cls-87"/><path d="m195.56 258.26-18.8-5.54.22-2.16 19.95 5.9-.58 1.73z" class="cls-88"/><path d="m196.56 257.47-19.72-5.83.29-2.09v-.07l20.15 5.98z" class="cls-88"/><path d="m196.93 256.46-19.95-5.9.15-1.01.14-1.15 20.38 5.98z" class="cls-89"/><path d="m197.28 255.46-20.15-5.98.28-2.16 20.52 6.05z" class="cls-89"/><path d="m197.65 254.38-20.38-5.98.22-2.16 20.8 6.12z" class="cls-90"/><path d="m197.93 253.37-20.52-6.05.22-2.16 21.02 6.19-.07.15z" class="cls-91"/><path d="m198.29 252.36-20.8-6.12.28-2.16 21.24 6.26-.43 1.16z" class="cls-91"/><path d="m198.65 251.35-21.02-6.19.29-2.23 21.38 6.41z" class="cls-92"/><path d="m199.01 250.34-21.24-6.26.22-2.23 21.67 6.48z" class="cls-92"/><path d="m199.3 249.34-21.38-6.41.21-1.8v-.36l21.89 6.48z" class="cls-93"/><path d="m199.66 248.33-21.67-6.48.14-.72.15-1.44 22.03 6.55z" class="cls-93"/><path d="m200.02 247.25-21.89-6.48.29-2.16 22.25 6.62z" class="cls-94"/><path d="m200.31 246.24-22.03-6.55.21-2.16 22.54 6.69z" class="cls-95"/><path d="m200.67 245.23-22.25-6.62.22-2.16 22.68 6.77z" class="cls-95"/><path d="m201.03 244.22-22.54-6.69.29-2.16 22.9 6.77-.22.79z" class="cls-96"/><path d="m201.32 243.22-22.68-6.77.29-2.16 23.04 6.84-.51 1.8z" class="cls-96"/><path d="m201.68 242.14-22.9-6.77.22-2.16 23.32 6.91z" class="cls-97"/><path d="m201.97 241.13-23.04-6.84.14-1.51.07-.65 23.47 6.98z" class="cls-97"/><path d="M202.32 240.12 179 233.21l.07-.43.21-1.73 23.69 7.05z" class="cls-97"/><path d="m202.61 239.11-23.47-6.98.29-2.16 23.83 7.05z" class="cls-97"/><path d="m202.97 238.1-23.69-7.05.22-2.16 24.12 7.13z" class="cls-97"/><path d="m203.26 237.02-23.83-7.05.22-2.16 24.33 7.2z" class="cls-97"/><path d="m203.62 236.02-24.12-7.13.29-2.16 24.48 7.27-.07.29z" class="cls-97"/><path d="m203.98 235.01-24.33-7.2.28-2.16 24.63 7.34-.36 1.3z" class="cls-98"/><path d="m204.27 234-24.48-7.27.21-2.16 24.92 7.34z" class="cls-98"/><path d="m204.56 232.99-24.63-7.34.15-1.3.07-.86 25.06 7.41z" class="cls-98"/><path d="M204.92 231.91 180 224.57l.08-.22.21-1.94 25.27 7.49z" class="cls-98"/><path d="m205.21 230.9-25.06-7.41.22-2.16 25.48 7.56z" class="cls-98"/><path d="m205.56 229.9-25.27-7.49.22-2.16 25.63 7.56z" class="cls-98"/><path d="m205.85 228.89-25.48-7.56.28-2.16 25.85 7.63z" class="cls-98"/><path d="m206.14 227.81-25.63-7.56.29-2.16 25.99 7.7z" class="cls-98"/><path d="m206.5 226.8-25.85-7.63.22-1.8 1.08-.07 25.2 7.48-.29.87z" class="cls-98"/><path d="m206.79 225.79-25.99-7.7.07-.72 1.8-.15 2.3-.14 22.47 6.62-.58 1.95z" class="cls-98"/><path d="m207.15 224.78-25.2-7.48.72-.08 3.89-.28 1.37-.08 19.79 5.84z" class="cls-99"/><path d="m207.44 223.7-22.47-6.62 1.59-.14 3.81-.29.51-.07 17.13 5.11z" class="cls-99"/><path d="m207.72 222.7-19.79-5.84 2.44-.21 3.39-.36 14.61 4.32z" class="cls-99"/><path d="m208.01 221.69-17.13-5.11 3.31-.29 2.37-.29 12.1 3.6z" class="cls-99"/><path d="m208.37 220.61-14.61-4.32h.43l3.81-.36 1.37-.22 9.58 2.88z" class="cls-99"/><path d="m208.66 219.6-12.1-3.6 1.44-.07 3.75-.43.36-.08 7.2 2.16z" class="cls-99"/><path d="m208.95 218.59-9.58-2.88 2.38-.21 3.09-.36 4.76 1.36-.15.51v.07z" class="cls-99"/><path d="m209.31 217.58-7.2-2.16 3.31-.36 2.09-.28 2.37.72-.43 1.51-.07.07z" class="cls-83"/><path d="m209.6 216.5-4.76-1.36.58-.08 3.67-.43 1.08-.14z" class="cls-83"/><path d="m209.88 215.5-2.37-.72 1.58-.15 1.08-.14zM191.67 117l-.65 6.41-.86 8.42-.87 8.5-.86 8.42-.94 8.43-.57 5.76.72-.08 3.81-.28 3.82-.29 3.67-.29 3.75-.29 3.59-.36 3.6-.36 3.61-.36 3.52-.36 3.46-.36 3.46-.43.64-.07.87-3.6 1.94-8.93 1.87-8.86 1.88-8.92 1.72-9 1.3-7.13-.07.07-3.46.36-3.46.43-3.52.43-3.6.36-3.6.36-3.6.36-3.68.29-3.74.36-3.74.29-3.82.29-3.82.29z" class="cls-83"/><path d="m103.9 111.24-.5-4.75-.87-8.5-.79-8.49-.86-8.43-.8-8.49-.79-8.5-.21-2.09-2.09-.14-3.89-.22-3.82-.29-3.74-.36-3.67-.28-3.67-.36-3.67-.36-3.61-.36-3.52-.36-3.53-.36-3.53-.44-3.38-.43-3.46-.43h-.14l1.01 8.06 1.29 9.15 1.37 9.14 1.51 9.07 1.51 9.08.87 5.11 1.73.21 3.38.36 3.45.44 3.53.36 3.53.36 3.53.43 3.6.29 3.67.36 3.67.28 3.75.29 3.74.29 3.82.29zM197.07 61.99l-.22 2.09-.79 8.5-.79 8.49-.86 8.43-.8 8.49-.86 8.5-.5 4.75 1.44-.07 3.81-.29 3.75-.29 3.74-.29 3.67-.28 3.67-.36 3.6-.29 3.53-.43 3.53-.36 3.53-.36 3.45-.44 3.39-.36 1.87-.28.86-5.04 1.59-9.08 1.44-9.07 1.37-9.14 1.29-9.15 1.08-8.06h-.36l-3.46.43-3.45.43-3.46.44-3.53.36-3.52.36-3.6.36-3.67.36-3.68.36-3.67.28-3.74.36-3.82.29-3.89.22z" class="cls-100"/><path d="m276.92 119.16 1.8-12.96.72-.14 1.22-.22-2.73 9.86z" class="cls-101"/><path d="m279.94 105.98-.72 5.04-1.29 4.68-2.81 9.8-.43 1.44 2.87-20.52 1.88-.36z" class="cls-102"/><path d="m278.72 106.2-1.8 12.96-1.8 6.34-2.6 8.64 3.89-27.58z" class="cls-40"/><path d="m277.56 106.42-2.87 20.52-2.45 8.2-1.8 5.84 4.75-34.2 1.15-.15z" class="cls-103"/><path d="m276.41 106.56-3.89 27.58-.28 1-2.95 9.58-.87 2.74 5.62-40.47 2.3-.36z" class="cls-104"/><path d="m275.19 106.78-4.75 34.2-1.15 3.74-2.74 8.5h-.07l6.4-46.01.37-.07z" class="cls-105"/><path d="m274.04 106.99-5.62 40.47-1.87 5.76h-.29l-.94.21 6.34-46.01 1.59-.28z" class="cls-106"/><path d="m272.88 107.21-6.4 46.01h-.22l-2.16.43 6.41-46.01z" class="cls-107"/><path d="m271.66 107.42-6.34 46.01-2.15.36h-.22l6.41-46.01.79-.07z" class="cls-108"/><path d="m270.51 107.64-6.41 46.01-.93.14-1.37.22 6.33-46.01 2.02-.29z" class="cls-109"/><path d="m269.36 107.78-6.41 46.01-2.38.43 6.41-46z" class="cls-100"/><path d="m268.13 108-6.33 46.01-1.8.29-.58.14 6.41-46.01 1.15-.21z" class="cls-100"/><path d="m266.98 108.22-6.41 46-.57.08-1.73.28 6.34-46z" class="cls-100"/><path d="m265.83 108.43-6.41 46.01-2.37.36 6.4-46.01.36-.07z" class="cls-100"/><path d="m264.61 108.58-6.34 46-1.37.22-1.01.22 6.41-46.01 1.51-.29z" class="cls-100"/><path d="m263.45 108.79-6.4 46.01h-.15l-2.16.36 6.34-46.01z" class="cls-100"/><path d="m262.3 109.01-6.41 46.01-2.16.28-.21.08 6.41-46.01.64-.15z" class="cls-100"/><path d="m261.08 109.15-6.34 46.01-1.01.14-1.36.22 6.4-46.01 1.8-.29z" class="cls-100"/><path d="m259.93 109.37-6.41 46.01-2.31.36 6.34-46.01z" class="cls-100"/><path d="m258.77 109.51-6.4 46.01-1.88.29-.5.14 6.41-46.08 1-.14z" class="cls-100"/><path d="m257.55 109.73-6.34 46.01-.72.07-1.65.29 6.41-46.01 2.15-.36z" class="cls-100"/><path d="m256.4 109.87-6.41 46.08-2.3.36 6.4-46.08z" class="cls-100"/><path d="m255.25 110.09-6.41 46.01-1.59.21-.79.15 6.41-46.01 1.22-.22z" class="cls-100"/><path d="m254.09 110.23-6.4 46.08h-.44l-1.94.29 6.41-46.01z" class="cls-100"/><path d="m252.87 110.45-6.41 46.01-2.3.36 6.4-46.01.29-.07z" class="cls-100"/><path d="m251.72 110.59-6.41 46.01-1.3.22-1.01.14 6.34-46.01 1.51-.21z" class="cls-100"/><path d="m250.56 110.81-6.4 46.01h-.15l-2.23.36 6.41-46.08z" class="cls-100"/><path d="M249.34 110.95 243 156.96l-2.23.36h-.14l6.41-46.01.5-.07z" class="cls-100"/><path d="m248.19 111.1-6.41 46.08-1.01.14-1.29.14 6.4-46 1.66-.22z" class="cls-100"/><path d="m247.04 111.31-6.41 46.01-2.31.29 6.34-46.01z" class="cls-100"/><path d="m245.88 111.46-6.4 46-2.02.29-.36.07 6.41-46 .72-.15z" class="cls-100"/><path d="m244.66 111.6-6.34 46.01-.86.14-1.51.22 6.41-46.01 1.87-.29z" class="cls-100"/><path d="m243.51 111.82-6.41 46-2.3.29 6.41-46.01z" class="cls-100"/><path d="m242.36 111.96-6.41 46.01-1.8.21-.58.08 6.19-44.21.29-1.8.79-.07z" class="cls-100"/><path d="m241.21 112.1-6.41 46.01-.65.07-1.73.22 3.31-23.54.94-4.68 1.73-9 1.65-8.93.79-.07z" class="cls-100"/><path d="m239.76 114.05-6.19 44.21-2.3.36 1.15-8.14.51-2.38 1.94-8.92 1.8-9 1.73-9z" class="cls-100"/><path d="m235.73 134.86-3.31 23.54-1.66.22-.21.07.36-1.66 2.02-8.93 1.94-8.92z" class="cls-100"/><path d="m232.42 150.48-1.15 8.14h-.51l-.21.07.36-1.66z" class="cls-100"/><path d="m16.28 105.98.29.08 1.94.36 9.94 41.11-.87-2.81-3.02-9.58-2.81-9.64-2.81-9.8z" class="cls-104"/><path d="m22.61 128.38-5.4-22.25 2.45.5h.14l11.38 46.87-.86-.14-2.74-8.64-3.02-9.58z" class="cls-105"/><path d="m28.45 147.53-9.94-41.11 1.15.21 1.44.22 11.38 46.87-2.16-.36z" class="cls-106"/><path d="M31.18 153.5 19.8 106.63l2.6.43 11.37 46.88-.93-.15z" class="cls-107"/><path d="M32.48 153.72 21.1 106.85l1.66.29.93.14 11.38 46.87-2.23-.36z" class="cls-108"/><path d="M33.77 153.94 22.4 107.06l.36.08 2.23.36 11.38 46.87-.44-.07z" class="cls-109"/><path d="m35.07 154.15-11.38-46.87 2.16.43.44.07 11.3 46.8-1.66-.28z" class="cls-100"/><path d="M36.37 154.37 24.99 107.5l.86.21 1.73.29 11.3 46.8z" class="cls-100"/><path d="m37.59 154.58-11.3-46.8 2.59.44 11.3 46.8-1.08-.22z" class="cls-100"/><path d="M38.88 154.8 27.58 108l1.44.22 1.15.21 11.31 46.8-2.38-.43z" class="cls-100"/><path d="m40.18 155.02-11.3-46.8h.14l2.45.43 11.3 46.8-.5-.15z" class="cls-100"/><path d="m41.48 155.23-11.31-46.8 2.02.29.58.07 11.3 46.8-1.8-.29z" class="cls-100"/><path d="m42.77 155.45-11.3-46.8.72.07 1.87.29 11.31 46.8z" class="cls-100"/><path d="m44.07 155.59-11.3-46.8 2.59.43 11.3 46.8-1.15-.21z" class="cls-100"/><path d="m45.37 155.81-11.31-46.8 1.37.21 1.22.22 11.31 46.8-2.45-.43z" class="cls-100"/><path d="m46.66 156.02-11.3-46.8h.07l2.52.44 11.3 46.72-.5-.07z" class="cls-100"/><path d="m47.96 156.24-11.31-46.8 1.95.29.57.14 11.38 46.73-1.8-.29z" class="cls-100"/><path d="m49.25 156.38-11.3-46.72.65.07 1.87.29 11.37 46.8z" class="cls-100"/><path d="m50.55 156.6-11.38-46.73 2.6.36 11.37 46.73-1.15-.14z" class="cls-100"/><path d="m51.84 156.82-11.37-46.8 1.37.21 1.22.22 11.38 46.73-2.45-.36z" class="cls-100"/><path d="m53.14 156.96-11.37-46.73h.07l2.52.36 11.3 46.8-.43-.07z" class="cls-100"/><path d="m54.44 157.18-11.38-46.73 2.09.29.5.07 11.31 46.73-1.73-.22z" class="cls-100"/><path d="m55.66 157.39-11.3-46.8.79.15 1.8.28 11.3 46.73z" class="cls-100"/><path d="m56.96 157.54-11.31-46.73 2.59.36 11.31 46.73-1.01-.15z" class="cls-100"/><path d="m58.25 157.75-11.3-46.73 1.51.22 1.08.14 11.3 46.66-2.3-.29z" class="cls-100"/><path d="m59.55 157.9-11.31-46.73.22.07 2.31.29 11.37 46.73-.29-.08z" class="cls-100"/><path d="m60.84 158.04-11.3-46.66 2.23.29.29.07 11.38 46.66-1.59-.22z" class="cls-100"/><path d="m62.14 158.26-11.37-46.73 1 .14 1.59.22 11.3 46.65z" class="cls-100"/><path d="m63.44 158.4-11.38-46.66 2.59.36 7.42 30.53 1.15 5.47 2.02 8.93.36 1.66-.36-.07z" class="cls-100"/><path d="m64.66 158.54-11.3-46.65 1.73.29.86.07.57 2.37 1.23 6.56 1.73 9 1.87 9 1.87 8.92 2.02 8.93.36 1.66-.36-.07z" class="cls-100"/><path d="m62.07 142.63-7.42-30.53.44.08 1 .07 1.66 8.93 1.73 9 1.87 9z" class="cls-100"/><path d="m56.52 114.62-.57-2.37h.14zM186.27 168.62l-.58 5.4-.93 8.43-.94 8.35-.94 8.42-.93 8.36-.43 4.03h.79l3.82-.29 3.81-.36 3.75-.36 3.74-.36 3.67-.36 3.67-.43 3.6-.51 3.53-.43.07-.14 2.38-8.71 2.37-8.79 2.31-8.64 2.23-8.78 1.95-8.14-2.09.22-3.53.36-3.53.43-3.6.36-3.6.36-3.67.29-3.75.36-3.74.29-3.82.28-3.81.29zM114.63 211.68l-.43-4.1-.94-8.36-.93-8.42-.94-8.35-.94-8.43-.57-5.4-1.95-.14-3.81-.22-3.82-.28-3.74-.29-3.75-.36-3.67-.29-3.6-.36-3.6-.36-3.53-.43-3.52-.36-1.95-.22 2.02 8.14 2.16 8.78 2.3 8.64 2.38 8.79 2.37 8.71.08.14 3.31.43 3.6.51 3.67.43 3.74.36 3.68.36 3.81.36 3.75.36 3.81.29z" class="cls-100"/><path d="m52.56 209.16 1.45 5.98-2.74-6.2.79.15z" class="cls-104"/><path d="m51.63 209.66-.22-.72.65.15 1.66.29 2.59 10.87-1.8-4.03z" class="cls-105"/><path d="m54.01 215.14-1.45-5.98 2.24.43 3.81 15.55-.28-.57-3.82-8.35z" class="cls-106"/><path d="m56.31 220.25-2.59-10.87 1.65.28.58.15 4.82 19.87-2.44-5.11z" class="cls-107"/><path d="m58.61 225.14-3.81-15.55.57.07 1.73.29 5.83 24.12-.72-1.37z" class="cls-108"/><path d="m60.77 229.68-4.82-19.87 2.3.36 6.77 28.08-2.81-5.55z" class="cls-109"/><path d="m62.93 234.07-5.83-24.12 1.66.36.57.07 7.71 31.83-.72-1.44z" class="cls-100"/><path d="m65.02 238.25-6.77-28.08.51.14 1.72.29 8.57 35.42-2.73-5.25z" class="cls-100"/><path d="m67.04 242.21-7.71-31.83 2.31.44L71 249.7l-.58-1.08z" class="cls-100"/><path d="m69.05 246.02-8.57-35.42 1.66.29.58.07 10.22 42.19-2.52-4.53z" class="cls-100"/><path d="m71 249.7-9.36-38.88.5.07 1.73.29 10.37 42.91-.87-.22z" class="cls-100"/><path d="m72.94 253.15-10.22-42.19 2.23.43 10.44 42.91-.22-.07-1.8-.36z" class="cls-100"/><path d="m74.24 254.09-10.37-42.91 1.66.28.57.08 10.44 42.91-1.37-.22z" class="cls-100"/><path d="m75.39 254.3-10.44-42.91.58.07 1.72.29 10.37 42.91z" class="cls-100"/><path d="M76.54 254.45 66.1 211.54l2.23.36 10.44 42.98h-.07z" class="cls-100"/><path d="m77.62 254.66-10.37-42.91 1.73.29.5.07 10.44 42.99-1.22-.22z" class="cls-100"/><path d="M78.77 254.88 68.33 211.9l.65.14 1.66.22L81 255.31z" class="cls-100"/><path d="m79.92 255.1-10.44-42.99 2.24.36 10.44 43.06z" class="cls-100"/><path d="m81 255.31-10.36-43.05 1.87.28.36.08 10.44 43.05-1.08-.14z" class="cls-100"/><path d="m82.16 255.53-10.44-43.06.79.07 1.44.22 10.44 43.13-2.16-.36z" class="cls-100"/><path d="m83.31 255.67-10.44-43.05 2.23.36 10.44 43.12z" class="cls-100"/><path d="m84.39 255.89-10.44-43.13 2.09.36h.14l10.51 43.13-.86-.15z" class="cls-100"/><path d="M85.54 256.1 75.1 212.98l.94.14 1.29.14 10.44 43.2-1.94-.36z" class="cls-100"/><path d="m86.69 256.25-10.51-43.13 2.3.36 10.44 43.13z" class="cls-100"/><path d="m87.77 256.46-10.44-43.2 2.23.36L90 256.82l-.57-.14z" class="cls-100"/><path d="m88.92 256.61-10.44-43.13 1.08.14h.29l1.44 4.97 2.6 8.71.36 1.23 6.91 28.44-1.73-.29z" class="cls-100"/><path d="m90 256.82-10.44-43.2h.29l1.44 4.97 2.6 8.71 2.66 8.72 2.45 7.56 3.31 13.53z" class="cls-100"/><path d="m91.16 256.97-6.91-28.44 2.3 7.49 2.81 8.64 2.81 8.64.86 2.52.36 1.51-.29-.07z" class="cls-100"/><path d="M92.31 257.11 89 243.58l.36 1.08 2.81 8.64 1.36 4.03-.43-.07z" class="cls-100"/><path d="m93.39 257.33-.36-1.51.5 1.51z" class="cls-100"/><path d="m243.87 212.83.5-3.89 1.3-.21z" class="cls-101"/><path d="m245.38 208.8-.07.72-2.88 6.62.94-6.98.57-.07z" class="cls-102"/><path d="m244.37 208.94-.5 3.89-1.51 3.39-1.37 3.02 1.37-9.86 1.58-.29z" class="cls-40"/><path d="m243.37 209.16-.94 6.98-.07.08-2.81 6.12 1.8-12.82z" class="cls-103"/><path d="m242.36 209.38-1.37 9.86-2.45 5.33-.43.86 2.16-15.69.36-.08z" class="cls-104"/><path d="m241.35 209.52-1.8 12.82-1.01 2.23-1.8 3.74 2.52-18.43 1.37-.22z" class="cls-105"/><path d="m240.27 209.74-2.16 15.69-2.81 5.76 2.95-21.09z" class="cls-106"/><path d="m239.26 209.88-2.52 18.43-2.16 4.39-.65 1.37 3.32-23.76z" class="cls-107"/><path d="m238.25 210.1-2.95 21.09-.72 1.51-2.02 4.04 3.68-26.28 1.01-.15z" class="cls-108"/><path d="m237.25 210.31-3.32 23.76-2.73 5.4 4.03-28.8z" class="cls-109"/><path d="m236.24 210.46-3.68 26.28-2.01 4.03-.72 1.37 4.32-31.32z" class="cls-100"/><path d="m235.23 210.67-4.03 28.8-.65 1.3-2.09 3.89 4.68-33.7.72-.07z" class="cls-100"/><path d="m234.15 210.82-4.32 31.32-2.67 5.11 4.97-36.07 1.73-.29z" class="cls-100"/><path d="m233.14 210.96-4.68 33.7-2.09 3.96-.57 1.08 5.33-38.38z" class="cls-100"/><path d="m232.13 211.18-4.97 36.07-.79 1.37-1.94 3.52 5.69-40.6.29-.08z" class="cls-100"/><path d="m231.13 211.32-5.33 38.38-2.24 4.03-.35.07 5.9-42.12 1.3-.22z" class="cls-100"/><path d="m230.12 211.54-5.69 40.6-.87 1.59-1.36.21 5.9-42.12z" class="cls-100"/><path d="m229.11 211.68-5.9 42.12-2.02.36 5.83-42.12z" class="cls-100"/><path d="m228.1 211.82-5.9 42.12-1.44.29-.58.15 5.83-42.2.94-.14z" class="cls-100"/><path d="m227.02 212.04-5.83 42.12-.43.07-1.59.29 5.83-42.19 1.95-.29z" class="cls-100"/><path d="m226.01 212.18-5.83 42.2-2.09.36 5.91-42.27z" class="cls-100"/><path d="m225 212.33-5.83 42.19-1.87.36-.21.07 5.9-42.33.43-.08z" class="cls-100"/><path d="m224 212.47-5.91 42.27-.79.14-1.22.22 5.9-42.27 1.44-.29z" class="cls-100"/><path d="m222.99 212.62-5.9 42.33-2.02.36 5.9-42.33z" class="cls-100"/><path d="m221.98 212.83-5.9 42.27-2.02.36 5.83-42.34z" class="cls-100"/><path d="m220.97 212.98-5.9 42.33-1.37.22-.65.14 5.83-42.41 1.01-.14z" class="cls-100"/><path d="m219.89 213.12-5.83 42.34-.36.07-1.73.29 5.91-42.41z" class="cls-100"/><path d="m218.88 213.26-5.83 42.41-2.08.29 5.9-42.41z" class="cls-100"/><path d="m217.88 213.41-5.91 42.41-1.8.28-.21.08 5.47-39.6.86-2.96h.08z" class="cls-100"/><path d="m216.87 213.55-5.9 42.41-.8.14-1.22.22 4.61-33.41 1.29-4.32 1.44-4.97h.08z" class="cls-100"/><path d="m215.43 216.58-5.47 39.6-2.02.28 3.82-27.43.5-1.73 2.59-8.71z" class="cls-100"/><path d="m213.56 222.91-4.61 33.41-2.02.36 3.03-21.82 2.3-7.56z" class="cls-100"/><path d="m211.76 229.03-3.82 27.43-1.37.22-.64.14 2.23-16.41 1.44-4.39z" class="cls-100"/><path d="m209.96 234.86-3.03 21.82h-.36l-1.73.29 1.59-11.09.43-1.22 2.74-8.64z" class="cls-100"/><path d="m208.16 240.41-2.23 16.41-2.09.29.86-5.97 2.16-6.48z" class="cls-100"/><path d="m206.43 245.88-1.59 11.09-1.94.29h-.07l.14-1.08 1.01-2.88z" class="cls-100"/><path d="m204.7 251.14-.86 5.97-.94.15-.29.07 1.37-4.03z" class="cls-100"/><path d="m202.97 256.18-.14 1.08-.22.07z" class="cls-100"/><path d="m262.44 165.46.37-5.91 1.29-.21.43-.08-1.36 4.11z" class="cls-86"/><path d="m263.81 159.41-.14 2.45-.5 1.51-1.95 5.54.58-9.14z" class="cls-87"/><path d="m262.81 159.55-.37 5.91-2.51 6.98.86-12.53h.14z" class="cls-87"/><path d="m261.8 159.77-.58 9.14-1.29 3.67-1.23 3.24 1.08-15.69 1.15-.22z" class="cls-88"/><path d="m260.79 159.91-.86 12.53v.14l-2.45 6.56 1.29-18.87z" class="cls-89"/><path d="m259.78 160.13-1.08 15.69-2.09 5.76-.36.8 1.51-21.96z" class="cls-90"/><path d="m258.77 160.27-1.29 18.87-.87 2.44-1.51 3.96 1.66-24.98 1-.14z" class="cls-90"/><path d="m257.76 160.42-1.51 21.96-2.37 6.26 1.87-27.86z" class="cls-91"/><path d="m256.76 160.56-1.66 24.98-1.87 4.83-.58 1.37 2.09-30.82z" class="cls-92"/><path d="m255.75 160.78-1.87 27.86-.65 1.73-1.8 4.39 2.3-33.7.87-.14z" class="cls-93"/><path d="m254.74 160.92-2.09 30.82-2.37 5.97 2.44-36.5 1.88-.29z" class="cls-93"/><path d="m253.73 161.06-2.3 33.7-1.73 4.39-.65 1.51 2.67-39.31z" class="cls-94"/><path d="m252.72 161.21-2.44 36.5-.58 1.44-1.44 3.31-.29.08 2.74-40.97.65-.15z" class="cls-95"/><path d="m251.72 161.35-2.67 39.31-.79 1.8-1.37.29 2.81-41.04 1.66-.29z" class="cls-96"/><path d="m250.71 161.57-2.74 40.97-1.8.36h-.29l2.81-41.04z" class="cls-96"/><path d="m249.7 161.71-2.81 41.04-.72.15-1.29.21 2.81-41.11.43-.07z" class="cls-97"/><path d="m248.69 161.86-2.81 41.04-2.01.43 2.81-41.19 1.44-.21z" class="cls-97"/><path d="m247.69 162-2.81 41.11-2.02.36 2.88-41.18z" class="cls-97"/><path d="m246.68 162.14-2.81 41.19-1.01.14-1.01.22 2.88-41.26h.15z" class="cls-97"/><path d="m245.74 162.29-2.88 41.18-2.02.36 2.88-41.25 1.16-.15z" class="cls-97"/><path d="m244.73 162.43-2.88 41.26-2.01.36 2.88-41.33z" class="cls-97"/><path d="m243.72 162.58-2.88 41.25-1.29.29-.72.14 2.88-41.4z" class="cls-97"/><path d="m242.72 162.72-2.88 41.33-.29.07-1.73.29 2.88-41.4.86-.07z" class="cls-97"/><path d="m241.71 162.86-2.88 41.4-2.02.36 2.88-41.47 1.87-.21z" class="cls-98"/><path d="m240.7 163.01-2.88 41.4-1.58.29-.43.07 2.88-41.47z" class="cls-98"/><path d="m239.69 163.15-2.88 41.47-.57.08-1.44.21 2.88-41.47.57-.07z" class="cls-98"/><path d="m238.69 163.3-2.88 41.47-2.02.36 2.88-41.55 1.58-.21z" class="cls-98"/><path d="m237.68 163.44-2.88 41.47-1.95.36h-.07l2.88-41.54z" class="cls-98"/><path d="m236.67 163.58-2.88 41.55-.94.14-1.08.22 2.88-41.62.22-.07z" class="cls-98"/><path d="m235.66 163.73-2.88 41.54-2.02.36 2.89-41.61 1.22-.22z" class="cls-98"/><path d="m234.65 163.87-2.88 41.62-2.01.29 2.88-41.69z" class="cls-98"/><path d="m233.65 164.02-2.89 41.61-1.29.22-.72.14 2.88-41.76z" class="cls-98"/><path d="m232.64 164.09-2.88 41.69-.29.07-1.73.29 2.88-41.76.87-.08z" class="cls-98"/><path d="m231.63 164.23-2.88 41.76-2.02.29 2.88-41.76 1.88-.22z" class="cls-98"/><path d="m230.62 164.38-2.88 41.76-1.65.28-.37.08 2.67-38.6.5-2.01.29-1.3z" class="cls-98"/><path d="m229.61 164.52-2.88 41.76-.64.14-1.37.22 2.3-32.98 1.87-7.77.29-1.3z" class="cls-99"/><path d="m228.39 167.9-2.67 38.6-1.94.28 1.87-27.64 1.08-4.32z" class="cls-99"/><path d="m227.02 173.66-2.3 32.98-1.95.29 1.51-22.39.22-.94 2.23-8.78z" class="cls-99"/><path d="m225.65 179.14-1.87 27.64-1.22.22-.8.07 1.16-17.42 1.58-6.05z" class="cls-99"/><path d="m224.28 184.54-1.51 22.39-.21.07-1.8.22.79-12.46.65-2.38z" class="cls-99"/><path d="m222.92 189.65-1.16 17.42-2.01.36.5-7.77 1.95-7.28z" class="cls-99"/><path d="m221.55 194.76-.79 12.46-1.66.28-.36.08.22-3.17.86-3.24z" class="cls-99"/><path d="m220.25 199.66-.5 7.77-.65.07-1.08.15 1.8-6.48z" class="cls-99"/><path d="m218.96 204.41-.22 3.17-.72.07z" class="cls-83"/><path d="m289.88 68.9-2.45-2.16 2.38.22.5.07z" class="cls-86"/><path d="m289.73 66.96.51.43-.72 3.03-4.39-3.89z" class="cls-87"/><path d="m287.43 66.74 2.45 2.16-.72 3.1-6.48-5.83 2.23.29z" class="cls-87"/><path d="m285.13 66.53 4.39 3.89-.72 3.09-8.5-7.63 4.61.58z" class="cls-88"/><path d="m282.68 66.17 6.48 5.83-.72 3.02-10.59-9.5 2.31.36z" class="cls-88"/><path d="m280.3 65.88 8.5 7.63-.43 1.87-.29 1.16-12.75-11.38h.15l4.68.72z" class="cls-89"/><path d="m277.85 65.52 10.59 9.5-.07.36-.65 2.67-14.98-13.32 2.74.43z" class="cls-89"/><path d="m275.33 65.16 12.75 11.38-.72 3.02-17.21-15.34.79.15z" class="cls-90"/><path d="m272.74 64.73 14.98 13.32-.72 3.02-19.51-17.42 3.45.72z" class="cls-91"/><path d="m270.15 64.22 17.21 15.34-.72 3.02-21.89-19.51 1.73.43z" class="cls-91"/><path d="M267.49 63.65 287 81.07l-.72 3.03-24.34-21.68.22.08 4.32 1z" class="cls-92"/><path d="m264.75 63.07 21.89 19.51-.79 3.03-26.86-23.98 3.17.87z" class="cls-92"/><path d="m261.94 62.42 24.34 21.68-.43 1.51-.36 1.44-29.52-26.28 2.01.57z" class="cls-93"/><path d="m258.99 61.63 26.86 23.98-.72 2.95-32.33-28.8 1.08.36 4.1 1.22z" class="cls-93"/><path d="m255.97 60.77 29.52 26.28-.73 3.02-35.27-31.39.43.14 3.96 1.3z" class="cls-94"/><path d="m252.8 59.76 32.33 28.8-.8 3.02-36-32.11.15-1.15 1.44.5z" class="cls-95"/><path d="m249.49 58.68 35.27 31.39-.79 3.03-35.85-31.97.36-2.81z" class="cls-95"/><path d="m248.33 59.47 36 32.11-.72 3.03-35.71-31.9z" class="cls-96"/><path d="m248.12 61.13 35.85 31.97-.65 2.66-.14.29-35.49-31.68z" class="cls-96"/><path d="m247.9 62.71 35.71 31.9-.29 1.15-.5 1.8-35.42-31.54z" class="cls-97"/><path d="m247.69 64.37 35.49 31.68-.72 3.02-35.28-31.39.22-1.22z" class="cls-97"/><path d="m247.4 66.02 35.42 31.54-.57 2.23-.73.15h-.14l-34.41-30.6.43-2.88z" class="cls-97"/><path d="m247.18 67.68 35.28 31.39-.21.72-.73.15-1.87.28-32.9-29.3z" class="cls-97"/><path d="m246.97 69.34 34.41 30.6-2.95.5-.5.14-31.4-28z" class="cls-97"/><path d="m246.75 70.92 32.9 29.3-1.22.22-2.23.43-29.95-26.64z" class="cls-97"/><path d="m246.53 72.58 31.4 28-2.53.44-.93.14-28.44-25.34.07-.22z" class="cls-97"/><path d="m246.25 74.23 29.95 26.64-.8.15-2.66.43-26.93-23.98.29-1.87z" class="cls-98"/><path d="m246.03 75.82 28.44 25.34-2.16.43-1.3.22-25.48-22.75z" class="cls-98"/><path d="m245.81 77.47 26.93 23.98-.43.14-3.02.51-23.98-21.39z" class="cls-98"/><path d="m245.53 79.06 25.48 22.75-1.87.29-1.58.28-22.47-20.08z" class="cls-98"/><path d="m245.31 80.71 23.98 21.39h-.15l-3.09.5-.22.07-21.02-18.72z" class="cls-98"/><path d="m245.09 82.3 22.47 20.08-1.51.22-1.95.36-19.51-17.42.07-.72z" class="cls-98"/><path d="m244.81 83.95 21.02 18.72-2.95.51-.51.07-18.07-16.06.36-2.37z" class="cls-98"/><path d="m244.59 85.54 19.51 17.42-1.22.22-2.31.36-16.48-14.76z" class="cls-98"/><path d="m244.3 87.19 18.07 16.06-2.66.43-.86.14-15.05-13.46z" class="cls-98"/><path d="m244.09 88.78 16.48 14.76-.86.14-2.59.36-13.54-12.02z" class="cls-98"/><path d="m243.8 90.36 15.05 13.46-2.38.36-1.15.15-12.03-10.73z" class="cls-99"/><path d="m243.58 92.02 13.54 12.02-.65.14-2.88.44L243 95.18l.22-1.22z" class="cls-99"/><path d="m243.29 93.6 12.03 10.73-2.02.29-1.51.28-9-8.06.43-2.88z" class="cls-99"/><path d="m243 95.18 10.59 9.44h-.29l-3.24.5-7.56-6.7z" class="cls-99"/><path d="m242.79 96.84 9 8.06-1.73.22-1.8.29-6.05-5.4z" class="cls-99"/><path d="m242.5 98.42 7.56 6.7-3.31.5h-.29l-4.53-4.03z" class="cls-99"/><path d="m242.21 100.01 6.05 5.4-1.51.21-2.02.29-3.02-2.73v-.15z" class="cls-99"/><path d="m241.93 101.59 4.53 4.03-3.02.44-.51.07-1.51-1.3.29-1.8z" class="cls-83"/><path d="m241.71 103.18 3.02 2.73-1.29.15-2.31.36z" class="cls-83"/><path d="m241.42 104.83 1.51 1.3-1.8.29zM201.03 18.14l.43 1.01 1.8 3.24 1.87 3.17 2.09 3.02 2.16 2.88 2.31 2.81 2.52 2.67 2.59 2.59 2.73 2.45 2.88 2.3 3.03 2.23 3.09 2.09 3.24 1.94 3.39 1.88.57.36-.79.07-3.45.36-3.46.43-3.53.36-3.6.36-3.6.36-3.67.36-3.67.29-3.75.29-3.74.28-3.82.29-1.08.07.08-.79.79-8.49.79-8.5.72-8.57.79-8.49zM60.92 52.85l.79-.43 3.31-1.88 3.31-1.94 3.1-2.09 3.02-2.23 2.88-2.3 2.74-2.45 2.59-2.59 2.45-2.67 2.37-2.81 2.16-2.88 2.09-3.02 1.88-3.17 1.65-3.02.22 2.09.72 8.49.79 8.57.72 8.5.79 8.49.07.79-1.22-.07-3.82-.29-3.81-.28-3.67-.29-3.68-.29-3.67-.36-3.6-.36-3.6-.36-3.53-.36-3.45-.43-3.46-.36z" class="cls-83"/><path d="m9.94 66.67-2.88 2.88-.57-2.52.57-.07z" class="cls-86"/><path d="m6.7 67.97 1.08-1.08 4.18-.43h.14l-4.61 4.6z" class="cls-87"/><path d="m7.06 69.55 2.88-2.88 2.02-.21 2.3-.29-6.41 6.48z" class="cls-87"/><path d="m7.49 71.06 4.61-4.6 4.39-.58-8.28 8.35z" class="cls-88"/><path d="m7.85 72.65 6.41-6.48 2.45-.29 2.02-.29L8.57 75.74l-.07-.36z" class="cls-88"/><path d="m8.21 74.23 8.28-8.35h.22l4.32-.65-12.1 12.1-.43-1.95z" class="cls-89"/><path d="m8.57 75.74 10.16-10.15 2.66-.43 1.94-.36L9.29 78.84z" class="cls-89"/><path d="m8.93 77.33 12.1-12.1.36-.07 4.32-.72L9.72 80.42z" class="cls-90"/><path d="M9.29 78.84 23.33 64.8l2.6-.43 2.16-.43-18 18z" class="cls-91"/><path d="m9.72 80.42 15.99-15.98.22-.07 4.46-.87.14-.07-20.08 20.09z" class="cls-91"/><path d="m10.09 81.94 18-18 2.3-.44 2.66-.64-22.17 22.17z" class="cls-92"/><path d="m10.45 83.52 20.08-20.09 4.18-.93.86-.29-24.33 24.41-.29-1.01z" class="cls-92"/><path d="m10.88 85.03 22.17-22.17 1.66-.36 3.53-.94L11.6 88.13l-.65-2.52z" class="cls-93"/><path d="m11.24 86.62 24.33-24.41 3.31-.87 2.02-.57-28.87 28.87z" class="cls-93"/><path d="m11.6 88.13 26.64-26.57.64-.22 4.11-1.22.72-.22-31.32 31.32z" class="cls-94"/><path d="M12.03 89.64 40.9 60.77l2.09-.65 3.6-1.15-33.77 33.77z" class="cls-95"/><path d="M12.39 91.22 43.71 59.9l3.24-1.08.79-.28.14 1.08-34.7 34.63z" class="cls-95"/><path d="m12.82 92.74 33.77-33.77.36-.15.79-.28.36 2.73-34.56 34.56v-.07z" class="cls-96"/><path d="m13.18 94.25 34.7-34.63.44 3.38-34.35 34.34-.43-1.58z" class="cls-96"/><path d="M13.54 95.83 48.1 61.27l.43 3.46L14.4 98.86z" class="cls-97"/><path d="M13.97 97.34 48.32 63l.43 3.38-33.62 33.63-.44-.07z" class="cls-97"/><path d="m14.4 98.86 34.13-34.13.22 1.73.29 1.65-32.26 32.19-2.09-.36z" class="cls-97"/><path d="m15.13 100.01 33.62-33.63v.08l.5 3.31-30.81 30.89-.94-.22z" class="cls-97"/><path d="m16.78 100.3 32.26-32.19.43 3.39-29.45 29.44-2.52-.5z" class="cls-97"/><path d="m18.44 100.66 30.81-30.89.51 3.38-28.08 28.08-1.08-.21z" class="cls-97"/><path d="M20.02 100.94 49.47 71.5l.5 3.38-26.64 26.64-2.73-.5z" class="cls-97"/><path d="m21.68 101.23 28.08-28.08.29 2.45.14.94-25.2 25.27-1.3-.22z" class="cls-98"/><path d="m23.33 101.52 26.64-26.64.08.72.43 2.59-23.84 23.83-2.95-.43z" class="cls-98"/><path d="m24.99 101.81 25.2-25.27.5 3.31-22.46 22.46-1.37-.21z" class="cls-98"/><path d="m26.64 102.02 23.84-23.83.5 3.39-21.09 21.02-3.03-.5z" class="cls-98"/><path d="m28.23 102.31 22.46-22.46.51 3.38-19.66 19.66-1.58-.29z" class="cls-98"/><path d="m29.89 102.6 21.09-21.02.5 3.24v.07L33.2 103.18h-.07l-3.17-.58z" class="cls-98"/><path d="M31.54 102.89 51.2 83.23l.28 1.59.29 1.72-16.92 16.85-1.72-.21z" class="cls-98"/><path d="m33.2 103.18 18.28-18.29.51 3.31-15.41 15.48h-.29z" class="cls-98"/><path d="m34.85 103.39 16.92-16.85.51 3.39-14.04 14.04-1.95-.29z" class="cls-98"/><path d="M36.58 103.68 51.99 88.2l.57 3.38-12.67 12.6h-.43z" class="cls-98"/><path d="m38.24 103.97 14.04-14.04.5 3.31-11.23 11.23-2.09-.29z" class="cls-99"/><path d="m39.89 104.18 12.67-12.6.36 2.38.15.94-9.87 9.86-.5-.14z" class="cls-99"/><path d="m41.55 104.47 11.23-11.23.14.72.44 2.59-8.43 8.43-2.23-.36z" class="cls-99"/><path d="m43.2 104.76 9.87-9.86.58 3.31-7.06 6.98-.65-.07z" class="cls-99"/><path d="m44.93 104.98 8.43-8.43.57 3.31-5.69 5.62-2.3-.36z" class="cls-99"/><path d="m46.59 105.19 7.06-6.98.5 3.24-4.18 4.25-.72-.08z" class="cls-99"/><path d="m48.24 105.48 5.69-5.62.51 3.17v.07l-2.81 2.81-2.38-.29z" class="cls-99"/><path d="m49.97 105.7 4.18-4.25.29 1.58.29 1.73-1.37 1.44-.8-.14z" class="cls-83"/><path d="m51.63 105.91 2.81-2.81.57 3.32-2.45-.36z" class="cls-83"/><path d="m53.36 106.2 1.37-1.44.28 1.66z" class="cls-83"/><path d="m33.34 159.62-.14 2.24-.79-2.38z" class="cls-84"/><path d="m34.35 159.77-.36 4.53-.29-.93-1.29-3.89z" class="cls-84"/><path d="m33.2 161.86.14-2.24 1.66.29h.28l-.43 6.7-1.15-3.24z" class="cls-84"/><path d="m33.99 164.3.36-4.53.65.14 1.29.22-.64 8.85z" class="cls-85"/><path d="m34.85 166.61.43-6.7 1.95.36-.72 11.02z" class="cls-86"/><path d="m35.65 168.98.64-8.85 1.87.29-.86 13.17-.36-1.01z" class="cls-87"/><path d="m36.51 171.29.72-11.02 1.01.15.93.14-1.01 15.34-1.22-3.32z" class="cls-87"/><path d="m37.3 173.59.86-13.17h.08l1.87.28-1.15 17.43z" class="cls-88"/><path d="m38.16 175.9 1.01-15.34 1.95.36-1.3 19.44z" class="cls-89"/><path d="m38.96 178.13 1.15-17.43 1.3.22.64.14-1.44 21.53-.36-1.01z" class="cls-90"/><path d="m39.82 180.36 1.3-19.44h.29l1.65.29-1.58 23.54-1.23-3.17z" class="cls-90"/><path d="m40.61 182.59 1.44-21.53 1.95.29-1.66 25.56z" class="cls-91"/><path d="m41.48 184.75 1.58-23.54 1.59.21.36.08-1.88 27.57z" class="cls-92"/><path d="M42.34 186.91 44 161.35l.65.07 1.29.22L44 191.16l-.36-.79z" class="cls-93"/><path d="m43.13 189.07 1.88-27.57 1.94.28-2.16 31.54-1.15-2.95z" class="cls-93"/><path d="m44 191.16 1.94-29.52 1.94.29-2.23 33.48z" class="cls-94"/><path d="m44.79 193.32 2.16-31.54.93.15 1.01.14-2.37 35.43z" class="cls-95"/><path d="m45.65 195.41 2.23-33.48 1.95.29-2.52 37.36-.15-.43z" class="cls-96"/><path d="m46.52 197.5 2.37-35.43 1.88.29-2.6 39.24-1.01-2.45z" class="cls-96"/><path d="m47.31 199.58 2.52-37.36 1.3.21.64.07-2.66 40.25-.51-.07z" class="cls-97"/><path d="m48.17 201.6 2.6-39.24.36.07 1.58.22-2.66 40.25h-.22l-1.23-.22z" class="cls-97"/><path d="m49.11 202.75 2.66-40.25 1.95.29-2.67 40.32-1.22-.21z" class="cls-97"/><path d="m50.05 202.9 2.66-40.25 1.73.29h.21l-2.66 40.32z" class="cls-97"/><path d="m51.05 203.11 2.67-40.32.72.15 1.22.14-2.74 40.39z" class="cls-97"/><path d="m51.99 203.26 2.66-40.32 1.95.28-2.67 40.4-.86-.15z" class="cls-97"/><path d="m52.92 203.47 2.74-40.39 1.94.29-2.73 40.46-1.8-.36z" class="cls-97"/><path d="m53.93 203.62 2.67-40.4 1.15.15.79.14-2.66 40.47z" class="cls-97"/><path d="m54.87 203.83 2.73-40.46h.15l1.8.21-2.74 40.61-.43-.07z" class="cls-98"/><path d="m55.88 203.98 2.66-40.47 1.94.22-2.66 40.61-1.44-.22z" class="cls-98"/><path d="m56.81 204.19 2.74-40.61 1.58.22.36.07-2.73 40.68z" class="cls-98"/><path d="m57.82 204.34 2.66-40.61.65.07 1.3.22-2.74 40.68z" class="cls-98"/><path d="m58.76 204.55 2.73-40.68 1.95.29-2.74 40.68-1.01-.14z" class="cls-98"/><path d="m59.69 204.7 2.74-40.68 1.94.21-2.73 40.83z" class="cls-98"/><path d="m60.7 204.84 2.74-40.68 1.08.14.86.08-2.73 40.82z" class="cls-98"/><path d="m61.64 205.06 2.73-40.83.15.07 1.8.22-2.74 40.82-.5-.07z" class="cls-98"/><path d="m62.65 205.2 2.73-40.82 1.59.21.28 1.08-2.66 39.89-1.51-.29z" class="cls-98"/><path d="m63.58 205.34 2.74-40.82.65.07.28 1.3.72 3.02-2.44 36.79z" class="cls-98"/><path d="m64.59 205.56 2.66-39.89v.22l1.52 6.19-2.24 33.77h-.07z" class="cls-98"/><path d="m65.53 205.7 2.44-36.79 1.44 5.91.15.43-2.09 30.74-1.01-.14z" class="cls-98"/><path d="m66.53 205.85 2.24-33.77.64 2.74.87 3.52-1.8 27.87z" class="cls-99"/><path d="m67.47 205.99 2.09-30.74 1.51 6.12-1.66 24.98z" class="cls-99"/><path d="m68.48 206.21 1.8-27.87 1.36 5.26.22.86-1.51 22.04-.43-.08z" class="cls-99"/><path d="m69.41 206.35 1.66-24.98.57 2.23 1.01 3.82-1.29 19.22-1.44-.22z" class="cls-99"/><path d="m70.35 206.5 1.51-22.04 1.58 5.91-1.15 16.41z" class="cls-99"/><path d="m71.36 206.64 1.29-19.22 1.3 4.96.22.94-.87 13.61z" class="cls-99"/><path d="m72.29 206.78 1.15-16.41.51 2.01 1.01 3.89-.72 10.8-.87-.07z" class="cls-99"/><path d="m73.3 206.93.87-13.61 1.58 5.83-.5 8.14-1.88-.29z" class="cls-99"/><path d="m74.24 207.07.72-10.8 1.37 4.9.21.86-.36 5.4z" class="cls-83"/><path d="m75.25 207.29.5-8.14.58 2.02 1 3.67-.14 2.74-.36-.08z" class="cls-83"/><path d="m76.18 207.43.36-5.4 1.59 5.69-1.3-.22z" class="cls-83"/><path d="m77.19 207.58.14-2.74.8 2.88z" class="cls-83"/><path d="M148.47 186h.14a41 41 0 0 1 12.1 1.72l2.59-13.1a44 44 0 0 0-14.69-2.3h-.14l-7.35 8.06Z" class="cls-110"/><path d="m148.47 191-.29-.08c-2.74-.5-4.1-1.51-4-2.88s1.87-2 4.25-2.08V172.3c-18.94.79-21 19.08-14.91 25.77 1.95 2.09 7.42 4.54 12.46 4.54a14 14 0 0 1 2.45.21l7.05-5.25Z" class="cls-111"/><path d="M148.47 222.26h.07c8.64-.28 14-3.31 15.84-9.21 1.37-4.68 4-15.77-6.48-19.73a63.4 63.4 0 0 0-9.29-2.3h-.14v11.8h.14c2.45.44 4.25 1.52 3.82 3.1-.36 1.22-1.66 1.94-3.82 2.16h-.14l-6.77 8.14Z" class="cls-110"/><path d="M132 220.46a73.3 73.3 0 0 0 16.49 1.8v-14.18c-2.95.29-7.42-.22-13.68-1.66ZM148.47 140.76l-7.06-10.8v20.59h-13.6v-45.93h13.6l7.06 10.58 7.7 20.23z" class="cls-111"/><path d="M154.81 104.83h13.68v45.94h-13.68l-6.2-9.72-.14-.29V115.2l.14.29 6.2 9.36z" class="cls-110"/><path d="M148.47 64.44h-6.34v16.34h-13.6V34.85h13.6v15.77h6.34l4.03 7.41z" class="cls-111"/><path d="M153.87 34.85h13.61v45.93h-13.61V64.44h-5.4V50.62h5.4z" class="cls-110"/><path d="m181.59 313.78.43.14-.93 1.08z" class="cls-84"/><path d="m182.09 312.62.87.29-1.87 2.09.79-1.94z" class="cls-84"/><path d="m182.02 313.92-.43-.14.29-.72.65-1.66 1.29.43-.57.65z" class="cls-84"/><path d="m182.96 312.91-.87-.29.94-2.37 1.66.5-1.44 1.73z" class="cls-84"/><path d="m183.82 311.83-1.29-.43 1-2.38 2.09.65z" class="cls-84"/><path d="m184.69 310.75-1.66-.5.94-2.38 2.52.79z" class="cls-84"/><path d="m185.62 309.67-2.09-.65.94-2.37 2.88.93z" class="cls-84"/><path d="m186.49 308.66-2.52-.79.93-2.45 3.31 1.08z" class="cls-84"/><path d="m187.35 307.58-2.88-.93.79-2.09.15-.29 3.67 1.15-.51.65z" class="cls-84"/><path d="m188.21 306.5-3.31-1.08.36-.86.65-1.51 4.03 1.29-1.37 1.73z" class="cls-84"/><path d="m189.08 305.42-3.67-1.15.93-2.37 4.47 1.36z" class="cls-84"/><path d="m189.94 304.34-4.03-1.29.86-2.38 4.83 1.51z" class="cls-84"/><path d="m190.81 303.26-4.47-1.36.94-2.45 5.18 1.65z" class="cls-84"/><path d="m191.6 302.18-4.83-1.51.94-2.37 5.61 1.8z" class="cls-85"/><path d="m192.46 301.1-5.18-1.65.93-2.38 5.91 1.95-.36.43z" class="cls-85"/><path d="m193.32 300.1-5.61-1.8.86-2.24.08-.14 6.26 1.94-1.15 1.59z" class="cls-85"/><path d="m194.12 299.02-5.91-1.95.36-1.01.58-1.36 6.62 2.08z" class="cls-85"/><path d="m194.91 297.86-6.26-1.94.93-2.45 6.98 2.23z" class="cls-85"/><path d="m195.77 296.78-6.62-2.08.86-2.38 7.35 2.3z" class="cls-85"/><path d="m196.56 295.7-6.98-2.23.94-2.37 7.63 2.44z" class="cls-85"/><path d="m197.36 294.62-7.35-2.3.94-2.45 8.06 2.59-.14.22z" class="cls-85"/><path d="m198.15 293.54-7.63-2.44.86-2.38 8.35 2.66-.86 1.3z" class="cls-85"/><path d="m199.01 292.46-8.06-2.59.86-2.3.07-.07 8.65 2.8z" class="cls-85"/><path d="m199.73 291.38-8.35-2.66.43-1.15.51-1.3 9 2.88z" class="cls-85"/><path d="m200.53 290.3-8.65-2.8.87-2.38 9.36 2.95z" class="cls-85"/><path d="m201.32 289.15-9-2.88.86-2.37 9.65 3.09z" class="cls-85"/><path d="m202.11 288.07-9.36-2.95.86-2.45 10.01 3.24z" class="cls-85"/><path d="m202.83 286.99-9.65-3.09.86-2.38 10.37 3.24-.65.94z" class="cls-85"/><path d="m203.62 285.91-10.01-3.24.94-2.37 10.58 3.38-1.37 2.02z" class="cls-85"/><path d="m204.41 284.76-10.37-3.24.94-2.45 10.87 3.53z" class="cls-85"/><path d="m205.13 283.68-10.58-3.38.43-1.3.43-1.08 11.24 3.53z" class="cls-86"/><path d="m205.85 282.6-10.87-3.53V279l.86-2.3 11.53 3.67z" class="cls-86"/><path d="m206.65 281.45-11.24-3.53.87-2.45 11.81 3.82z" class="cls-86"/><path d="m207.37 280.37-11.53-3.67.87-2.45 12.17 3.89-.36.5z" class="cls-87"/><path d="m208.09 279.29-11.81-3.82.86-2.37 12.39 3.96-1.01 1.58z" class="cls-87"/><path d="m208.88 278.14-12.17-3.89.86-2.38 12.68 4.03z" class="cls-87"/><path d="m209.53 277.06-12.39-3.96.86-2.45 12.97 4.17z" class="cls-87"/><path d="m210.25 275.9-12.68-4.03.51-1.44.36-1.01 13.25 4.25z" class="cls-88"/><path d="M210.97 274.82 198 270.65l.08-.22.79-2.23 13.54 4.39z" class="cls-88"/><path d="m211.69 273.67-13.25-4.25.86-2.37 13.83 4.39z" class="cls-88"/><path d="m212.41 272.59-13.54-4.39.79-2.38 14.18 4.47-.64 1.08z" class="cls-89"/><path d="m213.13 271.44-13.83-4.39.79-2.45 14.4 4.61-1.29 2.16z" class="cls-89"/><path d="m213.84 270.29-14.18-4.47.87-2.44 14.68 4.68z" class="cls-89"/><path d="m214.49 269.21-14.4-4.61.44-1.3 2.8-.36 12.53 4.04z" class="cls-89"/><path d="m215.21 268.06-14.68-4.68v-.08l3.23-.43 2.38-.36 10.44 3.31z" class="cls-90"/><path d="m215.86 266.98-12.53-4.04.43-.07 3.68-.57 1.51-.22 8.28 2.59z" class="cls-90"/><path d="m216.58 265.82-10.44-3.31 1.3-.21 3.67-.58.65-.14 6.19 2.01-.22.36z" class="cls-91"/><path d="m217.23 264.67-8.28-2.59 2.16-.36 3.38-.58 4.11 1.3-.87 1.51z" class="cls-91"/><path d="m217.95 263.59-6.19-2.01 2.95-.51 2.52-.43 2.02.65z" class="cls-91"/><path d="m218.6 262.44-4.11-1.3.22-.07 3.6-.57 1.58-.36z" class="cls-91"/><path d="m219.25 261.29-2.02-.65 1.08-.14 1.58-.36z" class="cls-92"/><path d="m77.84 260.5-.07 1.08-.72-1.23.64.15z" class="cls-84"/><path d="m78.7 260.64-.22 2.23-1.43-2.52.64.15z" class="cls-84"/><path d="m77.77 261.58.07-1.08 1.65.28-.21 3.32-.15-.15z" class="cls-84"/><path d="m78.48 262.87.22-2.23 1.58.29-.28 4.39-.87-1.37z" class="cls-84"/><path d="m79.28 264.1.21-3.32 1.59.29-.36 5.47z" class="cls-84"/><path d="m80 265.32.28-4.39 1.01.14.58.15-.43 6.55z" class="cls-84"/><path d="m80.72 266.54.36-5.47h.21l1.44.29-.5 7.63z" class="cls-84"/><path d="m81.44 267.77.43-6.55 1.66.28-.58 8.64z" class="cls-84"/><path d="m82.23 268.99.5-7.63 1.59.29-.65 9.72z" class="cls-84"/><path d="m82.95 270.14.58-8.64 1.36.22h.22l-.72 10.8-.72-1.15z" class="cls-84"/><path d="m83.67 271.37.65-9.72.57.07 1.08.14-.79 11.81z" class="cls-84"/><path d="m84.39 272.52.72-10.8 1.66.29-.87 12.81z" class="cls-84"/><path d="m85.18 273.67.79-11.81 1.59.29-.94 13.9z" class="cls-84"/><path d="m85.9 274.82.87-12.81 1.58.29-.94 14.9z" class="cls-85"/><path d="m86.62 276.05.94-13.9 1 .15.65.07-1.08 15.98z" class="cls-85"/><path d="m87.41 277.2.94-14.9h.21l1.44.21-1.15 16.92-.5-.79z" class="cls-85"/><path d="m88.13 278.35 1.08-15.98 1.59.29-1.16 17.92-1.29-1.94z" class="cls-85"/><path d="M88.85 279.43 90 262.51l1.59.29-1.23 18.86z" class="cls-85"/><path d="m89.64 280.58 1.16-17.92 1.44.21h.21l-1.37 19.87z" class="cls-85"/><path d="m90.36 281.66 1.23-18.86.65.07 1.01.15-1.37 20.88z" class="cls-85"/><path d="m91.08 282.74 1.37-19.87 1.59.29-1.44 21.82z" class="cls-85"/><path d="m91.88 283.9 1.37-20.88 1.65.21-1.58 22.83-.22-.36z" class="cls-85"/><path d="m92.6 284.98 1.44-21.82 1.58.22.07.14-1.58 23.62-1.01-1.44z" class="cls-85"/><path d="m93.32 286.06 1.58-22.83.72.15.72 2.08-1.51 22.76z" class="cls-85"/><path d="m94.11 287.14 1.58-23.62 1.37 3.96-1.44 21.74z" class="cls-85"/><path d="m94.83 288.22 1.51-22.76 1.37 3.96-1.37 20.88z" class="cls-85"/><path d="m95.62 289.22 1.44-21.74 1.01 2.95.36.94-1.37 20.01z" class="cls-85"/><path d="m96.34 290.3 1.37-20.88.36 1.01 1.01 2.88-1.23 19.08z" class="cls-85"/><path d="m97.06 291.38 1.37-20.01 1.37 3.81-1.23 18.22-.57-.72z" class="cls-85"/><path d="m97.85 292.39 1.23-19.08 1.44 3.82-1.16 17.28-1.36-1.73z" class="cls-85"/><path d="m98.57 293.4 1.23-18.22 1.37 3.82v.07l-1.09 16.35z" class="cls-86"/><path d="m99.36 294.41 1.16-17.28.65 1.87.72 1.94-1.08 15.48z" class="cls-86"/><path d="m100.08 295.42 1.09-16.35 1.36 3.75-.93 14.61z" class="cls-86"/><path d="m100.81 296.42 1.08-15.48 1.36 3.75-.93 13.75z" class="cls-87"/><path d="m101.6 297.43.93-14.61 1.44 3.74-.86 12.89h-.07z" class="cls-87"/><path d="m102.32 298.44.93-13.75 1.08 2.88.29.86-.79 12.03-.79-1.01z" class="cls-87"/><path d="m103.11 299.45.86-12.89.36 1.01 1.01 2.66-.72 11.16z" class="cls-87"/><path d="m103.83 300.46.79-12.03 1.44 3.67-.72 10.23z" class="cls-88"/><path d="m104.62 301.39.72-11.16 1.37 3.67-.58 9.44z" class="cls-88"/><path d="m105.34 302.33.72-10.23 1.37 3.68-.58 8.49z" class="cls-88"/><path d="m106.13 303.34.58-9.44.86 2.16.58 1.52-.51 7.7z" class="cls-89"/><path d="m106.85 304.27.58-8.49.14.28 1.23 3.32-.44 6.84-.07-.15z" class="cls-89"/><path d="m107.64 305.28.51-7.7 1.37 3.6-.36 5.97-.87-1.08z" class="cls-89"/><path d="m108.36 306.22.44-6.84 1.44 3.52-.36 5.12z" class="cls-89"/><path d="m109.16 307.15.36-5.97 1.37 3.38.07.14-.29 4.25z" class="cls-90"/><path d="m109.88 308.02.36-5.12.65 1.66.72 1.94-.22 3.39z" class="cls-90"/><path d="m110.67 308.95.29-4.25 1.37 3.53-.15 2.52z" class="cls-91"/><path d="m111.39 309.89.22-3.39 1.44 3.46-.15 1.73z" class="cls-91"/><path d="m112.18 310.75.15-2.52 1.44 3.53-.08.86-.07-.14z" class="cls-91"/><path d="m112.9 311.69.15-1.73 1.22 3.1.14.43-.79-1.01z" class="cls-91"/><path d="m113.69 312.62.08-.86.5 1.3.14.43z" class="cls-92"/><path d="M173.45 277.13h.36l1.3-10.87.07-.29 1.95-.07 3.88-.36 3.89-.36 3.82-.36 3.81-.44 1.73-.21-1.51 4.39-3.1 8.5-3.09 8.49-3.24 8.5-3.32 8.42-.93 2.38z" class="cls-40"/><path d="M147.6 372a55.44 55.44 0 1 0-55.29-55.44A55.37 55.37 0 0 0 147.6 372m54.72-55.44a54.76 54.76 0 1 1-54.72-54.79 54.8 54.8 0 0 1 54.72 54.74Z" style="fill-rule:evenodd;fill:#b89033"/><path d="M147.6 372a55.44 55.44 0 1 0-55.29-55.44A55.37 55.37 0 0 0 147.6 372m53.14-55.44a53.21 53.21 0 1 1-53.14-53.26 53.2 53.2 0 0 1 53.14 53.21Z" style="fill-rule:evenodd;fill:#ba9234"/><path d="M202.32 316.51a54.76 54.76 0 1 0-54.72 54.79 54.8 54.8 0 0 0 54.72-54.79m-3.16 0a51.63 51.63 0 1 1-51.56-51.69 51.68 51.68 0 0 1 51.56 51.69" style="fill-rule:evenodd;fill:#ba9438"/><path d="M200.74 316.51a53.21 53.21 0 1 0-53.14 53.21 53.21 53.21 0 0 0 53.14-53.21m-3.1 0a50.08 50.08 0 1 1-50-50.11 50.13 50.13 0 0 1 50 50.11" style="fill-rule:evenodd;fill:#bd973c"/><path d="M199.16 316.51a51.63 51.63 0 1 0-51.56 51.7 51.67 51.67 0 0 0 51.56-51.7m-3.1 0A48.49 48.49 0 1 1 147.6 268a48.53 48.53 0 0 1 48.46 48.51" style="fill-rule:evenodd;fill:#bf993d"/><path d="M197.64 316.51a50.08 50.08 0 1 0-50 50.11 50.13 50.13 0 0 0 50-50.11m-3.16 0a46.95 46.95 0 1 1-46.88-46.94 46.95 46.95 0 0 1 46.88 46.94" style="fill-rule:evenodd;fill:#bf9b41"/><path d="M196.06 316.51A48.49 48.49 0 1 0 147.6 365a48.54 48.54 0 0 0 48.46-48.53Zm-3.17 0a45.36 45.36 0 1 1-45.29-45.43 45.39 45.39 0 0 1 45.29 45.43" style="fill-rule:evenodd;fill:#c39d43"/><path d="M194.48 316.51a46.95 46.95 0 1 0-46.88 46.95 46.94 46.94 0 0 0 46.88-46.95m-3.1 0a43.81 43.81 0 1 1-43.78-43.85 43.87 43.87 0 0 1 43.78 43.85" style="fill-rule:evenodd;fill:#c39e47"/><path d="M192.89 316.51a45.36 45.36 0 1 0-45.29 45.43 45.4 45.4 0 0 0 45.29-45.43m-3.09 0a42.23 42.23 0 1 1-42.2-42.26 42.27 42.27 0 0 1 42.2 42.26" style="fill-rule:evenodd;fill:#c5a148"/><path d="M191.38 316.51a43.81 43.81 0 1 0-43.78 43.85 43.87 43.87 0 0 0 43.78-43.85m-3.17 0a40.68 40.68 0 1 1-40.61-40.68 40.66 40.66 0 0 1 40.61 40.68" style="fill-rule:evenodd;fill:#c7a44d"/><path d="M189.8 316.51a42.23 42.23 0 1 0-42.2 42.27 42.27 42.27 0 0 0 42.2-42.27m-3.1 0a39.13 39.13 0 1 1-39.1-39.17 39.2 39.2 0 0 1 39.1 39.17" style="fill-rule:evenodd;fill:#c9a651"/><path d="M188.21 316.51a40.68 40.68 0 1 0-40.61 40.68 40.67 40.67 0 0 0 40.61-40.68m-3.09 0a37.55 37.55 0 1 1-37.52-37.58 37.6 37.6 0 0 1 37.52 37.58" style="fill-rule:evenodd;fill:#cba853"/><path d="M186.7 316.51a39.13 39.13 0 1 0-39.1 39.17 39.2 39.2 0 0 0 39.1-39.17m-3.17 0a36 36 0 1 1-35.93-36 36 36 0 0 1 35.93 36" style="fill-rule:evenodd;fill:#cbaa58"/><path d="M185.12 316.51a37.55 37.55 0 1 0-37.52 37.59 37.6 37.6 0 0 0 37.52-37.59m-3.17 0a34.42 34.42 0 1 1-34.35-34.41 34.4 34.4 0 0 1 34.4 34.41Z" style="fill-rule:evenodd;fill:#cfad5a"/><path d="M183.53 316.51a36 36 0 1 0-35.93 36 36 36 0 0 0 35.93-36m-3.09 0a32.87 32.87 0 1 1-32.84-32.9 32.93 32.93 0 0 1 32.84 32.9" style="fill-rule:evenodd;fill:#d1af5e"/><path d="M182 316.51a34.42 34.42 0 1 0-34.35 34.42A34.4 34.4 0 0 0 182 316.51m-3.1 0a31.29 31.29 0 1 1-31.25-31.32 31.33 31.33 0 0 1 31.2 31.32Z" style="fill-rule:evenodd;fill:#d5b362"/><path d="M180.44 316.51a32.87 32.87 0 1 0-32.84 32.91 32.93 32.93 0 0 0 32.84-32.91m-3.17 0a29.7 29.7 0 1 1-29.67-29.73 29.73 29.73 0 0 1 29.67 29.73" style="fill-rule:evenodd;fill:#d7b666"/><path d="M178.85 316.51a31.29 31.29 0 1 0-31.25 31.32 31.33 31.33 0 0 0 31.25-31.32m-3.17 0a28.15 28.15 0 1 1-28.08-28.15 28.2 28.2 0 0 1 28.08 28.15" style="fill-rule:evenodd;fill:#d9b86a"/><path d="M177.27 316.51a29.7 29.7 0 1 0-29.67 29.74 29.73 29.73 0 0 0 29.67-29.74m-3.1 0a26.61 26.61 0 1 1-26.57-26.64 26.65 26.65 0 0 1 26.57 26.64" style="fill-rule:evenodd;fill:#d9ba6f"/><path d="M175.68 316.51a28.15 28.15 0 1 0-28.08 28.23 28.13 28.13 0 0 0 28.08-28.23m-3.09 0a25 25 0 1 1-25-25.05 25.06 25.06 0 0 1 25 25.05" style="fill-rule:evenodd;fill:#dbbf73"/><path d="M174.17 316.51a26.61 26.61 0 1 0-26.57 26.64 26.65 26.65 0 0 0 26.57-26.64m-3.17 0A23.44 23.44 0 1 1 147.6 293a23.46 23.46 0 0 1 23.4 23.51" style="fill-rule:evenodd;fill:#dbc077"/><path d="M172.59 316.51a25 25 0 1 0-25 25.06 25.06 25.06 0 0 0 25-25.06m-3.17 0a21.89 21.89 0 1 1-21.82-21.89 21.92 21.92 0 0 1 21.82 21.89" style="fill-rule:evenodd;fill:#ddc37b"/><path d="M171 316.51A23.44 23.44 0 1 0 147.6 340a23.46 23.46 0 0 0 23.4-23.49m-3.09 0a20.34 20.34 0 1 1-20.31-20.37 20.4 20.4 0 0 1 20.31 20.37" style="fill-rule:evenodd;fill:#e0c67f"/><path d="M169.42 316.51a21.89 21.89 0 1 0-21.82 22 21.87 21.87 0 0 0 21.82-22m-3.1 0a18.76 18.76 0 1 1-18.72-18.79 18.78 18.78 0 0 1 18.72 18.79" style="fill-rule:evenodd;fill:#e0c983"/><path d="M167.91 316.51a20.34 20.34 0 1 0-20.31 20.38 20.39 20.39 0 0 0 20.31-20.38m-3.17 0a17.17 17.17 0 1 1-17.14-17.21 17.19 17.19 0 0 1 17.14 17.21" style="fill-rule:evenodd;fill:#e2cc87"/><path d="M166.32 316.51a18.76 18.76 0 1 0-18.72 18.79 18.78 18.78 0 0 0 18.72-18.79m-3.16 0a15.63 15.63 0 1 1-15.56-15.62 15.67 15.67 0 0 1 15.56 15.62" style="fill-rule:evenodd;fill:#e4cf8b"/><path d="M164.74 316.51a17.17 17.17 0 1 0-17.14 17.21 17.19 17.19 0 0 0 17.14-17.21m-3.1 0a14.08 14.08 0 1 1-14-14.11 14.11 14.11 0 0 1 14 14.11" style="fill-rule:evenodd;fill:#e4d18f"/><path d="M163.16 316.51a15.63 15.63 0 1 0-15.56 15.7 15.6 15.6 0 0 0 15.56-15.7m-3.1 0A12.49 12.49 0 1 1 147.6 304a12.48 12.48 0 0 1 12.46 12.51" style="fill-rule:evenodd;fill:#e7d393"/><path d="M161.64 316.51a14.08 14.08 0 1 0-14 14.11 14.12 14.12 0 0 0 14-14.11m-3.16 0a10.91 10.91 0 1 1-10.88-10.94 10.89 10.89 0 0 1 10.88 10.94" style="fill-rule:evenodd;fill:#e7d798"/><path d="M160.06 316.51A12.49 12.49 0 1 0 147.6 329a12.48 12.48 0 0 0 12.46-12.53Zm-3.17 0a9.33 9.33 0 0 1-9.29 9.43 9.4 9.4 0 1 1 0-18.79 9.28 9.28 0 0 1 9.29 9.36" style="fill-rule:evenodd;fill:#e9da9e"/><path d="M158.48 316.51a10.91 10.91 0 1 0-10.88 10.95 10.88 10.88 0 0 0 10.88-10.95m-3.1 0a7.81 7.81 0 1 1-7.78-7.85 7.81 7.81 0 0 1 7.78 7.85" style="fill-rule:evenodd;fill:#ecdda3"/><path d="M156.89 316.51a9.28 9.28 0 0 0-9.29-9.36 9.4 9.4 0 1 0 9.29 9.36m-3 0a6.27 6.27 0 1 1-6.27-6.26 6.27 6.27 0 0 1 6.25 6.26Z" style="fill-rule:evenodd;fill:#ece1a8"/><path d="M155.38 316.51a7.81 7.81 0 1 0-7.78 7.85 7.81 7.81 0 0 0 7.78-7.85m-3.1 0a4.68 4.68 0 1 1-4.68-4.68 4.67 4.67 0 0 1 4.68 4.68" style="fill-rule:evenodd;fill:#eee4ac"/><path d="M153.87 316.51a6.27 6.27 0 1 0-6.27 6.27 6.27 6.27 0 0 0 6.27-6.27m-3.17 0a3.14 3.14 0 0 1-3.1 3.17 3.19 3.19 0 0 1-3.16-3.17 3.13 3.13 0 0 1 3.16-3.09 3.07 3.07 0 0 1 3.1 3.09" style="fill-rule:evenodd;fill:#eee6b1"/><circle cx="147.6" cy="316.51" r="4.68" style="fill:#f0e9b5"/><path d="M150.7 316.51a3.07 3.07 0 0 0-3.1-3.09 3.13 3.13 0 0 0-3.16 3.09 3.19 3.19 0 0 0 3.16 3.17 3.14 3.14 0 0 0 3.1-3.17" style="fill-rule:evenodd;fill:#f3ecba"/><circle cx="147.6" cy="316.51" r="1.58" style="fill:#f5f5c6"/><path d="M149.48 374a55.47 55.47 0 0 0 40-93.6 55.32 55.32 0 0 1-82 74.23 55.29 55.29 0 0 0 42 19.37" style="fill-rule:evenodd;fill:#faedb8"/><path d="M181.23 326.16v-2.52l.21.36 1.23 1.87 1.15 2 1.15 2 1.08 2.09 1.15 2.09 1.08 2.23 1.16 2.23 1.08 2.31 1.08 2.45 1.08 2.44.72 1.73-1.08 1.56-.58-1.44-1.08-2.56-1-2.44-1.08-2.45-1.15-2.31-1.08-2.23-1.08-2.23-1.15-2.09-1.12-2.07-1.16-2-.57-1Zm0-37.44v-1.3l.07.08 1.3 1.29 1.22 1.3 1.15 1.37 1.23 1.36 1.15 1.44 1.15 1.37 1.08 1.44 1.08 1.51 1.08 1.44 1.08 1.52 1 1.58 1 1.51 1 1.59.94 1.58 1 1.66.86 1.58.94 1.66.86 1.72.87 1.73.86 1.73.58 1.3c-.08 1.08-.15 2.16-.22 3.16l-.72-1.65-.79-1.8-.87-1.73-.79-1.73-.86-1.73-.87-1.72-.93-1.66-.94-1.58-.93-1.66-.94-1.58-1-1.59-1-1.51-1-1.58-1.08-1.52-1.08-1.44-1.08-1.51-1.16-1.44-1.08-1.37-1.22-1.44-1.17-1.36-1.23-1.37-.57-.65ZM194 346.61l.07-.15Zm-19.47 18.29c.51-.29.94-.58 1.44-.87l-.43-1.29-.72-2.09-.72-1.87-1.08.43H173v.93l.65 1.88.72 2.16.21.72Zm6.7-77.48v1.3l-.65-.65-1.22-1.29-1.3-1.3-1.3-1.3-1.29-1.18-1.37-1.22-1.1-1.12v-.94l.43.36 1.37 1.15 1.37 1.23 1.29 1.22 1.37 1.22 1.3 1.3 1.15 1.22Zm0 36.22v2.52l-.58-1-1.15-1.87-1.15-1.87-1.23-1.73-1.15-1.8-1.22-1.66-1.23-1.65-.57-.79v-1.73l.07.14 1.3 1.59 1.22 1.51 1.15 1.65 1.23 1.66 1.22 1.8 1.15 1.73.94 1.51ZM173 356.47v-.86l.29.79zm0-87.19v-2c.43.22.79.51 1.22.72l-.93.94-.29.36Zm3 94.72c.22-.14.36-.21.58-.36-.22.15-.36.22-.58.36m-1.15-95.69-.29-.14zm-1.85 90.9-.29.14.22.58.07.21zm0-91.95v2l-1.08 1.08-.22.22v-2.74l.79-.79a4 4 0 0 0 .51.21Zm0 12.46v.94l-.15-.15-1.15-.93v-.94l.29.29 1 .79Zm0 32.33v1.73l-.65-.72-.65-.87v-1.65l.15.21zm0 43.56v.86l-.79.36-.51.15v-4.4l.87 1.95Zm-1.3-87.77v2.74l-1.08 1.22-1.29 1.44-1.3 1.51-1.15 1.44-1.15 1.51-.15.22v-3.24l.42-.68 1.22-1.51 1.3-1.44 1.36-1.44 1.37-1.44.36-.36Zm0 10.8-1.15-.86-1-.8-.43.51.94.72 1.36 1.15.29.22v-.94Zm0 31.9v1.65l-.57-.72-1.28-1.47-1.22-1.44-1.3-1.37-1.22-1.36-.58-.58v-1.15l1.23 1.22 1.29 1.23 1.3 1.36 1.22 1.37 1.08 1.23Zm0 42V357l-1.44.5-1.94.65-2 .65-.72.21v-1.31l.79-.29 2-.65 1.87-.65 1.08-.43-.72-1.87-.79-1.95-.79-1.94-.87-1.87-.86-1.8-.87-1.8-.79-1.66v-3l.07.14.94 1.73.86 1.66.87 1.8.86 1.8.87 1.8.86 1.87Zm-6.12-77.83v3.24l-1 1.3-1.08 1.51-1 1.58-1 1.51-1 1.59-.65 1.15v-3.89l.65-1.08 1-1.62 1.08-1.51 1.08-1.52 1.22-1.51.65-.79Zm0 29.45v1.15l-.72-.65-1.29-1.29-1.3-1.16-1.3-1.15-1.2-1.06v-.86l.51.43 1.36 1.08 1.3 1.15 1.3 1.15 1.29 1.16v.07Zm0 35.71v3l-.07-.14-.94-1.66-.86-1.73-.94-1.51 1.23-.57.72 1.22.86 1.44Zm0 17.86V359l-1.29.36-2.09.58-2.16.5-.22.07v-1.22l.36-.07 2.09-.58 2.09-.57 1.22-.36Zm-5.76-21.46v-1.58l.94-.36-.87-1.3-.07-.22v-2.23l.07.22 1 1.44 1 1.51.79 1.3-1.58.64Zm0-53.57v3.89l-.29.43-.86 1.51-.86 1.59-.87 1.58-.79 1.66-.79 1.58-.72 1.59-.72 1.65-.65 1.59-.72 1.65-.65 1.66-.65 1.58-.57 1.66-.58 1.65-.57 1.66-.58 1.66-.5 1.65-.58 1.59-.29 1.08-1 .43-1.51.57-1.58.51-1.66.5-1.58.43-1.66.36v-1.15l1.3-.36 1.65-.5 1.52-.51 1.58-.57.94-.43.36-1.08.5-1.59.58-1.65.57-1.66.51-1.66.64-1.65.58-1.66.65-1.58.65-1.66.64-1.65.72-1.59.72-1.65.8-1.59.79-1.58.71-1.64.79-1.58.94-1.59.86-1.51.94-1.58 1-1.59.29-.43Zm0 16.42-.79-.58-1.3-1-.57-.36-.22.44-.07.07.22.14 1.29 1 1.3 1.08.14.07zm0 31.46-.86-1.15-1-1.37-1-1.37-1.08-1.29-1-1.23-.93-1.22-1.08-1.15-1.08-1.15-1-1.08-1.08-1-.79-.72-.79.36.64.65 1.08 1.08 1.08 1.15 1 1.15 1.08 1.22 1 1.23.94 1.29 1 1.37 1 1.37 1 1.37 1 1.44.86 1.29v-2.23Zm0 4.11v1.58l-.57.22-1.8.64-1.88.65-1.87.58-1.94.57-2 .51-1.94.43-2 .43-2 .36-2 .29-2.09.29-1.15.14v-.93l1.3-.22 2-.29 2-.36 2-.43 1.94-.43 1.94-.51 2-.57 1.87-.58 1.8-.65 1.87-.64 1.8-.8zm0 24.62v1.22l-1.94.44-2.16.43-2.16.36-2.23.43-2.24.29-2.3.36-2.3.21-2.38.29-2.38.22-1.15.07v-.86l1.59-.15 2.3-.29 2.3-.21 2.31-.36 2.3-.29 2.23-.43 2.24-.36 2.08-.43 2.16-.51zm-21.24-81.79v-4l.22-.36 1.08-1.66 1.08-1.66 1.08-1.65 1.15-1.66 1.15-1.58 1.15-1.59 1.16-1.51.5-.65c.14 0 .36-.07.5-.07.94 0 1.8.07 2.74.07h-.72l-1 1.37-1.28 1.43-1.15 1.59-1.16 1.58-1.15 1.66-1.08 1.65-1.08 1.66-1.08 1.66-1 1.72-1 1.73Zm0-4v4l-.86 1.51-.94 1.8-.93 1.8-.94 1.87-.86 1.8-.87 2-.79 1.87-.79 1.94-.79 2-.72 2-.72 2-.65 2.09-.65 2.09-.65 2.16-.57 2.16-.51 2.16-.5 2.3-.51 2.23-.43 2.38-.36 2.3-.34 2.02h-3.74l-1.87-.07h-.79v-.65h4.39l.36-2.09.36-2.3.43-2.38.5-2.23.51-2.3.5-2.16.58-2.16.57-2.16.65-2.09.72-2.09.65-2 .79-2 .72-2 .79-1.94.87-1.87.86-1.95.87-1.8.86-1.87.94-1.8 1-1.8.94-1.73 1-1.73.86-1.36Zm0 43.77-.36.07-1.65.36-1.73.36-1.73.29-1.73.29-1.73.22-1.8.21h-.93l-.07.87H128l1.8-.15 1.8-.21 1.73-.22 1.8-.29 1.72-.29 1.66-.36h.07zm0 23.19v.93l-.93.15-2.09.21-2.09.15-2.16.14-2.16.14-2.16.08-2.16.07h-7v-.72h5l2.24-.07 2.16-.08 2.16-.14 2.16-.14 2.08-.15 2.09-.21 2.09-.29.79-.07Zm0 22.32v.86l-1.15.07-2.38.15-2.44.14-2.38.07-2.38.07-2.44.08H123l-2.45-.08h-1.29c-.36-.21-.72-.43-1.16-.72h.51l2.37.08h2.45l2.38-.08 2.45-.07 2.37-.07 2.38-.14 2.37-.15 2.38-.14.79-.07Zm-20.78-92.94a2.3 2.3 0 0 1 .57-.36 2.3 2.3 0 0 0-.57.36m1.87 94.53.86.43zm1.15.58c.58.36 1.22.72 1.8 1-.62-.28-1.22-.64-1.8-.97Zm-3-95.11c-.22.14-.44.21-.65.36.21-.15.43-.22.65-.36m0 49.46v.68l-1.08-.07-2-.08-1.94-.14-1.87-.22-1.16-.07v-.57l1.08.14 2 .14 1.87.08 1.94.07 1.16.07Zm0 22.25v.72l-2-.07-2.23-.08-2.3-.07-1.49-.07v-.65l1.88.07 2.23.08 2.23.07Zm-8-57.75v-4.89l.44-.94.79-1.51.79-1.44.79-1.44h.07c1.44-1.22 3-2.3 4.47-3.38l-.87 1.29-.86 1.37-.79 1.44-.87 1.44-.78 1.44-.79 1.51-.72 1.59-.79 1.51-.72 1.58Zm0-4.89v4.89l-.5 1.23-.72 1.65-.65 1.66-.65 1.66-.64 1.72-.58 1.73-.58 1.73-.57 1.8-.51 1.73-.5 1.8-.5 1.73-.51 1.8-.43 1.8-.43 1.8-.43 1.8-.44 1.8-.36 1.8-.36 1.8-.28 1.72-.31 1.42-.51-.14-1-.22v-2.73l.14-.72.36-1.8.36-1.8.43-1.8.36-1.8.43-1.8.51-1.8.43-1.8.5-1.73.51-1.8.57-1.73.58-1.8.58-1.73.57-1.73.65-1.72.65-1.66.65-1.66.64-1.65.72-1.66.72-1.58.72-1.51.36-.65Zm0 39.89v.57l-.79-.07-1.94-.29-1.95-.21-1.87-.36-.86-.08.07-.43.72.15 1.94.21 1.95.29 1.94.14zm0 22.53v.65l-.72-.07-2.3-.15-2.3-.14-2.31-.14-2.3-.22-1.51-.14v-.51l1.87.15 2.3.14 2.31.14 2.23.15 2.3.14Zm-11.44.43c.14.22.21.44.36.65-.15-.21-.22-.43-.36-.65m.36.65c.14.29.28.51.43.79-.17-.28-.31-.5-.45-.79Zm-.36-27.57v2.73l-.87-.14-1.94-.36-1.87-.43-.51-.15v-.29l.43.15 2 .36 1.87.36.5.14.22-1.37.22-1Zm0 25.77v.51H98c-.08-.22-.15-.36-.22-.58h.07l.51.07Zm0 1.15c-.08-.21-.22-.43-.29-.64.07.21.21.43.29.64" style="fill-rule:evenodd;fill:#f7f1c5"/><path d="M176 364a22 22 0 0 0 2.23-1.44l-.21-.65-.79-2.16-.72-2.08-.8-2.09-.86-2-.79-2-.87-1.95-.86-1.87-.86-1.87-.87-1.87-.86-1.8-.94-1.73-.93-1.73-.94-1.66-1-1.65-.93-1.59-1-1.58-.94-1.51-1.08-1.44-1-1.44-1-1.44-1-1.37-1.08-1.3-1.08-1.29-1.08-1.23-1-1.22-1.08-1.15-1.08-1.15-1.15-1.08-1.15-1.08.07-.29.5-1.66.58-1.58.5-1.66.58-1.58.57-1.66.65-1.58.58-1.59.57-1.65.65-1.59.72-1.58.72-1.58.22-.44.57.36 1.3 1 1.3 1 1.36 1.08 1.3 1.15 1.3 1.15 1.29 1.16 1.23 1.29 1.29 1.23 1.3 1.36 1.22 1.37 1.23 1.44 1.22 1.44 1.3 1.59 1.22 1.51 1.15 1.65 1.23 1.66 1.22 1.8 1.15 1.73 1.15 1.87 1.23 1.87 1.15 2 1.15 2 1.08 2.09 1.15 2.09 1.08 2.23 1.16 2.23 1.08 2.31 1.08 2.45 1.08 2.44.72 1.73c.57-.86 1.15-1.73 1.65-2.59l-.07-.14-1.08-2.52-1.08-2.38-1.08-2.38-1.15-2.3-1.15-2.23-1.08-2.16-1.23-2.16-1.15-2-1.15-2-1.23-1.95-1.15-1.87-1.22-1.8-1.23-1.8-1.22-1.73-1.22-1.65-1.3-1.59-1.34-1.56-1.3-1.51-1.3-1.44-1.29-1.44-1.3-1.37-1.29-1.37-1.3-1.22L166 301l-1.36-1.22-1.37-1.15-1.3-1.08-1.37-1.08-1.36-1-1-.72.21-.36.8-1.51.79-1.59.86-1.51.87-1.58.93-1.52.94-1.51.93-1.51 1-1.44 1.08-1.51 1.08-1.44 1.15-1.51.65-.8 1 .8 1.44 1.15 1.44 1.15 1.37 1.15 1.37 1.23 1.29 1.22 1.37 1.22 1.3 1.3 1.22 1.3 1.3 1.29 1.22 1.3 1.15 1.37 1.23 1.36 1.15 1.44 1.15 1.37 1.08 1.44 1.08 1.51 1.08 1.44 1.08 1.52 1 1.58 1 1.51 1 1.59.94 1.58 1 1.66.86 1.58.94 1.66.86 1.72.87 1.73.86 1.73.58 1.3c.07-.87.07-1.8.07-2.67 0-1.08 0-2.16-.07-3.24l-.94-1.73-.94-1.72-.93-1.66-.95-1.64-1-1.65-1-1.59-1-1.58-1.08-1.58-1.08-1.52-1.08-1.51-1.15-1.51-1.08-1.51-1.23-1.44-1.15-1.44-1.22-1.37-1.23-1.37-1.29-1.37-1.23-1.36-1.29-1.3-1.37-1.3-1.37-1.29-1.37-1.23-1.37-1.22-1.41-1.22-1.44-1.23-1.44-1.15-1-.72.14-.14 1.22-1.37 1.3-1.44 1.3-1.37 1.44-1.37v-.07c-.72-.43-1.52-.86-2.31-1.3l-.93.94-1.37 1.44-1.3 1.44-1.29 1.44-1.3 1.51-1.15 1.44-1.15 1.51-1.16 1.52-1.08 1.51-1 1.58-1 1.51-1 1.59-.94 1.58-.86 1.51-.86 1.59-.87 1.58-.79 1.66-.79 1.58-.72 1.59-.72 1.65-.65 1.59-.72 1.65-.65 1.66-.65 1.58-.57 1.66-.58 1.65-.57 1.66-.58 1.66-.5 1.65-.58 1.59-.29 1.08-1 .43-1.51.57-1.58.51-1.66.5-1.58.43-1.73.36-1.66.36-1.72.29-1.8.29-1.73.22-1.8.21-1.8.15h-1.22l.21-1.52.36-2.3.43-2.3.51-2.24.43-2.23.58-2.16.57-2.09.58-2.08.57-2.09.72-2 .65-2 .72-1.95.72-1.94.79-1.87.8-1.88.86-1.87.86-1.8.87-1.8.97-1.78.94-1.8.94-1.65 1-1.73 1-1.66 1.08-1.65 1-1.66 1.08-1.58 1.15-1.59 1.08-1.58 1.15-1.51 1.23-1.59 1.15-1.51.94-1.15-3.1-.22-1 1.37-1.25 1.51-1.15 1.59-1.16 1.58-1.15 1.66-1.08 1.65-1.08 1.66-1.08 1.66-1 1.72-1 1.73-1 1.73-.94 1.8-.93 1.8-.94 1.87-.86 1.8-.87 2-.79 1.87-.79 1.94-.79 2-.72 2-.72 2-.65 2.09-.65 2.09-.65 2.16-.57 2.16-.51 2.16-.5 2.3-.51 2.23-.43 2.38-.36 2.3-.31 2.07h-3.74l-1.87-.07-1.87-.07-2-.08-1.94-.14-1.87-.22-1.95-.14-1.94-.29-1.95-.21-1.87-.36-.86-.08.21-1.29.36-1.8.36-1.73.36-1.8.37-1.72.44-1.8.43-1.73.43-1.8.5-1.72.51-1.8.5-1.73.51-1.73.57-1.73.58-1.73.57-1.65.58-1.66.65-1.65.65-1.66.64-1.58.72-1.59.65-1.58.79-1.51.72-1.52.72-1.44.84-1.39.79-1.36.79-1.37.86-1.3.87-1.29.86-1.23.87-1.15 1.8-2.23-.08-.07q-2.91 1.5-5.61 3.24l-.87 1.29-.86 1.37-.79 1.44-.87 1.44-.76 1.42-.79 1.51-.72 1.59-.79 1.51-.72 1.58-.65 1.66-.72 1.65-.65 1.66-.65 1.66-.64 1.72-.58 1.73-.58 1.73-.57 1.8-.51 1.73-.5 1.8-.5 1.73-.51 1.8-.43 1.8-.43 1.8-.43 1.8-.44 1.8-.36 1.8-.36 1.8-.28 1.72-.32 1.42-.51-.14-1.87-.36-1.94-.36-1.87-.43-.51-.15v2.59l1.87.44L97 320l1.94.36 1.95.36 1.94.29 1.94.36 2 .21 1.94.29 2 .22 2 .14 1.95.14 1.94.15 2 .07 1.94.07h1.94l1.88-.07 1.94-.07 1.87-.07 1.87-.15 1.88-.21 1.8-.22 1.8-.29 1.8-.29 1.8-.36 1.72-.43 1.73-.43 1.66-.5 1.65-.58 1.66-.58 1.37-.57.79.72 1.08 1 1 1.08 1.08 1.15 1.08 1.15.93 1.22 1 1.23 1.08 1.29 1 1.37 1 1.37.93 1.37 1 1.44 1 1.51.79 1.3-1.58.64-1.87.8-1.8.64-1.88.65-1.87.58-1.94.57-2 .51-1.94.43-2 .43-2 .36-2 .29-2.09.29-2.08.29-2.09.21-2.09.15-2.16.14-2.16.14-2.16.08-2.16.07h-6.7l-2.23-.07-2.23-.08-2.3-.07-2.24-.14-2.3-.15-2.3-.14-2.31-.14-2.3-.22-.65-.07v2.16l.22.43h.21l2.33.18 2.3.14 2.38.22 2.3.07 2.3.14 2.24.15 2.3.07h2.3l2.24.07h2.23l2.23-.07H127l2.23-.15 2.16-.07 2.24-.14 2.16-.22 2.08-.21 2.16-.29 2.09-.29 2.09-.29 2.09-.43 2.09-.43 2-.43 2-.51 1.94-.57 1.95-.58 1.94-.72 1.87-.65L162 338l1.95-.86.72 1.22.93 1.58.94 1.73.86 1.66.87 1.8.86 1.8.87 1.8.86 1.87.79 1.94.87 1.95.72 1.87-1.08.43-1.95.65-1.94.65-2 .65-2 .57-2.09.58-2.16.5-2.16.51-2.16.43-2.16.36-2.23.43-2.24.29-2.3.36-2.3.21-2.38.29-2.38.22-2.3.14-2.38.15-2.44.14-2.38.07-2.38.07-2.44.08H123l-2.45-.08h-1.29c1.58.94 3.24 1.8 4.89 2.6h1.23l2.44-.08h2.45l2.45-.14 2.45-.07 2.37-.15 2.38-.21 2.45-.22 2.3-.21 2.38-.29 2.37-.36 2.31-.29 2.23-.43 2.23-.36 2.23-.51 2.16-.43 2.16-.57 2.16-.58 2.09-.58 2.09-.64 2-.65 1.94-.72 1.08-.43.72 1.87.72 2.09Z" style="fill-rule:evenodd;fill:#6a5224"/></svg>