<svg xmlns="http://www.w3.org/2000/svg" xml:space="preserve" viewBox="0 0 500 500"><path fill="#E5A92E" d="M250 0c138.07 0 250 111.929 250 250S388.07 500 250 500C111.929 500 0 388.071 0 250S111.929 0 250 0"/><path fill="#FFF" d="M250 13.251c-31.967 0-62.97 6.257-92.149 18.6-28.19 11.923-53.511 28.996-75.258 50.742-21.747 21.747-38.819 47.067-50.742 75.258-12.342 29.179-18.6 60.183-18.6 92.149s6.258 62.97 18.6 92.149c11.923 28.19 28.996 53.51 50.742 75.258 21.747 21.746 47.067 38.819 75.258 50.742 29.179 12.342 60.183 18.6 92.149 18.6s62.97-6.258 92.148-18.6c28.191-11.923 53.511-28.996 75.258-50.742 21.747-21.748 38.82-47.067 50.743-75.258 12.342-29.18 18.6-60.183 18.6-92.149s-6.258-62.97-18.6-92.149c-11.923-28.19-28.996-53.511-50.743-75.258s-47.066-38.819-75.258-50.742c-29.178-12.343-60.181-18.6-92.148-18.6"/><circle cx="250" cy="250" r="162.986" fill="#E5A92E"/><radialGradient id="a" cx="250" cy="457.174" r="16.784" gradientUnits="userSpaceOnUse"><stop offset="0" style="stop-color:#d56c2a"/><stop offset="1" style="stop-color:#2e2c70"/></radialGradient><circle cx="250" cy="457.174" r="16.784" fill="url(#a)"/><circle cx="250" cy="148.405" r="42.942"/><path fill="#FFF" d="M280.619 169.344h-.002l-.673-.269h-.002c-1.255 3.325-7.16 6.473-16.505 6.553-1.618-3.942-5.169-7.644-6.271-8.742.694-2.008 3.562-10.614 4.676-19.156 5.843-1.428 9.964-4.765 11.308-5.97a73 73 0 0 1 4.117 3.551c2.364 2.188 4.912 4.968 5.712 6.964-.017 4.621-.766 8.814-1.521 11.854-.763 3.072-1.518 4.937-1.516 4.943zM257.249 185.215c-.321.286-.564.484-.722.609l-15.312-.441c-2.552-.7-4.366-2.926-5.519-5.072a19.5 19.5 0 0 1-1.479-3.578l6.702-8.862c1.713-.124 4.828-.303 8.492-.303 2.084 0 4.339.06 6.6.222.387.38 1.347 1.351 2.441 2.67 1.394 1.675 2.966 3.9 3.763 6.025-.035 2.498-1.444 4.875-2.914 6.623a20 20 0 0 1-2.052 2.107M220.222 170.669a20 20 0 0 1-.622-1.114c-1.264-2.41-3.907-8.272-4.648-16.295.369-3.866 1.961-6.459 3.468-8.116a12.3 12.3 0 0 1 2.035-1.798c.169-.119.307-.208.43-.283 1.291 1.187 5.602 4.8 11.902 6.254.348.82 1.296 3.102 2.364 6.006 1.114 3.025 2.341 6.71 3.133 10.048l-6.102 10.218c-3.154-.231-6.022-1.344-8.169-2.473a26 26 0 0 1-2.852-1.741 16 16 0 0 1-.939-.706M235.001 118.412q.48-.048.953-.05c3.07-.006 5.866 1.417 7.89 2.877a21 21 0 0 1 2.389 2.002c.348.339.578.587.712.736a65 65 0 0 1 .429 7.451c0 1.913-.095 4.006-.354 6.065-4.847 4.174-10.013 9.612-11.188 10.862-4.261-.438-7.815-2.079-10.318-3.634a26 26 0 0 1-2.977-2.145 16 16 0 0 1-.863-.77 34 34 0 0 1-.503-5.85c0-2.443.251-4.54.522-6.096 1.966-2.713 5.93-7.068 13.308-11.448M283.594 124.651c-1.845.185-5.345.47-9.378.47h-.901l.188.881c.403 1.888.559 3.693.559 5.352a27.4 27.4 0 0 1-.817 6.622 20 20 0 0 1-.754 2.411c-.119.114-.344.324-.698.625-1.571 1.336-5.352 4.133-10.401 5.331-1.215-1.096-6.136-5.355-12.897-8.899.245-2.062.337-4.129.337-6.017 0-3.64-.315-6.607-.428-7.548l7.24-8.855h6.186l-1.664-1.302s-.129-.099-.387-.364c-.689-.711-2.122-2.473-3.001-5.543a41.04 41.04 0 0 1 22.322 11.489 41.7 41.7 0 0 1 4.494 5.347M220.901 119.305a41.1 41.1 0 0 1 17.112-10.275c-.26 2.082-1.165 3.994-2.095 5.448a17 17 0 0 1-.387.58c-7.121 3.924-11.589 7.992-14.287 11.115l-.008-.012h-.002s-.134.096-.425.262c-.872.499-2.988 1.516-5.569 1.513-.296 0-.601-.019-.908-.047a41.3 41.3 0 0 1 6.569-8.584M208.859 147.918a36 36 0 0 1 2.972 3.322 40 40 0 0 1 1.683 2.282c1.004 10.521 5.133 17.373 5.5 17.967.04.099.151.39.273.844.152.563.302 1.334.302 2.14 0 .482-.061.971-.191 1.441-6.559-7.292-10.55-16.93-10.552-27.508 0-.164.01-.325.013-.488M240.992 188.556a6 6 0 0 1 .531-1.708l14.784.429c.055.126.116.274.184.464.12.343.235.776.304 1.248a41.4 41.4 0 0 1-6.794.568c-3.097 0-6.108-.353-9.009-1.001M280.659 175.845c.149-3.358.597-5.901.667-6.305.282-.729 3.068-8.1 3.11-17.226 1.45-2.837 3.343-5.172 4.884-6.794a31 31 0 0 1 1.589-1.561c.157 1.461.243 2.942.243 4.445 0 10.547-3.969 20.157-10.493 27.441"/><path fill="#2E2C70" d="M183.535 204.242h132.93v110.722h-132.93z"/><path fill="#FFF" d="m215.77 310.477-.116-.044c-.024-.042-11.904-4.443-11.992-14.892 0-1.334.201-2.758.65-4.263l.15-.5.519.026c5.692.281 11.17.413 16.409.413l.962-.001q.164-1.022.163-1.842c-.027-2.18-.742-3.278-2.084-4.042-1.36-.757-3.489-1.04-6.125-1.034-2.271-.002-4.91.195-7.769.39l-.599.041-.099-.591c-.698-4.091-1.027-7.811-1.029-11.224-.018-19.569 10.965-28.885 25.402-38.946-.789-.351-1.959-.466-3.423-.457-.947 0-2.004.037-3.128.037-2.083 0-4.41-.123-6.767-.86l-1.542-.486 1.439-.738c9.69-4.964 11.389-9.089 11.667-10.033a5 5 0 0 0-.12-.154c-.206-.254-.568-.65-1.171-1.159-1.201-1.02-3.36-2.5-7.114-4.25l-.859-.399.668-.668c1.357-1.392 2.37-2.304 4.941-2.635 2.563-.361 6.787-.355 15.257-.357h.401l.187.357c.022.051 1.099 2.095 1.106 4.723v.082l-.021.079c-4.406 17.4-4.118 28.39-6.488 36.149-3.842 12.446-6.922 15.496-6.89 21.403-.003 6.716 1.892 12.662 4.848 16.376 7.283-.302 13.953-.879 19.886-1.686l-.002-2.101c-.042-1.175-.258-1.711-1.392-2.282-1.167-.55-3.384-.868-7.04-.862-2.289 0-5.143.115-8.677.344l-.718.046.013-.718c.338-20.909 8.868-40.22 13.93-49.915-1.759-.364-2.38-.835-5.34-.942l-1.231-.046.716-1.001c.005-.009 4.222-5.917 9.517-12.115-1.096-1.156-2.1-1.872-2.937-2.784-.945-1.016-1.567-2.344-1.551-4.445v-.551l.542-.101c.018-.001 5.133-.96 9.249-.961h.647l1.64 77.247c11.804-2.202 19.672-5.574 22.119-9.014a5 5 0 0 0-.346-.114c-.839-.24-2.496-.507-5.571-.506-2.418 0-5.708.163-10.177.619l-.66.066-.065-.657a56 56 0 0 1-.278-5.684c.004-9.243 2.004-19.57 5.467-27.65 3.34-7.755 8.04-13.59 13.946-14.041v-2.692c-2.808 1.127-8.02 2.88-13.516 2.884a23 23 0 0 1-3.29-.227l-.727-.106.18-.712c.885-3.32 4.76-6.626 8.396-9.289a76 76 0 0 1 5.911-3.851c-1.814-.729-5.627-2.169-11.352-3.878l-.859-.256 2.755-4.131h18.503l-.294.872c.012.009-1.293 3.858-1.289 8.624v59.848h3.46v.663l-.466.472.466-.472v-.663h.269l.194.19c.029.037 2.063 2.004 3.029 4.586l.075.205-.063.214c-5.278 17.781-12.256 23.867-12.348 23.944l-.139.119-.183.031c-.024.005-17.339 2.974-38.76 2.976H215.77z"/><path fill="#E5A92E" d="M244.846 309.15c10.649 0 20.29-.739 27.263-1.478 6.115-.649 10.163-1.293 11.076-1.443.167-.158.497-.483.97-1.025.707-.81 1.715-2.082 2.888-3.904 2.326-3.615 5.307-9.399 7.897-18.057-.412-1.027-1.047-1.987-1.594-2.692a15 15 0 0 0-.857-1.014h-4.507v-61.174c.004-3.624.71-6.724 1.104-8.172H273.1l-1.367 2.053c7.791 2.367 11.861 4.177 11.884 4.188l1.225.542-1.176.645c-.007.005-3.385 1.854-6.951 4.438-3.25 2.325-6.61 5.343-7.65 7.821q1.154.118 2.313.116c5.858.003 11.558-2.141 13.917-3.161l.925-.401v5.991h-.664c-5.232-.048-10.014 5.355-13.391 13.266-3.381 7.875-5.36 18.076-5.358 27.128 0 1.676.066 3.313.206 4.89 4.167-.408 7.296-.559 9.648-.56 6.278.03 7.091.979 7.41 1.397l.187.326-.185.329c-2.616 4.483-11.151 7.937-24.142 10.351l-.766.14-1.642-77.499c-3.009.07-6.469.608-7.799.834.09 1.501.508 2.23 1.187 3 .769.854 1.983 1.692 3.339 3.224l.382.432-.377.438c-4.135 4.802-7.666 9.516-9.119 11.495 2.568.226 3.246.783 5.171 1.041l.938.13-.445.836c-4.89 9.191-13.666 28.528-14.184 49.404 3.223-.199 5.869-.301 8.042-.303 3.73.005 6.058.285 7.595.986 1.567.681 2.206 2.047 2.162 3.484v3.254l-.571.079c-6.216.868-13.231 1.483-20.917 1.791l-.328.013-.209-.251c-3.336-4.027-5.356-10.354-5.36-17.476.033-6.505 3.198-9.53 6.949-21.791 2.284-7.38 2.043-18.527 6.45-36.004-.011-1.097-.246-2.105-.483-2.84a10 10 0 0 0-.308-.833c-8.18-.001-12.321.009-14.649.342-1.948.302-2.552.688-3.513 1.603 6.913 3.355 8.19 5.749 8.284 5.932l.086.176-.022.194c-.021.25-.733 4.875-10.901 10.453 1.615.319 3.219.389 4.739.389 1.095 0 2.146-.037 3.128-.038 2.02.015 3.814.111 5.053 1.313l.562.561-.652.454c-14.831 10.331-25.596 19.081-25.616 38.401 0 3.164.292 6.616.911 10.41 2.626-.178 5.078-.353 7.259-.353 2.72.005 5.026.255 6.762 1.199 1.754.937 2.797 2.709 2.771 5.203 0 .792-.093 1.663-.282 2.63l-.104.533-.544.002c-.505.004-1.011.002-1.519.004a340 340 0 0 1-15.947-.389 13.3 13.3 0 0 0-.457 3.386c-.031 6.953 6.207 11.174 9.405 12.841.809.423 1.396.674 1.627.769z"/><path fill="#FFF200" d="m307.169 343.895-3.303 4.732h-15.688l-3.304-4.732h-14.862l-6.192 4.732h-27.64l-6.192-4.732h-14.862l-3.303 4.732h-15.688l-3.302-4.732h-5.61a66.3 66.3 0 0 0 12.42 21.524h14.336l3.117-2.922h14.023l5.842 2.922h26.079l5.844-2.922h14.023l3.116 2.922h14.336a66.3 66.3 0 0 0 12.419-21.524z"/><path fill="#2E2C70" d="M196.134 348.627h15.688l3.303-4.732h14.862l6.192 4.732h27.64l6.192-4.732h14.862l3.304 4.732h15.688l3.303-4.732h5.608a66.2 66.2 0 0 0 3.605-18.602h-5.986l-3.488 6.542h-16.574l-3.489-6.542h-15.702l-6.542 6.542h-29.2l-6.542-6.542h-15.702l-3.489 6.542h-16.574l-3.489-6.542h-5.986a66.3 66.3 0 0 0 3.604 18.602h5.61z"/><path fill="#FFF200" d="M193.093 331.835h16.574l3.489-6.542h15.702l6.542 6.542h29.201l6.542-6.542h15.702l3.489 6.542h16.574l3.488-6.542h5.986q.08-1.614.082-3.248v-7.081h-132.93v7.081q.002 1.634.082 3.248h5.986z"/><path fill="#2E2C70" d="M282.906 362.497h-14.023l-5.844 2.922H236.96l-5.842-2.922h-14.023l-3.117 2.922h-14.336c12.184 14.136 30.209 23.091 50.358 23.091s38.175-8.955 50.358-23.091h-14.336zM145.848 391.657l-32.928 37.069-25.412-22.572 5.57-6.271 17.927 15.923 7.794-8.773-15.475-13.746 5.57-6.271 15.475 13.746 13.993-15.753zM94.348 353.01l-4.213-8.628q5.3-1.543 9.805.078 4.507 1.624 7.948 6.438 5.448 7.62 3.084 14.841-1.924 5.74-8.006 10.087-7.264 5.192-14.091 4.336T77.898 373.5q-4.661-6.521-3.051-13.368 1.613-6.848 10.618-13.035l13.845 19.37q3.38-2.541 4.014-5.696c.634-3.155-.002-4.046-1.274-5.824q-1.297-1.816-3.174-2.346-1.875-.531-4.528.409m-8.129 5.144q-3.297 2.482-3.865 5.382-.567 2.9 1.124 5.267 1.81 2.532 4.833 2.864 3.024.334 6.168-1.955zM81.84 301.725l3.392 8.149-4.872 2.027q3.687.847 6.226 3.031 2.54 2.187 3.709 4.996 2.378 5.714-.532 11.706-2.909 5.991-11.152 9.421-8.43 3.51-14.469 1.369-6.035-2.138-8.559-8.197c-1.542-3.703-1.335-7.552.619-11.539l-16.487 6.861-3.651-8.775zm-7.551 30.617q5.309-2.209 7.07-4.664 2.552-3.552.965-7.361-1.259-3.03-4.72-4.081t-8.581 1.08q-5.715 2.378-7.37 5.485t-.317 6.323q1.3 3.122 4.658 4.196 3.36 1.075 8.295-.978M65.008 274.803l-.003-9.603q5.439.939 8.778 4.372t4.32 9.27q1.554 9.239-3.736 14.689-4.246 4.316-11.617 5.557-8.805 1.48-14.566-2.283-5.76-3.763-6.944-10.8-1.33-7.905 3.121-13.353t15.256-7.06l3.951 23.479q4.153-.8 6.104-3.358 1.955-2.56 1.41-5.794-.37-2.2-1.824-3.5-1.452-1.297-4.25-1.616m-9.562 1.06q-4.051.784-5.833 3.143-1.781 2.356-1.298 5.226.515 3.068 3.087 4.693 2.57 1.625 6.4.947zM74.971 246.013l-.179 9.502-35.911-.677.166-8.825 5.106.096q-3.575-2.333-4.691-4.164t-1.072-4.13q.063-3.246 1.91-6.223l8.23 3.098q-1.6 2.372-1.64 4.434-.037 1.996 1.035 3.402 1.073 1.408 3.932 2.256 2.86.849 12.023 1.021zM52.707 215.996l-3.283 8.125q-4.801-2.485-6.527-6.475-1.726-3.986-.297-10.839 1.298-6.225 3.406-8.964 2.109-2.738 4.635-3.508 2.527-.767 8.585.495l10.84 2.364q4.635.966 6.93.978 2.295.011 5.067-.688l-1.919 9.204q-1.002.173-2.935.321-.875.06-1.161.104 1.82 2.869 2.414 5.823.592 2.957-.049 6.036-1.132 5.43-4.731 7.945-3.598 2.514-8.102 1.575-2.98-.621-5.017-2.531t-2.744-4.735q-.708-2.824-.626-7.852.135-6.776-.4-9.515l-.926-.193q-2.683-.56-4.101.527t-2.184 4.761q-.518 2.482.169 4.078.685 1.592 2.956 2.964m10.144-10.875q.222 1.912.243 5.958t.566 5.404q.912 2.09 2.899 2.504 1.952.407 3.681-.753 1.727-1.16 2.196-3.411.524-2.516-.656-5.146-.904-1.95-2.616-2.86-1.117-.613-4.46-1.311zM73.703 190.033l2.591-9.293q2.78.585 4.854-.522 2.074-1.105 3.449-4.158 1.515-3.36 1.043-5.613-.348-1.53-1.798-2.183-.987-.445-1.912-.12-.909.37-2.447 2.385-7.035 9.444-10.211 11.387-4.402 2.691-9.12.566-4.255-1.915-5.64-6.583-1.385-4.667 1.796-11.728 3.028-6.722 6.689-9.006 3.662-2.282 8.503-1.585l-2.17 8.853q-2.147-.338-3.825.669-1.677 1.006-2.899 3.721-1.541 3.422-1.252 5.333.233 1.293 1.313 1.778.925.417 1.962-.155 1.391-.782 6.083-6.997 4.69-6.215 8.208-7.931 3.535-1.673 7.667.189 4.502 2.028 6.045 7.248t-1.776 12.591q-3.013 6.691-7.483 9.37-4.473 2.68-9.67 1.784M66.903 119.61l14.516 11.027q-1.5-6.914 2.367-12.005 1.983-2.613 4.55-3.977 2.564-1.363 4.882-1.282 2.315.083 4.444 1.083t5.978 3.926l16.779 12.746-5.749 7.568-15.109-11.478q-4.497-3.417-6.036-3.906a4.7 4.7 0 0 0-3.082.059q-1.542.548-2.791 2.191-1.432 1.885-1.641 4.063t1.113 4.264q1.323 2.089 4.933 4.83l14.327 10.884-5.749 7.567-39.481-29.992zM113.046 112.03q-3.008-3.657-4.019-8.562t.813-9.424q1.823-4.519 5.898-7.869 6.297-5.177 13.681-4.395 7.384.78 12.518 7.025 5.176 6.297 4.518 13.777t-6.825 12.549q-3.815 3.136-8.693 4.257-4.88 1.122-9.42-.728-4.541-1.848-8.471-6.63m7.846-5.793q3.393 4.127 7.157 4.711 3.763.584 6.637-1.779t3.016-6.157-3.293-7.975q-3.352-4.077-7.101-4.67-3.75-.595-6.625 1.768t-3.03 6.167q-.154 3.807 3.239 7.935M188.392 85.24l-8.549 4.151-8.007-16.489q-2.54-5.232-3.835-6.503-1.293-1.27-2.939-1.523-1.645-.253-3.38.588-2.22 1.078-3.395 3.153-1.173 2.073-.853 4.399t2.951 7.741l7.107 14.633-8.548 4.152-15.691-32.308 7.94-3.857 2.305 4.747q1.569-7.53 7.989-10.647 2.829-1.374 5.667-1.492 2.838-.12 4.807.88a10.5 10.5 0 0 1 3.417 2.777q1.447 1.78 3.265 5.521zM217.062 77.261l-4.719-49.356 33.834-3.236.799 8.35-23.87 2.283 1.117 11.682 20.604-1.97.798 8.35-20.604 1.969 2.005 20.975zM281.61 77.6l.734-5.327q-2.337 2.58-5.729 3.785c-3.392 1.205-4.565 1.044-6.911.72q-3.584-.495-6.214-2.462t-3.511-4.991q-.88-3.023-.188-8.049l3.105-22.515 9.414 1.298-2.254 16.35q-1.035 7.506-.749 9.268.285 1.765 1.522 2.942 1.236 1.179 3.35 1.469 2.41.333 4.503-.728c2.093-1.061 2.417-1.681 3.065-2.923q.975-1.863 2.028-9.502l2.07-15.009 9.414 1.298-4.907 35.581zM326.89 53.21l-2.424 7.176-6.153-2.077-4.632 13.714q-1.407 4.165-1.463 4.914t.417 1.408q.471.66 1.37.961 1.25.423 3.913.358l-1.59 7.245q-3.595.286-7.568-1.056-2.436-.824-4.113-2.3-1.68-1.478-2.154-3.084t-.08-3.936q.24-1.666 1.854-6.442l5.011-14.835-4.134-1.396 2.425-7.177 4.133 1.396 2.283-6.761 10.811-2.203-4.058 12.016zM321.414 89.24l24.339-43.196 8.28 4.666-8.766 15.558q6.287-2.202 11.532.753 5.716 3.22 7.125 9.468 1.41 6.249-2.956 13.998-4.516 8.016-10.771 10.196-6.257 2.182-11.708-.889-2.68-1.512-4.532-4.321-1.854-2.81-2.262-6.495l-2.59 4.597zm17.419-11.692q-2.739 4.862-2.518 8.053.29 4.512 3.857 6.52 2.738 1.545 5.988.289 3.25-1.255 6.089-6.293 3.022-5.363 2.413-8.831-.607-3.468-3.643-5.178-2.976-1.676-6.253-.475t-5.933 5.915M368.16 95.605q3.221-3.47 7.947-5.128 4.725-1.658 9.448-.457 4.723 1.202 8.588 4.792 5.973 5.546 6.188 12.97.213 7.422-5.287 13.345-5.547 5.971-13.049 6.321-7.502.347-13.35-5.083-3.618-3.36-5.383-8.046-1.764-4.685-.539-9.433 1.225-4.747 5.437-9.281m6.792 6.999q-3.638 3.916-3.712 7.724-.074 3.807 2.651 6.34t6.505 2.165 7.463-4.332q3.59-3.865 3.677-7.662.089-3.796-2.639-6.328-2.724-2.532-6.518-2.176-3.79.355-7.427 4.269m25.151-7.149-4.386-4.074.043-13.762 7.806 7.251zM387.098 141l39.579-29.863 5.723 7.586-39.578 29.863zM409.333 174.673l46.918-16.028 3.237 9.473-20.834 7.118 27.372 12.021 4.352 12.738-24.31-11.425-22.281 28.413-4.188-12.258 17.613-20.42-10.466-5.002-14.177 4.844zM441.675 217.276q4.72-.345 9.311 1.659 4.59 2.003 7.228 6.1 2.64 4.097 3.025 9.358.595 8.129-4.303 13.71-4.901 5.581-12.96 6.17-8.13.595-13.86-4.259c-5.73-4.854-5.924-7.506-6.313-12.813q-.36-4.925 1.539-9.557 1.899-4.631 6.029-7.275 4.129-2.64 10.304-3.093m.204 9.752q-5.33.39-7.978 3.126-2.649 2.737-2.377 6.449.272 3.71 3.288 6.015 3.018 2.305 8.415 1.911 5.263-.386 7.911-3.106 2.65-2.72 2.378-6.43t-3.29-6.034q-3.017-2.32-8.347-1.931m23.286 11.894-.437-5.971 9.403-10.048.777 10.626zM423.71 272.024l1.147-9.435 35.654 4.336-1.064 8.764-5.069-.618q3.318 2.687 4.241 4.621.921 1.935.646 4.219-.392 3.223-2.534 5.995l-7.871-3.921q1.835-2.197 2.083-4.244.242-1.982-.683-3.491-.924-1.509-3.681-2.645t-11.857-2.242zM431.929 289.733l-1.524 9.527q-2.827-.266-4.764 1.065-1.934 1.334-2.957 4.522-1.125 3.51-.404 5.694.52 1.48 2.034 1.967 1.031.33 1.914-.098.86-.471 2.161-2.646 5.924-10.177 8.859-12.469 4.07-3.171 8.998-1.593 4.443 1.425 6.349 5.905 1.901 4.478-.46 11.855-2.25 7.021-5.629 9.703-3.382 2.681-8.271 2.536l1.156-9.041q2.17.091 3.726-1.098 1.552-1.189 2.46-4.023 1.146-3.575.643-5.441-.378-1.258-1.507-1.618-.966-.31-1.931.376-1.295.934-5.253 7.64-3.959 6.703-7.261 8.807-3.323 2.062-7.639.679-4.703-1.506-6.825-6.52-2.125-5.011.341-12.71 2.24-6.989 6.379-10.156 4.139-3.165 9.405-2.863M425.87 332.974q4.07 2.418 6.688 6.689 2.615 4.269 2.438 9.139t-2.874 9.406q-4.163 7.006-11.375 8.78-7.21 1.773-14.159-2.355-7.008-4.163-8.93-11.423c-1.922-7.26-.563-9.546 2.156-14.12q2.522-4.246 6.729-6.958 4.21-2.712 9.107-2.516 4.899.197 10.22 3.358m-5.412 8.114q-4.594-2.727-8.331-2-3.738.73-5.638 3.929-1.901 3.197-.746 6.815c1.155 3.618 2.706 4.538 5.808 6.382q4.535 2.694 8.264 1.98 3.73-.717 5.631-3.913 1.9-3.199.754-6.831-1.147-3.632-5.742-6.362M370.399 377.316l3.856 3.747q-.696-3.41.343-6.857a14.5 14.5 0 0 1 3.514-5.993q2.523-2.596 5.665-3.55 3.143-.955 6.102.128 2.957 1.082 6.595 4.617l16.301 15.836-6.621 6.817-11.839-11.502q-5.434-5.28-7.023-6.094-1.591-.814-3.271-.514-1.683.298-3.167 1.827-1.697 1.746-2.082 4.06t.539 4.201q.923 1.89 6.454 7.262l10.868 10.559-6.623 6.816-25.762-25.029z"/><path fill="#4EB857" d="M380.28 293.048c-5.896 33.109-19.955 43.667-34.015 54.879 8.165-39.458 18.595-39.458 34.015-54.879M360.778 299.072c-2.469-44.726 10.886-69.165 14.967-90.836 15.421 42.421 10.886 67.781-14.967 90.836M361.184 220.631c4.273-29.449-3.801-50.349-27.075-73.623-.001 43.223 12.108 69.348 27.075 73.623M356.696 278.265c-10.885-6.047-26.305-35.823-20.862-61.411 15.873 19.54 23.575 27.914 20.862 61.411M119.72 293.048c5.896 33.109 19.956 43.667 34.015 54.879-8.164-39.458-18.596-39.458-34.015-54.879M139.221 299.072c2.469-44.726-10.885-69.165-14.966-90.836-15.421 42.421-10.886 67.781 14.966 90.836M138.817 220.631c-4.274-29.449 3.8-50.349 27.075-73.623 0 43.223-12.109 69.348-27.075 73.623M143.304 278.265c10.884-6.047 26.305-35.823 20.862-61.411-15.874 19.54-23.576 27.914-20.862 61.411"/><circle cx="333.304" cy="321.781" r="5.863" fill="#FFF"/><circle cx="333.303" cy="321.781" r="3.655" fill="#ED1C24"/><circle cx="341.783" cy="294.925" r="5.863" fill="#FFF"/><circle cx="341.784" cy="294.925" r="3.655" fill="#ED1C24"/><circle cx="325.883" cy="198.339" r="5.863" fill="#FFF"/><circle cx="325.882" cy="198.339" r="3.655" fill="#ED1C24"/><circle cx="322.643" cy="173.31" r="5.863" fill="#FFF"/><circle cx="322.643" cy="173.31" r="3.655" fill="#ED1C24"/><circle cx="166.697" cy="321.781" r="5.863" fill="#FFF"/><circle cx="166.697" cy="321.781" r="3.655" fill="#ED1C24"/><circle cx="158.216" cy="294.925" r="5.863" fill="#FFF"/><circle cx="158.216" cy="294.925" r="3.655" fill="#ED1C24"/><circle cx="174.118" cy="198.339" r="5.863" fill="#FFF"/><circle cx="174.118" cy="198.339" r="3.655" fill="#ED1C24"/><circle cx="177.357" cy="173.31" r="5.863" fill="#FFF"/><circle cx="177.357" cy="173.31" r="3.655" fill="#ED1C24"/></svg>