<svg xmlns="http://www.w3.org/2000/svg" viewBox="0 0 73.45 90.18"><defs><clipPath id="a"><path d="M0 181.02V0h147.43v181.02z"/></clipPath></defs><g clip-path="url(#a)" transform="translate(0 -.001)scale(.49818)"><path fill="#fff" d="M144.1 16.544a281 281 0 0 0-5.495-.95c-.398-3.515-.89-7.013-1.477-10.483-37.247-6.615-90.067-7.01-126.82 0a194 194 0 0 0-1.468 10.42 234 234 0 0 0-5.504 1.013c-9.267 57.109-3.193 118.23 70.381 164.47 73.576-46.243 79.65-107.36 70.382-164.47"/></g><g clip-path="url(#a)" transform="translate(0 -.001)scale(.49818)"><path fill="#e92b1e" d="M136.95 23.486c-37.133-6.842-89.793-7.25-126.43 0-8.396 51.614 1.482 108.91 63.217 147.74 61.736-38.83 71.613-96.13 63.217-147.74"/></g><g clip-path="url(#a)" transform="translate(0 -.001)scale(.49818)"><path fill="#96172e" d="m73.737 174.72-1.575-.991c-29.042-18.267-48.933-42.016-59.118-70.588-8.42-23.616-10.25-50.578-5.442-80.134l.33-2.028 2.015-.399c36.223-7.166 88.67-7.169 127.54-.008l2.048.378.335 2.057c4.809 29.556 2.977 56.518-5.443 80.136-10.184 28.57-30.075 52.319-59.12 70.586zM13.12 25.99c-4.239 27.76-2.39 53.034 5.497 75.161 9.544 26.775 28.084 49.16 55.121 66.566 27.038-17.405 45.578-39.791 55.123-66.566 7.885-22.118 9.733-47.388 5.5-75.134-36.728-6.43-86.9-6.44-121.24-.027"/></g><g clip-path="url(#a)" transform="translate(0 -.001)scale(.49818)"><path fill="#00267a" d="M133.55 15.493a166 166 0 0 0-1.022-6.518c-34.54-5.842-83.525-6.19-117.61 0q-.57 3.217-1.014 6.463c35.469-6.16 83.767-5.82 119.64.055"/></g><g clip-path="url(#a)" transform="translate(0 -.001)scale(.49818)"><path fill="#96172e" d="M122.4 53.8c-1.169-2.922-2.126-8.712 3.742-8.522-.91-3.646-5.888-3.776-7.142-.67-3.401-4.568-9.617-7.884-12.78-7.127.068 2.161 1.184 4.473 4.155 6.475-3.23.254-5.124 2.166-4.299 5.567 7.252-4.117 14.73 4.331 13.348 12.513-.627 3.716-.58 7.785-2.409 11.206.111-5.21-6.944-5.882-7.153-1.005 2.11-1.7 4.771.056 3.4 3.611-1.25 1.89-1.335 5.27-2.657 7.092-2.455-3.356-5.847-8.845-7.438-12.51-2.616-6.03 3.626-7.12 4.888-4.038 1.846-4.489-2.928-7.365-5.737-6.27 2.828-3.586 7.982-2.656 9.35.532 2.218-6.322-4.515-8.226-8.912-5.26 3.453-6.668.444-8.195.444-8.195-2.552 1.667-5.894 9.572-5.894 15.288 0 5.57 2.352 10.747 5.304 15.55-3.035-2.196-7.107-2.14-9.713-.304 0 0 .96 3.216 7.933 3.216-1.677 1.473-1.59 4.56 1.488 6.482-.413-4.09 3.24-6.096 5.657-3.838.127.18.104 2.533.229 2.713-3.027 4.372-6.033 8.045-6.033 12.335 0 3.682 1.352 7.5 3.484 9.97-.074.003.402.105.328.105-4.736 0-8.515-4.416-9.432-9.881-7.055-5-11.884-11.363-9.234-22.04 2.686-1.111 4.073-4.115 3.222-6.903 2.426-1.763 3.151-5.103 1.671-7.737a6.02 6.02 0 0 0-.033-7.955c1.364-2.578.62-5.836-1.818-7.525-.038-.026-.078-.047-.116-.071a5.54 5.54 0 0 0-1.412-5.134c.876-1.942 1.121-3.98 1.121-3.98s-2.026-.709-3.843-.927l3.307-5.543c.035.011-6.515-1.751-4.193 3.07-.143-.037-13.045.772-13.045.772-3.931.392-11.643 6.27-11.643 6.27.438 3.94 1.414 6.563 2.042 8.024-1.41.388-2.771.63-4.181.777-2.818.292-4.502-2.093-4.717-3.5-2.624 2.43-1.342 11.352 9.625 7.42.85 1.723.627 3.9.627 3.9s.181.077.305.108c6.2-4.187 8.47-.764 7.676.97-4.634 1.329-7.385 4.354-9.852 6.321-9.327-4.359-15.06-8.763-18.304-12.07-2.497-4.302 3.145-10.248 3.145-10.248a2.3 2.3 0 0 0-.46-.426c.358-3.23-2.684-4.336-4.734-3.44v.05c.599.1 1.829.634 1.73 2.233-2.174-.113-4.257 1.256-4.212 4.64-.625-1.757-3.94-4.131-4.633-5.957a3.3 3.3 0 0 0-.889-.066c-.759-1.926-4.212-1.793-5.036.492l.032.037c.55-.323 1.881-.17 1.908.972-.956 2.895.649 5.477 4.357 7.332-1.56-.482-3.385-.172-4.501-.318-.388.354-.547.988-.786 1.406-2.975 0-4.356 2.418-3.241 4.676l.05.001c.177-.719.72-1.516 1.81-1.303 1.143 1.54 3.081 2.418 7.145 1.86-1.07.914-1.285 3.525-1.248 4.383.066 1.519-.558 2.948-2.55 2.524l-.04.03c.963 3.021 5.007 3.476 6.735 1.112l1.22-.345s.266-2.046.532-3.48c1.026 1.671 3.322 6.085 3.958 6.933-1.245.244-2.1.793-2.487 1.035-.052 1.175 1.002 2.924 3.656 3.214-1.755 1.363-.937 4.057-.183 5.138 1.393-.313 3.307-1.862 5.284-2.8.895 1.017 2.646 3.275 3.442 4.081-3.27 2.453-6.795 4.919-9.39 6.269-2.626 1.06-3.751-3.976-4.26-6.797 0 0-5.864.645-3.41 6.034l-.136.174c-2.415-1.6-5.555-4.837-5.555-4.837-5.17-.368-6.23 3.036-5.45 4.773l.05.01c.222-.549 1.026-1.205 1.784-1.246.04 2.152 1.726 3.96 6.375 3.985l.64 1.189c-1.713.198-4.138.587-5.281.96-.2.401-.268.179-.351.582q-.093.043-.188.097c-2.986 1.728-3.123 6.37-.464 7.656l.042-.028c-.29-.73.118-3.03 1.28-3.755 1.294 1.349 4.8 1.905 8.147-1.8l.98-.005-1.02 6.14c.638 1.395-1.047 2.647-1.674 2.518l-.019.045c1.535 1.98 5.028 1.405 6.24-.732 1.42-.612 1.989-1.989 1.989-1.989s.438-1.328.384-6.057c0 0 4.091-.584 6.216-.451-.212.957-.106 1.86-.106 1.86 1.395.69 3.4.53 5.02-.878 0 0 .532 1.276 1.196 2.364 1.887-.291 4.701-2.257 5.209-4.686 3.198 3.327 7.531 5.762 10.99 7.995-7.532-.514-20.58 2.302-20.58 2.302s.916 2.698 4.416 1.829c-.288 4.222 4.043 12.289 5.264 14.582-8.287-.849-9.456-9.032-9.456-9.032-4.968-1.115-10.307 2.604-3.833 8.605-2.894-1.345-4.63-2.806-5.308-3.174a5 5 0 0 0-.814.485c-3.017-.951-5.492 1.31-4.895 4.219l.049.01c.198-.525 1.186-1.007 2.05-.793.77 1.992 2.484 3.302 7 3.236l.406.711c-2.004.8-3.714 1.727-4.85 2.736-.101.589.332 1.192.42 1.697-2.03 2.187-.984 5.58 1.322 6.348l.037-.032c-.31-.764-.377-2.37 1.217-2.902 2.975.159 5.352-2.125 6.636-4.345-.738 2.884-.473 6.496 2.489 7.758.613.632-.135 2.083-.637 2.484 2.163.771 4.68-1.342 4.672-3.761.705-.557 1.118-1.127 1.118-1.127-1.422-2.44-2.555-5.014-2.643-6.043-.08-1.196 2.07-2.206 5.778-2.869 2.904 2.917 6.772 2.424 7.462 2.157.175-1.055-.732-2.932-2.255-3.557 1.771-1.01 2.482-3.453 2.085-4.338-.59.02-2.152.438-2.949.877-.477-6.415.115-6.462 8.666-4.465-2.214 5.105-3.618 6.98-3.193 9.525-.087 4.557.106 7.153.106 7.153 1.853.597 3.56-.619 3.771-1.84 2.445 1.7 6.01 3.64 11.492 5.135-.58.73-4.83 6.148-9.692 5.63-2.27-.518-4.494-4.413-4.494-4.413a4 4 0 0 0-.905.013c-2.655-1.321-5.227.422-5.303 2.476l.043.024c.288-.347.158 1.146 1.21 1.389-.636 1.249.638.977 2.43 2.292-1.633-.162-3.216-.405-4.78-.521-.371.215-.894.683-1.157.991-3.901-.111-5.227 3.515-3.922 5.737l.058.001c.153-.77 1.048-1.965 2.376-2.071 1.54 1.912 5.126 3.93 11.485.174l.387.22c-1.59 1.458-3.146 3.232-3.942 4.935.068.612.217 1.165.432 1.65-1.365 2.97 1.09 5.878 3.934 5.472l.021-.043c-.296-.23-.601-.94-.495-1.53.357-2.006 3.81-1.209 5.502-7.29.181-.657.531-1.024.953.343.425 1.382 1.397 1.796 2.304 2.103 1.721.585.954 1.76-.114 2.284l.013.049c2.536 1.083 4.767-1.65 4.558-3.933.646-.766.829-2.33.829-2.33-2.244-2.297-2.165-4.09-2.165-4.09s1.927-4.487 6.124-8.55c4.92.707 9.146-1.458 9.861-3.544-1.02-1.316-3.08-2.17-5.26-1.86 3.4-2.868 2.408-6.937.904-7.755-2.562.283-5.801 4.11-6.29 7.34l-7.42-6.543c3.85-2.322 7.573-5.752 9.764-10.135 9.803 6.774 22.129 1.474 22.129-12.34 0-2.709-1.616-6.167-4.447-10.374 4.74-6.79 10.729-16.416 10.729-25.102 0-2.152-.536-4.795-1.301-6.707m-8.9 45.039c0 3.328-.656 6.61-2.878 8.304-2.226-1.693-3.537-5.44-3.537-8.662 0-2.769 1.08-6.011 3.387-9.245 2.391 3.148 3.028 6.478 3.028 9.603"/></g><g clip-path="url(#a)" transform="translate(0 -.001)scale(.49818)"><path fill="#fff" d="M62.469 48.627c.103-.335.528-1.663 1.145-2.907 2.506-.599 5.736-1.61 5.736-1.61 1.438.81 2.675 3.129 2.482 4.081-1.618-.139-5.159-.021-9.363.436m7.085-9.686c-.932-.893-1.853-1.082-1.853-1.082.291-.57.777-.958.777-.958s1.635-.352 5.264.695zm52.109 11.53c-1.37-3.227-1.826-8.938 3.524-8.838-1.35-2.95-6.588-2.594-7.895.318-2.343-4.69-6.139-7.31-9.39-7.282-.096 1.555.568 4.462 2.596 7.242-3.543.025-6.368 2.373-5.542 5.775 7.804-4.658 14.184 3.419 14.184 11.156 0 3.769-1.25 7.334-3.079 10.755.11-5.211-6.982-5.227-7.192-.352 2.809-1.263 6.07.931 4.7 4.487-1.249 1.89-2.596 3.74-3.918 5.563-2.455-3.357-5.017-6.781-6.922-10.292-3.007-5.995 1.695-8.06 4.576-5.633 1.092-4.265-2.654-6.139-5.465-5.043 2.951-3.497 8.437-3.926 10.994-1.427.287-5.5-6.293-7.753-10.69-4.788 1.965-3.575-.218-5.516-.218-5.516-2.554 1.666-5.575 6.529-5.575 12.246 0 5.57 2.354 10.746 5.305 15.55-3.036-2.198-7.107-2.14-9.714-.304 0 0 1.024 3.295 7.648 3.616-1.677 1.474-1.785 4.6 1.29 6.521.324-2.954 3.634-4.661 5.995-2.103l.375.539c-3.028 4.37-5.443 8.62-5.443 12.91 0 3.681 1.313 7.021 3.444 9.494q-.11.003-.223.005c-4.735 0-8.515-4.417-9.43-9.882-7.056-5-11.808-11.826-9.239-22.045a5.41 5.41 0 0 0 3.127-6.608 5.665 5.665 0 0 0 1.62-7.405 5.706 5.706 0 0 0-.031-7.613 5.554 5.554 0 0 0-1.764-7.203c-.037-.026-.075-.045-.112-.07a5.26 5.26 0 0 0-1.37-4.914c.514-1.613.667-3.17.667-3.17s-1.39-.683-3.143-1.028l2.847-6.485s-2.917-.786-3.221 1.645a2.5 2.5 0 0 0-.45-.074c-1.119-.078-2.078.587-2.139 1.486-.03.422.146.819.455 1.13.408-.053.896.06 1.085.343-.364.469-1.927.826-3.317.538-.85-.168-1.562-.61-1.959-1.053.3-.263.907-.202 1.279.007.738-.216 1.285-.79 1.333-1.5.066-.953-.788-1.788-1.908-1.866a2.4 2.4 0 0 0-.608.036c.985-2.556-1.513-3.38-1.513-3.38s-2.59.473-1.965 3.14a2.3 2.3 0 0 0-.597-.119c-1.12-.078-2.08.632-2.147 1.585-.049.71.414 1.354 1.115 1.668.397-.154 1.007-.131 1.267.171-.455.382-1.22.723-2.085.772-1.416.094-2.915-.474-3.213-.989.227-.254.725-.299 1.124-.19.348-.266.577-.635.606-1.058.062-.898-.795-1.688-1.915-1.765a2.5 2.5 0 0 0-.456.01c.034-2.448-2.963-2.071-2.963-2.071l2.239 7.916c-.805.46-1.919 1.16-2.78 1.946l-7.079 3.643c.004.293.228 1.494 1.022 1.645-.188 1.467.087 3.212 1.397 3.844.418 1.189 1.092 2.215 1.446 2.544-1.43.158-2.931.356-4.459.597-2.797.441-5.182-.433-6.152-2.71-1.228 2.57.097 10.287 10.536 5.052.85 1.723.625 3.899.625 3.899s.183.078.307.107c6.2-4.185 9.506-1.064 8.714.67-4.635 1.33-8.252 3.273-10.718 5.24-9.328-4.358-14.662-8-17.906-11.306-2.097-3.22.962-6.81 2.746-11.011a2.3 2.3 0 0 0-.46-.427c.36-3.229-2.684-4.335-4.734-3.438v.05c.599.1 1.829.632 1.73 2.232-2.173-.115-4.258 1.256-4.212 4.639-.626-1.758-1.096-3.51-1.788-5.336a3.3 3.3 0 0 0-.887-.067c-2.095-2.463-5.557-1.167-5.988.67l.032.04c.55-.325 2.243-.44 3.085.796-1.464 1.72-1.546 5.224 1.777 7.552-1.558-.481-3.877-1.018-4.992-1.163-.39.355-.7.75-.939 1.167-2.84.235-4.375 2.709-3.094 5.049l.048.002c.178-.72 1.415-1.902 2.66-1.898.616 1.919 2.32 3.368 6.969 3.11-1.07.916-2.026 2.03-2.378 2.811-.507 1.123-.625 2.45-.014 3.47-.894.14-1.86-.102-2.252-.453l-.04.03c-.057 2.882 3.622 4.048 6.33 1.978L36.8 60c.753-.098 1.221-.345 1.221-.345.28-.61.873-2.21 1.395-3.668 1.024 1.672 4.226 6.225 4.863 7.072-1.246.244-2.1.793-2.488 1.035.044 1.593 1.085 3.163 3.739 3.453-1.755 1.364-1.695 4.052-.942 5.134 1.394-.313 3.691-1.291 5.668-2.228a68 68 0 0 0 2.548 2.748c-3.27 2.452-6.794 4.92-9.39 6.268-3.292 1.331-3.335-6.951-3.655-8.408a3.4 3.4 0 0 0-.791-.128c-1.593-2.128-4.75-1.926-5.716.48l.03.038c.57-.273 1.85-.402 2.656.452-1.8 1.33-2.779 3.933-.193 6.804l-.136.175c-2.414-1.6-5.553-4.837-5.553-4.837-.27.108-.52.25-.753.415-3.287-.458-4.992 2.444-4.213 4.18l.048.01c.223-.548 1.141-1.58 2.423-1.37-.429 2.389 1.114 5.248 5.764 5.272l.13.202c-1.715.198-4.14.588-5.282.962-.2.4-.338.807-.423 1.21q-.09.044-.186.1c-2.986 1.726-3.054 5.737-.394 7.023l.041-.026c-.29-.732.12-3.03 1.281-3.755 1.472 1.778 4.78 2.085 9.07-1.823l.057.018c-1.307 3.13-1.941 5.32-1.941 5.32.136 1.043.675 2.04 1.567 2.675-.663.83-1.906 1.238-2.533 1.109l-.019.044c1.535 1.981 5.03 1.405 6.239-.731 1.423-.612 1.99-1.989 1.99-1.989s.195-2.649.033-5.38c0 0 1.103-.273 7.305-1.242-.187.628-.356 1.82-.33 2.233 1.126.673 2.961.655 4.59-1.045.156.733.385 1.452.68 2.128 3.2-.473 5.19-2.2 5.854-4.988 3.198 3.327 7.531 5.76 10.988 7.995-7.53-.516-20.349 3.703-20.349 3.703s.917 2.7 4.417 1.829c-.722 3.553 2.59 11.052 3.81 13.346-8.859 2.008-8.684-8.604-8.684-8.604a4.4 4.4 0 0 0-1.862.087c-2.102-1.519-4.765-.32-5.411 1.572l.035.033c.455-.356 1.785-.806 2.921.156-1.084 1.62-1.103 4.013.935 6.162-2.894-1.345-4.63-2.806-5.308-3.172a5 5 0 0 0-.813.484c-3.186-.464-5.22 2.225-4.44 4.254l.049.01c.198-.525 1.466-1.3 2.663-1.235-.127 2.176 1.767 4.358 6.283 4.291l.054.063c-2.003.8-3.713 1.727-4.85 2.736a4.8 4.8 0 0 0-.01 1.647c-2.029 2.188-1.015 5.644 1.751 6.398l.039-.032c-.391-.705-.704-2.876.392-3.639 3.336 1.324 6.083-1.599 7.46-3.608-.325 1.84-.275 3.544-.048 4.455.422 1.684 1.58 2.949 2.916 3.1.07 1.074-1.043 2.01-1.702 2.258l.006.047c2.271 1.242 5.003-.761 4.994-3.352a6.4 6.4 0 0 0 1.12-1.126c-1.424-2.438-1.806-4.278-1.893-5.307.584-1.525 2.307-2.424 6.016-3.086 2.904 2.917 6.14 1.877 6.831 1.611.174-1.055-.262-2.212-1.785-2.836 1.771-1.01 2.483-3.454 2.084-4.339-.59.02-2.15.169-3.483 1.016-.951-6.787.179-7.322 8.73-5.325-2.212 5.106-3.334 8.521-2.908 11.067-.087 4.557.15 7.44.15 7.44 2.55.907 3.828-1.441 3.145-3.11 2.548 1.575 6.309 3.081 11.79 4.575-.58.73-4.831 6.15-9.692 5.631-2.27-.518-4.496-4.412-4.496-4.412a4 4 0 0 0-.903.013c-2.655-1.322-5.228.422-5.302 2.475l.042.025c.287-.348 1.213-.733 2.263-.489-.635 1.25-.415 2.853 1.377 4.17-1.634-.162-3.217-.405-4.78-.522a3.7 3.7 0 0 0-.953.793c-3.9-.111-5.431 3.714-4.127 5.935l.057.002c.155-.771 1.439-2.69 3.336-2.173.813 2.41 4.167 4.03 10.527.274l.386.222c-1.59 1.456-3.146 3.23-3.942 4.935.068.612.217 1.164.432 1.65-1.364 2.969 1.09 5.878 3.935 5.472l.022-.045c-.566-.434-1.423-1.753-1.099-3.134h.001c2.464.309 4.353-1.963 6.789-7.67.26 1.445.619 2.68.619 2.68.498 1.09 1.884 1.963 3.327 1.989-.146.97-.946 1.779-1.49 2.046l.014.05c2.536 1.082 4.769-1.65 4.558-3.933.647-.766.83-2.33.83-2.33-2.245-2.298-2.165-4.092-2.165-4.092s2.018-4.117 6.216-8.181c4.468.894 9.464-.926 10.18-3.012-1.02-1.316-3.288-1.958-5.468-1.647 2.908-2.655 1.906-7.21.402-8.028-2.562.283-5.502 3.27-5.991 6.5l-7.422-6.544c3.852-2.32 8.12-5.86 10.243-10.264 2.512 2.836 6.109 4.804 10.215 4.804 6.899 0 12.49-6.17 12.49-13.78 0-4.187-2.361-8.431-5.364-12.777 5.026-7.018 11.316-14.976 11.316-23.953 0-3.832-1.003-6.474-1.807-8.371m-8.37 45.1c0 3.329-1.403 6.233-3.627 7.928-2.226-1.694-3.634-4.596-3.634-7.927 0-2.861 1.53-5.938 3.682-9.24 2.092 3.3 3.58 6.379 3.58 9.24"/></g><g clip-path="url(#a)" transform="translate(0 -.001)scale(.49818)"><path fill="#c9c9c9" d="M76.302 41.731s-1.008.355-2.114.768c0 0 2.642 2.14 6.606 5.847-.925-2.073-3.468-5.74-4.492-6.615"/></g><g clip-path="url(#a)" transform="translate(0 -.001)scale(.49818)"><path fill="#c9c9c9" d="M59.41 42.263c.865.164 2.951-1.226 3.197-1.432l-.05-.107c-.497.156-3.54.843-4.169-.106.004.293.228 1.494 1.022 1.645"/></g><g clip-path="url(#a)" transform="translate(0 -.001)scale(.49818)"><path fill="#c9c9c9" d="m117.29 41.95-.007-.016q.485.968.878 2.05c1.187-3.756 5.46-4.262 6.897-2.596-1.521-2.683-6.498-2.267-7.768.562"/></g><g clip-path="url(#a)" transform="translate(0 -.001)scale(.49818)"><path fill="#c9c9c9" d="M100.05 59.655a4.2 4.2 0 0 1 1.793-1.33c2.951-3.495 8.436-3.925 10.993-1.425-1.564-5.466-11.353-5.363-12.786 2.755"/></g><g clip-path="url(#a)" transform="translate(0 -.001)scale(.49818)"><path fill="#c9c9c9" d="M102.14 52.114v-.002c1.882-3.423-.037-5.346-.205-5.504l-.012-.012c-1.137 1.409-3.287 5.553-3.201 10.603.62-2.384 1.886-4.052 3.418-5.086"/></g><g clip-path="url(#a)" transform="translate(0 -.001)scale(.49818)"><path fill="#c9c9c9" d="M107.3 63.37c-1.069-4.189-7.98-3.647-5.824 2.845.56 1.608 1.09 2.491 1.23 2.75-2.967-5.966 1.719-8.017 4.594-5.595"/></g><g clip-path="url(#a)" transform="translate(0 -.001)scale(.49818)"><path fill="#c9c9c9" d="M100.88 84.224c.324-2.954 3.634-4.662 5.995-2.103l-1.174-1.675c-2.517-3.28-7.063.013-4.82 3.778"/></g><g clip-path="url(#a)" transform="translate(0 -.001)scale(.49818)"><path fill="#c9c9c9" d="M99.59 77.704c.766-.674 1.864-.999 3.136-.704-2.926-1.89-6.758-3.22-10.784-2.913 0 0 1.024 3.297 7.648 3.617"/></g><g clip-path="url(#a)" transform="translate(0 -.001)scale(.49818)"><path fill="#c9c9c9" d="M114.05 72.998c2.662-4.626-3.048-7.414-5.18-3.754 2.809-1.262 6.072.932 4.7 4.488q.243-.367.48-.734"/></g><g clip-path="url(#a)" transform="translate(0 -.001)scale(.49818)"><path fill="#c9c9c9" d="M104.96 47.686c7.803-4.658 14.184 3.419 14.184 11.156 0 3.673-1.188 7.152-2.94 10.492 11.564-19.988-5.696-30.546-11.244-21.648"/></g><g clip-path="url(#a)" transform="translate(0 -.001)scale(.49818)"><path fill="#c9c9c9" d="M112.15 82.796c2.436-3.402 5.169-7.026 7.339-10.879-2.41 3.32-5.476 6.566-8.18 9.675q.428.603.841 1.204"/></g><g clip-path="url(#a)" transform="translate(0 -.001)scale(.49818)"><path fill="#c9c9c9" d="M108.32 84.269c-3.044 3.84-6.09 8.04-6.09 12.937 0 1.172.11 2.164.316 3.045a14.1 14.1 0 0 0 2.703 4.81 7.6 7.6 0 0 0 4.416-1.565c-2.226-1.693-3.633-4.596-3.633-7.924 0-2.861 1.528-5.938 3.68-9.24a67 67 0 0 0-1.392-2.063"/></g><g clip-path="url(#a)" transform="translate(0 -.001)scale(.49818)"><path fill="#c9c9c9" d="M107.2 107.9c-5.341 0-9.67-4.088-11.047-8.612-.063 1.86-.555 3.62-1.344 5.26 2.512 2.836 6.109 4.805 10.215 4.805 3.8 0 7.2-1.873 9.49-4.825-1.864 2.08-4.452 3.372-7.314 3.372"/></g><g clip-path="url(#a)" transform="translate(0 -.001)scale(.49818)"><path fill="#c9c9c9" d="M75.295 121.59c-1.95-1.205-2.998-2.557-3.295-4.33-.087 4.558.15 7.441.15 7.441 2.551.907 3.829-1.442 3.145-3.11"/></g><g clip-path="url(#a)" transform="translate(0 -.001)scale(.49818)"><path fill="#c9c9c9" d="M114.21 42.722c-2.178-1.94-3.962-4.358-6.309-8.053-.095 1.554.569 4.46 2.596 7.241a8.8 8.8 0 0 1 3.712.812"/></g><g clip-path="url(#a)" transform="translate(0 -.001)scale(.49818)"><path fill="#c9c9c9" d="M81.818 39.485s2.696-1.245 5.277-2.676c-1.632-.382-6.07-.272-5.277 2.676"/></g><g clip-path="url(#a)" transform="translate(0 -.001)scale(.49818)"><path fill="#c9c9c9" d="M82.214 42.182c1.288.624 3.22.55 4.476-.12 1.972 3.159.215 8.654.215 8.654s.932-1.537 1.658-3.558c1.668 1.715 1.12 6.133-2.352 9.999 1.343-.908 2.418-1.868 3.257-2.843 1.323 4.003-2.575 7.758-6.923 8.623a13.2 13.2 0 0 0 5.762-1.53c.397 4.36-5.188 6.983-11.68 6.729 3.499.685 6.534.671 8.958.131-.1 4.58-9.2 5.738-18.93 3 6.22 2.758 11.538 3.61 15.509 3.182-.082 2.743-3.94 3.807-5.945 3.583-.768 5.335 15.31 14.799 19.377 17.158-7.055-5.002-11.806-11.828-9.237-22.047a5.41 5.41 0 0 0 3.127-6.608 5.665 5.665 0 0 0 1.62-7.405 5.706 5.706 0 0 0-.031-7.613 5.554 5.554 0 0 0-1.764-7.203c-.037-.026-.075-.045-.112-.07a5.26 5.26 0 0 0-1.37-4.914c.514-1.613.667-3.17.667-3.17s-1.831 5.786-6.282 6.022"/></g><g clip-path="url(#a)" transform="translate(0 -.001)scale(.49818)"><path fill="#c9c9c9" d="M62.176 51.589s-.061-1.4.187-2.742c0 0 .079-.029.156-.031 0 0 .982.977 2.35 1.517 3.026-1.208 5.565-1.58 6.568-1.732.224-.034.349-.184.395-.41h-.002c-1.618-.14-5.158-.023-9.361.436.102-.332.527-1.662 1.145-2.907-1.361.326-2.508.531-2.808.386.419 1.19 1.093 2.214 1.446 2.544-1.428.158-2.93.356-4.458.598-4.73.707-6.549.434-6.466-1.638-.485 3.114 1.62 8.607 10.848 3.979"/></g><g clip-path="url(#a)" transform="translate(0 -.001)scale(.49818)"><path fill="#c9c9c9" d="M75.532 45.643c.682 1.594.94 3.67-1.013 4.635 1.954 1.417.582 3.267.582 3.267-.705-.917-3.596-2.875-10.773 1.3l.08-.042c5.357-2.944 8.15-.145 7.415 1.463 4.72-1.62 10.986-3.763 3.709-10.623"/></g><g clip-path="url(#a)" transform="translate(0 -.001)scale(.49818)"><path fill="#c9c9c9" d="M29.893 86.653c0 .991-.712 1.335-1.09 1.461a1.5 1.5 0 0 0-.31.155c1.472 1.778 4.781 2.084 9.068-1.824l.058.018s.44-1.07.695-1.55c-2.537 1.476-6.463 2.65-8.42 1.74"/></g><g clip-path="url(#a)" transform="translate(0 -.001)scale(.49818)"><path fill="#c9c9c9" d="M49.93 88.503c1.127.674 2.961.657 4.59-1.045-.229-1.078-.297-2.193-.155-3.256-2.176 3.332-4.435 4.3-4.435 4.3"/></g><g clip-path="url(#a)" transform="translate(0 -.001)scale(.49818)"><path fill="#c9c9c9" d="M61.054 84.597q.433.449.891.877c2.538 1.012 5.85.32 5.85.32-.806-2.212-2.68-4.957-8.05-4.528-1.049 6.588-4.546 8.318-4.546 8.318 3.2-.472 5.192-2.199 5.855-4.987"/></g><g clip-path="url(#a)" transform="translate(0 -.001)scale(.49818)"><path fill="#c9c9c9" d="M56.43 97.261q.215-.345.498-.671c-1.154.268-3.972.758-5.235-.294 0 0 .917 2.7 4.417 1.829l-.007.04c.066-.342.17-.647.327-.904"/></g><g clip-path="url(#a)" transform="translate(0 -.001)scale(.49818)"><path fill="#c9c9c9" d="m33.324 82.553.129.204c.347-.041 1.264-.145 1.74-.19-6.047-3.067-6.532-6.669-6.561-7.496a4.47 4.47 0 0 0-1.07 2.21c-.431 2.39 1.113 5.248 5.762 5.272"/></g><g clip-path="url(#a)" transform="translate(0 -.001)scale(.49818)"><path fill="#c9c9c9" d="M74.41 145.07c.224.314.196.922.042 1.19a2.7 2.7 0 0 0-.282.725c2.464.31 4.354-1.96 6.79-7.67-.285-1.437-.338-3.018-.338-3.018-1.141 2.763-4.007 7.684-6.212 8.773"/></g><g clip-path="url(#a)" transform="translate(0 -.001)scale(.49818)"><path fill="#c9c9c9" d="M74.824 138.11c.47-.43.943-.837 1.4-1.202l-.25-.385c-4.626 1.671-9.125 1.336-10.625.33-.31.589-.717 1-1.437.759.812 2.41 4.164 4.03 10.523.274z"/></g><g clip-path="url(#a)" transform="translate(0 -.001)scale(.49818)"><path fill="#c9c9c9" d="M68.999 129.4c-.636 1.25-.411 2.853 1.383 4.17 1.824.181 3.71.26 5.698-.052-3.488-.477-6.382-2.207-7.081-4.118"/></g><g clip-path="url(#a)" transform="translate(0 -.001)scale(.49818)"><path fill="#c9c9c9" d="M97.58 122.88c2.909-2.657 1.906-7.21.403-8.03-3.502 2.594-3.941 6.403-3.912 8.336l-9.5-8.378s-2.803 1.602-4.813 2.401c-1.461 2.677 7.308 6.597 11.782 8.284-.956 2.63-4.463 8.156-7.445 9.086 2.125 4.064 1.747 6.534 1.747 6.534.797-.518 1.865.058 2.03.576.081.253.116.452.116.452.647-.767.829-2.33.829-2.33-2.244-2.297-2.165-4.09-2.165-4.09s2.02-4.118 6.216-8.182c4.469.895 9.464-.927 10.18-3.012-1.019-1.316-3.287-1.958-5.467-1.647"/></g><g clip-path="url(#a)" transform="translate(0 -.001)scale(.49818)"><path fill="#c9c9c9" d="m85.353 35.132 2.847-6.485s-2.917-.786-3.22 1.645a2.6 2.6 0 0 0-.45-.074c-1.12-.078-2.077.587-2.14 1.485-.03.423.146.819.455 1.13.408-.052.896.062 1.087.344-.366.469-1.929.826-3.319.538-.849-.168-1.56-.61-1.959-1.053.3-.263.907-.202 1.279.007.738-.216 1.285-.79 1.334-1.5.066-.953-.789-1.788-1.909-1.866a2.4 2.4 0 0 0-.607.036c.985-2.556-1.514-3.38-1.514-3.38 1.402 5.904-2.86 8.456-5.064 8.903v.098c4.525.066 8.047 1.013 8.047 1.013 1.438-1.19 3.451-1.172 5.133-.84"/></g><g clip-path="url(#a)" transform="translate(0 -.001)scale(.49818)"><path fill="#c9c9c9" d="m35.745 78.708-.136.175c.886.55 2.061 1.068 3.589 1.547-1.663-1.592-3.752-6.056-3.26-8.527-1.8 1.33-2.779 3.934-.193 6.805"/></g><g clip-path="url(#a)" transform="translate(0 -.001)scale(.49818)"><path fill="#c9c9c9" d="M74.777 94.501c.996 10.187-24.436-6.421-12.495 18.946-4.315.305-6.5-.984-8.191-2.933-2.952-2.733-2.855-7.647-2.855-7.647-3.771.855-4.473 6.701-1.24 9.365-2.479-.392-5.488-1.328-7.879-2.986-1.309 1.698-1.322 4.538.72 5.746.911.343 2.055.538 3.451.517l.053.062c.798.02 1.467.218 1.467.218-1.655.783-3.693 2.133-4.639 3.198-.12.17-.212.351-.284.534.938.623 1.849 2.643.987 3.04a1 1 0 0 0-.208.121c3.336 1.324 6.083-1.599 7.46-3.608-.325 1.84-.275 3.544-.048 4.455.42 1.683 1.578 2.949 2.916 3.1.07 1.074-1.045 2.01-1.704 2.258l.008.047c2.27 1.242 5.001-.761 4.994-3.352a6.4 6.4 0 0 0 1.119-1.126c-1.423-2.44-1.805-4.278-1.893-5.307.584-1.525 2.308-2.424 6.017-3.087 2.903 2.918 6.14 1.878 6.831 1.611.174-1.055-.263-2.21-1.785-2.835 1.771-1.01 2.482-3.454 2.084-4.339-.55.02-1.935.924-3.162 2.635 0 0-.2-.819-.322-1.62-.95-6.786.18-7.321 8.728-5.325a348 348 0 0 1 2.517-5.597c1.066-2.33-.247-4.212-2.647-6.09"/></g><g clip-path="url(#a)" transform="translate(0 -.001)scale(.49818)"><path fill="#c9c9c9" d="M42.955 87.513s1.12-.276 7.304-1.244c.355-1.316.983-2.446 1.856-3.247 0 0-4.879 1.108-7.85 2.89-1.308-1.153-2.844-1.259-2.844-1.259-1.004 5.607-1.92 7.373-1.92 7.373 1.66.08 1.909 1.343 1.78 1.945a3.2 3.2 0 0 1-.35.91c1.422-.612 1.99-1.989 1.99-1.989s.192-1.649.034-5.38"/></g><g clip-path="url(#a)" transform="translate(0 -.001)scale(.49818)"><path fill="#c9c9c9" d="M36.8 60.001c.754-.1 1.221-.346 1.221-.346.281-.61.874-2.21 1.395-3.668 1.025 1.672 4.227 6.225 4.863 7.073-1.246.244-2.1.793-2.486 1.035.042 1.592 1.083 3.162 3.737 3.453-1.755 1.363-1.695 4.053-.942 5.133 2.72-1.612 3.161-4.853 5.356-2.588a69 69 0 0 0 2.86 3.11c2.515-1.82 5.603-3.767 10.389-3.012-2.102-.855-5.322-1.267-8.048-.252l-.164-.512c5.075-7.27 15.342-4.607 21.585-5.764-4.315.185-12.09-2.345-18.349 1.206l-.17-.613a21 21 0 0 1 1.847-1.735S47.442 55.53 44.89 56.397c.33-2.38-.368-4.179-1.691-6.202-2.09-3.218.964-6.807 2.747-11.008-1.889-2.356-7.147.058-5.894 6.898l-.024.012c-1.815-3.108-2.352-6.041-3.544-9.188l-.067-.013c-2.547.63-4.847 4.903-.784 9.395 1.212.655 1.798 1.432 1.798 1.432l.024.1c-3.623-.164-7.15-1.406-7.15-1.406.076 1.216-.705 3.007-1.561 2.726a1.8 1.8 0 0 0-.56-.087c.616 1.92 2.32 3.37 6.97 3.111a23 23 0 0 0 1.65-.157c-1.111 1.418-3.02 4.157-2.283 5.411.5-.205 1.554.118 1.766.574-.595 1.498-2.422 3.197-4.113 2.711 1.3.598 3.114.451 4.626-.705"/></g></svg>