<svg xmlns="http://www.w3.org/2000/svg" viewBox="2.12 7.45 495.54 485.01"><g fill="#fff"><path d="M178 15.86c8.38-6.02 19.14-6.26 28.94-7.91 11.36-.96 23.38-.99 33.8 4.27 3.01 1.52 5.62 3.68 8.27 5.74 4.13 2.95 6.5 7.6 9.94 11.23 11.05 1.32 21.38 5.75 31.28 10.64 8.28 4.31 18.08 5.39 25.48 11.41 7.67 4.88 11.58 13.48 16.49 20.73 9.77 3.24 19.83 5.57 29.77 8.2 6.24-2.07 12.53-4.07 19.03-5.15 14.17-1.65 28.66-.12 42.15 4.55 7.74 3.23 14.65 8.09 21.28 13.16 9.42 7.4 18.3 15.65 25.43 25.33 2.53 3.54 4.74 7.31 7.32 10.82 6.26 7.19 6.68 17.27 8.22 26.23-1.17 5.28 3.64 8.59 5.69 12.83 4.18 8.1 5.17 17.31 6.44 26.18-1.22 6.86-2.08 14.01-.47 20.89 1.34 5.24.12 10.61-.67 15.84-.94 7.53-2.55 15.29-6.86 21.68-3.6 5.3-7.83 10.15-12.29 14.74-4.63 3.99-8.95 8.32-13.24 12.68-2.46 2.33-2.11 5.98-2.84 9.04-.5 7.3-2.61 14.36-4.58 21.38-1.15 3.12-1.78 6.58-4.1 9.11-2.53 2.87-4.35 6.3-7.03 9.04-2.96 2.67-3.61 6.85-5.99 9.94-2.03 2.76-3.91 5.97-3.32 9.56 1.23 9.86 3.92 19.47 6.45 29.06.83 3.58 4.65 5 6.55 7.88 4.25 5.87 8.68 11.94 10.27 19.15 3.55 14.43.88 29.5-3.87 43.33-.7 2.15-1.5 4.32-3.02 6.04-3.19 3.81-5.57 8.34-9.53 11.46-5.31 3.85-10.88 7.83-17.56 8.76-10.71 1.72-20.87 5.76-31.58 7.49-20.87-4.09-41.71-8.49-62.83-11.15-7.38-.68-14.64-2.44-22.07-2.58-6.97-.17-13.94-.18-20.91-.23-23.04-.04-46.06-1.68-69.1-1.15-8.23.42-16.13 2.91-24.09 4.83-21.72 5.77-43.45 11.57-65.04 17.82-4.6 1.17-9.19 2.43-13.9 3.1-12.93.96-26.55 1.58-38.61-4.03-6.58-3.4-12.92-7.84-16.79-14.31-4.77-6.18-6.2-14.04-7.61-21.52-.93-3.15 1.86-6.01.86-9.14-.63-2.87-1.51-5.8-.77-8.74 2.44-13.15 3.89-26.54 7.82-39.36 1.45-4.83 4.51-8.9 7.28-13.03-5.33-7.1-11.5-14.15-13.87-22.88-.79.02-2.37.05-3.16.07-.79-.76-1.59-1.52-2.38-2.28-.93.47-1.85.94-2.78 1.42-2.16-.57-4.35-1.04-6.58-1.2-4.16-2.51-5.88-7.76-10.49-9.6-8.58-4.22-16.21-10.54-21.42-18.61-2.82-6.9-4.07-14.29-5.29-21.6.13-2.69.96-5.28 1.41-7.91 1.36-11.92 8.98-22.07 17.6-29.93-2.53-3.32-4.36-7.21-4.94-11.37-.7-5.89-2.77-11.79-1.46-17.75 1.3-5.91 1.36-12.39 4.98-17.51 5.93-8.15 13.47-15.25 22.47-19.92-.04-5.63-3.15-11.12-1.1-16.7 1.38-10.39 5.4-20.56 12.49-28.39 2.03-2.66 5.07-4.26 7.26-6.74 1.33-6.04 2.96-12.01 4.61-17.97-.49-2.78-3.8-4.03-4.34-6.83-1.34-5.26-2.92-10.47-3.92-15.82-.99-5.08.31-10.32-.9-15.37-.62-3.59-1.51-7.13-2.12-10.72 1.46-7.41 2.51-15.05 5.82-21.92 2.79-4.21 5.35-8.64 9.21-11.98 5.53-6 13.4-8.71 20.34-12.58 7.7-6.13 14.89-13.5 24.48-16.65 8.21-2.37 16.83-5.07 25.43-3.16 9.5 2.04 19.52 4.67 26.75 11.58 3.03-5.2 6.93-9.95 11.81-13.52m26.91 6.48c-6.34.76-13.17 1.14-18.61 4.85-5.38 3.56-8.4 9.48-11.03 15.15-2.72 1.87-5.71 3.37-8.42 5.3-2.91-.89-4.89-3.48-7.24-5.29-5.84-5.5-13.4-8.93-21.2-10.58-8.22-1.57-16.79.55-24.1 4.38-6.49 3.29-11.07 9.19-17.15 13.09-5.25 3.59-11.59 5.29-16.52 9.41-6.88 5.46-10.09 14.11-11.85 22.44-1.31 5.76 2.49 11.11 2.04 16.88-.33 6.12-.22 12.36 2.1 18.13 1.73 6.23 7.6 10.46 8.46 17.01.47 2.03-1.17 3.68-2.04 5.34-2.28 3.45-3.41 7.49-4.28 11.49-.67 2.87.49 5.93-.46 8.73-3.06 2.61-6.95 4.14-9.75 7.11-5.55 5.74-8.13 13.6-9.95 21.2-1.58 5.96 1.68 11.51 3.26 17.03-.38 3.01-2.51 5.49-4.1 7.99-2.3 3.5-6.89 3.7-10.12 5.94-6.82 4.41-12.91 10.92-14.57 19.11-2.59 9.08.38 18.63 4.88 26.59 1.77 2.8 1.88 6.31.74 9.37-1.51 4.95-6.15 7.79-9.41 11.49-5.44 6.18-8.83 14.26-9.22 22.49.57 5.76 2.17 11.54 5.03 16.6 3.48 5.98 10.02 8.95 15.78 12.26 9 5.21 18.58 9.46 28.57 12.42 1.91 8.3 6.19 15.78 11.49 22.37 2.39 3.18 5.89 5.23 8.54 8.17a64 64 0 0 1-6.57 11.44c-4.98 6.98-7.73 15.37-8.52 23.87-1.4 7.28-2.85 14.55-3.91 21.88-.31 2.72 1.14 5.23 1.29 7.92-.17 3.29-1.89 6.54-.69 9.83 1.73 9.66 8.09 18.9 17.68 22.05 15.41 5.11 32.26 2.81 47.38-2.25 16.4-4.84 32.99-8.98 49.48-13.47 10.02-2.52 19.9-5.73 30.16-7.19 7.57-1.28 15.29-1.26 22.94-.82 12.99.42 26 .14 38.96 1.17 10.68.22 21.37.1 32.05.17 9.77-.04 19.4 1.81 29.06 3.08 19.77 2.73 39.35 6.69 58.9 10.64 5.71-.31 10.75-3.19 15.99-5.14 3.99-.31 8.08-.15 11.9-1.58 9.21-2.42 16.7-9.58 20.35-18.26 3.9-10.5 5.8-21.89 4.04-33.03-1.03-5.31-3.98-9.97-7.18-14.23-2.14-2.92-5.54-4.43-8.1-6.88-4.31-15.65-8.5-31.54-9.8-47.8 1.8-3.09 4.45-5.61 6.12-8.78 1.76-3.05 2.29-6.78 4.73-9.43 4.2-4.61 8.64-9.32 10.82-15.28 4.53-10.71 2.81-23.08 8.38-33.39 6.27-8.96 15.92-14.77 22.55-23.44 4.07-4.54 6.92-10.12 7.87-16.17.97-5.9 2.84-11.94 1.53-17.94-1.04-4.87-1.02-9.89-.93-14.84-.04-2.99 2.12-5.75 1.07-8.77-1.68-7.07-2.16-14.79-6.71-20.79-1.73-3.14-5.88-5.27-5.14-9.36.64-8.52-1.48-17.24-5.71-24.64-4.48-6.81-8.75-13.87-14.6-19.62-10.48-10.45-21.95-20.65-36.04-25.83-16.84-5.67-36.28-5.24-52.08 3.34-13.12-4.06-26.51-7.16-39.71-10.92-2.52-.48-3.51-3.04-4.46-5.1-2.25-5.41-4.85-10.9-9.15-14.99-5.93-4.96-13.69-6.54-20.64-9.5-9.04-3.66-17.61-8.61-27.15-10.95-4.15-1.18-8.46.25-12.35 1.72-2.04-2.25-1.9-5.5-3.15-8.15-2.4-5.18-6.5-9.63-11.69-12.09-9.19-4.7-19.89-4.23-29.84-2.95"/><path d="M199.08 32.7c8.2-1.02 16.49-1.89 24.76-1.14 5.76.73 11.85 3.88 13.99 9.6 2.26 6.25 2.96 12.97 2.4 19.58 6.42-3.97 13.43-9.2 21.46-7.23 10.64 3.4 20.2 9.55 30.92 12.79 4.58 1.62 9.9 2.93 12.81 7.18 3.46 5.23 5.35 11.3 8.34 16.78.68 1.54 2.48 1.78 3.89 2.33 15.38 4.55 31.15 7.8 46.43 12.7 7.17-3.56 14.79-7.03 22.95-7.02 6.89-.1 13.91-.5 20.64 1.26 9.36 2.32 17.61 7.72 24.91 13.87 7.41 6.21 14.59 12.91 19.93 21.04 2.9 4.25 6.16 8.38 7.81 13.31 2.32 6.88 1.67 14.28 1.32 21.4 3.01 3.05 6.54 5.76 8.53 9.66 2.51 4.3 2.81 9.36 3.78 14.14.58 3.09-1.21 5.96-1.23 9.03-.08 4.44-.35 8.99.9 13.32 1.19 4.5.41 9.2-.37 13.7-.64 5.18-2.35 10.39-6.07 14.2-6.61 8.37-15.66 14.36-22.35 22.66-4 5.49-5.14 12.35-7 18.74-.83 5.16-.55 10.53-2.54 15.47-1.45 6.09-5.37 11.22-10.29 14.95-2.87 1.87-3.25 5.48-4.41 8.42-1.73 5.41-5.91 9.46-9.52 13.66-.29 2.26 1.07 4.43 1.26 6.7 1.18 12.65 3.61 25.22 7.41 37.35 1.27 3.83 1.03 7.98 2.32 11.8.89 1.45 2.55 2.15 3.89 3.13 6.71 3.71 11.62 11.18 11.39 18.98.48 8.27-.7 16.7-4.01 24.33-3.06 6.47-9.37 11.15-16.33 12.6-3.3.56-6.65-.08-9.96.24-3.75 1.7-7.09 4.45-11.21 5.28-2.99.25-5.89-.74-8.79-1.27-24.82-5.11-49.8-9.54-74.98-12.38-18.35-.57-36.75.27-55.07-1.09-12.02-.13-24.03-.44-36.04-.41-8.45.45-16.81 2.08-24.98 4.26-19.59 5.2-39.18 10.4-58.75 15.64-9.35 2.4-18.42 6.41-28.23 6.45-7.69.05-15.94.99-23-2.71-5.45-2.54-8.57-8.39-9.49-14.11-.5-2.68.83-5.22 1.06-7.85-.38-3.06-1.78-6.05-1.18-9.17.92-5.22 1.49-10.52 2.96-15.63 1.43-4.69.51-9.83 2.69-14.34 2.6-7.83 9.25-13.52 11.54-21.47 1.1-3.3 2.16-6.65 2.37-10.15-10.55-5.01-17.92-15.2-20.84-26.34-.87-3.63-3.54-6.83-7.2-7.85-9.66-2.93-18.93-7.09-27.58-12.3-3.9-2.36-8.62-4.06-11.08-8.17-3.13-5.82-4.93-13-1.91-19.25 2.94-8.72 12.17-12.96 15.73-21.27 2.32-4.62 2.14-10.04 1.48-15.02-2.92-6.04-7.08-11.98-6.72-19.02-.4-8.17 5.6-15.22 12.59-18.65 2.75-1.48 6.17-1.65 8.69-3.4 3.39-5.9 7.36-11.6 9.81-17.96-1.73-4.92-5.8-9.47-4.83-15.13 1.22-6.32 3.54-12.95 8.47-17.35 4.17-2.93 8.8-5.55 13.92-6.3-2.07-5.21-2.75-11.02-1.63-16.53 1.02-4.69 4.44-8.23 7.41-11.8-2.62-3.75-2.31-8.28-2.6-12.58-2.57-3.46-6.2-6.23-7.65-10.45-3.2-6.91-.42-14.71-2.39-21.88-.73-3.64-2.58-7.36-1.37-11.12 1.3-4.96 3.18-10.06 7.1-13.57 4.99-4.82 12.28-5.96 17.53-10.43 6.97-4.65 12.38-11.7 20.59-14.35 7.48-3.1 15.98-1.69 22.99 1.95 4.88 2.27 8.23 6.64 12.55 9.7 2.86 2.15 6.01 3.87 9.19 5.49 3.92-4.88 9.41-8.27 15.57-9.47.18-8.47 6.35-17.15 15.32-17.53m1 10.78c-2.77.09-5.14 2.7-4.89 5.47.09 4.25-.12 8.56-1.95 12.47-3.39-.05-6.81-.4-10.19 0-5 1.6-6 8.4-11.32 9.33-1.53.58-3.14.24-4.65-.18-7.64-2.37-14.58-6.64-20.51-11.97-3.75-3.5-8.25-6.79-13.58-6.98-4.91-.5-9.23 2.54-12.7 5.65-4.46 4.25-9.58 7.71-14.37 11.56-2.42 2.09-5.8 2.13-8.63 3.38-4.01 1.55-7.48 5.22-7.51 9.71-.64 4.54 1.23 8.81 2.02 13.19-.06 4.89-1.83 10.1.57 14.74 1.42 3.98 5.52 5.7 8.28 8.52.68 3.82-.4 7.75.41 11.55.78 2.8 2.93 4.89 4.56 7.21-2.51 3.63-5.26 7.08-7.94 10.57-2.62 3.33-3.22 8.12-1.29 11.92 3.27 6.81 10.37 10.36 15.23 15.81 1.82 3.27-1.99 6.05-4.09 8.07-1.91 1.94-4.66.57-6.53-.65-4.09-2.71-8.36-5.33-13.21-6.42-8.41.25-14.89 10.18-11.28 17.96 1.15 3.29 4.48 4.72 7.28 6.32-1.89 4.3-4.68 8.1-6.82 12.27-3.52 6.75-8.32 13.08-9.5 20.8-5.07-.63-10.88-1.04-14.84 2.84-3.89 2.65-4.74 7.86-3.18 12.06 2.25 5.02 6.54 9.45 6.47 15.25-.01 4.65.52 9.49-1.07 13.96-1.86 5.57-4.24 11.29-8.78 15.23-3.33 3.29-7.68 6.09-9.03 10.85-1.5 4.04.72 8.78 4.45 10.73 7.7 4.81 15.77 9.18 24.43 12 5.38 1.46 11.12 3.12 14.87 7.55 4.54 4.66 4.75 11.57 7.99 16.97 1.83 3.39 3.93 6.81 7.22 8.97 3.9 2.95 8.69 4.9 11.81 8.79.42 3.17-1.08 6.17-1.56 9.26-1.45 7.88-4.02 15.78-8.99 22.18-2.69 3.38-4.98 7.31-5.53 11.67-.63 8.44-3.82 16.46-4.39 24.91 2.05 4.3 2.21 9.89-.27 14.06 1.46 2.91 3.67 5.78 7.05 6.46 4.27.59 8.61.27 12.91.32 7.77.13 15.15-2.64 22.58-4.52 16.54-4.27 32.96-8.94 49.47-13.31 13.74-3.63 27.52-7.95 41.85-8.24 14.34-.06 28.69.06 43.02.74 15.97.77 31.97.58 47.95.9 26.98 2.58 53.65 7.67 80.18 13.15 5.43 1.37 8.06-5.66 12.91-6.52 4.01 1.04 8.43 2.49 12.41.45 5.28-2.32 6.71-8.44 8.15-13.46 1.65-6.82 2.05-15.64-4.08-20.42-2.66-2.57-7.12-2.55-9.23-5.71-1.97-5.48-2.19-11.39-3.77-16.97-3.23-11.73-5.83-23.67-7.07-35.79-.5-4.11-1.97-8.05-2.35-12.18 1.37-6.39 8.05-9.57 10.49-15.4 1.66-3.45 2.62-7.2 4.3-10.63 2.25-2.8 5.98-4.09 7.96-7.18 3.6-5.59 4.64-12.33 4.71-18.85 2.58-8.95 3.96-18.78 10.36-26.01 4.72-4.92 9.39-9.94 14.79-14.13 7.34-6.27 13.22-15.75 11.38-25.76-2.14-7.5-1.66-15.52.08-23.04-.42-6.74-3.28-14.12-9.55-17.49-1.71-1.29-4.85-2.53-3.95-5.22 1.94-5.52 1.61-11.47 1.11-17.21-1.33-6.58-5.77-11.87-9.45-17.29-5.6-8.03-13.58-13.86-21.09-19.95-4.81-3.59-10.25-6.41-16.04-8.01-4.98-1.05-10.12-.9-15.18-.94-5.88-.33-11.39 2.15-16.66 4.41-2.73 1.05-5.33 3.85-8.44 2.5-19.06-5.17-38.24-9.99-57.2-15.45-4.13-5.68-5.8-12.73-9.33-18.75-1.57-2.89-4.84-4.02-7.76-5.02-8.83-2.74-17.43-6.24-25.58-10.61-2.61-1.23-5.74-3.23-8.57-1.46-5.52 2.93-10.43 6.83-15.42 10.54-2.84 2.19-6.4 3.02-9.94 2.89-1.07-8.57-.38-17.24-.85-25.85-.49-3.66-1.3-8.58-5.54-9.6-7.87-1.01-15.78.21-23.6 1.03"/><path d="M152.32 105.26c8.85-4.32 19.27-4.1 28.43-.86.01.3.05.9.06 1.2-2.1 1.49-3.98 3.45-6.31 4.55-4.86.21-10.01.23-14.2 3.09-6.36 4.36-11.45 10.65-14.37 17.8-2.47 6.95-3.24 15.14.36 21.84 1.8 3.61 4.78 6.6 8.44 8.3 6.85 3.65 14.66 4.58 22.19 5.91 13.31 1.89 26.79 1.47 40.16 2.62 8.23.26 16.38 1.72 24.63 1.54-.23 2.27-.35 4.55-.23 6.84.83-.01 2.47-.02 3.3-.03.94-2.15 1.71-4.39 2.92-6.41 1.39-1.36 3.45-.45 5.14-.46-.1 2.42-.22 4.84-.3 7.26 1.04.23 2.08.46 3.13.68 1.31-2.43 2.1-5.36 4.29-7.18 2.55-.9 5.34-.59 7.98-.26-1.28 2.83-2.2 5.83-2.27 8.97 3.54-1.72 4.32-6.28 7.78-8.18 1.72-1.36 3.88-.42 5.69.19-1.68 3.08-3.34 6.25-3.64 9.81 3.21-1.67 4.94-5.13 8.1-6.9 2.74-2.21 6.42-1.51 9.65-1.25-2.55 3.03-5.16 6.1-6.38 9.95 4.93-.06 6.71-7.75 12.15-6.35 2.12-.1 1.23 2.5.16 3.19-1.73 1.72-2.72 3.96-3.43 6.26 3.48.71 5.93-2.45 9.13-3.12 2.8-.56 5.86-.86 8.44.64-2.78 2.3-6.22 4.25-7.35 7.91 4.81-.86 10.57-3.91 14.96-.48 1.78 1.13.05 2.86-1.29 3.23-2.64 1.24-5.59 2.72-6.29 5.85 3.84-.52 7.69-1.38 11.6-1.21 2.46.29 3.73 2.91 4.08 5.11-2.97.94-6.25 1.77-8.29 4.32 3.97.64 8.27.55 11.84 2.68 2.15 1.35 3.38 3.65 4.13 6.01-3.38.15-7.19-.07-9.74 2.58 3.55 2.46 8.33 2.53 11.49 5.7 2.31 1.58 2.06 4.57 2.21 7.02-2.89.09-5.83-.47-8.67.23 1.28 3.97 7.26 2.88 9.48 5.86-2.67 7.25-5.48 14.63-10.18 20.85-4.52 5.95-9.65 11.53-15.87 15.73-8.22 5.13-17.26 8.76-25.7 13.48-4.61 2.51-8.77 6.18-11 11.01-1.46 4.45-.55 9.24 1.26 13.44-.24 2.48-4 2.06-5.8 2.99-8.85 2.34-17.95.31-26.65-1.65.79 4.7 5.02 7.4 8.79 9.64-1.38 4.47-4.33 8.38-8.15 11.05-4.26 3.02-6.89 8.26-6.94 13.43 1.21 1.8 3.24 2.82 4.86 4.21 7.14 5.85 14.07 12.16 19.05 20.02 3.46 4.77 5.89 10.16 9.09 15.09 2.59-4.49 2.28-9.98 2.66-14.99.52-7.57-1.61-15.17-.43-22.69 4.78-3.21 9.58-6.77 15.2-8.35-3.42 3.52-7.81 5.96-11.19 9.51-2.96 12.95 2.66 26.81-2.31 39.5-.95 2.18-1.2 4.94-3.17 6.5-3.5-7.78-9.81-13.85-16.55-18.88-7.47-5.43-17.05-9.35-26.33-6.83-8.44-.25-17.43-2.13-23.82-8.06-7.07-5.8-10.52-14.88-11.55-23.75-.81-6.5.62-12.96 1.71-19.34 2.14-12.63.13-25.91-5.68-37.33-3.04-5.68-7.75-10.91-14.13-12.73-5.98-1.95-13.43-1.15-17.99 3.44 4.54.07 9.2-.87 13.62.58 8.28 2.08 13.79 9.95 15.38 18.01 2.82 13.34-.15 27.01-3.16 40.04-1.9 8.17.09 17.09 4.97 23.87 6.05 9.13 15.52 15.16 22.48 23.5 3.81 4.52 7.25 10.55 5.56 16.64-2.76 8.75-4.96 17.82-4.94 27.05-8.34 1.24-16.62 2.86-24.77 5.07-15.26 4.05-30.49 8.16-45.76 12.17-4.15-3.82-8.59-7.33-12.38-11.51-8.56-9.03-14.83-19.96-19.76-31.32-.89-2.48-2.38-5.09-1.57-7.79 1.65-6.08 3.33-12.18 4.31-18.4.56-3.48-.3-7.22-2.83-9.75-3.37-4.14-8.33-6.32-12.48-9.49-5.68-5.24-6.26-13.51-10.17-19.83-3.98-5.41-9.22-10.28-15.77-12.28-7.51-2.28-14.96-5.1-21.62-9.3-1.06-.7-2.82-1.71-1.88-3.27 1.55-6.01 3.81-11.86 6.82-17.29 3.62-6.44 5.74-13.67 10.17-19.67 6.97-9.82 14.8-19.68 25.54-25.56 6.2-4.78 13.23-8.38 20.36-11.55 8.13-2.57 16.78-3.43 25.28-2.76 7.27.39 14.51 2.93 20.1 7.67 5.59 4.18 8.62 10.67 13.45 15.57 2.82 2.85 5.8 5.65 9.36 7.56 3.81 2.15 7.96 3.85 11.26 6.79 3.38 3.29 4.29 8.13 5.89 12.39 3.86-3.63 2.48-9.52-.6-13.17 7.37-3.84 14.82-8.65 23.51-8.16 11.22.78 20.95 7.17 29.98 13.34 7.65 5.22 17.5 4.59 26.05 2.33 10.58-3.18 20.8-9.29 26.76-18.82 4.38-7.05 5.8-15.48 6-23.66.04-11.83-5.67-23.63-15.25-30.67-6.87-5.69-15.66-8.67-24.51-9.2-9.37-.59-18.76-1.71-28.16-1.24-16.68 1.2-33.53.9-50.04-1.86-14.28-2.32-28.53-5.91-41.51-12.43-9.17-4.92-18.79-11.43-21.89-21.95-2.64-6.72-.78-13.96.72-20.7 3.17-12.71 10.89-25.11 23.14-30.69m65.9 174.86c1.39 1.28 2.92 2.4 4.57 3.31 2.41-1.73 4.64-3.77 7.29-5.13 4.98.46 10.17 3.09 12.86 7.46-3.54-.56-6.43-3.05-9.98-3.48-3.45.39-6.04 3.27-7.15 6.42 2.06 1.11 4.17 2.13 6.3 3.1 1.17-1.28 2.27-2.8 4.1-3.12q-.135 2.265-.3 4.53c1.64-.79 3.25-1.69 4.98-2.28 4.27-.11 8.32 1.56 12.43 2.49-1.44-3.82-3.94-7.11-6.86-9.92-5.2-5.28-11.94-9.79-19.52-10.25-4.25-.34-7.33 3.24-8.72 6.87"/><path d="M175.28 115.46c1.01-2.4 2.86-5.13 5.67-5.41 2.08 1.07 2.59 3.7 3.09 5.79-2.82-1.2-5.82-.99-8.76-.38M176.43 119.47c2.82-1.27 6.48-.91 8.68 1.38 2.92 2.91 3.57 7.18 3.94 11.1.84 7 .28 14.13-1.28 20.98-.83 3.81-3.51 7.16-7.17 8.58-3.22.81-6.69-1.04-8.05-4.03-4.53-8.57-4.45-18.97-2.03-28.16 1.29-3.56 2.58-7.71 5.91-9.85m.94 6.86c-4.92 4.78-4.11 12.43-4.08 18.7.24 4.03 2.62 10.44 7.67 9.28 5.84-7.22 5.99-18.04 2.2-26.27-.81-2.43-3.81-3.53-5.79-1.71M194 119.23c5.8.33 11.6.47 17.4.73l-.06 5.51c-2.27 0-4.53-.04-6.79-.07-.43 10.69-.23 21.41-1.17 32.08l-3.68.24c.17-10.79.66-21.58 1.05-32.36-2.2-.06-4.39-.13-6.59-.27-.08-1.95-.13-3.91-.16-5.86M214.94 120.04c4.41-.16 8.82.05 13.23.01.03 1.77.05 3.55.07 5.33-3.25-.01-6.5-.09-9.74-.14-.13 2.79-.19 5.59-.12 8.38 3.02.01 6.05-.1 9.07-.18.01 1.92 0 3.85-.02 5.78-3.01-.02-6.02-.06-9.03-.05-.07 3.2-.1 6.4-.03 9.59 3.22.03 6.44-.08 9.66-.16.04 1.76.08 3.52.09 5.28-4.81.22-9.69.08-14.37 1.39.56-11.74.54-23.5 1.19-35.23M244.74 120.47c4.8.32 9.76-.05 14.41 1.32 3.25 2.23 4.21 6.51 4.97 10.16.88 6.73.07 14.99-5.89 19.27-4.42 1.66-9.33 1-13.96 1.39.31-10.71.26-21.43.47-32.14m4.95 5.68c-.05 6.7-.35 13.41-.19 20.11 3.2-.36 8.39.86 9.54-3.25 1.07-4.18 1.13-8.77-.02-12.94-1.31-3.92-5.95-3.78-9.33-3.92M268.35 121.13c1.12-.04 2.24.01 3.36.14.16 1.69-.2 3.37-.47 5.04-.81.15-1.61.31-2.41.47-.14-1.88-.32-3.77-.48-5.65M275.94 122.03c.93-1.19 4.9-1.21 4.54 1.05-.03 10.05-.24 20.1-.63 30.14-1.54-.13-3.08-.26-4.61-.4-.02-10.27.45-20.54.7-30.79M286.96 121.15c1.61.25 3.22.52 4.82.82 1.96 7.94 3.38 15.99 4.49 24.09 3.28-7.28 4.46-15.27 5.86-23.07.07-2.3 3.11-1.11 4.49-1.49-1.3 11.41-5.8 22.08-8.01 33.3-.33 2.07-3.45 1.21-4.03-.3-4.03-10.74-4.51-22.36-7.62-33.35M316.4 122.6c3.05-1.41 7.41-1.48 9.76 1.27 2.9 3.31 4.39 7.71 4.46 12.08.35 7.23.32 15.25-4.65 21.07-2.21 3.1-6.63 3.19-9.85 1.85-3.45-1.9-4.84-5.94-5.51-9.59-1.28-6.19-.66-12.6.75-18.71.79-3.05 2.09-6.4 5.04-7.97m.88 5.75c-2.63 3.63-2.36 8.42-2.84 12.67-.05 4.15-.46 9.43 3.37 12.14 2.29 2.13 5.39-.59 6.7-2.59 2.42-5.13 2.22-11.15 1.52-16.65-.3-4.03-4.8-8.38-8.75-5.57M336.27 122.18c1.6.28 3.57-.28 4.93.75.09 13.67-.63 27.35-.9 41.02.06 2.93-3.45.77-4.76-.1-.77-2.55-.3-5.29-.35-7.91.17-11.26.54-22.51 1.08-33.76M348.68 122.76c4.57.26 9.31-.42 13.74.94 3.52 2.48 3.93 7.34 3.8 11.31.02 5.36-.62 11.86-5.94 14.65 4.55 8.19 4.38 17.68 5.61 26.7-1.82-.52-4.18-1.26-4.57-3.41-1.1-5.83-1.55-11.78-2.9-17.56-.73-2.64-1.99-6.37-5.52-5.55-.93 6.55-.41 13.24-.51 19.85-2.13.04-5.07-.93-4.59-3.62.02-14.44.49-28.87.88-43.31m4.33 6.77c.08 4.86.15 9.71-.18 14.56 2.49-.13 5.06-.07 7.46-.86 1.77-2.31 1.33-5.49 1.38-8.22-.29-1.66.22-4.11-1.68-4.95-2.29-.5-4.65-.45-6.98-.53M371.78 179.9c-.71-18.73 1.01-37.43 1.03-56.16 4.47.09 8.96.1 13.43.31.08 1.86.13 3.72.17 5.59-3.11.07-6.21-.01-9.3-.15.22 6.84-.54 13.69 0 20.53 2.87-.06 5.74-.01 8.62.15-.12 1.68-.24 3.36-.38 5.04-2.84-.1-5.68-.22-8.51-.32-.21 7.17-.79 14.34-.61 21.52 2.75 1.6 5.66 3.16 7.79 5.59.87 1.49.48 3.26.42 4.89-4.32-2.16-8.17-5.15-12.66-6.99M259.91 197.27c7.56-2.39 15.78-.42 22.93 2.47 5.77 2.28 10.71 6.43 14.46 11.32-4.4-3.79-8.3-8.46-13.94-10.47-7.31-3.47-15.53-3.59-23.45-3.32M230.3 224.14c3.84-13.16 15.12-24.76 28.99-26.72-6.01 1.54-11.54 4.44-15.94 8.84-5.81 3.41-8.42 9.81-11.37 15.52 2.46-.66 4.95-1.25 7.48-1.58.84-3.59 1.78-7.16 3.03-10.63 5.51-.52 10.9-2.04 16.45-2.19 10.86-.18 22.21-.54 32.38 3.9.79-.34 1.59-.68 2.38-1.02 1.44 3.11 1.83 6.56 3.14 9.72.94 2.66 4.43 2.06 6.56 2.93-.75-2.1-1.51-4.19-2.37-6.24 3.35 5.44 3.93 12.04 4.17 18.28.51 11.9-5.52 23.85-15.4 30.48 2.41-1.63 3.29-4.2 2.57-7.02-6.24 3.4-13.5 3.13-20.34 4.14-9.68.46-19.47-1.09-28.7-3.99.27 1.86-.77 4.38 1.03 5.71 5.08 4.2 11.36 6.93 17.91 7.74 5.21.95 10.44-.26 15.65-.67-9.37 3.04-19.87 1.79-28.5-2.83-4.83-2.95-9.89-6.07-12.95-10.99-2.9-4.62-6.14-9.52-6.24-15.17.3.37.88 1.13 1.18 1.5 2.56 1.37 5.39 2.06 8.24 2.54-.63-8.3-1.08-16.63-.24-24.94-2.58 1.43-5.46 2.08-8.39 2.17-1.06 5.95-1.81 12-1.01 18.04-2.35-5.58-.96-11.83.29-17.52m30.4-15.39c-1.69 4.23-1.41 8.88-2.15 13.32-2.08 12.7-1.25 25.7 1 38.32 5.32.13 10.65 1.18 15.95.08.73-3.48.9-7.04 1.65-10.52.59-13.33.19-26.73-1.98-39.91l-1.92-1.32c-4.18-.09-8.37-.21-12.55.03m-16.23 2.87c-2.44 1.96-2.32 5.47-2.8 8.29-1.5 10.32-1.12 20.8.05 31.13.24 2.22 1.38 4.19 2.42 6.12 4.64.89 9.08 2.64 13.77 3.31-.48-5.17-1.96-10.23-1.73-15.46.22-6.68.1-13.35.32-20.03.16-5.46 1.55-10.78 2.44-16.14-4.86.64-9.74 1.48-14.47 2.78m32.59-2.18c.46 5.83.32 11.71 1.33 17.49 1.06 11.29-.07 22.6-1.17 33.83 4.85-.54 9.34-2.69 14.18-3.34.94-.78 1.88-1.56 2.83-2.32 2.03-9.58 2.12-19.42 1.84-29.17-.14-3.95-.95-7.83-1.76-11.68a62 62 0 0 0-17.25-4.81m20.62 14.39c.28 7.64.37 15.29.04 22.94 2.71-.45 6.09-1.61 6.57-4.75 1.03-5.85.78-11.94-.79-17.68-1.93-.3-3.88-.47-5.82-.51m-66.61 22.24c3.42 5.99 5.79 13.13 11.81 17.11-.21-4.79-2.53-9.16-3.02-13.94-2.18-2.42-5.89-2.25-8.79-3.17m65.5 3.73c-1.08 3.4-1.87 6.92-2.29 10.47 4.64-2.73 6.87-7.94 8.5-12.82-2.19.3-5.24-.25-6.21 2.35M350.44 205.8c4.5 9.65 5.16 20.66 4.85 31.17-.46 12.54-5.73 24.33-12.63 34.61-10.36 13.94-23.91 25.25-38.66 34.29-4.9 3.11-10.01 6.58-16.02 6.8-4.36.47-8.07-4.78-6.09-8.72 2.55-7.44 10.15-11.09 16.82-14.09 11.3-4.97 22.1-11.48 30.73-20.4 6.32-7.01 11.95-14.81 15.4-23.65 3.36-7.9 4.32-16.5 5.53-24.92.74-5.02-.52-10.06.07-15.09m-5.04 50.72c-11.92 21-31.18 37.87-53.95 46.12-2.43 1.27-5.82 1.81-7.22 4.37.7 3.43 5.13 3.32 7.71 2.22 21.42-9.3 40.79-24.42 52.67-44.76 3.35-5.95 6.97-12.11 7.58-19.06-2.99 3.22-4.47 7.44-6.79 11.11"/><path d="M267.14 221.1c.91.28 1.83.57 2.74.86-.28 8.55-.54 17.1-.39 25.66-.96-.06-1.92-.11-2.87-.17.33-8.78-.13-17.59.52-26.35M244.42 223.47c2.72-.65 5.52-.54 8.28-.2l.2 2.48c-1.93.13-3.86.26-5.78.42-.23 2.11-.56 4.23-.35 6.35 1.2 1.03 3.34.21 4.76 1.05.17.63.5 1.88.67 2.5-1.88.41-3.78.74-5.66 1.1.28 3.16.37 6.33.18 9.51-.56-.05-1.69-.14-2.26-.18-.53-7.66-.38-15.37-.04-23.03M283.38 224.21c1.4-1.51 3.8-.56 5.62-.76 1.88-.44 2.79 1.13 2.87 2.8-1.88 0-3.75-.01-5.63-.01-.22 2.37-.33 4.74-.38 7.13 1.75.06 3.5.19 5.23.5-.09.73-.28 2.19-.37 2.92-1.61.13-3.22.26-4.82.4-.44 3.3 1.03 7.47-.96 10.23-.42-.12-1.26-.35-1.68-.47-.05-7.58-.02-15.17.12-22.74M370.7 231.64c1.6 1.69 1.22 4.2 1.41 6.34-.05 11.62-3.78 23.18-10.35 32.75-.91 1.94-3.51 1.25-4.66 2.92-2.78 2.81-5.67 6.21-10.01 6.18.88-5.46 5.29-9.26 8.11-13.77 7.16-10.44 11.46-22.51 15.5-34.42M279.19 270.76c3.38-1.6 6.8-3.12 10.05-4.97-2.86 2.42-6.29 4.47-10.05 4.97M339.79 281.93c1.01-1.45 1.69-3.78 3.83-3.76-.48 1.09-1.09 2.12-1.54 3.23-2.92 9.66-4.98 19.77-10.1 28.59-2.55 4.6-6.09 8.53-9.68 12.34-2.17 2.29-4.48 4.57-7.4 5.87 1.14-2.79 3.02-5.17 4.74-7.62 5.56-8.14 9.81-17.21 12.05-26.82 1-4.95 5.6-7.75 8.1-11.83M257.68 354.07c2.71-1.64 5.94-2.65 9.1-1.77 1.31 1.15 1.57 2.98 1.89 4.6.91 5.8 2.05 11.61 1.97 17.51-3.13-2.14-4.19-5.93-5.96-9.08-1.85-4.04-4.42-7.67-7-11.26M245.18 390.21c2.01-1.37 4.58-.96 6.87-.97 2.64.23 5.4-.02 7.93.88 1.95.78 1.18 3.18 1.25 4.81-.97 8.05-2.51 16.04-3.22 24.12-.13 2.18-1.03 4.83-3.38 5.47-2.84.55-5.76.28-8.63.22 1.39-8.22.65-16.56-.86-24.71-.32-3.21-1.6-6.79.04-9.82M106.83 398.8c5.62 11.84 12.04 23.47 20.93 33.21 3.67 4.17 8.02 7.66 12.25 11.24-7.12 1.75-14.23 3.54-21.26 5.62-7.48 2.38-15.49 2.37-23.24 1.71-.01-4.85-.23-9.69-.43-14.53-.18-4.91 1.37-9.61 2.44-14.33.76-3.43.29-7.11 1.73-10.39 1.8-4.58 5.02-8.38 7.58-12.53"/></g><g fill="#ff8413"><path d="M204.91 22.34c9.95-1.28 20.65-1.75 29.84 2.95 5.19 2.46 9.29 6.91 11.69 12.09 1.25 2.65 1.11 5.9 3.15 8.15 3.89-1.47 8.2-2.9 12.35-1.72 9.54 2.34 18.11 7.29 27.15 10.95 6.95 2.96 14.71 4.54 20.64 9.5 4.3 4.09 6.9 9.58 9.15 14.99.95 2.06 1.94 4.62 4.46 5.1 13.2 3.76 26.59 6.86 39.71 10.92 15.8-8.58 35.24-9.01 52.08-3.34 14.09 5.18 25.56 15.38 36.04 25.83 5.85 5.75 10.12 12.81 14.6 19.62 4.23 7.4 6.35 16.12 5.71 24.64-.74 4.09 3.41 6.22 5.14 9.36 4.55 6 5.03 13.72 6.71 20.79 1.05 3.02-1.11 5.78-1.07 8.77-.09 4.95-.11 9.97.93 14.84 1.31 6-.56 12.04-1.53 17.94-.95 6.05-3.8 11.63-7.87 16.17-6.63 8.67-16.28 14.48-22.55 23.44-5.57 10.31-3.85 22.68-8.38 33.39-2.18 5.96-6.62 10.67-10.82 15.28-2.44 2.65-2.97 6.38-4.73 9.43-1.67 3.17-4.32 5.69-6.12 8.78 1.3 16.26 5.49 32.15 9.8 47.8 2.56 2.45 5.96 3.96 8.1 6.88 3.2 4.26 6.15 8.92 7.18 14.23 1.76 11.14-.14 22.53-4.04 33.03-3.65 8.68-11.14 15.84-20.35 18.26-3.82 1.43-7.91 1.27-11.9 1.58-5.24 1.95-10.28 4.83-15.99 5.14-19.55-3.95-39.13-7.91-58.9-10.64-9.66-1.27-19.29-3.12-29.06-3.08-10.68-.07-21.37.05-32.05-.17-12.96-1.03-25.97-.75-38.96-1.17-7.65-.44-15.37-.46-22.94.82-10.26 1.46-20.14 4.67-30.16 7.19-16.49 4.49-33.08 8.63-49.48 13.47-15.12 5.06-31.97 7.36-47.38 2.25-9.59-3.15-15.95-12.39-17.68-22.05-1.2-3.29.52-6.54.69-9.83-.15-2.69-1.6-5.2-1.29-7.92 1.06-7.33 2.51-14.6 3.91-21.88.79-8.5 3.54-16.89 8.52-23.87 2.58-3.58 4.78-7.41 6.57-11.44-2.65-2.94-6.15-4.99-8.54-8.17-5.3-6.59-9.58-14.07-11.49-22.37-9.99-2.96-19.57-7.21-28.57-12.42-5.76-3.31-12.3-6.28-15.78-12.26-2.86-5.06-4.46-10.84-5.03-16.6.39-8.23 3.78-16.31 9.22-22.49 3.26-3.7 7.9-6.54 9.41-11.49 1.14-3.06 1.03-6.57-.74-9.37-4.5-7.96-7.47-17.51-4.88-26.59 1.66-8.19 7.75-14.7 14.57-19.11 3.23-2.24 7.82-2.44 10.12-5.94 1.59-2.5 3.72-4.98 4.1-7.99-1.58-5.52-4.84-11.07-3.26-17.03 1.82-7.6 4.4-15.46 9.95-21.2 2.8-2.97 6.69-4.5 9.75-7.11.95-2.8-.21-5.86.46-8.73.87-4 2-8.04 4.28-11.49.87-1.66 2.51-3.31 2.04-5.34-.86-6.55-6.73-10.78-8.46-17.01-2.32-5.77-2.43-12.01-2.1-18.13.45-5.77-3.35-11.12-2.04-16.88 1.76-8.33 4.97-16.98 11.85-22.44 4.93-4.12 11.27-5.82 16.52-9.41 6.08-3.9 10.66-9.8 17.15-13.09 7.31-3.83 15.88-5.95 24.1-4.38 7.8 1.65 15.36 5.08 21.2 10.58 2.35 1.81 4.33 4.4 7.24 5.29 2.71-1.93 5.7-3.43 8.42-5.3 2.63-5.67 5.65-11.59 11.03-15.15 5.44-3.71 12.27-4.09 18.61-4.85m-5.83 10.36c-8.97.38-15.14 9.06-15.32 17.53-6.16 1.2-11.65 4.59-15.57 9.47-3.18-1.62-6.33-3.34-9.19-5.49-4.32-3.06-7.67-7.43-12.55-9.7-7.01-3.64-15.51-5.05-22.99-1.95-8.21 2.65-13.62 9.7-20.59 14.35-5.25 4.47-12.54 5.61-17.53 10.43-3.92 3.51-5.8 8.61-7.1 13.57-1.21 3.76.64 7.48 1.37 11.12C81.58 99.2 78.8 107 82 113.91c1.45 4.22 5.08 6.99 7.65 10.45.29 4.3-.02 8.83 2.6 12.58-2.97 3.57-6.39 7.11-7.41 11.8-1.12 5.51-.44 11.32 1.63 16.53-5.12.75-9.75 3.37-13.92 6.3-4.93 4.4-7.25 11.03-8.47 17.35-.97 5.66 3.1 10.21 4.83 15.13-2.45 6.36-6.42 12.06-9.81 17.96-2.52 1.75-5.94 1.92-8.69 3.4-6.99 3.43-12.99 10.48-12.59 18.65-.36 7.04 3.8 12.98 6.72 19.02.66 4.98.84 10.4-1.48 15.02-3.56 8.31-12.79 12.55-15.73 21.27-3.02 6.25-1.22 13.43 1.91 19.25 2.46 4.11 7.18 5.81 11.08 8.17 8.65 5.21 17.92 9.37 27.58 12.3 3.66 1.02 6.33 4.22 7.2 7.85 2.92 11.14 10.29 21.33 20.84 26.34-.21 3.5-1.27 6.85-2.37 10.15-2.29 7.95-8.94 13.64-11.54 21.47-2.18 4.51-1.26 9.65-2.69 14.34-1.47 5.11-2.04 10.41-2.96 15.63-.6 3.12.8 6.11 1.18 9.17-.23 2.63-1.56 5.17-1.06 7.85.92 5.72 4.04 11.57 9.49 14.11 7.06 3.7 15.31 2.76 23 2.71 9.81-.04 18.88-4.05 28.23-6.45 19.57-5.24 39.16-10.44 58.75-15.64 8.17-2.18 16.53-3.81 24.98-4.26 12.01-.03 24.02.28 36.04.41 18.32 1.36 36.72.52 55.07 1.09 25.18 2.84 50.16 7.27 74.98 12.38 2.9.53 5.8 1.52 8.79 1.27 4.12-.83 7.46-3.58 11.21-5.28 3.31-.32 6.66.32 9.96-.24 6.96-1.45 13.27-6.13 16.33-12.6 3.31-7.63 4.49-16.06 4.01-24.33.23-7.8-4.68-15.27-11.39-18.98-1.34-.98-3-1.68-3.89-3.13-1.29-3.82-1.05-7.97-2.32-11.8-3.8-12.13-6.23-24.7-7.41-37.35-.19-2.27-1.55-4.44-1.26-6.7 3.61-4.2 7.79-8.25 9.52-13.66 1.16-2.94 1.54-6.55 4.41-8.42 4.92-3.73 8.84-8.86 10.29-14.95 1.99-4.94 1.71-10.31 2.54-15.47 1.86-6.39 3-13.25 7-18.74 6.69-8.3 15.74-14.29 22.35-22.66 3.72-3.81 5.43-9.02 6.07-14.2.78-4.5 1.56-9.2.37-13.7-1.25-4.33-.98-8.88-.9-13.32.02-3.07 1.81-5.94 1.23-9.03-.97-4.78-1.27-9.84-3.78-14.14-1.99-3.9-5.52-6.61-8.53-9.66.35-7.12 1-14.52-1.32-21.4-1.65-4.93-4.91-9.06-7.81-13.31-5.34-8.13-12.52-14.83-19.93-21.04-7.3-6.15-15.55-11.55-24.91-13.87-6.73-1.76-13.75-1.36-20.64-1.26-8.16-.01-15.78 3.46-22.95 7.02-15.28-4.9-31.05-8.15-46.43-12.7-1.41-.55-3.21-.79-3.89-2.33-2.99-5.48-4.88-11.55-8.34-16.78-2.91-4.25-8.23-5.56-12.81-7.18-10.72-3.24-20.28-9.39-30.92-12.79-8.03-1.97-15.04 3.26-21.46 7.23.56-6.61-.14-13.33-2.4-19.58-2.14-5.72-8.23-8.87-13.99-9.6-8.27-.75-16.56.12-24.76 1.14"/><path d="m259.29 197.42.62-.15c7.92-.27 16.14-.15 23.45 3.32 5.64 2.01 9.54 6.68 13.94 10.47 1.55 1.64 2.7 3.61 3.73 5.61.86 2.05 1.62 4.14 2.37 6.24-2.13-.87-5.62-.27-6.56-2.93-1.31-3.16-1.7-6.61-3.14-9.72-.79.34-1.59.68-2.38 1.02-10.17-4.44-21.52-4.08-32.38-3.9-5.55.15-10.94 1.67-16.45 2.19-1.25 3.47-2.19 7.04-3.03 10.63-2.53.33-5.02.92-7.48 1.58 2.95-5.71 5.56-12.11 11.37-15.52 4.4-4.4 9.93-7.3 15.94-8.84"/><path d="M260.7 208.75c4.18-.24 8.37-.12 12.55-.03l1.92 1.32c2.17 13.18 2.57 26.58 1.98 39.91-.75 3.48-.92 7.04-1.65 10.52-5.3 1.1-10.63.05-15.95-.08-2.25-12.62-3.08-25.62-1-38.32.74-4.44.46-9.09 2.15-13.32m6.44 12.35c-.65 8.76-.19 17.57-.52 26.35.95.06 1.91.11 2.87.17-.15-8.56.11-17.11.39-25.66-.91-.29-1.83-.58-2.74-.86"/><path d="M244.47 211.62c4.73-1.3 9.61-2.14 14.47-2.78-.89 5.36-2.28 10.68-2.44 16.14-.22 6.68-.1 13.35-.32 20.03-.23 5.23 1.25 10.29 1.73 15.46-4.69-.67-9.13-2.42-13.77-3.31-1.04-1.93-2.18-3.9-2.42-6.12-1.17-10.33-1.55-20.81-.05-31.13.48-2.82.36-6.33 2.8-8.29m-.05 11.85c-.34 7.66-.49 15.37.04 23.03.57.04 1.7.13 2.26.18.19-3.18.1-6.35-.18-9.51 1.88-.36 3.78-.69 5.66-1.1-.17-.62-.5-1.87-.67-2.5-1.42-.84-3.56-.02-4.76-1.05-.21-2.12.12-4.24.35-6.35 1.92-.16 3.85-.29 5.78-.42l-.2-2.48c-2.76-.34-5.56-.45-8.28.2M277.06 209.44c5.93.75 11.78 2.39 17.25 4.81.81 3.85 1.62 7.73 1.76 11.68.28 9.75.19 19.59-1.84 29.17-.95.76-1.89 1.54-2.83 2.32-4.84.65-9.33 2.8-14.18 3.34 1.1-11.23 2.23-22.54 1.17-33.83-1.01-5.78-.87-11.66-1.33-17.49m6.32 14.77c-.14 7.57-.17 15.16-.12 22.74.42.12 1.26.35 1.68.47 1.99-2.76.52-6.93.96-10.23 1.6-.14 3.21-.27 4.82-.4.09-.73.28-2.19.37-2.92-1.73-.31-3.48-.44-5.23-.5.05-2.39.16-4.76.38-7.13 1.88 0 3.75.01 5.63.01-.08-1.67-.99-3.24-2.87-2.8-1.82.2-4.22-.75-5.62.76M231.02 223.62c2.93-.09 5.81-.74 8.39-2.17-.84 8.31-.39 16.64.24 24.94-2.85-.48-5.68-1.17-8.24-2.54-.3-.37-.88-1.13-1.18-1.5-.05-.18-.16-.52-.22-.69-.8-6.04-.05-12.09 1.01-18.04M297.68 223.83c1.94.04 3.89.21 5.82.51 1.57 5.74 1.82 11.83.79 17.68-.48 3.14-3.86 4.3-6.57 4.75.33-7.65.24-15.3-.04-22.94M231.07 246.07c2.9.92 6.61.75 8.79 3.17.49 4.78 2.81 9.15 3.02 13.94-6.02-3.98-8.39-11.12-11.81-17.11M296.57 249.8c.97-2.6 4.02-2.05 6.21-2.35-1.63 4.88-3.86 10.09-8.5 12.82.42-3.55 1.21-7.07 2.29-10.47"/><path d="M243.33 258.56c9.23 2.9 19.02 4.45 28.7 3.99 6.84-1.01 14.1-.74 20.34-4.14.72 2.82-.16 5.39-2.57 7.02l-.56.36c-3.25 1.85-6.67 3.37-10.05 4.97l-1.27.58c-5.21.41-10.44 1.62-15.65.67-6.55-.81-12.83-3.54-17.91-7.74-1.8-1.33-.76-3.85-1.03-5.71"/></g><g fill="#31ae97"><path d="M200.08 43.48c7.82-.82 15.73-2.04 23.6-1.03 4.24 1.02 5.05 5.94 5.54 9.6.47 8.61-.22 17.28.85 25.85 3.54.13 7.1-.7 9.94-2.89 4.99-3.71 9.9-7.61 15.42-10.54 2.83-1.77 5.96.23 8.57 1.46 8.15 4.37 16.75 7.87 25.58 10.61 2.92 1 6.19 2.13 7.76 5.02 3.53 6.02 5.2 13.07 9.33 18.75 18.96 5.46 38.14 10.28 57.2 15.45 3.11 1.35 5.71-1.45 8.44-2.5 5.27-2.26 10.78-4.74 16.66-4.41 5.06.04 10.2-.11 15.18.94 5.79 1.6 11.23 4.42 16.04 8.01 7.51 6.09 15.49 11.92 21.09 19.95 3.68 5.42 8.12 10.71 9.45 17.29.5 5.74.83 11.69-1.11 17.21-.9 2.69 2.24 3.93 3.95 5.22 6.27 3.37 9.13 10.75 9.55 17.49-1.74 7.52-2.22 15.54-.08 23.04 1.84 10.01-4.04 19.49-11.38 25.76-5.4 4.19-10.07 9.21-14.79 14.13-6.4 7.23-7.78 17.06-10.36 26.01-.07 6.52-1.11 13.26-4.71 18.85-1.98 3.09-5.71 4.38-7.96 7.18-1.68 3.43-2.64 7.18-4.3 10.63-2.44 5.83-9.12 9.01-10.49 15.4.38 4.13 1.85 8.07 2.35 12.18 1.24 12.12 3.84 24.06 7.07 35.79 1.58 5.58 1.8 11.49 3.77 16.97 2.11 3.16 6.57 3.14 9.23 5.71 6.13 4.78 5.73 13.6 4.08 20.42-1.44 5.02-2.87 11.14-8.15 13.46-3.98 2.04-8.4.59-12.41-.45-4.85.86-7.48 7.89-12.91 6.52-26.53-5.48-53.2-10.57-80.18-13.15-15.98-.32-31.98-.13-47.95-.9-14.33-.68-28.68-.8-43.02-.74-14.33.29-28.11 4.61-41.85 8.24-16.51 4.37-32.93 9.04-49.47 13.31-7.43 1.88-14.81 4.65-22.58 4.52-4.3-.05-8.64.27-12.91-.32-3.38-.68-5.59-3.55-7.05-6.46 2.48-4.17 2.32-9.76.27-14.06.57-8.45 3.76-16.47 4.39-24.91.55-4.36 2.84-8.29 5.53-11.67 4.97-6.4 7.54-14.3 8.99-22.18.48-3.09 1.98-6.09 1.56-9.26-3.12-3.89-7.91-5.84-11.81-8.79-3.29-2.16-5.39-5.58-7.22-8.97-3.24-5.4-3.45-12.31-7.99-16.97-3.75-4.43-9.49-6.09-14.87-7.55-8.66-2.82-16.73-7.19-24.43-12-3.73-1.95-5.95-6.69-4.45-10.73 1.35-4.76 5.7-7.56 9.03-10.85 4.54-3.94 6.92-9.66 8.78-15.23 1.59-4.47 1.06-9.31 1.07-13.96.07-5.8-4.22-10.23-6.47-15.25-1.56-4.2-.71-9.41 3.18-12.06 3.96-3.88 9.77-3.47 14.84-2.84 1.18-7.72 5.98-14.05 9.5-20.8 2.14-4.17 4.93-7.97 6.82-12.27-2.8-1.6-6.13-3.03-7.28-6.32-3.61-7.78 2.87-17.71 11.28-17.96 4.85 1.09 9.12 3.71 13.21 6.42 1.87 1.22 4.62 2.59 6.53.65 2.1-2.02 5.91-4.8 4.09-8.07-4.86-5.45-11.96-9-15.23-15.81-1.93-3.8-1.33-8.59 1.29-11.92 2.68-3.49 5.43-6.94 7.94-10.57-1.63-2.32-3.78-4.41-4.56-7.21-.81-3.8.27-7.73-.41-11.55-2.76-2.82-6.86-4.54-8.28-8.52-2.4-4.64-.63-9.85-.57-14.74-.79-4.38-2.66-8.65-2.02-13.19.03-4.49 3.5-8.16 7.51-9.71 2.83-1.25 6.21-1.29 8.63-3.38 4.79-3.85 9.91-7.31 14.37-11.56 3.47-3.11 7.79-6.15 12.7-5.65 5.33.19 9.83 3.48 13.58 6.98 5.93 5.33 12.87 9.6 20.51 11.97 1.51.42 3.12.76 4.65.18 5.32-.93 6.32-7.73 11.32-9.33 3.38-.4 6.8-.05 10.19 0 1.83-3.91 2.04-8.22 1.95-12.47-.25-2.77 2.12-5.38 4.89-5.47m-47.76 61.78c-12.25 5.58-19.97 17.98-23.14 30.69-1.5 6.74-3.36 13.98-.72 20.7 3.1 10.52 12.72 17.03 21.89 21.95 12.98 6.52 27.23 10.11 41.51 12.43 16.51 2.76 33.36 3.06 50.04 1.86 9.4-.47 18.79.65 28.16 1.24 8.85.53 17.64 3.51 24.51 9.2 9.58 7.04 15.29 18.84 15.25 30.67-.2 8.18-1.62 16.61-6 23.66-5.96 9.53-16.18 15.64-26.76 18.82-8.55 2.26-18.4 2.89-26.05-2.33-9.03-6.17-18.76-12.56-29.98-13.34-8.69-.49-16.14 4.32-23.51 8.16 3.08 3.65 4.46 9.54.6 13.17-1.6-4.26-2.51-9.1-5.89-12.39-3.3-2.94-7.45-4.64-11.26-6.79-3.56-1.91-6.54-4.71-9.36-7.56-4.83-4.9-7.86-11.39-13.45-15.57-5.59-4.74-12.83-7.28-20.1-7.67-8.5-.67-17.15.19-25.28 2.76-7.13 3.17-14.16 6.77-20.36 11.55-10.74 5.88-18.57 15.74-25.54 25.56-4.43 6-6.55 13.23-10.17 19.67-3.01 5.43-5.27 11.28-6.82 17.29-.94 1.56.82 2.57 1.88 3.27 6.66 4.2 14.11 7.02 21.62 9.3 6.55 2 11.79 6.87 15.77 12.28 3.91 6.32 4.49 14.59 10.17 19.83 4.15 3.17 9.11 5.35 12.48 9.49 2.53 2.53 3.39 6.27 2.83 9.75-.98 6.22-2.66 12.32-4.31 18.4-.81 2.7.68 5.31 1.57 7.79 4.93 11.36 11.2 22.29 19.76 31.32 3.79 4.18 8.23 7.69 12.38 11.51 15.27-4.01 30.5-8.12 45.76-12.17 8.15-2.21 16.43-3.83 24.77-5.07-.02-9.23 2.18-18.3 4.94-27.05 1.69-6.09-1.75-12.12-5.56-16.64-6.96-8.34-16.43-14.37-22.48-23.5-4.88-6.78-6.87-15.7-4.97-23.87 3.01-13.03 5.98-26.7 3.16-40.04-1.59-8.06-7.1-15.93-15.38-18.01-4.42-1.45-9.08-.51-13.62-.58 4.56-4.59 12.01-5.39 17.99-3.44 6.38 1.82 11.09 7.05 14.13 12.73 5.81 11.42 7.82 24.7 5.68 37.33-1.09 6.38-2.52 12.84-1.71 19.34 1.03 8.87 4.48 17.95 11.55 23.75 6.39 5.93 15.38 7.81 23.82 8.06 9.28-2.52 18.86 1.4 26.33 6.83 6.74 5.03 13.05 11.1 16.55 18.88 1.97-1.56 2.22-4.32 3.17-6.5 4.97-12.69-.65-26.55 2.31-39.5 3.38-3.55 7.77-5.99 11.19-9.51-5.62 1.58-10.42 5.14-15.2 8.35-1.18 7.52.95 15.12.43 22.69-.38 5.01-.07 10.5-2.66 14.99-3.2-4.93-5.63-10.32-9.09-15.09-4.98-7.86-11.91-14.17-19.05-20.02-1.62-1.39-3.65-2.41-4.86-4.21.05-5.17 2.68-10.41 6.94-13.43 3.82-2.67 6.77-6.58 8.15-11.05-3.77-2.24-8-4.94-8.79-9.64 8.7 1.96 17.8 3.99 26.65 1.65 1.8-.93 5.56-.51 5.8-2.99-1.81-4.2-2.72-8.99-1.26-13.44 2.23-4.83 6.39-8.5 11-11.01 8.44-4.72 17.48-8.35 25.7-13.48 6.22-4.2 11.35-9.78 15.87-15.73 4.7-6.22 7.51-13.6 10.18-20.85-2.22-2.98-8.2-1.89-9.48-5.86 2.84-.7 5.78-.14 8.67-.23-.15-2.45.1-5.44-2.21-7.02-3.16-3.17-7.94-3.24-11.49-5.7 2.55-2.65 6.36-2.43 9.74-2.58-.75-2.36-1.98-4.66-4.13-6.01-3.57-2.13-7.87-2.04-11.84-2.68 2.04-2.55 5.32-3.38 8.29-4.32-.35-2.2-1.62-4.82-4.08-5.11-3.91-.17-7.76.69-11.6 1.21.7-3.13 3.65-4.61 6.29-5.85 1.34-.37 3.07-2.1 1.29-3.23-4.39-3.43-10.15-.38-14.96.48 1.13-3.66 4.57-5.61 7.35-7.91-2.58-1.5-5.64-1.2-8.44-.64-3.2.67-5.65 3.83-9.13 3.12.71-2.3 1.7-4.54 3.43-6.26 1.07-.69 1.96-3.29-.16-3.19-5.44-1.4-7.22 6.29-12.15 6.35 1.22-3.85 3.83-6.92 6.38-9.95-3.23-.26-6.91-.96-9.65 1.25-3.16 1.77-4.89 5.23-8.1 6.9.3-3.56 1.96-6.73 3.64-9.81-1.81-.61-3.97-1.55-5.69-.19-3.46 1.9-4.24 6.46-7.78 8.18.07-3.14.99-6.14 2.27-8.97-2.64-.33-5.43-.64-7.98.26-2.19 1.82-2.98 4.75-4.29 7.18-1.05-.22-2.09-.45-3.13-.68.08-2.42.2-4.84.3-7.26-1.69.01-3.75-.9-5.14.46-1.21 2.02-1.98 4.26-2.92 6.41-.83.01-2.47.02-3.3.03-.12-2.29 0-4.57.23-6.84-8.25.18-16.4-1.28-24.63-1.54-13.37-1.15-26.85-.73-40.16-2.62-7.53-1.33-15.34-2.26-22.19-5.91-3.66-1.7-6.64-4.69-8.44-8.3-3.6-6.7-2.83-14.89-.36-21.84 2.92-7.15 8.01-13.44 14.37-17.8 4.19-2.86 9.34-2.88 14.2-3.09 2.33-1.1 4.21-3.06 6.31-4.55-.01-.3-.05-.9-.06-1.2-9.16-3.24-19.58-3.46-28.43.86m22.96 10.2c2.94-.61 5.94-.82 8.76.38-.5-2.09-1.01-4.72-3.09-5.79-2.81.28-4.66 3.01-5.67 5.41m1.15 4.01c-3.33 2.14-4.62 6.29-5.91 9.85-2.42 9.19-2.5 19.59 2.03 28.16 1.36 2.99 4.83 4.84 8.05 4.03 3.66-1.42 6.34-4.77 7.17-8.58 1.56-6.85 2.12-13.98 1.28-20.98-.37-3.92-1.02-8.19-3.94-11.1-2.2-2.29-5.86-2.65-8.68-1.38m17.57-.24c.03 1.95.08 3.91.16 5.86 2.2.14 4.39.21 6.59.27-.39 10.78-.88 21.57-1.05 32.36l3.68-.24c.94-10.67.74-21.39 1.17-32.08 2.26.03 4.52.07 6.79.07l.06-5.51c-5.8-.26-11.6-.4-17.4-.73m20.94.81c-.65 11.73-.63 23.49-1.19 35.23 4.68-1.31 9.56-1.17 14.37-1.39-.01-1.76-.05-3.52-.09-5.28-3.22.08-6.44.19-9.66.16-.07-3.19-.04-6.39.03-9.59 3.01-.01 6.02.03 9.03.05.02-1.93.03-3.86.02-5.78-3.02.08-6.05.19-9.07.18-.07-2.79-.01-5.59.12-8.38 3.24.05 6.49.13 9.74.14-.02-1.78-.04-3.56-.07-5.33-4.41.04-8.82-.17-13.23-.01m29.8.43c-.21 10.71-.16 21.43-.47 32.14 4.63-.39 9.54.27 13.96-1.39 5.96-4.28 6.77-12.54 5.89-19.27-.76-3.65-1.72-7.93-4.97-10.16-4.65-1.37-9.61-1-14.41-1.32m23.61.66c.16 1.88.34 3.77.48 5.65.8-.16 1.6-.32 2.41-.47.27-1.67.63-3.35.47-5.04-1.12-.13-2.24-.18-3.36-.14m7.59.9c-.25 10.25-.72 20.52-.7 30.79 1.53.14 3.07.27 4.61.4.39-10.04.6-20.09.63-30.14.36-2.26-3.61-2.24-4.54-1.05m11.02-.88c3.11 10.99 3.59 22.61 7.62 33.35.58 1.51 3.7 2.37 4.03.3 2.21-11.22 6.71-21.89 8.01-33.3-1.38.38-4.42-.81-4.49 1.49-1.4 7.8-2.58 15.79-5.86 23.07-1.11-8.1-2.53-16.15-4.49-24.09-1.6-.3-3.21-.57-4.82-.82m29.44 1.45c-2.95 1.57-4.25 4.92-5.04 7.97-1.41 6.11-2.03 12.52-.75 18.71.67 3.65 2.06 7.69 5.51 9.59 3.22 1.34 7.64 1.25 9.85-1.85 4.97-5.82 5-13.84 4.65-21.07-.07-4.37-1.56-8.77-4.46-12.08-2.35-2.75-6.71-2.68-9.76-1.27m19.87-.42c-.54 11.25-.91 22.5-1.08 33.76.05 2.62-.42 5.36.35 7.91 1.31.87 4.82 3.03 4.76.1.27-13.67.99-27.35.9-41.02-1.36-1.03-3.33-.47-4.93-.75m12.41.58c-.39 14.44-.86 28.87-.88 43.31-.48 2.69 2.46 3.66 4.59 3.62.1-6.61-.42-13.3.51-19.85 3.53-.82 4.79 2.91 5.52 5.55 1.35 5.78 1.8 11.73 2.9 17.56.39 2.15 2.75 2.89 4.57 3.41-1.23-9.02-1.06-18.51-5.61-26.7 5.32-2.79 5.96-9.29 5.94-14.65.13-3.97-.28-8.83-3.8-11.31-4.43-1.36-9.17-.68-13.74-.94m23.1 57.14c4.49 1.84 8.34 4.83 12.66 6.99.06-1.63.45-3.4-.42-4.89-2.13-2.43-5.04-3.99-7.79-5.59-.18-7.18.4-14.35.61-21.52 2.83.1 5.67.22 8.51.32.14-1.68.26-3.36.38-5.04-2.88-.16-5.75-.21-8.62-.15-.54-6.84.22-13.69 0-20.53 3.09.14 6.19.22 9.3.15-.04-1.87-.09-3.73-.17-5.59-4.47-.21-8.96-.22-13.43-.31-.02 18.73-1.74 37.43-1.03 56.16m-111.87 17.37-.62.15c-13.87 1.96-25.15 13.56-28.99 26.72-1.25 5.69-2.64 11.94-.29 17.52.06.17.17.51.22.69.1 5.65 3.34 10.55 6.24 15.17 3.06 4.92 8.12 8.04 12.95 10.99 8.63 4.62 19.13 5.87 28.5 2.83l1.27-.58c3.76-.5 7.19-2.55 10.05-4.97l.56-.36c9.88-6.63 15.91-18.58 15.4-30.48-.24-6.24-.82-12.84-4.17-18.28-1.03-2-2.18-3.97-3.73-5.61-3.75-4.89-8.69-9.04-14.46-11.32-7.15-2.89-15.37-4.86-22.93-2.47m90.53 8.53c-.59 5.03.67 10.07-.07 15.09-1.21 8.42-2.17 17.02-5.53 24.92-3.45 8.84-9.08 16.64-15.4 23.65-8.63 8.92-19.43 15.43-30.73 20.4-6.67 3-14.27 6.65-16.82 14.09-1.98 3.94 1.73 9.19 6.09 8.72 6.01-.22 11.12-3.69 16.02-6.8 14.75-9.04 28.3-20.35 38.66-34.29 6.9-10.28 12.17-22.07 12.63-34.61.31-10.51-.35-21.52-4.85-31.17m20.26 25.84c-4.04 11.91-8.34 23.98-15.5 34.42-2.82 4.51-7.23 8.31-8.11 13.77 4.34.03 7.23-3.37 10.01-6.18 1.15-1.67 3.75-.98 4.66-2.92 6.57-9.57 10.3-21.13 10.35-32.75-.19-2.14.19-4.65-1.41-6.34m-30.91 50.29c-2.5 4.08-7.1 6.88-8.1 11.83-2.24 9.61-6.49 18.68-12.05 26.82-1.72 2.45-3.6 4.83-4.74 7.62 2.92-1.3 5.23-3.58 7.4-5.87 3.59-3.81 7.13-7.74 9.68-12.34 5.12-8.82 7.18-18.93 10.1-28.59.45-1.11 1.06-2.14 1.54-3.23-2.14-.02-2.82 2.31-3.83 3.76m-82.11 72.14c2.58 3.59 5.15 7.22 7 11.26 1.77 3.15 2.83 6.94 5.96 9.08.08-5.9-1.06-11.71-1.97-17.51-.32-1.62-.58-3.45-1.89-4.6-3.16-.88-6.39.13-9.1 1.77m-12.5 36.14c-1.64 3.03-.36 6.61-.04 9.82 1.51 8.15 2.25 16.49.86 24.71 2.87.06 5.79.33 8.63-.22 2.35-.64 3.25-3.29 3.38-5.47.71-8.08 2.25-16.07 3.22-24.12-.07-1.63.7-4.03-1.25-4.81-2.53-.9-5.29-.65-7.93-.88-2.29.01-4.86-.4-6.87.97m-138.35 8.59c-2.56 4.15-5.78 7.95-7.58 12.53-1.44 3.28-.97 6.96-1.73 10.39-1.07 4.72-2.62 9.42-2.44 14.33.2 4.84.42 9.68.43 14.53 7.75.66 15.76.67 23.24-1.71 7.03-2.08 14.14-3.87 21.26-5.62-4.23-3.58-8.58-7.07-12.25-11.24-8.89-9.74-15.31-21.37-20.93-33.21"/><path d="M177.37 126.33c1.98-1.82 4.98-.72 5.79 1.71 3.79 8.23 3.64 19.05-2.2 26.27-5.05 1.16-7.43-5.25-7.67-9.28-.03-6.27-.84-13.92 4.08-18.7M249.69 126.15c3.38.14 8.02 0 9.33 3.92 1.15 4.17 1.09 8.76.02 12.94-1.15 4.11-6.34 2.89-9.54 3.25-.16-6.7.14-13.41.19-20.11M317.28 128.35c3.95-2.81 8.45 1.54 8.75 5.57.7 5.5.9 11.52-1.52 16.65-1.31 2-4.41 4.72-6.7 2.59-3.83-2.71-3.42-7.99-3.37-12.14.48-4.25.21-9.04 2.84-12.67M353.01 129.53c2.33.08 4.69.03 6.98.53 1.9.84 1.39 3.29 1.68 4.95-.05 2.73.39 5.91-1.38 8.22-2.4.79-4.97.73-7.46.86.33-4.85.26-9.7.18-14.56M345.4 256.52c2.32-3.67 3.8-7.89 6.79-11.11-.61 6.95-4.23 13.11-7.58 19.06-11.88 20.34-31.25 35.46-52.67 44.76-2.58 1.1-7.01 1.21-7.71-2.22 1.4-2.56 4.79-3.1 7.22-4.37 22.77-8.25 42.03-25.12 53.95-46.12M218.22 280.12c1.39-3.63 4.47-7.21 8.72-6.87 7.58.46 14.32 4.97 19.52 10.25 2.92 2.81 5.42 6.1 6.86 9.92-4.11-.93-8.16-2.6-12.43-2.49-1.73.59-3.34 1.49-4.98 2.28q.165-2.265.3-4.53c-1.83.32-2.93 1.84-4.1 3.12-2.13-.97-4.24-1.99-6.3-3.1 1.11-3.15 3.7-6.03 7.15-6.42 3.55.43 6.44 2.92 9.98 3.48-2.69-4.37-7.88-7-12.86-7.46-2.65 1.36-4.88 3.4-7.29 5.13-1.65-.91-3.18-2.03-4.57-3.31"/></g></svg>