<svg xmlns="http://www.w3.org/2000/svg" viewBox="0.15 0.3 284.7 349.26"><defs><clipPath id="a" clipPathUnits="userSpaceOnUse"><path d="M0 800h800V0H0Z"/></clipPath></defs><g style="fill:#0f0"><g clip-path="url(#a)" style="fill:#0f0" transform="matrix(.97731 0 0 -.95646 -17.885 561.632)"><path d="M0 0v28.607h226.368V0h32.337v-184.701s3.213-50.788-36.276-95.562c0 0-40.423-47.885-110.386-56.282 0 0-58.768 5.908-103.544 51.306 0 0-39.489 35.447-41.044 99.503V-.104Z" style="fill:#d3aa75;fill-opacity:1;fill-rule:nonzero;stroke:none" transform="translate(51 558.275)"/><path d="M164.112 560.97H57.634v19.279h106.478z" style="fill:#ffce00;fill-opacity:1;fill-rule:nonzero;stroke:none"/><path d="M270.629 560.97h-43.221v19.279h43.221z" style="fill:#e5073a;fill-opacity:1;fill-rule:nonzero;stroke:none"/></g><path d="M1835.407 517.37V703.45h418.074V517.37ZM361.409 796.48v1749.702c21.46 636.254 490.656 987.393 490.656 987.393 444.65 348.136 877.91 375.152 877.91 375.152 589.658-72.02 949.786-438.166 949.786-438.166 469.19-456.189 417.06-960.39 417.06-960.39V796.48Zm318.911 231.095 659.335 306.113v465.2l214.663 105.036v-570.236h383.315v180.084h-193.181v480.187l49.046 21.009 233.082-114.055v201.092l-239.207 113.547-42.921-23.514v726.3h190.12V3104.4h-377.19v-999.397l-217.727-99.04v999.411h-187.07v-1557.63L680.32 1225.642Zm2100.624 0v195.069l-469.169 225.1v1551.62h-187.072V1333.688ZM680.32 1543.772l371.081 177.057v198.081L680.32 1744.853Zm2100.624 0v201.079l-371.049 174.06v-198.08zM680.32 1969.937l185.54 84.025v450.198s-23.006 318.109 262.195 600.224c0 0 217.32 237.1 602.384 240.102 0 0 286.936 27 578.257-219.104 0 0 272.93-204.064 286.739-624.233v-435.183l185.526-96.03v536.218s11.242 392.154-283.158 692.282c0 0-200.35 236.103-564.257 308.134 0 0-92.952 5.981-202.875 90.022 0 0-66.99-64.027-179.43-88.041 0 0-347.548-36.001-633.762-362.132 0 0-210.578-232.11-237.159-610.261z" style="fill:#025;fill-opacity:1;fill-rule:nonzero;stroke:none;stroke-width:9.75655" transform="matrix(.0991 0 0 .0991 -28.894 -44.919)"/></g></svg>