<svg xmlns="http://www.w3.org/2000/svg" xml:space="preserve" version="1.0" viewBox="0 0 238.71 238.71"><circle cx="119.354" cy="119.354" r="119.354" style="fill:#fff;fill-opacity:1;fill-rule:evenodd;stroke:none;stroke-width:11.4709;stroke-linecap:square;stroke-linejoin:round;stroke-dasharray:none;stroke-opacity:1"/><path fill-rule="evenodd" d="m113.613 39.503 85.594 99.163h34.775c.8-4.782 1.324-9.656 1.529-14.615h-4.99z" clip-rule="evenodd" style="stroke-width:.460717"/><path fill="#e2001a" fill-rule="evenodd" d="M235.152 109.1 109.44 36.372l105.424 25.051s12.485 12.49 18.358 34.383a116 116 0 0 1 1.931 13.294" clip-rule="evenodd" style="stroke-width:.460717"/><path fill-rule="evenodd" d="M65.599 110.482 10.383 78.784a115.6 115.6 0 0 0-5.908 22.655l78.869 18.437z" clip-rule="evenodd" style="stroke-width:.460717"/><path fill="#e2001a" fill-rule="evenodd" d="m3.29 112.783 80.054 7.094L4.386 136.5A116 116 0 0 1 3.1 119.354c0-2.206.068-4.395.19-6.57" clip-rule="evenodd" style="stroke-width:.460717"/><path fill-rule="evenodd" d="m65.065 212.949-8.143-4.64 7.402-12.986 8.029 4.573-1.355 2.38-5.278-3.006-1.551 2.723 5.033 2.871-1.357 2.377-5.035-2.867-1.78 3.122 5.392 3.073zm112.059-.05-3.111 1.392-2.161-2.275-5.186 2.32.339 3.089-3.062 1.37-1.428-15.737 3.351-1.497zm-11.43-7.35.672 6.068 3.57-1.601zm-5.282 1.4-5.293 1.798 1.07 3.153 5.294-1.796.878 2.594-5.29 1.8 1.972 5.808-2.999 1.018-4.808-14.155 8.293-2.817zm-10.676 16.188-2.62.49-8.668-8.123 1.762 9.417-3.115.58-2.748-14.693 2.857-.536 8.348 7.74-1.681-8.983 3.115-.585zm-13.926 2.573-3.404.21-1.227-2.886-5.67.355-.763 3.013-3.349.206 4.183-15.237 3.663-.23zm-8.128-10.892-1.498 5.914 3.905-.242zm-6.966-3.362-3.166-.051-.246 14.945 3.168.054zm-3.644 2.841-4.585-.413-1.102 12.16-3.153-.288 1.102-12.16-4.546-.412c.08.562.062 1.13-.04 1.655-.404 2.065-2.109 4.188-4.98 3.63l-2.467-.482-1.15 5.895-3.11-.605 2.748-14.092-6.653 5.77-2.029 6.69-3.03-.917 2.027-6.695-2.487-9.066 3.672 1.115 1.279 5.29 4.017-3.687 3.302 1 .015-.082 5.56 1.082c2.037.399 3.037 1.836 3.302 3.353l.235-2.583 12.32 1.115zm-19.248 1 1.445.282c1.426.279 2.055-.224 2.27-1.322.242-1.248-.273-1.816-1.955-2.145l-1.098-.216zm-15.55-6.293c-1.12-1.493-2.373-2.537-3.809-3.159-3.16-1.373-5.267.436-6.149 2.467-1.055 2.436-.129 4.748 2.281 5.793.717.312 1.111.388 2.14.359l.699-1.61-1.693-.734 1.09-2.514 4.598 1.995-2.433 5.61c-1.336.686-3.829.535-5.709-.281-4.068-1.764-5.69-5.932-3.911-10.036 1.815-4.181 5.934-5.81 10.087-4.008 1.743.757 3.235 1.953 4.11 3.122z" clip-rule="evenodd" style="stroke-width:.460717"/><path fill="#009036" fill-rule="evenodd" d="M51.168 167.142H33.161v-13.015h3.427v9.787h11.155v-3.033h-6.948v-9.984h10.373v3.23H44.22v3.328h6.948zm141.1 20.062h-37.653v9.883h-10.47v-3.425h7.046v-16.147h3.424v6.263h23.372v-2.937h-16.144v-9.98h16.144v3.426h-12.914v3.131h16.34v6.36h7.43v-15.56h3.425zm-51.364 0h-10.373v-9.689h6.949q.1-1.113 0-2.348h3.424zm-4.697-14.19h-2.643v-2.74h2.643zm1.273 10.764v-2.837h-3.523v2.837zm3.424-10.764h-2.74v-2.74h2.74zm-23.4 14.19h-3.23v-18.986h3.23zm-7.47 0H72.485v-3.426h6.164v-2.832a5.7 5.7 0 0 0-1.957 0v-3.43h5.382v6.262h6.683v-6.164h10.373v6.164h7.477v-15.56h3.425zM92.77 174.48h-2.74v-2.74h2.74zm2.935 6.557h-3.522v2.74h3.522zm1.664-6.557h-2.74v-2.74h2.74zm-28.817 11.254q-.001 2.458-1.676 4.168-1.674 1.702-4.174 1.703-4.146 0-5.623-4.403h-1.25v13.112h-3.423v-16.537h4.742q1.691-3.913 5.475-3.915 2.653 0 4.29 1.624 1.64 1.62 1.639 4.248m-4.013-.2c0-.508-.188-.947-.567-1.307a1.88 1.88 0 0 0-1.36-.547q-1.987 0-1.987 1.962 0 1.854 1.928 1.853 1.986 0 1.986-1.962m144.978-23.383h-3.23v-18.985h3.23zm-7.367 0h-14.874v-3.23h4.307v-15.559h3.227v15.56h3.914v-15.56h3.426zm-17.34 0h-33.554V143.07h3.424v15.657h14.571v-2.642h-7.828v-3.426h11.253v6.362h8.905v-6.362h3.23v9.493zm-7.535-12.723h-2.64v-2.642h2.64zm4.599 0h-2.543v-2.642h2.543zm-33.921 12.723h-9.396v-3.425h6.263v-2.739a9.2 9.2 0 0 0-2.056 0v-3.426h5.189zm-22.813 0h-3.23v-18.985h3.23zm-7.014 0h-8.104q-.62 1.179-1.182 2.31-1.577 2.19-4.39 2.19-2.815.001-4.277-2.136c-.376-.788-.77-1.58-1.182-2.364H64.348v9.883h-10.47v-3.424h7.045v-16.147h3.425v6.263h6.933v-8.612h3.425v2.252h17.585v6.36h6.71q.675-.448 1.35-1.55.677-1.097 1.299-1.547.957-.623 2.819-.621 1.972-.001 2.988.657.618.436 1.296 1.528.678 1.097 1.297 1.533h4.848v-15.363h3.23zm-11.742-1.559q0-1.823-2.014-1.823-1.902 0-1.901 1.881 0 .853.558 1.422c.372.376.84.568 1.399.568.521 0 .979-.212 1.37-.628q.588-.621.588-1.42m-17.52-4.804h-14.16v2.938h14.16zm-47.19 15.855h-2.74V169.1h2.74zm4.6 0h-2.74V169.1h2.74z" clip-rule="evenodd" style="stroke-width:.460717"/><path d="m49.33 99.198-.056-.09-.025-.05-1.945-3.971-.017-.035-.036-.094-1.547-4.107-.03-.076-.018-.07-1.144-4.33-.013-.046-.016-.106-.697-4.469-.023-.152-.245-4.633-.004-.077.004-.076.245-4.563.023-.152.697-4.49.016-.106.013-.047 1.144-4.305.013-.048.035-.092 1.547-4.131.036-.096.022-.045 1.945-3.947.037-.074.034-.055 2.336-3.746.035-.056.047-.062 2.654-3.47.044-.056.05-.054 3.013-3.225.035-.036.07-.064 3.294-2.92.058-.05.042-.032 3.54-2.618.061-.045.061-.038 3.794-2.28.07-.042.06-.029 4.072-1.918.092-.042.043-.016 4.235-1.525.064-.023.071-.019 4.41-1.128.07-.018.076-.012 4.579-.687.099-.014.047-.004 4.713-.257.08-.004.078.004 4.675.257.03.002.105.016 4.588.687.091.014.06.016 4.41 1.128.071.019.064.023 4.24 1.525.074.026.066.032 4.012 1.918.028.014.095.056 3.829 2.281.06.037.063.046 3.538 2.618.1.081 3.305 2.921.077.068.034.037 2.98 3.226.042.045.047.06 2.66 3.47.047.06.035.057 2.333 3.746.045.073.025.05 1.98 3.947.032.064.032.088 1.516 4.131.04.123 1.17 4.305.009.03.02.129.72 4.49.024.143v.015l.233 4.563.002.073-.002.074-.232 4.632-.001.026-.024.138-.72 4.47-.018.115-.01.039-1.17 4.328-.018.063-.023.065-1.516 4.107-.034.09-.03.062-1.98 3.971-.019.04-.056.09-2.334 3.713-.04.064-.037.047-2.659 3.488-.043.056-.052.056-2.98 3.203-.09.096-.004.004-3.304 2.956-.013.011-.105.076-3.538 2.594-.089.065-.028.017-3.83 2.281-.025.016-.103.049-4.012 1.896-.056.027-.073.027-4.239 1.547-.085.031-.06.016-4.41 1.118-.073.019-.074.01-4.588.673-.105.015-.041.003-4.676.235-.07.005-.07-.005-4.713-.235-.041-.002-.105-.016-4.579-.672-.073-.011-.072-.019-4.412-1.118-.06-.016-.086-.03-4.235-1.548-.124-.048-4.072-1.897-.036-.016-.1-.06-3.793-2.28-.07-.043-.046-.034-3.54-2.594-.105-.076-.012-.011-3.295-2.956-.087-.094-3.013-3.203-.055-.06-.045-.058-2.654-3.488-.036-.047-.04-.064z"/><path fill="#fff" fill-rule="evenodd" d="m77.258 33.8-1.771 10.379-15.722 10.114-7.064-2.303 1.257-1.712 1.465-1.77 1.539-1.722 1.372-1.373 1.676-1.63 1.768-1.545 2.969-2.258 2.198-1.48 2.016-1.195 2.721-1.327 3.087-1.305zm2.791 62.855 18.077.547 8.003 10.915-6.456 11.416-20.08-1.024-8.748-12.217zm19.624-1.292 5.167-12.734 14.93-5.444 6.699 9.856-4.649 12.474-13.899 6.777zm28.85-7.25-4.377 11.928-.07.347 3.664 4.009.767-.91.712-.967.873-1.326 1.379-2.133 1.226-2.208 1.143-2.55.882-2.303.803-2.375.508-1.72.346-1.56-5.556 1.243zm-74.934 11.928-.888 1.748-2.189-3.714-.979-2.214-1.125-2.212-.722-2.035-.663-1.733-.571-2.06-.43-2.095-.226-1.545 3.915.8 3.646 14.034zm20.318-20.447-13.114-5.529-9.008 10.38 3.58 15.07 13.677 5.216 8.855-9.496zm19.35-12.547 2.025-13.244 15.993-4.676 11.569 10.906-3.869 14.557-13.73 4.992L93.257 68.62zm19.296-20.028 11.89 11.824 8.301-1.722-.574-1.06-.974-1.687-2.419-3.663-1.842-2.457-2.492-2.734-2.668-2.54-2.25-1.768-4.097-2.77-3.314-1.897zM61.558 70.935l-.27-15.072 15.469-9.88 15.712 7.82-2.319 14.024-14.942 9.09-7.96-3.641Z" clip-rule="evenodd" style="stroke-width:.460717"/><path d="M238.709 119.354c0 32.958-13.36 62.798-34.958 84.397-21.598 21.598-51.437 34.957-84.396 34.957s-62.8-13.359-84.398-34.957C13.36 182.15 0 152.312 0 119.353c0-32.96 13.36-62.798 34.957-84.396C56.557 13.359 86.396 0 119.355 0s62.798 13.36 84.397 34.958 34.957 51.437 34.957 84.396M138.62 71.808l37.193 65.292h55.312a114 114 0 0 0 1.383-17.746c0-31.247-12.664-59.537-33.14-80.012a114 114 0 0 0-9.6-8.569l-76.02 5.043-3.955-1.892-.067-.032-.074-.027-2.166-.78 78.49-5.205a112.9 112.9 0 0 0-26.436-14.337l-56.033 18.303-2.639-.675-.06-.016-.092-.014-3.554-.532 57.543-18.775a112.5 112.5 0 0 0-22.413-4.9L95.817 30.426l-4.5-.247-.078-.004-.08.004-.798.044 36.873-23.75q-3.904-.271-7.88-.273c-4.213 0-8.37.233-12.464.683L83.597 30.859l-1.875.282-.076.012-.07.017-3.507.898L101.897 7.54a112.4 112.4 0 0 0-18.851 4.613l-9.133 21.31-1.117.402-.043.017-.092.042-2.937 1.383L79.027 13.6a112 112 0 0 0-10.998 4.885l-3.354 19.703-.01.006-.061.038-.06.045-3.494 2.582 3.493-20.518a113 113 0 0 0-7.727 4.701l.518 19.136-2.843 3.043-.05.055-.044.057-.108.142-.55-20.316a113 113 0 0 0-7.258 5.63l2.552 22.454-1.723 3.498-.023.045-.035.096-.73 1.947-2.903-25.543a114 114 0 0 0-4.277 4.056q-1.409 1.411-2.767 2.87l8.572 22.858-.635 2.388-.012.048-.017.105-.501 3.237-9.762-26.03a114 114 0 0 0-7.76 9.913l17.11 23.223.192 3.648.024.152.348 2.233-19.53-26.507a113 113 0 0 0-6.523 11.348l29.104 25.957.065.173.036.094.017.035 1.945 3.97.025.05.057.091 2.336 3.714.04.064.037.047.042.056L16.669 71.76C9.951 86.228 6.2 102.353 6.2 119.354c0 6.039.475 11.964 1.387 17.747h58.938l25.348-13.52 4.109-.209.041-.003.105-.014 3.854-.565-26.83 14.31h17.174l12.218-14.874 2.728-.69.06-.017.086-.03 2.527-.923-13.582 16.535h9.913L114.98 117.3l2.776-1.653.028-.017.089-.066 2.646-1.939-12.69 23.478h7.813l8.17-26.261 1.021-.915.004-.004.09-.096 2.98-3.203.052-.056.043-.055.639-.838-9.725 31.428h9.372l5.308-38.931 1.532-3.072.03-.063.033-.089 1.516-4.107.023-.065.017-.064 1.17-4.328.012-.038.017-.115.72-4.47.024-.139v-.025l.233-4.632.003-.074-.003-.073-.232-4.563-.001-.015-.023-.143zm91.965 68.424H8.125c4.268 22.877 15.415 43.333 31.217 59.134 20.476 20.476 48.765 33.142 80.013 33.142 31.246 0 59.537-12.666 80.013-33.142 15.801-15.801 26.95-36.257 31.217-59.134m-58.366-3.131L140.33 81.119l16.555 55.982zm-18.59 0L138.25 85.122l3.8 51.979zm-14.728 0-2.586-35.76-4.876 35.76z" style="stroke-width:.460717"/></svg>