<svg xmlns="http://www.w3.org/2000/svg" viewBox="0 0 234.17 276.7"><defs><style>.b{fill:#253b60}.c{fill:#045327}.d{fill:#a11a17}.e{fill:#f9c400}</style></defs><path d="M512 647.34C437.73 626.92 398.37 583.88 398.37 523V376.41h227.49V523c.02 60.88-39.61 103.92-113.86 124.34" style="fill:#fff" transform="translate(-394.92 -373.65)"/><path d="M0 0v149c0 30.44 9.59 56.76 28.53 78.16 19.83 22.44 49.62 39.08 88.54 49.49 38.94-10.41 68.72-27.05 88.57-49.49 18.91-21.4 28.53-47.7 28.53-78.16V0Zm228.27 149c0 59.48-38.68 101.5-111.2 121.44C44.57 250.5 6.14 208.44 6.14 149V5.97h222.1v143.08Z" class="b"/><path d="M113.62 186.54a1.13 1.13 0 0 0 0-1.08c-.16-.18-.4-.16-.67 0a4 4 0 0 0-1.42 2c-.07.15-.11.33-.18.49a9 9 0 0 0-.44 2.48 20 20 0 0 0 1.71-1.9 4 4 0 0 0 .27-.4 9 9 0 0 0 .73-1.59" class="c"/><path d="M107.74 179.64a4 4 0 0 0-1.58 5 5.43 5.43 0 0 0 5.12 3.32c.07-.15.11-.33.18-.49a3.88 3.88 0 0 1 1.42-2 17.7 17.7 0 0 0-.64-2.92 15.2 15.2 0 0 0-1.74-2.85 3.67 3.67 0 0 1-2.76-.06m9.13-4.29a6.4 6.4 0 0 1-.65-2.92 1.5 1.5 0 0 1 0-.29c-.82-.66-3.74-2.67-6.52-.4a5 5 0 0 0-1.33 6.3 6.4 6.4 0 0 1 2.36.75 29 29 0 0 1 2.76-2 14.8 14.8 0 0 1 3.38-1.44" class="d"/><path d="M108.08 177.96a6.7 6.7 0 0 0-3.09.18s.42.84 2.67 1.48h.07a3.8 3.8 0 0 0 2.76 0 .65.65 0 0 0 .42-.62.63.63 0 0 0-.22-.33 6.4 6.4 0 0 0-2.36-.75.8.8 0 0 1-.25.04" class="c"/><path d="M121.74 184.75a19 19 0 0 0-3.94.26 23.5 23.5 0 0 0-4.18 1.5 6.5 6.5 0 0 1-.8 1.57 2 2 0 0 1-.27.4 6.51 6.51 0 0 0 5.85 2.3c3.85-.46 4.81-3.09 5-3.74a4 4 0 0 1-.27-.31 9 9 0 0 1-1.39-1.98m4.54-7.19a10 10 0 0 1-1 .49 11.4 11.4 0 0 1-2.43.75 8 8 0 0 0-.51 2.39 12 12 0 0 0 .25 2.67 11.2 11.2 0 0 1 1.67 1.77l.16.22a7 7 0 0 1 .38.62c1.13 0 3.67-.27 4.21-3.85.63-4-2.17-4.93-2.73-5.06m-.44-.95c.09-.46.85-4.35-2.65-6.15a4.73 4.73 0 0 0-5.5 1 5 5 0 0 1 .09.66 7.9 7.9 0 0 1-.09 3 15 15 0 0 0 2.54 1.57 15.6 15.6 0 0 0 2.67 1 15 15 0 0 1 1.89-.71 5 5 0 0 1 1.05-.37" class="d"/><path d="M117.78 172.06c0-.26-.07-.46-.09-.66-.29-1.3-.91-1.5-.91-1.5s-.62.38-.56 2.21v.24a6.85 6.85 0 0 0 .65 2.92.45.45 0 0 0 .45.22c.16 0 .27-.2.36-.46a8.4 8.4 0 0 0 .1-2.97m8.5 5.5a8.4 8.4 0 0 0 1.8-1.13 7.3 7.3 0 0 0-2.25.18 9 9 0 0 0-1.07.27 20 20 0 0 0-1.89.69c-.51.26-.8.57-.69.91s.31.33.65.33a11.4 11.4 0 0 0 2.43-.75c.27-.12.62-.3 1.02-.5m-2.05 8.07a10.2 10.2 0 0 0-1.67-1.77 1.9 1.9 0 0 0-.51-.31.51.51 0 0 0-.49 0c-.13.13-.13.33 0 .62a2.5 2.5 0 0 0 .22.53 10.3 10.3 0 0 0 1.38 2 4 4 0 0 0 .27.31 1.4 1.4 0 0 0 .2.18 2.94 2.94 0 0 0 1.74.86 3.5 3.5 0 0 0-.53-1.66 7 7 0 0 0-.38-.62 1.5 1.5 0 0 0-.23-.14" class="c"/><path d="M119.52 179.66c.31 1.19-.67 2.5-2.2 2.9s-3-.26-3.36-1.46.67-2.48 2.23-2.87 3.01.24 3.33 1.43" class="e"/><path d="M196 186.54a1.13 1.13 0 0 0-.07-1.08q-.23-.26-.67 0a4 4 0 0 0-1.42 2 4 4 0 0 0-.16.49 8.7 8.7 0 0 0-.47 2.48 24 24 0 0 0 1.71-1.9l.27-.4a9 9 0 0 0 .81-1.59" class="c"/><path d="M190.08 179.64a4 4 0 0 0-1.56 5 5.4 5.4 0 0 0 5.14 3.32 4 4 0 0 1 .16-.49 3.88 3.88 0 0 1 1.42-2 15.7 15.7 0 0 0-.64-2.92 18 18 0 0 0-1.74-2.85 3.73 3.73 0 0 1-2.78-.06m9.15-4.29a6.76 6.76 0 0 1-.64-2.92v-.29c-.8-.66-3.74-2.67-6.5-.4a5 5 0 0 0-1.33 6.3 6.5 6.5 0 0 1 2.38.75 29 29 0 0 1 2.76-2 14.5 14.5 0 0 1 3.33-1.44" class="d"/><path d="M190.46 177.96a6.54 6.54 0 0 0-3.07.18s.4.84 2.67 1.48a3.84 3.84 0 0 0 2.78 0c.33-.18.47-.42.42-.62a.53.53 0 0 0-.22-.33 6.2 6.2 0 0 0-2.38-.75 1 1 0 0 1-.2.04" class="c"/><path d="M204.08 184.75a19.2 19.2 0 0 0-3.94.26 23 23 0 0 0-4.18 1.5 6.5 6.5 0 0 1-.8 1.57 4 4 0 0 1-.24.4 6.46 6.46 0 0 0 5.83 2.3c3.85-.46 4.81-3.09 5-3.74a4 4 0 0 1-.27-.31 9.8 9.8 0 0 1-1.4-1.98m4.58-7.19a8 8 0 0 1-1 .49 12.2 12.2 0 0 1-2.43.75 8 8 0 0 0-.51 2.39 11 11 0 0 0 .25 2.67 10.3 10.3 0 0 1 1.67 1.77 2 2 0 0 0 .18.22 7 7 0 0 1 .4.62c1.16 0 3.67-.27 4.21-3.85.57-4-2.24-4.93-2.77-5.06m-.46-.95c.11-.46.85-4.35-2.63-6.15a4.77 4.77 0 0 0-5.52 1 5 5 0 0 1 .11.66 7.8 7.8 0 0 1-.11 3 15.6 15.6 0 0 0 2.51 1.57 16.3 16.3 0 0 0 2.69 1 14.5 14.5 0 0 1 1.87-.71 6.3 6.3 0 0 1 1.08-.37" class="d"/><path d="M200.16 172.06a4.6 4.6 0 0 0-.08-.71c-.29-1.3-.91-1.5-.91-1.5s-.62.38-.58 2.21v.29a6.85 6.85 0 0 0 .65 2.92.45.45 0 0 0 .44.22c.16 0 .27-.2.36-.46a8.3 8.3 0 0 0 .12-2.97m8.5 5.5a9 9 0 0 0 1.8-1.13 7.3 7.3 0 0 0-2.25.18 8 8 0 0 0-1.07.27 19 19 0 0 0-1.87.69c-.51.26-.82.57-.71.91s.31.33.67.33a11.8 11.8 0 0 0 2.43-.75Zm-2.07 8.07a10.3 10.3 0 0 0-1.67-1.77 1.9 1.9 0 0 0-.51-.31c-.22-.07-.38-.07-.49 0s-.11.33 0 .62a4 4 0 0 0 .2.53 10.5 10.5 0 0 0 1.4 2 4 4 0 0 0 .27.31 1.3 1.3 0 0 0 .18.18 3 3 0 0 0 1.74.86 3.9 3.9 0 0 0-.53-1.66 7 7 0 0 0-.4-.62.4.4 0 0 0-.19-.14" class="c"/><path d="M201.89 179.66c.31 1.19-.67 2.5-2.2 2.9s-3-.26-3.36-1.46.69-2.48 2.22-2.87 3.03.24 3.34 1.43" class="e"/><path d="M30.64 186.54a1.13 1.13 0 0 0-.07-1.08c-.16-.18-.38-.16-.67 0a4 4 0 0 0-1.42 2 4 4 0 0 0-.16.49 8.7 8.7 0 0 0-.47 2.48 24 24 0 0 0 1.71-1.9l.27-.4a7.6 7.6 0 0 0 .81-1.59" class="c"/><path d="M24.74 179.64a4.05 4.05 0 0 0-1.56 5 5.4 5.4 0 0 0 5.14 3.32 4 4 0 0 1 .16-.49 4 4 0 0 1 1.42-2 14 14 0 0 0-.65-2.92 16.5 16.5 0 0 0-1.74-2.85 3.72 3.72 0 0 1-2.77-.06m9.13-4.29a6.76 6.76 0 0 1-.65-2.92v-.29c-.82-.66-3.72-2.67-6.5-.4a5 5 0 0 0-1.34 6.3 6.5 6.5 0 0 1 2.36.75 29 29 0 0 1 2.76-2 15.5 15.5 0 0 1 3.37-1.44" class="d"/><path d="M25.08 177.96a6.54 6.54 0 0 0-3.07.18s.4.84 2.67 1.48a3.84 3.84 0 0 0 2.78 0 .69.69 0 0 0 .42-.62.52.52 0 0 0-.22-.33 6.4 6.4 0 0 0-2.36-.75 1 1 0 0 1-.22.04" class="c"/><path d="M38.76 184.75a19 19 0 0 0-3.94.26 23 23 0 0 0-4.18 1.5 7.4 7.4 0 0 1-.78 1.57l-.27.4a6.48 6.48 0 0 0 5.85 2.3c3.85-.46 4.81-3.09 5-3.74a4 4 0 0 1-.27-.31 9 9 0 0 1-1.41-1.98m4.54-7.19a8 8 0 0 1-1 .49 12 12 0 0 1-2.45.75 8.7 8.7 0 0 0-.51 2.39 10.8 10.8 0 0 0 .27 2.67 12.3 12.3 0 0 1 1.67 1.77 2 2 0 0 0 .18.22 7 7 0 0 1 .38.62c1.13 0 3.67-.27 4.23-3.85.57-4-2.21-4.93-2.77-5.06m-.44-.95c.11-.46.85-4.35-2.65-6.15a4.78 4.78 0 0 0-5.52 1 5 5 0 0 1 .11.66 7.3 7.3 0 0 1-.11 3 16 16 0 0 0 2.54 1.57 16.3 16.3 0 0 0 2.69 1 14 14 0 0 1 1.89-.71 5.2 5.2 0 0 1 1.05-.37" class="d"/><path d="M34.8 172.06a2.8 2.8 0 0 0-.11-.66c-.27-1.3-.91-1.5-.91-1.5s-.62.38-.56 2.21v.29a6.85 6.85 0 0 0 .65 2.92.47.47 0 0 0 .45.22c.16 0 .29-.2.36-.46a7.4 7.4 0 0 0 .12-3.02m8.5 5.5a7.7 7.7 0 0 0 1.8-1.13 7.3 7.3 0 0 0-2.25.18 9 9 0 0 0-1.07.27 14 14 0 0 0-1.89.69c-.51.26-.8.57-.69.91s.31.33.65.33a12 12 0 0 0 2.45-.75c.24-.12.62-.3 1-.5m-2.05 8.07a11 11 0 0 0-1.67-1.77 1.9 1.9 0 0 0-.51-.31.51.51 0 0 0-.49 0c-.11.13-.11.33 0 .62a2.5 2.5 0 0 0 .22.53 9.4 9.4 0 0 0 1.38 2 4 4 0 0 0 .27.31l.18.18a3 3 0 0 0 1.76.86 3.9 3.9 0 0 0-.53-1.66 7 7 0 0 0-.38-.62c-.12.01-.16-.07-.23-.14" class="c"/><path d="M36.54 179.66c.31 1.19-.67 2.5-2.23 2.9s-3-.26-3.34-1.46.69-2.48 2.23-2.87 3.05.24 3.34 1.43" class="e"/><path d="M113.62 110.28a1.14 1.14 0 0 0 0-1.08c-.16-.18-.4-.15-.67 0a4.3 4.3 0 0 0-1.42 2c-.07.15-.11.31-.18.49a9.2 9.2 0 0 0-.44 2.5 18.5 18.5 0 0 0 1.71-1.92c.09-.13.2-.29.27-.4a9 9 0 0 0 .73-1.59" class="c"/><path d="M107.74 103.4a4 4 0 0 0-1.58 5 5.36 5.36 0 0 0 5.12 3.29c.07-.15.11-.31.18-.49a4.3 4.3 0 0 1 1.42-2 16.7 16.7 0 0 0-.64-2.87 15.4 15.4 0 0 0-1.74-2.87 3.75 3.75 0 0 1-2.76-.06m9.13-4.33a6.35 6.35 0 0 1-.65-2.92 1.4 1.4 0 0 1 0-.29c-.82-.66-3.74-2.65-6.52-.4a5 5 0 0 0-1.33 6.3 6.8 6.8 0 0 1 2.36.73 29 29 0 0 1 2.76-2 16.6 16.6 0 0 1 3.38-1.42" class="d"/><path d="M108.08 101.72a7 7 0 0 0-3.09.18s.42.84 2.67 1.48h.07a3.92 3.92 0 0 0 2.76 0 .67.67 0 0 0 .42-.62.73.73 0 0 0-.22-.33 6.4 6.4 0 0 0-2.36-.75 1.4 1.4 0 0 1-.25.04" class="c"/><path d="M121.74 108.49a19 19 0 0 0-3.94.26 23.4 23.4 0 0 0-4.18 1.53 7.6 7.6 0 0 1-.8 1.59c-.07.11-.16.24-.27.4a6.56 6.56 0 0 0 5.85 2.32c3.85-.49 4.81-3.12 5-3.78a2 2 0 0 1-.27-.31 9.6 9.6 0 0 1-1.39-2.01m4.54-7.14a10 10 0 0 1-1 .49 10.2 10.2 0 0 1-2.43.75 8 8 0 0 0-.51 2.39 12 12 0 0 0 .25 2.67 9.5 9.5 0 0 1 1.67 1.77 1.5 1.5 0 0 1 .16.24c.16.22.27.42.38.6 1.13 0 3.67-.26 4.21-3.85.63-4.06-2.17-4.95-2.73-5.06m-.44-1c.11-.49.85-4.35-2.65-6.14a4.73 4.73 0 0 0-5.5 1 2.8 2.8 0 0 1 .09.66 7.9 7.9 0 0 1-.09 3 15 15 0 0 0 2.54 1.57 18 18 0 0 0 2.67 1 12 12 0 0 1 1.89-.71 7 7 0 0 1 1.05-.38" class="d"/><path d="M117.78 95.8c0-.27-.07-.46-.09-.66-.29-1.3-.91-1.5-.91-1.5s-.62.4-.56 2.21v.29a6.66 6.66 0 0 0 .65 2.92.47.47 0 0 0 .45.24c.16 0 .27-.22.36-.46a8.3 8.3 0 0 0 .1-3.04m8.5 5.55a8.4 8.4 0 0 0 1.8-1.13 10.2 10.2 0 0 0-3.32.44 15 15 0 0 0-1.89.71c-.51.27-.8.55-.69.91s.31.33.65.31a10.2 10.2 0 0 0 2.43-.75c.27-.16.62-.34 1.02-.49m-2.05 8a10.2 10.2 0 0 0-1.67-1.77 1.9 1.9 0 0 0-.51-.31.42.42 0 0 0-.49 0c-.13.13-.13.33 0 .62a2.5 2.5 0 0 0 .22.53 9.6 9.6 0 0 0 1.38 2 4 4 0 0 0 .27.31 2 2 0 0 0 .2.2 2.94 2.94 0 0 0 1.74.86 3.4 3.4 0 0 0-.53-1.64 7 7 0 0 0-.38-.6 1.1 1.1 0 0 0-.23-.2" class="c"/><path d="M119.52 103.4c.31 1.19-.67 2.5-2.2 2.9s-3-.27-3.36-1.46.67-2.5 2.23-2.9 3.01.27 3.33 1.46" class="e"/><path d="M29.59 110.28a1.21 1.21 0 0 0 0-1.08c-.16-.18-.38-.15-.67 0a4.17 4.17 0 0 0-1.42 2 1.8 1.8 0 0 0-.16.49 9.2 9.2 0 0 0-.45 2.5 25 25 0 0 0 1.74-1.92c.09-.13.18-.29.24-.4a13 13 0 0 0 .72-1.59" class="c"/><path d="M23.72 103.4a4.05 4.05 0 0 0-1.56 5 5.33 5.33 0 0 0 5.12 3.29c0-.15.09-.31.16-.49a4.15 4.15 0 0 1 1.45-2 15 15 0 0 0-.65-2.87 17 17 0 0 0-1.76-2.87 3.75 3.75 0 0 1-2.76-.06m9.12-4.33a6.7 6.7 0 0 1-.65-2.92v-.29c-.82-.66-3.74-2.65-6.52-.4a5 5 0 0 0-1.36 6.3 6.7 6.7 0 0 1 2.38.73 26 26 0 0 1 2.76-2 16.4 16.4 0 0 1 3.39-1.42" class="d"/><path d="M24.08 101.72a7.1 7.1 0 0 0-3.09.18s.45.84 2.69 1.48a4 4 0 0 0 2.78 0 .79.79 0 0 0 .45-.62.73.73 0 0 0-.22-.33 6.3 6.3 0 0 0-2.38-.75 2 2 0 0 1-.23.04" class="c"/><path d="M37.72 108.49a19.3 19.3 0 0 0-3.94.26 23.4 23.4 0 0 0-4.18 1.53 9 9 0 0 1-.78 1.59l-.24.4a6.51 6.51 0 0 0 5.83 2.32c3.85-.49 4.83-3.12 5-3.78a2 2 0 0 1-.27-.31 8.4 8.4 0 0 1-1.42-2.01m4.53-7.14a8 8 0 0 1-1 .49 10.6 10.6 0 0 1-2.45.75 8.7 8.7 0 0 0-.51 2.39 12 12 0 0 0 .24 2.67 9.5 9.5 0 0 1 1.67 1.77 1.5 1.5 0 0 1 .16.24c.16.22.27.42.38.6 1.16 0 3.67-.26 4.23-3.85.65-4.06-2.16-4.95-2.72-5.06m-.44-1c.11-.49.85-4.35-2.63-6.14a4.76 4.76 0 0 0-5.52 1c0 .2.07.4.11.66a8.3 8.3 0 0 1-.09 3 14.6 14.6 0 0 0 2.51 1.57 18 18 0 0 0 2.69 1 11.4 11.4 0 0 1 1.89-.71 7 7 0 0 1 1.04-.38" class="d"/><path d="M33.75 95.8c0-.27-.07-.46-.11-.66-.29-1.3-.91-1.5-.91-1.5s-.6.4-.53 2.21v.29a6.66 6.66 0 0 0 .65 2.92.47.47 0 0 0 .45.24c.16 0 .27-.22.38-.46a8.5 8.5 0 0 0 .07-3.04m8.5 5.55a9 9 0 0 0 1.8-1.13 9.6 9.6 0 0 0-2.27.18 8 8 0 0 0-1 .27 14 14 0 0 0-1.89.71c-.51.27-.8.55-.71.91s.31.33.67.31a10.7 10.7 0 0 0 2.45-.75c.22-.17.58-.35.95-.5m-2.04 8a11 11 0 0 0-1.67-1.77 1.9 1.9 0 0 0-.51-.31c-.22-.09-.4-.07-.49 0s-.11.33 0 .62a4 4 0 0 0 .2.53 9 9 0 0 0 1.4 2 4 4 0 0 0 .27.31 2 2 0 0 0 .2.2 2.94 2.94 0 0 0 1.74.86 3.33 3.33 0 0 0-.56-1.64 7 7 0 0 0-.38-.6.47.47 0 0 0-.2-.2" class="c"/><path d="M35.51 103.4c.31 1.19-.67 2.5-2.23 2.9a2.67 2.67 0 0 1-3.36-1.44c-.31-1.22.67-2.5 2.23-2.9a2.65 2.65 0 0 1 3.36 1.44" class="e"/><path d="M197.85 110.28a1.14 1.14 0 0 0 0-1.08c-.16-.18-.4-.15-.67 0a4.16 4.16 0 0 0-1.42 2 3 3 0 0 0-.16.49 8.8 8.8 0 0 0-.47 2.5 22 22 0 0 0 1.71-1.92c.09-.13.18-.29.27-.4a8 8 0 0 0 .74-1.59" class="c"/><path d="M191.97 103.4a4.05 4.05 0 0 0-1.56 5 5.37 5.37 0 0 0 5.14 3.29c0-.15.09-.31.16-.49a4.3 4.3 0 0 1 1.42-2 15 15 0 0 0-.62-2.87 17 17 0 0 0-1.76-2.87 3.8 3.8 0 0 1-2.78-.06m9.11-4.33a6.7 6.7 0 0 1-.64-2.92v-.29c-.8-.66-3.74-2.65-6.52-.4a5 5 0 0 0-1.33 6.3 6.9 6.9 0 0 1 2.36.73 26 26 0 0 1 2.76-2 17.7 17.7 0 0 1 3.37-1.42" class="d"/><path d="M192.33 101.72a7 7 0 0 0-3.09.18s.42.84 2.67 1.48a4 4 0 0 0 2.78 0 .7.7 0 0 0 .44-.62.5.5 0 0 0-.22-.33 6.5 6.5 0 0 0-2.36-.75 2 2 0 0 1-.22.04" class="c"/><path d="M205.99 108.49a19 19 0 0 0-3.94.26 23.7 23.7 0 0 0-4.21 1.53 9 9 0 0 1-.78 1.59q-.1.17-.27.4a6.51 6.51 0 0 0 5.83 2.32c3.85-.49 4.81-3.12 5-3.78a2 2 0 0 1-.27-.31 8.6 8.6 0 0 1-1.36-2.01m4.52-7.14a10 10 0 0 1-1 .49 10.3 10.3 0 0 1-2.45.75 8.8 8.8 0 0 0-.51 2.39 12 12 0 0 0 .24 2.67 9.5 9.5 0 0 1 1.67 1.77l.18.24c.16.22.27.42.38.6 1.13 0 3.67-.26 4.21-3.85.62-4.06-2.15-4.95-2.72-5.06m-.43-1c.09-.49.82-4.35-2.65-6.14a4.77 4.77 0 0 0-5.52 1 4 4 0 0 1 .13.66 8.3 8.3 0 0 1-.11 3 14 14 0 0 0 2.49 1.57 19 19 0 0 0 2.69 1 12 12 0 0 1 1.89-.71 9 9 0 0 1 1.08-.38" class="d"/><path d="M202.03 95.82a4 4 0 0 0-.13-.66c-.27-1.3-.91-1.5-.91-1.5s-.62.4-.56 2.21v.29a6.66 6.66 0 0 0 .64 2.92c.16.18.27.27.47.24s.27-.22.36-.46a7.8 7.8 0 0 0 .13-3.04m8.48 5.53a9 9 0 0 0 1.8-1.13 9.3 9.3 0 0 0-2.23.13 8 8 0 0 0-1.07.27 14 14 0 0 0-1.93.73c-.51.27-.8.55-.69.91s.29.33.65.31a10.4 10.4 0 0 0 2.45-.75c.29-.14.64-.32 1.02-.47m-2.03 8a12.3 12.3 0 0 0-1.67-1.77 2.3 2.3 0 0 0-.51-.31.43.43 0 0 0-.49 0 .9.9 0 0 0 0 .62 4 4 0 0 0 .2.53 9.6 9.6 0 0 0 1.38 2 4 4 0 0 0 .27.31 2 2 0 0 0 .2.2 2.94 2.94 0 0 0 1.74.86 3.9 3.9 0 0 0-.51-1.64 7 7 0 0 0-.38-.6c-.12-.02-.18-.09-.23-.2" class="c"/><path d="M203.74 103.4c.31 1.19-.67 2.5-2.2 2.9a2.66 2.66 0 0 1-3.36-1.46c-.31-1.22.67-2.5 2.23-2.9s3.02.27 3.33 1.46" class="e"/><path d="M113.62 34.02a1.13 1.13 0 0 0 0-1.08c-.16-.18-.4-.15-.67 0a4 4 0 0 0-1.42 2c-.07.15-.11.33-.18.49a9 9 0 0 0-.44 2.48 20 20 0 0 0 1.71-1.9 4 4 0 0 0 .27-.4 8 8 0 0 0 .73-1.59" class="c"/><path d="M107.74 27.15a4 4 0 0 0-1.58 5 5.4 5.4 0 0 0 5.12 3.29c.07-.15.11-.31.18-.49a4 4 0 0 1 1.42-2 9.8 9.8 0 0 0-2.38-5.77 3.63 3.63 0 0 1-2.76-.03m9.13-4.34a6.66 6.66 0 0 1-.65-2.92 1.3 1.3 0 0 1 0-.29c-.82-.64-3.74-2.65-6.52-.4a5 5 0 0 0-1.33 6.3 6.8 6.8 0 0 1 2.36.73c.64-.51 1.74-1.33 2.76-2a18 18 0 0 1 3.38-1.42" class="d"/><path d="M108.08 25.47a7.05 7.05 0 0 0-3.09.18s.42.86 2.67 1.48a.1.1 0 0 0 .07 0 3.92 3.92 0 0 0 2.76 0 .67.67 0 0 0 .42-.62.73.73 0 0 0-.22-.33 7.3 7.3 0 0 0-2.36-.75 1.4 1.4 0 0 1-.25.04" class="c"/><path d="M121.74 32.25a19 19 0 0 0-3.94.27 22 22 0 0 0-4.18 1.5 9 9 0 0 1-.78 1.59q-.1.17-.27.4a6.51 6.51 0 0 0 5.85 2.3c3.85-.49 4.81-3.09 5-3.76a4 4 0 0 1-.27-.29 9.8 9.8 0 0 1-1.41-2.01m4.54-7.18c-.4.2-.73.38-1 .49a11.4 11.4 0 0 1-2.43.75 8 8 0 0 0-.51 2.39 11 11 0 0 0 .24 2.7 10.3 10.3 0 0 1 1.67 1.77l.16.22a7 7 0 0 1 .38.62c1.13 0 3.67-.29 4.21-3.85.64-4.03-2.16-4.96-2.72-5.09m-.44-.98c.09-.46.85-4.35-2.65-6.14a4.77 4.77 0 0 0-5.5 1 5 5 0 0 1 .09.66 7.9 7.9 0 0 1-.09 3 15 15 0 0 0 2.54 1.57 15.6 15.6 0 0 0 2.67 1 15 15 0 0 1 1.89-.71 7 7 0 0 1 1.05-.38" class="d"/><path d="M117.78 19.56c0-.24-.07-.46-.09-.66-.29-1.3-.91-1.5-.91-1.5s-.62.38-.56 2.21v.29a6.66 6.66 0 0 0 .65 2.92.47.47 0 0 0 .45.24c.16 0 .27-.22.36-.49a8.4 8.4 0 0 0 .1-3.01m8.5 5.51a7.3 7.3 0 0 0 1.8-1.15 10.2 10.2 0 0 0-3.32.44 15 15 0 0 0-1.89.71c-.51.27-.8.57-.69.93s.31.33.65.31a11.4 11.4 0 0 0 2.43-.75c.27-.12.62-.29 1.02-.49m-2.05 8.07a10.3 10.3 0 0 0-1.67-1.77 1.4 1.4 0 0 0-.51-.31c-.22-.09-.38-.07-.49.07s-.13.33 0 .6a2.6 2.6 0 0 0 .22.55 9.6 9.6 0 0 0 1.38 2l.27.29.2.2a3 3 0 0 0 1.74.86 3.4 3.4 0 0 0-.53-1.64 7 7 0 0 0-.38-.62.7.7 0 0 0-.23-.23" class="c"/><path d="M119.52 27.17c.31 1.19-.67 2.5-2.2 2.9s-3-.27-3.36-1.46.67-2.5 2.23-2.9 3.04.26 3.33 1.46" class="e"/><path d="M29.59 34.02a1.2 1.2 0 0 0 0-1.08c-.16-.18-.4-.15-.67 0a4.8 4.8 0 0 0-1.6 2.5 8.6 8.6 0 0 0-.47 2.48s1.07-1.06 1.74-1.9a4 4 0 0 0 .24-.4 7 7 0 0 0 .76-1.6" class="c"/><path d="M23.72 27.15a4.05 4.05 0 0 0-1.56 5 5.37 5.37 0 0 0 5.12 3.29c0-.15.09-.31.16-.49a3.87 3.87 0 0 1 1.45-2 15.4 15.4 0 0 0-.65-2.9 17 17 0 0 0-1.76-2.87 3.63 3.63 0 0 1-2.76-.03m9.12-4.34a6.66 6.66 0 0 1-.65-2.92v-.29c-.82-.64-3.74-2.65-6.52-.4a5 5 0 0 0-1.36 6.3 6.8 6.8 0 0 1 2.38.73 31 31 0 0 1 2.76-2 18 18 0 0 1 3.39-1.42" class="d"/><path d="M24.08 25.47a7.1 7.1 0 0 0-3.09.18s.45.86 2.69 1.48a4 4 0 0 0 2.78 0 .79.79 0 0 0 .45-.62.73.73 0 0 0-.22-.33 7.1 7.1 0 0 0-2.38-.75 2 2 0 0 1-.23.04" class="c"/><path d="M37.72 32.25a19.2 19.2 0 0 0-3.94.27 22 22 0 0 0-4.18 1.5 9 9 0 0 1-.78 1.59c-.07.11-.16.24-.24.4a6.46 6.46 0 0 0 5.83 2.3c3.85-.49 4.81-3.09 5-3.76a3 3 0 0 1-.27-.29 8.4 8.4 0 0 1-1.42-2.01m4.53-7.18c-.38.2-.73.38-1 .49a12 12 0 0 1-2.45.75 8.7 8.7 0 0 0-.51 2.39 11 11 0 0 0 .24 2.7 10.3 10.3 0 0 1 1.67 1.77l.16.22a7 7 0 0 1 .38.62c1.16 0 3.67-.29 4.23-3.85.64-4.03-2.16-4.96-2.72-5.09m-.44-.98c.11-.46.85-4.35-2.63-6.14a4.79 4.79 0 0 0-5.52 1c0 .2.07.42.11.66a8.4 8.4 0 0 1-.09 3 14.6 14.6 0 0 0 2.51 1.57 15.7 15.7 0 0 0 2.69 1 14 14 0 0 1 1.89-.71 7 7 0 0 1 1.04-.38" class="d"/><path d="M33.75 19.56c0-.24-.07-.46-.11-.66-.29-1.3-.91-1.5-.91-1.5s-.6.38-.53 2.21v.29a6.66 6.66 0 0 0 .65 2.92.47.47 0 0 0 .45.24c.16 0 .27-.22.38-.49a9 9 0 0 0 .07-3.01m8.5 5.51a7.8 7.8 0 0 0 1.8-1.15 9.6 9.6 0 0 0-2.27.18 8 8 0 0 0-1 .27 14 14 0 0 0-1.89.71c-.51.27-.8.57-.71.93s.31.33.67.31a12 12 0 0 0 2.45-.75c.22-.13.58-.3.95-.5m-2.04 8.07a11.2 11.2 0 0 0-1.67-1.77 1.4 1.4 0 0 0-.51-.31c-.22-.09-.4-.07-.49.07s-.11.33 0 .6a4 4 0 0 0 .2.55 9 9 0 0 0 1.4 2l.27.29.2.2a3 3 0 0 0 1.74.86 3.33 3.33 0 0 0-.56-1.64 7 7 0 0 0-.38-.62.36.36 0 0 0-.2-.23" class="c"/><path d="M35.51 27.17c.31 1.19-.67 2.5-2.23 2.9a2.66 2.66 0 0 1-3.36-1.46c-.31-1.19.67-2.5 2.23-2.9a2.66 2.66 0 0 1 3.36 1.46" class="e"/><path d="M197.85 34.02a1.13 1.13 0 0 0 0-1.08.53.53 0 0 0-.67 0 4 4 0 0 0-1.42 2 4 4 0 0 0-.16.49 8.6 8.6 0 0 0-.47 2.48 24 24 0 0 0 1.71-1.9l.27-.4a8 8 0 0 0 .74-1.59" class="c"/><path d="M191.97 27.15a4.05 4.05 0 0 0-1.56 5 5.41 5.41 0 0 0 5.14 3.29c0-.15.09-.31.16-.49a4 4 0 0 1 1.42-2 15.5 15.5 0 0 0-.62-2.9 17 17 0 0 0-1.76-2.87 3.68 3.68 0 0 1-2.78-.03m9.11-4.34a6.7 6.7 0 0 1-.64-2.92v-.29c-.8-.64-3.74-2.65-6.52-.4a5 5 0 0 0-1.33 6.3 6.9 6.9 0 0 1 2.36.73c.65-.51 1.74-1.33 2.76-2a19.5 19.5 0 0 1 3.37-1.42" class="d"/><path d="M192.33 25.47a7.05 7.05 0 0 0-3.09.18s.42.86 2.67 1.48a4 4 0 0 0 2.78 0 .7.7 0 0 0 .44-.62.5.5 0 0 0-.22-.33 7.5 7.5 0 0 0-2.36-.75 2 2 0 0 1-.22.04" class="c"/><path d="M205.99 32.25a19 19 0 0 0-3.94.27 22 22 0 0 0-4.21 1.5 9 9 0 0 1-.78 1.59q-.1.17-.27.4a6.46 6.46 0 0 0 5.83 2.3c3.85-.46 4.81-3.09 5-3.76a3 3 0 0 1-.27-.29 8.6 8.6 0 0 1-1.36-2.01m4.52-7.18c-.38.2-.76.38-1 .49a11.5 11.5 0 0 1-2.43.79 8 8 0 0 0-.51 2.39 12.3 12.3 0 0 0 .24 2.7 10.3 10.3 0 0 1 1.67 1.77 2 2 0 0 0 .18.22 7 7 0 0 1 .38.62c1.13 0 3.67-.29 4.21-3.85.6-4.07-2.17-5-2.74-5.13m-.43-.98c.11-.46.85-4.35-2.65-6.14a4.81 4.81 0 0 0-5.52 1 5 5 0 0 1 .13.66 8.2 8.2 0 0 1-.11 3 14 14 0 0 0 2.49 1.57 16.3 16.3 0 0 0 2.69 1 15 15 0 0 1 1.89-.71 10 10 0 0 1 1.08-.38" class="d"/><path d="M202.03 19.56a5 5 0 0 0-.13-.66c-.27-1.3-.91-1.5-.91-1.5s-.62.38-.56 2.21v.29a6.7 6.7 0 0 0 .64 2.92c.16.18.27.27.47.24s.27-.22.36-.49a7.8 7.8 0 0 0 .13-3.01m8.48 5.51a7.8 7.8 0 0 0 1.8-1.15 9.3 9.3 0 0 0-2.25.18 7.5 7.5 0 0 0-1.07.27 13 13 0 0 0-1.89.71c-.51.27-.8.57-.69.93s.29.33.65.31a11.5 11.5 0 0 0 2.45-.75c.27-.13.62-.3 1-.5m-2.03 8.07a12.3 12.3 0 0 0-1.67-1.77 1.7 1.7 0 0 0-.51-.31.39.39 0 0 0-.49.07.83.83 0 0 0 0 .6 4 4 0 0 0 .2.55 9.6 9.6 0 0 0 1.38 2l.27.29.2.2a3 3 0 0 0 1.74.86 3.8 3.8 0 0 0-.53-1.64 7 7 0 0 0-.38-.62 1.1 1.1 0 0 0-.21-.23" class="c"/><path d="M203.74 27.17c.31 1.19-.67 2.5-2.2 2.9a2.66 2.66 0 0 1-3.36-1.46c-.31-1.19.67-2.5 2.23-2.9s3.02.26 3.33 1.46" class="e"/><path d="M113.62 251.43c.13-.44.18-.82 0-1.06s-.4-.18-.67 0a3.88 3.88 0 0 0-1.42 2c-.07.15-.11.31-.18.49a9 9 0 0 0-.44 2.48 18.5 18.5 0 0 0 1.71-1.92 4 4 0 0 0 .27-.4 8 8 0 0 0 .73-1.59" class="c"/><path d="M107.74 244.56a4 4 0 0 0-1.58 5 5.36 5.36 0 0 0 5.12 3.29c.07-.16.11-.33.18-.49a3.88 3.88 0 0 1 1.42-2 17.4 17.4 0 0 0-.64-2.9 16.2 16.2 0 0 0-1.74-2.87 3.63 3.63 0 0 1-2.76-.03m9.13-4.33a6.4 6.4 0 0 1-.65-2.92 1.2 1.2 0 0 1 0-.27c-.82-.66-3.74-2.65-6.52-.42a5 5 0 0 0-1.33 6.3 6.8 6.8 0 0 1 2.36.73 26 26 0 0 1 2.76-2 18 18 0 0 1 3.38-1.42" class="d"/><path d="M108.08 242.88a7 7 0 0 0-3.09.18s.42.84 2.67 1.5h.07a3.92 3.92 0 0 0 2.76 0 .65.65 0 0 0 .42-.62.63.63 0 0 0-.22-.33 6.4 6.4 0 0 0-2.36-.73c-.09.02-.25.02-.25 0" class="c"/><path d="M121.74 249.66a19 19 0 0 0-3.94.26 23 23 0 0 0-4.18 1.5 8 8 0 0 1-.78 1.59 2 2 0 0 1-.27.4 6.56 6.56 0 0 0 5.85 2.34c3.85-.49 4.81-3.12 5-3.76a4 4 0 0 1-.27-.31 10.8 10.8 0 0 1-1.41-2.02m4.54-7.18a10 10 0 0 1-1 .49 9.3 9.3 0 0 1-2.43.75 8 8 0 0 0-.51 2.39 12 12 0 0 0 .25 2.67 11.2 11.2 0 0 1 1.67 1.77 1.5 1.5 0 0 1 .16.24 7 7 0 0 1 .38.62c1.13 0 3.67-.26 4.21-3.85.63-4.02-2.17-4.95-2.73-5.08m-.44-.97c.09-.46.85-4.35-2.65-6.14a4.76 4.76 0 0 0-5.5 1 4.4 4.4 0 0 1 .09.66 7.9 7.9 0 0 1-.09 3 12.6 12.6 0 0 0 2.54 1.57 18 18 0 0 0 2.67 1 12 12 0 0 1 1.89-.71 7 7 0 0 1 1.05-.38" class="d"/><path d="M117.78 236.98c0-.26-.07-.46-.09-.66-.29-1.3-.91-1.5-.91-1.5s-.62.38-.56 2.21a1 1 0 0 0 0 .27 6.7 6.7 0 0 0 .65 2.92.47.47 0 0 0 .44.24c.16 0 .27-.22.36-.49a8.8 8.8 0 0 0 .11-2.99m8.5 5.5a7.3 7.3 0 0 0 1.8-1.13 8.2 8.2 0 0 0-2.25.18 9 9 0 0 0-1.07.27 15 15 0 0 0-1.89.71c-.51.27-.8.55-.69.91s.31.33.65.31a11.4 11.4 0 0 0 2.43-.75 9 9 0 0 0 1.02-.5m-2.05 8.05a10.2 10.2 0 0 0-1.67-1.77 1.9 1.9 0 0 0-.51-.31.47.47 0 0 0-.49 0c-.13.13-.13.35 0 .62a2.6 2.6 0 0 0 .22.55 10.2 10.2 0 0 0 1.38 2 4 4 0 0 1 .27.31c.07 0 .13.13.2.18a3 3 0 0 0 1.74.86 3.4 3.4 0 0 0-.53-1.64 7 7 0 0 0-.38-.62 3 3 0 0 1-.23-.18" class="c"/><path d="M119.52 244.58c.31 1.19-.67 2.5-2.2 2.9s-3-.26-3.36-1.46.67-2.5 2.23-2.9 3.01.23 3.33 1.46" class="e"/><path d="M188.32 196.35s3.27-4.58-8.21-9.17c-8.5-3.4-20.21-2.7-27.66-3.71-6.23-.86-6.92-2.25-6.59-3.82.73-3.43 6.56-1.17 10.21.77 4 2.1 11 2.78 16.09-1.92a10.9 10.9 0 0 1 4.38-2.3s-3-1.92-5.5-.22a6.77 6.77 0 0 1-3.92 1.57c-3.65.27-4.34-.88-4.34-.88s1.87 1.24 6.45-1.08c5.94-3 2.38-9.64 2.38-9.64a4.19 4.19 0 0 1-2.11 4 5.82 5.82 0 0 1-6.45.2 4.5 4.5 0 0 0 3.45-.11c2.6-1 3.45-2.34 2.58-4.11a6.6 6.6 0 0 0-1.6-1.66s2.85 3.76-8.43 3c-5.76-.35-7.74 5.37-7.74 5.37a9.54 9.54 0 0 0-4.45 0 6.66 6.66 0 0 0-.47-3.25c-.6 3-2.87 4.84-3.92 6.1s-3.32 4.55-.47 8.44c2.83 3.27 7.94 3.74 11.19 4 4.81.35 12.77.77 19.83 1.75 9.52 1.3 7.86 5.84 6.7 7.23s-3.47 1.53-10.08-.77-13.51-6.39-27.3-5.86c-19 .73-32.6 14.57-39.57 13.82a9.7 9.7 0 0 1 .22 2.78c-.62 4.8-5 7.41-5 7.41s-.24-1-.62-1 0 1-1.6 2.19a7.16 7.16 0 0 0-2.8 4.58s-.78-1.53-1.22-.15a2.69 2.69 0 0 1-2 2s0-.91-.45-.88c-.6 0-.85 3.82-7.5 3.21l-.49.13c-4.87.82-5.74-3.93-7.45-5.61-1.14-1.08-2.51.88-2.51.88a4 4 0 0 1-.82-2.85c.13-1.95.49-2.61-.29-3.93-.6-1-3.14-3.16-2.2-6.81-1.16 0-3.47-.86-4.43-7.65-.07-.49.85.09.85.09-.18-1-1.09-1.41-1.27-2.61-.24-1.75-.49-5.15.47-6.32 1.47-1.81 5.52-2.45 3.6-6a2.7 2.7 0 0 1-.62 1 1.23 1.23 0 0 1-1 .4 1.26 1.26 0 0 1-1.2-1.3 1.93 1.93 0 0 1 .67-1.17s0 0 0-.07a3.44 3.44 0 0 0-1.74.35c.09-.77 1.42-4.89-2.09-5.79a3.34 3.34 0 0 1-.25 1.64 1.22 1.22 0 0 1-.76.69 1.28 1.28 0 0 1-1.6-.8 1.8 1.8 0 0 1 .25-1.33 5 5 0 0 0 .16-.53c-3.38.4-2.69 4.77-2.65 5.44-.07-1-2.14-3.76-4.09-2.5a1.2 1.2 0 0 0-.2.15 3 3 0 0 1 .62.66 1.24 1.24 0 0 1 .2 1 1.27 1.27 0 0 1-1.51.93c-.47-.11-.71-.46-1-.88 0 0 0-.07-.09-.11-.71.91-.6 2.54 1.29 4 2.83 2.1 3.76 10.68 3.32 11.8-.58 1.52-2.09-.66-2.09-.66a6.06 6.06 0 0 0 1.16 4c2.49 3.56 3.25 5.13 1.38 4.53a4.4 4.4 0 0 1-1.16-.73s.11 1.77 2.38 3.63c.91.73.78 1.13.13 1.06a2.83 2.83 0 0 1-1.33-.57 15 15 0 0 0 1.78 3.16 15.4 15.4 0 0 0 3.69 3.65 14.6 14.6 0 0 1-5.32-2c-4.67-2.72-2.72-4.62-4.12-7.82s-2.2-3.56-3.58-3.76h-.11a2.8 2.8 0 0 1 .18.69 1.25 1.25 0 0 1-.27 1 1.3 1.3 0 0 1-1.78.18 1.78 1.78 0 0 1-.51-1.26 2.46 2.46 0 0 0-1.18 2.72 9 9 0 0 0-3.78-2.56 4 4 0 0 0-2.38.49.2.2 0 0 1-.11 0 1 1 0 0 1 .22.18 1.23 1.23 0 0 1 .51.91 1.28 1.28 0 0 1-1.2 1.33 1.85 1.85 0 0 1-1.22-.57.8.8 0 0 0-.18-.11c-.82 1.46-.58 4.24 4.27 5.81 0 0-2.31.35-3.07 2.06a3.3 3.3 0 0 1 1.62.24 1.26 1.26 0 0 1-.11 2.34 1.92 1.92 0 0 1-1.36-.24 1 1 0 0 0-.22-.09c.56 2.41 2.54 2.78 4.21 2.76a26.5 26.5 0 0 1 12.84 3.36 3.62 3.62 0 0 0-2.43 1.22c-.91 1.15-.69 1.83-.69 1.83a5.07 5.07 0 0 1 2.45-.91c1.91-.33 2.29.35 2.29.35a2.91 2.91 0 0 0-1.71 3.89 8 8 0 0 1 2.87-1.83c1.45-.49 3.12-.38 3.76.55.91 1.3-3 2.56-3 2.56 2.69 1.59 8.59.82 8.59.82s-4.12.73-4.09 3.4c0 0 2.56-1.95 7.59 0 7.61 2.92 16.93 4.33 29.11-.57 15.38-6.21 15.8-19.38 37.16-26.39.69 1 5.5 5.48 11.53 7.69 4.83 1.79 11.68 3 13.75 3.49 3 .73 8.34 1.86 5.14 7.63a12.13 12.13 0 0 1-4.21 4.46c-.25 0-1.83-.49-4.12-1.3-1.33-.49-2.31-.18-2.74.71a2.2 2.2 0 0 1 1 .2 1.26 1.26 0 0 1 .64.66 1.14 1.14 0 0 1-.69 1.44 1.76 1.76 0 0 1-1.18-.18.2.2 0 0 0-.09 0 1.88 1.88 0 0 0 1.54 1.79 2.4 2.4 0 0 0-1.56 2.06 3 3 0 0 1 .82-.22 1.18 1.18 0 0 1 .89.29 1.12 1.12 0 0 1 .07 1.59 1.63 1.63 0 0 1-1.16.4s.07.07.13.09c.93 1.17 3.67.29 3.67.29a2.49 2.49 0 0 0 .22 2.41 3 3 0 0 1 .58-1.08 1.16 1.16 0 0 1 .85-.38 1.14 1.14 0 0 1 1.14 1.13 1.6 1.6 0 0 1-.56 1.06l-.16.2a1.8 1.8 0 0 0 .47 0c1.31-.2 3.2-1.39 4.09-4.22 1.07-3.25 2.14-4 2.14-4s2.76-2.59 1.71 2c2.74-.73 2.4-3.69 2.4-3.69s2.2 1 2.87.46c.91-.73 0-2.87 1.07-4.4 1.18-1.68 1.85.27 1.42 1.64a2.81 2.81 0 0 0 1.76-2.67c.09-1.39-.49-3 .85-4.22 1-.84 1.25.38 1 1.5 0 0 1.31.07 1.54-2.19.13-1.37-.2-1.81.2-2s.85 1.13.85 1.13a3.35 3.35 0 0 0-1.25-4.16c-4-2.61-14.22-.82-20.32-10.37-2.23-3.49-.58-5.11-.58-5.11s10.86 5.08 16.73 4.24c7.08-1 7.1-4.8 7.1-4.8s1.16.22.16 2.5a2.73 2.73 0 0 0 1.83-2 5.58 5.58 0 0 0-1.11-5.48c1.69-.03 1.73 1.97 1.73 1.97" class="b"/><path d="M38.76 215.03a1.25 1.25 0 0 0 .82-1.57 1.32 1.32 0 0 0-.69-.77 3.3 3.3 0 0 0-1.62-.24.6.6 0 0 0-.2 0 3.66 3.66 0 0 0-3.12 2.74 3.5 3.5 0 0 1 3.25-.51.7.7 0 0 1 .22.09 1.86 1.86 0 0 0 1.34.26m-1.29-9.75a1.28 1.28 0 0 0 1.2-1.33 1.23 1.23 0 0 0-.51-.91c-.07-.07-.16-.11-.22-.18a3.7 3.7 0 0 0-5.16 1.39 3.52 3.52 0 0 1 3.32.31 1 1 0 0 0 .18.11 1.7 1.7 0 0 0 1.19.61m8.43-1.83a1.28 1.28 0 0 0 1.78-.18 1.25 1.25 0 0 0 .27-1 2.5 2.5 0 0 0-.2-.66 3.6 3.6 0 0 0-.6-1 3.66 3.66 0 0 0-4-1.11 3.43 3.43 0 0 1 2.25 2.65 1.76 1.76 0 0 0 .5 1.3m18.47-19.79a1.26 1.26 0 0 0 1.2 1.3 1.3 1.3 0 0 0 1-.4 2.7 2.7 0 0 0 .62-1 3 3 0 0 0 .2-.64 3.62 3.62 0 0 0-1.58-3.82 3.39 3.39 0 0 1-.71 3.34s0 0 0 .07a1.84 1.84 0 0 0-.73 1.15m-5.69-5.17a1.25 1.25 0 0 0 1.6.8 1.23 1.23 0 0 0 .76-.69 3.1 3.1 0 0 0 .27-1.64.3.3 0 0 0 0-.15 3.63 3.63 0 0 0-2.76-3.09 3.43 3.43 0 0 1 .58 2.94c0 .18-.09.33-.16.53a1.66 1.66 0 0 0-.29 1.3m-7.21 3.86a1.27 1.27 0 0 0 1.51-.93 1.24 1.24 0 0 0-.2-1 2.9 2.9 0 0 0-.62-.66 6 6 0 0 0-.8-.46 3.71 3.71 0 0 0-4.09.8 3.45 3.45 0 0 1 3.14 1.3l.09.09a1.66 1.66 0 0 0 .97.86m105.03 48.42a1.14 1.14 0 0 0 .69-1.44 1.12 1.12 0 0 0-.65-.66 2.6 2.6 0 0 0-1-.2 3 3 0 0 0-.62 0 3.27 3.27 0 0 0-2.71 2.56 3.17 3.17 0 0 1 3-.51.2.2 0 0 1 .09 0 1.68 1.68 0 0 0 1.2.25m.4 3.71a1.18 1.18 0 0 0-.89-.29 3 3 0 0 0-.82.22 3.6 3.6 0 0 0-.69.42 3.26 3.26 0 0 0-1.2 3.51 3.13 3.13 0 0 1 2.49-1.88 1.6 1.6 0 0 0 1.16-.4 1.12 1.12 0 0 0-.05-1.58m5.5 4.44a1.14 1.14 0 0 0-1.13-1.13 1.25 1.25 0 0 0-.85.38 2.7 2.7 0 0 0-.58 1.08 3 3 0 0 0-.11.42 3.3 3.3 0 0 0 1.56 3.4 3.13 3.13 0 0 1 .4-2.9.6.6 0 0 1 .16-.18 1.76 1.76 0 0 0 .55-1.07" class="d"/><path d="M157.15 218.1c-12.4-2.34-15-3.89-20-8.71-.51.24-2.47 3.71 2.8 8.71a10.8 10.8 0 0 0 4.07 2.54 33.7 33.7 0 0 0-8.3-.18c-2.2-.62-3.78-3.38-6.7-4.51a2.85 2.85 0 0 0-2.4 0 2.6 2.6 0 0 1 .87.55 1.12 1.12 0 0 1-.82 1.95 1.76 1.76 0 0 1-1-.6l-.27-.24a3 3 0 0 0 1 2.7 2.78 2.78 0 0 0-3 2.17 2.56 2.56 0 0 1 1.25-.24 1.1 1.1 0 0 1 .85.4 1.12 1.12 0 0 1-.16 1.59 1.64 1.64 0 0 1-1.2.24 3 3 0 0 0-.62.07c0 .07 0 .13.09.15.91 2.72 5.1.73 5.1.73s-2.14 1.55-1 3.43a3.1 3.1 0 0 1 .47-.75 1.18 1.18 0 0 1 .85-.4 1.1 1.1 0 0 1 1.14 1.11 1.65 1.65 0 0 1-.58 1.08 2 2 0 0 0-.27.38c2.94 1.11 5.3-3.29 5.3-3.43a3.73 3.73 0 0 0 2.45 3.93 2.15 2.15 0 0 1 1-2.28 7 7 0 0 1 3.92-.75c-.4 1.61.2 2.34 1.09 2.63.22-3.4 6.61-3.51 6.61-3.51a2.84 2.84 0 0 0 1.8 1.77 3.66 3.66 0 0 1 1.29-2.85c1.4-1.06 3.69-1.1 6.12-2.45 2.92-1.6 2.32-4.68-1.75-5.23" class="b"/><path d="M130.27 228.78a1.12 1.12 0 0 0-2-.71 2.5 2.5 0 0 0-.47.75 4 4 0 0 0-.22.73 3.3 3.3 0 0 0 1.56 3.4 3.05 3.05 0 0 1 .29-2.7 4 4 0 0 1 .27-.4 1.57 1.57 0 0 0 .57-1.07m-4.88-4.58a1.14 1.14 0 0 0 .16-1.59 1 1 0 0 0-.85-.4 2.84 2.84 0 0 0-1.25.24c-.11 0-.22.11-.36.18a3.27 3.27 0 0 0-1.67 3.34 3.1 3.1 0 0 1 2.14-1.46 2.8 2.8 0 0 1 .62-.07 1.63 1.63 0 0 0 1.21-.24m1.29-5.77a1.15 1.15 0 0 0 1.18-1.08 1.13 1.13 0 0 0-.36-.86 2.7 2.7 0 0 0-.87-.53 3.2 3.2 0 0 0-.6-.2 3.33 3.33 0 0 0-3.47 1.39 3.18 3.18 0 0 1 2.8.46l.27.22a1.7 1.7 0 0 0 1.05.6" class="d"/><path d="M103.72 194.21c.53-4.42-2.54-4.11-2.54-4.11a4.75 4.75 0 0 0 1.62-2.45c.73-2.74-.89-6.34-.89-6.34s-1.69 3-3.69.88a5.14 5.14 0 0 0 .93-3.85c-.2.75-6.43 5.44-8.19-3-3.54.77-3.23 4.18-5.39 3.91-1.16-.13-2.31-1.06-1.45-3.25a4 4 0 0 0-3.65 3.45c-.58 4.07-2.58-1.37-5.3-1.17 0 0-2 2.14-1.91 6.68-2.45.11-3.56 2-3.78 5-.69 8.64-3 5.79-3 6 .76 5.33 3.78 2.5 3.78 2.5-.51 3.71-3.89 1.68-3.89 1.68 1 5.68 3.38 3.8 3.38 3.8-1.09 4.73.71 6 1.36 6.87a3.84 3.84 0 0 1 .91 3.65 9.4 9.4 0 0 0-.16 2.48s1.45-1.46 2.47-.35c1.58 1.66 2.54 6.7 6.19 6.08 0 0-.44-2.21.36-2.21s1 1.95 1 1.95c1 .11 3.74.53 5.27-1.41.91-1.15 1.13-2.81 2.09-2.74.73.07.8 1.41.8 1.41.65-.4.76-.75 1.07-2.32.36-2 1.36.11 1.36.11a5.16 5.16 0 0 1 2.38-3.58c1.71-1.08 1.22-4 2.25-4.8s1.36 2.39 1.36 2.39a7.59 7.59 0 0 0 2.43-7.8c-.58-2.21-1.22-4.09-.49-4.27s.53 2 2 2.83c1 .62 2.65-.24 2.65-.24-1.87-2.04-1.58-5.64-1.33-7.78m-26.21-3.23v-.38l.16.09 2.36 1a1.8 1.8 0 0 0-.42.49 1.442 1.442 0 0 0 2.56 1.33 1.53 1.53 0 0 0 .11-.88 2.47 2.47 0 0 1 1.47 2.54 10.3 10.3 0 0 1-1.09 3.27s-.78-.35-.36-1.68c.47-1.61.24-1.64.24-1.64a5 5 0 0 1-2.89-.29l-.13-.09a4.25 4.25 0 0 1-2.02-3.76Zm10.15 16.58c-1.74 1.48-1.42 3.71-1.8 5.26a3.32 3.32 0 0 1-4.07 2.41c-1.62-.27-3.16-1.24-3.29-2.94-.16-2 3.12-4.53 1-7-1.69-2-1.6-3-1.6-3a4.46 4.46 0 0 0 1.56 1.22c.38.2 3.72 1.75 4.36-.8.16-.64-.33-1-.73-1.3a5.4 5.4 0 0 1-.78-.55 1.1 1.1 0 0 1-.09-1.26 4.3 4.3 0 0 0 2.51 1.46 5.46 5.46 0 0 0 3.07-.46 1 1 0 0 1-1 1.33c-.71.09-1.78.13-1.89 1-.42 2.94 3.85 2.32 5.14 2.1 1-.18 1.54-.31 1.54-.31-.8 1.27-2.36 1.51-3.94 2.84Zm7.9-13.31-.07.18a4.44 4.44 0 0 1-3.32 2.7h-.13a5 5 0 0 1-2.8-.84s-.22-.07-.42 1.59c-.13 1.37-1 1.39-1 1.39a10.2 10.2 0 0 1 .27-3.45 2.43 2.43 0 0 1 2.31-1.77 1.5 1.5 0 0 0-.24.88 1.47 1.47 0 0 0 1.56 1.3 1.46 1.46 0 0 0 1.34-1.55 1.6 1.6 0 0 0-.2-.62h2.76Z" class="b"/><path d="M81.42 214.17c3.67 1 3.74-2.85 3.78-3.58.24-3.87 2.94-4.18 3.4-4.62-1.25.24-3.78.15-4.58-1.28a4.62 4.62 0 0 1-4 0 5.1 5.1 0 0 1 1 1.57 4.42 4.42 0 0 1-.36 3c-.42.84-2.58 4.09.76 4.91" class="d"/><path d="M178.69 149.51c-29.71-1-37.21-9.37-37.21-9.37s-3.4 5.61 10.24 11.52c0 0-4.61-.75-7.19-.86a31.2 31.2 0 0 0-6.28.44s-3.43-3.12-5.83-4a3.71 3.71 0 0 0-3.18 0 2.6 2.6 0 0 1 .93.55 1.19 1.19 0 0 1 .42.93 1.25 1.25 0 0 1-1.25 1.24 1.93 1.93 0 0 1-1.18-.62c-.13-.11-.27-.18-.38-.29a2.59 2.59 0 0 0 1.18 3.18c-3.45.75-4.47 1.61-4.49 3.34a2.6 2.6 0 0 1 1.11-.29 1.18 1.18 0 0 1 1 .35 1.22 1.22 0 0 1 0 1.75 1.7 1.7 0 0 1-1.27.38 1.5 1.5 0 0 1-.29 0c.71 1.24 2.27 1.88 4.45 1.13a8.3 8.3 0 0 0 1.27-.49s-1.87 2.12-1.07 4.16a2.5 2.5 0 0 1 .64-.71 1.12 1.12 0 0 1 1-.24 1.23 1.23 0 0 1 1 1.44c-.09.44-.42.71-.85 1l-.27.24a8 8 0 0 0 .89.31c1.91.53 3.49-1.06 4.78-2.63 2.6-3.14 5.16-2.19 5.16-2.19-1.74 1.72-.11 3.8-.11 3.8s1.42-3.34 3.78-2.39c-.47 2 1.58 3.16 1.58 3.16s1.22-3.27 2.8-3.27c2.09 0 1 3.16 1 3.16s1.13-.15 2.94-1.92c1.18-1.17 2.2-2.45 4.63-2.28a4.28 4.28 0 0 0 2.45 3.65c-.07-7.8 11-8.86 12.86-9.22 5.29-.89 4.74-4.96 4.74-4.96" class="b"/><path d="M129.35 150a1.24 1.24 0 0 0 1.25-1.24 1.19 1.19 0 0 0-.42-.93 2.6 2.6 0 0 0-.93-.55 4 4 0 0 0-.69-.2 3.72 3.72 0 0 0-3.78 1.66 3.53 3.53 0 0 1 3 .33 2.4 2.4 0 0 0 .38.29 1.86 1.86 0 0 0 1.19.64m-2.8 7.43a1.22 1.22 0 0 0-.93-2.1 2.6 2.6 0 0 0-1.11.29 3 3 0 0 0-.58.33 3.54 3.54 0 0 0-1.49 3.8 3.41 3.41 0 0 1 2.58-1.88h.29a1.8 1.8 0 0 0 1.24-.44m5.7 5.7a1.22 1.22 0 0 0-1-1.44 1.09 1.09 0 0 0-1 .26 2.5 2.5 0 0 0-.65.71 4 4 0 0 0-.4.75 3.55 3.55 0 0 0 1 4 3.36 3.36 0 0 1 1-3l.27-.24a1.92 1.92 0 0 0 .78-1.04m-56.93-23.72c4.12 1.41 4.52-2.92 4.65-3.71.62-4.38 3.72-4.49 4.27-4.93-1.45.15-4.32-.15-5.12-1.9a5.22 5.22 0 0 1-4.54-.38 5.4 5.4 0 0 1 .93 1.88 4.9 4.9 0 0 1-.67 3.38c-.47.93-3.23 4.38.48 5.66" class="d"/><path d="M102.89 112.93c1.25-3-.27-8.51-.27-8.51s-2.49 3.91-4.58 1.81c-2-1.95.13-5 .13-5-2.38-.77-4.41 2.48-7.37.88-2.07-1.13.36-4.84.36-4.84a11.8 11.8 0 0 0-4.83 1c-2.09 1-3 1.86-4.45 1.81-2-.07-1.29-3.32-1.29-3.32a4.45 4.45 0 0 0-3.74 2.37 7 7 0 0 1-2.94 3c-.64-1-2.07-1-3.14-1.35a7.3 7.3 0 0 1-2-.88s-2.2 4.2-1.18 7.69c-1.67.44-2.11 2.28-2.38 3.21-1.91 6.92-4.78 3.85-4.76 4 .53 6.12 4.09 5.92 3.78 7.36-.42 1.92-3.72-.71-3.72-.71.09 4.31 2 4.6 2.83 7.16.69 2.23-.71 3.71.42 7.14s.31 4.84.31 4.84a5.64 5.64 0 0 0 4-1.68c-.49 4.53 1.67 6.68 1.67 6.68s1.34-2.76 1.91-.93c1.51 4.93 4 6.68 4 6.68s2.25-.07 6.21-4.24c2.78-2.9 1.51.84 1.51.84s1.94.18 5.94-7.14c1.31-2.36 3.47-3.74 4.25.11 4.58-4.93 3-10.26 3-12.11 0-1.66.82-1.86.89-1.11.47 4.55 5.27 3 5.27 3s-2-2 0-8.91a9.8 9.8 0 0 0-.93-6.83s.86-1.47 1.1-2.02M73 112.69v-.42l.18.11 2.63 1.35a1.5 1.5 0 0 0-.53.53 1.61 1.61 0 0 0 .53 2.25 1.64 1.64 0 0 0 2.25-.53 1.37 1.37 0 0 0 .2-1 2.78 2.78 0 0 1 1.42 3 11.2 11.2 0 0 1-1.54 3.63s-.82-.49-.24-1.92c.67-1.79.4-1.83.4-1.83a5.7 5.7 0 0 1-3.25-.6l-.2-.11a5 5 0 0 1-1.84-4.46Zm10 19.78c-2.11 1.52-2 4.09-2.54 5.81a3.73 3.73 0 0 1-4.83 2.37c-1.85-.44-3.49-1.68-3.49-3.65 0-2.23 4-4.89 1.82-7.85-1.76-2.43-1.56-3.49-1.56-3.49a5.6 5.6 0 0 0 1.69 1.53c.42.27 4 2.32 5-.51.24-.71-.27-1.17-.73-1.57a6.3 6.3 0 0 1-.82-.71 1.33 1.33 0 0 1 0-1.46 4.9 4.9 0 0 0 2.74 1.88 6.2 6.2 0 0 0 3.54-.24 1.12 1.12 0 0 1-1.2 1.41c-.82 0-2 0-2.27 1-.76 3.34 4.18 3 5.67 2.87a16 16 0 0 0 1.76-.2c-1.04 1.33-2.85 1.44-4.76 2.81Zm10.24-14.41-.11.18a5 5 0 0 1-4 2.78h-.18a5.67 5.67 0 0 1-3.09-1.19s-.25-.11-.62 1.77c-.29 1.52-1.25 1.5-1.25 1.5a11 11 0 0 1 .62-3.89 2.84 2.84 0 0 1 2.83-1.81 1.62 1.62 0 0 0-.36 1 1.66 1.66 0 0 0 3.32 0 1.46 1.46 0 0 0-.2-.71l2.94.22h.2Z" class="b"/><path d="M213.85 146.29s.27-4.2-2.8-5.3c-4-1.46-9.21.42-19.54-.53-25.06-2.34-22-11.34-22-11.34s15.76 7 22.43 3.71c3.69-1.79 3.45-5 3.45-5 1 1.22-.09 3.58-.09 3.58s6.45-4.73-1.22-12.09c-2.78-2.65-7.88-4.62-11.73-5.13-11-1.44-15.24-.84-23-1.9-6.5-.91-8-3.18-7.63-5 1-5.35 13.13 2.25 19.78-.66 1.78-.8 3.25-2 4.78-2.41a7 7 0 0 1 3.25.13s-1.56-2.81-6.72-1.72c-4.23.88-4.56-.53-4.56-.53a8.34 8.34 0 0 0 4.54-1.33c1.65-1 2.11-3 3.92-3.8a6.4 6.4 0 0 1 4.45-.07 6.18 6.18 0 0 0-8.46-2c-3.78 2.45-5.16.64-5.16.64a5.42 5.42 0 0 0 4.54-3.19c1.4-2.79 3.2-3.23 3.2-3.23a4.81 4.81 0 0 0-5.25 1c-1.56 1.5-3.83 1.95-7.72 1.9-4.94-.07-6.92 5.77-6.92 5.77a10.4 10.4 0 0 0-3.65 1 16 16 0 0 0-3.18 2.41l.62-1.9s-3.67 1.81-3.76 7.4c-.18 9.44 10.13 10.19 13.51 10.45 5 .38 14.58.64 21.9 1.64 9.92 1.35 10.19 5.9 8.88 8-1.45 2.34-5.52 1.15-12.42-1.26s-12.71-6.37-26.64-5.92c-22 .71-45.28 16.27-52 12.29.33 2.54-.27 7.76-6.05 12.42-.22-3.89-1.42-3.38-2.74-1-3.69 6.59-7.52 7.25-7.52 7.25s.71-2.23-1.78-.09a11.16 11.16 0 0 1-5.39 2.54 11.77 11.77 0 0 1-4.32-6.41c-.11-.49-.71 1.24-.71 1.24-2.94-1.41-3.63-6-3.63-6s-1.4.91-4.61.38c0 0 1.8-2-.22-7.1-4 0-20-2.76-22-10.94-.73-3.05-1.65-4.51-3.58-4.64a2.3 2.3 0 0 1 .4.57 1.3 1.3 0 0 1 .09 1.08 1.34 1.34 0 0 1-1.74.77 1.92 1.92 0 0 1-.93-1.08 3 3 0 0 0-.31-.44c-1.56 1.22-1.07 3.78-1.07 3.78-1.8-1.5-5.5-4-7.66-2.45a3 3 0 0 1 1 .62 1.41 1.41 0 0 1-1 2.48 2.05 2.05 0 0 1-1.36-.71c-.22-.15-.42-.31-.62-.42-1.91 3.07 4.27 6.41 4.27 6.41-2.34-.13-5.72 1.7-5.63 3.82a2.9 2.9 0 0 1 1-.33 1.33 1.33 0 0 1 1 .33 1.3 1.3 0 0 1 .11 1.86 1.9 1.9 0 0 1-1.34.51.8.8 0 0 0-.24 0c.6 1.28 1.69 2.1 4.74 1.28 7.32-2.06 12.31-.75 12.31-.75s-.22 2.43-3.54 1.79a5.26 5.26 0 0 0 4.29 1.83 10.66 10.66 0 0 0 6.08-1.59 1.44 1.44 0 0 1-.93 1.48c-2.36 1.19-.82 3.78-.82 3.78 1.29-2.87 3.65-1.75 3.65-1.75a2.67 2.67 0 0 0 .42 3.51s.16-1.66 2.76-2.32a5.65 5.65 0 0 1 3.34.2 3.86 3.86 0 0 0 .31 4.53s.76-3.47 3.18-2.45a1.34 1.34 0 0 1 .58 2 2.7 2.7 0 0 1-1.54.88c3.76 1.79 4.72-1.17 7.61 1.53-3.74 1.7-8.41 2-12.73 1.81-9.06-.77-10.93-2.54-13.06-4.49-2.92-2.76-5.21-3.05-6.59-2.63a2.5 2.5 0 0 1 .47.33 1.5 1.5 0 0 1 .49 1.06 1.43 1.43 0 0 1-1.42 1.44 2.14 2.14 0 0 1-1.36-.73l-.33-.24c-.8 1.37.67 2.61 1.11 3.21-.53-.09-1.2-.22-1.69-.33-1.91-.42-3.54.29-4 1.7a3.55 3.55 0 0 1 1.54.11 1.52 1.52 0 0 1 .91.75 1.41 1.41 0 0 1-.69 1.88 2.08 2.08 0 0 1-1.54-.09c-.2 0-.36-.07-.53-.09.56 2.45 3.4 2.74 5.56 2.85-1 .62-2.16 1.55-1.91 3a2.7 2.7 0 0 1 1-.62 1.38 1.38 0 0 1 1 .07 1.27 1.27 0 0 1 .51 1.72 1.9 1.9 0 0 1-1.13.73c-.13 0-.24.11-.36.15 1.76 1.86 6.05-.57 7.25-1.26 3.43-1.95 6.39-1.59 8.08-.77 3.18 1.57-1.11 2.9-1.11 2.9 1 .84 2.76.44 3.81 0s1.89-1.15 2.34-.51c.27.4.11 1.13-.6 1.77a3.5 3.5 0 0 1-1.38.64c4 1.52 7.7-2.12 7.7-2.12a1.66 1.66 0 0 1-.07 1.44 3.9 3.9 0 0 1-2.07 2.1c4.32 1.3 6.54-3.82 6.54-3.82s2.07 1.57-.47 3.82c3.56.11 4-2.79 5.76-1.68 1 .66.49 2.12-1 2.41 4.09 1.39 3.76-2.25 8.52-1.46 7 1.19 15 2.21 27.24-2.5 18.83-7.16 20.76-23.65 41.37-25.93 0 0 1.74 3.58 15.84 7.38 15 4 37.94.91 36.92 8-.51 3.6-10.75-1.57-12 2a.7.7 0 0 0 0 .18 2.8 2.8 0 0 1 1.14 0 1.36 1.36 0 0 1 .87.57 1.24 1.24 0 0 1-.4 1.7 1.83 1.83 0 0 1-1.34.07h-.16a2.85 2.85 0 0 0 2.09 1.35c-1.22.66-2 1.15-2 2.74v.44a2.4 2.4 0 0 1 .73-.4 1.28 1.28 0 0 1 1 0 1.26 1.26 0 0 1 .53 1.68 1.84 1.84 0 0 1-1.11.73l-.16.07a2.88 2.88 0 0 0 2.83.71 4 4 0 0 0 1.8-1 4.1 4.1 0 0 0-.67 3 1.68 1.68 0 0 0 .56 1 2.85 2.85 0 0 1 .44-1.13 1.28 1.28 0 0 1 .87-.55 1.24 1.24 0 0 1 1.4 1.06 1.67 1.67 0 0 1-.47 1.24c0 .07-.07.11-.09.18 2.63.09 4.94-3.38 5.43-6.41.58-3.87 1.78-3.27 1.78-3.27a2.45 2.45 0 0 0 .73 1.46 2.6 2.6 0 0 0 1.56.75c-.11-2.63 1.85-3.45 2.69-2.7s.16 2.3.16 2.3 1.33.46 2.91-2.19c.89-1.41.82-3.25 1.87-3.36 1.42 0 .85 1.72.85 1.72 3.32-1.77 1.25-7 2.54-7.6 1-.26.62 1.64.62 1.64a3 3 0 0 0 1.47-3.36c-.7-3.37.95-.63.95-.63" class="b"/><path d="M23.85 135.7a1.32 1.32 0 0 0-.13-1.86 1.45 1.45 0 0 0-1-.33 2.9 2.9 0 0 0-1 .33 3.6 3.6 0 0 0-.73.44 3.83 3.83 0 0 0-1.29 4.18 3.61 3.61 0 0 1 2.67-2.21 1 1 0 0 1 .24 0 1.9 1.9 0 0 0 1.24-.55m1.09-10.9a1.41 1.41 0 0 0 .93-2.48 3 3 0 0 0-1-.62 5.4 5.4 0 0 0-.85-.26 4.17 4.17 0 0 0-4.32 1.9 4 4 0 0 1 3.29.31 5 5 0 0 1 .62.44 2.05 2.05 0 0 0 1.33.71m9.86-2.92a1.35 1.35 0 0 0 1.74-.77 1.4 1.4 0 0 0-.07-1.08 2.1 2.1 0 0 0-.42-.6 3.7 3.7 0 0 0-1-.8 3.87 3.87 0 0 0-4.41.26 3.66 3.66 0 0 1 2.87 1.48 2.2 2.2 0 0 1 .29.44c.28.54.55.92 1 1.07m-3.25 39.06a1.26 1.26 0 0 0-1.54-1.79 2.85 2.85 0 0 0-1 .62 4 4 0 0 0-.42.44 3.64 3.64 0 0 0-.36 4.13 3.4 3.4 0 0 1 1.85-2.52c.11 0 .22-.11.36-.15a2 2 0 0 0 1.11-.73m.31-13.17a1.41 1.41 0 0 0 1.42-1.41 1.43 1.43 0 0 0-.47-1.06 1.8 1.8 0 0 0-.47-.33 4 4 0 0 0-1.42-.53 4.16 4.16 0 0 0-4.32 1.9 4 4 0 0 1 3.58.49l.33.24a2.1 2.1 0 0 0 1.35.7m-4.49 6.34a1.41 1.41 0 0 0 .69-1.88 1.52 1.52 0 0 0-.91-.75 3.5 3.5 0 0 0-1.54-.11 2.5 2.5 0 0 0-.56.11 4.1 4.1 0 0 0-3.07 3.56 4 4 0 0 1 3.32-1.11 5 5 0 0 1 .53.09 2 2 0 0 0 1.54.09m156.88 2.59a1.22 1.22 0 0 0 .4-1.7 1.32 1.32 0 0 0-.85-.57 2.8 2.8 0 0 0-1.14 0 2.8 2.8 0 0 0-.64.18 3.65 3.65 0 0 0-2.34 3.38 3.36 3.36 0 0 1 3-1.24.4.4 0 0 0 .16 0 2.13 2.13 0 0 0 1.41-.05m.83 5.92a1.23 1.23 0 0 0-.53-1.66 1.12 1.12 0 0 0-1 0 3 3 0 0 0-.73.4 4 4 0 0 0-.71.66 3.57 3.57 0 0 0-.27 4.09 3.37 3.37 0 0 1 2-2.61l.13-.07a2.26 2.26 0 0 0 1.11-.81m6 3.87a1.24 1.24 0 0 0-2.27-.51 3 3 0 0 0-.45 1.13 2.7 2.7 0 0 0-.07.57 3.59 3.59 0 0 0 2.16 3.47 3.32 3.32 0 0 1 .09-3.25c0-.07.07-.11.09-.18a1.85 1.85 0 0 0 .45-1.23m-167-117.57a1.42 1.42 0 0 0 1.51-2.19 5 5 0 0 0-.31-.4 4 4 0 0 0-1.31-.88 4.19 4.19 0 0 0-4.65.84 4 4 0 0 1 3.63 1.64s0 0 0 .07a1.92 1.92 0 0 0 1.13.92" class="d"/><path d="M176.95 76.64c-25.9-.77-34.47-10.08-34.47-10.08s-4.36 6.61 6.39 10.92a27 27 0 0 0-4.56-.75c-3-.26-4.34-.29-4.34-.29a10.35 10.35 0 0 0-6.3-4.11 10.1 10.1 0 0 0-3.14-.11.6.6 0 0 1 .18.15 1.18 1.18 0 0 1 .36 1 1.25 1.25 0 0 1-1.33 1.13 1.86 1.86 0 0 1-1.11-.73 4 4 0 0 0-.49-.4l-.13.13a2.8 2.8 0 0 0-.36 3.12c-3.69.49-4.9 1.64-5.21 3.14a3.6 3.6 0 0 1 1.8-.13 1.32 1.32 0 0 1 .82.6 1.25 1.25 0 0 1-.51 1.7 1.68 1.68 0 0 1-1.31 0 6 6 0 0 0-.82-.07c.36 1.95 2.69 3.34 6.41 1.79.91-.38-2.27 1.1-1 4.35a2.6 2.6 0 0 1 .25-.65 1.19 1.19 0 0 1 .85-.6 1.24 1.24 0 0 1 1.45 1 1.7 1.7 0 0 1-.42 1.26 3.6 3.6 0 0 0-.36.91c3.14 1.37 6.45-2.41 6.88-4.16a5.37 5.37 0 0 0 1.69 3.23 4.45 4.45 0 0 1 .93-1.75c1.38-1.48 1.22.29 1.22.29 0 2.7 1.71 3.14 1.71 3.14s-.27-3.09 2.16-3.6c1 3.34 4.7-1.77 4.29-.24-.82 3.38.67 4.4.67 4.4s.31-4 8.48-4.51a4.25 4.25 0 0 0 2.29 3.74c.58-7.8 11.73-7.89 13.57-8.2 5.35-.8 3.46-5.62 3.46-5.62" class="b"/><path d="M129.73 74.45a1.23 1.23 0 0 0 1.35-1.1 1.21 1.21 0 0 0-.36-1 .6.6 0 0 0-.18-.15 3.4 3.4 0 0 0-1.4-.73 3.63 3.63 0 0 0-3.87 1.35 3.47 3.47 0 0 1 2.81.53 4 4 0 0 1 .49.4 1.87 1.87 0 0 0 1.16.7m-6.5 7.45a1.7 1.7 0 0 0 1.31 0 1.23 1.23 0 0 0 .49-1.68 1.18 1.18 0 0 0-.82-.6 3.4 3.4 0 0 0-1.8.13 3.54 3.54 0 0 0-2.47 3.25 3.42 3.42 0 0 1 2.47-1.15 3.6 3.6 0 0 1 .82.05m7.15 5.88a1.24 1.24 0 0 0-2.3-.43 1.7 1.7 0 0 0-.27.62 3.9 3.9 0 0 0-.18 1.13 3.61 3.61 0 0 0 2.31 3.38 3.36 3.36 0 0 1 0-3.43c.28-.48.53-.83.44-1.27" class="d"/><path d="M100.96 44.54c.91-4.2-2.43-4.29-2.43-4.29a5.44 5.44 0 0 0 2-2.72c1-3.12-.78-7.29-.78-7.29s-1.15 3.11-4.67 1.61c0 0 1.71-2 .36-5.72a4.17 4.17 0 0 1-2 2.32c-1.76 1-3.81.82-4.54-.46-.64-1.13-.11-2.67 1.2-3.76a9.5 9.5 0 0 0-4.67-.09 26.7 26.7 0 0 0-5.36 2.74 3.64 3.64 0 0 1-1.11-4.2 4.34 4.34 0 0 0-4.43 3.47 2.42 2.42 0 0 1-1.91 1.81 4.1 4.1 0 0 0-2.65-3.4 11.28 11.28 0 0 0-4.43 9.06c-1.65.49-2.29 2.37-2.45 3.32-2 12.11-5.18 6.37-5.16 6.56.67 6.1 4.87 5.24 4.87 5.24-.73 4.24-5.18 2-5.18 2 1.62 6.17 5.39 3.6 5.39 3.6-2.65 4.55-.64 8 .78 11.52a14.6 14.6 0 0 1 1.45 5.95 8.6 8.6 0 0 1 2.74-.93c1.36 0 .91 1.48 1 3.29.07 2.59 1.13 3.36 1.13 3.36a4.4 4.4 0 0 1 .58-1.15c.69-1.06 1.07-.91 1.07-.91s-.36 3.25 1.76 4.84c0 0 3-4.33 4.67-4 1.09.2 1.76 2.85 1.76 2.85 8.66-5.44 9.81-17.35 11.46-13.11a7.4 7.4 0 0 1 .49 2s5.27-3.12 4.72-14.7a6.4 6.4 0 0 0 2.58 1.39 3.62 3.62 0 0 0 2.56-.07s-2.34-3.12-.8-10.13m-29.24-4.82v-.44l.18.11 2.65 1.3a1.5 1.5 0 0 0-.53.53 1.6 1.6 0 0 0 .58 2.23 1.64 1.64 0 0 0 2.25-.55 1.7 1.7 0 0 0 .2-1 2.79 2.79 0 0 1 1.47 3 11.2 11.2 0 0 1-1.47 3.65s-.87-.46-.29-1.92c.64-1.81.38-1.83.38-1.83a5.65 5.65 0 0 1-3.29-.55l-.13-.09a5 5 0 0 1-2-4.44m10.36 19.63c-2.09 1.57-1.91 4.13-2.45 5.86a3.72 3.72 0 0 1-4.78 2.45c-1.82-.42-3.52-1.64-3.54-3.58 0-2.23 3.85-4.93 1.67-7.87-1.78-2.41-1.6-3.47-1.6-3.47a5.2 5.2 0 0 0 1.69 1.48c.45.26 4.12 2.25 5-.57.24-.73-.27-1.19-.73-1.57a5 5 0 0 1-.85-.69 1.27 1.27 0 0 1 0-1.44 4.82 4.82 0 0 0 2.76 1.83 6.2 6.2 0 0 0 3.52-.31 1.12 1.12 0 0 1-1.18 1.44c-.82 0-2 0-2.25 1-.69 3.34 4.25 2.92 5.74 2.76a14 14 0 0 0 1.74-.24c-1.06 1.35-2.84 1.5-4.74 2.92m10-14.59-.09.18c-.16.31-1.45 2.72-4 2.83h-.18a5.7 5.7 0 0 1-3.12-1.15s-.25-.11-.6 1.77c-.22 1.53-1.22 1.5-1.22 1.5a11.3 11.3 0 0 1 .56-3.89 2.82 2.82 0 0 1 2.78-1.86 1.6 1.6 0 0 0-.33 1 1.65 1.65 0 0 0 3.29 0 1.54 1.54 0 0 0-.2-.71l3 .18h.2Z" class="b"/><path d="M74.5 66.4c4.14 1.35 4.47-3 4.56-3.78.56-4.4 3.65-4.55 4.21-5-1.45.18-4.32-.09-5.14-1.81a5.19 5.19 0 0 1-4.56-.29 5.6 5.6 0 0 1 1 1.86 5 5 0 0 1-.6 3.4c-.52.91-3.23 4.41.53 5.62m-50.81-6.34a1.31 1.31 0 0 0-1.16-2.17 3.45 3.45 0 0 0-1.51.57l-.27.18a3.89 3.89 0 0 0-1.31 4.18 3.61 3.61 0 0 1 2.36-2.12 5 5 0 0 1 .56-.13 2 2 0 0 0 1.33-.51M34.6 45.62a1.34 1.34 0 0 0 1.82-.46 1.38 1.38 0 0 0 .11-1.11l-.13-.31a3.6 3.6 0 0 0-1-1.26 4 4 0 0 0-4.41-.49 3.64 3.64 0 0 1 2.71 2.19.8.8 0 0 1 .09.24 1.8 1.8 0 0 0 .81 1.2m-3.05 25.89a1.33 1.33 0 0 0 1.94-1.57 3.1 3.1 0 0 0-.47-.88 5 5 0 0 0-.65-.71 3.92 3.92 0 0 0-4.41-.46 3.69 3.69 0 0 1 2.83 2.43l.07.24a1.8 1.8 0 0 0 .69.95m-5.74 6.84a1.41 1.41 0 0 0 .85-1.81 1.46 1.46 0 0 0-.82-.84 3.8 3.8 0 0 0-1.76-.22h-.31a4.12 4.12 0 0 0-3.4 3.25 4 4 0 0 1 3.2-.82 2.3 2.3 0 0 1 .71.2 2.14 2.14 0 0 0 1.53.24m5.72 6.11a1.41 1.41 0 0 0-1.16-.27 3.7 3.7 0 0 0-1.4.6 3.5 3.5 0 0 0-.45.35 4.13 4.13 0 0 0-1.09 4.58 3.94 3.94 0 0 1 3-2.65 2.1 2.1 0 0 0 1.36-.62 1.4 1.4 0 0 0-.26-1.99" class="d"/><path d="M209.75 67.75c-1.8-.86-4.7-.49-8.17-.13a42 42 0 0 1-8.9.24c-20.94-2.08-22.63-9.73-21.79-9.22a48 48 0 0 0 11.35 3.6c18.67 3.6 18.8-6.54 18.8-6.54a2.4 2.4 0 0 1 .8 1.57 6.5 6.5 0 0 1-.69 3.07 6 6 0 0 0 2.34-4.31c0-3.85-2.54-5.19-2.54-5.19s.53 0 1.45.75a6.8 6.8 0 0 1 1.48 2.76s1-3.21-2.6-6.19c-10-8.31-31.69-6.68-40-7.87-7.3-1-9.21-4-8.7-7.1.89-5.06 7.72-5.19 7.72-5.19-.36 5.5 6.54 9.13 13.11 7.67a19 19 0 0 0 8.48-4.11 18.6 18.6 0 0 1 3.52-2.28c-3.38-.64-5.54.69-6.9 1.24a15.3 15.3 0 0 1-4.54 1.19c-4.07.33-4.47-2.37-4.47-2.37a11.52 11.52 0 0 0 7 .53c11.37-2.63 7.66-13.17 7.66-13.17s-1 4-4.56 5.48a6.47 6.47 0 0 1-6.14-.8s5.5.55 6.65-3.71a3.3 3.3 0 0 0-1.65-3.67s.51 5.44-12.62 4.62c-5.74-.35-5.72 4.51-5.72 4.51a15.5 15.5 0 0 0-3.27.69 13.2 13.2 0 0 0-3.58 1.64c.58-1.57 2.89-2.32 2.89-2.32a9.33 9.33 0 0 0-5.56 2.32 3.7 3.7 0 0 1 .44-1.44 14.4 14.4 0 0 0-4.14 8.66 10.42 10.42 0 0 0 2.4 8.11c3.16 3.67 9.19 4.16 12.82 4.44 5.41.4 14.31.88 22.19 1.95 10.66 1.48 11.3 5 9.88 7.27-1.56 2.52-6.3 2.59-13.69 0s-22.25-7.94-32.93-7.89c-28.22.11-40.86 12-49.29 9.79.24 10.74-7.5 15-7.5 15-1.16-5.92-.36 4.84-11.82 10.43 0 0-.09-2.67-1.27-2.9-1.56-.31-3.78 3.85-3.78 3.85a8.48 8.48 0 0 1-3.23-4.13l-.6 1.22a5.65 5.65 0 0 1-2.31-3.23c-.42-2.08.2-3.6-.71-3.65-1.07 0-3.32 1.46-3.32 1.46a15.6 15.6 0 0 0-1.25-7.21c-.89-2.37-2.22-4.53-2.45-7.07-9.08-1.68-20.14-5.31-20.41-8.78-.22-3.27.33-6.56-3.29-7.63a2 2 0 0 1 .13.31 1.34 1.34 0 0 1-1.94 1.59c-.45-.24-.58-.69-.76-1.22l-.11-.24c-2.09 1.22-1.25 5-1.25 5-1.65-1.66-5.12-4.73-7.21-2.79a3 3 0 0 1 .33.4 1.5 1.5 0 0 1 .22 1.15 1.45 1.45 0 0 1-1.74 1 2.05 2.05 0 0 1-1.09-1c-2.23 3.09 2.34 6.81 2.34 6.81-.67.33-4.32 1.06-4.32 3.69a3.5 3.5 0 0 1 1.51-.6 1.32 1.32 0 0 1 1 .31 1.3 1.3 0 0 1 .11 1.86 1.9 1.9 0 0 1-1.34.51 4 4 0 0 0-.56.13 3.69 3.69 0 0 0 4.52 1.28c5.83-2.48 7.32-1.08 9.86-.53 1.8.4 3.43 0 3.45 1 0 .88-.82 1.52-3.54 1.19 0 0 .65 1.7 3.61 2 4.47.49 5.85-.6 6.45.15 1.09 1.44-3.2 1.95-3.2 1.95 3.49 2.65 8.12.6 8.12.6.25 1.57-3.07 1.88-3.07 1.88a4 4 0 0 0 3.94.8 10 10 0 0 0 1.85-.69 3.54 3.54 0 0 0 1.62 3.87s1.29-4.38 3.12-3.25a1.39 1.39 0 0 1 .62 2 1.67 1.67 0 0 1-1.45.64c.53 1.33 2.87 1.33 2.87 1.33s-2.83 1.75-10.77 1.64c-10.53-.86-9.92-2-12.48-5.11-2-2.72-3.25-2.85-4.18-2.45a3.4 3.4 0 0 1 .47.88 1.33 1.33 0 0 1-1.94 1.57 1.56 1.56 0 0 1-.67-1 2.57 2.57 0 0 0-.45 3.49c-.51-.09-5.47-.8-6.36 1.48a3.4 3.4 0 0 1 1.78.22 1.35 1.35 0 0 1 .82.84 1.41 1.41 0 0 1-.85 1.81 2.14 2.14 0 0 1-1.54-.22 3 3 0 0 0-.71-.18v.22c0 3.38 4.92 3.47 7.37 3.56-1 .62-2.16 1.55-1.91 3a3.14 3.14 0 0 1 1.4-.6 1.42 1.42 0 0 1 1.42 2.25 2.1 2.1 0 0 1-1.36.62c3.25 2.12 5.67-.82 6.85-1.5 3.43-1.95 8.68-1.72 10-.29 1 1.06-1.2 2.28-1.2 2.28a5.93 5.93 0 0 0 4.21-1.17 3.6 3.6 0 0 0-.67 1.66 2.66 2.66 0 0 0 .82 2.48c2-3.82 3.54-3.58 4.32-2.85.93.86-.93 2.17-.93 2.17 2.31 1.17 5.34-1.19 5.34-1.19a4 4 0 0 0 .91 3c1.51-2.76 4.87-2.5 7.08-2.23 0 0-3.16 2.14-1.91 4.86 2-1.92 4.47-2.63 7.86-2.21 7 .84 20.29 4.8 43.08-16.2 15.4-14.21 25.7-12.38 25.7-12.38 13.69 11 40 11.23 46.71 11.74 3.25.24 3.29 2.23 1.87 4a4.2 4.2 0 0 1-2.16 1.35s-6.48-2.67-8.86.91a3 3 0 0 1 1.27 0 1.23 1.23 0 0 1 .8.57 1.19 1.19 0 0 1-.47 1.64 1.72 1.72 0 0 1-1.29 0l-.56-.07a2.28 2.28 0 0 0 1.84 1.92c.29 0 .27.09.18.2a3.76 3.76 0 0 0-1.29 3.09 2.7 2.7 0 0 1 1-.46 1.19 1.19 0 0 1 1.31 1.81 1.8 1.8 0 0 1-1.13.62c-.11 0-.24.09-.36.11.69 1.06 1.91 1.72 3.81 1a5.2 5.2 0 0 0 1.94-1 2.31 2.31 0 0 0-.11 2.19 3 3 0 0 0 .22.29 2.8 2.8 0 0 1 .78-1.39 1.15 1.15 0 0 1 .91-.38 1.21 1.21 0 0 1 1.16 1.26 1.83 1.83 0 0 1-.67 1.11 4 4 0 0 0-.29.38 5.7 5.7 0 0 0 1.65 0c2-.4 3.58-2.1 4-6.34a5.05 5.05 0 0 1 .82-2.61 6.7 6.7 0 0 1 2.23-1.33 3 3 0 0 1-.47 2.92c4 .66 4.52-5.57 4.52-5.57a5.5 5.5 0 0 0 1.31 2 4.47 4.47 0 0 0 2.14 1c-.73-4.44 1-5.95 1.87-6.17 1.69-.42 1.62 1.61 1.62 1.61a3 3 0 0 0 1.16-3 7.8 7.8 0 0 0-.78-2.21s1.42-.69 2.16 1.19c0 0 1.51-2.41.13-3.74a.85.85 0 0 1 .73-.09 1.24 1.24 0 0 1 .67.55 4.34 4.34 0 0 0-2.55-4.64" class="b"/><path d="M181.08 83.71a1.2 1.2 0 0 0 .47-1.64 1.15 1.15 0 0 0-.8-.6 3 3 0 0 0-1.25 0l-.49.13a3.5 3.5 0 0 0-2.4 3.18 3.29 3.29 0 0 1 2.65-1.13 5 5 0 0 1 .56 0 1.68 1.68 0 0 0 1.26.06m1.14 6.32a1.2 1.2 0 0 0-.33-1.66 1.18 1.18 0 0 0-1-.15 2.5 2.5 0 0 0-1 .46 5 5 0 0 0-.53.44 3.46 3.46 0 0 0-.67 3.91 3.35 3.35 0 0 1 2-2.28c.13 0 .24-.09.36-.11a1.84 1.84 0 0 0 1.17-.61m7.19 2.7a1.23 1.23 0 0 0-1.16-1.26 1.12 1.12 0 0 0-.91.38 2.9 2.9 0 0 0-.78 1.39.4.4 0 0 1 0 .16 3.5 3.5 0 0 0 1.47 3.69 3.22 3.22 0 0 1 .47-2.87 2.4 2.4 0 0 1 .29-.38c.29-.38.6-.67.62-1.11" class="d"/></svg>