<svg xmlns="http://www.w3.org/2000/svg" viewBox="3.95 0.16 276.11 341.19"><path d="m229.61 290.871 8.976 8.285c-13.941 15.059-31.375 26.852-51.016 34.094l-4.234-11.453c17.816-6.57 33.629-17.266 46.273-30.926m-55.179 33.817 3.32 11.75c-11.367 3.199-23.36 4.91-35.75 4.91-12.36 0-24.32-1.703-35.66-4.887l3.32-11.746a119.5 119.5 0 0 0 32.34 4.43c11.242 0 22.117-1.555 32.43-4.457m-73.68-2.86-4.234 11.453c-19.653-7.23-37.098-19.015-51.051-34.066l8.98-8.285c12.657 13.652 28.477 24.34 46.305 30.898m0 0" style="stroke:none;fill-rule:nonzero;fill:#a9936f;fill-opacity:1"/><path d="M235.691 283.766c16.008-20.262 25.563-45.84 25.563-73.645 0-65.738-53.39-119.027-119.254-119.027-65.863 0-119.254 53.289-119.254 119.027 0 27.832 9.57 53.434 25.61 73.703l-9.602 7.555C21.07 269.03 10.52 240.805 10.52 210.12c0-72.476 58.867-131.23 131.48-131.23s131.48 58.754 131.48 131.23c0 30.656-10.535 58.863-28.187 81.2Zm0 0" style="stroke:none;fill-rule:nonzero;fill:#a9936f;fill-opacity:1"/><path d="M40.023 210.121C40.023 154 85.773 108.34 142 108.34S243.977 154 243.977 210.12c0 56.117-45.75 101.774-101.98 101.774S40.022 266.246 40.022 210.12m-4.918 0C35.105 268.953 83.06 316.81 142 316.81s106.895-47.856 106.895-106.688c0-58.836-47.946-106.691-106.895-106.691-58.95 0-106.895 47.863-106.895 106.691m0 0" style="stroke:none;fill-rule:nonzero;fill:#a9936f;fill-opacity:1"/><path d="M215.762 210.121c0 40.656-33.024 73.617-73.762 73.617s-73.762-32.96-73.762-73.617c0-40.66 33.024-73.621 73.762-73.621s73.762 32.96 73.762 73.621M142 140.738c-38.39 0-69.516 31.063-69.516 69.383 0 38.316 31.125 69.379 69.516 69.379 38.39 0 69.516-31.062 69.516-69.379 0-38.32-31.125-69.383-69.516-69.383m0 0" style="stroke:none;fill-rule:nonzero;fill:#a9936f;fill-opacity:1"/><path d="M82.855 156.816c3.747-4.011 3.723-8.398-.027-11.886-3.633-3.375-7.937-3.012-11.683 1l-3.512 3.757 11.71 10.887Zm-9.359-8.957c2.18-2.336 4.703-2.422 6.93-.355 2.324 2.16 2.48 4.71.281 7.062l-1.281 1.371-7.211-6.707Zm27.371-6.097-1.758-2.5-5.765 4.047-2.067-2.938 4.856-3.406-1.649-2.348-4.855 3.406-2-2.843 5.578-3.91-1.719-2.446-8.402 5.895 9.191 13.074Zm9.969-4.477c3.992-1.695 5.223-4.89 3.45-9.039l-3.68-8.601-3.133 1.332 3.683 8.625c.977 2.277.426 3.996-1.472 4.804-1.899.809-3.547.024-4.52-2.254l-3.687-8.62-3.18 1.35 3.68 8.602c1.78 4.176 4.957 5.465 8.859 3.801m13.977-4.855 3.39-.664-2.516-12.692 4.485-.879-.59-2.972-12.336 2.418.59 2.972 4.46-.875Zm21.472-6.453c-.035-2.754-1.465-3.797-4.074-4.864-2.098-.847-2.895-1.25-2.883-2.406-.012-.879.7-1.426 1.836-1.441 1.531-.028 2.375.886 2.848 1.504l2.035-2.165c-.918-1.21-2.395-2.367-5.063-2.324-3.105.051-5.191 2.008-5.156 4.645.035 2.87 1.906 4.043 4.332 4.976 1.793.641 2.52 1.254 2.535 2.387.012.95-.722 1.586-2.183 1.61-1.739.03-2.727-1.157-3.227-1.868l-2.055 2.301c.872 1.238 2.493 2.668 5.391 2.621 3.64-.058 5.7-2.246 5.664-4.976m12.067 3.421c-2.758-.507-4.266-2.93-3.684-6.046.57-3.051 2.84-4.727 5.621-4.211 1.574.289 2.64 1.144 3.211 2.523l2.828-1.621c-.953-1.988-2.598-3.398-5.473-3.93-4.765-.879-8.761 1.82-9.66 6.645-.941 5.031 1.676 8.832 6.535 9.73 3.102.57 5.153-.32 6.708-1.824l-1.93-2.426c-.957.953-2.149 1.532-4.156 1.16m18.035 8.899 3.172 1.363 6.34-14.672-3.172-1.363-2.536 5.867-5.683-2.449 2.535-5.867-3.172-1.367-6.34 14.671 3.172 1.368 2.582-5.977 5.684 2.45Zm16.313 10.211 1.769-2.492-5.75-4.075 2.078-2.925 4.84 3.425 1.664-2.34-4.844-3.43 2.012-2.831 5.558 3.937 1.73-2.437-8.378-5.934-9.246 13.035Zm5.827 5.532 3.93-3.704.813.86-1.461 6.308 2.882 3.047 1.434-7.082c2.035 1.008 4.094.754 5.797-.852 2.496-2.351 2.203-5.355-.68-8.402l-3.453-3.649-11.633 10.965Zm9.442-8.903 1.129 1.195c1.355 1.43 1.449 2.809.367 3.824-1.16 1.098-2.535.961-3.906-.484l-1.13-1.195Zm-146 99.617 3.96-1.77 2.633 5.871 2.762-1.234-4.035-9.004-14.543 6.492 1.402 3.137 5.145-2.297 2.375 5.301 2.676-1.195Zm17.152 14.586-7.59 5.453c-2.004 1.441-3.8 1.281-5-.383-1.203-1.664-.8-3.43 1.207-4.87l7.59-5.454-2.012-2.785-7.574 5.441c-3.672 2.637-4.234 5.996-1.765 9.418 2.527 3.492 5.906 3.992 9.558 1.367l7.574-5.441Zm7.395 11.68c1.12 1.027 1.109 2.27 1.03 3.039l2.95-.176c.16-1.508-.113-3.356-2.07-5.149-2.281-2.09-5.125-2.097-6.903-.16-1.933 2.11-1.382 4.238-.27 6.574.86 1.692.966 2.633.2 3.47-.64.695-1.605.655-2.676-.329-1.277-1.168-1.18-2.707-1.054-3.559l-3.059.262c-.215 1.496-.023 3.64 2.106 5.59 2.671 2.445 5.652 2.27 7.492.262 1.855-2.024 1.535-3.754.379-6.317-.938-2.047-1.235-2.882-.438-3.718.59-.645 1.477-.551 2.313.21m13.097 6.231c-2.61-1.652-5.41-1.16-6.82 1.059-1.531 2.414-.613 4.414.894 6.515 1.141 1.516 1.41 2.426.805 3.38-.504.796-1.46.929-2.691.148-1.461-.926-1.637-2.457-1.664-3.317l-2.965.793c.055 1.512.621 3.59 3.058 5.133 3.06 1.937 5.961 1.238 7.422-1.059 1.47-2.316.848-3.964-.742-6.28-1.285-1.852-1.722-2.626-1.086-3.587.469-.738 1.356-.805 2.313-.2 1.285.817 1.492 2.04 1.55 2.813l2.872-.691c-.106-1.516-.704-3.285-2.946-4.707m12.977 6.973-4.828-1.91-5.88 14.777 5.15 2.039c3.581 1.422 6.046.539 7.027-1.926.773-1.95-.102-3.683-1.536-4.574l.02-.043c1.512.129 2.977-.555 3.734-2.461.938-2.355-.21-4.523-3.687-5.902m-1.547 11.316c-.45 1.137-1.52 1.453-3.133.816l-1.758-.699 1.407-3.531 1.738.688c1.61.636 2.2 1.59 1.746 2.726m1.918-6.133c-.434 1.094-1.469 1.45-2.887.887l-1.543-.61 1.364-3.43 1.543.614q2.19.868 1.523 2.54m12.852-1.212.347 1.489-8.273 13.277 3.547.621 1.68-2.867 5.55.969.598 3.261 3.683.645-3.539-16.766Zm-1.223 9.993 2.594-4.461.046.007.91 5.075Zm18.383 4.429-.2-12.812-3.441.054.246 15.899 9.258-.145-.047-3.09Zm15.109-1.39-2.285-12.606-3.387.61 2.832 15.644 9.117-1.637-.55-3.039Zm7.434-7.219 5.722-1.813.825 2.594-5.723 1.809Zm19.007-7.27-.023-.043c1.098-1.05 1.55-2.597.621-4.425-1.152-2.262-3.543-2.832-6.875-1.137l-4.629 2.355 7.23 14.176 4.934-2.512c3.434-1.75 4.399-4.18 3.196-6.543-.954-1.867-2.836-2.359-4.454-1.87m-4.855 1.047-1.676-3.289 1.48-.75c1.4-.715 2.372-.535 2.915.531.535 1.051.12 2.063-1.239 2.754Zm4.61 4.871-1.688.86-1.727-3.391 1.664-.848c1.543-.785 2.649-.597 3.203.493.555 1.09.09 2.101-1.453 2.886m13.363-25.012-2.628 2.14 5.918 7.235c1.562 1.91 1.511 3.707-.078 5.003-1.59 1.301-3.383 1.004-4.946-.906l-5.918-7.234-2.664 2.176 5.903 7.21c2.863 3.5 6.257 3.86 9.527 1.192 3.344-2.727 3.637-6.121.789-9.602Zm9.676-11.579 7.73 5.922-.01.016-11.856-.563-2.504 3.254 1.957.106 11.36 8.695 2.066-2.687-7.692-5.891.028-.035 11.746.625 1.882-2.45-12.636-9.68Zm17.68-16.738c-4.504-2.027-8.445-.308-10.7 4.668l-2.105 4.664 14.524 6.531 2.11-4.664c2.25-4.976.823-9.109-3.829-11.199m1.082 9.766-.77 1.699-8.945-4.023.77-1.7c1.308-2.898 3.66-3.789 6.418-2.55 2.887 1.296 3.847 3.652 2.527 6.574m-25.215-32.254s-11.218-37.125-13.035-43.074c-1.555-5.098-5.55-4.774-5.55-4.774s-1.317.067-11.883-.054c-10.192-.106-11.172 2.43-3.926 11.984 2.3 3.035 1.406 3.465-4.489 4.492-5.898 1.02-8.714-4.726-9.054-7.254-.344-2.539-1.649-11.531-1.801-11.972-.383-1.075 2.375-1.883 3.719-1.016 2.472 1.57 2.125 2.078 2.125-2.594 0-4.68-6.192-4.297-6.192-4.297-.406-4.949-7.808-4.101-10.18-3.945-2.374.16-4.753 1.883-11.077 1.883-6.32 0-5.215 8.094-5.215 8.094s2.933-.872 5.168-.813c2.21.055 7.941-.059 6.21 3.45 0 0-4.585-1.626-6.75-1.626-2.16 0-7.343-.047-8.636-1.93-1.297-1.886-1.781-2.48-1.781-2.48s-1.457 5.918 1.89 6.516c3.348.593 6.805 0 8.422-.106 1.617-.117 4.809-.117 5.672 0 .86.106-.059 1.02-1.734 1.133-1.668.106-5.504-.164-4.477 1.555 1.024 1.73 2.809 2.699 3.883 2.914 1.082.219 4.05-.27 2.75 2.91l-.727 2.117c-.832 2.422-3.425 8.133-9.324 7.094-5.898-1.008-6.785-1.442-4.496-4.465 7.25-9.566 6.277-12.102-3.922-11.996-10.562.121-11.879.05-11.879.05s-3.996-.327-5.55 4.77c-1.82 5.95-15.887 43.645-15.887 43.645s-.63 3.644 2.437 4.664c4.031 1.328 5.34-2.559 5.34-2.559l10.203-26.988c.762.473 1.508.937 2.266 1.375l-12.746 35.273s-1.301 3.891 2.812 5.325c3.676 1.273 5.328-3.301 5.328-3.301l12.27-33.375c.656.277 1.308.555 1.945.816l-12.922 36.864s-1.191 3.953 2.63 5.242c3.812 1.297 5.355-3.23 5.355-3.23l12.824-36.235q1.149.31 2.262.562c-.012.043-.016.075-.016.075l-6.516 21.738s-1.078 3.734 2.586 5.168c3.68 1.437 5.688-3.45 5.688-3.45l5.972-19.183s2.45 9.988-1.87 16.961c-4.317 6.969-8.551 11.625-14.094 14.21 0 0 .148.798 2.164.93 2.011.153 2.156.66 2.445 1.012l-2.867 4.387s-.438 1.578-2.383.723c-1.945-.864-4.387-2.16-4.387-2.16s-2.523-.637-3.101.578l-.575 1.222s-2.874.29-3.242 1.934c-.355 1.656.149 1.867.149 1.867s1.304-.914 1.867-.562c.77.457.148 1.843 1.043 2.168 1.61.582 2.785-.317 3.644-1.09.563-.524 1.942.062 2.008.496.074.433-.574 1.574-2.23 1.793-1.653.222-5.254.855-5.043 2.734.187 1.578.21 1.719.219 1.727-.02.031-1.348 2.879 1.37 3.945 0 0 .438-1.719 1.008-1.719.575 0 1.075 1.004 2.086 1.004 1.008 0 1.946-.867 2.524-2.586.57-1.73 1.578-4.027 1.578-4.027s.719-.856 1.152-.719c.434.149.653.938.508 1.434-.144.515-.433 1.656-.508 1.949-.07.277-2.511 3.305-.57 4.746 1.938 1.426 1.727 2.008 2.223 2.356.507.367 2.523 1.078 3.246.652 0 0-.864-1.582-1.082-1.867s-.145-.856 1.218-.856c1.375 0 1.375-1.726.512-3.023-.867-1.29-1.164-2.535-1.445-3.375-.559-1.7.969-2.309 1.66-.582.668 1.672.395 3.297 1.871 3.058 1.102-.172 1.363-.894 1.867-.832.508.075 1.934 1.07 1.168 2.91 0 0 3.367-.543 2.223-3.617-.758-2.039-1.691-1.02-1.082-3.02.469-1.573-.934-2.73-2.594-2.663-1.55.062-3.57-.352-2.586-2.227 1.035-1.988 2.446-4.379 2.446-4.379l2.37 2.73s2.239-5.6 4.25-8.12c2.016-2.512 4.465-5.61 5.614-4.957 1.152.644 1.508 8.765.578 12.859-.937 4.094-4.324 13.078-5.11 14.3-.792 1.216 4.458-.788 5.11-1.011.645-.21 1.941-1.793 2.227.652.293 2.438 1.25 7.086 3.472 9.47l.055-.06c2.234-2.37 3.316-7.183 3.601-9.628.29-2.438 1.583-.856 2.235-.645.64.211 5.898 2.227 5.101 1.004-.785-1.215-4.168-10.203-5.101-14.293-.938-4.094-.578-12.223.578-12.867 1.148-.645 3.59 2.453 5.605 4.957 2.016 2.52 4.25 8.12 4.25 8.12l2.375-2.73s1.41 2.387 2.45 4.387c.976 1.867-1.04 2.29-2.59 2.227-1.664-.067-3.067 1.09-2.59 2.656.602 1.996-.328.988-1.082 3.023-1.145 3.075 2.215 3.622 2.215 3.622-.766-1.852.66-2.836 1.168-2.91.504-.067.765.66 1.87.831 1.477.227 1.208-1.394 1.876-3.058.687-1.727 2.215-1.125 1.652.578-.281.84-.574 2.082-1.441 3.375-.863 1.289-.863 3.02.508 3.02 1.367 0 1.441.57 1.222.855-.218.293-1.082 1.875-1.082 1.875.719.434 2.735-.293 3.242-.652.504-.36.29-.93 2.23-2.364 1.942-1.445-.507-4.46-.573-4.746-.078-.293-.368-1.433-.508-1.941-.14-.504.07-1.29.508-1.434.43-.148 1.148.707 1.148.707s1.008 2.309 1.586 4.031c.57 1.727 1.516 2.59 2.516 2.59 1.011 0 1.511-1.007 2.09-1.007.574 0 1.007 1.726 1.007 1.726 2.72-1.078 1.387-3.914 1.371-3.945.004-.008.028-.156.215-1.73.207-1.876-3.386-2.52-5.039-2.739-1.66-.21-2.3-1.363-2.234-1.785.074-.442 1.445-1.02 2.015-.508.86.777 2.024 1.672 3.637 1.094.903-.317.278-1.703 1.047-2.168.566-.344 1.871.57 1.871.57s.496-.219.145-1.867c-.36-1.656-3.243-1.941-3.243-1.941l-.574-1.223c-.582-1.215-3.093-.57-3.093-.57s-2.458 1.296-4.399 2.152c-1.937.863-2.371-.719-2.371-.719l-2.305-4.957c.285-.36.43-.863 2.446-1.004 2.011-.144 2.164-.937 2.164-.937-5.547-2.582-8.352-6.39-12.672-13.364-4.32-6.96-1.875-16.949-1.875-16.949l5.976 19.184s2.02 4.887 5.692 3.441c3.668-1.433 2.59-5.168 2.59-5.168l-6.664-22.277s-.004-.008-.012-.047a54 54 0 0 0 2.226-.629l11 36.535s1.543 4.528 5.364 3.23c3.812-1.288 2.625-5.25 2.625-5.25l-11.184-37.386a58 58 0 0 0 1.918-.863l.012.031 10.547 33.91s1.648 4.586 5.324 3.305c4.113-1.426 2.812-5.317 2.812-5.317l-11.125-36.062q-.002.002-.004-.008c.711-.45 1.426-.898 2.137-1.379.211.219.274.465.274.465l8.445 27.32s1.305 3.883 5.34 2.547c3.066-1.004 2.437-4.648 2.437-4.648m-112.445.629s-.668 2.183-1.93 1.582c-1.25-.606-.316-2.406-.316-2.406s9.719-24.95 10.691-27.38c.688.505 1.387.993 2.075 1.465Zm7.781 11.804s-.62 2.204-1.886 1.633c-1.27-.562-.38-2.39-.38-2.39s10.45-28.871 12.13-33.461c.746.39 1.488.773 2.218 1.132Zm9.215 6.704s-.59 2.21-1.86 1.648c-1.277-.547-.41-2.383-.41-2.383s10.637-30.43 12.575-35.926a79 79 0 0 0 2.347.793Zm16.547-11.88s-.488 2.223-1.793 1.727c-1.293-.504-.5-2.363-.5-2.363s5.062-16.945 6.402-21.363c.852.164 1.672.293 2.47.406Zm18.363-63.242c-1.023-.046-1.945-1.074-1.945-1.074s.543-1.02 1.894-.972c1.348.058 1.946.972 1.946.972s-.867 1.133-1.895 1.074m25.969 62.653s.789 1.867-.5 2.375c-1.3.488-1.8-1.73-1.8-1.73l-6.665-21.266s-.152-.266.082-.676c.703-.121 1.426-.27 2.172-.422.426 1.297 6.711 21.719 6.711 21.719m14.762 11.637s.789 1.867-.508 2.37c-1.3.508-1.793-1.726-1.793-1.726l-11.219-36.21a60 60 0 0 0 2.328-.849c1.223 3.891 11.192 36.415 11.192 36.415m9.277-6.465s.793 1.867-.5 2.37c-1.293.509-1.8-1.726-1.8-1.726l-10.563-34.05c.734-.383 1.472-.79 2.215-1.208.73 2.293 10.648 34.614 10.648 34.614m7.055-9.844c-1.29.508-1.797-1.727-1.797-1.727l-8.547-27.828a80 80 0 0 0 2.094-1.582c.004.016.011.024.011.031.23.668 8.747 28.735 8.747 28.735s.789 1.867-.508 2.37M26.066 49.934H3.946l17.882 13.574-6.824 21.945 17.894-13.562 17.895 13.562-6.828-21.945 17.887-13.574H39.734l-6.836-21.942ZM98.8 22.098H76.68l17.886 13.574-6.828 21.945 17.895-13.562 17.894 13.562-6.828-21.945 17.887-13.574h-22.117L105.633.156Zm72.735 0h-22.12L167.3 35.672l-6.828 21.945 17.894-13.562 17.899 13.562-6.832-21.945 17.886-13.574h-22.117L178.367.156Zm72.735 27.836h-22.122l17.887 13.574-6.828 21.945 17.895-13.562L269 85.453l-6.832-21.945 17.887-13.574h-22.118l-6.835-21.942Zm0 0" style="stroke:none;fill-rule:nonzero;fill:#a9936f;fill-opacity:1"/></svg>