<svg width="487" height="623" viewBox="0 0 487 623" fill="none" xmlns="http://www.w3.org/2000/svg">
<path d="M211.205 256.949C218.351 255.318 225.577 253.917 232.901 253.347C239.313 253.209 245.731 253.209 252.143 253.314C261.896 254.369 271.669 255.881 281.006 258.94C287.212 260.498 292.923 263.458 298.977 265.436C298.799 265.429 298.454 265.423 298.276 265.423C296.847 265.331 295.431 265.6 294.14 266.202C287.378 269.057 281.046 272.816 274.925 276.831C272.602 278.416 269.797 277.034 267.335 276.595C249.245 272.135 230.116 273.157 212.191 277.885C204.72 272.928 196.926 268.344 188.516 265.128C185.472 265.881 182.852 267.78 180.02 269.084C183.943 266.602 188.284 264.853 192.592 263.15C197.792 260.871 203.225 259.195 208.684 257.656C209.517 257.414 210.358 257.171 211.205 256.949Z" fill="white"/>
<path d="M213.976 282.79C232.781 277.401 253.102 277.571 271.9 282.869C277.842 293.354 283.341 304.08 289.256 314.578C281.184 326.117 272.549 337.27 264.403 348.75C249.965 348.763 235.527 348.756 221.089 348.763C213.123 337.826 205.083 326.955 197.057 316.065C196.064 315.043 196.786 313.622 197.289 312.561C202.397 303.164 207.584 293.818 212.527 284.342C212.911 283.746 213.169 282.915 213.976 282.79ZM138.194 304.84C140.913 301.631 143.275 298.003 146.564 295.344C146.617 295.711 146.716 296.451 146.762 296.824C147.437 305.135 149.336 313.288 151.612 321.291C149.085 325.907 146.061 330.275 143.884 335.089C137.313 348.625 133.35 363.484 133.085 378.533C126.065 384.028 119.342 389.928 113.48 396.641L112.97 397.171C112.844 395.331 112.844 393.497 112.705 391.664C111.845 385.514 112.282 379.28 112.289 373.091C112.222 369.227 113.314 365.482 113.619 361.651C114.386 356.549 116.106 351.644 116.98 346.569C118.475 343.373 119.216 339.889 120.566 336.634C121.565 332.816 124.153 329.634 125 325.77C125.231 325.58 125.688 325.194 125.919 324.997L126.29 323.399C126.839 322.627 127.375 321.854 127.891 321.074C130.743 315.331 134.601 310.145 138.194 304.84ZM338.77 295.482C341.655 297.447 343.369 300.61 345.718 303.118C348.311 306.864 351.461 310.256 353.506 314.355C353.982 315.357 354.631 316.255 355.339 317.112C357.224 320.4 359.064 323.74 360.625 327.198C363.027 331.173 364.165 335.704 366.018 339.909C367.639 344.447 368.83 349.116 370.054 353.772C371.153 358.52 371.821 363.347 372.668 368.134C373.191 375.337 373.032 382.574 372.933 389.797C372.946 392.246 372.278 394.624 372.026 397.053C366.561 389.85 359.269 384.309 352.401 378.501C351.852 358.88 345.427 339.549 334.72 323.072C334.251 322.279 333.49 321.422 333.979 320.446C336.428 312.312 338.075 303.943 338.77 295.482Z" fill="white"/>
<path d="M293.34 317.747C305.356 319.81 317.359 321.958 329.362 324.119C340.333 340.504 347.194 359.882 347.194 379.653C338.963 388.212 330.368 396.424 322.427 405.252C310.14 401.63 298.038 397.439 285.797 393.667C284.03 393.051 281.621 392.639 281.191 390.491C277.109 377.354 272.199 364.473 268.639 351.185C277.042 340.164 285.082 328.88 293.34 317.747ZM157.595 323.936C169.062 321.677 180.589 319.758 192.102 317.741C200.353 328.913 208.36 340.262 216.882 351.238C212.627 364.964 208.34 378.71 203.351 392.194C190.117 396.968 176.559 400.877 163.186 405.291C154.882 396.26 145.87 387.878 137.758 378.677C138.955 359.81 144.778 341.139 155.2 325.252C155.597 324.283 156.682 324.113 157.595 323.936ZM165.105 409.744C178.398 406.005 191.407 401.355 204.608 397.308C204.82 397.302 205.236 397.282 205.442 397.269C216.955 405.592 228.495 413.896 240.068 422.141C240.418 425.959 240.2 429.797 240.14 433.628C240.286 443.876 240.266 454.125 240.081 464.381C229.408 469.148 219.066 474.603 208.36 479.299C207.301 479.947 206.169 479.181 205.137 478.906C187.172 472.599 171.762 460.438 159.845 445.874C161.684 433.844 162.902 421.715 165.105 409.744ZM280.139 397.092C293.644 401.382 307.143 405.697 320.588 410.157C322.355 421.905 323.691 433.706 325.656 445.422C313.912 460.864 297.522 472.704 279.252 479.449C278.22 479.927 277.148 479.469 276.196 479.063C265.906 474.223 255.783 469.017 245.368 464.426C245.162 450.36 245.308 436.293 245.282 422.233C256.874 413.818 268.593 405.579 280.139 397.092Z" fill="white"/>
<path d="M356.503 445.625C348.259 447.983 339.657 448.618 331.134 449.22C328.885 449.161 327.641 451.178 326.317 452.632C314.096 467.026 297.944 477.996 280.191 484.603C277.029 493.136 273.197 501.434 268.427 509.207C263.854 509.836 259.322 510.792 254.697 511.034C259.434 511.617 263.901 509.423 268.625 509.678C268.771 509.462 269.049 509.03 269.194 508.814C271.245 508.428 273.356 508.257 275.315 507.478C279.602 506.758 283.546 504.819 287.748 503.758C290.99 502.429 294.199 501.001 297.494 499.803C301.676 497.491 306.083 495.572 310.093 492.959C316.061 489.692 321.222 485.238 326.8 481.401C330.466 477.766 334.258 474.191 338.314 470.969C338.353 470.766 338.439 470.36 338.486 470.15C339.935 469.39 340.577 467.779 341.655 466.627C347.24 460.104 352.474 453.208 356.503 445.625Z" fill="white"/>
<path d="M136.487 447.301C134.727 447 132.973 446.561 131.187 446.575C130.929 447.537 130.307 448.69 131.087 449.6C133.165 452.816 135.474 455.893 137.532 459.135C138.022 460.019 138.803 460.661 139.676 461.178L140.073 462.377C142.409 465.33 145.168 467.91 147.537 470.831C150.878 474.715 155.027 477.779 158.759 481.27C162.842 484.21 166.54 487.799 171.106 489.993C173.812 492.606 177.452 493.909 180.495 496.077C181.468 496.293 182.752 496.162 183.155 497.321C191.433 501.407 200.055 504.865 209.027 507.151C211.416 507.917 213.91 508.395 216.431 508.041C211.846 501.008 208.524 493.274 205.606 485.448C205.447 484.59 204.514 484.446 203.866 484.119C185.696 477.072 169.353 465.363 157.052 450.347C156.582 449.888 156.211 449.148 155.437 449.253C149.098 448.873 142.74 448.461 136.487 447.301Z" fill="white"/>
<path d="M255.597 18.4562C255.22 15.9742 254.995 13.4661 255.154 10.9579C323.539 10.8466 391.924 11.0234 460.309 10.8662C460.309 16.6619 460.62 22.5099 459.595 28.2401C459.595 32.2283 458.96 36.1575 458.748 40.1261C457.596 46.1378 457.358 52.2937 455.876 58.2465C455.413 60.4469 455.082 62.6734 454.579 64.8607C453.865 68.3185 452.64 71.6976 452.587 75.2667C451.125 76.9432 451.138 79.2746 450.411 81.2785C450.344 81.5208 450.199 81.9988 450.126 82.2411C427.291 82.228 404.463 82.0643 381.628 82.3132C379.26 95.9935 374.555 109.183 369.109 121.933C358.787 145.168 344.124 166.53 326.007 184.5C310.372 200.001 292.241 213.328 271.868 222.057C251.329 230.852 228.74 232.509 207.235 237.925C181.482 244.028 157.569 257.217 138.453 275.312C117.643 295.082 102.702 320.911 96.3298 348.782C90.8841 371.605 91.0958 395.684 96.826 418.428C103.105 443.32 116.081 466.535 133.993 485.075C150.674 502.377 171.616 515.612 194.517 523.248C207.374 527.465 220.779 530.13 234.304 530.838C242.953 530.988 251.66 531.257 260.249 530.058C286.478 526.994 311.907 517.033 332.995 501.277C369.546 474.42 392.632 430.275 392.89 385.154C393.631 357.689 386.181 330.099 371.968 306.517C355.174 278.416 328.68 256.183 298.031 244.153C296.41 243.524 294.663 243.976 293.055 244.369C287.054 246.006 280.927 247.139 274.799 248.219C299.441 254.343 322.513 266.877 340.591 284.585C365.291 308.468 380.252 341.873 381.714 375.999C382.502 382.318 381.595 388.651 381.337 394.971C379.035 420.635 369.149 445.553 353.288 465.979C328.667 498.192 289.019 518.723 248.173 519.875C241.391 519.855 234.556 520.163 227.813 519.26C202.96 516.738 178.921 507.249 158.971 492.39C140.927 478.847 126.185 461.015 116.577 440.694C106.46 419.417 102.02 395.488 103.899 372.057C106.043 343.53 117.351 315.685 136.117 293.891C148.133 279.562 163.345 267.971 180.026 259.437C192.684 253.092 206.355 248.802 220.336 246.458C234.053 244.48 248.034 244.867 261.685 242.306C280.225 239.018 297.786 231.992 315.109 224.899L315.248 225.613C319.84 228.272 324.644 230.584 329.567 232.568C329.633 232.771 329.779 233.177 329.845 233.38C324.638 233.865 319.768 235.934 314.911 237.722C334.735 247.853 352.772 261.572 367.157 278.494C390.773 305.835 404.642 341.31 405.502 377.289C406.098 382.744 405.304 388.206 405.284 393.674C403.431 420.74 394.511 447.308 379.471 470.006C367.594 488.127 351.992 503.811 333.947 515.952C312.476 530.327 287.491 539.548 261.738 542.468C242.86 544.498 223.585 543.673 205.098 539.279C181.892 533.831 159.977 523.208 141.278 508.585C122.996 494.184 107.889 475.848 97.3024 455.239C84.3797 430.092 78.3385 401.526 79.9729 373.373C81.647 343.975 91.5855 315.076 108.558 290.885C122.347 271.173 140.649 254.624 161.545 242.522C180.152 231.841 200.519 224.52 218.933 213.491C231.744 206.117 243.7 197.29 254.373 187.106C274.74 167.382 289.251 142.326 298.779 115.889C308.532 89.1108 313.296 60.8267 315.83 32.5557C295.848 32.5099 275.865 32.5557 255.882 32.5361C255.67 27.8471 255.882 23.1451 255.597 18.4562ZM348.769 44.4483C343.072 44.481 337.362 44.3631 331.665 44.5792C335.959 48.2138 340.915 50.997 345.189 54.6643L345.262 55.1358C343.628 60.3617 341.59 65.4763 340.26 70.7939C344.892 67.4737 349.398 63.9636 354.215 60.8987C358.728 64.2583 363.326 67.4999 367.925 70.7415C366.363 65.365 364.504 60.067 362.684 54.7691C367.217 51.2131 372.06 48.0763 376.58 44.5072C370.836 44.3697 365.086 44.6054 359.35 44.3304C357.517 39.0979 355.975 33.7607 354.135 28.5282C352.051 33.7279 350.536 39.1372 348.769 44.4483ZM211.205 256.949C210.358 257.172 209.518 257.414 208.684 257.656C203.225 259.195 197.793 260.872 192.592 263.151C188.284 264.853 183.943 266.602 180.02 269.084C167.651 275.931 156.412 284.607 146.691 294.814C146.71 295.318 146.744 296.32 146.763 296.824C146.717 296.451 146.618 295.711 146.565 295.344C143.276 298.003 140.914 301.631 138.195 304.84C134.602 310.145 130.744 315.331 127.892 321.074C127.376 321.854 126.84 322.626 126.291 323.399L125.92 324.997C125.689 325.194 125.232 325.58 125.001 325.77C124.154 329.634 121.566 332.816 120.567 336.634C119.217 339.889 118.476 343.373 116.981 346.569C116.108 351.644 114.387 356.549 113.62 361.651C113.315 365.482 112.223 369.227 112.29 373.091C112.283 379.28 111.846 385.514 112.706 391.663C112.845 393.497 112.845 395.331 112.971 397.171L113.481 396.641C113.176 398.743 113.692 400.858 113.924 402.96C116.008 418.107 121.613 432.619 129.03 445.966L129.831 445.324C130.274 445.737 130.731 446.156 131.187 446.575C130.929 447.538 130.307 448.69 131.088 449.6C133.166 452.816 135.475 455.894 137.533 459.135C138.023 460.019 138.803 460.661 139.677 461.179L140.074 462.377C142.409 465.331 145.169 467.911 147.538 470.831C150.879 474.715 155.028 477.78 158.76 481.27C162.842 484.211 166.541 487.799 171.107 489.993C173.813 492.606 177.452 493.909 180.496 496.077C181.469 496.293 182.752 496.162 183.156 497.321C191.434 501.408 200.055 504.865 209.028 507.151C211.417 507.917 213.911 508.395 216.432 508.042C216.684 508.415 216.948 508.768 217.22 509.148C229.56 511.447 242.185 512.01 254.697 511.034C259.435 511.617 263.901 509.423 268.626 509.679C268.771 509.463 269.049 509.03 269.195 508.814C271.246 508.428 273.357 508.258 275.316 507.478C279.603 506.758 283.547 504.82 287.749 503.759C290.991 502.429 294.2 501.002 297.495 499.803C301.677 497.491 306.084 495.573 310.094 492.96C316.062 489.692 321.223 485.239 326.801 481.401C330.467 477.767 334.258 474.191 338.315 470.969C338.354 470.766 338.44 470.36 338.487 470.15C339.936 469.391 340.578 467.78 341.656 466.627C347.241 460.105 352.475 453.209 356.504 445.625C364.775 430.674 370.955 414.172 372.027 397.053C372.279 394.624 372.947 392.246 372.934 389.797C373.033 382.574 373.192 375.337 372.669 368.134C371.822 363.347 371.154 358.52 370.056 353.772C368.831 349.116 367.64 344.447 366.019 339.909C364.167 335.704 363.028 331.173 360.627 327.198C359.065 323.74 357.226 320.4 355.34 317.112C354.632 316.255 353.983 315.357 353.507 314.355C351.462 310.256 348.313 306.864 345.719 303.118C343.37 300.61 341.656 297.447 338.771 295.482C338.434 294.035 336.991 293.229 336.071 292.168C325.167 281.16 312.238 272.214 298.276 265.423C298.455 265.423 298.799 265.43 298.977 265.436C292.923 263.458 287.213 260.498 281.006 258.94C271.67 255.882 261.897 254.369 252.143 253.314C245.732 253.21 239.313 253.21 232.902 253.347C225.577 253.917 218.351 255.318 211.205 256.949Z" fill="#FEE501"/>
<path d="M348.766 44.4479C350.533 39.1368 352.048 33.7275 354.132 28.5278C355.972 33.7603 357.513 39.0975 359.346 44.33C365.083 44.605 370.833 44.3693 376.577 44.5068C372.057 48.0759 367.214 51.2127 362.681 54.7687C364.501 60.0667 366.36 65.3646 367.922 70.7411C363.323 67.4995 358.724 64.2579 354.212 60.8984C349.395 63.9632 344.888 67.4733 340.257 70.7935C341.587 65.4759 343.625 60.3614 345.259 55.1354L345.186 54.6639C340.912 50.9966 335.956 48.2134 331.661 44.5788C337.358 44.3627 343.069 44.4806 348.766 44.4479ZM180.016 269.084C182.848 267.78 185.469 265.881 188.513 265.128C196.923 268.343 204.717 272.928 212.188 277.885C230.113 273.157 249.242 272.135 267.332 276.595C269.794 277.034 272.599 278.415 274.922 276.831C281.043 272.816 287.375 269.057 294.137 266.202C295.427 265.599 296.85 265.331 298.273 265.423C312.234 272.214 325.164 281.159 336.068 292.168C336.988 293.229 338.43 294.034 338.768 295.482C338.073 303.943 336.426 312.312 333.977 320.445C333.488 321.421 334.249 322.279 334.718 323.072C345.424 339.548 351.849 358.88 352.399 378.5C359.267 384.309 366.559 389.849 372.024 397.053C370.952 414.171 364.772 430.674 356.501 445.625C348.256 447.983 339.655 448.618 331.132 449.22C328.882 449.161 327.638 451.178 326.315 452.632C314.094 467.026 297.942 477.996 280.189 484.603C277.026 493.136 273.195 501.434 268.424 509.207C263.852 509.836 259.319 510.792 254.694 511.034C242.182 512.01 229.557 511.447 217.216 509.148C216.945 508.768 216.68 508.415 216.429 508.041C211.844 501.008 208.522 493.274 205.604 485.448C205.445 484.59 204.512 484.446 203.864 484.119C185.694 477.072 169.35 465.363 157.049 450.347C156.58 449.888 156.209 449.148 155.435 449.253C149.096 448.873 142.737 448.461 136.484 447.301C134.724 447 132.971 446.561 131.184 446.575C130.728 446.155 130.271 445.736 129.828 445.324L129.027 445.966C121.61 432.619 116.005 418.107 113.921 402.96C113.689 400.858 113.173 398.742 113.477 396.64C119.34 389.928 126.063 384.027 133.083 378.533C133.348 363.484 137.311 348.625 143.882 335.088C146.059 330.275 149.083 325.907 151.61 321.29C149.334 313.288 147.435 305.134 146.76 296.824C146.74 296.32 146.707 295.318 146.687 294.814C156.408 284.607 167.648 275.93 180.016 269.084ZM213.974 282.79C213.167 282.914 212.909 283.746 212.525 284.342C207.582 293.818 202.395 303.163 197.286 312.561C196.784 313.622 196.062 315.043 197.055 316.064C205.081 326.955 213.121 337.826 221.087 348.762C235.525 348.756 249.963 348.762 264.401 348.749C272.546 337.269 281.181 326.117 289.254 314.578C283.339 304.08 277.84 293.353 271.898 282.869C253.1 277.571 232.779 277.4 213.974 282.79ZM293.337 317.747C285.079 328.88 277.039 340.164 268.636 351.185C272.196 364.473 277.105 377.354 281.188 390.491C281.618 392.639 284.027 393.052 285.793 393.667C298.035 397.439 310.137 401.63 322.424 405.252C330.364 396.424 338.96 388.212 347.191 379.653C347.191 359.882 340.329 340.504 329.359 324.119C317.356 321.958 305.353 319.81 293.337 317.747ZM157.592 323.936C156.679 324.113 155.594 324.283 155.197 325.252C144.775 341.14 138.952 359.81 137.755 378.677C145.867 387.878 154.879 396.26 163.183 405.291C176.556 400.877 190.114 396.968 203.347 392.194C208.337 378.71 212.624 364.964 216.879 351.238C208.356 340.262 200.35 328.913 192.099 317.741C180.586 319.758 169.059 321.677 157.592 323.936ZM165.102 409.744C162.899 421.715 161.681 433.844 159.842 445.874C171.759 460.438 187.169 472.599 205.134 478.906C206.166 479.181 207.298 479.947 208.356 479.299C219.063 474.603 229.405 469.148 240.078 464.381C240.263 454.125 240.283 443.876 240.137 433.628C240.197 429.797 240.415 425.959 240.064 422.141C228.492 413.896 216.952 405.592 205.438 397.269C205.233 397.282 204.816 397.302 204.605 397.308C191.404 401.355 178.395 406.005 165.102 409.744ZM280.136 397.092C268.59 405.579 256.871 413.818 245.278 422.233C245.305 436.293 245.159 450.36 245.364 464.427C255.779 469.017 265.903 474.223 276.192 479.063C277.145 479.469 278.217 479.927 279.249 479.449C297.518 472.704 313.908 460.864 325.653 445.422C323.688 433.706 322.351 421.905 320.585 410.157C307.139 405.697 293.641 401.382 280.136 397.092ZM18.1882 369.744C24.9374 364.46 35.3325 364.283 42.2934 369.286C50.0748 374.885 50.2336 387.518 43.2396 393.798C41.5656 395.357 39.3886 396.215 37.2315 396.909C37.1323 394.669 37.0132 392.436 36.9271 390.209C39.3423 388.408 42.0684 386.372 42.5448 383.202C43.0279 379.162 40.2356 375.259 36.497 373.811C32.0505 372.023 26.7041 372.305 22.5487 374.715C19.28 377.027 18.0493 381.67 19.5513 385.331C20.5107 388.166 23.6207 389.227 25.8572 390.871C26.0954 388.166 26.3667 385.468 26.5916 382.763C28.3914 382.731 30.1912 382.75 31.991 382.757C31.9513 387.315 31.9711 391.873 31.9248 396.431C25.877 396.418 19.8226 396.398 13.7682 396.424C13.7814 394.918 13.788 393.412 13.7682 391.912C15.118 391.788 16.4679 391.657 17.8177 391.539C16.1701 389.325 14.1917 387.23 13.4373 384.519C12.0213 379.24 13.7748 373.156 18.1882 369.744ZM437.849 366.405C449.005 366.333 460.161 366.169 471.31 366.058C471.31 368.343 471.303 370.629 471.336 372.914C463.562 377.629 455.562 381.984 447.827 386.758C455.661 386.883 463.495 386.725 471.33 386.686C471.317 388.828 471.323 390.969 471.31 393.117C460.266 393.196 449.23 393.281 438.193 393.392C438.074 390.962 438.067 388.526 438.133 386.097C445.875 381.598 453.676 377.19 461.385 372.632C453.55 372.672 445.723 372.881 437.888 372.894C437.868 370.727 437.875 368.566 437.849 366.405ZM446.345 396.85C451.241 395.894 456.462 396.424 461.06 398.363C465.097 400.111 468.703 403.543 469.537 407.963C470.847 413.687 469.603 420.34 465.222 424.518C462.265 427.426 457.951 428.31 453.934 428.474C447.754 428.52 441.031 426.339 437.452 421.061C431.721 412.717 436.254 399.338 446.345 396.85ZM446.927 403.883C440.628 405.337 439.026 414.623 443.949 418.48C448.608 421.663 455.085 422.783 460.247 420.104C465.136 417.38 465.672 409.528 461.107 406.247C457.084 403.313 451.698 402.881 446.927 403.883ZM14.6151 402.757C25.652 401.375 36.6029 399.384 47.6531 398.068C47.8913 400.347 48.1427 402.619 48.4405 404.892C44.2718 405.317 40.1628 406.175 36.0008 406.627C36.6426 410.89 37.3242 415.147 37.8866 419.417C42.1015 418.762 46.3231 418.166 50.5512 417.616C50.7497 419.901 51.0276 422.18 51.2394 424.466C40.1959 425.789 29.2781 428.107 18.175 428.965C17.9765 426.758 17.6787 424.558 17.5067 422.351C22.4362 421.814 27.3195 420.917 32.2358 420.275C31.6535 416.038 30.8198 411.833 30.4625 407.57C25.4469 408.146 20.4644 408.991 15.4489 409.613C15.0585 407.334 14.8203 405.049 14.6151 402.757ZM432.78 426.889C443.612 429.62 454.463 432.246 465.262 435.121C464.759 437.367 464.117 439.574 463.509 441.801C453.676 439.436 443.976 436.306 433.971 434.767C434.851 435.042 435.718 435.258 436.624 435.501C436.466 438.873 434.845 441.938 433.74 445.075C442.374 447.93 450.851 451.244 459.558 453.896C458.963 456.149 458.228 458.362 457.507 460.582C448.773 457.747 440.171 454.518 431.437 451.663C430.391 454.813 429.22 457.924 428.115 461.06C426.368 460.412 424.588 459.823 422.802 459.312C425.647 448.369 431.073 438.146 432.78 426.889ZM19.1874 433.398C30.9786 433.628 42.75 434.531 54.5412 434.911C55.4278 437.465 56.4071 440.039 56.4336 442.789C47.2759 449.914 37.6484 456.411 28.398 463.411C27.6702 460.916 26.9026 458.428 26.413 455.88C28.2128 454.774 29.9861 453.628 31.7594 452.482C31.5278 448.31 29.5692 444.512 28.6561 440.484C26.2608 440.419 23.8589 440.32 21.4636 440.327C20.6365 438.035 19.8755 435.723 19.1874 433.398ZM34.6509 440.51C35.4979 443.15 36.1662 445.841 36.9271 448.506C41.0693 446.116 44.9269 443.287 48.9301 440.694C44.1726 440.609 39.4085 440.648 34.6509 440.51ZM29.9795 466.673C40.09 462.108 49.9292 456.915 60.2449 452.816C61.4426 454.721 62.3358 456.954 62.8321 459.174C58.3922 466.85 52.6091 473.7 47.7589 481.126C54.6801 477.668 61.7271 474.459 68.7343 471.211C69.9452 472.933 70.8319 474.846 71.8641 476.673C61.9454 481.787 51.6298 486.077 41.678 491.113C40.7583 489.266 39.7327 487.472 38.8129 485.618C38.3034 484.977 38.9585 484.322 39.2761 483.798C44.113 476.83 49.0161 469.901 53.992 463.032C46.5348 465.474 39.7459 469.489 32.5666 472.593C31.7991 470.576 30.919 468.605 29.9795 466.673ZM416.496 471.008C417.727 468.631 418.534 465.952 420.102 463.798C431.84 464.924 443.552 466.371 455.258 467.806C454.093 469.98 452.968 472.174 451.949 474.42C449.521 474.106 447.086 473.837 444.651 473.608C442.963 477.092 441.044 480.471 439.681 484.099C440.687 486.299 442.712 487.707 444.512 489.227C443.446 491.545 442.236 493.804 441.236 496.155C439.284 493.47 436.598 491.42 434.375 488.971C428.36 483.032 422.537 476.908 416.496 471.008ZM425.396 470.478C428.128 474.079 431.622 477.02 434.95 480.065C436.247 477.642 437.518 475.206 438.696 472.717C434.269 471.912 429.822 471.27 425.396 470.478ZM410.547 481.368C420.049 486.895 429.233 492.933 438.735 498.454C437.677 500.497 436.651 502.553 435.612 504.61C425.932 498.925 416.35 493.071 406.915 486.987C408.106 485.101 409.35 483.248 410.547 481.368ZM43.1999 494.23C54.6404 491.348 66.1471 488.69 77.5744 485.749C78.8713 487.727 80.5388 489.548 81.2733 491.84C81.6636 492.743 80.9755 493.51 80.5123 494.217C74.1138 503.11 67.2588 511.663 60.6419 520.392C59.2127 518.31 57.9224 516.149 56.5527 514.033C58.1408 512.278 59.6031 510.425 61.1448 508.644C58.8223 505.271 56.5262 501.885 54.2699 498.467C51.9077 499.024 49.5587 499.665 47.223 500.327C45.8533 498.31 44.563 496.247 43.1999 494.23ZM60.278 496.889C61.7469 499.161 63.1299 501.492 64.5988 503.778C67.669 500.36 70.6532 496.862 73.4389 493.215C69.0453 494.413 64.5922 495.415 60.278 496.889ZM394.918 513.071C391.451 504.498 398.366 493.771 407.636 493.104C410.342 493.038 412.996 493.699 415.616 494.309C414.259 496.247 412.87 498.166 411.5 500.098C409.396 499.967 407.219 499.456 405.161 500.117C401.138 501.879 399.286 507.268 401.588 511.054C404.255 515.225 408.536 518.578 413.499 519.547C417.171 520.189 420.592 517.419 421.816 514.151C422.597 511.63 421.108 509.246 420.44 506.902C421.081 504.754 422.775 502.92 424.846 501.977C426.884 504.983 428.744 508.428 428.479 512.174C427.87 519.2 421.962 525.585 414.795 526.358C411.203 526.699 407.749 525.297 404.678 523.601C400.417 521.224 396.824 517.55 394.918 513.071ZM71.3215 532.514C79.4272 525.114 87.0034 517.164 95.1752 509.836C98.1462 512.023 100.502 514.885 103.102 517.471C106.086 520.445 108.945 523.549 111.79 526.653C110.401 527.93 109.031 529.22 107.681 530.543C103.956 526.83 100.277 523.064 96.5648 519.338C93.6997 519.331 92.2506 521.977 90.7817 523.974C93.8585 527.432 97.2 530.641 100.542 533.856C99.2314 535.376 97.8882 536.875 96.5317 538.362C93.1637 534.911 89.8355 531.44 86.4873 527.976C82.7819 530.89 79.5396 534.308 76.1584 537.57C74.577 535.854 72.9625 534.171 71.3215 532.514ZM383.432 517.943C388.235 516.424 393.456 518.198 397.307 521.152C401.324 524.348 404.658 528.689 405.744 533.752C407.391 543.968 396.546 554.014 386.343 551.577C378.489 549.122 371.932 542.049 371.025 533.817C371.038 526.607 376.55 519.999 383.432 517.943ZM383.418 524.407C380.295 525.716 378.231 528.794 377.371 531.944C378.323 537.773 382.638 543.064 388.275 545.101C393.82 547.092 400.225 541.499 399.226 535.834C398.147 531.401 395.064 527.524 391.061 525.304C388.758 524.073 385.92 523.189 383.418 524.407ZM110.07 531.577C118.718 529.22 128.299 535.67 130.073 544.197C131.131 549.881 128.319 555.48 124.64 559.672C121.656 562.841 117.712 565.624 113.18 565.742C104.307 566.161 95.7708 558.48 95.8038 549.593C96.7898 541.663 102.341 534.21 110.07 531.577ZM111.479 538.192C106.629 540.805 102.666 545.945 102.778 551.584C102.917 556.522 108.277 560.34 113.074 559.043C119.148 557.321 123.608 551.171 123.542 544.963C123.158 539.462 116.429 535.828 111.479 538.192ZM347.575 547.046C350.347 541.054 357.315 536.843 364.005 538.021C366.552 538.46 368.623 540.183 370.125 542.2C368.365 543.293 366.631 544.433 364.865 545.513C360.842 542.16 353.662 545.035 353.166 550.202C352.882 551.748 354.304 552.697 355.204 553.712C361.662 552.828 367.234 548.113 373.936 548.801C379.144 550.556 382.406 557.059 379.945 562.108C376.577 568.126 369.827 572.894 362.635 572.075C359.796 571.833 357.844 569.586 355.872 567.825C357.56 566.554 359.28 565.323 361.087 564.223C365.659 567.845 372.812 564.583 374.439 559.429C374.724 557.779 373.599 555.847 371.819 555.677C366.195 555.814 361.563 559.737 355.998 560.176C349.494 560.713 344.809 552.592 347.575 547.046ZM138.595 549.96C147.455 547.845 157.427 554.203 158.902 563.143C159.054 569.685 156.149 576.26 151.233 580.641C148.07 583.679 143.372 585.009 139.058 584.177C134.036 583.28 129.278 580.287 126.757 575.834C124.812 572.592 124.931 568.591 125.586 565.002C127.082 558.355 131.872 552.023 138.595 549.96ZM140.408 556.253C135.174 558.847 131.7 564.675 131.958 570.471C132.077 575.52 137.821 579.285 142.631 577.989C146.859 576.482 149.751 572.586 151.127 568.486C151.875 566.037 152.537 563.28 151.359 560.85C149.5 557.006 144.524 554.649 140.408 556.253ZM323.615 560.091C326.891 554.57 333.885 551.322 340.243 552.691C343.181 553.3 345.504 555.356 347.138 557.759C345.206 558.702 343.241 559.573 341.309 560.53C337.947 557.039 331.615 558.211 329.339 562.317C328.518 563.863 329.121 565.605 329.69 567.124C335.506 567.294 341.011 565.094 346.701 564.315C351.135 564.812 354.939 568.565 355.118 573.038C355.78 578.034 351.843 582.167 347.74 584.419C343.995 586.286 339.582 588.028 335.38 586.633C332.641 585.873 330.98 583.444 329.068 581.564C330.907 580.549 332.733 579.508 334.553 578.467C338.325 582.632 345.967 581.06 348.21 576.096C348.859 574.662 348.508 573.097 348.29 571.623C341.348 570.549 334.778 574.983 327.87 573.3C324.906 572.206 323.569 569.076 322.583 566.345C321.538 564.262 322.55 561.951 323.615 560.091Z" fill="#000001"/>
<path d="M160.583 558.676C162.906 558.991 165.056 559.96 167.24 560.759C173.685 563.116 180.017 565.769 186.561 567.851C193.224 569.947 200.589 570.025 206.762 573.529C211.877 577.085 210.375 585.729 204.691 587.93C211.176 592.736 206.226 604.118 198.551 604.007C191.636 603.503 185.046 601.217 178.25 600.019C180.03 591.001 183.206 582.232 183.908 573.018C184.642 572.645 185.383 572.272 186.098 571.865C184.9 572.029 183.749 572.396 182.591 572.71C179.891 571.898 177.317 570.739 174.644 569.862C171.25 578.309 168.16 586.869 164.785 595.33C162.621 594.452 160.484 593.522 158.32 592.664C161.609 584.197 164.944 575.749 168.04 567.216C165.513 566.358 163.012 565.441 160.451 564.681C159.941 563.752 159.425 562.815 158.922 561.892C159.855 561.04 160.173 559.809 160.583 558.676ZM190.617 575.251C190.366 577.471 189.975 579.672 189.572 581.879C192.549 582.474 195.447 583.503 198.498 583.732C199.914 583.758 201.819 583.843 202.494 582.304C203.123 581.125 203.805 579.331 202.488 578.382C199.166 575.736 194.653 575.69 190.617 575.251ZM186.171 596.037C190.432 596.672 194.673 598.329 199.027 597.759C200.271 595.775 201.945 592.704 199.874 590.719C196.38 588.486 192.053 588.408 188.162 587.242C187.382 590.15 186.819 593.103 186.171 596.037ZM301.092 566.908C303.692 565.991 306.333 565.133 309.039 564.603C316.231 573.706 323.695 582.658 330.497 592.075C328.069 592.704 325.746 593.706 323.258 594.112C321.975 592.167 320.532 590.34 319.136 588.48C315.239 589.822 311.328 591.119 307.471 592.579C307.543 594.904 307.563 597.235 307.405 599.56C305.175 600.385 302.938 601.184 300.702 601.99C300.649 590.294 301.046 578.598 301.092 566.908ZM307.451 572.547C307.305 577.203 307.391 581.872 307.497 586.535C310.177 585.52 312.87 584.518 315.583 583.594C312.824 579.947 310.064 576.299 307.451 572.547ZM222.894 574.695C225.514 574.649 228.108 575.068 230.709 575.356C233.779 586.515 236.591 597.753 239.701 608.912C237.292 608.984 234.884 608.984 232.475 608.951C231.754 606.541 231.132 604.099 230.517 601.669C226.434 601.263 222.352 600.818 218.249 600.628C217.329 602.88 216.35 605.114 215.285 607.301C212.896 606.954 210.488 606.842 208.086 606.659C213.095 596.037 217.515 585.14 222.894 574.695ZM220.684 595.061C223.43 595.284 226.169 595.493 228.922 595.644C228.188 591.355 227.155 587.118 226.262 582.854C223.734 586.587 222.524 590.994 220.684 595.061ZM262.278 574.826C264.554 574.564 266.823 574.236 269.1 573.941C270.727 582.789 271.872 591.715 273.394 600.588C278.919 599.868 284.411 598.932 289.916 598.08C290.095 600.071 290.326 602.068 290.684 604.046C282.836 605.172 275.042 606.626 267.148 607.419C265.897 596.502 263.813 585.703 262.278 574.826ZM240.396 575.854C242.798 575.762 245.2 575.657 247.608 575.631C247.76 584.544 248.197 593.45 248.475 602.357C254.033 602.245 259.591 602.108 265.156 601.97C265.215 603.968 265.262 605.965 265.288 607.962C257.454 608.231 249.613 608.224 241.779 608.08C241.481 597.327 240.826 586.594 240.396 575.854Z" fill="#000001"/>
<path d="M255.879 32.5357C275.862 32.5554 295.845 32.5095 315.827 32.5554C313.293 60.8264 308.529 89.1105 298.776 115.888C289.248 142.326 274.737 167.381 254.37 187.106C243.697 197.289 231.741 206.117 218.93 213.491C200.516 224.519 180.149 231.841 161.542 242.522C140.646 254.624 122.344 271.173 108.555 290.884C91.5825 315.075 81.644 343.975 79.9699 373.373C78.3355 401.526 84.3767 430.091 97.2994 455.239C107.886 475.848 122.993 494.184 141.275 508.585C159.974 523.208 181.889 533.83 205.094 539.279C223.582 543.673 242.857 544.498 261.735 542.468C287.487 539.547 312.473 530.327 333.944 515.952C351.988 503.811 367.591 488.126 379.468 470.006C394.508 447.308 403.428 420.74 405.281 393.674C405.3 388.205 406.094 382.744 405.499 377.289C404.639 341.31 390.77 305.835 367.154 278.494C352.769 261.572 334.732 247.852 314.908 237.721C319.764 235.934 324.634 233.864 329.842 233.38C371.865 257.099 402.945 299.024 412.916 345.914C418.64 371.965 418.111 399.325 411.461 425.16C404.989 450.15 392.742 473.66 375.902 493.352C359.962 512.023 340.045 527.406 317.693 537.858C292.655 549.803 264.653 555.467 236.888 554.551C208.568 553.673 180.48 545.775 155.925 531.774C135.002 519.908 116.654 503.64 102.375 484.407C84.7406 460.838 73.3928 432.704 69.8726 403.575C65.8231 371.27 71.1364 337.787 85.3891 308.409C100.667 276.588 126.122 249.719 157.083 232.371C191.398 211.965 218.302 180.806 236.663 145.855C250.625 118.259 256.09 87.1197 256.269 56.4584C256.163 48.482 256.501 40.4925 255.879 32.5357Z" fill="#D60124"/>
<path d="M381.628 82.3132C404.463 82.0644 427.291 82.2281 450.126 82.2412C442.464 108.901 429.958 134.369 412.271 155.947C386.876 187.067 352.058 209.444 315.109 224.899C297.786 231.992 280.225 239.019 261.685 242.306C248.034 244.867 234.053 244.48 220.336 246.458C206.355 248.802 192.684 253.092 180.026 259.438C163.345 267.971 148.133 279.562 136.117 293.891C117.352 315.685 106.043 343.53 103.9 372.057C102.02 395.488 106.46 419.417 116.577 440.694C126.185 461.015 140.927 478.847 158.972 492.39C178.921 507.249 202.96 516.738 227.813 519.26C234.556 520.163 241.391 519.856 248.173 519.875C289.019 518.723 328.667 498.192 353.288 465.979C369.149 445.553 379.035 420.635 381.337 394.971C381.595 388.651 382.502 382.318 381.714 375.999C380.252 341.873 365.291 308.468 340.591 284.585C322.514 266.877 299.441 254.343 274.799 248.22C280.927 247.139 287.054 246.006 293.055 244.369C294.663 243.976 296.41 243.524 298.031 244.153C328.68 256.183 355.174 278.416 371.968 306.517C386.181 330.099 393.631 357.689 392.89 385.154C392.632 430.275 369.546 474.42 332.995 501.277C311.907 517.033 286.478 526.994 260.249 530.058C251.66 531.257 242.953 530.988 234.304 530.838C220.78 530.131 207.374 527.465 194.517 523.248C171.616 515.612 150.674 502.377 133.993 485.075C116.081 466.536 103.105 443.32 96.8261 418.428C91.0959 395.685 90.8842 371.605 96.3298 348.782C102.702 320.911 117.643 295.082 138.453 275.312C157.569 257.218 181.482 244.028 207.235 237.925C228.74 232.509 251.329 230.852 271.868 222.057C292.241 213.328 310.372 200.001 326.007 184.5C344.124 166.53 358.787 145.168 369.109 121.933C374.555 109.183 379.26 95.9936 381.628 82.3132Z" fill="#019537"/>
</svg>
