<svg xmlns="http://www.w3.org/2000/svg" viewBox="0 0 15.72 25.17"><path d="m0 0 .043-.263c.249-4.386 1.276-8.419 3.879-11.799 2.081-2.701 5.376-5.07 10.244-5.074 4.792-.004 8.208 2.43 10.224 5.096 1.021 1.35 2.067 3.162 2.704 5.203.794 2.54.992 4.253 1.192 6.802.002.018.006.023.01.034v15.754h-.76l.001-7.649c0-2.59.048-5.234-.011-7.818-.198-8.594-4.919-16.616-13.396-16.606C5.547-16.311 1.061-8.302.77.35.727 1.631.759 2.968.759 4.254L.76 15.753H0Z" style="fill:#fff;fill-opacity:1;fill-rule:evenodd;stroke:none" transform="matrix(.35278 0 0 -.35278 2.862 16.384)"/><path d="M0 0c7.734 4.471 11.35 13.51 11.433 22.875.032 3.739.21 42.485-.062 45.64h-44.227c-.329-2.311-.143-42.698-.102-45.635.101-7.298 2.154-13.172 5.508-17.578 1.516-1.991 3.686-4.024 6.079-5.384C-14.875-3.773-6.462-3.736 0 0" style="fill:#0e0907;fill-opacity:1;fill-rule:evenodd;stroke:none" transform="matrix(.35278 0 0 -.35278 11.658 24.17)"/><path d="m0 0-.006-43.595c-.004-33.18 42.238-34.231 42.214.765L42.199.308Z" style="fill:#fbfdfb;fill-opacity:1;fill-rule:evenodd;stroke:none" transform="matrix(.35278 0 0 -.35278 .417 .514)"/><path d="M0 0c-7.258-1.078-13.514-8.211-12.263-16.752 1.062-7.26 7.956-13.916 16.67-12.503 7.424 1.204 13.569 7.936 12.354 16.74C15.737-5.093 8.669 1.288 0 0" style="fill:#0e0907;fill-opacity:1;fill-rule:evenodd;stroke:none" transform="matrix(.35278 0 0 -.35278 7.069 11.766)"/><path d="m0 0-.414-4.482C2.593-7.43 5.89-9.83 9.639-6.018L9.566-1.15C6.942-.174 6.49.663 5.223 1.341 4.102 1.94 2.1.842 0 0" style="fill:#fbfdfb;fill-opacity:1;fill-rule:evenodd;stroke:none" transform="matrix(.35278 0 0 -.35278 4.68 18.243)"/><path d="M0 0c-1.109-.047-3.005-.372-3.946-.852-.929-.473-1.131-1.693-1.621-3.482-.297-1.079-.842-3.13-.48-4.212.147-.441 2.192-2.367 2.599-2.457.559-.125 2.742.806 3.473 1.088 1.49.575.843.332 1.594 3.493C2.844-1.272 2.746-5.113 0 0" style="fill:#fbfdfb;fill-opacity:1;fill-rule:evenodd;stroke:none" transform="matrix(.35278 0 0 -.35278 5.82 14.173)"/><path d="m0 0 .151-4.941c1.15-.362 2.254-.913 3.624-1.179 1.495-.289 2.06.47 3.032 1.289 2.207 1.859 3.411 2.139 2.577 6.62-.864.532-4.55 1.659-5.338 1.242-.383-.202-1.326-1.209-1.925-1.643C1.515.949.678.463 0 0" style="fill:#fbfdfb;fill-opacity:1;fill-rule:evenodd;stroke:none" transform="matrix(.35278 0 0 -.35278 8.185 18.658)"/><path d="M0 0c1.386-.488 3.672-1.182 5.069-1.208C5.556-.195 6.354.598 7.013 1.736c.981 1.697-1.648 6.301-2.26 6.604-.559.278-3.529.66-4.291.683-1.104-2.592-2.258-2.74-1.886-4.062.171-.61.655-1.488.866-2.226C-.309 1.861-.2.962 0 0" style="fill:#fbfdfb;fill-opacity:1;fill-rule:evenodd;stroke:none" transform="matrix(.35278 0 0 -.35278 9.816 17.362)"/><path d="M0 0c1.443.004 2.78.24 4.345.208C6.624.161 6.477-.351 7.499 1.409c1.03 1.773 1.537 2.792-1.884 5.727-.787.675-2.718.512-4.03.409-1.207-.094-.968-.012-1.596-.66a27 27 0 0 1-1.22-1.323C-3.127 3.269-2.331 3.026 0 0" style="fill:#fbfdfb;fill-opacity:1;fill-rule:evenodd;stroke:none" transform="matrix(.35278 0 0 -.35278 6.813 15.327)"/><path d="M0 0c2.21 1.487 1.274 3.64 2.885 7.812.578 1.502.47 1.357-.13 2.639C.575 9.126-.402 3.462 0 0" style="fill:#fbfdfb;fill-opacity:1;fill-rule:evenodd;stroke:none" transform="matrix(.35278 0 0 -.35278 2.953 17.67)"/><path d="M0 0c2.249-.747 1.908-.755 4.609-.689 2.89.071 2.207-.493 3.97 1.115C6.219 1.307 1.895 1.412 0 0" style="fill:#fbfdfb;fill-opacity:1;fill-rule:evenodd;stroke:none" transform="matrix(.35278 0 0 -.35278 6.176 12.277)"/><path d="M0 0c-.354 1.308-.296 1.253-1.469 1.798-4.543 2.108-3.4 3.435-6.241 3.408C-6.823 3.31-3.075.639 0 0" style="fill:#fbfdfb;fill-opacity:1;fill-rule:evenodd;stroke:none" transform="matrix(.35278 0 0 -.35278 6.658 21.765)"/><path d="M0 0c2.426.778 5.373 3.463 6.269 5.233-1.305.131-1.24.008-1.9-.681-.661-.69-.92-.842-1.637-1.432C1.035 1.726.287 1.669 0 0" style="fill:#fbfdfb;fill-opacity:1;fill-rule:evenodd;stroke:none" transform="matrix(.35278 0 0 -.35278 9.775 21.528)"/><path d="M0 0c-.046 2.306-1.61 5.558-2.913 6.794-.452-1.098-.328-1.073.098-1.824s.492-1.017.817-1.791C-1.228 1.346-1.373.683 0 0" style="fill:#fbfdfb;fill-opacity:1;fill-rule:evenodd;stroke:none" transform="matrix(.35278 0 0 -.35278 12.875 16.345)"/><path d="M164.219 179.729h13.585v2.463h-13.585z" style="fill:#009348;fill-opacity:1;fill-rule:evenodd;stroke:none;stroke-width:.352778" transform="translate(-163.15 -178.76)"/><path d="M164.219 184.673h13.585v2.463h-13.585z" style="fill:#e11e25;fill-opacity:1;fill-rule:evenodd;stroke:none;stroke-width:.352778" transform="translate(-163.15 -178.76)"/><path d="M0 0q0-.331-.185-.531A.64.64 0 0 0-.679-.73q-.526 0-.526.484.002.277.153.495.028.035.048.036.008.001.006-.013a.1.1 0 0 0-.016-.05.66.66 0 0 1-.088-.32q0-.181.126-.275a.45.45 0 0 1 .284-.088.8.8 0 0 1 .463.128q.137.09.138.148.001.147-.088.377-.074.182-.162.329l.078.181q.02.037.028.038T-.21.713Q0 .413 0 0m-.56 1.018L-.701.79l-.203.151.147.229ZM.529.047V0a1 1 0 0 0-.088-.434Q.432-.452.413-.451t-.015.028Q.412-.217.37.242L.319.713a5 5 0 0 0-.022.41q0 .03.054.131.079.155.106.155.022 0 .015-.074-.008-.075-.006-.179 0-.267.063-1.109M1.812-.44h-.085q-.08 0-.093-.095a1.1 1.1 0 0 0-.195-.467q-.192-.277-.419-.276-.122 0-.309.125-.044.025-.045.047 0 .021.038.023.01-.001.028-.003a.7.7 0 0 1 .16-.017q.133-.001.232.064.078.052.206.198.057.07.116.165a.4.4 0 0 1 .072.182q0 .055-.141.222l.097.235q.012.03.034 0 .1-.137.185-.138h.119zm.413.433a.6.6 0 0 0-.035-.175.4.4 0 0 0-.078-.154q-.1-.105-.287-.104h-.101v.265h.103c.041 0 .098.007.163.017q.132.026.132.06-.002.07-.135.242l.103.192q.028.055.05.01a.7.7 0 0 0 .085-.353m.2-.961-.122-.199-.188.132-.1-.166-.197.149.129.211.178-.134.097.158zM2.948.047V0a1 1 0 0 0-.088-.434q-.009-.018-.028-.017t-.016.028q.014.206-.028.665l-.05.471a5 5 0 0 0-.022.41q.001.03.053.131.08.155.107.155.022 0 .015-.074-.007-.075-.006-.179 0-.267.063-1.109M5.529-.44h-.278a.5.5 0 0 1-.203-.048q-.087-.045-.088-.07 0-.026.113-.047.243-.05.266-.058.116-.043.115-.147a.38.38 0 0 0-.056-.222q-.132-.187-.429-.29a1.6 1.6 0 0 0-.516-.084.68.68 0 0 0-.417.122.47.47 0 0 0-.184.4 1 1 0 0 0 .172.591q.027.039.041.037.009.002.009-.016a.13.13 0 0 0-.019-.058.9.9 0 0 1-.087-.363.38.38 0 0 1 .194-.349.74.74 0 0 1 .394-.095q.276.001.539.088.234.077.234.138 0 .031-.093.047-.06.01-.201.037-.244.041-.244.178-.001.149.163.306a.57.57 0 0 0 .4.168h.175zm.846.329q0-.044-.06-.128-.062-.083-.1-.084a.7.7 0 0 0-.206.077q-.155.077-.163.078-.034-.001-.072-.068-.016-.034-.06-.114a.21.21 0 0 0-.184-.09h-.088v.265h.129q.112.001.184.098.02.025.109.211c.041.088.072.141.091.168q.071.097.166.098.075.002.125-.037.034-.025.072-.135a1 1 0 0 0 .057-.339M6.202 0a.2.2 0 0 1-.047.124q-.046.067-.097.068-.029 0-.059-.031a.08.08 0 0 1-.028-.06q-.002-.046.194-.131.037-.015.037.03m2.109-.44h-.112q-.236 0-.3.379-.02.102-.091.673-.127-.906-.501-1.147-.046-.029-.276-.064a1.6 1.6 0 0 0-.294-.03q-.07.004-.071.024.001.016.059.037.287.099.554.309.244.192.244.282 0 .118-.216.39-.215.269-.323.269a.3.3 0 0 1-.058-.043L6.875.595q-.043-.001-.194.094c-.106.067-.163.124-.163.168q0 .343.088.343.136-.001.404-.218.502-.405.6-.801.122.464.116 1.08l.11.151q.016.021.022.023.01.002.012-.036l.054-.71a3.4 3.4 0 0 1 .125-.699q.052-.166.172-.165h.09zm1.381.541a.6.6 0 0 0-.054-.252c-.04-.091-.1-.138-.172-.138q-.142-.001-.25.134c-.123-.168-.229-.252-.329-.252a.3.3 0 0 0-.169.04.4.4 0 0 0-.084.114Q8.523-.439 8.32-.44h-.093v.265h.122q.149 0 .238.074a.4.4 0 0 1 .093.135c.019.05.041.073.057.073q.02.002.019-.033.001-.013-.004-.04V-.01q-.001-.127.148-.128c.084 0 .156.034.212.094a.8.8 0 0 1 .101.178q.036.095.05.094.026 0 .034-.07.01-.086.047-.121a.26.26 0 0 1 .122-.071q.1-.02.1.031 0 .045-.053.09.018.103.057.229.015.045.05.007a.32.32 0 0 0 .072-.222m.519-.054V0a1 1 0 0 0-.088-.434q-.009-.018-.027-.017-.02.001-.017.028.014.206-.027.665l-.051.471a5 5 0 0 0-.022.41q0 .03.054.131.079.155.106.155.022 0 .016-.074-.007-.075-.006-.179 0-.267.062-1.109m2.607.521a.6.6 0 0 0-.022-.124q-.019-.087-.029-.088-.004 0-.075.027a.3.3 0 0 1-.106.027.52.52 0 0 1-.325-.141q-.16-.133-.16-.235 0-.123.169-.155.086-.016.313-.054.17-.03.169-.121 0-.248-.125-.383c-.06-.064-.172-.131-.341-.209a1.5 1.5 0 0 0-.623-.151.6.6 0 0 0-.382.111.46.46 0 0 0-.166.377q.002.373.222.706.02.034.038.033.01-.001.01-.016-.001-.011-.007-.028-.146-.323-.147-.494 0-.2.157-.316a.54.54 0 0 1 .319-.097q.363 0 .679.151.234.112.235.158-.001.021-.335.067-.164.021-.229.081-.079.067-.078.235 0 .208.235.481.236.277.425.276.048 0 .104-.027c.05-.02.075-.054.075-.091m1.164-.76a.97.97 0 0 0-.219-.622q-.213-.258-.401-.259a.638.638 0 0 0-.391.162q-.012.015-.013.03.001.026.025.027.007.001.013-.004a.5.5 0 0 1 .197-.04q.181 0 .429.232.243.223.241.36c0 .098-.072.232-.219.393l.097.232c.009.027.025.034.04.017q.202-.19.201-.528m1.383-.248h-.166q-.017-.232-.213-.498-.226-.308-.494-.309-.104 0-.278.147-.091.077-.092.101.001.016.026.017a.6.6 0 0 0 .137-.027.6.6 0 0 1 .144-.026q.184 0 .42.191.248.207.247.393a.8.8 0 0 0-.254.034q-.114.044-.115.164a.7.7 0 0 0 .093.323q.099.188.207.189.098.001.15-.175a.9.9 0 0 0 .044-.259h.144zm-.266.268a.3.3 0 0 1-.05.118q-.046.056-.107.057t-.062-.084q0-.1.153-.101.037 0 .066.01M16.51-.44h-.119a.7.7 0 0 1-.269-.048.32.32 0 0 0 .079-.222.6.6 0 0 0-.066-.272q-.08-.145-.198-.144-.145 0-.244.221a1.1 1.1 0 0 0-.084.384h-.075v.101a1 1 0 0 0-.185-.02h-.075v.265h.081q.162.001.285.067.067.188.175.377.155.266.276.265.088 0 .087-.218a.76.76 0 0 0-.103-.414 1 1 0 0 0-.166-.171q.076 0 .232.047.154.046.238.047h.131zm-.435.571a.13.13 0 0 1-.028.081q-.023.04-.066.04-.094 0-.222-.326.316.114.316.205m.025-.888q0 .08-.141.145a.6.6 0 0 1-.206.061.5.5 0 0 1 .062-.192q.06-.115.144-.115.047 0 .088.024.055.031.053.077m1.703.317h-.085a.55.55 0 0 0-.341.134.5.5 0 0 0-.022-.148q-.023-.058-.078-.057-.103-.001-.31.155a.8.8 0 0 1-.169.114q.08 0-.078-.101-.159-.096-.216-.097h-.084v.265h.112q.208 0 .322.191.127.211.226.209.072.001.172-.104l.185-.192a.38.38 0 0 1 .253-.104h.113zm-.607.218a.5.5 0 0 1-.029.171c-.021.081-.053.121-.087.121q-.05.002-.125-.127.076-.063.241-.165m2.156.377-.066-.219h-.178q-.344.001-.532-.077a4 4 0 0 1-.401-.202.74.74 0 0 0-.335-.097h-.125v.265h.134q.113 0 .32.071.279.097.325.107.024.007.025.013 0 .01-.025.021-.108.039-.234.084a.56.56 0 0 1-.413.007q-.032-.015-.044 0-.01.01.003.05.09.268.335.269a.7.7 0 0 0 .24-.071q.24-.107.32-.134.216-.07.441-.07h.197q.014 0 .013-.011zm-.667-.939-.144-.225-.203.148.144.226zm2.81 2.078a.34.34 0 0 1-.084-.225v-.037a41 41 0 0 0 .072-.793q.016-.186.012-.407a.53.53 0 0 0-.228-.447.78.78 0 0 0-.479-.148.56.56 0 0 0-.372.114q-.155.126-.154.373 0 .294.182.548.015.02.025.02c.01 0 .016-.003.016-.017q0-.009-.013-.03a.9.9 0 0 1-.1-.407q.002-.17.135-.258a.5.5 0 0 1 .281-.074c.104 0 .216.023.345.067q.244.09.237.222-.067 1.094-.166 1.432a.18.18 0 0 0 .01.128l.106.151q.027.037.05-.003ZM22.3-.44h-.132q-.187.001-.244.248a8 8 0 0 0-.053.538q-.048.615-.082.838-.004.019.122.204.016.025.025.024.015 0 .016-.041L22.03.168q.011-.191.032-.242.041-.1.172-.101h.066Zm.65 0h-.09q-.21 0-.285.168a.33.33 0 0 0-.294-.168h-.072v.265h.118q.114 0 .185.057a.4.4 0 0 1 .078.108q.032.056.044.057.024 0 .044-.084.029-.137.207-.138h.065zm-.215-.542-.141-.225-.207.148.147.228zm.628.975a.6.6 0 0 0-.034-.175.4.4 0 0 0-.078-.154q-.1-.105-.288-.104h-.1v.265h.103q.063.001.163.017.131.025.131.064-.002.066-.135.238l.104.195q.027.051.05.007a.7.7 0 0 0 .084-.353m.188.928-.122-.198-.188.134-.1-.164-.194.144.122.212.185-.135.094.158zM24.932-.44h-.167q-.017-.232-.212-.498-.226-.308-.495-.309-.104 0-.278.147-.09.077-.091.101.001.016.025.017.043 0 .138-.027a.6.6 0 0 1 .144-.026q.184 0 .419.191.249.207.248.393a.8.8 0 0 0-.254.034q-.114.044-.116.164a.7.7 0 0 0 .094.323q.099.188.207.189.098.001.15-.175a.9.9 0 0 0 .043-.259h.145zm-.267.268a.3.3 0 0 1-.05.118q-.046.056-.106.057-.062.002-.063-.084-.001-.1.154-.101.038 0 .065.01m.924.316q0-.287-.085-.39a.5.5 0 0 0-.254-.144.9.9 0 0 0-.266-.05h-.156v.265h.091c.097 0 .197.01.291.03q.192.043.266.122.013.014.013.05c0 .057-.016.097-.048.128q-.048-.163-.246-.165a.2.2 0 0 0-.145.057.2.2 0 0 0-.056.148q0 .143.084.306.094.186.207.185.095 0 .194-.142a.7.7 0 0 0 .11-.4m-.248.138q0 .05-.046.101-.044.05-.091.05-.081.001-.082-.154 0-.065.082-.064.036.001.081.017.056.02.056.05m.028.948-.14-.225-.204.151.144.226zM27.692 0a.76.76 0 0 0-.185-.531.64.64 0 0 0-.495-.199q-.525 0-.525.484.002.277.153.495.029.035.047.036.009.001.007-.013a.1.1 0 0 0-.016-.05.65.65 0 0 1-.088-.32q-.001-.181.125-.275A.45.45 0 0 1 27-.461a.8.8 0 0 1 .463.128q.137.09.138.148.001.147-.088.377-.074.182-.162.329l.078.181q.018.037.028.038.007.001.025-.027.21-.3.21-.713m-.561 1.018-.14-.228-.204.151.147.229ZM29.078-.44h-.166q-.017-.232-.213-.498-.226-.308-.494-.309-.105 0-.278.147-.09.077-.091.101 0 .016.025.017a.6.6 0 0 0 .137-.027.6.6 0 0 1 .144-.026q.184 0 .42.191.248.207.247.393a.8.8 0 0 0-.254.034q-.114.044-.115.164a.7.7 0 0 0 .093.323q.099.188.207.189.099.001.15-.175a.9.9 0 0 0 .044-.259h.144zm-.266.268a.3.3 0 0 1-.05.118q-.046.056-.107.057t-.062-.084q0-.1.153-.101.038 0 .066.01m.92-.268h-.09q-.212 0-.286.168a.32.32 0 0 0-.294-.168h-.072v.265h.119q.114 0 .185.057a.4.4 0 0 1 .078.108q.031.056.044.057.024 0 .044-.084.028-.137.206-.138h.066zm-.072-.528-.122-.199-.188.132-.097-.166-.2.149.128.211.178-.134.097.158zM31.109.101a.6.6 0 0 0-.053-.252q-.062-.137-.173-.138-.14-.001-.25.134c-.122-.168-.228-.252-.328-.252q-.114 0-.169.04a.4.4 0 0 0-.085.114q-.111-.187-.313-.187h-.094v.265h.122q.15 0 .238.074a.4.4 0 0 1 .094.135c.019.05.041.073.057.073q.018.002.018-.033 0-.013-.003-.04V-.01q-.002-.127.147-.128c.084 0 .157.034.213.094a.8.8 0 0 1 .1.178q.037.095.05.094c.019 0 .028-.023.035-.07q.01-.086.046-.121a.27.27 0 0 1 .122-.071q.1-.02.1.031 0 .045-.053.09.02.103.057.229.016.045.05.007a.32.32 0 0 0 .072-.222m.519-.054V0a1 1 0 0 0-.088-.434q-.008-.018-.027-.017-.02.001-.016.028.014.206-.028.665l-.05.471a5 5 0 0 0-.022.41q.001.03.053.131.079.155.107.155.021 0 .015-.074-.008-.075-.006-.179.001-.267.062-1.109m1.165-.239a.97.97 0 0 0-.22-.622q-.212-.258-.4-.259a.652.652 0 0 0-.392.162q-.01.015-.012.03.001.026.025.027c.003 0 .01 0 .013-.004a.5.5 0 0 1 .197-.04q.182 0 .428.232.243.223.241.36c0 .098-.071.232-.219.393l.098.232q.015.041.04.017.202-.19.201-.528m1.57-.248h-.125q-.248-.001-.312.406-.127-.338-.501-.339a1 1 0 0 0-.198.023q-.14.04-.14.125 0 .04.066.272.01.036.031.037.022 0 .028-.044.01-.155.269-.155.413 0 .413.253 0 .11-.041.326a2 2 0 0 0-.041.326q0 .046.094.209.019.025.029.026.012 0 .015-.04l.11-.844q.043-.317.203-.316h.1zm.655.584q0-.287-.085-.39a.5.5 0 0 0-.253-.144.9.9 0 0 0-.267-.05h-.156v.265h.091c.097 0 .197.01.291.03q.191.043.266.122.013.014.012.05a.17.17 0 0 1-.047.128q-.048-.163-.247-.165a.2.2 0 0 0-.144.057.2.2 0 0 0-.056.148q0 .143.085.306.093.186.206.185.095 0 .194-.142a.7.7 0 0 0 .11-.4m-.248.138q0 .05-.046.101-.044.05-.091.05-.08.001-.082-.154.001-.065.082-.064.036.001.081.017.056.02.056.05m.029.948-.141-.225-.204.151.144.226z" style="fill:#000;fill-opacity:1;fill-rule:nonzero;stroke:none" transform="matrix(.35278 0 0 -.35278 1.95 9.345)"/><path d="M169.806 192.56h.156v.71h-.156zm.306.709v-.708h.33q.123 0 .18.018a.18.18 0 0 1 .09.069.2.2 0 0 1 .033.111.18.18 0 0 1-.05.132.26.26 0 0 1-.153.065.4.4 0 0 1 .083.06q.032.033.089.115l.094.138h-.187l-.111-.154a1 1 0 0 0-.084-.104.1.1 0 0 0-.046-.03.3.3 0 0 0-.08-.008h-.032v.296zm.156-.409h.116a.6.6 0 0 0 .14-.009.08.08 0 0 0 .06-.083.08.08 0 0 0-.02-.058.1.1 0 0 0-.06-.028l-.113-.002h-.123zm1.322.409h-.169l-.067-.161h-.31l-.065.16h-.166l.301-.707h.165zm-.287-.281-.106-.262-.106.262zm.37.28v-.707h.152l.319.474v-.474h.145v.708h-.157l-.314-.466v.466z" style="fill:#000;fill-opacity:1;fill-rule:nonzero;stroke:none;stroke-width:.352778" transform="translate(-163.15 -178.76)"/><path d="M0 0v2.008h.444V0Zm.867 0v2.008h.935q.352 0 .509-.053a.53.53 0 0 0 .353-.51.52.52 0 0 0-.144-.373Q2.372.924 2.088.886a1 1 0 0 0 .235-.168q.092-.093.252-.325L2.842 0h-.531l-.316.438a3 3 0 0 1-.235.294.33.33 0 0 1-.132.084 1 1 0 0 1-.227.023h-.089V0Zm.445 1.158h.328q.319 0 .398.025a.23.23 0 0 1 .123.085.25.25 0 0 1 .046.151.23.23 0 0 1-.058.166.3.3 0 0 1-.169.078 5 5 0 0 1-.322.006h-.346ZM5.058 0H4.58l-.19.457h-.88L3.326 0h-.469l.852 2.008h.469Zm-.812.797-.304.743-.297-.743ZM5.294 0v2.008h.429L6.628.662v1.346h.41V0h-.444l-.89 1.321V0Z" style="fill:none;stroke:#000;stroke-width:.216;stroke-linecap:butt;stroke-linejoin:miter;stroke-miterlimit:2.613;stroke-dasharray:none;stroke-opacity:1" transform="matrix(.35278 0 0 -.35278 6.656 14.51)"/><path d="m0 0-1.004.001v-.072q0-.167.048-.273a.4.4 0 0 1 .163-.178.7.7 0 0 1 .311-.096v-.065l-1.222.001v.065q.347.035.456.191a.6.6 0 0 1 .111.355v.072l-.746.001a.8.8 0 0 1-.236-.021.2.2 0 0 1-.082-.083.33.33 0 0 1-.036-.166v-.083H-2.3l.002 1.31h.062V.876q0-.11.038-.176a.17.17 0 0 1 .087-.074.7.7 0 0 1 .228-.021L-.275.604a.8.8 0 0 1 .235.02.2.2 0 0 1 .083.082.33.33 0 0 1 .035.168l.001.083h.062L.139-1.162l-.699.001v.076q.246.025.365.132a.6.6 0 0 1 .168.309q.026.112.027.412Zm.167-2.739q.021-.602-.34-.977a1.2 1.2 0 0 0-.903-.375q-.463 0-.815.281-.467.371-.466 1.049.001.68.446 1.05.353.293.836.293.542-.001.903-.383.362-.381.339-.938m-.114-.023q0 .347-.34.528-.28.147-.804.148-.623 0-.922-.227a.52.52 0 0 1-.208-.442q0-.192.09-.32a.73.73 0 0 1 .367-.256 2 2 0 0 1 .657-.092q.483 0 .722.093.24.092.339.237a.57.57 0 0 1 .099.331m.111-2.93q.02-.602-.34-.977a1.2 1.2 0 0 0-.903-.375q-.463 0-.815.281-.467.372-.466 1.049 0 .68.446 1.05.352.293.835.293.543-.001.903-.383.362-.381.34-.938M.05-5.715q0 .347-.341.528-.28.148-.803.148-.623 0-.922-.227a.53.53 0 0 1-.208-.442q0-.192.09-.32a.73.73 0 0 1 .366-.256 2 2 0 0 1 .658-.092q.483 0 .722.092.24.093.339.237a.57.57 0 0 1 .099.332m.081-3.862-.658.001v.064q.228.06.327.132.1.071.159.198a.7.7 0 0 1 .033.247v.189l-1.884.002a.8.8 0 0 1-.235-.02.2.2 0 0 1-.082-.082.33.33 0 0 1-.036-.168v-.082h-.063l.001 1.31h.063v-.083q0-.109.038-.175a.18.18 0 0 1 .087-.076.8.8 0 0 1 .228-.02l1.884-.002v.182q0 .253-.104.367a.68.68 0 0 1-.415.204l.001.072.659-.001zm-1.146-1.821q-.082-.359-.197-.505a.52.52 0 0 0-.425-.209.56.56 0 0 0-.455.229q-.219.282-.217.815l.001 1.278h.062a.6.6 0 0 1 .032-.237.2.2 0 0 1 .082-.088q.05-.025.25-.025l1.586-.002q.2 0 .251.026a.18.18 0 0 1 .083.087q.03.064.031.236h.062L.13-10.999q0-.432-.076-.612a.63.63 0 0 0-.222-.284.54.54 0 0 0-.315-.104.44.44 0 0 0-.314.134q-.138.132-.218.467m.049.676a1 1 0 0 1 .057-.392.44.44 0 0 1 .162-.194.5.5 0 0 1 .266-.068q.162 0 .265.066a.42.42 0 0 1 .158.191q.054.123.052.396zm-.14 0-.781.001h-.09q-.098 0-.146-.05-.05-.05-.05-.148 0-.146.064-.27a.43.43 0 0 1 .184-.188.628.628 0 0 1 .574.007.4.4 0 0 1 .191.218q.055.144.054.43m-.511-3.098.001.88-.237.11a.5.5 0 0 1-.199.052.16.16 0 0 1-.153-.085.7.7 0 0 1-.044-.246h-.062v.836h.063a.38.38 0 0 1 .109-.222q.091-.088.373-.216l1.941-.9v-.036l-1.997-.904q-.288-.13-.362-.214a.3.3 0 0 1-.066-.178h-.063l.001 1.216h.063l-.001-.05q0-.146.041-.205a.1.1 0 0 1 .083-.041q.033 0 .069.01.015.004.136.056zm.133.06.832.374-.831.385zm.022-3.626-.853.096.002 2.229h.062v-.083q0-.11.038-.176a.17.17 0 0 1 .087-.075.8.8 0 0 1 .228-.02l1.608-.002q.189 0 .236.021a.2.2 0 0 1 .082.082.33.33 0 0 1 .035.167v.083h.063l-.001-1.34H.062v.11a.35.35 0 0 1-.038.177.18.18 0 0 1-.087.077.8.8 0 0 1-.228.02l-1.556.002a.8.8 0 0 1-.238-.022.15.15 0 0 1-.077-.087 1 1 0 0 1-.016-.223l-.001-.209q0-.2.068-.333a.6.6 0 0 1 .215-.23q.147-.097.434-.184zm.214-2.454-.858.031-.168 2.222.063.005.005-.083a.4.4 0 0 1 .052-.173.17.17 0 0 1 .092-.067.8.8 0 0 1 .229-.003l1.603.122a.8.8 0 0 1 .234.037q.046.024.076.089.03.064.022.169l-.006.083.062.005.101-1.337-.062-.005-.008.11a.36.36 0 0 1-.052.174.18.18 0 0 1-.092.069.7.7 0 0 1-.229.003l-1.552-.116a.8.8 0 0 1-.236-.041q-.05-.026-.07-.092a1 1 0 0 1 .001-.224l.015-.208a.7.7 0 0 1 .093-.326.6.6 0 0 1 .232-.214 1.7 1.7 0 0 1 .447-.15zm1.697-1.49-.983-.204.015-.071a.7.7 0 0 1 .102-.257.42.42 0 0 1 .197-.141.7.7 0 0 1 .324-.031l.013-.063-1.196-.249-.014.063q.333.105.408.281.077.175.036.37l-.015.071-.731-.152a.8.8 0 0 1-.226-.069.2.2 0 0 1-.064-.098.33.33 0 0 1-.001-.17l.017-.081-.061-.013-.267 1.283.062.012.017-.081a.36.36 0 0 1 .072-.165.17.17 0 0 1 .101-.054.7.7 0 0 1 .227.026l1.575.328a.9.9 0 0 1 .226.067q.041.03.063.098a.33.33 0 0 1 .001.171l-.017.081.062.013.431-2.074-.685-.142-.015.074q.236.075.33.205a.6.6 0 0 1 .101.336 2 2 0 0 1-.057.409zm.43-2.027-.947-.301.015-.048q.073-.228.244-.287.172-.059.451-.001l.022-.069-1.217-.387-.022.069a.9.9 0 0 1 .297.192q.106.11.12.213a.65.65 0 0 1-.04.277l-.653-.208a1 1 0 0 1-.229-.092.15.15 0 0 1-.05-.085.3.3 0 0 1 .02-.157l.045-.143q.108-.336.322-.491t.55-.145l.021-.065-.772-.127-.658 2.07.059.019.025-.079a.36.36 0 0 1 .09-.156.17.17 0 0 1 .105-.045.8.8 0 0 1 .224.05l1.532.488q.159.05.192.07a.18.18 0 0 1 .073.095.33.33 0 0 1-.01.199l-.026.079.061.019.636-2.004-.686-.219-.022.069q.235.131.316.259.08.126.078.311a1.6 1.6 0 0 1-.086.38zm-1.738-2.178.059.021.027-.079a.34.34 0 0 1 .087-.147.2.2 0 0 1 .115-.051.8.8 0 0 1 .221.059l1.519.527a.8.8 0 0 1 .216.096.2.2 0 0 1 .05.104.34.34 0 0 1-.021.171l-.027.078.059.021.369-1.063q.147-.426.124-.725a1.07 1.07 0 0 0-.248-.625 1.3 1.3 0 0 0-.575-.382 1.3 1.3 0 0 0-.475-.075 1.1 1.1 0 0 0-.411.091 1.1 1.1 0 0 0-.316.221 1.7 1.7 0 0 0-.404.696zm2.49-.149-1.798-.624a.6.6 0 0 1-.17-.075.1.1 0 0 1-.033-.064.3.3 0 0 1 .022-.145q.102-.294.349-.381.335-.12.885.07.445.155.659.39a.64.64 0 0 1 .18.392q.01.144-.094.437m.959-2.198-.875-.47.024-.045q.114-.21.293-.237t.442.082l.034-.064-1.124-.604-.034.063a.9.9 0 0 1 .256.245.4.4 0 0 1 .079.231.65.65 0 0 1-.09.264l-.604-.325a1 1 0 0 1-.208-.131.15.15 0 0 1-.033-.093.3.3 0 0 1 .048-.151l.071-.133q.167-.31.407-.423.238-.113.567-.041l.033-.06-.736-.268-1.028 1.914.055.03.039-.074a.35.35 0 0 1 .117-.137.17.17 0 0 1 .112-.024.7.7 0 0 1 .21.091l1.416.761q.147.08.176.106.047.046.053.106a.33.33 0 0 1-.045.194l-.04.072.055.03.996-1.852-.635-.342-.034.064q.208.172.263.312t.019.322q-.02.105-.155.356zm.15-2.611-.562-.397a.7.7 0 0 1-.188-.164.18.18 0 0 1-.016-.119.6.6 0 0 1 .111-.211l-.051-.036-.742 1.052.05.036a.6.6 0 0 1 .163-.176.2.2 0 0 1 .117-.024.7.7 0 0 1 .217.122l1.3.92a.7.7 0 0 1 .189.164.2.2 0 0 1 .016.119.6.6 0 0 1-.112.211l.051.036.675-.955q.264-.373.336-.581a.67.67 0 0 0 .014-.413.6.6 0 0 0-.238-.332.57.57 0 0 0-.481-.093.8.8 0 0 0-.343.196l-.326-.969a1.3 1.3 0 0 1-.065-.254.32.32 0 0 1 .053-.18l-.054-.038-.457.647.438 1.304zm.973.688-.868-.614.061-.086q.15-.21.261-.289a.38.38 0 0 1 .25-.07.6.6 0 0 1 .296.119q.227.16.257.348.03.186-.142.43zm.81-3.584-.598.645-.249-.081a.6.6 0 0 1-.181-.097.17.17 0 0 1-.054-.167.8.8 0 0 1 .135-.21l-.045-.042-.569.612.046.043a.37.37 0 0 1 .232-.088q.125-.004.418.095l2.036.663.024-.027-.848-2.023q-.122-.29-.119-.402 0-.085.073-.176l-.046-.042-.827.892.046.042.034-.036q.1-.108.169-.124.048-.01.089.027a.2.2 0 0 1 .042.054q.01.014.063.134zm.057.134.354.84-.87-.284zm3.416-.896-.416-.511-.05.04q.098.215.105.338a.5.5 0 0 1-.054.248.7.7 0 0 1-.171.181l-.147.12-1.189-1.461a.8.8 0 0 1-.132-.197.2.2 0 0 1 .012-.115.3.3 0 0 1 .107-.133l.064-.052-.039-.049-1.017.827.04.048.064-.052a.36.36 0 0 1 .16-.081.2.2 0 0 1 .113.02.7.7 0 0 1 .16.165l1.188 1.461-.141.115q-.196.159-.35.15a.68.68 0 0 1-.419-.193l-.056.045.416.511zm-.249-2.706-.037-.051-1.071.753.036.051.067-.047a.35.35 0 0 1 .167-.07.16.16 0 0 1 .11.028.8.8 0 0 1 .148.175l.924 1.316a.8.8 0 0 1 .119.204.2.2 0 0 1-.02.115.34.34 0 0 1-.117.125l-.068.048.037.051 1.071-.753-.036-.051-.068.047a.34.34 0 0 1-.165.069.18.18 0 0 1-.111-.027.7.7 0 0 1-.148-.175l-.925-1.316a.8.8 0 0 1-.118-.204.2.2 0 0 1 .021-.116.34.34 0 0 1 .115-.124zm2.4 1.458q.552-.239.738-.725a1.2 1.2 0 0 0-.047-.977 1.28 1.28 0 0 0-.602-.617q-.535-.262-1.147.027-.615.291-.759.852-.115.444.092.88.232.49.731.654.5.163.994-.094m-.029-.113q-.312.149-.622-.082-.252-.19-.477-.664-.265-.562-.189-.93a.53.53 0 0 1 .311-.377.55.55 0 0 1 .328-.056.74.74 0 0 1 .388.223q.19.188.364.555.206.436.225.692a.7.7 0 0 1-.07.408.58.58 0 0 1-.258.231m1.909-.688.767-1.797.293 1.005q.063.213.022.305-.057.127-.259.182l.017.061.799-.233-.018-.06a.7.7 0 0 1-.221.01.2.2 0 0 1-.11-.075.7.7 0 0 1-.098-.228l-.569-1.95-.06.017-1.062 2.428-.435-1.492q-.06-.204.015-.303a.38.38 0 0 1 .199-.135l.057-.017-.017-.06-.861.251.017.06q.2-.056.303-.002.1.057.156.244l.483 1.656-.033.075a.5.5 0 0 1-.099.165.4.4 0 0 1-.159.083l.017.06zm3.368-3.086-.007-.063-1.3.154.007.062.082-.01a.36.36 0 0 1 .179.018.16.16 0 0 1 .084.078.7.7 0 0 1 .047.224l.189 1.597a.8.8 0 0 1 .007.236.2.2 0 0 1-.072.091.33.33 0 0 1-.163.055l-.081.01.007.062 1.3-.154-.007-.062-.082.01a.35.35 0 0 1-.178-.018.17.17 0 0 1-.085-.077.7.7 0 0 1-.047-.224l-.189-1.597a.8.8 0 0 1-.007-.236.2.2 0 0 1 .073-.092.34.34 0 0 1 .161-.054zm1.977 2.34-.017-.813-.076.003a.82.82 0 0 1-.242.502.68.68 0 0 1-.448.206.44.44 0 0 1-.304-.084.3.3 0 0 1-.12-.22.3.3 0 0 1 .033-.146.6.6 0 0 1 .165-.174q.084-.064.393-.228.432-.23.578-.423a.678.678 0 0 0-.136-.947.9.9 0 0 0-.634-.193 1.1 1.1 0 0 0-.484.134.4.4 0 0 1-.145.042.2.2 0 0 1-.104-.032.25.25 0 0 1-.092-.107l-.065.003.041.919.064-.003q.066-.391.289-.605a.75.75 0 0 1 .493-.225.49.49 0 0 1 .336.095.33.33 0 0 1 .134.249.3.3 0 0 1-.04.169.5.5 0 0 1-.137.16 2 2 0 0 1-.333.204 3 3 0 0 0-.48.3.9.9 0 0 0-.218.267.6.6 0 0 0-.067.316.65.65 0 0 0 .243.486q.228.196.564.18a1 1 0 0 0 .445-.127.5.5 0 0 1 .172-.066.1.1 0 0 1 .078.026q.03.027.057.134zm2.511-1.405.001-.859-2.215-.248-.007.062.082.009q.109.013.171.058a.17.17 0 0 1 .064.095q.015.045-.005.228l-.18 1.598a.8.8 0 0 1-.046.232.18.18 0 0 1-.091.072.3.3 0 0 1-.171.017l-.082-.009-.007.062 1.332.149.007-.062-.109-.012a.35.35 0 0 1-.172-.058.2.2 0 0 1-.066-.094.7.7 0 0 1 .005-.23l.173-1.546a.8.8 0 0 1 .049-.235.14.14 0 0 1 .095-.066 1 1 0 0 1 .224.009l.207.023q.198.023.323.104a.6.6 0 0 1 .205.24q.079.157.134.452zm1.592.192-.853-.218-.047-.258a.5.5 0 0 1-.001-.204.17.17 0 0 1 .12-.128.8.8 0 0 1 .25.019l.015-.06-.809-.207-.016.06a.38.38 0 0 1 .188.161q.062.11.116.414l.389 2.105.034.009 1.374-1.71q.197-.247.296-.298a.3.3 0 0 1 .189-.019l.016-.061-1.179-.301-.015.06.049.013q.141.036.189.09.032.038.018.091a.2.2 0 0 1-.027.063 2 2 0 0 1-.088.119zm-.091.114-.569.712-.166-.9zm2.714.949-.061 1.749.921.432.027-.057-.074-.034a.36.36 0 0 1-.144-.111.17.17 0 0 1-.03-.109q0-.048.078-.215l.684-1.456a.8.8 0 0 1 .118-.205.2.2 0 0 1 .111-.038.34.34 0 0 1 .167.038l.074.035.026-.056-1.186-.557-.026.057.073.034a.36.36 0 0 1 .145.11q.03.044.03.111a.7.7 0 0 1-.079.215l-.767 1.634.068-2.422-.04-.018-1.823 1.579.728-1.552q.078-.165.103-.199a.27.27 0 0 1 .158-.088.45.45 0 0 1 .254.056l.026-.057-.78-.365-.026.056.024.012q.076.033.13.089a.3.3 0 0 1 .067.115.3.3 0 0 1-.005.144q-.004.02-.075.17l-.655 1.396a.8.8 0 0 1-.118.204.2.2 0 0 1-.11.039.35.35 0 0 1-.168-.039l-.073-.035-.027.057.929.436zm3.246.927.032-.054-1.119-.68-.032.054.07.043a.36.36 0 0 1 .131.124.17.17 0 0 1 .018.113.8.8 0 0 1-.101.205l-.835 1.374a.8.8 0 0 1-.14.191.18.18 0 0 1-.113.027.3.3 0 0 1-.161-.056l-.071-.043-.033.053 1.12.68.032-.053-.071-.043a.36.36 0 0 1-.129-.123.18.18 0 0 1-.019-.114.8.8 0 0 1 .101-.206l.835-1.374a.8.8 0 0 1 .14-.19.2.2 0 0 1 .114-.027q.071.002.16.056zm.492 3.544.534-.656-.056-.046a.9.9 0 0 1-.558.205.79.79 0 0 1-.753-.554.77.77 0 0 1-.005-.447q.081-.285.291-.543.207-.255.443-.41a.8.8 0 0 1 .463-.147.75.75 0 0 1 .452.19q.184.15.273.352.089.203.103.531l.133-.163a1.4 1.4 0 0 0-.145-.519 1.4 1.4 0 0 0-.354-.411 1.56 1.56 0 0 0-.652-.33 1.13 1.13 0 0 0-.657.045 1.2 1.2 0 0 0-.526.378q-.22.27-.272.631-.051.361.087.697a1.42 1.42 0 0 0 .921.828 1 1 0 0 1 .209.086.14.14 0 0 1 .054.098.23.23 0 0 1-.041.14zm2.155.388.535-.433a.8.8 0 0 1 .209-.137.2.2 0 0 1 .119.018q.064.03.172.164l.049-.039-.81-1.001-.049.04q.11.135.125.203a.2.2 0 0 1-.008.119q-.024.052-.177.176l-1.238 1.002a.7.7 0 0 1-.209.136.18.18 0 0 1-.119-.017.6.6 0 0 1-.173-.164l-.048.04.735.909q.287.354.468.48.18.127.393.126a.6.6 0 0 0 .384-.139.56.56 0 0 0 .221-.437.84.84 0 0 0-.095-.384l1.021-.051q.2-.006.262.008a.33.33 0 0 1 .159.099l.051-.042-.498-.616-1.375.069zm-.926.75.826-.669.067.082q.162.201.208.329a.4.4 0 0 1-.002.261.6.6 0 0 1-.195.252q-.216.174-.404.153-.187-.02-.376-.253zm1.579 2.224.78-.614.031.04q.149.188.101.363-.048.174-.252.373l.045.056 1.003-.789-.044-.057a.9.9 0 0 1-.327.138.4.4 0 0 1-.243-.02.7.7 0 0 1-.206-.188l.539-.424a1 1 0 0 1 .204-.138.15.15 0 0 1 .099.007.3.3 0 0 1 .118.104l.093.119q.217.277.226.541.008.264-.19.537l.043.054.539-.567-1.343-1.709-.049.039.051.065a.4.4 0 0 1 .08.162.17.17 0 0 1-.024.112.7.7 0 0 1-.167.157l-1.264.994a1.3 1.3 0 0 1-.166.119.17.17 0 0 1-.12.006.33.33 0 0 1-.159-.119l-.051-.066-.049.039 1.3 1.654.567-.446-.044-.057q-.242.122-.392.116a.55.55 0 0 1-.302-.111 1.5 1.5 0 0 1-.266-.284zm2.068 1.283.6-.315q.176-.092.234-.094a.18.18 0 0 1 .114.041.6.6 0 0 1 .137.193l.055-.029-.594-1.132-.056.028a.6.6 0 0 1 .082.225.2.2 0 0 1-.032.116.8.8 0 0 1-.21.138l-1.405.736a.7.7 0 0 1-.233.094.18.18 0 0 1-.115-.039.6.6 0 0 1-.136-.195l-.055.029.509.972q.252.48.527.602a.57.57 0 0 0 .524-.008.6.6 0 0 0 .29-.325.8.8 0 0 0 .009-.479q-.045-.178-.245-.558m-1.059.555.936-.49.046.08q.105.201.047.371-.06.169-.302.296-.24.127-.409.077t-.282-.266zm.337.969.423 1.228.059-.02-.021-.062a.5.5 0 0 1-.038-.201.18.18 0 0 1 .053-.1.9.9 0 0 1 .241-.107l1.128-.389q.31-.107.426-.093a.42.42 0 0 1 .222.101.57.57 0 0 1 .162.256.65.65 0 0 1 .029.357.55.55 0 0 1-.162.283q-.124.119-.492.245l-.94.323a.6.6 0 0 1-.234.044.2.2 0 0 1-.122-.053.5.5 0 0 1-.116-.21l-.059.021.283.822.059-.02-.017-.05a.36.36 0 0 1-.018-.179.24.24 0 0 1 .086-.137.6.6 0 0 1 .189-.09l.876-.302q.405-.14.567-.257t.239-.383q.078-.267-.049-.635-.107-.308-.244-.449a.74.74 0 0 0-.391-.228 1 1 0 0 0-.489.063l-1.129.388a.9.9 0 0 1-.258.064.2.2 0 0 1-.105-.053.5.5 0 0 1-.099-.197zm2.267 3.623q.152.336.293.456a.52.52 0 0 0 .459.119.56.56 0 0 0 .4-.315q.157-.32.05-.841l-.257-1.252-.061.013a.6.6 0 0 1 .016.237.2.2 0 0 1-.063.103.7.7 0 0 1-.24.074l-1.553.319q-.196.04-.251.026a.2.2 0 0 1-.099-.069.6.6 0 0 1-.078-.226l-.061.013.243 1.182q.087.423.196.585a.64.64 0 0 0 .275.233.54.54 0 0 0 .33.038.44.44 0 0 0 .281-.193q.108-.157.12-.502m-.184-.652q.053.26.023.396a.44.44 0 0 1-.12.222.5.5 0 0 1-.247.12.48.48 0 0 1-.273-.012.4.4 0 0 1-.193-.155q-.078-.11-.131-.378zm.137-.028.766-.157.088-.018q.095-.02.153.019.058.04.078.136a.6.6 0 0 1-.008.276.44.44 0 0 1-.143.222.626.626 0 0 1-.564.108.4.4 0 0 1-.231-.175 1.3 1.3 0 0 1-.139-.411m1.141 3.786.811-.283-.498-2.173-.061.015.018.08a.36.36 0 0 1 .003.18.16.16 0 0 1-.069.092.7.7 0 0 1-.217.071l-1.568.359a.8.8 0 0 1-.234.033.2.2 0 0 1-.098-.062.34.34 0 0 1-.073-.156l-.018-.08-.061.014.3 1.306.061-.014-.025-.107a.36.36 0 0 1-.002-.181.17.17 0 0 1 .068-.094.7.7 0 0 1 .217-.071l1.517-.348a.8.8 0 0 1 .238-.031q.054.01.094.067.026.043.065.214l.047.204q.044.194.008.339a.6.6 0 0 1-.159.272 1.7 1.7 0 0 1-.382.276zm.763 1.339h.062l-.01-1.309h-.062l.001.083a.36.36 0 0 1-.037.176.17.17 0 0 1-.087.075.8.8 0 0 1-.228.022l-1.607.011a.8.8 0 0 1-.236-.018.2.2 0 0 1-.083-.082.34.34 0 0 1-.037-.167v-.083h-.063l.01 1.31.062-.001v-.082a.35.35 0 0 1 .036-.175.18.18 0 0 1 .087-.076.8.8 0 0 1 .228-.022l1.608-.012a.8.8 0 0 1 .235.019.2.2 0 0 1 .083.083.34.34 0 0 1 .037.166zm-2.413 2.642.846-.006-.001-.072a.9.9 0 0 1-.513-.3.788.788 0 0 1 .29-1.223q.27-.118.604-.12.328-.002.598.08a.8.8 0 0 1 .408.264q.14.18.142.469a.95.95 0 0 1-.098.435q-.099.197-.344.417l.21-.001q.212-.213.308-.442a1.4 1.4 0 0 0 .092-.535 1.6 1.6 0 0 0-.161-.713 1.13 1.13 0 0 0-.454-.478 1.2 1.2 0 0 0-.625-.165 1.26 1.26 0 0 0-.66.193 1.3 1.3 0 0 0-.482.511 1.42 1.42 0 0 0-.052 1.237.8.8 0 0 1 .066.216.14.14 0 0 1-.041.104.23.23 0 0 1-.133.057zm.044 2.623q-.016.602.346.974.365.373.907.37.462-.004.813-.287.463-.373.459-1.051-.005-.68-.453-1.047a1.26 1.26 0 0 0-.837-.288 1.2 1.2 0 0 0-.901.388q-.359.384-.334.941m.115.021q-.003-.345.337-.53.279-.148.803-.152.623-.004.922.22.21.157.212.442a.55.55 0 0 1-.088.321.74.74 0 0 1-.365.257 2 2 0 0 1-.657.096q-.483.003-.723-.087-.24-.091-.34-.235a.57.57 0 0 1-.101-.332m.073 2.51 1.005-.007v.073a.7.7 0 0 1-.046.273.43.43 0 0 1-.162.179.7.7 0 0 1-.311.098l.001.064 1.222-.009-.001-.064q-.346-.032-.457-.189a.6.6 0 0 1-.113-.353l-.001-.073.747-.005a.8.8 0 0 1 .236.019.2.2 0 0 1 .082.082.33.33 0 0 1 .037.166l.001.083h.062l-.009-1.31h-.063l.001.083a.35.35 0 0 1-.037.177.17.17 0 0 1-.086.075.7.7 0 0 1-.229.021l-1.607.012a.8.8 0 0 1-.236-.019.2.2 0 0 1-.083-.081.34.34 0 0 1-.037-.168v-.083l-.063.001.016 2.118.699-.004-.001-.076q-.246-.025-.365-.131a.6.6 0 0 1-.17-.307 2 2 0 0 1-.03-.413zm2.263 3.453.062-.001-.01-1.309h-.062l.001.083a.36.36 0 0 1-.037.176.17.17 0 0 1-.087.075.7.7 0 0 1-.228.022l-1.608.011a.8.8 0 0 1-.235-.018.2.2 0 0 1-.083-.082.34.34 0 0 1-.037-.167v-.083h-.063l.009 1.31h.063v-.083a.35.35 0 0 1 .036-.175.18.18 0 0 1 .087-.076.8.8 0 0 1 .228-.022l1.608-.012a.7.7 0 0 1 .235.02q.048.02.083.082a.34.34 0 0 1 .037.166zM35.154-6.03l.689-.005a.7.7 0 0 1 .249.024.18.18 0 0 1 .082.087q.03.063.032.235h.062l-.009-1.287h-.062a.6.6 0 0 1-.03.237.2.2 0 0 1-.081.088q-.05.026-.247.028l-1.593.011a.7.7 0 0 1-.249-.023.18.18 0 0 1-.082-.088.6.6 0 0 1-.033-.236h-.062l.008 1.17q.004.457.067.667a.66.66 0 0 0 .228.344q.166.132.387.131a.57.57 0 0 0 .446-.204.8.8 0 0 0 .164-.36l.831.597q.16.119.2.169.056.075.062.176h.066l-.006-.792-1.117-.804zm-1.191.009 1.063-.008.001.106a1.2 1.2 0 0 1-.043.387.4.4 0 0 1-.163.202.6.6 0 0 1-.31.075q-.278.003-.411-.131t-.136-.433zm1.632 3.295-.006-.88.237-.111a.5.5 0 0 1 .197-.053.16.16 0 0 1 .154.083.8.8 0 0 1 .046.247h.062l-.006-.836h-.063a.38.38 0 0 1-.107.223 1.5 1.5 0 0 1-.371.218l-1.936.912v.036l2.004.892q.288.127.363.211.057.062.067.178l.062-.001-.009-1.216h-.062v.05q.001.147-.039.206-.028.041-.083.042a.2.2 0 0 1-.068-.011 2 2 0 0 1-.137-.054zm-.133-.058-.834-.369.829-.391zM33.866-.603l1.52 1.229-1.047.007q-.221.001-.3-.063-.106-.088-.104-.298h-.062l.006.831h.062a.7.7 0 0 1 .05-.215.22.22 0 0 1 .103-.086.7.7 0 0 1 .246-.032l2.03-.015V.692L34.325-.992l1.555-.011q.212-.002.286.097a.36.36 0 0 1 .076.228l.001.06.063-.001-.007-.896h-.062q-.001.209-.082.292t-.276.083l-1.725.013-.064-.052a.5.5 0 0 1-.132-.141.4.4 0 0 1-.036-.175h-.062Z" style="fill:#000;fill-opacity:1;fill-rule:nonzero;stroke:none" transform="matrix(.35278 0 0 -.35278 1.848 10.35)"/><path d="M0 0a1.953 1.953 0 0 0 .501-3.565c.294.413.471.946.471 1.53C.972-1.17.582-.413 0 0m-.597.902.003-.065c0-.251-.143-.455-.319-.455a.27.27 0 0 0-.21.112h-.17a.28.28 0 0 0-.21-.112c-.177 0-.32.204-.32.455q0 .03.003.058V.882c0-.166.141-.301.315-.301.117 0 .22.061.274.153h.041A.32.32 0 0 1-.916.581c.175 0 .316.135.316.301l-.001.02zm-.91-.973.001-3.33c-.49.213-1.16 1.401-.917 2.45.087.379.223.565.314.877-.812-.432-1.113-1.9-.357-3.075.226-.352.595-.575.686-.769l-.741-.152c.267-.166.735-.114 1.071-.103l.233-.328c.218.098.103.092.327.322.18-.001.554-.026.723.014l.203.087c-.272.137-.426.025-.626.243C.694-3.153.971-.737-.26-.071c.115-.475.552-.953.301-1.954-.215-.856-.845-1.347-.898-1.436L-.864-.042c-.18.089-.154.13-.347.18zM-2.411 0a1.955 1.955 0 0 1-.501-3.565 2.64 2.64 0 0 0-.471 1.53c0 .865.39 1.622.972 2.035" style="fill:#da1f26;fill-opacity:1;fill-rule:evenodd;stroke:none" transform="matrix(.35278 0 0 -.35278 8.286 3.99)"/><path d="M0 0h.087v-.524h-.499v.227h-.265v-.116h.186v-.111H-.75v.338h.338V0h.044v-.413h.146V0h.087v-.413H0Zm-.519-.114h-.896v.075h.896zm-.594-.185h-.002v-.114h.253v.114h-.175v.111h.218v-.336h-.373v.225h-.18v-.225h-.044v.336h.303zm-.15-.225h-.075v.111h.075z" style="fill:#fff;fill-opacity:1;fill-rule:evenodd;stroke:none" transform="matrix(.35278 0 0 -.35278 14.551 6.141)"/><path d="M0 0h.087v-.524h-.498v.227h-.266v-.116h.186v-.111h-.258v.338h.338V0h.044v-.413h.145V0h.087v-.413H0Zm-.519-.114h-.895v.075h.895zm-.594-.185h-.002v-.114h.253v.114h-.175v.111h.218v-.336h-.373v.225h-.18v-.225h-.044v.336h.303zm-.15-.225h-.075v.111h.075z" style="fill:#fff;fill-opacity:1;fill-rule:evenodd;stroke:none" transform="matrix(.35278 0 0 -.35278 13.99 6.141)"/><path d="M0 0h.088v-.524h-.499v.227h-.266v-.116h.186v-.111H-.75v.338h.339V0h.043v-.413h.146V0h.087v-.413H0Zm-.519-.114h-.895v.075h.895zm-.594-.185h-.002v-.114h.253v.114h-.175v.111h.218v-.336h-.373v.225h-.18v-.225h-.044v.336h.303zm-.15-.225h-.075v.111h.075z" style="fill:#fff;fill-opacity:1;fill-rule:evenodd;stroke:none" transform="matrix(.35278 0 0 -.35278 13.434 6.141)"/><path d="M0 0h.087v-.524h-.498v.227h-.266v-.116h.185v-.111H-.75v.338h.339V0h.043v-.413h.146V0h.087v-.413H0Zm-.519-.114h-.895v.075h.895zm-.594-.185h-.002v-.114h.253v.114h-.175v.111h.218v-.336h-.373v.225h-.18v-.225h-.044v.336h.303zm-.15-.225h-.076v.111h.076z" style="fill:#fff;fill-opacity:1;fill-rule:evenodd;stroke:none" transform="matrix(.35278 0 0 -.35278 12.874 6.141)"/><path d="M0 0h.088v-.524h-.499v.227h-.266v-.116h.186v-.111H-.75v.338h.339V0h.043v-.413h.146V0h.087v-.413H0Zm-.519-.114h-.895v.075h.895zm-.594-.185h-.002v-.114h.253v.114h-.176v.111h.219v-.336h-.373v.225h-.18v-.225h-.044v.336h.303zm-.15-.225h-.075v.111h.075z" style="fill:#fff;fill-opacity:1;fill-rule:evenodd;stroke:none" transform="matrix(.35278 0 0 -.35278 12.317 6.141)"/><path d="M0 0h.087v-.524h-.498v.227h-.266v-.116h.186v-.111H-.75v.338h.339V0h.043v-.413h.146V0h.087v-.413H0Zm-.519-.114h-.895v.075h.895zm-.594-.185h-.002v-.114h.253v.114h-.175v.111h.218v-.336h-.373v.225h-.18v-.225h-.044v.336h.303zm-.15-.225h-.076v.111h.076z" style="fill:#fff;fill-opacity:1;fill-rule:evenodd;stroke:none" transform="matrix(.35278 0 0 -.35278 11.757 6.141)"/><path d="M0 0h.088v-.524h-.499v.227h-.266v-.116h.186v-.111H-.75v.338h.339V0h.043v-.413h.146V0h.087v-.413H0Zm-.519-.114h-.895v.075h.895zm-.594-.185h-.002v-.114h.253v.114h-.176v.111h.219v-.336h-.373v.225h-.18v-.225h-.044v.336h.303zm-.15-.225h-.075v.111h.075z" style="fill:#fff;fill-opacity:1;fill-rule:evenodd;stroke:none" transform="matrix(.35278 0 0 -.35278 11.196 6.141)"/><path d="M0 0h.087v-.524h-.498v.227h-.266v-.116h.186v-.111H-.75v.338h.339V0h.043v-.413h.146V0h.087v-.413H0Zm-.519-.114h-.896v.075h.896zm-.594-.185h-.002v-.114h.252v.114h-.174v.111h.218v-.336h-.373v.225h-.18v-.225h-.044v.336h.303zm-.15-.225h-.076v.111h.076z" style="fill:#fff;fill-opacity:1;fill-rule:evenodd;stroke:none" transform="matrix(.35278 0 0 -.35278 10.635 6.141)"/><path d="M0 0h.087v-.524h-.499v.227h-.265v-.116h.185v-.111H-.75v.338h.338V0h.044v-.413h.146V0h.087v-.413H0Zm-.519-.114h-.895v.075h.895zm-.594-.185h-.002v-.114h.253v.114h-.176v.111h.219v-.336h-.373v.225h-.18v-.225h-.044v.336h.303zm-.15-.225h-.076v.111h.076z" style="fill:#fff;fill-opacity:1;fill-rule:evenodd;stroke:none" transform="matrix(.35278 0 0 -.35278 10.079 6.141)"/><path d="M0 0h.087v-.524h-.498v.227h-.266v-.116h.186v-.111H-.75v.338h.339V0h.044v-.413h.145V0h.087v-.413H0Zm-.519-.114h-.895v.075h.895zm-.594-.185h-.002v-.114h.253v.114h-.176v.111h.219v-.336h-.373v.225h-.18v-.225h-.044v.336h.303zm-.15-.225h-.076v.111h.076z" style="fill:#fff;fill-opacity:1;fill-rule:evenodd;stroke:none" transform="matrix(.35278 0 0 -.35278 9.518 6.141)"/><path d="M0 0h.087v-.524h-.499v.227h-.265v-.116h.185v-.111H-.75v.338h.338V0h.044v-.413h.146V0h.087v-.413H0Zm-.519-.114h-.895v.075h.895zm-.594-.185h-.003v-.114h.254v.114h-.176v.111h.219v-.336h-.373v.225h-.18v-.225h-.044v.336h.303zm-.15-.225h-.076v.111h.076z" style="fill:#fff;fill-opacity:1;fill-rule:evenodd;stroke:none" transform="matrix(.35278 0 0 -.35278 8.962 6.141)"/><path d="M0 0h.087v-.524h-.498v.227h-.266v-.116h.186v-.111H-.75v.338h.339V0h.043v-.413h.146V0h.087v-.413H0Zm-.519-.114h-.896v.075h.896zm-.594-.185h-.002v-.114h.253v.114h-.175v.111h.218v-.336h-.373v.225h-.18v-.225h-.044v.336h.303zm-.15-.225h-.076v.111h.076z" style="fill:#fff;fill-opacity:1;fill-rule:evenodd;stroke:none" transform="matrix(.35278 0 0 -.35278 8.401 6.141)"/><path d="M0 0h.088v-.524h-.499v.227h-.266v-.116h.185v-.111H-.75v.338h.339V0h.043v-.413h.146V0h.087v-.413H0Zm-.519-.114h-.895v.075h.895zm-.594-.185h-.002v-.114h.253v.114h-.176v.111h.219v-.336h-.373v.225h-.18v-.225h-.044v.336h.303zm-.15-.225h-.075v.111h.075z" style="fill:#fff;fill-opacity:1;fill-rule:evenodd;stroke:none" transform="matrix(.35278 0 0 -.35278 7.838 6.141)"/><path d="M0 0h.087v-.524h-.498v.227h-.266v-.116h.186v-.111H-.75v.338h.339V0h.043v-.413h.146V0h.087v-.413H0Zm-.519-.114h-.896v.075h.896zm-.594-.185h-.002v-.114h.253v.114h-.175v.111h.218v-.336h-.373v.225h-.18v-.225h-.044v.336h.303zm-.15-.225h-.076v.111h.076z" style="fill:#fff;fill-opacity:1;fill-rule:evenodd;stroke:none" transform="matrix(.35278 0 0 -.35278 7.277 6.141)"/><path d="M0 0h.087v-.524h-.498v.227h-.266v-.116h.185v-.111H-.75v.338h.339V0h.043v-.413h.146V0h.087v-.413H0Zm-.519-.114h-.895v.075h.895zm-.594-.185h-.002v-.114h.253v.114h-.176v.111h.219v-.336h-.373v.225h-.18v-.225h-.044v.336h.303zm-.15-.225h-.076v.111h.076z" style="fill:#fff;fill-opacity:1;fill-rule:evenodd;stroke:none" transform="matrix(.35278 0 0 -.35278 6.72 6.141)"/><path d="M0 0h.088v-.524h-.499v.227h-.266v-.116h.186v-.111H-.75v.338h.339V0h.044v-.413h.145V0h.087v-.413H0Zm-.519-.114h-.895v.075h.895zm-.594-.185h-.002v-.114h.253v.114h-.175v.111h.218v-.336h-.372v.225h-.181v-.225h-.044v.336h.303zm-.15-.225h-.076v.111h.076z" style="fill:#fff;fill-opacity:1;fill-rule:evenodd;stroke:none" transform="matrix(.35278 0 0 -.35278 6.16 6.141)"/><path d="M0 0h.087v-.524h-.498v.227h-.266v-.116h.186v-.111H-.75v.338h.339V0h.043v-.413h.146V0h.087v-.413H0Zm-.519-.114h-.895v.075h.895zm-.594-.185h-.002v-.114h.253v.114h-.176v.111h.219v-.336h-.373v.225h-.18v-.225h-.044v.336h.303zm-.15-.225h-.076v.111h.076z" style="fill:#fff;fill-opacity:1;fill-rule:evenodd;stroke:none" transform="matrix(.35278 0 0 -.35278 5.604 6.141)"/><path d="M0 0h.088v-.524h-.499v.227h-.266v-.116h.186v-.111H-.75v.338h.339V0h.043v-.413h.146V0h.087v-.413H0Zm-.519-.114h-.896v.075h.896zm-.594-.185h-.002v-.114h.253v.114h-.175v.111h.218v-.336h-.372v.225h-.181v-.225h-.044v.336h.303zm-.15-.225h-.076v.111h.076z" style="fill:#fff;fill-opacity:1;fill-rule:evenodd;stroke:none" transform="matrix(.35278 0 0 -.35278 5.043 6.141)"/><path d="M0 0h.087v-.524h-.498v.227h-.266v-.116h.186v-.111H-.75v.338h.339V0h.044v-.413h.145V0h.087v-.413H0Zm-.519-.114h-.895v.075h.895zm-.594-.185h-.002v-.114h.253v.114h-.175v.111h.218v-.336h-.373v.225h-.18v-.225h-.044v.336h.303zm-.15-.225h-.076v.111h.076z" style="fill:#fff;fill-opacity:1;fill-rule:evenodd;stroke:none" transform="matrix(.35278 0 0 -.35278 4.482 6.141)"/><path d="M0 0h.087v-.524h-.498v.227h-.266v-.116h.186v-.111H-.75v.338h.339V0h.043v-.413h.146V0h.087v-.413H0Zm-.519-.114h-.895v.075h.895zm-.594-.185h-.002v-.114h.253v.114h-.175v.111h.218v-.336h-.373v.225h-.18v-.225h-.044v.336h.303zm-.15-.225h-.075v.111h.075z" style="fill:#fff;fill-opacity:1;fill-rule:evenodd;stroke:none" transform="matrix(.35278 0 0 -.35278 3.922 6.141)"/><path d="M0 0h.088v-.524h-.499v.227h-.266v-.116h.186v-.111h-.258v.338h.338V0h.044v-.413h.145V0h.087v-.413H0Zm-.519-.114h-.895v.075h.895zm-.594-.185h-.002v-.114h.253v.114h-.175v.111h.218v-.336h-.372v.225h-.181v-.225h-.044v.336h.303zm-.15-.225h-.076v.111h.076z" style="fill:#fff;fill-opacity:1;fill-rule:evenodd;stroke:none" transform="matrix(.35278 0 0 -.35278 3.365 6.141)"/><path d="M0 0h.087v-.524h-.499v.227h-.265v-.116h.186v-.111H-.75v.338h.338V0h.044v-.413h.146V0h.087v-.413H0Zm-.519-.114h-.896v.075h.896zm-.594-.185h-.002v-.114h.253v.114h-.176v.111h.219v-.336h-.373v.225h-.18v-.225h-.044v.336h.303zm-.15-.225h-.075v.111h.075z" style="fill:#fff;fill-opacity:1;fill-rule:evenodd;stroke:none" transform="matrix(.35278 0 0 -.35278 2.805 6.141)"/><path d="M0 0h.088v-.524h-.499v.227h-.266v-.116h.186v-.111H-.75v.338h.339V0h.044v-.413h.145V0h.087v-.413H0Zm-.518-.114h-.896v.075h.896zm-.595-.185h-.002v-.114h.253v.114h-.175v.111h.218v-.336h-.372v.225h-.181v-.225h-.044v.336h.303zm-.15-.225h-.076v.111h.076z" style="fill:#fff;fill-opacity:1;fill-rule:evenodd;stroke:none" transform="matrix(.35278 0 0 -.35278 2.248 6.141)"/><path d="M0 0h.087v-.524h-.499v.227h-.265v-.116h.186v-.111H-.75v.338h.338V0h.044v-.413h.146V0h.087v-.413H0Zm-.519-.114h-.895v.075h.895zm-.594-.185h-.002v-.114h.253v.114h-.175v.111h.218v-.336h-.373v.225h-.18v-.225h-.044v.336h.303zm-.15-.225h-.075v.111h.075z" style="fill:#fff;fill-opacity:1;fill-rule:evenodd;stroke:none" transform="matrix(.35278 0 0 -.35278 1.688 6.141)"/><path d="M0 0h.087v-.524h-.499v.227h-.265v-.116h.186v-.111H-.75v.338h.338V0h.044v-.413h.146V0h.087v-.413H0Zm-.519-.114h-.896v.074h.896zm-.594-.185h-.002v-.114h.253v.114h-.175v.11h.218v-.335h-.373v.225h-.18v-.225h-.044v.335h.303zm-.15-.225h-.075v.111h.075z" style="fill:#fff;fill-opacity:1;fill-rule:evenodd;stroke:none" transform="matrix(.35278 0 0 -.35278 14.551 2.998)"/><path d="M0 0h.087v-.524h-.498v.227h-.266v-.116h.186v-.111h-.258v.338h.338V0h.044v-.413h.145V0h.087v-.413H0Zm-.519-.114h-.895v.074h.895zm-.594-.185h-.002v-.114h.253v.114h-.175v.11h.218v-.335h-.373v.225h-.18v-.225h-.044v.335h.303zm-.15-.225h-.075v.111h.075z" style="fill:#fff;fill-opacity:1;fill-rule:evenodd;stroke:none" transform="matrix(.35278 0 0 -.35278 13.99 2.998)"/><path d="M0 0h.088v-.524h-.499v.227h-.266v-.116h.186v-.111H-.75v.338h.339V0h.043v-.413h.146V0h.087v-.413H0Zm-.519-.114h-.895v.074h.895zm-.594-.185h-.002v-.114h.253v.114h-.175v.11h.218v-.335h-.373v.225h-.18v-.225h-.044v.335h.303zm-.15-.225h-.075v.111h.075z" style="fill:#fff;fill-opacity:1;fill-rule:evenodd;stroke:none" transform="matrix(.35278 0 0 -.35278 13.434 2.998)"/><path d="M0 0h.087v-.524h-.498v.227h-.266v-.116h.185v-.111H-.75v.338h.339V0h.043v-.413h.146V0h.087v-.413H0Zm-.519-.114h-.895v.074h.895zm-.594-.185h-.002v-.114h.253v.114h-.175v.11h.218v-.335h-.373v.225h-.18v-.225h-.044v.335h.303zm-.15-.225h-.076v.111h.076z" style="fill:#fff;fill-opacity:1;fill-rule:evenodd;stroke:none" transform="matrix(.35278 0 0 -.35278 12.874 2.998)"/><path d="M0 0h.088v-.524h-.499v.227h-.266v-.116h.186v-.111H-.75v.338h.339V0h.043v-.413h.146V0h.087v-.413H0Zm-.519-.114h-.895v.074h.895zm-.594-.185h-.002v-.114h.253v.114h-.176v.11h.219v-.335h-.373v.225h-.18v-.225h-.044v.335h.303zm-.15-.225h-.075v.111h.075z" style="fill:#fff;fill-opacity:1;fill-rule:evenodd;stroke:none" transform="matrix(.35278 0 0 -.35278 12.317 2.998)"/><path d="M0 0h.087v-.524h-.498v.227h-.266v-.116h.186v-.111H-.75v.338h.339V0h.043v-.413h.146V0h.087v-.413H0Zm-.519-.114h-.895v.074h.895zm-.594-.185h-.002v-.114h.253v.114h-.175v.11h.218v-.335h-.373v.225h-.18v-.225h-.044v.335h.303zm-.15-.225h-.076v.111h.076z" style="fill:#fff;fill-opacity:1;fill-rule:evenodd;stroke:none" transform="matrix(.35278 0 0 -.35278 11.757 2.998)"/><path d="M0 0h.088v-.524h-.499v.227h-.266v-.116h.186v-.111H-.75v.338h.339V0h.043v-.413h.146V0h.087v-.413H0Zm-.519-.114h-.895v.074h.895zm-.594-.185h-.002v-.114h.253v.114h-.176v.11h.219v-.335h-.373v.225h-.18v-.225h-.044v.335h.303zm-.15-.225h-.075v.111h.075z" style="fill:#fff;fill-opacity:1;fill-rule:evenodd;stroke:none" transform="matrix(.35278 0 0 -.35278 11.196 2.998)"/><path d="M0 0h.087v-.524h-.498v.227h-.266v-.116h.186v-.111H-.75v.338h.339V0h.043v-.413h.146V0h.087v-.413H0Zm-.519-.114h-.896v.074h.896zm-.594-.185h-.002v-.114h.252v.114h-.174v.11h.218v-.335h-.373v.225h-.18v-.225h-.044v.335h.303zm-.15-.225h-.076v.111h.076z" style="fill:#fff;fill-opacity:1;fill-rule:evenodd;stroke:none" transform="matrix(.35278 0 0 -.35278 10.635 2.998)"/><path d="M0 0h.087v-.524h-.499v.227h-.265v-.116h.185v-.111H-.75v.338h.338V0h.044v-.413h.146V0h.087v-.413H0Zm-.519-.114h-.895v.074h.895zm-.594-.185h-.002v-.114h.253v.114h-.176v.11h.219v-.335h-.373v.225h-.18v-.225h-.044v.335h.303zm-.15-.225h-.076v.111h.076z" style="fill:#fff;fill-opacity:1;fill-rule:evenodd;stroke:none" transform="matrix(.35278 0 0 -.35278 10.079 2.998)"/><path d="M0 0h.087v-.524h-.498v.227h-.266v-.116h.186v-.111H-.75v.338h.339V0h.044v-.413h.145V0h.087v-.413H0Zm-.519-.114h-.895v.074h.895zm-.594-.185h-.002v-.114h.253v.114h-.176v.11h.219v-.335h-.373v.225h-.18v-.225h-.044v.335h.303zm-.15-.225h-.076v.111h.076z" style="fill:#fff;fill-opacity:1;fill-rule:evenodd;stroke:none" transform="matrix(.35278 0 0 -.35278 9.518 2.998)"/><path d="M0 0h.087v-.524h-.499v.227h-.265v-.116h.185v-.111H-.75v.338h.338V0h.044v-.413h.146V0h.087v-.413H0Zm-.519-.114h-.895v.074h.895zm-.594-.185h-.003v-.114h.254v.114h-.176v.11h.219v-.335h-.373v.225h-.18v-.225h-.044v.335h.303zm-.15-.225h-.076v.111h.076z" style="fill:#fff;fill-opacity:1;fill-rule:evenodd;stroke:none" transform="matrix(.35278 0 0 -.35278 8.962 2.998)"/><path d="M0 0h.087v-.524h-.498v.227h-.266v-.116h.186v-.111H-.75v.338h.339V0h.043v-.413h.146V0h.087v-.413H0Zm-.519-.114h-.896v.074h.896zm-.594-.185h-.002v-.114h.253v.114h-.175v.11h.218v-.335h-.373v.225h-.18v-.225h-.044v.335h.303zm-.15-.225h-.076v.111h.076z" style="fill:#fff;fill-opacity:1;fill-rule:evenodd;stroke:none" transform="matrix(.35278 0 0 -.35278 8.401 2.998)"/><path d="M0 0h.088v-.524h-.499v.227h-.266v-.116h.185v-.111H-.75v.338h.339V0h.043v-.413h.146V0h.087v-.413H0Zm-.519-.114h-.895v.074h.895zm-.594-.185h-.002v-.114h.253v.114h-.176v.11h.219v-.335h-.373v.225h-.18v-.225h-.044v.335h.303zm-.15-.225h-.075v.111h.075z" style="fill:#fff;fill-opacity:1;fill-rule:evenodd;stroke:none" transform="matrix(.35278 0 0 -.35278 7.838 2.998)"/><path d="M0 0h.087v-.524h-.498v.227h-.266v-.116h.186v-.111H-.75v.338h.339V0h.043v-.413h.146V0h.087v-.413H0Zm-.519-.114h-.896v.074h.896zm-.594-.185h-.002v-.114h.253v.114h-.175v.11h.218v-.335h-.373v.225h-.18v-.225h-.044v.335h.303zm-.15-.225h-.076v.111h.076z" style="fill:#fff;fill-opacity:1;fill-rule:evenodd;stroke:none" transform="matrix(.35278 0 0 -.35278 7.277 2.998)"/><path d="M0 0h.087v-.524h-.498v.227h-.266v-.116h.185v-.111H-.75v.338h.339V0h.043v-.413h.146V0h.087v-.413H0Zm-.519-.114h-.895v.074h.895zm-.594-.185h-.002v-.114h.253v.114h-.176v.11h.219v-.335h-.373v.225h-.18v-.225h-.044v.335h.303zm-.15-.225h-.076v.111h.076z" style="fill:#fff;fill-opacity:1;fill-rule:evenodd;stroke:none" transform="matrix(.35278 0 0 -.35278 6.72 2.998)"/><path d="M0 0h.088v-.524h-.499v.227h-.266v-.116h.186v-.111H-.75v.338h.339V0h.044v-.413h.145V0h.087v-.413H0Zm-.519-.114h-.895v.074h.895zm-.594-.185h-.002v-.114h.253v.114h-.175v.11h.218v-.335h-.372v.225h-.181v-.225h-.044v.335h.303zm-.15-.225h-.076v.111h.076z" style="fill:#fff;fill-opacity:1;fill-rule:evenodd;stroke:none" transform="matrix(.35278 0 0 -.35278 6.16 2.998)"/><path d="M0 0h.087v-.524h-.498v.227h-.266v-.116h.186v-.111H-.75v.338h.339V0h.043v-.413h.146V0h.087v-.413H0Zm-.519-.114h-.895v.074h.895zm-.594-.185h-.002v-.114h.253v.114h-.176v.11h.219v-.335h-.373v.225h-.18v-.225h-.044v.335h.303zm-.15-.225h-.076v.111h.076z" style="fill:#fff;fill-opacity:1;fill-rule:evenodd;stroke:none" transform="matrix(.35278 0 0 -.35278 5.604 2.998)"/><path d="M0 0h.088v-.524h-.499v.227h-.266v-.116h.186v-.111H-.75v.338h.339V0h.043v-.413h.146V0h.087v-.413H0Zm-.519-.114h-.896v.074h.896zm-.594-.185h-.002v-.114h.253v.114h-.175v.11h.218v-.335h-.372v.225h-.181v-.225h-.044v.335h.303zm-.15-.225h-.076v.111h.076z" style="fill:#fff;fill-opacity:1;fill-rule:evenodd;stroke:none" transform="matrix(.35278 0 0 -.35278 5.043 2.998)"/><path d="M0 0h.087v-.524h-.498v.227h-.266v-.116h.186v-.111H-.75v.338h.339V0h.044v-.413h.145V0h.087v-.413H0Zm-.519-.114h-.895v.074h.895zm-.594-.185h-.002v-.114h.253v.114h-.175v.11h.218v-.335h-.373v.225h-.18v-.225h-.044v.335h.303zm-.15-.225h-.076v.111h.076z" style="fill:#fff;fill-opacity:1;fill-rule:evenodd;stroke:none" transform="matrix(.35278 0 0 -.35278 4.482 2.998)"/><path d="M0 0h.087v-.524h-.498v.227h-.266v-.116h.186v-.111H-.75v.338h.339V0h.043v-.413h.146V0h.087v-.413H0Zm-.519-.114h-.895v.074h.895zm-.594-.185h-.002v-.114h.253v.114h-.175v.11h.218v-.335h-.373v.225h-.18v-.225h-.044v.335h.303zm-.15-.225h-.075v.111h.075z" style="fill:#fff;fill-opacity:1;fill-rule:evenodd;stroke:none" transform="matrix(.35278 0 0 -.35278 3.922 2.998)"/><path d="M0 0h.088v-.524h-.499v.227h-.266v-.116h.186v-.111h-.258v.338h.338V0h.044v-.413h.145V0h.087v-.413H0Zm-.519-.114h-.895v.074h.895zm-.594-.185h-.002v-.114h.253v.114h-.175v.11h.218v-.335h-.372v.225h-.181v-.225h-.044v.335h.303zm-.15-.225h-.076v.111h.076z" style="fill:#fff;fill-opacity:1;fill-rule:evenodd;stroke:none" transform="matrix(.35278 0 0 -.35278 3.365 2.998)"/><path d="M0 0h.087v-.524h-.499v.227h-.265v-.116h.186v-.111H-.75v.338h.338V0h.044v-.413h.146V0h.087v-.413H0Zm-.519-.114h-.896v.074h.896zm-.594-.185h-.002v-.114h.253v.114h-.176v.11h.219v-.335h-.373v.225h-.18v-.225h-.044v.335h.303zm-.15-.225h-.075v.111h.075z" style="fill:#fff;fill-opacity:1;fill-rule:evenodd;stroke:none" transform="matrix(.35278 0 0 -.35278 2.805 2.998)"/><path d="M0 0h.088v-.524h-.499v.227h-.266v-.116h.186v-.111H-.75v.338h.339V0h.044v-.413h.145V0h.087v-.413H0Zm-.518-.114h-.896v.074h.896zm-.595-.185h-.002v-.114h.253v.114h-.175v.11h.218v-.335h-.372v.225h-.181v-.225h-.044v.335h.303zm-.15-.225h-.076v.111h.076z" style="fill:#fff;fill-opacity:1;fill-rule:evenodd;stroke:none" transform="matrix(.35278 0 0 -.35278 2.248 2.998)"/><path d="M0 0h.087v-.524h-.499v.227h-.265v-.116h.186v-.111H-.75v.338h.338V0h.044v-.413h.146V0h.087v-.413H0Zm-.519-.114h-.895v.074h.895zm-.594-.185h-.002v-.114h.253v.114h-.175v.11h.218v-.335h-.373v.225h-.18v-.225h-.044v.335h.303zm-.15-.225h-.075v.111h.075z" style="fill:#fff;fill-opacity:1;fill-rule:evenodd;stroke:none" transform="matrix(.35278 0 0 -.35278 1.688 2.998)"/><path d="M177.448 182.192h.037v.057h-.037zM176.888 182.192h.037v.057h-.037zM176.331 182.192h.037v.057h-.037zM175.771 182.192h.037v.057h-.037zM175.214 182.192h.037v.057h-.037zM174.654 182.192h.037v.057h-.037zM174.093 182.192h.037v.057h-.037zM173.533 182.192h.037v.057h-.037zM172.976 182.192h.037v.057h-.037zM172.415 182.192h.037v.057h-.037zM171.859 182.192h.037v.057h-.037zM171.298 182.192h.037v.057h-.037zM170.735 182.192h.037v.057h-.037zM170.175 182.192h.037v.057h-.037zM169.618 182.192h.037v.057h-.037zM169.057 182.192h.037v.057h-.037zM168.5 182.192h.038v.057h-.037zM167.94 182.192h.037v.057h-.037zM167.38 182.192h.037v.057h-.038zM166.819 182.192h.037v.057h-.037zM166.262 182.192h.037v.057h-.037zM165.702 182.192h.037v.057h-.037zM165.145 182.192h.037v.057h-.037zM164.585 182.192h.037v.057h-.037z" style="fill:#009348;fill-opacity:1;fill-rule:evenodd;stroke:none;stroke-width:.352778" transform="translate(-163.15 -178.76)"/><path d="M177.448 184.62h.037v.059h-.037zM176.888 184.62h.037v.059h-.037zM176.331 184.62h.037v.059h-.037zM175.771 184.62h.037v.059h-.037zM175.214 184.62h.037v.059h-.037zM174.654 184.62h.037v.059h-.037zM174.093 184.62h.037v.059h-.037zM173.533 184.62h.037v.059h-.037zM172.976 184.62h.037v.059h-.037zM172.415 184.62h.037v.059h-.037zM171.859 184.62h.037v.059h-.037zM171.298 184.62h.037v.059h-.037zM170.735 184.62h.037v.059h-.037zM170.175 184.62h.037v.059h-.037zM169.618 184.62h.037v.059h-.037zM169.057 184.62h.037v.059h-.037zM168.5 184.62h.038v.059h-.037zM167.94 184.62h.037v.059h-.037zM167.38 184.62h.037v.059h-.038zM166.819 184.62h.037v.059h-.037zM166.262 184.62h.037v.059h-.037zM165.702 184.62h.037v.059h-.037zM165.145 184.62h.037v.059h-.037zM164.585 184.62h.037v.059h-.037z" style="fill:#e11e25;fill-opacity:1;fill-rule:evenodd;stroke:none;stroke-width:.352778" transform="translate(-163.15 -178.76)"/></svg>