<svg xmlns="http://www.w3.org/2000/svg" width="400" height="650.828"><g fill-rule="evenodd"><path fill="#100e0c" d="m192.704 13.955-7.007 13.916-1.92.282a8143 8143 0 0 1-15.813 2.263c-7.641 1.09-13.861 2.072-13.823 2.182s5.06 4.944 11.158 10.741c7.282 6.924 11.116 10.766 11.173 11.196.065.496-4.126 25.521-5.007 29.893-.147.732.195.591 6.847-2.817a2648 2648 0 0 1 14.271-7.248l7.271-3.658 4.968 2.504c2.733 1.377 9.031 4.592 13.996 7.144s9.087 4.581 9.16 4.508-.122-1.541-.435-3.26c-.313-1.72-1.107-6.237-1.765-10.039s-1.576-9.05-2.04-11.663c-.464-2.614-.844-4.963-.844-5.221s5.087-5.304 11.303-11.215 11.336-10.818 11.375-10.906c.04-.088-7.058-1.189-15.772-2.446l-15.844-2.286-6.942-13.697C203.196 6.595 199.991.343 199.892.235s-3.333 6.066-7.188 13.72m6.864 100.371-144.132.145.081 1.872c.045 1.029.236 2.325.424 2.879.451 1.329.441 13.361-.012 14.452-.176.425-.41 2.077-.52 3.672-.11 1.594-.311 2.899-.447 2.899-.135 0-.225.097-.198.216.062.274-.328 2.381-.546 2.952-.323.843-.372 1.018-.545 1.943-.096.515-.29.936-.43.936s-.233.097-.207.216c.095.425-.404 2.376-.608 2.376-.115 0-.228.162-.251.36-.147 1.223-.44 2.232-.649 2.232-.133 0-.327.453-.431 1.008s-.294 1.008-.422 1.008-.319.388-.423.864c-.104.475-.307.864-.449.864s-.341.324-.441.72-.304.719-.454.719-.199.121-.108.269c.091.147.034.349-.127.449-.161.099-.293.381-.293.626 0 .358-1.334 2.335-2.008 2.976-.084.079-.378.598-.654 1.152-.591 1.186-1.063 1.926-1.658 2.597-.237.268-.755.905-1.151 1.414-2.68 3.449-5.925 6.741-9.268 9.404l-3.168 2.523a8.3 8.3 0 0 1-1.315.838c-.357.169-.648.416-.648.549s-.184.242-.409.242c-.514 0-2.179.934-2.181 1.224-.001.118-.186.216-.411.216-.48 0-2.284.91-2.423 1.223-.053.119-.401.216-.775.216-.373 0-.753.12-.843.266s-.552.351-1.025.455-.861.308-.861.454-.316.265-.703.265-.779.124-.873.276c-.093.151-.36.202-.593.113s-.422-.034-.422.124c0 .157-.357.357-.792.444-2.382.475-3.749.801-4.392 1.046-.396.15-1.562.334-2.592.407-1.029.074-2.196.214-2.592.312-.395.099-1.847.258-3.224.354-1.677.117-2.554.301-2.651.556-.842 2.193-.751 57.924.118 72.383.157 2.62.411 7.16.564 10.09.341 6.553.791 13.186 1.19 17.567.166 1.821.417 5.12.559 7.331.141 2.211.33 4.35.419 4.754s.349 2.678.579 5.052c.834 8.604 1.036 10.43 1.578 14.252.302 2.139.631 4.73.73 5.76s.365 2.755.591 3.835c.226 1.079.411 2.419.411 2.976 0 .558.253 2.526.561 4.373s.717 4.396.909 5.663c.713 4.73 1.114 7.22 1.277 7.919.093.396.3 1.885.46 3.308.161 1.424.399 2.655.529 2.736.129.081.331 1.184.447 2.451.117 1.267.322 2.375.455 2.46.134.086.33 1.091.436 2.232s.285 2.076.398 2.076c.193 0 .649 3 .623 4.103-.006.278.098.504.231.504s.334.81.446 1.8c.113.99.279 1.923.369 2.074s.197.539.238.864.217 1.303.393 2.174.36 1.843.409 2.16c.05.316.293 1.247.541 2.067s.384 1.745.303 2.055-.007.651.166.758c.172.106.313.502.313.879 0 .378.131.768.292.867a.34.34 0 0 1 .12.462c-.096.154-.049.437.105.628.235.294.436 1.177.682 3.011.027.198.138.36.247.36s.276.928.371 2.063c.095 1.134.307 2.146.471 2.247.165.102.385.826.491 1.609s.372 1.703.592 2.043.422 1.151.448 1.8c.026.65.132 1.181.237 1.181s.273.518.374 1.152.294 1.152.429 1.152c.134 0 .316.795.405 1.768.088.973.292 1.85.453 1.949.161.1.383.859.492 1.688.11.828.299 1.506.419 1.506.121 0 .307.486.415 1.08s.391 1.663.629 2.376.444 1.652.456 2.088c.012.435.122.792.244.792s.298.356.393.792c.094.435.227 1.051.294 1.368.067.316.256.964.421 1.439.86 2.491 1.574 4.926 1.509 5.153-.04.141.153.724.431 1.296.277.571.469 1.266.427 1.543s.045.504.193.504.352.518.453 1.152.296 1.152.432 1.152c.135 0 .314.599.397 1.331.082.732.282 1.413.443 1.513s.388.687.504 1.305c.116.619.386 1.461.6 1.871.215.411.391 1.01.392 1.331s.19.853.421 1.182.64 1.395.911 2.368c.27.973.6 1.77.732 1.77.133 0 .244.291.248.647.003.357.262 1.213.576 1.904s.569 1.557.569 1.927c0 .369.128.75.284.847.157.096.498.914.758 1.817.261.902.781 2.281 1.156 3.063s.682 1.54.682 1.684.177.671.393 1.17.588 1.426.827 2.059.721 1.894 1.072 2.8c.35.907.666 1.848.701 2.091.036.244.219.597.408.785s.343.566.343.838c0 .547.883 2.358 1.224 2.51.118.052.215.384.215.737 0 .352.191.892.423 1.199.233.308.427.729.432.935s.268.944.584 1.638c.317.695.62 1.555.675 1.913.054.358.249.701.433.762.183.061.333.302.333.536 0 .233.315.988.699 1.676.385.689.622 1.329.528 1.424s-.034.171.133.171.389.453.493 1.008.307 1.008.451 1.008.347.453.451 1.007c.104.555.294 1.008.422 1.008s.319.389.423.864c.104.476.284.864.399.864s.525.842.913 1.87c.387 1.029.795 1.871.907 1.872s.288.456.392 1.01.283 1.008.398 1.008.51.713.879 1.584c.368.871.767 1.584.888 1.584.12 0 .303.388.408.863.104.476.292.864.418.864s.309.397.406.881.372 1.077.612 1.317c.239.239.435.703.435 1.031s.201.742.445.921c.245.179.466.605.492.948s.123.575.215.518.487.596.876 1.452c.39.856.795 1.56.902 1.564s.351.486.545 1.071c.193.585.471 1.201.619 1.368.283.321 1.216 2.059 3.022 5.632.601 1.187 1.254 2.33 1.452 2.54s.36.488.36.619.524 1.101 1.165 2.157c.641 1.055 1.279 2.216 1.417 2.58s.716 1.386 1.283 2.272c.566.886 1.03 1.736 1.03 1.889s.098.321.216.374c.119.053.726.938 1.349 1.968.623 1.029 1.228 1.938 1.345 2.019.117.08.302.502.41.936.109.434.305.789.436.789.13 0 .327.281.436.625.109.345.442.887.739 1.207.298.319.541.75.541.958s.129.377.288.377.288.195.288.432c0 .238.117.432.26.432s.405.357.582.792.546 1.176.82 1.646c.483.829.681 1.105 1.434 2.004.198.236.36.551.36.699s.194.344.432.435c.237.091.431.433.431.76s.19.667.421.755c.232.089.508.434.613.766.106.333.56.998 1.009 1.479.449.48 1.048 1.327 1.331 1.881s.81 1.335 1.171 1.735.732 1.019.823 1.375c.092.357.271.648.4.648.128 0 .528.486.889 1.08.36.594.824 1.184 1.031 1.31s.376.359.376.516.132.443.293.634c1.3 1.539 1.722 2.11 1.722 2.33.001.14.227.465.505.724.277.258.633.677.792.931.85 1.361 2.478 3.658 3.068 4.33 1.202 1.367 1.683 1.972 1.683 2.115 0 .078.227.38.504.673s.763.902 1.08 1.354 1.168 1.54 1.892 2.419 1.566 1.983 1.872 2.452c.306.47.916 1.248 1.357 1.728l1.512 1.648c.391.425.71.891.71 1.034s.486.781 1.08 1.418a62 62 0 0 1 1.944 2.195 65 65 0 0 0 2.163 2.416c.714.758 1.686 1.897 2.16 2.53.473.634 1.282 1.533 1.797 1.997s.936 1.016.936 1.224c0 .209.194.379.432.379.237 0 .432.134.432.298s.388.678.864 1.142c.475.464.863.978.863 1.142s.195.298.432.298c.238 0 .432.194.432.432 0 .237.181.432.402.432.385 0 .891.776.796 1.224-.025.119.073.183.219.144.24-.065 10.49 10.162 12.046 12.019.357.425.648.674.648.553s.581.386 1.291 1.127 1.374 1.348 1.474 1.348.685.518 1.3 1.151c.615.634 1.201 1.152 1.301 1.152.101 0 .484.324.851.72s.743.72.836.72.663.486 1.266 1.08c.602.594 1.731 1.663 2.508 2.376s1.377 1.403 1.333 1.533c-.043.131.056.154.22.053s.848.333 1.519.966c1.68 1.584 3.277 2.919 3.49 2.919.098 0 .414.227.703.504 1.4 1.346 2.671 2.387 3.721 3.05.634.4 1.415 1.061 1.735 1.467s.707.739.86.739c.325 0 2.027 1.267 5.393 4.013.789.644 1.516 1.171 1.616 1.171.154 0 1.655 1.087 2.736 1.981.173.144.712.467 1.197.718s.927.559.981.683c.054.125.811.677 1.682 1.226s1.714 1.102 1.872 1.229 1.13.766 2.16 1.42c1.029.653 1.937 1.279 2.016 1.39s.468.301.864.421.951.461 1.235.759c.283.297.63.54.771.54s.428.164.637.365.924.606 1.587.9c.664.294 1.276.713 1.359.931.084.217.415.396.737.396s.585.102.585.227.713.6 1.584 1.056c.871.455 1.584.936 1.584 1.068s.167.24.371.24.879.26 1.501.576c.621.317 1.249.576 1.395.576s.475.242.731.538c.256.295.887.629 1.402.742s.935.315.935.448.372.324.825.424c.454.099 1.07.401 1.368.67 1.554 1.402 2.574 1.451 4.036.194.455-.391.989-.711 1.188-.712.198 0 .844-.259 1.435-.576s1.273-.576 1.514-.576.601-.259.799-.576c.197-.317.549-.576.782-.576s.847-.258 1.365-.575c.519-.316 1.156-.575 1.416-.576a.75.75 0 0 0 .645-.447c.094-.246.756-.706 1.471-1.022.714-.316 1.3-.666 1.302-.777.001-.111.584-.458 1.296-.771.711-.313 1.293-.655 1.293-.761s.324-.273.72-.373.72-.307.72-.463c0-.155.13-.282.29-.282s.827-.389 1.483-.864 1.368-.864 1.582-.864.388-.13.388-.288.195-.288.432-.288c.238 0 .432-.13.432-.288s.188-.288.418-.288a.86.86 0 0 0 .648-.363c.126-.199.716-.618 1.31-.929s1.08-.637 1.08-.724.454-.401 1.008-.7 1.008-.652 1.008-.785c0-.134.174-.243.387-.243s.764-.324 1.224-.719c.46-.396.97-.72 1.133-.72.162 0 .517-.26.789-.577.271-.316.657-.575.858-.575s.528-.26.726-.576c.197-.317.553-.576.789-.576s.429-.109.429-.241c0-.133.938-.878 2.084-1.656s2.41-1.714 2.808-2.079 1.08-.88 1.516-1.142c.435-.263.792-.58.792-.704s.135-.226.301-.226.602-.324.969-.72.801-.72.964-.72.37-.194.462-.432c.091-.237.304-.432.474-.432s.596-.272.945-.604c.879-.836 3.867-3.139 4.072-3.139.092 0 .801-.648 1.577-1.44s1.542-1.44 1.704-1.44 1.182-.875 2.267-1.944 2.374-2.268 2.865-2.664c2.949-2.376 20.399-19.545 24.004-23.618.713-.805 1.685-1.896 2.16-2.424.475-.529 1.235-1.397 1.687-1.93.453-.533 1.425-1.628 2.16-2.433a57 57 0 0 0 2.201-2.56 32 32 0 0 1 1.368-1.633c.277-.294.504-.601.504-.682 0-.135 1.109-1.459 1.943-2.32.198-.205.36-.511.36-.68s.195-.309.432-.309c.238 0 .432-.14.432-.311 0-.247 1.627-2.468 2.304-3.144.079-.08.656-.792 1.282-1.584.625-.792 1.431-1.745 1.789-2.117.359-.373.731-.923.826-1.224.096-.301.298-.547.449-.547s.399-.324.55-.72c.15-.396.406-.72.569-.72a.3.3 0 0 0 .295-.306c0-.169.356-.694.792-1.168 1.598-1.738 1.8-1.986 1.8-2.226 0-.134.259-.542.575-.908.317-.365.576-.827.576-1.028 0-.2.106-.407.235-.459.312-.129 3.22-3.906 3.226-4.192.002-.123.39-.678.861-1.232 1.285-1.513 1.308-1.545 1.515-2.088.106-.277.327-.504.49-.504s.297-.174.297-.388c0-.213.259-.686.576-1.052.317-.365.576-.82.576-1.011s.316-.585.703-.876c.386-.29.648-.616.581-.724s.168-.509.521-.891.804-1.014 1.001-1.404c.447-.887 1.028-1.816 1.253-2.005.094-.079.354-.481.576-.893s.923-1.56 1.556-2.55c1.919-2.999 5.616-8.976 5.616-9.08 0-.054.453-.787 1.008-1.628.554-.842 1.008-1.685 1.008-1.873 0-.189.102-.386.227-.439.306-.129 1.951-2.848 2.203-3.639.11-.348.312-.632.449-.632.138 0 .34-.286.451-.635s.379-.812.595-1.028c.217-.217.394-.629.394-.915s.195-.681.432-.878c.238-.197.432-.537.432-.755 0-.219.116-.397.257-.397s.338-.324.438-.72.307-.72.463-.72c.155 0 .282-.242.282-.537s.259-.867.576-1.269c.317-.403.576-.943.576-1.2s.187-.539.414-.627c.228-.087.498-.535.599-.995s.288-.901.415-.98.731-1.149 1.343-2.379c.611-1.23 1.209-2.279 1.33-2.332.12-.053.219-.233.219-.401 0-.451 1.221-2.815 1.455-2.815.11 0 .28-.396.377-.881.097-.484.372-1.076.612-1.316.239-.24.436-.67.436-.956s.194-.681.431-.879c.238-.197.432-.601.432-.899 0-.297.12-.54.266-.54.145 0 .35-.389.454-.864.105-.476.309-.864.455-.864s.265-.185.265-.412.162-.585.36-.799c.198-.213.402-.578.452-.812.086-.394.4-1.124 1.794-4.169 3.076-6.718 3.594-7.901 3.998-9.143.194-.594.472-1.08.618-1.08s.266-.218.266-.485c0-.47.448-1.547 1.897-4.559.382-.794.695-1.598.695-1.786 0-.52.636-1.806.834-1.684.095.058.202-.286.237-.767.035-.48.244-1.15.466-1.488s.495-1.034.607-1.546c.113-.513.314-.932.447-.932.134 0 .335-.421.448-.935s.4-1.389.639-1.944c.772-1.797.905-2.135 1.536-3.888.342-.951.722-1.858.846-2.016.123-.159.314-.774.425-1.368s.301-1.08.421-1.08c.121 0 .302-.518.404-1.152.101-.634.312-1.152.468-1.152s.285-.293.285-.652.259-1.136.576-1.727.576-1.448.576-1.904c0-.457.194-.991.432-1.188.237-.198.432-.732.432-1.188s.129-.828.288-.828.267-.097.241-.216c-.025-.119.126-.605.336-1.08.464-1.048.493-1.149.539-1.851.019-.306.235-.755.478-.998s.432-.513.419-.599c-.065-.445.407-2.333.617-2.471.133-.087.375-.858.537-1.713.163-.854.422-1.632.578-1.728s.368-.816.472-1.599c.105-.783.31-1.503.456-1.599s.338-.711.426-1.368c.088-.656.258-1.193.377-1.193.12 0 .305-.583.412-1.296s.316-1.296.465-1.296.244-.097.212-.216c-.118-.436.38-2.376.61-2.376.13 0 .305-.599.387-1.331s.304-1.427.492-1.543a.63.63 0 0 0 .265-.612c-.105-.553.326-2.341.666-2.764.154-.191.201-.474.106-.628a.34.34 0 0 1 .119-.462c.161-.1.293-.554.293-1.011s.122-.905.271-.998.36-.78.469-1.528c.108-.749.304-1.497.435-1.663s.365-1.008.521-1.872c.302-1.683.94-4.165 1.651-6.422.242-.768.555-1.999.695-2.736.322-1.698 1.037-4.623 1.63-6.667.253-.871.52-2.102.594-2.736.074-.633.315-1.502.534-1.929s.399-1.245.399-1.815.196-1.415.435-1.877c.239-.463.412-.942.383-1.066-.029-.123.043-.808.159-1.52.307-1.874.357-2.113.551-2.592.145-.36.611-2.578.907-4.32.041-.237.163-.756.272-1.152s.24-1.044.292-1.439c.051-.396.161-.915.244-1.152.187-.539.676-3.01 1.082-5.472.169-1.029.425-2.52.567-3.312.91-5.059 1.182-6.646 1.3-7.583a36 36 0 0 1 .448-2.496c.172-.792.433-2.469.578-3.727.146-1.258.396-2.418.555-2.577.16-.16.291-1.075.291-2.035 0-.959.131-2.197.292-2.75.436-1.496.582-2.447.85-5.525.134-1.535.325-2.923.424-3.084.198-.32.72-3.519.875-5.356.236-2.795.534-4.917.727-5.183.115-.159.231-1.196.258-2.304.052-2.215.201-3.439.63-5.184.156-.633.414-2.901.573-5.039.16-2.139.368-4.536.463-5.328.094-.792.227-2.927.294-4.744.067-1.818.254-3.463.414-3.657.161-.194.266-.91.233-1.591-.033-.682.013-1.434.102-1.671.183-.484.494-4.715.668-9.071.16-3.991.333-6.456.677-9.648 1.496-13.872 1.637-81.955.172-82.872-.17-.106-1.799-.292-3.621-.413-5.334-.355-6.683-.512-8.207-.956-.792-.23-1.728-.459-2.08-.51s-.731-.181-.84-.29c-.11-.11-.502-.2-.872-.2-.369 0-.672-.143-.672-.319 0-.175-.19-.245-.422-.156-.233.089-.5.038-.593-.113-.094-.152-.4-.276-.681-.276-.28 0-1.147-.323-1.926-.718-.78-.396-1.579-.72-1.777-.72-.198-.001-.36-.131-.36-.29s-.199-.288-.442-.288c-.574 0-3.302-1.382-3.302-1.673 0-.123-.421-.349-.936-.502-.525-.156-.901-.445-.857-.657.044-.208-.037-.306-.18-.218-.142.088-.792-.226-1.444-.698-.652-.473-1.287-.859-1.412-.859s-.424-.227-.667-.504c-.242-.277-.801-.763-1.244-1.08-2.631-1.885-10.25-9.759-10.25-10.593 0-.08-.358-.529-.796-.997s-1.053-1.357-1.368-1.974c-.315-.618-.648-1.188-.74-1.267-.24-.206-2.856-4.566-2.856-4.76 0-.089-.444-1.11-.986-2.268s-1.127-2.631-1.3-3.274-.507-1.536-.741-1.985-.426-1.237-.427-1.752-.127-.936-.28-.936-.364-.648-.469-1.44-.289-1.439-.409-1.439c-.119 0-.306-.713-.415-1.584s-.301-1.584-.427-1.584c-.228 0-.624-3.611-.592-5.4.009-.515-.117-.936-.28-.936-.196 0-.297-2.401-.297-7.055 0-3.881.11-7.056.246-7.056s.332-1.021.436-2.27c.18-2.159.053-3.287-.353-3.13-.102.04-65.045.137-144.318.216m41.181 21.821 92.008.21.027 1.008c.015.554-.06 1.138-.167 1.296-.439.652-.588 11.934-.21 15.839.315 3.241.373 3.657.62 4.42.268.826.474 2.015.477 2.751.001.302.252 1.064.557 1.695.304.631.481 1.265.392 1.409-.089.143-.005.45.187.68.191.231.259.42.151.42-.107 0-.095.162.029.36.123.198.264.613.312.923s.182.634.296.72c.222.167.419.787.438 1.38.006.198.098.36.203.36s.193.162.193.36c.001.198.302 1.008.669 1.8s.648 1.537.623 1.656.106.216.291.216.254.082.153.183c-.1.1.071.504.38.897.31.394.492.83.406.97s-.035.254.114.254.34.262.424.582c.253.969.301 1.048 1.283 2.143.198.221.36.496.36.611s.356.675.792 1.244c.435.57.986 1.377 1.224 1.794.888 1.562 7.775 9.041 7.775 8.445 0-.119.318.127.706.546.389.419.811.762.939.762s.394.259.592.576.539.576.758.576c.22 0 .474.194.565.432.091.237.293.431.448.431s.629.322 1.053.715.884.645 1.023.559.251-.018.251.149c0 .168.179.305.397.305s.555.191.748.423c.193.233.435.404.539.382.341-.075 1.772.722 1.772.986 0 .143.119.186.265.096s.454.025.686.257c.231.231.501.34.599.242s.178-.027.178.158.17.336.378.336.925.264 1.593.587c.669.323 1.341.51 1.494.415.153-.094.279-.027.279.15s.115.251.255.164.42.041.622.284.528.38.725.305.438-.056.538.043c.099.099.338.205.532.235.193.03.675.102 1.071.16s.788.194.87.302c.082.109.471.251.864.316s.909.197 1.146.294c.238.097.756.177 1.152.177 2.113.003 8.685.818 8.98 1.114 1.008 1.007 1.259 50.91.324 64.137-.056.792-.153 2.476-.214 3.743-.135 2.775-.367 7.129-.63 11.807a320 320 0 0 0-.237 4.752c-.023.713-.126 1.49-.228 1.728-.151.354-.457 5.337-.617 10.079-.019.554-.117 1.138-.219 1.296-.166.261-.465 3.443-.716 7.631-.052.871-.234 2.491-.405 3.6-.342 2.215-.449 3.151-.877 7.631-.369 3.874-.404 4.13-.6 4.469-.09.156-.187.996-.216 1.867-.075 2.293-.217 3.469-.58 4.817-.177.657-.297 1.299-.266 1.428s-.031.818-.136 1.53a39 39 0 0 0-.277 2.594c-.048.714-.175 1.442-.283 1.617-.177.286-.291 1.116-.612 4.429-.054.554-.189 1.221-.3 1.482s-.172.649-.136.864c.037.214-.017.713-.12 1.109-.102.396-.235 1.239-.295 1.872-.06.634-.198 1.36-.307 1.613-.109.254-.17.578-.136.72s-.025.583-.132.979c-.106.396-.263 1.368-.348 2.16-.231 2.136-.3 2.548-.502 3.024-.159.375-.356 1.533-.612 3.599-.039.317-.15.835-.246 1.152-.199.656-.532 2.53-.639 3.6-.039.396-.105.72-.145.72-.041 0-.109.259-.151.576s-.165.964-.275 1.44a42 42 0 0 0-.279 1.296 6 6 0 0 1-.24.863c-.089.238-.244 1.138-.346 2s-.27 1.704-.375 1.872a2 2 0 0 0-.243.647c-.028.188-.143.901-.256 1.584-.112.682-.217 1.468-.233 1.745s-.11.504-.208.504-.19.162-.203.36a9 9 0 0 1-.187 1.068 13 13 0 0 0-.226 1.656c-.036.521-.181.947-.324.947s-.192.179-.108.397.035.515-.109.658c-.143.144-.31.646-.371 1.115-.061.47-.199 1.062-.307 1.315-.108.254-.174.578-.148.72.027.143.024.324-.007.403a6 6 0 0 0-.156.671 5.4 5.4 0 0 1-.319 1.007c-.121.265-.254.871-.296 1.346-.069.778-.257 1.778-.405 2.16a.8.8 0 0 0-.022.36c.018.118-.088.216-.236.216-.149 0-.272.226-.275.504-.008.944-.31 2.396-.616 2.968-.168.314-.227.698-.132.853.096.155.065.282-.069.282s-.262.227-.284.504c-.04.502-.223 1.554-.414 2.376-.055.238-.182.497-.282.576s-.262.662-.358 1.296c-.199 1.297-.396 2.268-.482 2.376a1.1 1.1 0 0 0-.119.288c-.033.118-.16.442-.282.719s-.241.827-.263 1.223-.118.721-.21.721-.179.162-.193.36c-.037.544-.308 1.628-.472 1.894-.079.129-.209.55-.287.934a22 22 0 0 1-.427 1.636c-.157.515-.213.936-.125.936.087 0 .014.174-.162.386s-.248.46-.159.549c.089.088-.112.696-.445 1.35-.334.654-.582 1.347-.551 1.54s-.029.577-.133.855c-.191.507-.436 1.26-.492 1.507-.016.073-.288.816-.603 1.652-.316.836-.643 1.909-.727 2.384s-.274 1.091-.422 1.368-.168.506-.044.508.077.1-.105.216c-.183.117-.414.666-.515 1.22-.262 1.435-.291 1.535-.593 2.016-.281.446-.392.826-.569 1.957-.057.364-.241.828-.41 1.031s-.364.682-.434 1.066a9 9 0 0 1-.183.841c-.03.08-.073.274-.095.432-.022.159-.21.588-.419.955-.208.367-.442.95-.519 1.296s-.172.759-.21.917-.229.58-.425.936-.279.648-.185.648.07.162-.054.36c-.123.198-.263.609-.311.913s-.228.726-.403.936-.205.385-.066.387.112.1-.057.216c-.321.22-1.745 4.369-1.63 4.747.036.119-.047.216-.186.216-.235 0-.736 1.608-.65 2.088.021.119-.081.216-.227.216s-.365.421-.488.936c-.279 1.174-.268 1.139-.487 1.656-.38.9-.705 1.877-.67 2.016.02.079-.264.565-.63 1.08-.367.514-.6.936-.518.936.208 0-.442 1.838-.715 2.022-.123.082-.287.5-.365.929-.077.428-.334 1.138-.571 1.577-.377.702-.787 1.664-.892 2.095-.019.079-.214.468-.433.864s-.383.75-.363.786c.019.036-.304.808-.72 1.715-.415.906-.754 1.816-.754 2.021 0 .206-.116.374-.257.374s-.177.129-.079.288.033.288-.144.288-.248.12-.157.268c.092.147.032.35-.131.452-.164.101-.223.304-.132.451s.021.268-.156.268-.242.13-.144.288c.098.159.041.288-.127.288s-.305.122-.305.27-.139.634-.308 1.08c-.17.445-.306.875-.302.954.003.079-.185.436-.419.792s-.324.65-.202.653c.123.002.091.099-.071.215-.249.18-1.038 1.627-1.136 2.084-.017.079-.183.418-.37.754s-.276.673-.199.751-.057.305-.298.505-.439.492-.439.647-.313.907-.696 1.669-.62 1.461-.528 1.553c.093.093.026.168-.148.168-.31 0-.813 1.086-.701 1.512.032.119-.072.216-.231.216-.158 0-.288.179-.288.397s-.193.557-.428.753c-.236.195-.376.441-.312.546.132.212-.832 2.246-1.778 3.756-.341.543-.554 1.093-.473 1.223.08.13-.013.237-.207.237-.195 0-.278.075-.186.167s-.145.629-.528 1.192c-.382.564-.695 1.201-.695 1.417s-.151.391-.336.391-.254.083-.153.184-.057.522-.352.936-.561.847-.593.962l-.209.792c-.084.32-.288.582-.455.582-.166 0-.221.081-.123.18.099.098-.154.617-.562 1.152s-.641.972-.519.972c.123 0 .008.237-.254.527s-.391.614-.285.72.042.193-.143.193-.336.178-.336.397c0 .218-.19.554-.423.747s-.413.436-.401.539c.048.407-.408 1.485-.627 1.485-.128 0-.382.453-.565 1.008s-.452 1.007-.598 1.007-.266.175-.266.388-.259.687-.576 1.052c-.316.366-.576.839-.576 1.052s-.129.388-.288.388-.288.179-.288.397-.194.558-.432.755c-.237.197-.432.602-.432.899s-.129.541-.287.541c-.159 0-.288.179-.288.397s-.193.557-.429.752c-.236.196-.369.454-.295.573s-.119.446-.428.726c-.31.28-.504.604-.432.72.071.116-.126.443-.439.726s-.569.669-.569.858-.259.577-.576.864c-.317.286-.576.679-.576.873s-.193.512-.429.708-.368.453-.295.573-.119.445-.428.725-.493.622-.408.759.017.249-.151.249-.305.195-.305.432c0 .238-.13.432-.288.432s-.288.162-.288.36-.324.737-.72 1.197-.725.978-.732 1.152c-.006.173-.395.764-.863 1.312-.469.548-.853 1.105-.853 1.237 0 .131-.324.588-.72 1.015s-.72.907-.72 1.065c0 .347-1.899 3.174-2.807 4.178-.357.395-.648.867-.648 1.049 0 .183-.213.414-.473.514-.261.1-.398.257-.306.35s.045.316-.106.497c-.15.181-.66.783-1.131 1.337-.472.554-.941 1.267-1.041 1.584s-.393.796-.651 1.066c-.852.892-1.188 1.354-1.188 1.634a.43.43 0 0 1-.239.372c-.255.102-4.081 5.059-4.081 5.287 0 .075-.226.372-.504.661-.687.715-2.081 2.493-2.951 3.765-.396.579-.886 1.244-1.088 1.477a353 353 0 0 1-1.508 1.721c-.627.712-1.142 1.382-1.144 1.487s-.456.688-1.009 1.296c-1.466 1.61-1.875 2.097-1.875 2.234 0 .067-.356.499-.792.959-1.456 1.539-3.376 3.734-4.103 4.689-.396.521-1.433 1.694-2.304 2.608s-2.426 2.589-3.456 3.721c-3.064 3.371-18.827 19.003-19.162 19.003-.048 0-.466.356-.928.792-.463.435-1.59 1.44-2.507 2.231-2.487 2.15-3.386 2.948-4.216 3.744-.414.396-.899.72-1.078.72s-.489.267-.688.592c-.2.326-.815.875-1.368 1.219s-1.417 1.05-1.92 1.567c-.503.518-1.055.942-1.226.942s-.312.151-.312.336-.076.26-.169.167c-.163-.163-1.016.464-2.256 1.657-.33.316-.692.544-.806.506s-.346.189-.514.504c-.169.316-.497.573-.729.573s-.422.111-.422.246c0 .136-1.314 1.132-2.919 2.215-1.606 1.083-3.129 2.175-3.384 2.427s-.809.631-1.23.843c-.421.213-1.191.775-1.711 1.25s-1.309.99-1.754 1.145-.809.399-.809.542-.194.26-.432.26c-.237 0-.432.129-.432.288s-.188.288-.417.288a.86.86 0 0 0-.648.363c-.127.199-.717.617-1.311.929s-1.08.674-1.08.806-.13.159-.29.06c-.159-.098-.365.017-.457.257s-.61.583-1.15.761-.982.444-.982.59-.172.265-.382.265-.686.324-1.058.72-.913.72-1.202.72-.526.138-.526.305c0 .168-.13.225-.288.127s-.288-.04-.288.127c0 .168-.194.305-.432.305s-.432.137-.432.305-.119.232-.265.142c-.145-.09-.469.041-.72.291-.25.25-.455.361-.455.246s-.259.025-.576.312-.576.414-.576.283c0-.132-.324.065-.72.437s-.72.566-.72.432-.334.07-.743.454-.765.647-.792.584c-.091-.214-1.344.295-1.344.546 0 .234-.819.601-1.682.752-.211.038-.61.272-.886.522s-.71.454-.966.454c-.255 0-.54.123-.633.273-.266.431-1.79.118-2.966-.609-.591-.365-1.109-.631-1.15-.59-.041.04-.495-.149-1.008-.421-.513-.271-1.066-.517-1.228-.546-.163-.03-.797-.393-1.408-.808-.612-.415-1.273-.755-1.469-.755s-.518-.194-.715-.432-.602-.432-.899-.432-.541-.129-.541-.288-.179-.288-.397-.288-.557-.193-.752-.429c-.196-.235-.457-.367-.579-.291-.123.076-.382-.054-.576-.288s-.451-.365-.57-.291c-.119.073-.449-.122-.732-.436-.283-.313-.633-.569-.778-.569-.144 0-.675-.292-1.179-.648-1.414-1.001-2.024-1.369-2.573-1.553-.277-.094-.503-.284-.503-.424s-.176-.254-.39-.254-.742-.327-1.172-.725c-.43-.399-.896-.654-1.036-.568-.139.086-.382-.083-.538-.376-.157-.292-.811-.769-1.455-1.059-.643-.29-1.169-.645-1.169-.789s-.131-.18-.29-.082c-.16.099-.37-.029-.468-.283-.097-.255-.698-.729-1.335-1.054s-1.495-.902-1.906-1.283-.91-.693-1.11-.693c-.199 0-.363-.1-.363-.222 0-.123-.453-.467-1.007-.766-.555-.298-1.008-.655-1.008-.792 0-.138-.324-.373-.72-.524-.396-.15-.72-.406-.72-.569a.3.3 0 0 0-.301-.295c-.166 0-.603-.291-.972-.648-.751-.725-2.19-1.799-2.412-1.799-.079 0-.675-.486-1.325-1.08s-1.344-1.08-1.542-1.08-.36-.13-.36-.288c0-.159-.163-.288-.363-.288s-.607-.324-.905-.72c-.297-.396-.664-.72-.816-.72s-.714-.486-1.249-1.08-.976-.954-.98-.8c-.003.154-.208-.008-.455-.36-.246-.352-.606-.64-.799-.64s-.703-.356-1.133-.792c-1.431-1.451-2.142-2.088-2.331-2.088-.103 0-.763-.55-1.467-1.224a208 208 0 0 0-3.021-2.807c-3.578-3.256-4.834-4.433-7.395-6.936-1.445-1.412-2.773-2.568-2.952-2.568s-.324-.12-.324-.268-1.782-2.071-3.959-4.274-4.803-4.952-5.832-6.109a237 237 0 0 0-3.168-3.486 86 86 0 0 1-2.304-2.57 43 43 0 0 0-1.943-2.124c-.515-.515-.936-1.052-.936-1.193s-.253-.521-.562-.844a55 55 0 0 1-3.038-3.513c-.475-.6-1.196-1.419-1.602-1.818-.405-.4-.822-.953-.927-1.23-.104-.278-.322-.504-.486-.504a.29.29 0 0 1-.297-.285c0-.287-.579-1.076-1.512-2.062-.277-.293-.504-.667-.504-.83s-.194-.372-.432-.463c-.237-.091-.432-.314-.433-.495s-.389-.743-.864-1.249c-.474-.506-.862-1.048-.862-1.203s-.299-.519-.664-.808c-.364-.289-.911-.946-1.214-1.461-.303-.514-.652-.936-.776-.936-.125 0-.226-.198-.226-.441 0-.242-.195-.515-.432-.606-.238-.091-.432-.318-.432-.503s-.389-.763-.864-1.283-.864-1.067-.864-1.216a.27.27 0 0 0-.269-.27c-.147 0-.34-.227-.428-.504s-.491-.86-.895-1.296-.66-.792-.568-.792 0-.199-.204-.442l-.668-.792c-.163-.192-.682-.965-1.152-1.717-.471-.752-.953-1.368-1.072-1.368-.118 0-.216-.195-.216-.433 0-.237-.129-.432-.288-.432s-.288-.194-.288-.432c0-.237-.129-.432-.287-.432-.159 0-.288-.194-.288-.431 0-.238-.13-.432-.288-.432-.159 0-.288-.195-.288-.432 0-.238-.098-.432-.218-.432s-.379-.365-.576-.81a6.2 6.2 0 0 0-.934-1.428c-.317-.34-.576-.753-.576-.918s-.137-.3-.305-.3-.225-.131-.126-.29c.099-.16-.023-.368-.271-.463s-.45-.353-.45-.574-.116-.401-.257-.401-.338-.324-.437-.72c-.1-.396-.308-.72-.464-.72-.155 0-.282-.17-.282-.378 0-.207-.243-.638-.541-.958-.297-.319-.63-.862-.739-1.206s-.32-.626-.467-.626-.269-.183-.269-.408-.101-.451-.225-.504-.599-.841-1.055-1.751c-.456-.911-.938-1.656-1.071-1.656-.132 0-.241-.168-.241-.374 0-.205-.194-.626-.432-.936-.864-1.126-1.943-2.859-1.993-3.204-.029-.195-.292-.62-.586-.944-.293-.324-.426-.59-.295-.59.132 0-.037-.293-.373-.652-.337-.358-.815-1.103-1.063-1.656-.562-1.253-1.076-2.092-1.449-2.367q-.288-.211 0-.22c.158-.005.117-.117-.091-.25-.209-.132-.407-.426-.44-.652s-.345-.812-.692-1.3c-.348-.488-.549-.97-.449-1.071s.033-.183-.152-.183-.336-.243-.336-.541c0-.297-.168-.68-.373-.85s-.553-.769-.773-1.331c-.221-.562-.497-1.022-.613-1.022-.117 0-.366-.486-.554-1.08s-.531-1.23-.762-1.413-.41-.411-.4-.504c.058-.511-.015-.742-.342-1.086-.372-.391-1.946-3.512-1.97-3.905-.008-.12-.189-.414-.404-.651s-.419-.562-.452-.72-.223-.547-.421-.864-.513-1.062-.702-1.656-.469-1.08-.625-1.08c-.155 0-.202-.129-.104-.288s.04-.288-.127-.288c-.168 0-.305-.25-.305-.555s-.195-.75-.432-.987c-.238-.238-.432-.56-.432-.717s-.446-1.124-.99-2.151-.912-1.944-.816-2.039.015-.174-.179-.174-.285-.111-.201-.246-.035-.491-.262-.792c-.228-.3-.418-.773-.423-1.05s-.146-.504-.314-.504-.225-.13-.127-.288.033-.288-.144-.288-.247-.121-.156-.268.032-.351-.132-.452c-.163-.101-.223-.304-.132-.452.092-.147.038-.268-.119-.268-.242 0-.58-.657-.779-1.512-.027-.118-.066-.28-.086-.36a.38.38 0 0 1 .036-.257c.04-.063-.145-.355-.411-.648s-.494-.664-.506-.823c-.055-.724-.668-2.159-.922-2.159-.155 0-.208-.121-.117-.268s.034-.35-.127-.449-.293-.424-.293-.72-.193-.732-.43-.968c-.237-.237-.486-.732-.555-1.101a9 9 0 0 0-.179-.814.85.85 0 0 1-.022-.36c.019-.119-.081-.216-.222-.216-.251 0-.749-1.37-.655-1.8.026-.119-.06-.216-.192-.216s-.24-.168-.24-.374c0-.205-.409-1.178-.909-2.161s-.897-1.857-.883-1.942c.033-.2-1.144-3.281-1.521-3.984a4.8 4.8 0 0 1-.408-1.19c-.065-.356-.312-1.02-.549-1.474s-.431-1.045-.432-1.313-.134-.568-.295-.668c-.161-.099-.218-.301-.127-.449.091-.147.029-.268-.139-.268s-.305-.316-.305-.703-.132-.784-.293-.883c-.161-.1-.228-.285-.15-.411.078-.127-.102-.733-.401-1.347s-.482-1.214-.408-1.334c.074-.119-.003-.217-.171-.217s-.29-.097-.271-.216a.8.8 0 0 0-.022-.36 6 6 0 0 1-.156-.671 5.5 5.5 0 0 0-.313-1.008 14 14 0 0 1-.263-.625 39 39 0 0 0-.209-.576c-.958-2.598-1.201-3.344-1.148-3.528.033-.119-.068-.216-.227-.216-.158 0-.259-.097-.223-.216.107-.355-.7-2.954-.968-3.12-.137-.084-.249-.599-.249-1.144s-.137-.991-.305-.991-.224-.13-.127-.288c.098-.159.069-.288-.064-.288s-.27-.344-.305-.763-.208-.938-.386-1.152-.226-.389-.108-.389.086-.162-.069-.36c-.307-.39-.777-1.949-.696-2.311.027-.122-.214-.738-.535-1.368-.321-.629-.517-1.145-.435-1.145.081 0-.113-.68-.433-1.512-.32-.831-.656-1.965-.748-2.519-.091-.555-.278-1.218-.415-1.474-.137-.257-.167-.548-.067-.648s.009-.182-.202-.182-.31-.075-.218-.166c.091-.091.039-.577-.115-1.08a30 30 0 0 1-.384-1.346c-.057-.238-.123-.432-.147-.432s-.091-.194-.149-.432c-.058-.237-.188-.756-.289-1.152-.102-.396-.195-.882-.209-1.08s-.141-.36-.282-.36-.185-.115-.098-.257c.088-.141-.015-.757-.228-1.368s-.331-1.272-.262-1.47-.023-.36-.204-.36-.254-.121-.163-.268.061-.333-.067-.412-.265-.633-.306-1.23-.186-1.222-.323-1.388c-.138-.166-.256-.4-.263-.52-.044-.813-.446-2.432-.675-2.721-.152-.191-.2-.469-.109-.618.092-.148-.054-.769-.324-1.38-.271-.611-.501-1.305-.513-1.543-.051-1.079-.506-2.879-.727-2.879-.135 0-.243-.227-.241-.504.005-.622-.443-3.342-.628-3.816a.85.85 0 0 1-.022-.36c.019-.119-.074-.216-.206-.216s-.243-.162-.247-.36c-.018-.924-.424-3.182-.7-3.892-.308-.794-.502-1.625-.688-2.947a18 18 0 0 0-.121-.792 2 2 0 0 1-.038-.211c-.01-.076-.152-.562-.315-1.08a13 13 0 0 1-.396-1.661c-.176-1.257-.364-2.133-.665-3.096-.161-.515-.23-.936-.152-.936.077 0 .047-.151-.067-.335s-.246-.67-.294-1.08a26 26 0 0 0-.254-1.609c-.091-.475-.169-1.09-.172-1.367-.003-.278-.114-.504-.246-.504-.131 0-.235-.292-.23-.648.009-.666-.208-2.111-.508-3.384-.356-1.514-.757-3.794-.76-4.32a3.1 3.1 0 0 0-.159-.864c-.197-.542-.304-1.175-.532-3.166-.1-.87-.305-1.812-.456-2.094-.15-.281-.191-.644-.091-.807.101-.163.087-.516-.03-.786-.282-.65-.659-2.89-.737-4.378-.012-.237-.157-.95-.32-1.584-.309-1.197-.453-2.311-.567-4.391-.037-.673-.141-1.224-.231-1.224s-.18-.227-.201-.504a41 41 0 0 0-.247-1.944c-.116-.792-.191-1.872-.167-2.4.024-.529-.053-1.112-.172-1.296-.119-.185-.242-.595-.273-.912-.247-2.507-.426-3.847-.593-4.463-.107-.396-.211-1.239-.23-1.872-.044-1.517-.436-4.542-.627-4.853-.083-.135-.186-.913-.229-1.728-.174-3.306-.497-6.683-.666-6.954-.205-.328-.259-.886-.477-4.896-.085-1.583-.24-3.333-.344-3.887a23 23 0 0 1-.259-1.872 60 60 0 0 0-.218-2.016c-.132-1.043-.429-5.198-.638-8.927a72 72 0 0 0-.216-2.736c-.237-2.274-.539-7.152-.666-10.758-.068-1.923-.165-4.21-.215-5.081-.692-11.961-.984-38.161-.621-55.867.063-3.089.137-7.153.165-9.033.054-3.702.362-4.483 1.784-4.518.555-.014 5.181-.427 7.415-.662 1.797-.19 3.168-.551 3.168-.835 0-.171.071-.24.158-.153s.638.038 1.224-.111c.586-.148 1.26-.304 1.497-.346a7 7 0 0 0 1.008-.3c.317-.123.965-.362 1.44-.532s1.035-.44 1.243-.6 1.116-.538 2.016-.84 1.939-.829 2.308-1.173c.369-.343.758-.601.864-.572.335.089 2.065-.826 2.065-1.092 0-.141.198-.256.441-.256a.69.69 0 0 0 .596-.405c.086-.223.535-.563.999-.755s.843-.463.843-.602c0-.14.144-.253.319-.253s.573-.324.885-.72c.311-.396.746-.72.967-.72s.54-.26.709-.576c.17-.317.466-.579.658-.583.32-.007 1.442-1.134 5.39-5.418.779-.846 1.495-1.785 1.592-2.088s.295-.551.443-.551.268-.194.268-.432c0-.237.128-.432.285-.432s.473-.453.705-1.007c.231-.555.557-1.008.724-1.008s.302-.195.302-.432c0-.238.151-.432.336-.432s.25-.087.144-.193.027-.436.297-.734c.269-.297.514-.711.545-.919s.296-.66.591-1.004c.294-.343.553-.718.574-.831.14-.748.499-1.503.715-1.503.14 0 .233-.097.208-.216-.05-.235.123-.699.987-2.651.312-.706.591-1.447.621-1.647.029-.201.143-.455.254-.565.11-.11.2-.443.2-.739s.19-.828.422-1.182c.233-.355.455-1.073.495-1.596s.176-1.015.302-1.093c.127-.078.161-.254.077-.39-.085-.137-.026-.327.131-.424.271-.168.781-2.907.637-3.422-.038-.136.061-.402.219-.593 1.043-1.256 1.365-16.268.451-20.991-.174-.896-.104-1.212.381-1.728l.594-.632 40.406.078c22.223.042 81.81.172 132.415.288m35.047 15.798c-.1.1-1.281.345-2.625.543-4.543.671-9.53 3.017-12.797 6.02-2.208 2.031-5.226 6.741-5.226 8.157 0 .294-.146.68-.325.859-.362.362-.986 3.92-1.271 7.253-.217 2.53.515 8.891 1.175 10.214.231.463.421 1.013.421 1.221 0 1.83 5.263 8.605 7.631 9.824.475.245.929.531 1.008.638.3.401 2.903 1.702 3.804 1.899.516.114 1.209.384 1.539.6.586.384 1.504.614 5.312 1.333 3.901.736 12.694.404 16.991-.641 3.25-.791 3.461-.764 5.782.751 7.057 4.607 9.374 5.352 10.107 3.249.162-.463.411-.841.554-.841.142 0 .259-.14.259-.31s.542-1.221 1.203-2.334c1.421-2.392 1.372-2.563-1.06-3.644-5.08-2.258-5.503-2.766-3.94-4.732.821-1.032 2.553-4.412 3.208-6.259 1.452-4.092 1.459-14.424.012-18.43-2.943-8.152-10.814-14.375-18.8-14.864-.916-.056-1.912-.234-2.212-.395-.589-.315-10.444-.416-10.75-.111m-68.652 1.446c-.223.341-.645 1.248-.939 2.016-1.122 2.936-2.683 6.591-2.927 6.854-.14.15-.254.502-.254.783 0 .28-.25.999-.556 1.598-.305.599-1.286 2.885-2.18 5.081a480 480 0 0 1-2.629 6.335 142 142 0 0 0-1.226 2.92 35 35 0 0 1-.848 1.872c-.344.712-.626 1.416-.625 1.564 0 .148-.591 1.638-1.315 3.312l-1.72 3.983c-.223.517-.595 1.359-.828 1.872-1.012 2.226-2.184 5.197-2.184 5.534 0 .202-.201.533-.447.737-.248.206-.408.701-.36 1.115l.087.745 7.602.077c8.673.088 8.744.072 9.073-1.987.108-.676.301-1.365.428-1.531.128-.167.458-1.015.734-1.887.878-2.77.161-2.591 10.385-2.591 8.2 0 9.019.044 9.407.504.414.491 2.268 5.916 2.26 6.613-.01.808 1.261.946 8.737.946 8.941 0 9.142-.04 8.267-1.66-.365-.678-1.174-2.53-2.606-5.971a376 376 0 0 0-1.577-3.744c-1.108-2.529-1.486-3.435-2.648-6.336-.699-1.742-1.388-3.426-1.532-3.743-.985-2.162-1.446-3.333-1.446-3.671 0-.214-.116-.513-.258-.663s-.607-1.181-1.031-2.29c-.724-1.889-2.464-6.029-3.631-8.639a88 88 0 0 1-.985-2.304 96 96 0 0 0-.722-1.728c-.139-.317-.526-1.224-.86-2.016s-.722-1.699-.862-2.015-.336-.868-.435-1.224c-.254-.904-.41-.92-10.191-1.004-8.679-.076-8.756-.071-9.158.543m-113.419-.115c-.075.198-.104 10.727-.063 23.398l.075 23.038 7.569.077c4.891.049 7.769-.031 8.135-.226.795-.425.903-46.168.111-46.472-.956-.367-15.682-.195-15.827.185m35.199-.175c-.378.379-.234 46.028.147 46.409.492.492 14.944.492 15.436 0 .253-.253.345-2.623.345-8.869s.093-8.617.346-8.87c1.147-1.147 5.499.153 6.952 2.077 1.205 1.594 2.782 3.903 2.782 4.073 0 .092.292.579.648 1.083s.803 1.176.992 1.493c.372.625 2.975 4.815 4.542 7.313 1.347 2.147.784 2.037 10.457 2.042 9.592.004 9.719-.021 8.491-1.683-.544-.735-4.612-7.473-5.071-8.397-.248-.5-.593-1.059-1.863-3.019-1.83-2.822-5.272-5.903-6.595-5.903-.753 0-1.81-.469-1.81-.803.001-.395 2.457-1.744 3.542-1.945.601-.111 1.256-.364 1.454-.562s.755-.564 1.239-.814c7.444-3.85 7.224-18.086-.332-21.468-2.804-1.255-2.796-1.253-6.047-1.826-1.94-.342-35.334-.652-35.655-.331m156.605 9.411c.475.264 1.012.48 1.193.481 1.557.009 4.249 3.961 5.198 7.633 1.704 6.597-.644 17.909-3.103 14.946-1.178-1.42-6.132-3.94-7.482-3.807-.836.082-1.06.315-2.034 2.108-1.464 2.699-1.462 2.707 1.122 3.957 2.809 1.359 3.668 2.017 3.432 2.63-.242.632-4.445.635-6.101.005a32 32 0 0 0-1.728-.606c-.884-.257-3.614-2.671-3.97-3.511-.174-.411-.476-.941-.669-1.179-.194-.237-.484-1.08-.645-1.872a60 60 0 0 0-.593-2.591c-.38-1.455-.393-7.71-.02-9.144.155-.594.395-1.525.535-2.07.691-2.698 3.549-6.212 5.438-6.686a7.7 7.7 0 0 0 1.489-.59c1.061-.577 6.748-.365 7.938.296m-126.952 1.521c2.913 2.356 2.544 4.628-1.054 6.491-1.651.855-11.872 1.058-12.387.246-.424-.666-.358-7.009.076-7.448.273-.275 1.8-.342 6.31-.273l5.949.09zm59.025 2.961c.105.572.366 1.296.581 1.609.216.312.392.745.392.961 0 .4 2.265 6.401 3.009 7.974 1.386 2.925 1.305 2.976-4.887 3.045-5.718.064-5.973-.038-5.257-2.089.239-.684 1.305-3.835 2.368-7.003 1.064-3.167 2.071-5.924 2.24-6.126.458-.553 1.32.35 1.554 1.629M89.273 483.305c0 .203.174.624.386.936s.875 1.475 1.471 2.584c2.601 4.837 9.074 15.917 10.936 18.719.527.791 1.894 2.93 3.038 4.751s2.321 3.636 2.616 4.032 1.154 1.627 1.91 2.736c5.273 7.724 14.482 19.598 20.77 26.781 6.793 7.761 17.674 18.768 23.513 23.786 1.226 1.054 1.352 1.168 3.494 3.156 1.331 1.236 4.379 3.752 6.706 5.535.573.439 1.236.96 1.474 1.157 2.858 2.368 11.936 8.948 15.38 11.147.372.237 1.372.904 2.223 1.48s2.843 1.789 4.427 2.694c1.584.906 3.009 1.746 3.168 1.866 1.359 1.036 8.33 4.327 9.164 4.327 1.186 0 8.968-3.993 13.73-7.044 1.876-1.203 9.348-6.186 11.087-7.395 4.675-3.249 14.442-10.892 17.577-13.754.798-.729 1.899-1.709 2.448-2.178 6.387-5.466 20.136-19.381 25.233-25.537 10.165-12.28 12.762-15.625 18.793-24.21 4.063-5.783 8.948-13.31 12.202-18.802 2.924-4.937 7.116-12.236 7.116-12.392 0-.098.525-1.077 1.167-2.176s1.088-2.126.991-2.282c-.29-.469-221.02-.385-221.02.083"/><path fill="#e12125" d="M40.173 224.499c-.989.747-1.325 43.121-.47 59.302.784 14.842 1.864 28.924 2.927 38.157.155 1.347.475 4.262.711 6.48.236 2.217.556 4.55.711 5.183.156.634.285 1.8.288 2.592s.257 2.865.563 4.608c.307 1.742.858 5.155 1.225 7.584s.74 4.534.829 4.678c.27.443 305.583.35 305.864-.093.126-.199.235-.751.241-1.226s.147-1.447.313-2.16.484-2.657.707-4.32c.898-6.691 1.043-7.746 1.458-10.596.237-1.63.613-4.611.836-6.623s.537-4.825.699-6.251c.747-6.568 1.463-14.252 1.46-15.658-.002-.851.186-3.572.418-6.047.407-4.336.665-9.289 1.34-25.667.324-7.876.175-47.969-.183-49.137-.103-.337-.507-.758-.897-.936-1.234-.562-318.294-.433-319.04.13"/><path fill="#fff" d="M69.337 136.121c-1.798.131-2.737.877-2.259 1.792.628 1.204.827 11.391.329 16.875-.523 5.759-3.625 16.634-5.504 19.294-.112.158-.755 1.325-1.429 2.592-3.483 6.548-9.645 13.429-16.125 18.007-2.065 1.46-8.945 4.952-10.548 5.354a8.4 8.4 0 0 0-1.528.584c-.407.212-1.193.462-1.747.555-.555.094-1.592.346-2.304.561-1.636.495-5.885.999-8.424 1-2.868.001-2.958.143-3.193 5.046-1.129 23.542-.015 69.125 2.249 92.003.227 2.297.485 5.148.574 6.336.144 1.925.563 5.677 1.611 14.398.18 1.505.441 3.838.579 5.184s.444 3.744.679 5.328c.236 1.583.7 4.758 1.031 7.055 1.666 11.539 4.003 24.855 6.066 34.557.32 1.505.783 3.708 1.029 4.896.55 2.649 1.729 7.703 2.252 9.647.213.792.474 1.958.579 2.592.106.633.368 1.735.584 2.448.405 1.342.771 2.755 1.412 5.471.206.871.515 2.102.686 2.736l1.052 3.888a670 670 0 0 0 2.365 8.351 956 956 0 0 1 1.992 6.961c.202.74.49 1.583.64 1.872.149.289.359 1.007.464 1.594s.382 1.43.613 1.872.42 1.039.421 1.327c.001.287.151.803.335 1.145.183.342.429 1.014.547 1.493.279 1.136 2.507 7.52 3.032 8.69.224.499.407 1.116.407 1.371 0 .256.129.69.286.965s.462 1.018.677 1.652c.585 1.721 2.718 7.514 3.552 9.647 1.496 3.824 1.645 4.2 2.109 5.327.26.634.703 1.736.983 2.448.28.713.682 1.685.893 2.16s.995 2.29 1.743 4.032a373 373 0 0 0 2.008 4.607l2.723 6.048c2.351 5.223 10.174 20.972 10.656 21.454.079.079.849 1.505 1.709 3.168s2.031 3.801 2.6 4.752 1.194 2.051 1.389 2.447c.665 1.351 3.078 5.336 8.368 13.823 2.051 3.291 6.182 9.573 7.954 12.095 7.986 11.37 13.997 19.239 20.566 26.926l3.444 4.032c7.964 9.344 22.437 23.652 32.171 31.803 4.263 3.57 4.074 3.412 6.083 5.125.978.834 1.862 1.517 1.965 1.517s.348.162.546.36c1.072 1.07 9.179 7.021 13.482 9.897 2.104 1.407 3.956 2.662 4.115 2.791.916.74 8.025 5.12 10.397 6.407.776.42 2.382 1.293 3.57 1.94 8.13 4.425 7.718 4.342 11.671 2.375 3.043-1.513 4.569-2.335 8.919-4.801 3.913-2.217 8.833-5.288 9.516-5.938.208-.198.457-.36.554-.36.423 0 8.622-5.838 16.159-11.505 1.612-1.213 9.056-7.322 10.92-8.963.475-.419 1.965-1.715 3.312-2.881 6.621-5.733 20.887-20.132 26.976-27.227.822-.958 3.006-3.531 4.229-4.981.612-.725 1.389-1.645 1.728-2.044 2.654-3.125 7.618-9.497 12.85-16.496 2.364-3.161 8.971-12.823 11.954-17.48a359 359 0 0 1 2.146-3.312c.42-.633.856-1.346.969-1.584.113-.237.431-.78.706-1.206.847-1.31 6.292-10.43 6.501-10.889.108-.237.474-.885.812-1.439.606-.992 1.543-2.7 3.59-6.55.569-1.07 1.618-3.037 2.33-4.371 2.403-4.497 9.298-18.494 9.298-18.873 0-.055.502-1.181 1.115-2.503a343 343 0 0 0 2.91-6.58 468 468 0 0 1 2.319-5.328c.288-.633.982-2.318 1.542-3.744.56-1.425 1.173-2.98 1.363-3.455s.561-1.447.827-2.16 1.038-2.722 1.715-4.464 1.937-5.241 2.8-7.775 1.686-4.867 1.83-5.184c.311-.684 1.411-3.96 1.741-5.183.128-.476.693-2.16 1.256-3.744s1.025-3.074 1.028-3.312c.002-.237.179-.768.394-1.178.214-.411.481-1.234.592-1.829.112-.596.374-1.491.584-1.989.209-.499.532-1.49.718-2.203.558-2.136 1.06-3.967 2.253-8.208a459 459 0 0 0 1.922-7.055l1.163-4.464c.206-.792.648-2.441.982-3.665s.608-2.544.608-2.933.145-1.072.323-1.518c.177-.446.493-1.588.702-2.539.395-1.802.682-3.061 1.578-6.911.294-1.267.619-2.822.721-3.456s.36-1.8.572-2.592.535-2.282.717-3.311c.353-2.001.421-2.361 1.721-9.216.966-5.092 2.38-13.623 3.032-18.286 1.122-8.035 1.951-14.178 2.585-19.151.397-3.114.557-4.606 1.295-12.095.164-1.663.488-4.838.721-7.055.233-2.218.498-5.198.589-6.624.092-1.425.35-4.795.575-7.487s.541-7.876.702-11.519.435-9.151.608-12.239c.365-6.484.461-47.618.131-55.684-.278-6.792.046-6.356-4.935-6.632-4.864-.271-9.2-1.131-11.825-2.347-.499-.231-1.059-.42-1.245-.42-.622 0-7.042-3.28-8.934-4.564-10.971-7.446-18.841-18.6-22.282-31.577-1.149-4.336-1.349-5.512-1.798-10.592-.445-5.035-.445-5.781-.001-10.799.448-5.074.447-5.412-.016-5.751-.388-.284-9.022-.361-40.825-.367-22.184-.004-80.831-.052-130.327-.106-49.496-.055-90.735-.045-91.642.021m218.64 16.065c10.169 1.457 16.828 6.688 19.807 15.561 1.189 3.542 1.164 14.775-.039 17.817-1.061 2.683-2.833 6.229-3.111 6.229-.288 0-1.106 1.563-1.106 2.112 0 .228.486.641 1.08.919s1.404.729 1.799 1.003c.396.274 1.044.59 1.44.702 2.801.797 3.171 1.564 1.769 3.673-.453.681-1.263 2.051-1.8 3.044-1.523 2.819-2.085 2.708-9.566-1.878-3.223-1.977-4.785-2.525-5.215-1.83-.087.141-.646.331-1.241.421-.594.09-1.988.32-3.097.513-2.586.448-12.105.462-14.543.022-14.739-2.662-21.833-12.191-20.487-27.52.94-10.71 8.046-18.543 18.471-20.361 1.03-.18 2.261-.435 2.736-.567.949-.264 11.033-.156 13.103.14m-178.179.981c.414.415.273 46.183-.144 46.447-.553.351-15.702.303-15.921-.051-.296-.479-.179-46.109.119-46.469.308-.372 15.57-.303 15.946.073m116.116-.148c.197.075.958 1.605 1.694 3.4.735 1.795 1.53 3.631 1.767 4.079.237.449.431.943.431 1.098s.312.955.693 1.777c.381.821.966 2.142 1.3 2.934.333.792.799 1.806 1.034 2.255.236.448.428.999.428 1.225 0 .225.26.893.576 1.484.317.591.576 1.277.576 1.525s.118.574.262.725c.145.15 1.258 2.735 2.474 5.745 1.217 3.009 2.452 5.99 2.745 6.623.294.634 1.086 2.513 1.76 4.176s1.395 3.279 1.6 3.592c.206.312.375.771.375 1.019s.451 1.316 1.002 2.374c1.545 2.962 1.965 2.806-7.562 2.806-8.956 0-9.279-.057-9.279-1.643 0-.379-.191-1.058-.424-1.509s-.511-1.363-.617-2.028-.51-1.586-.898-2.046l-.704-.837h-8.703c-10.261 0-9.342-.337-10.805 3.963-1.544 4.536-.516 4.1-9.675 4.1-8.925 0-8.711.064-7.481-2.247.395-.741.718-1.508.718-1.703 0-.194.314-1.038.697-1.874 1.999-4.357 2.524-5.602 2.669-6.327.087-.437.338-.943.556-1.125.219-.181.398-.489.398-.685 0-.302.763-2.194 3.083-7.637.236-.555.676-1.535.977-2.179s.547-1.259.547-1.367.373-1.007.829-1.997 1.505-3.485 2.332-5.544c1.987-4.946 3.655-8.94 4.344-10.399.307-.651.559-1.366.559-1.589s.306-.857.681-1.408l.681-1.003 9.002.055c4.951.03 9.162.116 9.358.192m-61.047.425c.95.174 2.214.4 2.808.502s1.079.28 1.079.396.486.357 1.08.536c5.679 1.713 8.602 10.525 5.593 16.86-.772 1.625-3.795 5.08-4.444 5.08-.138 0-.676.324-1.195.72s-1.323.72-1.786.72c-.97 0-3.079 1.319-2.912 1.821.112.338.781.602 2.322.916 1.973.402 5.083 4.337 9.895 12.519 1.349 2.294 2.69 4.472 2.981 4.842 1.154 1.466.957 1.5-8.814 1.5h-9.026l-.706-.936a24 24 0 0 1-1.239-1.84 238 238 0 0 0-2.7-4.423 371 371 0 0 1-3.413-5.57c-2.231-3.733-4.737-5.662-7.357-5.662-2.247 0-2.224-.102-2.159 9.504.047 6.908-.014 8.457-.342 8.665-.538.341-15.438.337-15.649-.004-.217-.352-.214-46.062.004-46.415.241-.39 33.752-.14 35.98.269m112.311 9.113c-.792.381-1.573.7-1.736.709-1.219.069-4.137 3.976-4.741 6.35l-.555 2.162c-.921 3.565.043 10.888 1.877 14.257 1.777 3.264 6.915 5.519 10.88 4.775 1.193-.224 1.392-.895.394-1.33-.356-.156-1.425-.729-2.375-1.275-.951-.546-1.959-.999-2.241-1.006-.58-.016-.94-.696-.656-1.238 2.243-4.285 2.33-4.395 3.447-4.326 1.719.105 5.549 2.084 7.593 3.923l.656.59.729-.729c2.476-2.476 2.591-12.852.199-18.069-2.081-4.54-8.933-6.978-13.471-4.793m-131.39.626c-.356.077-.659.228-.673.336-.191 1.505-.047 6.86.194 7.189.563.77 11.221.367 12.585-.476 3.109-1.921 3.286-4.294.466-6.248l-1.219-.845-5.352-.048c-2.944-.026-5.644.015-6.001.092m70.062 2.476c-.063.198-1.095 3.312-2.295 6.919-2.925 8.8-3.246 7.984 3.148 7.984 5.945 0 6.087-.104 4.607-3.339-.396-.866-.72-1.736-.72-1.933s-.177-.615-.395-.928c-.217-.312-.491-1.021-.609-1.576-.118-.554-.342-1.166-.497-1.36-.156-.193-.391-.776-.522-1.295-.865-3.423-2.3-5.785-2.717-4.472m143.363 58.71c.39.178.794.599.897.936.358 1.168.507 41.261.183 49.137-.675 16.378-.933 21.331-1.34 25.667-.232 2.475-.42 5.196-.418 6.047.003 1.406-.713 9.09-1.46 15.658-.162 1.426-.476 4.239-.699 6.251a240 240 0 0 1-.836 6.623c-.415 2.85-.56 3.905-1.458 10.596-.223 1.663-.541 3.607-.707 4.32s-.306 1.685-.313 2.16c-.006.475-.115 1.027-.241 1.226-.281.443-305.594.536-305.864.093-.089-.144-.461-2.25-.829-4.678a389 389 0 0 0-1.225-7.584c-.306-1.743-.559-3.816-.563-4.608s-.132-1.958-.288-2.592c-.155-.633-.475-2.966-.711-5.183a968 968 0 0 0-.711-6.48c-1.063-9.233-2.143-23.315-2.927-38.157-.855-16.181-.519-58.555.47-59.302.746-.563 317.806-.692 319.04-.13m-96.866 155.945c.524.499.808 5.458.339 5.928-.616.615-1.744-.018-2.047-1.148-1.156-4.314-.305-6.695 1.708-4.78m-1.308.66c.091.147.18.93.199 1.739.021.949.147 1.43.355 1.357.177-.063.294-.36.261-.66a58 58 0 0 1-.144-1.624c-.05-.655-.231-1.08-.46-1.08-.207 0-.302.12-.211.268m-56.064 4.473c.477.401.955.73 1.061.73.107 0 .606.309 1.111.688.504.378 1.661 1.024 2.572 1.436 1.641.741 2.253 1.793 1.364 2.342-1.394.862-1.412 1.135-1.448 21.29-.026 14.349.05 19.011.312 19.327.904 1.089 4.177.253 5.816-1.484 1.072-1.137 1.481-.956 1.906.841.495 2.088 1.179 4.275 2.358 7.54.477 1.321.938 3.084 1.337 5.114.324 1.646.284 1.653-9.557 1.653-7.141 0-9.066-.079-9.319-.383-.338-.408-.514-59.846-.178-60.389.206-.334 1.443.267 2.665 1.295m87.982-.483c2.263 1.647 4.227 2.839 5.747 3.488 1.636.699 1.668.963.36 2.949l-1.008 1.53v18.847c0 21.345-.166 19.899 2.282 19.899 1.369 0 2.722-.688 4.39-2.231.984-.911 1.271-.708 1.506 1.061.105.789.299 1.502.432 1.584s.329.695.436 1.362c.106.666.36 1.609.563 2.094 1.263 3.014 2.428 7.786 2.107 8.624-.269.701-18.76.711-19.028.01-.24-.624-.223-59.876.017-60.116.343-.343.674-.208 2.196.899m-121.877.825c.357.737 1.262 2.14 2.011 3.118 1.436 1.873 1.374 2.454-.262 2.454-.585 0-1.216.595-7.53 7.108-7.59 7.828-13.859 14.472-18.291 19.386-.929 1.029-1.775 1.936-1.879 2.015-.654.495-.894 1.522-.458 1.959.407.406 1.93.419 15.32.129 16.624-.36 15.729-.223 16.087-2.461.339-2.122 3.272-5.664 4.7-5.676.119-.001 1.247-.515 2.509-1.142 3.33-1.657 3.61-1.681 4.941-.425.614.579 1.466 1.233 1.894 1.454 2.608 1.349 4.563 3.13 5.255 4.785.598 1.432.678 24.857.087 25.657-.335.454-3.416.493-44.677.559-39.045.063-44.345.123-44.555.503-.131.238-.645 1.331-1.142 2.43-2.54 5.614-6.386 8.218-12.145 8.223-3.482.004-2.907-1.251 1.787-3.898 5.607-3.162 5.54-12.015-.162-21.479-.538-.892-.977-1.829-.977-2.083 0-.43 2.457-1.911 3.17-1.911.17 0 .466-.132.657-.293.192-.161 1.255-.879 2.364-1.595l2.016-1.301.15 1.954c.299 3.907 2.01 5.39 7.075 6.131 3.026.442 9.366.283 10.01-.252.872-.725.653-4.248-.388-6.227-.871-1.656-.898-2.161-.115-2.161.532 0 3.314-1.999 4.917-3.534 2.025-1.939 2.109-1.737 2.109 5.051 0 4.17.099 5.955.346 6.201.264.264 7.495.346 30.792.346h30.447l.586-.745c1.272-1.617.582-9.194-.953-10.468-1.533-1.272-2.441.252-2.583 4.334-.094 2.705-.199 3.303-.631 3.62-.672.491-47.486.567-47.789.078-.102-.166-.242-1.977-.31-4.026l-.124-3.724 1.085-1.23c5.648-6.405 32.909-34.06 33.673-34.16.184-.024.626.559.983 1.296m112.573 29.486c.008 19.146-.086 28.416-.29 28.798-.372.695-43.595.908-44.285.218-.514-.515-.458-9.877.079-12.954 1.109-6.36 3.45-8.664 8.863-8.725 1.702-.019 3.208-.157 3.347-.308.482-.526.606-3.681.174-4.449-.521-.928-.536-2.211-.029-2.506.218-.127 1.482-1.25 2.808-2.497 2.981-2.802 4.18-3.735 4.526-3.521.156.096.288 4.422.315 10.308.053 11.575-.112 10.887 2.61 10.887 3.011 0 2.824 1.722 2.879-26.573.002-.597 5.989-5.925 6.696-5.959.119-.005.216 7.156.216 15.915 0 17.9-.184 16.617 2.381 16.617 3.104 0 2.803 2.037 2.803-18.968v-18.372l3.096-3.07c1.702-1.689 3.254-3.072 3.448-3.073.275-.001.354 6.174.363 28.232m-12.546-26.67c1.313 3.436-3.141 6.649-6.374 4.6-.999-.633-1.93-.485-3.787.603-2.267 1.329-4.325 1.398-6.573.221-2.537-1.328-2.879-2.875-.443-2.001 2.549.913 5.481.285 7.118-1.527 1.083-1.198 1.454-1.233 3.205-.299 2.766 1.477 4.129 1.001 5.526-1.929.588-1.233.746-1.194 1.328.332M248.3 428.094c-1.79 1.254.177 3.629 2.134 2.575 1.171-.63 1.294-.949.809-2.102-.446-1.062-1.793-1.278-2.943-.473M118.624 449.99c1.4 1.177 1.278 3.188-.258 4.238-1.064.729-1.973.602-2.916-.407-2.261-2.421.66-5.947 3.174-3.831m191.815 33.365c0 .387-.451 1.473-1.003 2.414s-1.14 2.017-1.308 2.392c-.168.374-.462.939-.653 1.256s-.968 1.677-1.727 3.024c-2.317 4.11-2.83 4.984-3.806 6.479a48 48 0 0 0-1.571 2.592 49 49 0 0 1-1.4 2.357c-.424.663-1.148 1.83-1.609 2.592-1.378 2.28-5.193 7.967-8.321 12.406a1714 1714 0 0 0-3.361 4.781c-9.157 13.219-26.296 32.313-39.584 44.099-1.25 1.108-2.932 2.606-3.738 3.327-3.619 3.241-11.157 9.152-16.44 12.891a959 959 0 0 0-4.032 2.863c-.921.682-7.203 4.77-8.782 5.716l-2.352 1.408c-3.531 2.113-10.054 5.328-10.805 5.326-1.049-.004-5.309-2.146-12.368-6.219-2.879-1.662-4.335-2.598-8.457-5.437a322 322 0 0 0-3.888-2.643c-3.23-2.126-14.529-10.93-17.711-13.798-.554-.5-2.433-2.175-4.175-3.722-5.514-4.898-15.011-14.392-19.877-19.871-1.406-1.584-2.628-2.944-2.715-3.024-.087-.079-.868-.986-1.735-2.015s-1.645-1.937-1.729-2.016c-2.741-2.59-16.566-21.101-21.721-29.086-4.309-6.674-9.593-15.384-12.404-20.446-.923-1.663-2.165-3.89-2.761-4.949-1.389-2.471-1.556-3.011-1.022-3.309.233-.131 50.066-.205 110.74-.165l110.315.073z"/><path fill="#25844b" d="M67.369 136.376c-.307.327-.558.712-.558.856 0 .143.201-.027.448-.379.369-.527.723-.64 1.999-.64.853 0 1.61-.097 1.684-.216.346-.56-3.027-.202-3.573.379m49.738-.379c.074.119 1.22.216 2.547.216s2.474-.097 2.548-.216-1.073-.216-2.548-.216c-1.474 0-2.62.097-2.547.216m22.85 0c0 .119.583.216 1.296.216.712 0 1.296-.097 1.296-.216s-.584-.216-1.296-.216-1.296.097-1.296.216m192.128.55c.264.212.546.645.628.962.086.336.126.217.096-.286-.037-.613-.218-.89-.628-.961-.525-.092-.533-.067-.096.285m-265.081 2.114c.218 1.423.384 1.666.378.552-.002-.462-.128-1.034-.28-1.272-.187-.294-.219-.065-.098.72m.135 2.88c0 .316.111.835.248 1.152l.247.576v-.576c0-.317-.111-.836-.247-1.152l-.248-.576zm264.965 1.296c0 .554.06.781.132.504a2.4 2.4 0 0 0 0-1.008c-.072-.278-.132-.051-.132.504m-.163 2.207c-.265.266-.243 5.214.024 5.379.119.074.216-1.15.216-2.718s-.01-2.853-.024-2.853c-.013 0-.11.087-.216.192m.163 7.872c0 .554.06.781.132.504a2.4 2.4 0 0 0 0-1.008c-.072-.277-.132-.051-.132.504m-264.809-.178a3 3 0 0 0-.178.993q.019.477.296-.215c.153-.382.233-.829.179-.993s-.188-.067-.297.215m-.258 3.633c-.07.476-.019.864.112.864.13 0 .238-.388.238-.864 0-.475-.05-.863-.112-.863-.061 0-.168.388-.238.863m265.7 2.448c.113.475.329.991.481 1.146s.123-.17-.064-.72c-.436-1.29-.681-1.54-.417-.426m-187.788 8.208c0 1.188.051 1.674.113 1.08s.062-1.566 0-2.16-.113-.108-.113 1.08m-80.538-.096c-.106.105-.184.462-.174.792.017.551.041.544.294-.09.282-.705.224-1.046-.12-.702m-1.647 4.599c-.159.418-.236.814-.17.879s.256-.277.425-.76c.374-1.074.148-1.18-.255-.119m92.528-.561c.277.072.73.072 1.007 0 .278-.073.051-.132-.503-.132-.555 0-.782.059-.504.132m-7.187.304c1.235.054 3.179.053 4.32-.001 1.141-.055.131-.099-2.245-.099-2.376.001-3.309.045-2.075.1m189.953 3.478c.175.327.46.683.633.79.226.139.225.026-.003-.4-.175-.327-.46-.683-.633-.79-.226-.139-.225-.026.003.4M57.87 180.298c-.457.854-.225.909.387.091.284-.38.386-.691.226-.691s-.436.27-.613.6m284.107.92c.278.441.578.729.667.64.088-.088-.139-.449-.506-.8l-.667-.64zm-288.333 4.599c-.691.893-.682 1.163.017.526.422-.384.767-.74.767-.792 0-.238-.535-.057-.784.266m224.358.072c-.222.577.076 1.297.535 1.292.276-.004.268-.069-.033-.259-.235-.149-.335-.505-.243-.859.182-.694-.01-.822-.259-.174m69.298 1.962c0 .05.409.471.908.936l.907.846-.673-.936c-.562-.78-1.142-1.21-1.142-.846m-298.952 3.438c-.338.644-.336.645.278.099.687-.609.749-.747.34-.747-.153 0-.431.291-.618.648m302.408-.393c0 .317.835 1.022 1.006.85.071-.07-.127-.347-.439-.614s-.567-.373-.567-.236m-303.987 1.515c-.545.613-.544.615.083.286.7-.367 1.131-.904.726-.904-.143 0-.507.278-.809.618m-1.269 1.075c0 .139-.388.414-.864.61-.475.197-.864.476-.864.621 0 .144-.291.379-.647.522s-.487.269-.289.279c.342.017 3.24-1.923 3.24-2.168 0-.065-.129-.117-.288-.117s-.288.113-.288.253m-45.13 1.33c.003.792.058 1.082.125.644.066-.437.064-1.085-.004-1.439-.069-.355-.123.003-.121.795m356.456.641c-.012.194.399.57.913.836.862.446.905.446.541.008-.217-.262-.563-.477-.768-.477a.61.61 0 0 1-.518-.36c-.111-.276-.15-.277-.168-.007m1.993 1.183c0 .116.389.442.864.722.475.281.863.406.862.278-.001-.127-.389-.453-.864-.722-.474-.27-.862-.395-.862-.278m-323.435 2.543c-.361.438-.333.447.325.105.966-.502 1.038-.584.515-.584-.244 0-.622.216-.84.479m-4.076 1.426c-.097.098-.605.29-1.128.427-.935.246-.932.248.165.123 1.127-.128 1.548-.319 1.284-.583-.079-.079-.223-.064-.321.033m-6.686 1.551-.576.247.576.016c.317.009.77-.11 1.008-.263.572-.37-.147-.37-1.008 0m349.316 0c.098.158.462.279.809.268.608-.02.61-.03.055-.268-.793-.341-1.074-.341-.864 0m-353.42.494a6.4 6.4 0 0 0 1.584 0c.436-.066.079-.12-.792-.12s-1.227.054-.792.12m362.545 3.825c-.007 1.347.085 2.7.206 3.008s.169-.599.107-2.016c-.152-3.501-.297-3.959-.313-.992m-366.548.288c0 1.347.05 1.898.111 1.224.06-.673.06-1.774 0-2.447-.061-.674-.111-.123-.111 1.223m366.898 12.959c0 2.455.044 3.46.098 2.232a62 62 0 0 0 0-4.463c-.054-1.228-.098-.224-.098 2.231m-367.388 1.935c-.099.599-.161 2.32-.139 3.825l.041 2.736.213-3.744c.221-3.899.19-4.661-.115-2.817m367.371 5.121c.001 1.267.052 1.749.113 1.072.06-.677.06-1.714-.002-2.304s-.112-.035-.111 1.232m.255 7.658a592 592 0 0 1-.192 9.359l-.126 4.005.269-3.744c.148-2.059.234-6.27.192-9.359l-.078-5.615zM15.879 246.369c.043 2.057.164 4.193.268 4.747s.125-1.066.045-3.6-.201-4.67-.268-4.746c-.068-.077-.088 1.543-.045 3.599M.361 249.82c.003.634.062.859.131.501.069-.359.066-.877-.006-1.152-.072-.276-.129.017-.125.651m383.042 2.304c0 1.584.049 2.195.107 1.358s.058-2.133-.001-2.88-.107-.062-.106 1.522m-.297 11.951c0 1.188.051 1.674.113 1.08s.062-1.566 0-2.16-.113-.108-.113 1.08m-366.609.432c.002.792.058 1.082.124.644.067-.438.065-1.086-.004-1.44-.068-.354-.122.004-.12.796m.3 4.607c.001 1.109.053 1.527.116.93.062-.598.061-1.505-.002-2.016-.064-.511-.115-.022-.114 1.086m366.068-.719c-.109.497-.134.969-.054 1.049.079.079.233-.264.342-.761.11-.498.134-.97.055-1.05-.079-.079-.233.264-.343.762m-381.646.863c0 .555.059.782.131.504.073-.277.073-.73 0-1.008-.072-.277-.131-.05-.131.504m15.541 3.456c0 .396.104 1.044.231 1.44l.23.72v-.72a5.7 5.7 0 0 0-.23-1.44l-.231-.72zm365.853.155c-.099.258-.165.879-.148 1.381.027.794.064.747.282-.366.257-1.31.186-1.849-.134-1.015m-.375 9.06c0 1.03.052 1.451.116.936a9 9 0 0 0 0-1.871c-.064-.515-.116-.094-.116.935m-380.15-.144c.004.634.063.859.132.501.068-.358.066-.877-.006-1.152s-.129.018-.126.651m15.263.576c.003.634.062.859.131.501s.067-.877-.006-1.152c-.072-.275-.128.018-.125.651m.288 3.744c.003.634.062.859.131.501.069-.359.067-.877-.006-1.152-.072-.276-.128.018-.125.651m364.252 2.064a4.7 4.7 0 0 1-.22.864c-.145.41-.106.454.171.198.197-.181.296-.569.22-.863s-.153-.384-.171-.199M2.947 292.585c0 .554.059.781.131.504a2.35 2.35 0 0 0 0-1.008c-.072-.278-.131-.051-.131.504m378.417.72c.002.791.058 1.081.124.644.066-.438.065-1.086-.004-1.44-.068-.355-.122.004-.12.796m-.191 2.89c-.099.258-.164.944-.146 1.525.032.972.053.942.273-.375.246-1.47.19-1.976-.127-1.15m-362.676 2.149c0 .554.06.781.132.504a2.4 2.4 0 0 0 0-1.008c-.072-.277-.132-.05-.132.504m.242 3.943c.065.747.515 1.382.535.754.011-.347-.109-.711-.268-.809-.158-.098-.278-.073-.267.055m361.583 2.297c-.106.105-.175.786-.154 1.512l.039 1.319.207-1.439c.221-1.533.211-1.695-.092-1.392m-360.955 2.831c.003.634.062.859.131.501s.066-.877-.006-1.152-.128.018-.125.651m-.064 1.872c0 .238.126.627.279.864.249.384.28.384.28 0 0-.237-.126-.626-.28-.864-.248-.384-.279-.384-.279 0m360.683.288c-.109.341-.132.684-.053.764s.232-.135.341-.476c.108-.34.131-.684.052-.763s-.232.135-.34.475m-359.605 7.416c.166 1.671.306 1.793.331.288.012-.753-.081-1.368-.208-1.368-.126 0-.182.486-.123 1.08m.859 7.127c.076.396.187.72.248.72s.11-.324.11-.72-.111-.72-.248-.72c-.136 0-.186.324-.11.72m.095 2.304c-.009.317.11.77.263 1.008.37.572.37-.147 0-1.008l-.247-.576zm355.406 9.647c0 .554.059.781.131.504a2.35 2.35 0 0 0 0-1.008c-.072-.277-.131-.05-.131.504m-.858 5.616c.003.633.062.858.131.5.068-.358.066-.876-.006-1.152s-.129.018-.125.652M23.634 343.18c.065.747.516 1.381.536.753.011-.347-.11-.711-.268-.808s-.279-.074-.268.055m1.109 5.776c.138.994.158 1.014.253.253.057-.455-.011-.941-.15-1.08-.144-.145-.188.208-.103.827m4.339 23.673c.151.525.361 1.035.467 1.132.292.267-.176-1.51-.479-1.819-.151-.155-.146.135.012.687m341.29-.37a4.8 4.8 0 0 1-.22.864c-.145.409-.106.453.171.198.197-.181.295-.57.22-.864-.076-.294-.153-.383-.171-.198m-1.649 7.418c-.087.226-.11.712-.051 1.08.079.492.146.383.253-.411.151-1.118.071-1.382-.202-.669m-108.409.484c-.358.669-.208 2.944.325 4.933.303 1.13 1.431 1.763 2.047 1.148.469-.47.185-5.429-.339-5.928-.82-.78-1.663-.844-2.033-.153m1.396 1.625c.045.594.11 1.325.144 1.624s-.084.597-.261.66c-.208.073-.334-.408-.355-1.357-.019-.809-.108-1.592-.199-1.739s.004-.268.211-.268c.229 0 .41.425.46 1.08m-59.4 2.366c-.336.543-.16 59.981.178 60.389.253.304 2.178.383 9.319.383 9.841 0 9.881-.007 9.557-1.653-.399-2.03-.86-3.793-1.337-5.114-1.179-3.265-1.863-5.452-2.358-7.54-.425-1.797-.834-1.978-1.906-.841-1.639 1.737-4.912 2.573-5.816 1.484-.262-.316-.338-4.978-.312-19.327.036-20.155.054-20.428 1.448-21.29.889-.549.277-1.601-1.364-2.342-.911-.412-2.068-1.058-2.572-1.436-.505-.379-1.004-.688-1.111-.688s-.584-.329-1.061-.73c-1.222-1.028-2.459-1.629-2.665-1.295m88.451-.087c-.24.24-.257 59.492-.017 60.116.268.701 18.759.691 19.028-.01.321-.838-.844-5.61-2.107-8.624-.203-.485-.457-1.428-.563-2.094-.107-.667-.303-1.28-.436-1.362s-.327-.795-.432-1.584c-.235-1.769-.522-1.972-1.506-1.061-1.668 1.543-3.021 2.231-4.39 2.231-2.448 0-2.282 1.446-2.282-19.899v-18.847l1.008-1.53c1.308-1.986 1.276-2.25-.36-2.949-1.52-.649-3.484-1.841-5.747-3.488-1.522-1.107-1.853-1.242-2.196-.899m-258.83 1.311c.133.8.173.84.264.264.059-.375-.012-.8-.157-.945-.159-.16-.202.109-.107.681m126.133 10.852c-10.154 10.147-17.806 18.078-21.64 22.425l-1.085 1.23.124 3.724c.068 2.049.208 3.86.31 4.026.303.489 47.117.413 47.789-.078.432-.317.537-.915.631-3.62.142-4.082 1.05-5.606 2.583-4.334 1.535 1.274 2.225 8.851.953 10.468l-.586.745h-30.447c-23.297 0-30.528-.082-30.792-.346-.247-.246-.346-2.031-.346-6.201 0-6.788-.084-6.99-2.109-5.051-1.603 1.535-4.385 3.534-4.917 3.534-.783 0-.756.505.115 2.161 1.041 1.979 1.26 5.502.388 6.227-.644.535-6.984.694-10.01.252-5.065-.741-6.776-2.224-7.075-6.131l-.15-1.954-2.016 1.301c-1.109.716-2.172 1.434-2.364 1.595s-.487.293-.657.293c-.713 0-3.17 1.481-3.17 1.911 0 .254.439 1.191.977 2.083 5.702 9.464 5.769 18.317.162 21.479-4.694 2.647-5.269 3.902-1.787 3.898 5.759-.005 9.605-2.609 12.145-8.223.497-1.099 1.011-2.192 1.142-2.43.21-.38 5.51-.44 44.555-.503 41.261-.066 44.342-.105 44.677-.559.591-.8.511-24.225-.087-25.657-.692-1.655-2.647-3.436-5.255-4.785-.428-.221-1.28-.875-1.894-1.454-1.331-1.256-1.611-1.232-4.941.425-1.262.627-2.39 1.141-2.509 1.142-1.428.012-4.361 3.554-4.7 5.676-.358 2.238.537 2.101-16.087 2.461-13.39.29-14.913.277-15.32-.129-.436-.437-.196-1.464.458-1.959.104-.079.95-.986 1.879-2.015 4.432-4.914 10.701-11.558 18.291-19.386 6.314-6.513 6.945-7.108 7.53-7.108 1.636 0 1.698-.581.262-2.454-.749-.978-1.654-2.381-2.011-3.118s-.799-1.32-.983-1.296-5.599 5.305-12.033 11.735m121.778-6.112-3.096 3.07v18.372c0 21.005.301 18.968-2.803 18.968-2.565 0-2.381 1.283-2.381-16.617 0-8.759-.097-15.92-.216-15.915-.707.034-6.694 5.362-6.696 5.959-.055 28.295.132 26.573-2.879 26.573-2.722 0-2.557.688-2.61-10.887-.027-5.886-.159-10.212-.315-10.308-.346-.214-1.545.719-4.526 3.521-1.326 1.247-2.59 2.37-2.808 2.497-.507.295-.492 1.578.029 2.506.432.768.308 3.923-.174 4.449-.139.151-1.645.289-3.347.308-5.413.061-7.754 2.365-8.863 8.725-.537 3.077-.593 12.439-.079 12.954.69.69 43.913.477 44.285-.218.467-.873.395-57.033-.073-57.03-.194.001-1.746 1.384-3.448 3.073m87.041-2.811c0 .146-.087.491-.193.768-.122.316-.081.433.109.316.398-.246.68-1.348.345-1.348a.263.263 0 0 0-.261.264m-97.104.968c-1.397 2.93-2.76 3.406-5.526 1.929-1.751-.934-2.122-.899-3.205.299-1.637 1.812-4.569 2.44-7.118 1.527-2.436-.874-2.094.673.443 2.001 2.248 1.177 4.306 1.108 6.573-.221 1.857-1.088 2.788-1.236 3.787-.603 3.233 2.049 7.687-1.164 6.374-4.6-.582-1.526-.74-1.565-1.328-.332m-236.037 3.952c.015.748.468 1.977.478 1.296a3.4 3.4 0 0 0-.239-1.152c-.151-.353-.244-.409-.239-.144m3.442 13.829c.436 1.29.681 1.54.417.425-.113-.475-.329-.99-.48-1.145-.152-.155-.123.169.063.72m323.643 4.904c-.174.325-.276.787-.226 1.026.05.24.233-.026.407-.591.356-1.153.29-1.314-.181-.435m-.996 3.531c-.617 1.477-.518 1.697.174.387.321-.609.511-1.18.423-1.268s-.357.308-.597.881m-319.14 3.923c.342.941.667 1.665.723 1.609.17-.17-.901-3.318-1.13-3.318-.119 0 .064.769.407 1.709m.978 3.039c.263.552.53.953.592.89.132-.131-.742-1.895-.939-1.895-.073 0 .084.452.347 1.005m209.574 7.116c.485 1.153.362 1.472-.809 2.102-1.299.7-2.774.016-2.774-1.286 0-1.826 2.882-2.482 3.583-.816m100.387 11.155c-.365.682-.382.968-.045.76.254-.157.65-1.317.45-1.317-.059 0-.241.251-.405.557m-300.935 7.703c-.017.513.56 1.92.721 1.759.078-.078-.051-.582-.284-1.12-.234-.539-.431-.826-.437-.639m65.483 2.097c-1.644.665-2.024 2.911-.728 4.299.943 1.009 1.852 1.136 2.916.407 2.554-1.747.645-5.853-2.188-4.706m-64.329 1.475c.177.33.379.543.449.473.201-.202-.207-1.074-.503-1.074-.147 0-.123.27.054.601m295.326.587c-.261.653-.408 1.254-.327 1.336.082.081.281-.227.444-.684s.427-1.059.587-1.336.173-.504.031-.504c-.143 0-.473.535-.735 1.188m-294.754.54c0 .237.125.626.279.864.248.384.279.384.279 0 0-.238-.126-.627-.279-.864-.248-.384-.279-.384-.279 0m.587 1.584c0 .158.185.612.412 1.008s.411.59.411.432c0-.159-.185-.612-.411-1.008-.227-.396-.412-.591-.412-.432m1.002 2.762c.253.49.514.837.58.771.175-.175-.555-1.657-.818-1.659-.123-.001-.016.398.238.888m291.327-.172c-.18.397-.217.721-.08.721.239 0 .67-1.181.495-1.356-.047-.047-.234.239-.415.635m-1.061 2.737c-.245.475-.382.864-.302.864.079 0 .345-.389.59-.864.246-.475.382-.864.303-.864s-.345.389-.591.864M60.528 471.85c.18.396.434.72.563.72.13 0 .088-.324-.092-.72-.181-.396-.434-.72-.564-.72s-.088.324.093.72m3.286 7.056c.382.792.752 1.44.822 1.44s-.142-.648-.471-1.44c-.33-.792-.699-1.44-.822-1.44s.089.648.471 1.44m25.582 3.83c-.226.126-.409.386-.407.576.004.256.064.252.234-.015.183-.289 22.457-.346 110.722-.288 60.772.04 110.494-.025 110.494-.143 0-.291-220.522-.421-221.043-.13m-.091 1.212c.285.744 1.801 3.3 1.899 3.201.061-.06-.298-.806-.797-1.657-.888-1.513-1.324-2.125-1.102-1.544m219.895 1.721c-.586 1.018-1.062 1.953-1.06 2.079s.526-.663 1.162-1.753 1.113-2.026 1.059-2.079c-.053-.054-.576.735-1.161 1.753m-241.809.62c-.002.181.262.634.588 1.008.465.534.529.557.297.104-.499-.977-.88-1.455-.885-1.112m264.07.968c-.338.664-.558 1.265-.488 1.336.071.07.4-.421.732-1.092s.552-1.272.488-1.336c-.063-.064-.393.428-.732 1.092m-239.032 2.448c.678 1.267 1.365 2.433 1.528 2.592.162.158-.261-.749-.94-2.016-.68-1.267-1.367-2.434-1.528-2.592-.16-.158.263.749.94 2.016m-22.777.936c.128.277.411.925.63 1.44s.502.936.628.936c.127 0-.098-.648-.5-1.44-.673-1.329-1.285-2.085-.758-.936m235.474 2.448c-.738 1.306-1.157 2.181-.931 1.943.486-.51 2.613-4.319 2.412-4.319-.076 0-.742 1.069-1.481 2.376m-210.869-.144c1.889 3.332 2.869 4.967 2.977 4.967.075 0 .081-.097.014-.216-1.889-3.332-2.869-4.967-2.978-4.967-.074 0-.08.097-.013.216m-21.808 2.951c.277 1.045.68 1.73.678 1.152-.001-.237-.196-.756-.435-1.152l-.434-.72zm230.389 1.079a86 86 0 0 1-1.369 2.305c-.322.515-.522.936-.444.936.248 0 2.855-4.351 2.7-4.506-.057-.058-.457.512-.887 1.265m23.78-.359c-.18.396-.233.719-.118.718s.36-.325.543-.72.236-.718.118-.718-.362.324-.543.72M97.94 499.191c.333.564.66 1.025.728 1.025.205 0-.73-1.678-1.042-1.871-.16-.099-.019.282.314.846m1.611 2.753c.445.792 1.051 1.732 1.347 2.088l.538.648-.418-.72-1.214-2.088c-.437-.752-.855-1.368-.928-1.368s.231.648.675 1.44m-23.931.144c.26.396.519.72.577.72s-.043-.324-.223-.72c-.181-.396-.44-.72-.577-.72s-.036.324.223.72m222.752 2.321c-.333.564-.474.944-.314.846.312-.193 1.247-1.871 1.042-1.871-.068 0-.395.461-.728 1.025m-195.35 3.006c1.783 2.934 3.832 6.048 3.979 6.048.074 0-.218-.551-.647-1.224s-1.475-2.325-2.324-3.672-1.679-2.577-1.845-2.735c-.166-.159.211.554.837 1.583m-24.692-.722c0 .398.862 1.801 1.341 2.183.36.288.323.161-.125-.42-.352-.456-.64-1-.64-1.206 0-.207-.13-.457-.288-.555-.159-.097-.288-.099-.288-.002m218.108.794c-.991 1.682-1.056 1.826-.551 1.224.585-.697 1.089-1.584.9-1.584-.075 0-.232.162-.349.36m-2.306 3.6c-.592.911-1.198 1.818-1.347 2.016s-.197.36-.107.36.648-.745 1.239-1.656 1.198-1.818 1.347-2.016.197-.36.107-.36-.648.745-1.239 1.656m-212.006 2.232c.18.396.44.72.576.72.137 0 .036-.324-.223-.72-.26-.396-.519-.72-.577-.72s.043.324.224.72m26.467 2.52c.515.752.983 1.368 1.041 1.368.196 0-.457-1.003-1.219-1.872-.574-.654-.53-.532.178.504m182.264.072c-.491.712-.827 1.296-.748 1.296s.545-.584 1.036-1.296c.49-.713.827-1.296.747-1.296s-.545.583-1.035 1.296m-205.861 2.16c.166.475.422.863.569.863s.066-.388-.18-.863c-.246-.476-.501-.864-.568-.864s.014.388.179.864m26.906 2.663c.594.832 1.333 1.771 1.643 2.088s-.11-.363-.934-1.512c-.824-1.148-1.564-2.088-1.644-2.088s.341.681.935 1.512m175.199.576c-.824 1.149-1.244 1.829-.934 1.512.718-.734 2.77-3.6 2.578-3.6-.08 0-.82.94-1.644 2.088m24.225 1.613c-.47.879-.373 1.123.15.377.254-.363.394-.727.312-.809s-.29.112-.462.432m-196.698 1.483c1.176 1.736 4.058 5.472 4.221 5.472.086 0 .029-.162-.126-.36a493 493 0 0 1-2.229-2.952c-2.07-2.757-2.995-3.828-1.866-2.16m169.993.36c-.317.356-1.678 2.138-3.026 3.96-1.347 1.821-4.213 5.45-6.368 8.063a1828 1828 0 0 0-4.97 6.048l-1.053 1.295 1.22-1.295c1.886-2.004 8.675-10.359 11.992-14.759 2.819-3.741 3.513-4.782 2.205-3.312m25.239.432c-.592 1.005-.596 1.044-.057.557.49-.442 1.06-1.637.782-1.637-.049 0-.375.486-.725 1.08m-3.147 4.765c-.217.349-.583.926-.815 1.283s-.343.647-.248.647c.248 0 1.731-2.29 1.581-2.44-.069-.069-.302.161-.518.51m-212.257 2.645c0 .096.276.46.612.809l.611.636-.325-.632c-.321-.625-.898-1.147-.898-.813m26.81.581c1.42 1.855 6.035 7.375 6.983 8.352.615.633-.598-.922-2.696-3.456-3.395-4.102-5.65-6.678-4.287-4.896m-25.14 1.87c.27.475.596.863.726.864.129.001-.041-.387-.38-.862-.79-1.11-.978-1.111-.346-.002m2.128 3.026c.344.396.67.72.725.72s-.114-.324-.373-.72c-.26-.396-.586-.72-.725-.72s.029.324.373.72m199.793 4.231-.648.953.79-.811c.434-.446.726-.875.648-.953s-.434.287-.79.811m-30.098 3.184-1.138 1.224 1.224-1.138c.673-.626 1.223-1.177 1.223-1.224 0-.218-.25 0-1.309 1.138m-134.583 1.942c1.17 1.345 4.006 4.376 6.303 6.734l4.556 4.682c.209.216.459.393.555.393s-1.633-1.846-3.842-4.103-4.671-4.817-5.471-5.688c-3.008-3.277-4.151-4.375-2.101-2.018m-29.536-1.647c.078.201.43.542.783.757.613.374.61.357-.056-.366-.779-.846-.933-.929-.727-.391m161.348 2.729c-2.864 3.089-7.87 8.27-8.087 8.371-.118.055-.216.221-.216.369s1.594-1.386 3.542-3.408c4.778-4.958 6.653-6.988 6.459-6.988-.09 0-.854.745-1.698 1.656m-154.307 6.374c0 .141.357.483.792.762l.792.507-.698-.762c-.755-.823-.886-.898-.886-.507m144.357 3.849c-.527.681-.762 1.293-.305.792.217-.237.577-.594.799-.792.224-.199.266-.36.094-.36-.17 0-.435.162-.588.36m-107.708 3.345c3.378 3.241 10.237 9.362 10.662 9.514.177.063-.384-.508-1.248-1.27s-1.635-1.463-1.714-1.556c-.08-.094-.663-.611-1.296-1.15-1.824-1.552-7.084-6.428-7.873-7.299-.395-.435-.824-.792-.955-.792-.13 0 .96 1.149 2.424 2.553m136.116-1.496-.699.769.783-.553c.431-.304.787-.65.792-.769.015-.354-.143-.255-.876.553m-167.999-.115c.078.202.43.543.783.758.613.374.61.357-.056-.366-.779-.846-.933-.929-.727-.392m135.335 2.448c-2.48 2.388-5.269 4.929-8.896 8.105-1.522 1.333-2.767 2.489-2.767 2.57 0 .145.236-.052 3.042-2.546.802-.712 2.292-2.032 3.312-2.932 3.734-3.297 7.785-7.149 7.51-7.142-.102.003-1.092.878-2.201 1.945m-133.99-.751c.062.185.429.535.816.779l.705.444-.699-.779c-.753-.841-.998-.973-.822-.444m1.923 2.169c.318.627.851 1.102 1.019.909.048-.056-.234-.425-.626-.821-.652-.658-.686-.666-.393-.088m1.772 1.96c.46.635 1.996 2.16 2.176 2.16.247 0 .062-.217-1.24-1.452-.745-.707-1.166-1.025-.936-.708m157.653.432c-.456.475-.683.864-.506.864s.599-.389.938-.864c.338-.476.565-.864.505-.864s-.482.388-.937.864m-155.076 2.342c0 .086.518.701 1.152 1.367s1.152 1.102 1.152.969-.518-.748-1.152-1.367c-.634-.618-1.152-1.054-1.152-.969m151.62 1.401c-.455.476-.745.864-.643.864.209 0 1.651-1.395 1.651-1.597 0-.258-.193-.118-1.008.733m-148.403 2.16c2.087 2.382 3.971 4.288 3.976 4.025.004-.162-1.06-1.328-2.363-2.592-1.304-1.263-2.03-1.908-1.613-1.433m32.492-.311c0 .072 1.005.945 2.232 1.941 1.228.995 2.053 1.585 1.833 1.31-.447-.561-4.065-3.454-4.065-3.251m112.015 2.389c-1.025 1.063-1.545 1.679-1.156 1.368 1.122-.899 3.416-3.302 3.15-3.302-.072 0-.969.87-1.994 1.934m-35.236 1.515c-2.69 2.198-4.924 4.193-3.201 2.857 1.947-1.508 6.48-5.237 6.48-5.33 0-.2-.106-.12-3.279 2.473m-72.068-.058c.112.179 1.851 1.582 3.865 3.117a1201 1201 0 0 1 4.023 3.073c.198.154.36.21.36.124s-1.328-1.162-2.952-2.391-3.016-2.31-3.095-2.4c-.365-.418-2.379-1.813-2.201-1.523m66.708 4.264c-1.59 1.257-2.182 1.871-1.008 1.046 1.153-.812 2.627-2.055 2.447-2.064-.079-.004-.727.454-1.439 1.018m-4.32 3.131c-3.053 2.187-4.019 3.077-1.44 1.328 2.196-1.49 4.005-2.879 3.744-2.876-.079 0-1.116.697-2.304 1.548m-52.506.18c.357.433 2.11 1.535 2.11 1.328 0-.067-.551-.485-1.224-.929s-1.072-.624-.886-.399m-35.305.745c1.226 1.349 2.921 2.976 3.1 2.976.095 0-.662-.842-1.682-1.872-1.849-1.865-2.745-2.563-1.418-1.104m121.936.96c-.618.634-1.028 1.152-.911 1.152.118 0 .722-.518 1.343-1.152s1.031-1.152.911-1.152-.724.519-1.343 1.152m-84.118-.046c.098.158 1.181.962 2.407 1.787s2.035 1.307 1.798 1.071c-.629-.624-4.414-3.197-4.205-2.858m41.354 4.075c-3.338 2.205-4.755 3.238-3.312 2.415 1.33-.76 6.479-4.189 6.479-4.316 0-.189-.053-.157-3.167 1.901m-35.804-.201c.448.363 1.203.889 1.678 1.169l.864.509-.72-.581c-1.525-1.23-2.258-1.757-2.443-1.757-.106 0 .174.297.621.66m-38.336-.006c.077.201.43.542.783.758.613.373.61.356-.056-.366-.779-.846-.933-.929-.727-.392m41.022 1.749c0 .116 1.439.977 5.76 3.448.554.317.878.438.72.27-.159-.169-1.584-1.048-3.168-1.954s-2.977-1.703-3.096-1.772-.216-.065-.216.008m-37.888 1.197c.571.554 1.126 1.008 1.233 1.008s-.244-.454-.782-1.008c-.537-.555-1.092-1.008-1.233-1.008s.211.453.782 1.008m65.102 1.008c-.475.314-.734.57-.576.567.289-.004 1.855-1.127 1.584-1.135-.079-.003-.533.253-1.008.568m-62.176 1.583c.259.396.609.72.776.72s.001-.324-.371-.72-.722-.72-.777-.72.112.324.372.72m100.606.016c-.38.405-.497.662-.26.571.375-.144 1.307-1.307 1.048-1.307-.053 0-.408.332-.788.736m-41.814.293c-1.076.584-1.011.827.072.267.476-.245.864-.508.864-.583 0-.185-.031-.175-.936.316m-57.336.851c.093.242.445.584.783.759.565.294.558.259-.084-.44-.803-.873-.935-.933-.699-.319m41.57-.307c0 .079.518.408 1.152.731.633.324 1.151.523 1.151.444s-.518-.408-1.151-.732c-.634-.323-1.152-.523-1.152-.443m-39.779 1.795c.348.668.857 1.093 1.064.886.068-.068-.218-.437-.634-.821-.723-.664-.743-.667-.43-.065m46.909 1.732c.359.069.877.066 1.152-.006.276-.072-.017-.128-.651-.125s-.859.062-.501.131m44.417.72c-.554.477-.748.733-.431.569.924-.48 1.738-1.146 1.583-1.297-.079-.077-.597.251-1.152.728m-87.832.348c0 .303.867 1.124 1.023.968.073-.072-.128-.367-.446-.654s-.577-.429-.577-.314m1.727 1.44c0 .303.868 1.124 1.024.968.072-.072-.128-.367-.446-.655-.318-.287-.578-.428-.578-.313m83.371.454c-.287.318-.428.578-.313.578.303 0 1.124-.868.968-1.024-.072-.072-.367.128-.655.446m-7.057 5.365c-1.473 1.152-2.12 1.77-1.434 1.371 1.277-.744 2.874-1.946 2.874-2.165 0-.338.026-.352-1.44.794m-66.653 1.625c.14.364 1.858 1.539 1.858 1.27 0-.07-.451-.471-1.003-.892-.551-.42-.936-.591-.855-.378m4.162 3.047c0 .124.454.442 1.008.706.555.264 1.008.431 1.008.37s-.453-.379-1.008-.706-1.008-.493-1.008-.37m53.49 1.747c-1.077.69-1.234.876-.602.71.619-.163 2.111-1.255 1.684-1.234-.158.008-.645.244-1.082.524m-50.034.548c0 .137.324.396.72.576.396.181.72.281.72.224s-.324-.317-.72-.577-.72-.36-.72-.223m45.565 2.401c-1.701 1.077-.796.855 1.063-.26.066-.04.063-.13-.007-.2s-.546.137-1.056.46m-6.36 3.997q-.678.565-.261.566c.231 0 .654-.259.941-.576.667-.737.209-.731-.68.01m-7.4 4.142c-.307.225-.482.485-.389.578s.404-.091.692-.408c.612-.676.486-.746-.303-.17m-13.537.426c.107.173.462.458.789.633.426.228.54.229.4.003-.107-.173-.462-.458-.789-.633-.426-.228-.54-.229-.4-.003m10.89.957c-.892.43-.823.868.072.46.396-.18.72-.436.72-.569 0-.284.034-.289-.792.109m-2.232 1.108c-.475.305-.69.554-.478.555.213.001.716-.257 1.119-.574.924-.727.504-.714-.641.019m-4.176.11c0 .079.389.345.864.591.475.245.864.382.864.303s-.389-.346-.864-.591c-.475-.246-.864-.382-.864-.303"/></g></svg>