<svg xmlns="http://www.w3.org/2000/svg" width="440.947" height="566.2" viewBox="0 0 330.71 424.65"><defs><clipPath id="a"><path d="M0 0h330.71v424.648H0Zm0 0"/></clipPath></defs><g clip-path="url(#a)"><path d="M173.734 419.875c47.336-24.266 86.696-54.527 113.996-93.656 28.122-40.313 42.985-85.996 42.985-132.137V.004H0v194.078c0 46.14 14.863 91.824 42.992 132.137 27.29 39.129 66.653 69.39 113.988 93.656l8.649 4.773" style="stroke:none;fill-rule:nonzero;fill:#fff;fill-opacity:1"/></g><path d="M15.027 78.48h300.66V15.027H15.027Zm0 0" style="stroke:none;fill-rule:nonzero;fill:#010202;fill-opacity:1"/><path d="M102.094 49.07c0 2.828-.364 4.774-1.117 5.942-.778 1.226-2.055 1.84-3.797 1.84-1.735 0-3.008-.614-3.785-1.84-.75-1.168-1.114-3.114-1.114-5.942v-4.93c0-2.828.364-4.773 1.114-5.949.777-1.218 2.058-1.832 3.785-1.832 1.742 0 3.02.614 3.797 1.832.753 1.176 1.117 3.121 1.117 5.95ZM113.3 35.227c-.969-2.364-2.274-4.29-3.883-5.727-1.61-1.445-3.484-2.48-5.586-3.105a23.4 23.4 0 0 0-6.652-.942c-2.282 0-4.52.313-6.64.942-2.099.625-3.985 1.66-5.587 3.105-1.605 1.445-2.914 3.363-3.879 5.727-.98 2.367-1.472 5.367-1.472 8.914v4.93c0 3.542.492 6.542 1.472 8.913.965 2.36 2.274 4.29 3.88 5.727 1.6 1.441 3.487 2.48 5.585 3.102 4.238 1.253 9.047 1.253 13.293 0a14.4 14.4 0 0 0 5.586-3.102c1.61-1.438 2.914-3.367 3.883-5.727.976-2.37 1.469-5.37 1.469-8.914v-4.93c0-3.546-.493-6.546-1.47-8.913M142.547 40.293c0 .863-.34 1.66-.996 2.36-.676.726-1.774 1.074-3.348 1.074h-4.676v-7.993h4.676c1.559 0 2.64.286 3.313.868.683.593 1.03 1.46 1.03 2.558Zm13.851 25.89-8.058-15.175.422-.184c.726-.328 1.468-.797 2.215-1.39a10.3 10.3 0 0 0 2.015-2.2c.606-.87 1.106-1.902 1.485-3.058.382-1.16.574-2.485.574-3.938v-1.133c0-2.601-.418-4.796-1.23-6.52-.821-1.71-2.005-3.112-3.544-4.155-1.558-1.059-3.468-1.828-5.691-2.285-2.25-.457-4.809-.692-7.602-.692-.976 0-2.082.02-3.3.05-1.211.036-2.43.099-3.625.177-1.184.066-2.274.144-3.258.222-.973.078-1.707.149-2.184.227a9.4 9.4 0 0 0-1.812.422c-.434.164-.79.398-1.04.703-.257.3-.449.707-.562 1.2-.121.534-.187 1.218-.187 2.05v35.988c0 .184.074.328.23.477a.72.72 0 0 0 .527.222h11.051c.184 0 .34-.066.485-.214.148-.149.218-.293.218-.485v-13.73h2.508l6.863 13.531q.21.414.442.734c.027.035.164.164.71.164h11.887c.157 0 .29-.05.418-.171.122-.102.172-.235.172-.415a.9.9 0 0 0-.129-.421M183.508 49.184c0 1.52-.086 2.8-.262 3.804-.18 1.035-.492 1.875-.914 2.489a3.64 3.64 0 0 1-1.836 1.359c-.726.23-1.605.363-2.629.363h-2.93V36.012h2.93q1.538 0 2.63.363c.76.262 1.386.71 1.835 1.348.422.625.734 1.465.914 2.5.176 1.004.262 2.28.262 3.804Zm11.344-13.657c-.872-2.343-2.125-4.28-3.711-5.75-1.59-1.48-3.528-2.578-5.758-3.27-2.246-.698-4.781-1.054-7.516-1.054-3.031 0-5.68.106-7.867.305a84 84 0 0 0-5.941.762c-.586.093-1.02.273-1.27.535-.164.156-.355.543-.355 1.468v36.165c0 .925.191 1.312.355 1.468.25.258.684.434 1.262.535 1.754.297 3.754.555 5.949.754 2.188.207 4.836.309 7.867.309 2.735 0 5.27-.352 7.516-1.055 2.23-.691 4.168-1.789 5.758-3.265 1.586-1.473 2.84-3.407 3.71-5.75.883-2.356 1.333-5.215 1.333-8.5v-5.157c0-3.285-.45-6.148-1.332-8.5M215.148 50.176l2.176-13.68a2.7 2.7 0 0 1 .176-.648c.121-.285.398-.457.762-.457.36 0 .636.172.77.457.066.172.128.379.163.64v.008l2.176 13.68Zm21.84 16.422-6.742-34.2c-.285-1.359-.762-2.5-1.402-3.39a7.1 7.1 0 0 0-2.43-2.11c-.992-.52-2.18-.902-3.52-1.117-1.367-.215-2.921-.328-4.632-.328-1.703 0-3.27.113-4.637.328-1.34.215-2.531.598-3.555 1.117a6.95 6.95 0 0 0-2.445 2.11c-.64.883-1.098 2.023-1.352 3.39l-6.734 34.18c-.07.27-.016.406.035.484.059.106.242.133.39.133h11.786c.18 0 .32-.062.441-.199.164-.176.266-.375.329-.605l1.07-6.668h9.347l1.075 6.703c.05.195.152.394.316.57.133.137.27.2.453.2h11.785c.137 0 .329-.028.387-.133.043-.079.106-.215.035-.465M277.785 26.23a.66.66 0 0 0-.492-.214h-10.418a.66.66 0 0 0-.492.214.65.65 0 0 0-.207.485V42.78c0 .305-.028.649-.278.817-.242.164-.582.172-.867.023-.164-.078-.308-.258-.515-.621l-9.512-15.61a4 4 0 0 0-.781-1.011c-.258-.242-.586-.363-1.004-.363h-9.293c-.406 0-.762.156-1.082.468-.313.309-.465.664-.465 1.078v38.93c0 .184.066.328.223.477a.74.74 0 0 0 .527.226h10.324c.192 0 .356-.07.52-.226.156-.149.234-.293.234-.477V50.875c0-.871.543-.941.707-.941.356 0 .668.226.945.656l9.391 15.566c.172.305.387.555.64.762.231.187.493.277.81.277h9.738c.414 0 .769-.156 1.09-.468.32-.32.468-.676.468-1.082v-38.93c0-.188-.07-.336-.21-.485M72.54 26.684a.67.67 0 0 0-.22-.497.64.64 0 0 0-.492-.207l-11.137.028a.75.75 0 0 0-.527.222c-.164.149-.234.297-.234.485L60 56.46c0 .832-.098 1.36-.305 1.672-.23.351-.691.535-1.383.535l-4.886.008a.67.67 0 0 0-.492.219.66.66 0 0 0-.215.492l.015 7.644c0 .172.063.293.192.406.172.145.39.25.629.31.808.12 3.902.206 5.226.25l.371.01q1.815.05 3.063.052c1.547-.008 2.98-.215 4.27-.621 1.253-.403 2.35-1.047 3.242-1.93.902-.883 1.609-2.074 2.117-3.535.511-1.496.761-3.356.761-5.535" style="stroke:none;fill-rule:nonzero;fill:#fff;fill-opacity:1"/><path d="M71.465 307.3c-23.078-33.085-35.281-70.44-35.281-108.027V93.508H15.03v105.765c0 41.946 13.512 83.48 39.086 120.13 24.809 35.57 60.594 63.081 103.625 85.14v-21.125c-35.652-19.926-65.304-46.055-86.277-76.117" style="stroke:none;fill-rule:nonzero;fill:#010202;fill-opacity:1"/><path d="M294.531 93.508v105.765c0 37.586-12.203 74.942-35.277 108.028-20.973 30.062-50.625 56.191-86.277 76.117v21.125c43.03-22.059 78.812-49.57 103.632-85.14 25.567-36.65 39.079-78.184 39.079-120.13V93.508" style="stroke:none;fill-rule:nonzero;fill:#0d8048;fill-opacity:1"/><path d="M51.207 93.508v111.23c0 66.29 43.043 127.992 114.148 163.63 71.11-35.638 114.153-97.34 114.153-163.63V93.508" style="stroke:none;fill-rule:nonzero;fill:#c10a2f;fill-opacity:1"/><path d="m165.355 157.016 14.258 25.972 29.196-5.047-11.418 27.34 22.148 19.68-28.492 8.117-1.574 29.586-24.118-17.215-24.113 17.215-1.574-29.586-28.492-8.117 22.148-19.68-11.418-27.34 29.196 5.047" style="stroke:none;fill-rule:nonzero;fill:#fff;fill-opacity:1"/></svg>