<svg xmlns="http://www.w3.org/2000/svg" width="270.837" height="369.226" viewBox="0 0 341 465.1"><path fill="#3a544c" d="M15.5 376.6h17.6V358h12.1C16.3 325.2.7 287.8 0 244.9s12.3-81.6 40.9-113.5c53.7-59.8 119.7-73.3 195.4-47.8 15.3-25 20.3-52.9 18.6-83.6 15.4 17.1 30.2 33 40.7 52.8-1 3.9-2.1 8-3.2 12.3 5.2 11.3 9.8 22.9 13 35.3-1 1.7-2 3.6-3.2 5.8 2 10.1 3.4 20.4 3.9 30.9.1 1.6.9 2.8 1.8 4 47.9 65.2 43 154.4-10 214.2-.5.6-1 1.2-2 2.6h11.9v18.7h17.7v88.5h-310zm67.9-222.9c-.2-.5-.5-.9-1-.3.1.3.2.6.4.9 2.6 4.8 5.3 9.5 7.9 14.3-17.5 19.6-26.6 42.3-28.3 68.2-5.7 1.5-16.5 5-16.5 5.3 5.5 1.5 11 3 16.6 4.5q2.4 39.3 28.2 68.1c-2.7 4.8-5.1 9.3-7.6 13.8-.2.4-.4.7-.9 1.5.9-.3 10.9-5.8 15.5-8.4 13.9 12.6 29.8 20.8 47.5 25.4-3.5 19.8 9.4 35.6 28.4 33.6 4.5-.5 8.7-2.3 12.3-5 9.6-7.6 12-17.5 9.7-28.7 18.2-4.6 33.9-13 47.6-25.3 5 2.9 14.8 8.2 15.1 8-2.8-4.8-5.3-9.9-8.2-14.8 17.5-19.5 26.7-42.2 28.3-68.2 5.7-1.6 11.1-3.1 17.9-5-6.9-1.9-12.4-3.3-17.9-4.8-.6-8.3-1.9-16.1-3.7-23.6 5.2-10.5 8.8-21.2 11.6-32.2 1.7-1 3.3-1.9 4.8-2.8 3-11.7 3.5-23.5 4-35.2 1.5-1.2 2.7-2.3 4-3.4-.3-12.2-1.9-24.1-4.7-35.6 1.1-1.8 2.1-3.3 3.1-4.9-3-12.1-7.6-23.4-13-34.2.9-4.4 2.9-8.2 2.9-12.5-7-12.1-15.2-23-25.6-33.8-.2 4.3-.2 7.2-.5 10.2-4.7 47.4-27.8 82.1-70.9 103.1-5.2 2.5-10.2 1.9-15.2 1.2-2.1-4.8-2.1-10-5.1-15.4-1.6 5.8-3 10.7-4.4 15.6-26.1 1.5-48.7 11-68 28.1zm52.7 198.4c-14.9-4.7-28.2-12.2-40.2-22-10.5 6.1-31.4 17.4-31.6 17.1l18-30.9c-12.1-14.7-20.3-30.9-24.4-49.1-.2-.8-.3-1.9-.9-2.3-5.4-3.7-5.6-8.4-2.3-13.8-11.9-3.1-34.5-9.7-34.4-9.9 11.5-3 22.9-6 34.5-9.1-3.3-6.7-3.2-8.4 1.5-12.9 1.3-1.3 1.6-2.8 2-4.4q6-24.9 21.9-45c.8-1 2-1.8 1.9-3.4-5.8-10-16.9-30.7-16.6-31L96 153.2c15.1-12.5 32.1-20.9 51-24.9 4.9-5.7 7-6.1 14.2-2.9 3-11.2 9.5-33.3 9.8-33.3 2.9 11.1 5.8 22.1 8.9 33.9 3.4-3.4 7.1-2.7 10.8-2 16-8.3 29.8-19.1 40.7-33.8-57.9-24-136.6-13.3-187 47.7-23.6 28.6-36.2 61.6-37.2 98.7-.3 12.7.4 34.6 9 59.8C28.1 331 48.5 353.6 60.5 365H40.3v18.9H22.5V458h295.7v-74.2h-17.6V365h-22.3c31.4-29.1 49.5-63.6 54.6-105 4.6-37.6-12-100.2-31-113.2-.6 12.6-1.6 24.8-4.7 36.5-1.9 1.2-3.6 2.3-5.3 3.4-2.4 9.3-5.8 18.2-9 25.7-1 5.5 3 7.1 4.6 10 2 3.5-.1 6.6-1.2 9.9 11.6 3.1 22.9 6 34.1 9v.9l-34.2 9c2.6 6.1 3 8.8.1 11.3-2.9 2.4-3.5 5.4-4.4 8.6-2 7.6-4.7 14.9-8.2 22-4.1 8.4-9.4 16.1-15.3 23.4 6.1 10.5 12.1 20.7 18.1 31-.3.3-21.3-11.2-31.8-17.4-12 10.1-25.6 17.4-40.2 22.2-1.6 22.4-14.8 36.4-33.8 36.6-19.2.1-32.5-13.8-34.6-36.8"/><path fill="#3a544c" d="M59.7 428.6c5.7-10.8 11-20.6 16.2-30.4h11.5v49.3H75.9c-.1-3.6-.2-7.3-.3-11v-10.8c-4.1 7.3-8.2 14.5-12.2 21.8h-7.6c-3.7-7-11.8-21.2-12.1-21.1v20.7H31.8v-49.2c1.8 0 3.7-.1 5.6 0 2 0 4 .1 5.9.2 5.3 9.9 10.6 19.8 16.4 30.5m-20.3 14.3v-33.6c2.5 4.2 5 8.6 7.5 13 4.2 7.3 8.1 14.6 11.9 21.7h1.5c6.4-11.5 12.9-23.1 19.3-34.6.2 11.2.3 22.4.5 33.7h3.2v-40.5h-2.1c-1 0-1.9.1-2.8.2-6.2 11.9-12.4 23.8-18.7 35.7-6.3-12.1-12.7-24.1-19-36.2h-2.4c-.8 0-1.6 0-2.4.1 0 13.5.1 27 .1 40.6h1.7c.5-.1 1.1-.1 1.7-.1M105.6 409.9v6.7h26.6v11.9h-26.5v7.4h28.7v11.6H93.6v-49.1h40.3V410c-9.5-.1-18.9-.1-28.3-.1m-7.8-7.6v41.1H130c0-.6-.1-1.1-.1-1.7v-1.6c-9.5 0-19 0-28.4-.1v-16h27.6c0-1 .1-1.9.1-2.9-4.6-.1-9.2-.2-13.8-.2-4.7-.1-9.3-.1-13.9-.1v-15.2h27.6v-3.4h-15.6c-2.3.1-13.3.1-15.7.1"/><path fill="#f33946" d="M292.4 307.4c3.8.7 6.7 1.2 10.1 1.9-6.3 12.5-14.4 23.4-23.9 33.7l-4.6-7.1c5.1-6.2 10.5-12.3 14.7-19.5l-9.7-2.5c9.2-14.6 16-30 19.4-46.9l8.7 5c2.4-7.5 2.4-15.4 3.6-23.2l8.1-2.2c0 13.8-2.6 26.7-6.6 39.6l-8.6-5c-3 8.7-6.4 17.4-11.2 26.2"/><path fill="#0a9841" d="M51.6 167.1c3.7.6 6.6 1.1 10.3 1.8-9.3 14.8-15.8 30.3-19.3 47.5-3.1-2.1-5.6-3.8-8.5-5.8-2.4 8-2.6 15.9-3.6 24.2-2.8.6-5.7 1.3-8.5 1.9.3-5.3.8-11.1 1.8-17.3 1.3-8.5 3.2-16 5.2-22.6 1.5.8 5.7 3.2 8.4 5 1.7-4.5 3.2-8.9 4.9-13.2s3.7-8.5 5.8-13.2c-3.3-.6-6.3-1.2-9.7-1.8 6.3-12.7 14.2-23.7 24-34.2 1.6 2.7 2.9 4.9 4.4 7.4-5.3 6.5-10.6 12.6-15.2 20.3M97.2 133.6c-.7-3.9-1.2-6.8-1.8-10.2-7.2 3.9-12.9 9.2-19.2 14.1-2.3-1.4-4.6-2.7-7.4-4.3 10-9.4 20.7-17.1 33-23.5.6 3.4 1.2 6.4 1.9 10 8.5-4.4 17-8.1 26.3-11.1-2.1-2.9-3.8-5.4-5.9-8.3 13.6-4.7 27.3-6.8 41.5-7.5-.3 1.4-.6 2.9-.9 4.3s-.6 2.7-.8 4c-8.4.8-16.9 1.5-25.6 3.9 1.9 2.8 3.7 5.3 5.8 8.4-16.8 4.1-32.2 10.4-46.9 20.2M67.1 335.6c-1.4 2.4-2.7 4.6-4 6.7-6.4-4.3-20.3-23.6-23.9-33.1 3-.6 6-1.2 9.4-1.8-4.2-8.6-8-17.1-10.8-26.1-3.5.6-5.1 3.8-8.6 5-4.3-12.8-6.5-25.9-6.9-39.4 8.3 1.8 5.5.9 8.3 1.8.9 7.8 1.4 15.5 3.5 23.8 2.9-2.1 5.4-3.8 8.5-5.9 3.8 17.1 10.1 32.7 19.5 46.9-3.1 2.2-6.7.8-9.6 2.8 3.9 6.8 9.2 12.8 14.6 19.3"/><path fill="#3a544c" d="M247 427.2c3 2 6 3.9 9 5.9-4.3 11.1-15.4 17.1-27.5 15-12.7-2.2-21.1-12-21.3-24.6s7.7-22.8 19.6-25.5c12.7-2.9 24.2 2.8 29.2 14.6-3 2-6 3.9-9 5.9-9-10.3-16.9-12.2-23.6-5.6-5.6 5.4-5.5 14.9.1 20.2 6.8 6.4 14.9 4.5 23.5-5.9m3.5-16c-5.9-8.7-15.2-11.7-24.8-8.4-9.2 3.1-14.8 11.5-14.3 21.6.5 9.3 7.1 17.1 16.1 19.2 9.7 2.3 18.5-1.2 22.7-9l-2.1-1.5c-.6.9-1.5 2-2.7 3.1-.5.5-2.5 2.2-5.2 3.4-4.7 2-10.2 1.9-15.2-.5-6.7-3.3-10.3-10-9.7-18.1.6-7.5 5.6-13.5 12.9-15.4 8.2-2.2 14.7.5 19.9 7.1.7-.5 1.4-.9 2.4-1.5M139 398.1h14.6c3 4.3 6.1 8.8 9.5 13.8 3.3-4.8 6.4-9.2 9.5-13.7h14.3c-5.7 8.3-11 16.1-16.5 24.1 5.7 8.3 11.3 16.4 17.4 25.2H173c-3.1-4.5-6.4-9.3-10-14.6-3.6 5.3-6.9 10-10.1 14.6h-14.5c6-8.6 11.5-16.6 17.2-25-5.3-7.9-10.7-15.8-16.6-24.4m24.3 27.6c8.1 11.5 12.5 17.8 12.5 17.8s.1 0 4.2-.1c-4.9-7-9.8-14-14.7-21.1 5-6.8 10-13.7 14.9-20.5-1.3.1-2.7.1-4 .2-4.5 5.8-8.9 11.5-13.4 17.3-6.5-8.8-12.5-16.9-12.5-16.9h-3.5c4.7 6.7 9.3 13.4 14 20.2-5 6.9-9.9 13.8-14.9 20.8 1.4 0 2.8 0 4.2.1 4.4-6.1 8.8-11.9 13.2-17.8"/><path fill="#f33946" d="M252.1 355.9c4-3.2 8.3-6.6 12.8-10.2 2.3 1.4 4.6 2.7 7.4 4.4-3.7 3.3-7 6.2-10.5 9.2v14.8H291l.3 9.3h-39.1c-.1-9-.1-18-.1-27.5"/><path fill="#0a9841" d="M79.4 374.5v-15.3c-3.3-2.9-6.7-5.8-10.3-8.9 1-.9 6-4.2 7-4.7 4.4 3.5 8.8 7 13.1 10.4v27.4H49.6v-9c9.9.1 19.8.1 29.8.1"/><path fill="#3a544c" d="M309.6 423.2c-.1 14.2-11.3 25.4-25.4 25.4-14.2 0-25.7-11.6-25.6-25.8s11.3-25.3 25.5-25.3c14.4-.1 25.6 11.1 25.5 25.7m-4.2-.1c.1-11.9-9.1-21.3-20.9-21.5-12.1-.1-21.6 9.2-21.6 21.3 0 11.8 9.3 21.2 21.2 21.2 11.8.1 21.2-9.1 21.3-21"/><path fill="#f33946" d="M304.1 202c2.6-1.8 5-3.5 8-5.6 4.6 13.2 6.9 40.2 6.9 40.2l-8.2-1.7c-.8-8-1.2-16.1-3.7-24.3-2.8 1.9-5.2 3.6-8.1 5.6-2.2-7.5-4.5-15-6.7-22.5l.9-4.2c1.5-.7 3.1-1.5 4.6-2.2 4.2 9.3 3.9 9.7 6.3 14.7"/><path fill="#3a544c" d="M202.8 447.6h-11.7v-49.4h11.7zm-4.3-4.7v-39.7c-.5 0-1.1-.1-1.7-.1h-1.7c0 14.3.1 39.8.1 39.8z"/><path fill="#f33946" d="M217.5 100.3c-5.7 6.8-17.9 13.9-17.9 13.9l-2.4-.9c1.8-2.6 3.5-5.1 5.6-8.1-8.6-2.4-16.9-3.2-25.4-3.7-.4-1.4-.8-2.8-1.2-4.3-.3-1.4-.6-2.8-.9-4.1 14.5.2 28.3 2.9 42.2 7.2"/><g fill="#3a544c"><path d="M103.4 394.3c-.6-4-1-7.5-1.6-11.5 8.1-1.2 15.8-2.3 23.8-3.4.3 1.9.5 3.8.8 5.8.3 1.9.5 3.8.8 5.7-7.9 1.2-15.5 2.3-23.8 3.4m18.2-10.2c-5 .7-9.9 1.4-14.5 2.1 0 .6.1 1.1.2 1.8.1.6.2 1.2.4 1.8 4.8-.7 9.8-1.5 14.7-2.2-.8-3.5-.1 0-.8-3.5M129 153.3c-1.8 5.1-3.4 9.2-5 13.8 7.7 7 17 8.4 26.5 8.6 7-4.7 11.5-10.9 14.7-18.3 3.1-7.1 4-14.7 5.2-23.3 1.5 3.1 2.5 5.3 3.7 7.7 4.6-1.5 9-3 14-4.6 1.9 17.7-3 32.8-14.4 45.8s-26.2 19.5-44.1 20.4c9.4 29.7 26.1 52.9 51.6 69.4.5 0 .9.2 1.2 0 8.7-4.1 17.3-2.5 26.1.1 15.5 4.6 49.1 13 50 14.4-4 8.3-9.7 15.6-16.2 22.7 1 2.5 2.1 5 3.1 7.6-35.6-18.2-63.6-32.5-82.8-42.1-2-1-7.4-3.8-14-8.6-21.7-15.6-34.2-35.6-29.9-63.6-4.8-2.8-9.6-5.4-14.2-8.4-4.5-2.9-8.5-6.4-11.7-10.7 3.4-8.2 23.5-25.6 36.2-30.9M265.1 27.2c7.9 8.8 13.8 17.1 19.2 26.2-8.3 32.1-26 57.3-54.3 75.9-1.4-5.9-2.7-11.3-4.1-17 23.5-22.8 36.7-50.8 39.2-85.1"/><path d="M231.3 150.5v-17.8c23.7-15 40.9-35.9 51.5-63.2 5 9.6 8.4 19 11.1 28.8-14.9 24.1-35.2 41.7-62.6 52.2"/><path d="M291.8 107.7c2.2 10.9 3.7 20.4 3.7 30.2-18.9 18.1-41 29.6-67.6 33.6 1.1-6 2-11.3 3.1-17.2 24.5-9 44.8-24.2 60.8-46.6"/><path d="M219.9 191.3c2.3-5.5 4.5-10.5 6.8-15.9 23.8-3.4 45.2-12.8 64.6-29 .1 10.6-1.3 20.1-3.1 29.2-20.7 12-48.7 18.5-68.3 15.7M205.2 212.4c19.4 5.6 38.9 6.7 59.7 2.8-3.6 7.4-7.7 13.3-12.2 19.7 8.2 2.2 16.3 4.4 24.5 6.6-6.2 1.4-12.3 2.9-18.5 4.3-15.2-3.9-27.8-7.2-38.4-9.7-6.1-1.5-14.9-5.1-26.3-10.4-.6-.3-1.1-.7-1.9-1.2 4.4-4.1 8.5-7.9 13.1-12.1"/><path d="M272.5 210c-21.8 5.1-43 5.6-64.7-.7 3.4-4.9 6.6-9.5 10-14.4 21.9 1.5 43.1-2.3 64.2-12.2-2.2 10.3-5.6 18.7-9.5 27.3M252.1 248.4c-11.7 3.5-23.3 7-35 10.5-15.9-4.9-30.1-12.4-43.1-23.3 5.1-3 9.7-5.8 14.8-8.8 9.8 5.1 20.3 9.2 31 12.6 10.6 3.5 21.4 6 32.3 9M200.1 131.1c8.7 38.7-20.4 80.1-62 84.5-1.9-2.4-2.5-5.5-3.7-8.9 17.8-2.3 32.7-9.7 43.8-23.6 11.2-13.9 15.5-29.9 13.4-47.8 2.7-1.4 5.4-2.7 8.5-4.2M153.7 243.1c5.8-2 10.9-3.8 16.7-5.7 11.6 9.7 24.8 17.6 40.9 23.3-10.4 3.1-19.6 5.9-29 8.7-10.8-7.1-20.3-15.5-28.6-26.3M164.4 280.5c6.2 3.2 11.9 6.2 17.7 9.1v19.5c-8.2 2-16.8-3.8-17.6-12.1-.5-5.2-.1-10.5-.1-16.5M139.3 219.2c4.3-.9 8-1.7 12.1-2.6 4.6 6.2 9.8 12 15.7 17.6-5.1 3-10.3 3.9-15.6 5.5-4.8-6.3-8.7-12.9-12.2-20.5M199.9 172.5c1.2-4.1 2.3-7.7 3.5-11.7 7.7-1.5 15.5-2.5 23.4-5.3.1 6-1.7 11.1-3 16.6-7.9 1-15.6.9-23.9.4M227.4 151.8c-7.7 2.6-15 4.2-23.1 5.2.4-4.3.7-8 1.1-12.1 7.3-2.8 14.6-5.9 21.8-9.8 1.1 5.8.9 11.1.2 16.7"/><path d="M182 198.8c2.9-3.3 5.4-6.1 8.1-9.2 7.5 2.1 15.1 3.8 23.2 5-2.4 5.4-6.1 9.3-9.5 13.5-7.7-2.1-14.5-5.4-21.8-9.3M223.2 114.7c2.1 5.7 3.3 10.8 3.6 16.4-6.7 4-13.6 7.3-21.5 9.7-.5-4.1-.9-7.9-1.5-12.1 6.7-3.9 13-8.5 19.4-14M179.1 201.3c7.1 3.8 14.1 7 21.7 9.7-3.5 4.7-7.8 7.7-12.1 11.4-6.9-3.9-13.2-8.4-19.3-13.8 3.3-2.5 6.3-4.7 9.7-7.3M222.4 175.8c-1.6 5.7-3.9 10.4-6.6 15.3-7.9-.3-15.4-2.1-23.3-4.5 2-3.7 3.9-7 5.9-10.7 7.9.7 15.7.7 24-.1M166 210.4c6 5.2 12.1 9.7 19.2 14.1-4.6 3.6-9.3 6-14.4 8.5-5.8-5.3-11.1-10.9-15.8-17.5 3.8-1.8 7.2-3.3 11-5.1M135.9 288.6c-8.4-9.2-7.7-18.2 2-25.5 2.3 1.8 4.7 3.7 7 5.5 2.2 1.7 4.5 3.2 5.8 4.1-5 5.4-9.9 10.6-14.8 15.9M122.5 311.7c-1.5-16.7-8.6-23.8-25.1-25.5 6.1-5.3 16.3-4.7 22.8 1.4 6.9 6.4 7.9 16.4 2.3 24.1M188.2 336c-11.5-10.9-22.4-11.1-36.2 0 1.4-6.6 4.6-10.8 9.9-13.5 6.4-3.3 13-3 18.9 1.1 4.3 2.8 7.9 6.5 7.4 12.4M85.9 205.5c-4.3-6.5-3.4-10 4.2-18.3 3.8 3.4 7.6 6.9 11.9 10.9-6.4.7-11.6 3-16.1 7.4M177.9 352c-1.1 3.2-2 6-2.9 8.7-3.1.6-5.9.5-9.1 0-.9-2.7-1.9-5.5-2.9-8.6 2.5-1.8 4.9-3.5 7.4-5.4 2.5 1.8 4.8 3.4 7.5 5.3M154.1 341.3c.9 3.5 1.6 6 2.2 8.6-1.5 2.6-3.5 4.7-6.4 7.2-.8-6 .5-10.7 4.2-15.8"/><path d="M178.7 335c-3.2 1.7-5.5 3-7.8 4.3-2.9-.9-5.4-2.3-8.1-4.3 5.2-2.5 10.1-2.4 15.9 0M186.9 341.5c3.7 4.9 4.7 9.6 4.1 16.1-2.6-2.8-4.4-4.8-6.3-6.9.2-3.1 1.1-5.9 2.2-9.2M167.5 374.5c-6-1.2-10.2-3.5-13.6-8.4h8.2c2.5 2.1 3.5 5 5.4 8.4M178.1 366.2c2.8-.2 5.4-.3 9.4-.6-3.8 5.2-7.9 7.6-14.2 8.8 1.8-3.2 3.3-5.6 4.8-8.2M133.5 291.5l-2.4 2.1q-1.2 1.05-2.1 2.1c-1.2-2.5-2.4-5-3.7-7.6.4-.5.9-1 1.3-1.5.6-.6 1.1-1.3 1.6-1.9 1.7 2.2 3.4 4.4 5.3 6.8M182.1 313.8l-.3 6c-2.6-.9-5.2-1.8-7.9-2.8l-.1-4.5c2.7.5 5.4.9 8.3 1.3M96.5 281.8c-2.3-.8-4.3-1.5-7.3-2.5 4.9-1.8 8.8-1.9 13.2-.1-2.1.9-3.8 1.7-5.9 2.6M150.8 328.2c-.6 1.5-1.1 3-1.8 4.7-1.7.8-5.6 1.9-5.8 1.7 1.3-3.3 7.4-6.6 7.6-6.4M188.1 336c.1 0 .2-.1.3-.1 0 0-.1 0-.3.1M301.6 422.8c0 10.2-7.4 18-17.3 18.1-10.1.1-17.9-7.9-17.8-18.1.1-10.1 7.8-17.9 17.6-17.9s17.4 7.8 17.5 17.9m-17.3-13.6c-7.6-.1-13.4 5.9-13.5 13.7 0 7.8 5.8 13.9 13.3 13.9 7.3 0 13.1-5.9 13.3-13.4.2-7.9-5.6-14.1-13.1-14.2"/></g></svg>