<?xml version="1.0"?>
<svg width="224.7621" height="171.40204" xmlns="http://www.w3.org/2000/svg">
<path
   d="m 219.81144,4.0913401 c 3.37001,7.6779999 -3.48599,14.1579999 -6.739,19.0419999 2.29401,0.471 4.552,0.988 6.332,1.979 -1.317,3.628 -7.236,1.773 -10.693,3.174 -2.006,0.808 -2.241,2.15 -3.579,3.565 1.671,0.708 4.382,0.382 5.957,1.19 -2.65,2.373 -6.18,3.875 -11.108,3.969 -1.506,1.139 -2.728,2.562 -3.563,4.358 2.626,-0.137 4.936,-0.613 7.921,-0.39 -1.318,1.898 -2.562,3.441 -5.148,4.358 -3.913,1.392 -9.302,-0.382 -10.711,3.168 4.302,0.203 7.417,1.581 10.312,3.184 -2.129,2.113 -6.682,3.174 -11.107,3.166 -3.323,0 -6.435,-1.104 -7.528,1.979 4.963,1.652 11.036,2.186 13.484,6.35 -4.213,0.708 -9.497,1.241 -14.281,0.794 -3.665,-0.347 -6.853,-2.504 -9.114,-1.191 4.841,3.082 10.557,5.296 13.077,10.708 -6.805,1.964 -13.652,-0.275 -18.235,-3.174 -1.738,-1.09 -3.278,-3.623 -5.551,-1.978 2.11501,2.691 5.588,3.89 7.933,6.344 2.191,2.287 3.196,5.31 5.149,7.93 -6.24,1.233 -12.033,-0.593 -16.651,-2.779 -3.232,-1.523 -5.783,-3.7 -8.727,-5.151 0.21,1.876 3.14,3.658 5.16,5.151 4.068,3.031 8.673,6.084 10.701,11.502 -13.032,1.278 -19.173,-4.393 -26.176,-9.51 -1.144,-0.845 -2.397,-3.269 -4.361,-1.593 2.186,3.405 6.992,5.41 10.311,8.729 3.26,3.254 5.00201,7.764 7.929,11.099 -11.501,0.648 -19.366,-5.246 -26.171,-10.709 -1.032,-0.83 -2.37,-1.97 -3.565,-2.771 -1.217,-0.822 -2.21599,-2.186 -3.964,-1.191 0.324,2.323 3.67101,3.465 5.94101,5.154 6.48,4.798 13.09199,10.902 16.25799,19.431 -15.87299,-1.703 -26.29899,-8.853 -33.697,-19.036 -2.01499,0.247 -3.49199,1.011 -5.15899,1.587 10.204,6.314002 19.621,13.43 25.378,24.196 -17.699,-0.548 -29.275998,-7.223 -35.292998,-19.432 -2.363,0.007 -3.423,1.328002 -5.549,1.578002 10.522,6.401998 19.279998,16.669998 25.375998,26.176998 -16.919998,-2.38 -30.124998,-8.482 -38.465998,-19.428 -1.473,0.771 -2.546,1.939 -4.367,2.373 11.258,7.39 22.45,14.833 29.348,26.582 -18.582,0.173 -32.163,-8.01 -42.826,-17.063 -1.342,0.505 -2.518,1.184 -3.565,1.985 13.328,8.482 28.13,15.481 33.7,31.731 -17.262,0.275 -34.206,-6.104 -44.021,-16.653 -0.922,-0.996 -2.544,-3.075 -4.357,-5.168 -1.343,-1.558 -4.185,-4.732 -4.366,-4.747 -1.767,-0.174 -6.690003,6.149 -7.533003,7.129 -6.834,8.024 -11.46,18.04 -15.4639997,28.157 -1.017,-2.756 -2.021,-5.83 -2.778,-9.121 -0.728,-3.221 -2.063,-7.694 -1.191,-10.708 0.477,-1.617 3.601,-3.753 5.5489997,-5.542 5.462,-5.008 12.146,-11.618 16.267003,-16.667 -7.131003,-18.961998 -5.500003,-49.242 8.325,-59.488 5.125,13.263 10.103,28.765 9.917,46.011 1.696,0.243 1.614,-1.292 3.173,-1.192 -0.734,-5.303 -1.462,-10.528 -1.191,-15.868 0.889,-17.362 6.019,-34.053 15.466,-42.827 3.246,13.234 5.022,30.963 3.167,46.795 1.637,0.693 3.486,-1.796 5.555,-1.984 -2.049,-22.666 3.586,-40.734 14.282,-51.949 2.698,13.473 1.827,32.04 -0.8,44.812 1.369,-0.352 2.559,-0.873 3.568,-1.58 -0.504,-19.814 5.392,-33.215 14.273998,-43.627 2.628,11.869 0.688,27.364 -1.579,38.071 2.244,0.131 3.066,-1.162 5.159,-1.19 -0.507,-16.359 2.491,-29.233 11.09699,-36.485 2.744,9.7 1.96601,22.904 0,32.914 1.222,-0.238 2.06401,-0.845 3.17701,-1.191 0.723,-14.994 5.331,-28.237 13.478,-34.5 0.349,11.315 -1.11601,20.824 -2.771,30.141 1.215,0.289 1.17,-0.685 2.38099,-0.396 1.469,-2.735 1.58801,-5.883 2.37601,-8.726 2.315,-8.342 5.801,-16.092 11.897,-21.02 1.336,9.409 -0.53301,19.035 -3.173,25.775 1.56999,-0.151 2.877,-0.555 3.95999,-1.183 1.07,-11.235 4.78001,-19.814 11.509,-25.378 0.506,8.572 -0.567,15.556 -2.37999,21.806 0.72899,0.714 2.16699,-1.248 3.57099,-1.19 0.64501,-6.769 2.968,-12.881 5.939,-17.845 0.806,-1.335 1.971,-3.709 3.578,-3.572 0.195,6.286 -0.245,11.92 -1.595,16.654 0.818,0.533 2.712,-1.234 3.968,-1.581 -1.406,-7.503 1.569,-14.013 5.154,-17.844 1.595,3.427 2.333,7.722 1.991,13.088 3.588,0.022 1.992,-5.021 2.373,-8.73 0.393,-3.76 1.538,-7.252 3.571,-8.328 1.44,3.183 2.527,6.726 2.772,11.105 0.396,0.751 1.602,-1.009 2.381,-1.188 -1.731,-5.58 -0.207,-11.555 1.986,-15.472 2.459,1.898 2.848,5.874 3.571,9.525 1.053,-0.269 1.509,-1.141 2.373,-1.588 -1.126,-3.759 -2.648,-10.009 -0.796,-14.28 0.531,-1.363 2.816,1.876 3.567,3.175 1.034,1.775 1.508,4.256 2.381,5.555 2.721,-0.815 0.775,-3.743 0.799,-5.945 0.037,-2.8 1.2,-5.204 1.583,-7.5409999 3.111,0.5919999 3.552,3.8529999 4.364,6.7399999 2.584,-4.553 5.14,-9.1439999 9.123,-12.2959999"
   style="fill:#FFF;stroke:#000;stroke-width:8.18268;stroke-linecap:round;stroke-miterlimit:4;stroke-dasharray:none;stroke-opacity:1;paint-order:stroke fill markers" />
</svg>