<svg xmlns="http://www.w3.org/2000/svg" fill-rule="evenodd" clip-rule="evenodd" image-rendering="optimizeQuality" shape-rendering="geometricPrecision" text-rendering="geometricPrecision" viewBox="0 0 905.68 1204.01"><path fill="#cf9d70" d="M884 905.01a484 484 0 0 1-36 69c-.82.89-1.82 1.22-3 1 .14 1.76-.19 3.43-1 5-25.42 35.76-56.09 66.09-92 91a1403 1403 0 0 1-60 37c-61.13 33.22-124.8 61.06-191 83.5-15.12 5.85-30.79 9.35-47 10.5q-19.965-1.5-39-7.5a2359 2359 0 0 1-109-40.5c-9.19-4.98-18.53-9.98-28-15-7.63-3.21-15.3-6.21-23-9a1324 1324 0 0 0-63-35 80.4 80.4 0 0 0-10-7.5 593 593 0 0 0-28-16.5c-79.246-55.8-128.079-131.47-146.5-227a306 306 0 0 1-4-38 51774 51774 0 0 0-1.5-322 21948 21948 0 0 0 0-412q.477-19.506 1.5-39 3.318-18.717 18.5-29l6-1.5q426-1 852 0c12.53 5.539 20.36 15.039 23.5 28.5q1.005 390 0 780a410 410 0 0 1-6 43q-6.165 26.204-13.5 51"/><path fill="#c8b198" d="M41 25.01q412.5-2 825 0-7.41.39-15 1-404.745-1.5-810-1"/><path fill="#f8f2ed" d="M41 25.01q405.255-.5 810 1c-2.59 1.47-5.43 2.136-8.5 2a3182 3182 0 0 0-54-1l-6 2a2663 2663 0 0 1-37-2h-36c-5.59 1.92-11.25 1.92-17 0-9.55 1.199-18.88 1.199-28 0-4.51 1.948-9.18 1.948-14 0q-10.5 2-21 0l-6 2-6-2q-14.355 1.683-30 0l-6 2q-4.275-.361-9-2-10.5 2-21 0c-4.23 2.203-8.56 2.203-13 0q-17.355.785-36 2l-10-2q-19.5 2-39 0l-29 2c-1.78-.98-3.45-.646-5 1-1.33-2.667-2.67-2.667-4 0q-1.275-2.437-3-1l-9-2c-11.77.46-23.44.46-35 0l-22 2q-1.725-1.437-3 1c-.67-.667-1.33-1.333-2-2-1.57-.56-2.9.106-4 2-.67-.667-1.33-1.333-2-2-1.27.116-2.6.449-4 1l-9-2c-18.78 1.022-38.11 1.022-58 0-2.33.667-4.67 1.333-7 2a212 212 0 0 1-12-2q-29.656.687-61 0l-6 2q-7.852.488-16-2a504 504 0 0 1-56 0l-6 2q-1.72-1.437-3 1-2-4-4 0l-2-2q-4.591 1.443-10-1-19.651 1.152-38.5 0l-2 2q-3.73-.423-8 0 2.722-4.36 8-4"/><path fill="#f9f9f8" d="M866 25.01c1.76-.143 3.43.19 5 1a24.14 24.14 0 0 1 7 9c.33 69.57 0 139.07-1 208.5-282.67.5-565.33.667-848 .5q-.49-106.062 1-212a10.2 10.2 0 0 0 3-3q4.27-.423 8 0l2-2q18.849 1.152 38.5 0 5.409 2.443 10 1l2 2q2-4 4 0 1.28-2.437 3-1l6-2a504 504 0 0 0 56 0q8.148 2.488 16 2l6-2q31.344.687 61 0 6.39 1.242 12 2c2.33-.667 4.67-1.333 7-2 19.89 1.022 39.22 1.022 58 0l9 2c1.4-.551 2.73-.884 4-1 .67.667 1.33 1.333 2 2 1.1-1.894 2.43-2.56 4-2 .67.667 1.33 1.333 2 2q1.275-2.437 3-1l22-2c11.56.46 23.23.46 35 0l9 2q1.725-1.437 3 1c1.33-2.667 2.67-2.667 4 0 1.55-1.646 3.22-1.98 5-1l29-2q19.5 2 39 0l10 2q18.645-1.215 36-2c4.44 2.203 8.77 2.203 13 0q10.5 2 21 0 4.725 1.639 9 2l6-2q15.645 1.683 30 0l6 2 6-2q10.5 2 21 0c4.82 1.948 9.49 1.948 14 0 9.12 1.199 18.45 1.199 28 0 5.75 1.92 11.41 1.92 17 0h36c12.82.779 25.16 1.446 37 2l6-2q26.625.264 54 1c3.07.136 5.91-.53 8.5-2q7.59-.61 15-1"/><path fill="#c79f7b" d="M28 45.01v199a4.93 4.93 0 0 1-3-.5q1.32-2.75 2-7a13445 13445 0 0 1-1-189q.85-1.492 2-2.5" opacity=".996"/><path fill="#dfc5b4" d="m23 2.01-1 2q-15.182 10.283-18.5 29a1395 1395 0 0 0-1.5 39v206Q.995 174.7 0 71.01q1.014-16.198 1.5-34 .896-23.832 21.5-35" opacity=".212"/><path fill="#dcc3b0" d="M30 32.01a11347 11347 0 0 0-1 212c282.67.167 565.33 0 848-.5 1-69.43 1.33-138.93 1-208.5 1 69.83 1.33 139.83 1 210-283.83.333-567.5 0-851-1v-199a72.4 72.4 0 0 1 .5-12q.575-.834 1.5-1"/><path fill="#adb4bf" d="M781 187.01c10.08 1.938 20.41 2.605 31 2-10.15.994-20.49 1.328-31 1z"/><path fill="#a9afbb" d="M701 187.01c9.28 1.973 18.94 2.64 29 2q-14.73 1.49-30 1c-.24-1.291.1-2.291 1-3"/><path fill="#aab0bb" d="M662 182.01c.97 2.107 1.3 4.44 1 7h27v-5c.81 1.497 1.47 3.164 2 5-9.36.69-18.7 1.358-28 2a3.6 3.6 0 0 1-1.5-1c-.5-2.646-.66-5.313-.5-8"/><path fill="#afb5c0" d="M610 187.01c7.06 1.91 14.39 2.576 22 2-7.07.682-14.23 1.349-21.5 2a8.4 8.4 0 0 1-.5-4"/><path fill="#adb3be" d="M509 185.01c.89.76 1.56 1.76 2 3q14.97 1.498 30 1c-10.16 1.159-20.49 1.325-31 .5-.88-1.356-1.21-2.856-1-4.5"/><path fill="#aab1bc" d="M431 184.01a20.6 20.6 0 0 0-1 5c9.69.332 19.36-.002 29-1 .49-1.526 1.16-2.86 2-4a9.13 9.13 0 0 1-1 5 241 241 0 0 1-31 1c-.45-2.51.22-4.51 2-6"/><path fill="#a9b0bb" d="M288 187.01c.9.709 1.24 1.709 1 3q-15.27.49-30-1c10.06.64 19.72-.027 29-2"/><path fill="#abb1bd" d="M177 187.01q6.928 1.992 15 2 8.368-.077 16-2v3h-32q-.356-1.937 1-3"/><path fill="#969daa" d="M706 173.01q-.945 4.346-3 8-.225-4.824 3-8"/><path fill="#5c6475" d="M559 148.01c.05 8.036-1.28 15.702-4 23 .81-7.885 2.15-15.551 4-23"/><path fill="#9198a5" d="M274 149.01q3.225 3.176 3 8-2.055-3.654-3-8"/><path fill="#9399a6" d="M444 148.01q-.945 4.346-3 8-.225-4.824 3-8"/><path fill="#7b8290" d="M682 139.01c1.16 2.773 1.82 5.773 2 9-1.62-2.671-2.28-5.671-2-9"/><path fill="#9097a4" d="M561 137.01c.08 3.28-.59 6.28-2 9-.08-3.281.59-6.281 2-9"/><path fill="#767d8c" d="M676 107.01c1.54 2.338 2.21 5.005 2 8-1.27-2.405-1.93-5.072-2-8"/><path fill="#a3a9b5" d="M178 103.01q1.152 1.145 1.5 3 1.23 9.77-.5 19 .275-11.052-1-22"/><path fill="#8e94a2" d="M570 87.01c-.07 2.928-.73 5.595-2 8-.21-2.995.46-5.662 2-8"/><path fill="#232b42" d="M216 80.01a299 299 0 0 1 34 1 511 511 0 0 0 7 21c-1 .086-1.83-.248-2.5-1q-4.08-9.01-6.5-17.5-3.268-2.98-5.5.5-.75-1.75-2.5-2.5l-9-.5q-5.159.08-9.5 2-3.495-.984-5 3a432 432 0 0 0-7.5 19.5l1 1a4.93 4.93 0 0 1-3 .5 849 849 0 0 1 9-27"/><path fill="#172444" d="M812 189.01c-10.59.605-20.92-.062-31-2-.57-4.037-1.9-7.703-4-11q-9.945-1.995-21-2-11.055.005-21 2a67 67 0 0 1-5 13c-10.06.64-19.72-.027-29-2 .67-2 1.33-4 2-6q2.055-3.654 3-8a2058 2058 0 0 1 34-92q16.5-2 33 0 19.05 54.209 39 108"/><path fill="#c1c6d1" d="M777 176.01q-21-2-42 0 9.945-1.995 21-2 11.055.005 21 2"/><path fill="#ecedef" d="M755 119.01q2.685 3.438 4.5 8a399 399 0 0 1 8.5 25h-24c3.5-10.984 7.17-21.984 11-33"/><path fill="#162344" d="M603 92.01c.77 3.649 2.1 6.982 4 10q6.3 16.91 12 34c0 2.342.84 4.342 2.5 6q1.56-1.116 1.5-3c-.1-2.053.57-3.72 2-5 .88.13 1.54-.202 2-1a1450 1450 0 0 1 17.5-48c.49-1.634.66-3.301.5-5 8.67-.166 17.34 0 26 .5.6 1.622 1.27 3.122 2 4.5q1.305 11.016 3 22c.07 2.928.73 5.595 2 8a252 252 0 0 1 4 24c-.28 3.329.38 6.329 2 9a654 654 0 0 0 6 36v5h-27c.3-2.56-.03-4.893-1-7a637 637 0 0 0-6-35 53.4 53.4 0 0 0-3-16 11.65 11.65 0 0 0-2 5 832 832 0 0 1-19 53c-7.61.576-14.94-.09-22-2-.57-4.037-1.9-7.703-4-11q.72-4.996-3-8a267 267 0 0 0-13.5-36 80 80 0 0 0-2.5 14c-1.54 2.338-2.21 5.005-2 8v6c-2.46 6.312-3.8 12.979-4 20a89 89 0 0 0-2 9q-13.53.497-27-1a305 305 0 0 0 3-17c2.72-7.298 4.05-14.964 4-23v-2c1.41-2.72 2.08-5.72 2-9a532 532 0 0 0 7-42c1.27-2.405 1.93-5.072 2-8a21.5 21.5 0 0 0 1-7c9.34-.166 18.67 0 28 .5a77.6 77.6 0 0 1 4 11.5"/><path fill="#7a818f" d="M603 168.01q3.72 3.004 3 8-2.055-3.654-3-8"/><path fill="#979eab" d="M585 160.01c-.88 6.88-2.21 13.547-4 20 .2-7.021 1.54-13.688 4-20"/><path fill="#636b7b" d="M587 146.01c-.07 2.928-.73 5.595-2 8-.21-2.995.46-5.662 2-8"/><path fill="#78808e" d="M619 136.01c1.06 1.1 1.89 2.434 2.5 4q.57-.834 1.5-1 .06 1.884-1.5 3c-1.66-1.658-2.5-3.658-2.5-6"/><path fill="#b3b9c4" d="M656 147.01c-1.84-3.667-3.01-7.667-3.5-12q-.57.834-1.5 1a11.65 11.65 0 0 1 2-5 53.4 53.4 0 0 1 3 16"/><path fill="#232c43" d="M645 80.01c.16 1.699-.01 3.366-.5 5a1450 1450 0 0 0-17.5 48c-.46.798-1.12 1.13-2 1a1269 1269 0 0 1 17-48z"/><path fill="#979daa" d="M603 92.01c2.4 2.809 3.73 6.142 4 10-1.9-3.018-3.23-6.351-4-10"/><path fill="#162344" d="M541 189.01q-15.03.498-30-1c-.44-1.24-1.11-2.24-2-3v-1q-.15-4.703-3-8v-1q-9.945-1.995-21-2-10.755 0-21 1v2q-.69 4.359-3 8c-.84 1.14-1.51 2.474-2 4a211 211 0 0 1-29 1c.13-1.716.46-3.383 1-5a240 240 0 0 1 10-28q2.055-3.654 3-8a2735 2735 0 0 0 24-68c11.35-.332 22.69 0 34 1a5151 5151 0 0 0 39 108"/><path fill="#757c8b" d="M506 176.01q2.85 3.297 3 8-2.4-3.522-3-8"/><path fill="#c3c8d2" d="M464 174.01c13.84-.33 27.51.004 41 1-13.75-.315-27.41.019-41 1z"/><path fill="#474f60" d="M464 174.01q10.245-1 21-1 11.055.005 21 2h-1a421 421 0 0 0-41-1"/><path fill="#edeff0" d="M484 119.01c1.78 1.074 2.95 2.74 3.5 5 3.49 9.29 6.65 18.623 9.5 28h-24a942 942 0 0 0 11-33"/><path fill="#152344" d="M386 80.01h1q11.73 1.489 24 1c-.33 35.837 0 71.504 1 107-9.16 1.158-18.49 1.324-28 .5a4991 4991 0 0 0-51-64.5c-.06-.543-.39-.876-1-1-1 21.99-1.33 43.99-1 66h-26v-108h28q1.185 6.83 7.5 10c1.31 4.802 4.15 8.135 8.5 10 11.71 13.71 23.05 27.71 34 42v1q1.065 1.356 3 1z"/><path fill="#9aa1ad" d="M333 124.01c-.67 21.667-1.33 43.333-2 65-.33-22.01 0-44.01 1-66 .61.124.94.457 1 1"/><path fill="#9ba2ae" d="M333 80.01h-29v109c-1-36.163-1.33-72.496-1-109q15-2 30 0"/><path fill="#162344" d="M257 102.01a1947 1947 0 0 1 17 47q.945 4.346 3 8a398 398 0 0 1 11 30c-9.28 1.973-18.94 2.64-29 2a87 87 0 0 1-5-14q-9.95-1.995-21-2-10.763 0-21 1a73.3 73.3 0 0 0-4 13q-7.632 1.923-16 2-8.072-.008-15-2a5431 5431 0 0 0 30-80 4.93 4.93 0 0 0 3-.5l-1-1a432 432 0 0 1 7.5-19.5q1.505-3.984 5-3 4.341-1.92 9.5-2l9 .5q1.75.75 2.5 2.5 2.232-3.48 5.5-.5 2.42 8.49 6.5 17.5c.67.752 1.5 1.086 2.5 1"/><path fill="#474f60" d="M212 174.01q10.237-1 21-1 11.05.005 21 2a453 453 0 0 0-42-1"/><path fill="#edeef1" d="M232 120.01q2.454 1.874 3.5 5 4.772 13.533 9.5 27a145 145 0 0 1-24-1 609 609 0 0 1 11-31"/><path fill="#152344" d="M153 81.01q7.558.28 13 5.5l8.5 8.5q1.313 4.351 3.5 8a156 156 0 0 1 1 22q-4.5 22.996-27 28-14.875.479-29.5-1a15.3 15.3 0 0 1-1.5 4.5 315 315 0 0 1 .5 31.5q-10.944-1.892-22.5 0-.5-52.509 1-105a4.46 4.46 0 0 0 2-1.5q25.496-.75 51-.5"/><path fill="#5b6374" d="M145 129.01a10.5 10.5 0 0 1-2.5 3 1714 1714 0 0 1-17.5-2q10.086.384 20-1"/><path fill="#f1f2f3" d="M145 129.01a113 113 0 0 1-20 1q-1.49-13.227-1-27 9.513-.25 19 .5 13.461 6.448 7.5 20.5a38.5 38.5 0 0 1-5.5 5"/><path fill="#b2b8c3" d="M150 80.01H97v109a3026 3026 0 0 1-1-110 730 730 0 0 1 54 1"/><path fill="#2d374a" d="M387 80.01h25v108c-1-35.496-1.33-71.163-1-107q-12.27.488-24-1"/><path fill="#2e384b" d="M386 80.01v65q-1.935.356-3-1 2.49-31.72 3-64"/><path fill="#afb5c0" d="M412 80.01h-26q-.51 32.28-3 64v-1c1-21.16 1.33-42.493 1-64 9.51-.327 18.85.006 28 1"/><path fill="#2b3549" d="M333 80.01a128 128 0 0 1 16 21c-4.35-1.865-7.19-5.198-8.5-10q-6.315-3.17-7.5-10h-28v108h-1v-109z"/><path fill="#e0e5eb" d="M303 80.01c-.33 36.504 0 72.837 1 109h27c-9.49.994-19.15 1.327-29 1-.33-36.837 0-73.504 1-110"/><path fill="#2b3349" d="M150 80.01q1.936-.356 3 1-25.504-.25-51 .5a4.46 4.46 0 0 1-2 1.5q-1.5 52.491-1 105 11.556-1.892 22.5 0a315 315 0 0 0-.5-31.5 15.3 15.3 0 0 0 1.5-4.5q14.625 1.479 29.5 1-13.227 1.49-27 1v35H97v-109z"/><path fill="#9aa0ad" d="M673 85.01a37 37 0 0 1-2-4.5c-8.66-.5-17.33-.666-26-.5l-3 6c.17-2.361.51-4.694 1-7 9.67-.166 19.34 0 29 .5.91 1.699 1.24 3.533 1 5.5"/><path fill="#9da4b0" d="M216 80.01q8.235-1 17-1 9.063.006 17 2a299 299 0 0 0-34-1"/><path fill="#1a2544" d="M765 49.01q6.99 4.489 12 11a179 179 0 0 1-10 12.5q-10.53 1.245-21-.5a472 472 0 0 1 19-23"/><path fill="#c89e7b" d="M28 271.01q-.009 258.751 0 518-1.184-.424-2-1.5-.154-254.172 1-510.5-4.141-3.73 1-6" opacity=".996"/><path fill="#dcc3b0" d="M28 271.01c283.5-.333 566.83 0 850 1q-424.755-.5-849 1v533q-1.483-8.213-1-17-.009-259.249 0-518"/><path fill="#f6e8db" d="M29 273.01q424.245-1.5 849-1v6a37 37 0 0 1-2-4.5c-282.33-.5-564.67-.667-847-.5"/><path fill="#dcc3b0" d="M878 272.01c1.17 178.833 1.33 357.833.5 537-.18 6.234-1.01 12.234-2.5 18q.585-10.005 1.5-20c.5-176.333.67-352.666.5-529z"/><path fill="#f9f9f9" d="M29 273.01c282.33-.167 564.67 0 847 .5.6 1.622 1.27 3.122 2 4.5.17 176.334 0 352.667-.5 529q-.915 9.995-1.5 20a1123 1123 0 0 1-8 41c-7.99 27.109-18.82 53.109-32.5 78a1485 1485 0 0 1-24.5 36c-.33 1-1 1.67-2 2-15.08 18.41-31.75 35.08-50 50-21.12 15.07-42.79 29.4-65 43-13.36 7.35-26.69 14.68-40 22-17.89 8.45-35.56 17.11-53 26q-11.115 3.315-21 9a6473 6473 0 0 1-84 32c-10 2.72-20 5.55-30 8.5-6.1 1.04-11.77 1.54-17 1.5-7.64-1.33-15.31-3.16-23-5.5a3426 3426 0 0 0-44-14.5c-1.9-.3-3.57-.96-5-2-16.73-7.03-33.73-13.7-51-20-4.5-3.28-9.5-5.62-15-7-8.16-4.75-16.83-8.41-26-11-4.79-4.4-10.46-7.23-17-8.5q-6.765-2.625-12-7.5-9.621-2.67-17-9a82.6 82.6 0 0 1-12-5c-.79-1.29-1.79-2.46-3-3.5a1896 1896 0 0 1-42-24.5 2655 2655 0 0 1-47-34.5c-11.194-11.19-22.36-22.36-33.5-33.5a23 23 0 0 1-2-5c-3.333-3.67-6.667-7.33-10-11q-28.11-41.715-46-89a464 464 0 0 1-3.5-17v-10h-3a3317 3317 0 0 1-4-28.5q.44-5.386 1-10-4.656-6.907-2-14.5-.965-7.797-2-15.5a7.3 7.3 0 0 0 3-2q-2-243 0-486a9.5 9.5 0 0 1-1.5-2.5 90.5 90.5 0 0 1 0-19 9.5 9.5 0 0 1 1.5-2.5c276.42.16 553.08.66 830 1.5q.765 4.65 0 8.5l1.5 1.5q1.05-7.326 1.5-14-419.265.015-837 0z"/><path fill="#f9f8f5" d="M29 275.01q417.735.015 837 0-.45 6.674-1.5 14l-1.5-1.5q.765-3.85 0-8.5c-276.92-.84-553.58-1.34-830-1.5a9.5 9.5 0 0 0-1.5 2.5 90.5 90.5 0 0 0 0 19q.561 1.375 1.5 2.5-2 243 0 486a7.3 7.3 0 0 1-3 2q1.035 7.703 2 15.5-2.656 7.593 2 14.5a259 259 0 0 0-1 10 3317 3317 0 0 0 4 28.5h3v10a60 60 0 0 1-3-6.5 427 427 0 0 1-5-26.5 335 335 0 0 0-3-27v-533"/><path fill="#d7b8a0" d="M2 72.01a21948 21948 0 0 1 0 412H1q.477-40.08-1-80.5 1.626-65.859 2-125.5z" opacity=".761"/><path fill="#dec2ab" d="M884 905.01q7.335-24.796 13.5-51a410 410 0 0 0 6-43q1.005-390 0-780c-3.14-13.461-10.97-22.961-23.5-28.5q-426-1-852 0l-6 1.5 1-2a32 32 0 0 1 6-1.5l94-.5q376.41-.08 756 .5c15.87 5.576 24.71 16.743 26.5 33.5q.36 385.996 0 772c-1.83 34.348-8.99 67.348-21.5 99" opacity=".761"/><path fill="#162344" d="M436 375.01q.375 3.7 3 6c3.14 5.807 7.81 9.807 14 12q1.14 1.152 3 1.5c8.66.5 17.33.666 26 .5 6.16 2.803 9.5 7.47 10 14a200.7 200.7 0 0 1 33 1.5q13.185 5.682 16.5 19.5 1.005 11.5 0 23c-4.57 3.096-8.4 2.263-11.5-2.5q-12-1-24 0c-7.37 4.026-10.04 10.192-8 18.5-.31 5.266.36 10.266 2 15 .07 2.928.73 5.595 2 8 3.33 6.634 7.66 12.634 13 18-.42.722-1.08 1.222-2 1.5 2.67 1.667 5.33 3.333 8 5-44.67.667-89.33.667-134 0-.33-.333-.67-.667-1-1 3.65-.813 5.98-2.98 7-6.5 3-3.167 5.83-6.5 8.5-10q8.46-19.475 7.5-41a4.94 4.94 0 0 0-3 .5c-3.39 3.018-7.05 5.518-11 7.5a75.8 75.8 0 0 1-15 1q-7.995-1.712-13.5-8-1.005-1.5 0-3a1081 1081 0 0 1 32.5-22q-13.56-.925-27-2.5c-6.78-4.263-11.44-10.096-14-17.5v-5q21.03.499 42-1c-.12-.607-.46-.94-1-1a234 234 0 0 0-15-9.5c-7.98-7.084-10.82-15.918-8.5-26.5a17.4 17.4 0 0 1 3.5-7c11.33 7.667 22.67 15.333 34 23 .33-.333.67-.667 1-1a217 217 0 0 1-7.5-19c-1.01-11.981 3.66-20.981 14-27 .95.405 1.61 1.072 2 2a412 412 0 0 0 13.5 33"/><path fill="#152344" d="M173 382.01q3.433 2.83 8 4a196 196 0 0 0 18 7q2.3 2.617 6 3a7438 7438 0 0 0 105 43q2.295 2.617 6 3c13.28 6.585 22.94 16.585 29 30 .96 3.895 2.3 7.56 4 11 .64 4.086.97 8.252 1 12.5.22 5.432-.45 10.599-2 15.5q-.93-.166-1.5-1-.18 3.762-3 6-2.325-1.776-4.5.5c-14.66.5-29.33.667-44 .5q-4.32-7.428-12-11.5a700 700 0 0 1-32-14.5q-2.3-2.617-6-3a11867 11867 0 0 0-41-19q-2.3-2.617-6-3a733 733 0 0 1-33-16.5q-28.203-7.966-44-32.5-.382-3.7-3-6a71.7 71.7 0 0 1-6-22 168 168 0 0 1 1-23q2.365-6.183 9-4.5a2079 2079 0 0 0 51 20.5M730 456.01c-2.85.052-5.18 1.052-7 3a4465 4465 0 0 0-68 32 247 247 0 0 0-19 9 680 680 0 0 0-18 9.5 66 66 0 0 1-6 7.5c-15.67.167-31.34 0-47-.5q-4.71-.947-3-5-10.185-37.45 19.5-62.5c.33.333.67.667 1 1 .83-1.5 2-2.667 3.5-3.5q4.545-.826 9-4a18.3 18.3 0 0 0 2-3.5c4.74-1.802 9.4-3.802 14-6 2.29-.256 4.46.077 6.5 1 4.65-2.576 9.48-5.076 14.5-7.5 1.28-.684 2.45-.517 3.5.5.83-1 1.67-2 2.5-3 .67.667 1.33 1.333 2 2-.44-1.453.23-2.62 2-3.5a88.8 88.8 0 0 0 19.5-8.5c.33.333.67.667 1 1 .48-.948.65-1.948.5-3a348 348 0 0 1 34-14c3.04-.78 5.71-2.113 8-4 7.41-3.044 14.74-6.044 22-9q5.64.644 10.5-2c.33.333.67.667 1 1 3.43-2.892 7.1-4.56 11-5q4.38-3.159 12-6c.33.333.67.667 1 1a89 89 0 0 1 13.5-7.5 2.42 2.42 0 0 0-2-.5q3.105-1.312 6-3.5 6.105-2.439 12 0c1.39 1.17 2.23 2.67 2.5 4.5 4.64 33.013-7.2 58.179-35.5 75.5a325 325 0 0 0-29 13.5"/><path fill="#283047" d="M774 366.01c.74-.131 1.41.036 2 .5a89 89 0 0 0-13.5 7.5c-.33-.333-.67-.667-1-1q-7.62 2.841-12 6c-3.9.44-7.57 2.108-11 5-.33-.333-.67-.667-1-1q-4.86 2.644-10.5 2a2186 2186 0 0 0 47-19"/><path fill="#5f6777" d="M113 366.01a168 168 0 0 0-1 23q-1.732-10.231-.5-21 .417-1.373 1.5-2"/><path fill="#8b929f" d="M436 375.01q2.625 2.3 3 6-2.625-2.3-3-6"/><path fill="#8a919f" d="M173 382.01q4.832.594 8 4-4.567-1.17-8-4"/><path fill="#b0b7c2" d="M453 393.01c9.82.562 19.48 1.229 29 2-8.67.166-17.34 0-26-.5q-1.86-.348-3-1.5"/><path fill="#707887" d="M199 393.01q3.7.383 6 3-3.7-.383-6-3"/><path fill="#808796" d="M705 394.01c-2.29 1.887-4.96 3.22-8 4 2.11-2.271 4.78-3.604 8-4"/><path fill="#6d7584" d="M399 407.01c.54.06.88.393 1 1a442 442 0 0 1-42 1v5c-.96-1.765-1.29-3.765-1-6q21.27.494 42-1"/><path fill="#959ca9" d="M466 413.01v-4h-25v5c-1.24-1.714-1.91-3.714-2-6h28c.28 1.915-.05 3.58-1 5"/><path fill="#f0f1f3" d="M466 413.01c-4.25 8.502-10.92 11.002-20 7.5-2.05-1.965-3.72-4.132-5-6.5v-5h25z"/><path fill="#283047" d="M663 412.01a4.95 4.95 0 0 1-.5 3c-.33-.333-.67-.667-1-1a88.8 88.8 0 0 1-19.5 8.5c-1.77.88-2.44 2.047-2 3.5-.67-.667-1.33-1.333-2-2-.83 1-1.67 2-2.5 3-1.05-1.017-2.22-1.184-3.5-.5a291 291 0 0 0-14.5 7.5c-2.04-.923-4.21-1.256-6.5-1 17.23-6.935 34.56-13.935 52-21"/><path fill="#6d7584" d="M118 411.01q2.618 2.3 3 6-2.618-2.3-3-6"/><path fill="#727988" d="M310 439.01q3.885-.06 6 3-3.705-.383-6-3"/><path fill="#6f7786" d="M730 456.01c-2.01 1.565-4.34 2.565-7 3 1.82-1.948 4.15-2.948 7-3"/><path fill="#7d8493" d="M395 466.01c-.42.722-1.08 1.222-2 1.5-4.52.814-8.85.647-13-.5q7.575.244 15-1"/><path fill="#8d94a1" d="M198 466.01q3.7.383 6 3-3.7-.383-6-3"/><path fill="#939aa7" d="M345 472.01c2.49 3.126 3.82 6.792 4 11a53.8 53.8 0 0 1-4-11"/><path fill="#222b42" d="M597 439.01a18.3 18.3 0 0 1-2 3.5q-4.455 3.174-9 4c-1.5.833-2.67 2-3.5 3.5-.33-.333-.67-.667-1-1q-29.685 25.05-19.5 62.5-1.71 4.053 3 5c15.66.5 31.33.667 47 .5v1c-17.57.63-34.9-.036-52-2a43.2 43.2 0 0 1-2-11c-.17-8.362.17-16.695 1-25 5.78-20.11 18.45-33.777 38-41"/><path fill="#6b7382" d="M498 469.01c1.64 4.734 2.31 9.734 2 15-1.64-4.734-2.31-9.734-2-15"/><path fill="#838a98" d="M500 484.01c1.54 2.338 2.21 5.005 2 8-1.27-2.405-1.93-5.072-2-8"/><path fill="#162344" d="M261 519.01v67h-3l-81-20q-2.403-2.361-6-2-53.12-10.866-68.5-63a25.2 25.2 0 0 1 0-10q3.316-4.185 8.5-2.5a58955 58955 0 0 1 150 30.5"/><path fill="#8b929f" d="M245 488.01q3.7.383 6 3-3.7-.383-6-3"/><path fill="#232c42" d="M803 504.01c-.62-.417-.96-1.084-1-2 .83-3.133 1.5-5.966 2-8.5a7 7 0 0 1-2.5-3.5c-8.02.759-15.68 2.426-23 5-1.27-.116-2.6-.45-4-1-4.68 2.22-9.52 2.886-14.5 2a922 922 0 0 0 33-7.5c9.89-2.111 13.72 1.722 11.5 11.5q-.315 2.336-1.5 4"/><path fill="#152344" d="M803 504.01c-8.84 29.674-28.17 48.84-58 57.5a712 712 0 0 0-48 12.5c-5.59.732-10.93 2.065-16 4a450 450 0 0 0-32 8h-3v-67q1.065-1.356 3-1c5.32-.83 10.65-1.662 16-2.5.92-.278 1.58-.778 2-1.5a189 189 0 0 1 22-4q6.09.022 12-1.5c.56-.383.89-.883 1-1.5h1c5.58 1.145 10.91 1.145 16 0q16.98-5.205 33-7.5c.56-.383.89-.883 1-1.5 2.05.098 3.72-.57 5-2h2c4.98.886 9.82.22 14.5-2 1.4.55 2.73.884 4 1 7.32-2.574 14.98-4.241 23-5a7 7 0 0 0 2.5 3.5c-.5 2.534-1.17 5.367-2 8.5.04.916.38 1.583 1 2"/><path fill="#505869" d="M559 480.01a209 209 0 0 0-1 25c-1.16-7.49-1.32-15.155-.5-23q.42-1.373 1.5-2"/><path fill="#c1c6cf" d="M655 491.01a32.5 32.5 0 0 1-4.5 6c-1.4-.551-2.73-.884-4-1q-4.62 3.424-10.5 4a247 247 0 0 1 19-9"/><path fill="#68707f" d="M758 496.01c-1.28 1.43-2.95 2.098-5 2q-4.53.306-9 1c.42-.722 1.08-1.222 2-1.5q5.985-.963 12-1.5"/><path fill="#2b3349" d="M753 498.01c-.11.617-.44 1.117-1 1.5q-16.02 2.295-33 7.5c-5.09 1.145-10.42 1.145-16 0 13.38-3.4 27.04-6.067 41-8q4.47-.694 9-1"/><path fill="#4f5869" d="M702 507.01c-.11.617-.44 1.117-1 1.5a47.2 47.2 0 0 1-12 1.5c4.05-1.76 8.38-2.76 13-3"/><path fill="#2b3549" d="M393 509.01c-1.02 3.52-3.35 5.687-7 6.5.33.333.67.667 1 1 44.67.667 89.33.667 134 0-2.67-1.667-5.33-3.333-8-5 .92-.278 1.58-.778 2-1.5 2.6.968 4.93 2.3 7 4 3 1.762 6.34 2.928 10 3.5q-78.255 1.248-156-.5a66.2 66.2 0 0 0 17-8"/><path fill="#6d7484" d="M667 514.01c-.42.722-1.08 1.222-2 1.5-5.35.838-10.68 1.67-16 2.5v-1a213 213 0 0 1 18-3"/><path fill="#2a3347" d="M348 511.01a14.75 14.75 0 0 1-2 6.5q-25.755 1.243-51-.5c14.67.167 29.34 0 44-.5q2.175-2.276 4.5-.5 2.82-2.238 3-6 .57.834 1.5 1"/><path fill="#b5bbc5" d="M522 514.01c5.01.2 9.67 1.533 14 4q-82.5 2-165 0c1.55-.952 3.21-1.285 5-1a4060 4060 0 0 0 156 .5c-3.66-.572-7-1.738-10-3.5"/><path fill="#b3b9c4" d="M560 516.01c17.1 1.964 34.43 2.63 52 2-17.16.997-34.49 1.33-52 1z"/><path fill="#d2d7e0" d="M649 517.01v1q-1.935-.356-3 1c-1 22.494-1.33 45.16-1 68-1-23.161-1.33-46.494-1-70z"/><path fill="#818896" d="M261 519.01c1 22.494 1.33 45.16 1 68-1.6.268-2.93-.066-4-1h3z"/><path fill="#656d7d" d="M646 519.01v67h3c-1.07.934-2.4 1.268-4 1-.33-22.84 0-45.506 1-68"/><path fill="#99a0ac" d="M608 546.01H306c-3.92-.475-7.25.525-10 3h-2c.84-1.673 2.18-2.84 4-3.5 103.5-.833 206.83-.666 310 .5"/><path fill="#2d374a" d="M306 546.01h302c1.93.61 3.6 1.61 5 3h-1c-1.32-.17-2.49.163-3.5 1-.46-.594-.63-1.261-.5-2-100.1-.67-200.76-1.336-302-2"/><path fill="#111b33" d="M306 546.01c101.24.664 201.9 1.33 302 2-98.36.028-198.03.028-299 0-3.6-.244-6.94.422-10 2a5.6 5.6 0 0 0-3-1c2.75-2.475 6.08-3.475 10-3"/><path fill="#152344" d="M608 548.01c-.13.739.04 1.406.5 2 1.01-.837 2.18-1.17 3.5-1-.25 1.752.58 3.419 2.5 5q.375 2.9 1.5 5.5-1.83 111.083 0 224c-.67 3-1.33 6-2 9 .59.464 1.26.63 2 .5-1.95 13.485-6.79 25.818-14.5 37-19.9 28.233-45.06 50.4-75.5 66.5a444 444 0 0 1-50 26l-22.5 7.5c-6.21-1.4-12.38-3.234-18.5-5.5q-46.83-18.881-87-49c-18.72-14.968-34.55-32.468-47.5-52.5a657 657 0 0 1-7.5-19c1 .03 1.66-.47 2-1.5a123 123 0 0 1-3.5-13.5q-1.005-117 0-234 1.995-3.24 4.5-6 1.62.059 3 1c3.06-1.578 6.4-2.244 10-2 100.97.028 200.64.028 299 0"/><path fill="#1b253b" d="M294 549.01h2a40.5 40.5 0 0 0-4.5 6q-1.005 117 0 234c.91 4.569 2.08 9.069 3.5 13.5-.34 1.03-1 1.53-2 1.5a5617 5617 0 0 0-4-18c-.17-76.334 0-152.667.5-229a42 42 0 0 0 1.5-5 6.58 6.58 0 0 1 3-3"/><path fill="#283047" d="M612 549.01h1q2.58 2.63 4.5 6c.17 39 .33 78 .5 117-.02 40.417-.69 80.75-2 121a2.42 2.42 0 0 1-2-.5c.67-3 1.33-6 2-9q-1.83-112.917 0-224a20.4 20.4 0 0 1-1.5-5.5c-1.92-1.581-2.75-3.248-2.5-5"/><path fill="#b4bac5" d="M291 552.01a42 42 0 0 1-1.5 5c-.5 76.333-.67 152.666-.5 229a8814 8814 0 0 1-.5-230c.2-1.82 1.03-3.153 2.5-4"/><path fill="#999fac" d="M171 564.01q3.597-.361 6 2-3.597.36-6-2"/><path fill="#571436" d="M590 573.01c-45.64.009-90.97.009-136 0 45.33-1.333 90.67-1.333 136 0"/><path fill="#c22e4b" d="M453 573.01h1c45.03.009 90.36.009 136 0v2H455v139q1.935-.356 3 1h-5v-142"/><path fill="#571436" d="M590 573.01c1.33 23.657 2 47.657 2 72 0 24.169-.33 48.169-1 72 .17-.992-.16-1.658-1-2v-1q1.86-69.139 0-139z"/><path fill="#f8f8f8" d="M453 574.01v141H317v-141z"/><path fill="#f70034" d="M590 575.01q1.86 69.861 0 139-66.435-.473-132 1-1.065-1.356-3-1v-139z"/><path fill="#abb1bc" d="M453 573.01v1H317v141h-1v-142z"/><path fill="#b0b6c1" d="M697 574.01c-5 2.249-10.33 3.583-16 4 5.07-1.935 10.41-3.268 16-4"/><path fill="#dfe4eb" d="M219 600.01a3602 3602 0 0 0-119 1q.166-.925 1-1.5 59.253-1.247 118 .5"/><path fill="#dee3ea" d="M678 600.01c42.5-1.165 85.16-1.331 128-.5.88.708 1.55 1.542 2 2.5a5.7 5.7 0 0 1-3-1 4032 4032 0 0 0-127-1"/><path fill="#636b7b" d="M678 600.01c42.5-.332 84.84 0 127 1H646v62c-1-20.493-1.33-41.16-1-62q16.23-1.492 33-1"/><path fill="#252d44" d="M219 600.01a442 442 0 0 1 42 1v62h-18q-3.161-1.452-7-1 11.74-1.044 24 0-.06-29.79 0-59l-5-1q-75.334 1.334-149.5 0a15.3 15.3 0 0 1-4.5 1.5l-2 4q2.45 16.144 12 27-.834.575-1 1.5-12.362-14.215-12-33 1.533-.533 2-2a3602 3602 0 0 1 119-1"/><path fill="#838a97" d="M261 601.01c1 20.827 1.33 41.827 1 63q-11.279.488-22-1h21z"/><path fill="#d5dae2" d="M645 601.01c-.33 20.84 0 41.507 1 62 8.49.693 17.16.693 26 0-9.03 1.95-18.19 2.284-27.5 1-.83-21.171-.66-42.171.5-63"/><path fill="#131d35" d="M805 601.01q1.335.915 3 1 3.63 6.804 0 14h-1c-.91-2.89-.58-5.723 1-8.5q-1.365-3.5-4.5-5.5a3004 3004 0 0 1-155 0q-2.115 28.663-1.5 56.5c.17 1.167.33 2.333.5 3.5.33-.333.67-.667 1-1 2.94.628 5.77 1.295 8.5 2h-11v-62z"/><path fill="#152344" d="M236 662.01a1738 1738 0 0 0-43-2 368 368 0 0 0-35-1q-7.209-1.64-15-2-20.829-3.852-33-21 .166-.925 1-1.5-9.55-10.856-12-27l2-4a15.3 15.3 0 0 0 4.5-1.5q74.166 1.334 149.5 0l5 1q-.06 29.21 0 59-12.26-1.044-24 0M807 616.01a128 128 0 0 1-4 12c-14.37 21.685-34.7 32.019-61 31-8.67-.166-17.34 0-26 .5q-3.315.285-6 1.5h-2c-11.67.167-23.34.5-35 1a69.3 69.3 0 0 0-16 1c-2.73-.705-5.56-1.372-8.5-2-.33.333-.67.667-1 1-.17-1.167-.33-2.333-.5-3.5q-.615-27.837 1.5-56.5a3004 3004 0 0 0 155 0q3.135 2 4.5 5.5c-1.58 2.777-1.91 5.61-1 8.5"/><path fill="#172343" d="M389 616.01q2.85 8.466 6 17a394 394 0 0 0 28 1.5c.46.414.79.914 1 1.5a526 526 0 0 1-21.5 16q.09 9.63 4.5 18c.67 3.667 1.33 7.333 2 11a41 41 0 0 1-8-3.5 225 225 0 0 0-16-11.5 428 428 0 0 0-23 15q-.195-13.785 6-26.5c-1.24-2.272-2.91-4.106-5-5.5q1.65-1.345 0-2.5l-12-8a6.58 6.58 0 0 1 3-3l22-1a142 142 0 0 0 8.5-23.5q3.03 1.952 4.5 5"/><path fill="#283047" d="M389 616.01q-1.47-3.048-4.5-5a142 142 0 0 1-8.5 23.5l-22 1a6.58 6.58 0 0 0-3 3l12 8q1.65 1.155 0 2.5a295 295 0 0 1-16.5-12q-1.005-1 0-2 14.13-1.477 28.5-1a196 196 0 0 1 8-26c1.22-1.211 2.39-1.211 3.5 0 1.71 2.409 2.54 5.075 2.5 8"/><path fill="#a7adb9" d="M807 616.01h1q-.81 5.4-3 10.5c-.34 1.03-1 1.53-2 1.5 1.53-3.938 2.87-7.938 4-12"/><path fill="#e0c7b9" d="M1 484.01h1v306Q.999 637.406 0 484.51q.343-.599 1-.5" opacity=".212"/><path fill="#586070" d="M143 657.01q7.791.36 15 2-7.899.466-15-2"/><path fill="#50596a" d="M742 659.01c-10.5.965-21.16 1.63-32 2q2.685-1.215 6-1.5c8.66-.5 17.33-.666 26-.5"/><path fill="#808795" d="M158 659.01q17.54-.332 35 1v1q-17.789.04-35-2"/><path fill="#646b7b" d="M193 661.01v-1q21.513.734 43 2 3.839-.452 7 1h-3q-23.525-.469-47-2"/><path fill="#596172" d="M673 662.01v1h-1c-8.84.693-17.51.693-26 0h11a69.3 69.3 0 0 1 16-1"/><path fill="#afb5c0" d="M708 661.01c-11.47 1.49-23.13 2.158-35 2v-1c11.66-.5 23.33-.833 35-1"/><path fill="#6f7786" d="M407 670.01c2.39 3.463 3.06 7.129 2 11-.67-3.667-1.33-7.333-2-11"/><path fill="#808795" d="M261 678.01c1 20.16 1.33 40.493 1 61h-4q1.065-1.356 3-1z"/><path fill="#646c7c" d="M650 679.01h-4v59c5.95.207 11.61 1.207 17 3q-9.015-.86-18-2v-61c1.91-.284 3.58.049 5 1"/><path fill="#202840" d="M261 678.01v60q-1.935-.356-3 1h-4c-.11-.617-.44-1.117-1-1.5a53 53 0 0 1 7-1.5c.17-18.67 0-37.336-.5-56q-12.089 3.912-25.5 3 4.633-1.927 10-2 5.433.266 10-2c2.11-.968 4.44-1.302 7-1"/><path fill="#828997" d="M254 679.01q-4.567 2.266-10 2 4.633-1.927 10-2"/><path fill="#152344" d="M254 739.01q-8.92.31-17 3a310 310 0 0 0-37 6q-11.007-.555-21 3h-7a103.3 103.3 0 0 1-25-2q-25.534-8.27-36-33-.32-4.427 2-8a173 173 0 0 1 14-4 460 460 0 0 0 21-3 243 243 0 0 0 23-3q2.744 1.174 4.5-2l1 1a37 37 0 0 1 4.5-2q3.801.099 7.5 0 2.125-.867 2.5-3a5.73 5.73 0 0 0 3-1q2.435-.21 3.5 2 16.113-2.855 32.5-9 2.188.1 4-1 13.411.912 25.5-3c.5 18.664.67 37.33.5 56-2.35.338-4.69.838-7 1.5.56.383.89.883 1 1.5M650 679.01c4.29.925 8.62 1.59 13 2 2.01 1.424 4.35 2.09 7 2h4q5.16 3.081 10.5 6a6.3 6.3 0 0 1 3-1 1216 1216 0 0 1 30 7c2.03-.486 4.19-.486 6.5 0 .1 3.81.76 3.81 2 0 3.37 2.246 6.54 2.913 9.5 2a6.58 6.58 0 0 1 3 3q1.035-3.587 3 0 3.57-1.402 7.5-1a360 360 0 0 1 45 9.5c1.39.956 2.06 2.289 2 4q-9.825 28.574-39 37.5a158.4 158.4 0 0 1-33 0h-2q-4.08-2.12-9-2c-16.7-2.34-33.37-4.673-50-7-5.39-1.793-11.05-2.793-17-3v-59z"/><path fill="#6d7584" d="M663 681.01c2.73-.33 5.06.337 7 2-2.65.09-4.99-.576-7-2"/><path fill="#30384e" d="M230 684.01q-16.387 6.145-32.5 9-1.065-2.21-3.5-2a504 504 0 0 1 36-7"/><path fill="#1e273e" d="M674 683.01q37.68 8.013 75 16-3.93-.402-7.5 1-1.965-3.587-3 0a6.58 6.58 0 0 0-3-3c-2.96.913-6.13.246-9.5-2-1.24 3.81-1.9 3.81-2 0-2.31-.486-4.47-.486-6.5 0a1216 1216 0 0 0-30-7 6.3 6.3 0 0 0-3 1 318 318 0 0 1-10.5-6"/><path fill="#2d354c" d="M191 692.01q-.375 2.133-2.5 3-3.699.099-7.5 0a37 37 0 0 0-4.5 2l-1-1q-1.756 3.174-4.5 2a243 243 0 0 1-23 3v-1a1220 1220 0 0 1 43-8"/><path fill="#888f9c" d="M148 700.01v1a460 460 0 0 1-21 3q10.103-3.095 21-4"/><path fill="#949ba8" d="M113 708.01q-2.32 3.573-2 8-2.526-4.827 2-8"/><path fill="#cc4a64" d="M590 714.01v1c-45.16.999-90.5 1.332-136 1v-1h4q65.565-1.473 132-1"/><path fill="#111b33" d="M316 716.01c45.84-.332 91.5 0 137 1a196 196 0 0 0-1.5 20c-.5-6.325-.67-12.658-.5-19q-64.47.435-127.5-1l-6 2c-.83-.833-1.67-1.667-2.5-2.5.23-.4.56-.565 1-.5"/><path fill="#9aa1ad" d="M316 716.01v-1h138v1c-.66 62.009 0 123.676 2 185q-1.065 1.356-3 1v-185c-45.5-1-91.16-1.332-137-1"/><path fill="#f8f8f8" d="M590 715.01c.84.342 1.17 1.008 1 2q.645 36.051-1.5 72c-6.73 21.94-18.9 40.44-36.5 55.5a348.8 348.8 0 0 1-55 37 1209 1209 0 0 1-42 19.5c-2-61.324-2.66-122.991-2-185 45.5.332 90.84-.001 136-1"/><path fill="#787f8e" d="M254 739.01q-8.132 2.472-17 3 8.08-2.69 17-3"/><path fill="#adb3bf" d="M200 748.01q-10.164 2.452-21 3 9.993-3.555 21-3"/><path fill="#7c8391" d="M713 748.01q4.92-.12 9 2-4.92.12-9-2"/><path fill="#616879" d="M724 750.01a158.4 158.4 0 0 0 33 0q-7.095 2.32-15 2-9.345.18-18-2"/><path fill="#545b6c" d="M147 749.01a103.3 103.3 0 0 0 25 2q-8.728 1.729-18 .5-3.906-.586-7-2.5"/><path fill="#f40d36" d="M526 758.01c-.38 2.198.29 3.865 2 5 1.49 4.283 2.82 8.616 4 13 .11.617.44 1.117 1 1.5 9.06-.142 17.72.69 26 2.5-.83 1.764-2.16 3.098-4 4-3.49.164-5.82 1.83-7 5-2.93 2.807-6.26 5.14-10 7a66.9 66.9 0 0 1 6 17c-.28.716-.62 1.549-1 2.5a10.4 10.4 0 0 0 3 2.5v1c.44 1.38-.4 2.38-2.5 3-3.33-2.667-6.67-5.333-10-8-.4.228-.57.562-.5 1a114 114 0 0 1-11.5-7 318 318 0 0 1-17.5 13q-2.46-.32-4.5 1c-.17-.5-.33-1-.5-1.5a54.4 54.4 0 0 0 4-16.5c.22-2.287.89-4.453 2-6.5-.24-.902-.58-1.735-1-2.5.11-.617.44-1.117 1-1.5q-2.58-2.339-6-2.5c.09-.996-.25-1.83-1-2.5q-2.58-2.339-6-2.5a18.4 18.4 0 0 1-6-4c1.27-1.287.93-2.287-1-3q14.055-.525 27-3c1.09-.12 1.75-.787 2-2a97 97 0 0 1 6-16.5c-.38-.951-.72-1.784-1-2.5-.24-4.027 1.43-5.361 5-4a21 21 0 0 1 2 7"/><path fill="#5d6575" d="M648 753.01a341 341 0 0 0-3 37v-38q1.935-.356 3 1"/><path fill="#162445" d="M246 818.01q-8.123 1.04-15 5a492 492 0 0 0-44 15.5q-16.671 5.231-33-.5a4.93 4.93 0 0 0-.5-3q-2.486-1.007-6 0a9.5 9.5 0 0 0-1.5-2.5q-8.849-4.48-14-11l1-1a21.7 21.7 0 0 1-7-6.5q1.321-2.206 4-2.5a3.65 3.65 0 0 1-1-1.5q12.895-7.368 28-12.5l6-3q-.834-.575-1-1.5a9099 9099 0 0 1 73-30q6.601-1.358 12-5 6.725-3.255 14-6a364 364 0 0 0 5 59 113 113 0 0 0-20 7"/><path fill="#162344" d="M649 754.01a138 138 0 0 1 26 10.5 374 374 0 0 1 31 13c8.6 3.474 17.27 6.64 26 9.5 2.98 2.159 6.32 3.825 10 5q8.7 4.07 18 7 2.295 2.617 6 3 8.175 2.392 15 7a21.5 21.5 0 0 1 1 7q-25.545 33.642-66 21-5.37-3.46-12-4a1129 1129 0 0 1-50-18c-.36-1.37-1.19-2.37-2.5-3-3.17-.667-6-2-8.5-4a62.5 62.5 0 0 0 3.5-16q.285-18.069 1.5-36c-1.48-1.444-1.15-2.111 1-2"/><path fill="#232b42" d="M648 753.01c.67 0 1 .333 1 1-2.15-.111-2.48.556-1 2a694 694 0 0 0-1.5 36 62.5 62.5 0 0 1-3.5 16c2.5 2 5.33 3.333 8.5 4 1.31.63 2.14 1.63 2.5 3a52.4 52.4 0 0 1-12.5-5c.26-6.914 1.43-13.581 3.5-20a341 341 0 0 1 3-37"/><path fill="#555d6e" d="M247 758.01q-5.399 3.642-12 5 5.178-4.079 12-5"/><path fill="#d45d77" d="M526 758.01c1.04 1.43 1.7 3.097 2 5-1.71-1.135-2.38-2.802-2-5"/><path fill="#c63954" d="M519 755.01c.28.716.62 1.549 1 2.5a97 97 0 0 0-6 16.5c-.25 1.213-.91 1.88-2 2 2.1-7.17 4.43-14.17 7-21"/><path fill="#c73c56" d="M512 776.01q-12.945 2.475-27 3c1.93.713 2.27 1.713 1 3-3.23-1.494-3.57-3.327-1-5.5q13.485-.75 27-.5"/><path fill="#c73b56" d="M532 776.01c9.36-.332 18.69.002 28 1 1.59 1.725 1.26 2.725-1 3-8.28-1.81-16.94-2.642-26-2.5-.56-.383-.89-.883-1-1.5"/><path fill="#ca435d" d="M555 784.01a39.3 39.3 0 0 1-7 5c1.18-3.17 3.51-4.836 7-5"/><path fill="#c73c56" d="M492 786.01q3.42.161 6 2.5c.75.67 1.09 1.504 1 2.5a39.3 39.3 0 0 1-7-5"/><path fill="#b0b6c0" d="M732 787.01c2.32.66 4.65 1.327 7 2q2.52.552 3 3c-3.68-1.175-7.02-2.841-10-5"/><path fill="#c93c56" d="M499 791.01q3.42.161 6 2.5c-.56.383-.89.883-1 1.5a21.5 21.5 0 0 1-5-4"/><path fill="#707887" d="M760 799.01q3.705.383 6 3-3.705-.383-6-3"/><path fill="#8e95a2" d="M781 809.01c1.49.812 2.16 2.145 2 4-.02 1.226-.35 2.226-1 3 .05-2.403-.28-4.736-1-7"/><path fill="#cf516b" d="M544 813.01c1.04 1.43 1.7 3.097 2 5a10.4 10.4 0 0 1-3-2.5c.38-.951.72-1.784 1-2.5"/><path fill="#d1b9a3" d="M29 808.01a335 335 0 0 1 3 27q-3.321-13.09-3-27"/><path fill="#212a41" d="M162 793.01q.166.925 1 1.5l-6 3q-15.105 5.132-28 12.5a3.65 3.65 0 0 0 1 1.5q-2.679.294-4 2.5a21.7 21.7 0 0 0 7 6.5l-1 1q5.151 6.52 14 11a9.5 9.5 0 0 1 1.5 2.5q3.514-1.007 6 0 .724 1.422.5 3-14.497-4.385-24.5-16l-4-6q-2.464-7.392 4.5-10.5a658 658 0 0 1 32-12.5"/><path fill="#a4aab6" d="M246 818.01q-7.074 3.358-15 5 6.877-3.96 15-5"/><path fill="#c83e58" d="M503 804.01a54.4 54.4 0 0 1-4 16.5c.17.5.33 1 .5 1.5q2.04-1.32 4.5-1a22.2 22.2 0 0 1-4.5 3c-1.5-.167-2.33-1-2.5-2.5a215 215 0 0 1 6-17.5"/><path fill="#c83b55" d="M546 819.01c1.1 1.1 1.26 2.434.5 4-.56.522-1.23.855-2 1a50.6 50.6 0 0 1-11.5-9c-.07-.438.1-.772.5-1 3.33 2.667 6.67 5.333 10 8 2.1-.62 2.94-1.62 2.5-3"/><path fill="#5f6777" d="M704 833.01q6.63.54 12 4-6.63-.541-12-4"/><path fill="#242c43" d="M574 922.01c-.02 1.528-.68 2.028-2 1.5 1.13-1.016.8-1.683-1-2 .67-.333 1.33-.667 2-1a6.97 6.97 0 0 1-3.5-2.5l-4.5-9c-7.17 3.423-14.5 7.256-22 11.5 1.15.914.99 1.747-.5 2.5a3.6 3.6 0 0 0-1.5-1 41 41 0 0 0-7 5c-.8-.457-1.13-1.124-1-2a448 448 0 0 0 31-20c4.63 4.94 7.97 10.607 10 17"/><path fill="#ddc1ac" d="M884 905.01c-25.58 68.75-68.58 123.91-129 165.5-.95.48-1.95.65-3 .5 35.91-24.91 66.58-55.24 92-91a9.13 9.13 0 0 0 1-5c1.18.22 2.18-.11 3-1a484 484 0 0 0 36-69" opacity=".361"/><path fill="#162344" d="M331 983.01c-7.03.12-14.03-.21-21-1-6.72-2.13-8.56-6.46-5.5-13a470 470 0 0 0 15.5-26c2.29-1.12 4.12-2.79 5.5-5 1.95-4.27 4.28-8.27 7-12a44.8 44.8 0 0 0 2.5-9 60.2 60.2 0 0 0 6-12 980 980 0 0 0 46 28 222.7 222.7 0 0 1-27 38.5c-4.24 2.85-8.57 5.52-13 8a69.3 69.3 0 0 1-16 3.5M574 922.01c.96.453 1.79 1.119 2.5 2a977 977 0 0 0 27 48q2.37 6.99-4.5 9c-2.57.22-4.9.89-7 2-22.55 3.49-40.71-3.84-54.5-22-6.03-9.2-11.86-18.53-17.5-28 3.69-3.78 8.02-6.444 13-8-.13.876.2 1.543 1 2a41 41 0 0 1 7-5q.885.314 1.5 1c1.49-.753 1.65-1.586.5-2.5 7.5-4.244 14.83-8.077 22-11.5l4.5 9a6.97 6.97 0 0 0 3.5 2.5c-.67.333-1.33.667-2 1 1.8.317 2.13.984 1 2 1.32.528 1.98.028 2-1.5"/><path fill="#2c344a" d="M335 917.01a44.8 44.8 0 0 1-2.5 9 69 69 0 0 0-7 12c-1.38 2.21-3.21 3.88-5.5 5 5-8.67 10-17.341 15-26"/><path fill="#2d354b" d="M417 946.01c-8-.72-15-3.05-21-7-.93 1.61-1.76 3.28-2.5 5-.67.75-1.5 1.09-2.5 1q-.435-6.03 4.5-9a125.3 125.3 0 0 0 21.5 10"/><path fill="#172445" d="M545 1034.01c.77 3.65 2.1 6.98 4 10 1.82 5.62 3.49 11.29 5 17l3 14c-.42 2.25-1.75 3.75-4 4.5-22.92 2.29-41.08-5.88-54.5-24.5a3957 3957 0 0 1-30-79l-2-2a63.4 63.4 0 0 1-4.5-18c4.34-1.06 8.68-2.22 13-3.5 13.11-5.9 26.11-11.73 39-17.5 10.14 33.07 20.47 66.07 31 99"/><path fill="#162344" d="M417 946.01c9.51 4.25 19.17 8.25 29 12a1429 1429 0 0 0-28 74.5c-3.54 7.03-6.71 14.2-9.5 21.5-9.35 13.75-22.18 22.09-38.5 25-17.88 2.99-22.71-3.34-14.5-19 .5-2.98.66-5.98.5-9 6.33-19.33 12.67-38.66 19-58 3.2-2.99 5.2-6.83 6-11.5 1.1-3.14 2.1-6.3 3-9.5-.11-.94-.44-1.78-1-2.5 2.73-4.86 5.06-9.86 7-15-.59-.46-1.26-.63-2-.5q.645-4.92 3-9c1 .09 1.83-.25 2.5-1 .74-1.72 1.57-3.39 2.5-5 6 3.95 13 6.28 21 7"/><path fill="#caa788" d="M868 868.01a149 149 0 0 1-3.5 19 444 444 0 0 1-17.5 40.5c-.03 3.56-1.86 7.06-5.5 10.5-4.97 12.61-11.97 23.94-21 34a88.5 88.5 0 0 0-6 11c-1.01-.84-2.18-1.17-3.5-1 8.3-11.82 16.47-23.82 24.5-36 13.68-24.891 24.51-50.891 32.5-78" opacity=".996"/><path fill="#2c344a" d="M388 954.01c.74-.13 1.41.04 2 .5-1.94 5.14-4.27 10.14-7 15 .56.72.89 1.56 1 2.5-.9 3.2-1.9 6.36-3 9.5-.8 4.67-2.8 8.51-6 11.5 3.73-13.2 8.07-26.2 13-39"/><path fill="#626a7a" d="M599 981.01c-1.94 1.66-4.27 2.33-7 2 2.1-1.11 4.43-1.78 7-2"/><path fill="#5d6575" d="M310 982.01c6.97.79 13.97 1.12 21 1-2.81.66-5.81 1-9 1-4.3.22-8.3-.44-12-2"/><path fill="#caa586" d="M809 984.01c.27 1.95-.39 3.45-2 4.5l1 1c-1.53.7-2.53 1.87-3 3.5-.82.89-1.82 1.22-3 1 .16 1.37-.01 2.71-.5 4a341 341 0 0 0-21.5 22.5c-1.29.49-2.63.66-4 .5.15 1.05-.02 2.05-.5 3a35 35 0 0 0-7.5 6.5c-2.74 1.92-5.74 3.08-9 3.5 18.25-14.92 34.92-31.59 50-50" opacity=".996"/><path fill="#dabda6" d="M2 484.01a51774 51774 0 0 1 1.5 322 306 306 0 0 0 4 38c18.421 95.53 67.254 171.2 146.5 227-2.08-.54-4.08-1.38-6-2.5q-127.156-92.174-146-250 .114-14.025 0-28.5z" opacity=".529"/><path fill="#caa687" d="M759 1034.01c1 1.95.83 3.95-.5 6h-4c-.83 1-1.67 2-2.5 3-7.24 3.92-13.74 8.25-19.5 13l-1-1c-3.2 3.31-6.7 6.15-10.5 8.5q-8.16 1.665-12 9-8.58 2.46-15 4.5c22.21-13.6 43.88-27.93 65-43" opacity=".996"/><path fill="#9ba1ae" d="M545 1034.01c2.29 2.84 3.62 6.17 4 10-1.9-3.02-3.23-6.35-4-10"/><path fill="#606878" d="M554 1061.01c2.72 4.44 3.72 9.1 3 14z"/><path fill="#32394f" d="M356 1051.01c.16 3.02 0 6.02-.5 9-8.21 15.66-3.38 21.99 14.5 19-5.48 1.15-11.15 1.32-17 .5-3.17-2.48-4.34-5.65-3.5-9.5 2.9-6.21 5.07-12.54 6.5-19"/><path fill="#cba788" d="M182 1058.01a1896 1896 0 0 0 42 24.5c1.21 1.04 2.21 2.21 3 3.5-3.847-.51-7.18-2.18-10-5-1.896-.97-3.896-1.3-6-1v-3c-3.509.13-6.342-1.2-8.5-4-2.021.74-3.521-.1-4.5-2.5.333-.33.667-.67 1-1-4.147.19-6.98-1.65-8.5-5.5-.333.33-.667.67-1 1a25.5 25.5 0 0 1-5.5-3.5c.333-.33.667-.67 1-1-1.619-.24-2.619-1.07-3-2.5" opacity=".996"/><path fill="#dec2ad" d="M752 1071.01c-1.41 1.92-3.08 3.75-5 5.5-14.68 9-29.34 18-44 27-3.57 1.8-7.24 3.3-11 4.5 20.29-11.82 40.29-24.15 60-37" opacity=".361"/><path fill="#dcc0ab" d="M154 1071.01a593 593 0 0 1 28 16.5 80.4 80.4 0 0 1 10 7.5 31.7 31.7 0 0 1-7-2.5 386 386 0 0 0-28-18c-1.563-.76-2.563-1.93-3-3.5" opacity=".529"/><path fill="#caa889" d="M654 1099.01c-3.81 6.18-9.48 9.18-17 9 .16 1.7-.01 3.37-.5 5-.33-.67-.67-1.33-1-2-7.69 4.29-15.52 7.45-23.5 9.5-1.33.67-1.33 1.33 0 2-3.41 1.93-7.07 2.77-11 2.5 17.44-8.89 35.11-17.55 53-26" opacity=".996"/><path fill="#dcc0ab" d="M192 1095.01a1324 1324 0 0 1 63 35 38 38 0 0 1-8-2.5 1026 1026 0 0 0-44-24 150 150 0 0 1-11-8.5" opacity=".361"/><path fill="#cdaa8c" d="M285 1116.01c9.17 2.59 17.84 6.25 26 11-4.44-.42-8.77-1.42-13-3-.33-.67-.67-1.33-1-2-2.33-.67-4.67-1.33-7-2-2.33-.64-3.99-1.98-5-4" opacity=".996"/><path fill="#dcc0ab" d="M692 1108.01c-.44 1.57-1.44 2.74-3 3.5-64.21 34.16-130.88 62.83-200 86a398 398 0 0 1-32.5 6.5c-12.5-.9-25.33-3.07-38.5-6.5-38.36-12.5-75.69-27-112-43.5 35.96 14.38 72.29 27.88 109 40.5q19.035 6 39 7.5c16.21-1.15 31.88-4.65 47-10.5 66.2-22.44 129.87-50.28 191-83.5" opacity=".529"/><path fill="#cba788" d="M580 1134.01c1.48.97 1.98 2.31 1.5 4-.63-2.49-1.46-2.49-2.5 0-4.4.75-8.4 2.41-12 5-.67-.33-1.33-.67-2-1q-7.845 2.865-13.5 6c-.41-.46-.91-.79-1.5-1-1.08 1.17-1.92 2.5-2.5 4-2.95-.18-6.12-.18-9.5 0v4c-4.05.38-8.38.88-13 1.5l1 1a31.4 31.4 0 0 1-8.5 3.5c-.87-.24-1.71-.57-2.5-1a9.35 9.35 0 0 1-3 3 6.8 6.8 0 0 0-4-1v3c-1.89-.2-3.39.46-4.5 2-2.37.31-4.87-.03-7.5-1 28.02-10.45 56.02-21.12 84-32" opacity=".996"/><path fill="#cca98a" d="M326 1134.01c17.27 6.3 34.27 12.97 51 20-1.32-.17-2.49.16-3.5 1q-14.175-5.55-28.5-10.5l1-1c-3.19-1.44-6.36-2.94-9.5-4.5-2.28.61-4.61.27-7-1-1.75-.91-2.92-2.24-3.5-4" opacity=".996"/><path fill="#dcc0ab" d="M255 1130.01c7.7 2.79 15.37 5.79 23 9 9.47 5.02 18.81 10.02 28 15-12.61-4.7-24.95-9.87-37-15.5-4.93-2.62-9.6-5.45-14-8.5" opacity=".361"/><path fill="#cca98b" d="M382 1156.01c14.68 4.73 29.35 9.56 44 14.5 7.69 2.34 15.36 4.17 23 5.5-7.17.26-14.5-.24-22-1.5l-2-2c-5.26-.26-9.76-2.09-13.5-5.5-.33.67-.67 1.33-1 2-1.34-1.5-3-2.5-5-3l-1 1c-1.8-1.5-3.63-3-5.5-4.5-3.94.48-7.77-.35-11.5-2.5l-1 1c-1.93-1.6-4.1-2.77-6.5-3.5.92-.28 1.58-.78 2-1.5" opacity=".996"/><path fill="#cba889" d="M496 1166.01v3c-9.48 2.09-18.98 4.76-28.5 8-4.33-1.28-8.16-.95-11.5 1-1.1-1.12-2.27-1.12-3.5 0-1.46-.31-2.63-.97-3.5-2 5.23.04 10.9-.46 17-1.5 10-2.95 20-5.78 30-8.5" opacity=".996"/></svg>