<svg xmlns="http://www.w3.org/2000/svg" xml:space="preserve" viewBox="0.45 0.35 99.36 99.49"><path d="M2236.38 4475.64c1235.01 0 2236.19-1001.18 2236.19-2236.19S3471.39 3.262 2236.38 3.262.191 1004.44.191 2239.45 1001.37 4475.64 2236.38 4475.64" style="fill:#00619e;fill-opacity:1;fill-rule:evenodd;stroke:none" transform="matrix(.02222 0 0 -.02224 .45 99.91)"/><path d="M2236.38 4298.48c1137.17 0 2059.03-921.86 2059.03-2059.03S3373.55 180.422 2236.38 180.422 177.352 1102.28 177.352 2239.45 1099.21 4298.48 2236.38 4298.48" style="fill:#fff;fill-opacity:1;fill-rule:evenodd;stroke:none" transform="matrix(.02222 0 0 -.02224 .45 99.91)"/><path d="m2236.38 2917.02 157.33-487.41 512.18.99-414.94-300.26 159.21-486.8-413.78 301.85-413.78-301.85 159.21 486.8-414.94 300.26 512.17-.99z" style="fill:#fc0;fill-opacity:1;fill-rule:evenodd;stroke:none" transform="matrix(.02222 0 0 -.02224 .45 99.91)"/><path d="M513.297 1430.95 1374 2124.29c15.19-114.79 52.72-222.54 108.14-318.67L673.234 1154c-60.703 87.28-114.3 179.87-159.937 276.95m496.563 2263.42 892.06-651.61c-105.27-43.88-200.07-107.82-279.62-187.08l-838.792 612.7a1915.5 1915.5 0 0 0 226.352 225.99m2679.39-225.99-838.8-612.7c-79.54 79.26-174.35 143.2-279.61 187.08l892.05 651.61c81.61-68.89 157.35-144.48 226.36-225.99M3799.52 1154l-808.9 651.62c55.43 96.13 92.95 203.88 108.13 318.67l860.71-693.34A1901 1901 0 0 0 3799.52 1154" style="fill:#cc001c;fill-opacity:1;fill-rule:evenodd;stroke:none" transform="matrix(.02222 0 0 -.02224 .45 99.91)"/><path d="m3381.69 719.633-864.31 696.257c109 37.18 208.24 95.41 292.92 169.81l809.93-652.438a1914 1914 0 0 0-238.54-213.629M616.391 3238.29l839.869-613.49c-49.36-99.74-80.14-210.29-87.87-327.15l-896.726 655.02a1896.4 1896.4 0 0 0 144.727 285.62m3384.699-285.62-896.72-655.02c-7.73 116.87-38.53 227.41-87.87 327.15l839.87 613.49a1899 1899 0 0 0 144.72-285.62M852.527 933.262 1662.45 1585.7c84.69-74.4 183.93-132.62 292.93-169.81l-864.31-696.257a1914.4 1914.4 0 0 0-238.543 213.629" style="fill:#00619e;fill-opacity:1;fill-rule:evenodd;stroke:none" transform="matrix(.02222 0 0 -.02224 .45 99.91)"/><path d="m1942.66 3384.58-38.64 117.45c-59.42-15.21-118.84-15.52-178.25 0l-38.65-117.45c-45.33-15.45-90.65-17.13-135.97 0l198.63 629.64h149.84l182.76-629.64c-46.57-16.1-93.14-16.49-139.72 0m-123.27 458.21-63.71-234.12c39.22-7.56 78.43-7.35 117.64 0zm502.02 178.83c78.3 0 138.43-16.79 180.36-50.35 41.93-33.57 62.89-88.54 62.89-164.91 0-76.97-21.21-132.57-63.65-166.74s-92.58-51.27-171.31-51.27h-50.34v-203.77c-47.31-16.11-94.63-15.53-141.93 0v620.41c25.77 6.15 79.45 10.53 108.2 12.93s54.05 3.7 75.78 3.7m-5.62-122.87c-8.6 0-6.51-.33-14.84-.93a740 740 0 0 1-21.59-1.84v-184.77h37.13c40.92 0 48.06 6.83 68.74 20.33 20.67 13.51 31.07 38.8 31.07 75.75 0 17.86-2.66 32.65-7.96 44.34-5.3 11.7-12.9 21.13-22.73 28.18-9.82 7.06-21.88 12.03-36 14.78-14.13 2.74-16.65 4.16-33.82 4.16m301.77-514.17v634.92h372.69v-134.21H2767.4v-115.47h165.5v-131.59h-168.14v-253.65c-49.06-15.47-98.13-16.15-147.2 0M1480.56 832.84q49.095-28.341 64.02-63.203 14.925-34.854-10.92-79.625c-17.38-30.09-38.79-46.692-64.24-49.817-25.45-3.117-54.64 4.832-87.58 23.848l-15.52 8.961-48.36-83.766-49.41 28.524 142.38 246.613c12.16-3.812 24.53-8.711 37.12-14.695 12.59-5.989 23.43-11.602 32.51-16.84M1456 782.984c-3.59 2.075-7.2 3.996-10.82 5.766-3.62 1.773-6.77 3.27-9.44 4.488l-41.69-72.211 15.52-8.961c17.1-9.875 31.51-14.66 43.22-14.363 11.72.297 21.74 7.668 30.08 22.106 4.03 6.984 6.26 13.402 6.68 19.257.43 5.848-.62 11.348-3.14 16.493-2.52 5.148-6.42 9.972-11.71 14.464-5.29 4.497-11.52 8.817-18.7 12.961m194.03-350.195c1.26 10.277 2.34 20.934 3.25 31.961q1.35 16.536 2.88 33.008c-39.55 2.847-70.63 14.574-91.55 36.988-6.9-8.605-13.85-17.187-20.86-25.746q-10.5-12.842-19.86-25.25l-54.93 22.195c20.47 25.301 39.61 48.598 57.42 69.879q26.7 31.929 51.18 59.809c16.32 18.59 32.08 36.129 47.3 52.617a1563 1563 0 0 0 45.92 47.773l50.52-20.41c.19-21.66.09-43.73-.32-66.199-.4-22.473-1.18-46.062-2.36-70.766-1.17-24.71-2.75-50.902-4.73-78.582q-2.97-41.52-7.23-90.16zm20.3 232.813c-2.69-3.407-6.52-8-11.49-13.793-4.96-5.786-10.69-12.465-17.16-20.039a9421 9421 0 0 1-21.38-25.09 2049 2049 0 0 1-24.12-28.93c17.5-17.578 39.99-26.168 66.8-26.988a4598 4598 0 0 1 2.92 37.492c.88 11.937 1.56 22.902 2.05 32.898.49 9.993.96 18.801 1.41 26.411.44 7.617.77 13.625.97 18.039m221.85-1.024c37.05-8.555 63.71-22.629 79.96-42.211 16.24-19.582 20.71-45.219 13.39-76.906-4.56-19.77-12.24-34.895-23.05-45.383-10.8-10.484-24.5-17.523-41.09-21.109 3.36-8.192 6.73-17.453 10.1-27.789 3.37-10.332 6.58-21.059 9.65-32.18 3.06-11.117 5.85-22.605 8.37-34.453a827 827 0 0 0 6.63-34.692l-62.36 14.395c-7.71 33.117-24.34 110.086-36.08 137.512 24.78 14.691 64.01 28.988 70.55 57.351 3.2 13.813.89 24.684-6.91 32.621q-11.7 11.9-38.43 18.071c-4.04.933-7.69 1.633-10.96 2.101-3.27.469-6.36.903-9.28 1.285l-17.63-76.371-11.63-50.371-23.73-102.785-55.59 12.836 64.06 277.461c12.74-.086 25.71-1.086 38.91-2.988 13.19-1.91 24.9-4.039 35.12-6.395m285.77-337.207a797 797 0 0 1-6.24 31.516 2931 2931 0 0 0-6.89 32.414l-98.37 8.601a3485 3485 0 0 0-12.41-30.718 776 776 0 0 1-11.62-29.957l-59.02 5.164c12.18 30.187 23.68 58.058 34.48 83.617 10.8 25.562 21.29 49.617 31.46 72.164s20.12 43.93 29.84 64.144a1587 1587 0 0 0 29.95 59.114l54.29-4.754a2470 2470 0 0 0 19.04-63.399c6.19-21.605 12.34-44.394 18.44-68.363q9.15-35.961 18.45-76.527 9.3-40.576 19.44-88.336zm-48.66 228.586c-1.57-4.051-3.89-9.566-6.95-16.555-3.06-6.984-6.57-15.047-10.56-24.187q-5.97-13.707-13.11-30.242a2124 2124 0 0 1-14.6-34.715l71.77-6.278a4338 4338 0 0 1-8.17 36.708q-3.975 17.505-7.65 32.058c-2.46 9.699-4.59 18.258-6.39 25.668-1.8 7.414-3.24 13.258-4.34 17.543m276.87 7.828c-26.56-.93-45.45-10-56.68-27.222-11.24-17.215-16.34-40.411-15.32-69.575q.735-21.252 5.73-38.39c3.32-11.426 8.06-21.207 14.2-29.332 6.13-8.129 13.67-14.332 22.6-18.61s19.24-6.215 30.94-5.804c6.33.218 11.76.55 16.25.984q6.75.654 11.82 2.082l-3.5 100.418 57.01 1.992 4.99-142.922q-10.065-4.938-32.55-10.937-22.47-6-55.74-7.16c-19-.664-36.36 2.066-52.06 8.195-15.71 6.121-29.27 15.383-40.67 27.777-11.42 12.395-20.43 27.797-27.05 46.199-6.62 18.403-10.35 39.547-11.18 63.438-.85 24.168 1.7 45.672 7.62 64.516 5.93 18.839 14.4 34.914 25.4 48.234q16.5 19.974 39.36 30.785t49.17 11.731c11.95.418 22.75-.11 32.45-1.579 9.69-1.472 18.04-3.265 25.07-5.382 7.03-2.118 12.84-4.352 17.43-6.692 4.6-2.343 7.89-4.176 9.89-5.496l-14.63-52.656q-11.94 6.674-27.3 11.351c-10.23 3.118-21.31 4.473-33.25 4.055m257.28-210.871c-17.53-3.09-33.15-2.953-46.87.418-13.71 3.363-25.59 9.316-35.64 17.84q-15.075 12.802-24.66 32.488c-6.41 13.121-11.08 28.035-14.02 44.731l-31.21 176.964 56.19 9.911 30.26-171.629c2.03-11.496 4.9-21.082 8.6-28.754q5.55-11.508 12.84-18.059c4.85-4.363 10.3-7.144 16.32-8.34 6.03-1.195 12.41-1.199 19.13-.015q20.535 3.621 30.78 20.25 10.26 16.621 4.17 51.113l-30.26 171.625 56.18 9.906 31.21-176.961c2.94-16.699 3.6-32.386 1.99-47.07-1.62-14.68-5.75-27.754-12.4-39.23q-9.96-17.204-27.96-28.848c-12-7.762-26.89-13.207-44.65-16.34m333.13 102.43a782 782 0 0 1-18.52 26.258 3203 3203 0 0 0-19.48 26.804c-26.93-17.797-57.59-29.246-93.36-32.148.44-11.02.83-22.059 1.16-33.117a791 791 0 0 1 1.57-32.09l-56.02-19.285c-1.15 32.527-1.98 62.668-2.51 90.41-.53 27.746-.73 53.984-.61 78.722q.18 37.102 1.17 70.735c.66 22.422 1.76 44.484 3.32 66.183l51.52 17.739a2503 2503 0 0 0 43.19-50.168c14.44-17.223 29.32-35.543 44.65-54.961 15.32-19.414 31.32-40.219 47.98-62.406 16.67-22.192 34.56-46.45 53.69-72.79zm-137.42 189.035c.21-4.34.33-10.324.38-17.949.05-7.629.11-16.426.19-26.391.08-9.973.19-20.957.33-32.965.13-12.004.4-24.554.78-37.652 25.48-.059 48.22 7.687 68.12 23.457a4151 4151 0 0 1-22.4 30.215c-7.16 9.586-13.84 18.308-20.03 26.172a2841 2841 0 0 0-16.27 20.851q-6.99 9.064-11.1 14.262m240.98 45.461c-.22 22.23-.88 44.23-1.96 66.004-1.09 21.777-2.88 43.332-5.39 64.66l55.54 29.535c2.35-34.012 3.81-67.391 4.37-100.141.57-32.753.45-66.027-.35-99.828l51.87-97.55-50.38-26.786-51.47 96.817a2397 2397 0 0 0-83.32 55.812c-27.07 18.969-54.05 38.942-80.93 59.903l58.44 31.078a1139 1139 0 0 1 50.27-40.797c17.23-13.192 35-26.09 53.31-38.707" style="fill:#00619e;fill-opacity:1;fill-rule:nonzero;stroke:none" transform="matrix(.02222 0 0 -.02224 .45 99.91)"/></svg>