<svg xmlns="http://www.w3.org/2000/svg" width="266.312" height="375.5" viewBox="0 0 79.375 112.047"><path fill="#09784e" d="M42.71 0q-.267 0-.524.023a8 8 0 0 0-.957.133q-.444.09-.803.208a9 9 0 0 0-.614.227.7.7 0 0 0-.236.218q-.12.158-.225.36a5 5 0 0 0-.19.407q-.087.205-.127.359.053.073.167.244.114.173.294.462.113.18.271.415.158.236.344.488.187.253.388.503t.402.451q-.266.078-.757.115a7 7 0 0 1-1.093-.007l-.808-.007h-.06a9 9 0 0 0-.654-.01l-.688.059-.11-1.149a5.2 5.2 0 0 0-.26-1.26 3.6 3.6 0 0 0-.46-.909 2.6 2.6 0 0 0-1.282-.953 2.9 2.9 0 0 0-.717-.144 4 4 0 0 0-.687.005 3.7 3.7 0 0 0-1.417.413 3.4 3.4 0 0 0-1.03.842 3.3 3.3 0 0 0-.6 1.14 3.4 3.4 0 0 0-.125 1.308q.048.505.287 1.012t.706.896 1.18.594q.716.204 1.716.109l.895-.087q-.155.33-.459.638a3.8 3.8 0 0 1-.736.576 5.6 5.6 0 0 1-.998.468q-.564.204-1.24.313l.33 1.568a10 10 0 0 0 1.769-.521 7 7 0 0 0 1.492-.808q.66-.474 1.121-1.078.462-.605.661-1.341l1.207-.059c.388.014 1.427-.044 1.72-.065.31-.02.626-.024.908-.078.283-.053.523-.1.776-.177.251-.079.473-.144.684-.233q.214.128.534.293.319.165.733.32.414.153.909.273.366.087.767.133c.105.024.301.051.786.085l.048.006c.464.09 2.925.38 3.231.332a1.9 1.9 0 0 0 .812-.329q.315.457.824.84a4 4 0 0 0 1.216.604l.312.098q.603.19 1.057.118.455-.07.807-.32.317.452.819.828.5.375 1.202.597l.312.097q.533.168.954.129a1.8 1.8 0 0 0 .754-.231c.2.255.772 1.146 1.07 1.357h.002l.004.003q.088.068.242.152l3.256 1.765 5.094-9.396-1.701-.922-4.316 7.964-1.557-.843a2 2 0 0 0-.224-.103l-.014-.007c-.252-.131-.728-.891-.93-1.058l.102-.237q.051-.12.09-.249L60.46 4.49l-1.845-.58-1.016 3.23a2.2 2.2 0 0 1-.206.48.8.8 0 0 1-.252.267.6.6 0 0 1-.323.082 1.5 1.5 0 0 1-.417-.077 2.8 2.8 0 0 1-.699-.34 4 4 0 0 1-.66-.563q.035-.084.065-.17.032-.089.06-.172l.851-2.712-1.845-.58-.774 2.462a2.2 2.2 0 0 1-.206.481.8.8 0 0 1-.253.268q-.139.085-.323.082c-.184-.003-.26-.029-.417-.078a2.8 2.8 0 0 1-.712-.348 4 4 0 0 1-.67-.577 1 1 0 0 0 .066-.163l.053-.166.651-2.072-1.843-.58-.575 1.823q-.093.298-.206.48c-.113.183-.158.212-.251.268a.6.6 0 0 1-.322.083c-.122-.002-.656-.021-.811-.07l-.88-.07q-.02-.001-.04-.004l-.282-.02c-.105-.034-.27-.03-.386-.03l-.08-.005a7 7 0 0 1-.574-.066q-.29-.045-.56-.097a7 7 0 0 1-.91-.25q.551-.49.909-.922.356-.43.57-.8a3.2 3.2 0 0 0 .303-.664q.09-.295.106-.517a1.14 1.14 0 0 0-.187-.745 1.8 1.8 0 0 0-.582-.54 3.2 3.2 0 0 0-.821-.34 4.8 4.8 0 0 0-.91-.157A7 7 0 0 0 42.71 0M24.643.93l-1.016 1.673q.53.242 1.064.539.532.297.98.624t.76.677q.313.351.4.696.052.196.043.373a.6.6 0 0 1-.122.335q-.115.155-.368.29a3.2 3.2 0 0 1-.685.244l-2.768.707.403 1.578 2.731-.697q.888-.227 1.45-.594.562-.365.857-.82.294-.457.343-.971c.049-.514.003-.69-.085-1.042q-.254-.986-1.268-1.898-1.016-.912-2.719-1.713m17.772.496a2.5 2.5 0 0 1 .728.11q.24.082.41.2.17.117.257.265c.087.148.082.202.074.312q-.011.132-.096.324a1.6 1.6 0 0 1-.258.412 3.5 3.5 0 0 1-.442.46q-.266.24-.65.478a4.4 4.4 0 0 1-.48-.507 11 11 0 0 1-.896-1.24 6 6 0 0 1-.284-.503q.215-.081.459-.144.243-.064.49-.105a4 4 0 0 1 .689-.062m-9.058.37q.195-.002.39.054.262.072.483.323.222.252.39.718.169.466.24 1.228l.07.71-1.053.1q-.932.092-1.405-.28-.472-.368-.54-1.08a1.8 1.8 0 0 1 .06-.674q.092-.312.272-.545t.43-.377a1.33 1.33 0 0 1 .663-.178m-20.596.347q-.045 0-.091.002-.186.015-.363.11a.74.74 0 0 0-.294.24.97.97 0 0 0-.1 1.047.962.962 0 0 0 .924.503q.186-.015.363-.11a.74.74 0 0 0 .294-.24 1 1 0 0 0 .17-.322.933.933 0 0 0-.07-.726.92.92 0 0 0-.562-.462 1 1 0 0 0-.27-.042m-1.97 1.048a.96.96 0 0 0-.455.112.9.9 0 0 0-.293.24 1 1 0 0 0-.17.322.933.933 0 0 0 .07.726.9.9 0 0 0 .24.292.97.97 0 0 0 .685.21.9.9 0 0 0 .362-.109.9.9 0 0 0 .294-.241.98.98 0 0 0 .21-.683q-.016-.186-.11-.365c-.094-.179-.143-.215-.24-.292a.96.96 0 0 0-.592-.212m9.469.177-1.806.691 1.6 4.175-1.777.682a2 2 0 0 0-.234.106 4 4 0 0 1-.465.125.42.42 0 0 1-.262-.033.65.65 0 0 1-.225-.2 3 3 0 0 1-.23-.38l-2.257-4.241-1.695.902.395.741q-.332.295-.714.667-.384.373-.74.803a8 8 0 0 0-.65.904 4.5 4.5 0 0 0-.45.973 2.9 2.9 0 0 0-.142 1.007q.018.508.284 1.008.3.564.747.843.449.281.952.342.504.06 1.022-.06t.958-.353c.44-.233.557-.335.791-.539q.352-.305.66-.755.18.131.406.209.228.076.515.072.288-.006.646-.108c.358-.102 1.366-.504 1.664-.662l3.19-1.224zM70.145 4.78l-5.858 8.94 1.618 1.06 5.858-8.94zM14.014 7.27l1.184 2.226a2.7 2.7 0 0 1-.465.6 2.8 2.8 0 0 1-.666.49q-.203.109-.431.17a1.2 1.2 0 0 1-.447.04.95.95 0 0 1-.414-.146.97.97 0 0 1-.332-.378q-.168-.316-.132-.668c.036-.352.107-.479.25-.731a4.4 4.4 0 0 1 .582-.783q.369-.401.87-.82m9.048 2.883a.9.9 0 0 0-.326.065.9.9 0 0 0-.321.203.96.96 0 0 0-.291.652q-.008.188.063.374a.7.7 0 0 0 .203.321.97.97 0 0 0 .654.292.9.9 0 0 0 .373-.064.9.9 0 0 0 .32-.202.99.99 0 0 0 .292-.655.9.9 0 0 0-.064-.373.9.9 0 0 0-.202-.32.967.967 0 0 0-.7-.292m-2.083.8a1 1 0 0 0-.327.063.947.947 0 0 0-.548 1.231.94.94 0 0 0 .501.529q.17.074.355.083a.95.95 0 0 0 .694-.267.965.965 0 0 0 .29-.653.9.9 0 0 0-.062-.374.93.93 0 0 0-.502-.529 1 1 0 0 0-.4-.084M51.8 108.123l1.01-3.264 1.01 3.264zm2.4-6.083h-2.712l-3.344 9.899h1.091l2.021-2.021h3.11l.62 2.021h2.559zM41.165 106.118a9 9 0 0 0-.987-.293l-.96-.22q-.771-.177-1.04-.4a.74.74 0 0 1-.27-.603q0-.26.169-.469.17-.208.403-.315.285-.133.544-.18a3.3 3.3 0 0 1 .586-.046q.837 0 1.631.326c.025.01.045.023.07.033l1.496-1.495q-.692-.308-1.566-.486c-.874-.178-1.168-.18-1.757-.18q-1.762 0-2.94.861-1.175.861-1.175 2.25 0 1.031.498 1.716.498.684 1.648 1.09.499.173 1.074.292.576.12 1.08.253.407.105.699.339c.292.234.292.357.292.605q0 .333-.18.534-.18.204-.438.316-.213.099-.563.147a5 5 0 0 1-.56.047 4.9 4.9 0 0 1-1.743-.34c-.115-.043-.227-.095-.339-.145l-1.528 1.528q.737.326 1.599.545.86.22 1.997.22 1.974 0 3.135-.898 1.16-.896 1.16-2.373-.001-1.03-.503-1.66-.501-.627-1.532-.999M27.455 101.963l-3.15 4.818v-4.818h-.728l-1.747 1.746v8.153h2.474v-4.818l3.15 4.818h2.91l-3.237-4.95 3.237-4.949z"/><path fill="#fff" d="M78.996 53.89c0 21.69-17.584 39.273-39.274 39.273S.45 75.58.45 53.89s17.583-39.274 39.273-39.274S78.996 32.2 78.996 53.89"/><g fill="#09784e"><path d="M50.033 67.04h1.132l-.566-1.83z"/><path d="M63.48 64.688h-2.328v1.048h2.141v1.058h-2.141v2.385h-1.387v-4.57l.978-.978h2.737zm3.092 13.342c6.446-7.484 11.08-17.211 8.952-28.243-1.744-9.037-8.398-15.05-13.04-17.502 5.321 2.232 8.49 4.615 10.965 7.356-4.742-12.69-15.763-15.843-20.72-15.808 3.304-1.06 6.129-.577 7.945-.097-1.658-1.303-7.263-4.43-13.065-2.543-.072-2.246-1.323-3.172-1.323-3.172s-2.09.333-3.275 2.525c-5.196-3.997-11.483-2.214-12.525-1.895 1.86 0 4.702 1.118 6.736 2.72-10.907-3.602-20.752 3.323-24.274 7.838 1.759-.587 6.113-3.189 12.35-3.148-6.699 1.216-11.102 3.968-15.41 8.733-8.612 9.523-7.467 24.822-3.801 33.004-1.966-7.788.236-20.73 9.97-29.154 5.078-4.396 12.602-8.25 21.448-8.029 14.156.354 18.049 7.71 17.864 9.241 3.449.512 5.63 2.061 7.005 5.147.955 2.14.235 6.021-2.918 8.37-.007-1.62-1.016-3.87-4.25-3.845-8.22.07-15.51 7.25-15.708 15.387-.21 8.679 6.332 17.595 17.46 17.406 4.015-2.749 6.441-9.728 6.441-9.728s-.647 4.204-1.968 6.79c8.92-8.918 8.22-23.012 6.79-27.67 4.258 11.127 1.671 20.099-1.649 26.317m-8.289-13.342h-2.33v1.048h2.144v1.058h-2.143v2.385h-1.387v-4.57l.979-.978h2.737zm-6.465 4.49-.347-1.132h-1.744l-1.133 1.133h-.61l1.874-5.548h1.52l1.875 5.548zm-5.365-.402q-.65.504-1.756.504-.637 0-1.12-.123c-.483-.123-.621-.184-.896-.306l.856-.856q.093.044.191.08.503.19.976.19.119 0 .315-.026t.315-.082a.7.7 0 0 0 .246-.176.44.44 0 0 0 .101-.3q0-.209-.165-.34c-.165-.13-.239-.15-.39-.19q-.284-.075-.606-.141c-.322-.066-.415-.1-.602-.164q-.645-.226-.924-.612-.28-.383-.28-.96 0-.78.66-1.262.66-.483 1.646-.483.497 0 .986.102.492.1.878.271l-.839.839q-.02-.01-.039-.018a2.4 2.4 0 0 0-.914-.184q-.182 0-.329.027-.144.025-.305.1a.6.6 0 0 0-.225.177.4.4 0 0 0-.095.262q0 .213.151.337.15.127.583.227.28.061.538.123.26.058.553.163.579.21.86.561c.281.351.281.545.281.93q0 .827-.65 1.33"/><path d="M39.362 37.416c1.042.689 2.04 1.437 2.966 2.248.176.154.466.26.693.314.225.054.536.089.764.032a29 29 0 0 1 6.335-.855 26.7 26.7 0 0 0-6.298-2.364 27 27 0 0 0-2.553-.461q-.115-.018-.232-.033-.441-.06-.886-.103c-4.529-.479-8.799.208-11.745 1.417 3.632-.919 7.36-.927 10.956-.195M47.63 85.652c-.433-.009-1.077.235-1.383.54a33 33 0 0 1-3.109 2.721c-.974.122-3.81.266-4.498.237.526-.281 3.276-2.121 4.447-3.462.394-.45.573-1.176.241-2.02-.254-.646-.99-2.361-1.168-2.83s-.835-.907-2.013-1c-6.15-.491-9.283-1.986-11.477-2.718-.507-.17-1.33-.134-1.768.182l-2.57 1.987c-.456.33-.73.96-.606 1.51.423 1.884 2.492 5.146 2.54 5.223-.827-.401-4.536-2.87-4.856-3.175-.487-1.089-1.24-2.875-1.339-3.292-.093-.397-.539-.976-.915-1.15-1.118-.517-2.012-1.025-3.176-1.684-.363-.467-2.006-3.447-2.273-4.59 1.656 1.413 4.356 2.888 4.802 3.084.887.392 1.789.005 2.272-.346l2.287-1.742c.464-.336.748-1.173.649-1.72-.649-3.568-1.269-8.066-.889-11.681.062-.578-.39-1.535-.879-1.866 0 0-3.903-2.802-4.088-2.845-.4-.096-1.027-.144-1.364.117-1.668 1.282-3.408 2.817-4.461 4.112.159-1.383.443-2.82.812-4.29a30.5 30.5 0 0 1 3.481-2.846c.41-.286.706-.69.734-1.173.103-1.72.394-3.736.83-5.427 2.293-2.79 5.207-5.072 7.841-6.636-10.184 4.362-13.59 13.181-14.308 15.75-4.033 14.407 3.41 23.28 4.538 24.748 3.68 4.782 8.71 7.728 13.73 9.254 11.217 3.414 20.25-.77 23.954-3.313-1.621.197-3.81.385-6.018.341"/><path d="M39.688 15.133c-10.34 0-20.06 4.038-27.37 11.371S.982 43.586.982 53.957s4.025 20.119 11.336 27.451c7.31 7.334 17.03 11.373 27.37 11.373s20.058-4.039 27.37-11.373c7.31-7.332 11.335-17.08 11.335-27.451s-4.025-20.12-11.336-27.453c-7.31-7.333-17.03-11.371-27.37-11.371m0 78.63c-10.6 0-20.567-4.14-28.063-11.658S0 64.59 0 53.957s4.129-20.63 11.624-28.149c7.496-7.518 17.463-11.66 28.063-11.66s20.568 4.142 28.064 11.66c7.495 7.52 11.624 17.516 11.624 28.149s-4.129 20.63-11.624 28.148-17.463 11.659-28.064 11.659"/></g></svg>