<svg xmlns="http://www.w3.org/2000/svg" viewBox="0 0 316.41 316.41"><defs><clipPath id="a" clipPathUnits="userSpaceOnUse"><path d="M331.417 134.221h267.874V399.26H331.417z"/></clipPath></defs><g clip-path="url(#a)" transform="matrix(1.25 0 0 -1.25 -422.011 493.76)"><path d="M0 0c0-69.904-56.665-126.566-126.559-126.566-69.901 0-126.569 56.662-126.569 126.566 0 69.898 56.668 126.563 126.569 126.563C-56.665 126.563 0 69.898 0 0" style="fill:#17233a;fill-opacity:1;fill-rule:nonzero;stroke:none" transform="translate(590.737 268.445)"/><path d="M0 0c-23.086 5.583-59.923 7.109-69.197 6.929-9.269.18-46.108-1.346-69.192-6.929-3.664-17.036-6.42-46.628-3.475-64.927 11.278-70.045 72-93.249 72.659-93.497h.019c.66.248 61.381 23.452 72.662 93.497C6.42-46.628 3.662-17.036 0 0" style="fill:#fddd04;fill-opacity:1;fill-rule:nonzero;stroke:none" transform="translate(533.37 344.14)"/><path d="M0 0c-21.756 21.747-51.768 35.186-84.95 35.186-33.191 0-63.202-13.439-84.953-35.186-21.747-21.749-35.185-51.765-35.185-84.948 0-33.186 13.438-63.202 35.185-84.955 21.751-21.747 51.762-35.188 84.953-35.19 33.182.002 63.194 13.443 84.95 35.19 21.746 21.753 35.185 51.769 35.185 84.955C35.185-51.765 21.746-21.749 0 0m-122.803-174.17c-34.707 14.741-59.047 49.137-59.047 89.222 0 20.805 6.579 40.062 17.74 55.851-15.255-101.224 46.829-139.233 61.626-148.357-3.083-.516-12.043.152-20.319 3.284m37.858.428h-.018c-.701.265-65.346 24.089-77.354 99.448-3.135 19.69-.199 51.527 3.701 69.856 8.053 1.967 17.682 3.464 27.334 4.585 13.761 7.517 29.542 11.801 46.332 11.801 16.787 0 32.565-4.284 46.328-11.801 9.651-1.121 19.28-2.618 27.333-4.585 3.9-18.329 6.835-50.166 3.701-69.856-12.008-75.359-76.653-99.183-77.355-99.448zm38.974.081c-8.615-3.57-18.365-4.336-21.609-3.793 14.809 9.133 76.996 47.204 61.584 148.636 11.281-15.84 17.939-35.202 17.939-56.13 0-39.646-23.82-73.707-57.914-88.713" style="fill:#fff;fill-opacity:1;fill-rule:nonzero;stroke:none" transform="translate(549.127 353.393)"/><path d="M0 0c-1.865-1.596-3.293-1.985-3.293-1.985 1.076 1.098.957 1.781.957 1.781s-2.569-.749-4.407-.398c-1.839.358-3.138 1.043-3.548 2.574-.414 1.528.609 2.875 1.078 3.613.469.739 2.494 3.164 2.184 6.691-.313 3.527-2.292 5.406-2.854 6.049-.564.636-2.306 2.308-3.67 3.798-1.365 1.488-3.17 3.365-4.263 5.842-1.089 2.479-.923 3.821-.923 3.821-6.89 1.846-6.904 8.255-6.904 8.255s2.325-8.974 13.643-7.102c-5.125 2.356-5.454 5.598-5.063 8.12.292 1.898 1.381 3.441 2.122 5.057.757 1.622.683 4.147.683 4.147s1.023-1.23.278-4.431c0 0 6.212 6.144.068 16.643 0 0 .91-.428 1.935-2.176 0 0 1.024 10.293-13.219 12.819 0 0 2.141 2.123 3.216 2.832 0 0-2.831.241-4.222-.19-1.388-.428-1.988-.711-2.336-1.076s-.56-.741-1.091-.901c0 0-.979-.014-1.952-.139-.56-.073-5.314-.42-5.935-.519-.627-.095-1.605-.371-1.453-1.276.142-.895-.363-1.236-.363-1.236s-4.868-.967-5.359-1.136c-.493-.18-.659-.714-.499-1.339.168-.626 1.905-4.707 2.098-4.923 0 0 .424.762 1.207.966.787.21 3.693.489 4.232.094.544-.392.99-1.595 1.135-2.485.154-.883.133-2.062-.348-2.23-.476-.177-3.181-.68-3.441-.665-.255.016-1.164.286-1.453.661l.756-6.445s.658 1.341 2.586 1.941c1.924.6 6.371 1.341 7.422 2.204 0 0 .29.199.6.651 0 0-.452-1.904-3.077-2.591-3.063-.806-13.978-3.958-13.884-18.45 0 0 1.277 3.496 6.658 4.381 0 0-3.26-1.076-4.673-3.73 0 0-3.116-4.809-5.46-5.338.623-.398 1.568-.343 1.568-.343-.65-.912-1.58-1.75-2.32-2.204-1.988-1.248-3.484-1.337-5.854-.829-1.847.4-4.404 1.804-5.178 1.852-.775.05-1.39-.63-1.39-.63s-2.201 1.069-3.465-1.421c0 0 1.438.516 1.963-.501 0 0-.897-.995-.221-2.644 0 0-1.656-1.403-.484-3.197 0 0 .453 1.429 1.852 1.093 0 0 .355-1.5 1.578-1.887 0 0 .26-2.157 2.445-2.775 0 0-.571 1.019.119 1.794 0 0 2.646-.243 3.929 1.754 0 0 2.001-.28 3.202.268 0 0-.533-1.055-1.647-1.449 0 0 3.735 0 6.092 1.555 0 0-.736-1.733-1.053-1.868 0 0 3.145.736 5.575 3.45 0 0 1.18 1.255 2.46 2.685 1.272 1.426 3.321 2.116 3.321 2.116.074-1.686.273-3.618 1.779-5.971 1.516-2.345 3.652-3.689 4.696-4.483 1.051-.799 1.509-1.317 1.509-1.317q-.817.106-1.738.167c-5.269.332-11.996-2.737-9.487-11.028 0 0-.158 1.646 1.296 2.663 0 0-.363-1.479.718-4.029 1.083-2.546 2.01-3.917 1.848-5.229-.16-1.306-.875-2.076-1.728-2.099-1.625-.031-4.756 1.464-5.86 1.585-1.371.143-1.84-.29-2.268-1.151 0 0-2.328.241-2.711-2.109 0 0 1.125.715 1.909-.138 0 0-.769-1.286-.535-2.548 0 0-1.838-.431-.967-3.588 0 0 .388 1.212 1.629 1.024 0 0 .479-.976 2.391-1.074 0 0-.84-1.643 1.865-3.253 0 0-.419.927.23 1.534 0 0 1.934-.322 3.266 1.07 1.334 1.388 3.654 3.328 6.533 3.614 0 0 .802-.492 1.146-2.213 0 0 1.053.583 1.422 2.286 0 0 3.745-2.327 7.096-.989 0 0-2.379.461-3.23 1.832 0 0 .546-.036 1.105.237 0 0-3.756.939-4.367 4.772-.614 3.833 1.214 5.582 2.564 6.115 0 0 .5 4.226 6.245 6.421 0 0-6.007-3.881-5.055-10.992.955-7.109 13.83-6.445 13.83-6.445-1.37-2.317-3.031-3.591-5.061-4.631s-4.312-1.384-5.417-1.494c-1.1-.11-2.417-.258-3.667-.795-1.254-.53-1.365-1.945-1.365-1.945s-2.027-.099-1.934-2.642c0 0 .85.438 1.977.273 0 0-.629-1.055-.131-2.39 0 0-2.053-1.149-.522-3.81 0 0 .323.962 1.594 1.326 0 0 .727-1.092 1.932-1.267 0 0 .101-.857.959-1.349 0 0-.541-1.523 1.698-2.679 0 0-.485 1.229.823 1.827 0 0 2.274.333 2.826 2.459.549 2.128.935 6.41 4.254 8.223 0 0 5.03 2.494 7.893 3.962 2.866 1.475 3.778 2.691 5.645 5.568C.156-2.825 0 0 0 0m-35.973 70.074s-.3-.209-.523-.43l-.637-.638.334 1.656s.111.398.553.506c.434.112 3.4.573 3.4.573z" style="fill:#a8173c;fill-opacity:1;fill-rule:nonzero;stroke:none" transform="translate(492.748 251.924)"/><path d="m0 0-1.596-5.182-2.307-6.123c-2.268 4.764-4.914 5.87-4.914 5.87-.113-1.791-.83-2.172-.83-2.172C-12.298.266-15.36 3.852-16.349 5.059c-.956 1.17-2.433 1.729-2.968 1.621-.535-.11-1.422-.484-2.847-.295-1.428.178-1.94 1.237-1.94 1.237-1.239.365-1.713-.447-1.713-.447-.496 2.029 1.375 2.395 1.375 2.395.014.804.648 1.426.648 1.426-.462.973-.048 2.166-.048 2.166-.944.806-2.096.319-2.096.319 1.137 2.572 3.402 1.602 3.402 1.602.719 1.001 2.289 1.224 2.289 1.224.012.936-.939 1.285-.939 1.285 1.311 1.098 2.679-.186 2.679-.186.239.28 1.729.39 2.499-.748 0 0 .965-1.588 1.419-2.68.457-1.091.959-1.737.959-1.737s1.459-1.405 2.153-2.437c.689-1.033 1.381-2.255 2.342-4.034.96-1.781.995-2.186 2.294-3.012C-5.545 1.931-2.69.162 0 0" style="fill:#a8173c;fill-opacity:1;fill-rule:nonzero;stroke:none" transform="translate(449.295 300.095)"/><path d="M0 0s-.305.859.027 1.8c0 0 2.213-1.179 6.097-.415l.007.003C3.697 1.796 1.264 3.294.098 4.045c-1.3.827-1.334 1.232-2.295 3.014-.961 1.777-1.653 3.001-2.343 4.033-.692 1.032-2.153 2.437-2.153 2.437s1.039-1.844 1.741-3.974C-4.252 7.421-3.012 3.017 0 0" style="fill:#6b1841;fill-opacity:1;fill-rule:nonzero;stroke:none" transform="translate(442.357 298.807)"/><path d="M0 0c1.258-2.67 5.402-1.881 5.402-1.881-1.84.358-3.138 1.043-3.548 2.574-.414 1.529.609 2.875 1.079 3.613.468.74 2.493 3.164 2.183 6.691-.294-2.548-1.397-3.995-3.458-5.46C.797 4.925-1.402 2.968 0 0" style="fill:#6b1841;fill-opacity:1;fill-rule:nonzero;stroke:none" transform="translate(480.603 253.203)"/><path d="M0 0s-.452-1.904-3.078-2.591c-2.09-.549-7.836-2.189-11.243-7.778 0 0 3.266 4.099 7.825 5.862C-2.507-2.963-.078-2.818 0 0" style="fill:#6b1841;fill-opacity:1;fill-rule:nonzero;stroke:none" transform="translate(462.352 309.832)"/><path d="M0 0s11.489-4.901 12.614-19.342c.665 2.833.538 6.838-2.379 11.822 0 0-5.348 6.098-10.235 7.52" style="fill:#6b1841;fill-opacity:1;fill-rule:nonzero;stroke:none" transform="translate(468.601 321.919)"/><path d="M0 0c-5.126 2.355-5.455 5.599-5.064 8.12.293 1.899 1.381 3.442 2.122 5.057.757 1.622.683 4.147.683 4.147s-.705 6.126-5.756 8.078c0 0 2.198-2.729 2.213-5.712.01-2.984-.605-4.441-1.942-6.76C-9.077 10.61-11.117 1.411 0 0" style="fill:#6b1841;fill-opacity:1;fill-rule:nonzero;stroke:none" transform="translate(480.75 284.863)"/><path d="M0 0c-5.684-.591-7.616-4.945-7.616-4.945s-3.226-.907-4.158-5.188c-.938-4.274 2.28-7.102 2.28-7.102-.763.163-2.126.789-2.126.789.699-.867 2.207-1.941 2.207-1.941s3.746-2.327 7.096-.99c0 0-2.379.461-3.23 1.832 0 0 .546-.036 1.105.239 0 0-3.756.938-4.367 4.771-.614 3.833 1.213 5.582 2.564 6.114 0 0 .501 4.228 6.245 6.421" style="fill:#6b1841;fill-opacity:1;fill-rule:nonzero;stroke:none" transform="translate(470.764 263.022)"/><path d="M0 0s1.531-.722 2.59-.323c1.048.396 1.745 1.704 2.908 2.049 1.158.335 2.634-.358 3.109-.807 0 0-1.963-.021-2.952-1.057C4.658-1.179 1.898-2.884 0 0" style="fill:#00a363;fill-opacity:1;fill-rule:nonzero;stroke:none" transform="translate(445.557 313.02)"/><path d="M0 0s-1.619 1.864-2.564 2.253c0 0 2.289-2.398 1.817-6.607-.477-4.211-2.157-8.536-2.145-10.339.013-1.801.523-6.501 3.72-8.347 0 0-16.222 5.887-10.371 20.124 0 0-2.074-1.539-3.611-1.762 0 0 3.157 4.276 3.807 7.23.642 2.955.294 6.995-2.348 8.079-2.64 1.084-7.164-1.722-6.666-9.52 0 0 .784 1.561 2.647 1.682 0 0-3.178-2.577-1.716-8.365 1.452-5.787 4.63-10.622 5.317-15.538.683-4.916-1.477-12.259-11.423-14.29l-1.495 2.565s12.788.591 8.918 12.893c0 0 .795-.412 1.506-1.54 0 0-2.266 6.36-3.746 10.018-1.534 3.8-2.317 8.294-2.265 13.289 0 0-.299 8.482 5.886 10.712 6.18 2.225 8.994-.589 9.543-1.336 0 0-1.357.435-2.461.421 0 0 7.191-3.623 7.65-11.622" style="fill:#a8173c;fill-opacity:1;fill-rule:nonzero;stroke:none" transform="translate(508.122 301.284)"/><path d="M0 0c4.114.535 6.092-1.475 6.54-2.088 0 0-1.356.434-2.459.421 0 0 7.19-3.624 7.649-11.622 0 0-1.619 1.864-2.564 2.253 0 0 2.289-2.398 1.818-6.607-.478-4.21-2.159-8.536-2.144-10.34.01-1.801.521-6.501 3.717-8.346 0 0-9.532 3.292-8.381 15.571 0 0 .182-1.921.761-2.664 0 0-.179 3.471.601 6.451.785 2.975 1.041 8.558-1.079 11.701 0 0 1.92-.83 3.5-2.686 0 0-2.063 5.89-8.525 6.789 0 0 1.101.493 2.666.458 0 0-.473.634-2.1.709" style="fill:#6b1841;fill-opacity:1;fill-rule:nonzero;stroke:none" transform="translate(496.392 314.573)"/><path d="M0 0c-3.167-2.641-3.365-6.431-3.365-6.431s1.275 3.496 6.657 4.382c0 0 7.974.62 11.319 2.523 3.346 1.9 6.317 5.368 6.694 9.037.373 3.667-1.057 7.832-3.644 8.968 0 0 1.996-4.41-.442-8.742-1.816-3.224-3.785-4.699-7.924-5.821 0 0-5.811-1.009-9.295-3.916" style="fill:#6b1841;fill-opacity:1;fill-rule:nonzero;stroke:none" transform="translate(448.757 295.221)"/><path d="M0 0c-1.364 1.489-3.169 3.365-4.261 5.841-1.09 2.481-.924 3.822-.924 3.822-6.89 1.846-6.903 8.255-6.903 8.255S-12.733 2.451 0 0" style="fill:#6b1841;fill-opacity:1;fill-rule:nonzero;stroke:none" transform="translate(479.194 274.048)"/><path d="M0 0s2.274.332 2.826 2.458c.549 2.129.935 6.412 4.254 8.224 0 0 5.03 2.494 7.893 3.962 2.866 1.476 3.778 2.69 5.645 5.567 1.861 2.878 1.705 5.704 1.705 5.704-1.865-1.596-3.293-1.986-3.293-1.986s1.1-.163 1.674.078c0 0-.674-3.711-4.225-6.811-3.547-3.098-8.998-6.374-14.571-7.611 0 0 .606-.724 1.374-.939 0 0-.166-.808-.29-2.031-.121-1.22-.126-3.089-2.517-4.478 0 0-.541-.741-1.307-.555 0 0-1.568-.884.009-3.409 0 0-.485 1.23.823 1.827" style="fill:#6b1841;fill-opacity:1;fill-rule:nonzero;stroke:none" transform="translate(470.425 226.01)"/><path d="M0 0s3.735 0 6.092 1.556c0 0-.736-1.734-1.053-1.868 0 0 3.143.497 5.571 3.211 0 0 1.291 1.38 2.671 2.713a16 16 0 0 0 3.114 2.326s3.627 2.32 8.252 2.115c0 0-4.252 1.433-8.344-1.19-4.095-2.623-5.502-4.321-6.554-5.266-.76-.693-1.534-1.059-1.534-1.059s.627 1.77.732 2.697C8.947 5.235 5.809.586 0 0" style="fill:#6b1841;fill-opacity:1;fill-rule:nonzero;stroke:none" transform="translate(438.013 272.985)"/><path d="M0 0s-2.237 2.165-6.284 2.512l.211-.156c1.052-.798 1.509-1.316 1.509-1.316q-.405.051 0 0C-2.603.79-1.07.371 0 0" style="fill:#6b1841;fill-opacity:1;fill-rule:nonzero;stroke:none" transform="translate(466.956 268.113)"/><path d="M0 0s1.841.984 2.953-.074c1.114-1.057.086-1.723.086-1.723l-1.535.303s.107.458-.381.903A2.86 2.86 0 0 1 0 0" style="fill:#00a363;fill-opacity:1;fill-rule:nonzero;stroke:none" transform="translate(427.543 317.896)"/><path d="M0 0s.633 1.521 1.799 1.803c1.163.283 1.769-.132 1.769-.132s.342-.641.252-1.16l-.09-.518L2.262-.25s-.36.273-1.1.395C.416.267 0 0 0 0" style="fill:#00a363;fill-opacity:1;fill-rule:nonzero;stroke:none" transform="translate(423.191 313.507)"/><path d="M0 0s-.365 1.598-2.065 1.111C-3.769.617-4.224-.709-4.224-.709s1.049.544 1.565.15c.515-.397.859-.531.859-.531l1.36.495z" style="fill:#00a363;fill-opacity:1;fill-rule:nonzero;stroke:none" transform="translate(429.173 281.065)"/><path d="M0 0s-.949 1.153-1.74.485c-2.192-1.843-.483-3.197-.483-3.197s.547 1.104 1.155 1.095c.609-.008.697-.002.697-.002z" style="fill:#00a363;fill-opacity:1;fill-rule:nonzero;stroke:none" transform="translate(428.76 276.898)"/><path d="M0 0s.141-1.217.826-1.91c.684-.701 1.619-.865 1.619-.865s-.347.691-.077 1.199c.267.515.403.932.403.932s-.58.216-.832.778c-.253.564-.186.672-.186.672S1.102.887.617.635C.137.383 0 0 0 0" style="fill:#00a363;fill-opacity:1;fill-rule:nonzero;stroke:none" transform="translate(429.965 273.392)"/><path d="M0 0c-.197.386-1.166 1.137-2.693.296-1.487-.817-1.16-2.068-1.16-2.068s1.009.647 1.494.361c.48-.289.607-.419.607-.419s.186.35.729.397c.54.042.998-.094.998-.094S.197-.382 0 0" style="fill:#00a363;fill-opacity:1;fill-rule:nonzero;stroke:none" transform="translate(446.066 249.446)"/><path d="M0 0s-.929 1.163-2.023.495c-1.086-.673-1.129-1.813-1.163-2.322-.034-.46.436-1.484.436-1.484s.248.966.84 1.154c.596.198.857.158.857.158s-.072.723.348 1.197C-.365-.412 0 0 0 0" style="fill:#00a363;fill-opacity:1;fill-rule:nonzero;stroke:none" transform="translate(445.552 244.67)"/><path d="M0 0a1 1 0 0 0-.17.271C-.24.415-.318.595-.391.81c-.125.384-.058.767.059 1.088-.498.053-2.176.122-1.942-1.515.233-1.589 2.165-2.14 2.165-2.14s-.256.943.06 1.292c.149.171.227.224.266.23A1.2 1.2 0 0 0 0 0" style="fill:#00a363;fill-opacity:1;fill-rule:nonzero;stroke:none" transform="translate(448.863 240.1)"/><path d="M0 0s-.607 1.065-1.601.862C-3.923.39-3.759-2.155-3.759-2.155s.806.597 1.632.664c.586.042.805-.022.805-.022s-.037.633.493 1.141C-.279.156 0 0 0 0" style="fill:#00a363;fill-opacity:1;fill-rule:nonzero;stroke:none" transform="translate(465.394 235.865)"/><path d="M0 0s-1.688.998-2.569-.676c-.806-1.54-.076-2.259.131-2.623.209-.356.5-.552.5-.552s-.049.328.402.876c.475.584 1.029.709 1.029.709s-.193.644-.06 1.241C-.384-.205 0 0 0 0" style="fill:#00a363;fill-opacity:1;fill-rule:nonzero;stroke:none" transform="translate(465.52 231.744)"/><path d="M0 0c-.099-.175-.358-.447-.15-1.234.271-1.019 1.976-1.618 1.976-1.618s-.384 1.039.175 1.496c.191.153.22.292.22.292l-.322.133s-.502.147-.536.653c-.035.508.365.961.365.961S.428.756 0 0" style="fill:#00a363;fill-opacity:1;fill-rule:nonzero;stroke:none" transform="translate(467.896 226.912)"/><path d="M0 0c-.232.207-.619.42-.824.368 0 0-1.262-.32-1.613-1.075-.35-.755-.119-1.659-.119-1.659s.704.747 1.146.846c.474.103.924-.06.924-.06s-.11.469.152.695c.133.116.248.227.363.358.09.1.223.179.145.324z" style="fill:#00a363;fill-opacity:1;fill-rule:nonzero;stroke:none" transform="translate(425.678 309.298)"/><path d="m0 0-1.759 5.902s1.917-.915 4.881-.915 4.887.915 4.887.915L6.245 0 3.122.274z" style="fill:#6b1841;fill-opacity:1;fill-rule:nonzero;stroke:none" transform="translate(482.64 337.503)"/><path d="M0 0c.413.593.686 1.229.788 1.872a4.2 4.2 0 0 1-.049 1.957C.315 5.417-.765 6.598-2.662 7.061c.797-.7 1.336-1.459 1.614-2.5a5.1 5.1 0 0 0 .052-2.399c-.05.231-.398.684-.669.829a1.6 1.6 0 0 1-.594.19A5.34 5.34 0 0 0-2.724.268a5.39 5.39 0 0 0-4.281-3.065l-.148-.023v1.38c2.187.279 3.867 1.831 3.867 3.722 0 2.088-2.046 3.781-4.569 3.781-2.519 0-4.566-1.693-4.566-3.781 0-1.891 1.681-3.443 3.867-3.723v-1.377l-.131.021A5.38 5.38 0 0 0-12.964.268a5.36 5.36 0 0 0-.467 2.913 1.6 1.6 0 0 1-.593-.19c-.272-.145-.62-.598-.668-.829a5.05 5.05 0 0 0 .052 2.399c.278 1.041.817 1.8 1.612 2.5-1.897-.463-2.979-1.644-3.403-3.232a4.2 4.2 0 0 1-.045-1.957c.098-.643.373-1.279.789-1.872-.555-.03-1.089-.287-1.596-.878.283.08.555.127.824.137h.209q.334-.01.684-.114c.334-.131.821-.422 1.784-1.047a10 10 0 0 1 2.013-.984c1.1-.419 2.455-.666 3.924-.666 1.463 0 2.816.245 3.914.661.606.214 1.32.536 2.025.989.961.625 1.446.916 1.781 1.047q.351.103.686.114h.207a3.5 3.5 0 0 0 .825-.137C1.085-.287.553-.03 0 0" style="fill:#00a363;fill-opacity:1;fill-rule:nonzero;stroke:none" transform="translate(493.616 332.957)"/><path d="m0 0-1.761 5.902s1.92-.911 4.883-.911 4.886.911 4.886.911L6.245 0 3.122.276z" style="fill:#6b1841;fill-opacity:1;fill-rule:nonzero;stroke:none" transform="translate(517.035 325.789)"/><path d="M0 0c.416.594.69 1.229.789 1.874a4.2 4.2 0 0 1-.046 1.958C.321 5.42-.761 6.6-2.658 7.06c.795-.699 1.335-1.458 1.61-2.498.216-.806.221-1.62.055-2.399-.05.233-.398.684-.671.83a1.7 1.7 0 0 1-.593.191A5.34 5.34 0 0 0-2.723.268a5.39 5.39 0 0 0-4.279-3.065l-.148-.023v1.38c2.189.282 3.866 1.833 3.866 3.722 0 2.09-2.046 3.782-4.568 3.782s-4.564-1.692-4.564-3.782c0-1.889 1.681-3.442 3.868-3.723v-1.377l-.135.021A5.4 5.4 0 0 0-12.962.268a5.36 5.36 0 0 0-.467 2.916 1.7 1.7 0 0 1-.592-.191c-.274-.146-.621-.597-.67-.83a5.1 5.1 0 0 0 .051 2.399c.28 1.04.818 1.799 1.615 2.498-1.898-.46-2.979-1.64-3.4-3.228a4.2 4.2 0 0 1-.049-1.958c.097-.645.373-1.28.788-1.874-.553-.03-1.087-.284-1.595-.876q.42.119.826.139h.205c.226-.01.452-.046.689-.117.332-.133.817-.422 1.78-1.047a9.7 9.7 0 0 1 2.013-.983c1.102-.419 2.457-.666 3.925-.666 1.463 0 2.816.245 3.914.662a9.7 9.7 0 0 1 2.026.987c.96.625 1.446.914 1.78 1.047.235.071.463.107.686.117h.208c.27-.012.543-.061.827-.139C1.09-.284.554-.03 0 0" style="fill:#00a363;fill-opacity:1;fill-rule:nonzero;stroke:none" transform="translate(528.01 321.243)"/><path d="m0 0-1.762 5.901s1.922-.912 4.883-.912c2.967 0 4.887.912 4.887.912L6.244 0 3.121.276z" style="fill:#6b1841;fill-opacity:1;fill-rule:nonzero;stroke:none" transform="translate(519.4 293.316)"/><path d="M0 0c.416.592.691 1.225.789 1.872a4.2 4.2 0 0 1-.048 1.957C.316 5.42-.762 6.596-2.66 7.059c.795-.702 1.335-1.461 1.614-2.502A5.1 5.1 0 0 0-.995 2.16c-.049.23-.398.684-.668.83a1.6 1.6 0 0 1-.592.189 5.37 5.37 0 0 0-.47-2.913c-.82-1.756-2.474-2.853-4.278-3.063l-.148-.025v1.379c2.189.283 3.866 1.834 3.866 3.724 0 2.089-2.045 3.781-4.569 3.781-2.519 0-4.562-1.692-4.562-3.781 0-1.891 1.679-3.443 3.866-3.724v-1.376l-.134.022c-1.803.21-3.457 1.307-4.279 3.063a5.35 5.35 0 0 0-.467 2.913 1.6 1.6 0 0 1-.594-.189c-.272-.146-.619-.6-.668-.83a5.1 5.1 0 0 0 .053 2.397c.277 1.041.817 1.8 1.613 2.502-1.897-.463-2.978-1.639-3.4-3.23a4.2 4.2 0 0 1-.049-1.957c.099-.647.371-1.28.789-1.872-.555-.033-1.09-.287-1.597-.878.283.08.556.127.828.138l.185-.001h.021c.225-.008.453-.043.686-.117.336-.131.818-.422 1.78-1.046a10 10 0 0 1 2.015-.984c1.1-.418 2.457-.665 3.927-.665 1.46 0 2.813.247 3.911.66.605.221 1.32.535 2.027.989.959.624 1.445.915 1.778 1.046.236.074.463.109.689.117h.018l.187.001c.272-.011.543-.058.828-.138C1.089-.287.552-.033 0 0" style="fill:#00a363;fill-opacity:1;fill-rule:nonzero;stroke:none" transform="translate(530.375 288.77)"/><path d="m0 0-1.762 5.904s1.92-.912 4.885-.912c2.962 0 4.884.912 4.884.912L6.245 0 3.123.276z" style="fill:#6b1841;fill-opacity:1;fill-rule:nonzero;stroke:none" transform="translate(509.956 260.85)"/><path d="M0 0c.416.593.69 1.229.789 1.876.133.64.125 1.304-.049 1.955C.318 5.42-.763 6.599-2.66 7.059c.795-.697 1.336-1.458 1.613-2.498a5.1 5.1 0 0 0 .051-2.397c-.047.228-.396.684-.668.829a1.7 1.7 0 0 1-.595.19A5.3 5.3 0 0 0-2.726.269a5.39 5.39 0 0 0-4.28-3.064l-.146-.023v1.378c2.185.282 3.865 1.832 3.865 3.722 0 2.091-2.045 3.783-4.564 3.783-2.524 0-4.567-1.692-4.567-3.783 0-1.89 1.678-3.44 3.867-3.722v-1.376l-.133.021A5.4 5.4 0 0 0-12.963.269a5.33 5.33 0 0 0-.466 2.914 1.7 1.7 0 0 1-.595-.19c-.273-.145-.619-.601-.668-.829a5.1 5.1 0 0 0 .051 2.397c.278 1.04.817 1.801 1.614 2.498-1.898-.46-2.979-1.639-3.401-3.228a4.2 4.2 0 0 1-.047-1.955c.098-.647.373-1.283.789-1.876-.554-.029-1.088-.285-1.597-.876.283.082.554.129.826.141h.207c.225-.009.45-.046.688-.118.333-.134.818-.421 1.779-1.049a10 10 0 0 1 2.015-.983c1.1-.417 2.456-.664 3.924-.664 1.461 0 2.816.244 3.913.66a9.7 9.7 0 0 1 2.025.987c.963.628 1.447.915 1.781 1.049q.352.106.688.118h.205c.273-.012.545-.059.826-.141C1.088-.285.553-.029 0 0" style="fill:#00a363;fill-opacity:1;fill-rule:nonzero;stroke:none" transform="translate(520.931 256.303)"/><path d="m0 0-1.764 5.903s1.92-.914 4.886-.914c2.962 0 4.883.914 4.883.914L6.242 0l-3.12.275z" style="fill:#6b1841;fill-opacity:1;fill-rule:nonzero;stroke:none" transform="translate(412.307 260.852)"/><path d="M0 0c.414.593.689 1.227.79 1.874.132.64.125 1.306-.05 1.955-.42 1.591-1.502 2.768-3.4 3.23.795-.698 1.335-1.459 1.614-2.5a5.1 5.1 0 0 0 .049-2.397c-.047.228-.396.684-.667.829-.256.138-.479.18-.594.189A5.36 5.36 0 0 0-2.725.266a5.4 5.4 0 0 0-4.28-3.063l-.148-.023v1.378c2.188.282 3.868 1.833 3.868 3.724 0 2.088-2.045 3.782-4.565 3.782-2.525 0-4.567-1.694-4.567-3.782 0-1.891 1.677-3.441 3.864-3.724v-1.376l-.131.021c-1.805.211-3.459 1.312-4.279 3.063a5.34 5.34 0 0 0-.467 2.914 1.6 1.6 0 0 1-.593-.189c-.273-.145-.622-.601-.668-.829a5.1 5.1 0 0 0 .05 2.397c.279 1.041.82 1.802 1.615 2.5-1.898-.462-2.979-1.639-3.402-3.23a4.2 4.2 0 0 1-.047-1.955c.097-.647.372-1.281.786-1.874-.551-.031-1.084-.287-1.593-.878.283.084.555.129.827.14h.205c.225-.009.451-.045.689-.118.333-.131.817-.42 1.78-1.046a10 10 0 0 1 2.011-.985c1.103-.417 2.46-.664 3.926-.664 1.463 0 2.815.247 3.914.663.606.214 1.325.53 2.026.986.963.626 1.446.915 1.78 1.046.237.073.462.109.686.118H.77c.27-.011.542-.056.826-.14C1.086-.287.554-.031 0 0" style="fill:#00a363;fill-opacity:1;fill-rule:nonzero;stroke:none" transform="translate(423.28 256.305)"/><path d="m0 0-1.762 5.904S.156 4.99 3.121 4.99c2.963 0 4.884.914 4.884.914L6.243 0 3.121.275z" style="fill:#6b1841;fill-opacity:1;fill-rule:nonzero;stroke:none" transform="translate(431.676 231.429)"/><path d="M0 0c.413.594.689 1.229.789 1.874a4.25 4.25 0 0 1-.048 1.955C.319 5.42-.765 6.598-2.661 7.061c.794-.701 1.335-1.459 1.613-2.5a5.1 5.1 0 0 0 .05-2.399c-.046.23-.396.685-.667.829-.256.138-.477.18-.594.19A5.34 5.34 0 0 0-2.724.268a5.4 5.4 0 0 0-4.283-3.065l-.145-.023v1.379c2.188.28 3.866 1.834 3.866 3.723 0 2.088-2.044 3.782-4.566 3.782s-4.566-1.694-4.566-3.782c0-1.889 1.678-3.44 3.862-3.723v-1.377l-.128.021a5.4 5.4 0 0 0-4.28 3.065 5.36 5.36 0 0 0-.469 2.913 1.6 1.6 0 0 1-.591-.19c-.272-.144-.621-.599-.666-.829a5.06 5.06 0 0 0 .048 2.399c.278 1.041.819 1.799 1.616 2.5-1.899-.463-2.981-1.641-3.403-3.232a4.2 4.2 0 0 1-.046-1.955c.097-.645.373-1.28.785-1.874-.55-.03-1.084-.287-1.592-.878q.421.123.825.141h.206c.225-.01.451-.046.688-.118.332-.131.818-.421 1.781-1.047a10 10 0 0 1 2.012-.986c1.101-.417 2.459-.664 3.925-.664 1.461 0 2.815.247 3.914.664a9.6 9.6 0 0 1 2.025.986c.963.626 1.447.916 1.781 1.047.235.072.462.108.687.118h.209c.268-.012.539-.059.824-.141C1.085-.287.553-.03 0 0" style="fill:#00a363;fill-opacity:1;fill-rule:nonzero;stroke:none" transform="translate(442.65 226.882)"/><path d="m0 0-1.762 5.904S.156 4.99 3.121 4.99c2.963 0 4.884.914 4.884.914L6.244 0 3.121.275z" style="fill:#6b1841;fill-opacity:1;fill-rule:nonzero;stroke:none" transform="translate(490.701 231.429)"/><path d="M0 0c.414.594.689 1.229.789 1.874a4.3 4.3 0 0 1-.047 1.955C.32 5.42-.764 6.598-2.661 7.061c.794-.701 1.335-1.459 1.614-2.5a5.1 5.1 0 0 0 .049-2.399c-.045.23-.395.685-.667.829-.255.138-.476.18-.593.19A5.35 5.35 0 0 0-2.723.268a5.4 5.4 0 0 0-4.283-3.065l-.146-.023v1.379c2.189.28 3.866 1.834 3.866 3.723 0 2.088-2.044 3.782-4.566 3.782s-4.566-1.694-4.566-3.782c0-1.889 1.678-3.44 3.863-3.723v-1.377l-.127.021c-1.806.21-3.461 1.312-4.28 3.065a5.3 5.3 0 0 0-.468 2.913 1.6 1.6 0 0 1-.594-.19c-.271-.144-.621-.599-.666-.829a5.05 5.05 0 0 0 .049 2.399c.277 1.041.819 1.799 1.615 2.5-1.898-.463-2.98-1.641-3.402-3.232a4.2 4.2 0 0 1-.047-1.955c.098-.645.373-1.28.785-1.874-.55-.03-1.084-.287-1.592-.878q.421.123.826.141h.205c.225-.01.452-.046.688-.118.334-.131.819-.421 1.781-1.047a10 10 0 0 1 2.012-.986c1.102-.417 2.459-.664 3.926-.664 1.463 0 2.814.247 3.914.664a9.7 9.7 0 0 1 2.024.986c.963.626 1.447.916 1.781 1.047.236.072.462.108.687.118h.209c.268-.012.539-.059.824-.141C1.085-.287.553-.03 0 0" style="fill:#00a363;fill-opacity:1;fill-rule:nonzero;stroke:none" transform="translate(501.674 226.882)"/><path d="m0 0-1.761 5.901s1.918-.914 4.883-.914c2.962 0 4.883.914 4.883.914L6.244 0 3.122.274z" style="fill:#6b1841;fill-opacity:1;fill-rule:nonzero;stroke:none" transform="translate(460.89 208.21)"/><path d="M0 0c.414.593.689 1.227.789 1.872a4.2 4.2 0 0 1-.047 1.957C.319 5.418-.762 6.595-2.659 7.061c.795-.702 1.334-1.459 1.612-2.502a5.1 5.1 0 0 0 .052-2.397c-.048.23-.398.682-.67.829a1.6 1.6 0 0 1-.593.187A5.36 5.36 0 0 0-2.723.266a5.4 5.4 0 0 0-4.282-3.065l-.146-.025v1.381c2.187.28 3.867 1.834 3.867 3.725 0 2.086-2.045 3.781-4.568 3.781s-4.566-1.695-4.566-3.781c0-1.891 1.679-3.443 3.865-3.723v-1.377l-.131.019A5.39 5.39 0 0 0-12.963.266a5.35 5.35 0 0 0-.467 2.912 1.6 1.6 0 0 1-.593-.187c-.273-.147-.621-.599-.668-.829a5.04 5.04 0 0 0 .051 2.397c.278 1.043.819 1.8 1.614 2.502-1.899-.466-2.979-1.643-3.402-3.232a4.2 4.2 0 0 1-.048-1.957c.098-.645.374-1.279.789-1.872-.552-.033-1.088-.29-1.595-.88q.421.123.826.14h.206q.336-.013.686-.115c.334-.135.819-.423 1.782-1.047a9.7 9.7 0 0 1 2.013-.985c1.103-.419 2.458-.667 3.926-.667 1.462 0 2.815.248 3.912.664a9.6 9.6 0 0 1 2.026.988c.963.624 1.446.912 1.781 1.047.237.068.463.106.688.115H.77c.271-.011.541-.058.827-.14C1.085-.29.556-.033 0 0" style="fill:#00a363;fill-opacity:1;fill-rule:nonzero;stroke:none" transform="translate(471.864 203.664)"/><path d="m0 0-1.761 5.901s1.919-.912 4.884-.912 4.883.912 4.883.912L6.246 0 3.123.276z" style="fill:#6b1841;fill-opacity:1;fill-rule:nonzero;stroke:none" transform="translate(402.69 293.316)"/><path d="M0 0c.416.592.69 1.225.791 1.872a4.24 4.24 0 0 1-.049 1.957C.32 5.42-.762 6.596-2.659 7.059c.796-.702 1.335-1.461 1.614-2.502A5.1 5.1 0 0 0-.994 2.16c-.049.23-.398.684-.67.83a1.6 1.6 0 0 1-.594.189A5.3 5.3 0 0 0-2.723.266c-.822-1.756-2.474-2.853-4.279-3.063l-.149-.025v1.379c2.188.282 3.868 1.834 3.868 3.724 0 2.089-2.047 3.781-4.57 3.781-2.52 0-4.565-1.692-4.565-3.781 0-1.89 1.68-3.442 3.867-3.724v-1.376l-.133.022c-1.802.21-3.459 1.307-4.279 3.063a5.4 5.4 0 0 0-.467 2.913 1.6 1.6 0 0 1-.591-.189c-.272-.146-.622-.6-.67-.83a5.1 5.1 0 0 0 .052 2.397c.278 1.041.817 1.8 1.613 2.502-1.898-.463-2.978-1.639-3.402-3.23a4.2 4.2 0 0 1-.048-1.957c.099-.647.375-1.28.79-1.872-.552-.033-1.088-.287-1.595-.878.283.08.554.127.824.138l.189-.001h.018c.226-.008.451-.043.687-.117.335-.131.822-.422 1.781-1.046a10 10 0 0 1 2.014-.984c1.102-.418 2.457-.665 3.928-.665 1.461 0 2.814.247 3.912.66.607.221 1.322.535 2.024.989.962.624 1.447.915 1.781 1.046.234.074.461.109.687.117h.02L.77-.74a3.5 3.5 0 0 0 .826-.138C1.088-.287.555-.033 0 0" style="fill:#00a363;fill-opacity:1;fill-rule:nonzero;stroke:none" transform="translate(413.664 288.77)"/><path d="m0 0-1.763 5.901s1.921-.912 4.886-.912c2.961 0 4.883.912 4.883.912L6.242 0 3.123.275z" style="fill:#6b1841;fill-opacity:1;fill-rule:nonzero;stroke:none" transform="translate(404.98 325.647)"/><path d="M0 0c.412.594.69 1.227.789 1.872A4.2 4.2 0 0 1 .74 3.831C.318 5.418-.762 6.599-2.662 7.06c.796-.701 1.338-1.461 1.613-2.5.215-.804.221-1.62.053-2.398-.049.232-.397.685-.67.829-.256.14-.477.176-.592.19A5.3 5.3 0 0 0-2.727.267c-.82-1.755-2.472-2.854-4.279-3.066l-.146-.023v1.38c2.187.281 3.867 1.834 3.867 3.724 0 2.088-2.045 3.781-4.567 3.781s-4.566-1.693-4.566-3.781c0-1.89 1.678-3.442 3.865-3.724v-1.376l-.132.019c-1.802.212-3.458 1.311-4.28 3.066a5.35 5.35 0 0 0-.465 2.914 1.6 1.6 0 0 1-.595-.19c-.272-.144-.619-.597-.666-.829a5.1 5.1 0 0 0 .049 2.398c.278 1.039.819 1.799 1.616 2.5-1.898-.461-2.98-1.642-3.402-3.229a4.2 4.2 0 0 1-.047-1.959c.098-.645.372-1.278.788-1.872-.553-.03-1.088-.288-1.596-.878q.42.121.826.139h.205c.226-.01.453-.044.689-.117.333-.133.817-.421 1.781-1.046a9.7 9.7 0 0 1 2.013-.984c1.101-.418 2.458-.666 3.925-.666 1.461 0 2.814.246 3.912.661a9.7 9.7 0 0 1 2.027.989c.962.625 1.446.913 1.78 1.046.235.073.463.107.687.117h.207c.27-.012.543-.058.827-.139C1.088-.288.553-.03 0 0" style="fill:#00a363;fill-opacity:1;fill-rule:nonzero;stroke:none" transform="translate(415.955 321.1)"/><path d="m0 0-1.76 5.9s1.922-.91 4.884-.91 4.883.91 4.883.91L6.246 0 3.124.275z" style="fill:#6b1841;fill-opacity:1;fill-rule:nonzero;stroke:none" transform="translate(439.373 337.528)"/><path d="M0 0c.413.594.687 1.229.79 1.874a4.24 4.24 0 0 1-.049 1.957C.316 5.418-.762 6.598-2.66 7.061c.793-.702 1.335-1.459 1.61-2.499a5.1 5.1 0 0 0 .055-2.399c-.049.232-.398.685-.67.83a1.7 1.7 0 0 1-.594.188A5.33 5.33 0 0 0-2.725.27a5.39 5.39 0 0 0-4.282-3.067l-.146-.023v1.379c2.185.281 3.866 1.834 3.866 3.723 0 2.088-2.045 3.783-4.565 3.783-2.523 0-4.567-1.695-4.567-3.783 0-1.89 1.678-3.443 3.867-3.723v-1.377l-.132.021A5.39 5.39 0 0 0-12.964.27a5.3 5.3 0 0 0-.464 2.911 1.7 1.7 0 0 1-.596-.188c-.274-.145-.621-.598-.668-.83a5.1 5.1 0 0 0 .051 2.399c.279 1.04.818 1.797 1.613 2.499-1.897-.463-2.977-1.643-3.398-3.23a4.2 4.2 0 0 1-.049-1.957c.095-.645.373-1.28.789-1.874-.555-.029-1.089-.286-1.599-.877q.424.121.83.14h.204a3 3 0 0 0 .687-.117c.335-.133.819-.423 1.781-1.046a9.8 9.8 0 0 1 2.013-.986c1.099-.419 2.457-.666 3.925-.666 1.463 0 2.815.247 3.915.664a9.7 9.7 0 0 1 2.026.988c.96.623 1.444.913 1.778 1.046q.354.1.69.117h.205c.271-.012.543-.06.826-.14C1.088-.286.552-.029 0 0" style="fill:#00a363;fill-opacity:1;fill-rule:nonzero;stroke:none" transform="translate(450.35 332.981)"/><path d="M0 0c-1.4-.998-3.363-.685-4.365.715-1 1.397-.668 3.372.729 4.373s3.361.66 4.359-.738A3.12 3.12 0 0 0 0 0" style="fill:#17233a;fill-opacity:1;fill-rule:nonzero;stroke:none" transform="translate(376.312 204.262)"/><path d="M0 0c-1.402-.998-3.365-.685-4.364.715a3.15 3.15 0 0 0 .73 4.371c1.399 1.003 3.36.662 4.361-.736A3.12 3.12 0 0 0 0 0" style="fill:#17233a;fill-opacity:1;fill-rule:nonzero;stroke:none" transform="translate(555.304 204.453)"/><path d="M0 0c-1.397-.998-3.361-.689-4.361.713a3.15 3.15 0 0 0 .728 4.373c1.398 1 3.361.659 4.36-.738A3.12 3.12 0 0 0 0 0" style="fill:#17233a;fill-opacity:1;fill-rule:nonzero;stroke:none" transform="translate(513.996 167.83)"/><path d="M0 0c-1.396-.995-3.361-.685-4.361.714-1 1.398-.67 3.374.728 4.375 1.401.998 3.361.659 4.36-.74A3.12 3.12 0 0 0 0 0" style="fill:#17233a;fill-opacity:1;fill-rule:nonzero;stroke:none" transform="translate(418.078 169.16)"/><path d="m0 0 5.514-5.99-1.601-1.471L.276-3.507l-2.502-2.3 3.33-3.621-1.599-1.471-3.329 3.619-2.851-2.623 3.668-3.983-1.6-1.471-5.538 6.018z" style="fill:#17233a;fill-opacity:1;fill-rule:nonzero;stroke:none" transform="translate(386.325 203.784)"/><path d="M0 0a7.1 7.1 0 0 1-1.787 2.239c-.73.605-1.937 1.064-2.894-.095C-6.2.303-.9-2.765-3.84-6.329c-1.923-2.327-4.495-1.692-6.641.08-1.157.955-1.547 1.534-2.387 2.66l1.781 1.756c.404-1.001 1.029-1.949 1.867-2.642.805-.665 2.227-1.146 3.018-.187C-4.531-2.636-9.88.371-6.978 3.889c1.959 2.373 4.518 1.721 6.39.176.916-.753 1.667-1.579 2.231-2.478z" style="fill:#17233a;fill-opacity:1;fill-rule:nonzero;stroke:none" transform="translate(397.907 189.07)"/><path d="m0 0-3.149 2.383 1.31 1.731 8.505-6.431-1.313-1.735-3.149 2.383-7.008-9.26-2.203 1.667z" style="fill:#17233a;fill-opacity:1;fill-rule:nonzero;stroke:none" transform="translate(403.185 184.928)"/><path d="m0 0 2.061 1.323 7.461-11.594-2.326-1.495-5.76 8.955L.501-5.67l-2.135.763z" style="fill:#17233a;fill-opacity:1;fill-rule:nonzero;stroke:none" transform="translate(517.642 182.619)"/><path d="m0 0 .026-.033C1.978.43 3.363.02 4.346-1.219c1.728-2.177.91-4.39-1.221-6.084-2.103-1.67-4.529-2.108-6.273.089-.958 1.206-.94 2.581-.145 4.248l-.023.029c-1.464-.379-2.889-.049-3.785 1.08-1.534 1.935-.786 4.012 1.177 5.572 1.9 1.511 4.246 2.086 5.68.274C.529 3.015.822 1.411.013-.018zm-2.022 1.975c-.64.802-1.588.953-2.41.303-.787-.627-1.232-1.685-.546-2.55.737-.927 2.029-.584 2.99-.274.431.693.494 1.854-.034 2.521m1.014-7.44c.713-.898 1.988-.918 2.856-.229.863.686 1.118 1.767.404 2.665-.848 1.066-2.166.852-3.293.435-.482-.985-.689-1.957.033-2.871" style="fill:#17233a;fill-opacity:1;fill-rule:nonzero;stroke:none" transform="translate(530.988 184.155)"/><path d="m0 0 6.707 5.83L8.211 4.1l3.842-11.886-2.264-1.971L6.031 2.365 1.424-1.638z" style="fill:#17233a;fill-opacity:1;fill-rule:nonzero;stroke:none" transform="translate(530.11 191.655)"/><path d="M0 0c.926.43 1.816.998 2.565 1.787.787.834 1.595 2.491.573 3.455C1.964 6.355.695 5.79-.514 4.513l-.923-.976-1.581 1.492.87.918c1.278 1.35 1.662 2.644.785 3.473-1.003.95-2.094.432-2.947-.47a6.95 6.95 0 0 1-1.599-2.758l-1.716 1.407c.445 1.102 1.166 2.238 2.143 3.275 1.167 1.231 3.552 2.89 5.693.865 1.361-1.289 1.205-2.744.628-4.132l.03-.025c1.377 1.111 2.967.808 4.186-.347 2.382-2.253.933-4.989-.639-6.653C3.589-.294 2.521-1.191 1.6-1.733z" style="fill:#17233a;fill-opacity:1;fill-rule:nonzero;stroke:none" transform="translate(546.242 191.432)"/><path d="M0 0a1.077 1.077 0 0 0-.444 1.457c7.995 15.035 12.528 32.19 12.528 50.413 0 24.083-7.912 46.304-21.28 64.224a1.075 1.075 0 1 0 1.726 1.286C6.161 99.105 14.237 76.425 14.233 51.87 14.237 33.291 9.612 15.783 1.458.448a1.08 1.08 0 0 0-.954-.575C.334-.127.163-.082 0 0" style="fill:#17233a;fill-opacity:1;fill-rule:nonzero;stroke:none" transform="translate(559.452 217.185)"/><path d="M0 0c-8.158 15.336-12.781 32.844-12.781 51.423 0 24.556 8.074 47.233 21.711 65.51a1.07 1.07 0 0 0 1.502.221 1.08 1.08 0 0 0 .218-1.507c-13.368-17.92-21.279-40.143-21.279-64.224 0-18.223 4.533-35.378 12.529-50.415a1.074 1.074 0 0 0-.949-1.58C.565-.572.191-.364 0 0" style="fill:#17233a;fill-opacity:1;fill-rule:nonzero;stroke:none" transform="translate(367.45 217.632)"/><path d="M0 0c-4.744-1.875-16.679-5.272-16.679-5.272L.069-13.258h.022c.23.097 16.716 7.961 16.716 7.961S4.778-1.889 0 0" style="fill:#17233a;fill-opacity:1;fill-rule:nonzero;stroke:none" transform="translate(464.095 167.799)"/><path d="M0 0a7.2 7.2 0 0 1-2.771-.721c-.839-.425-1.752-1.339-1.083-2.675 1.063-2.136 6.012 1.456 8.07-2.664 1.349-2.699-.272-4.787-2.755-6.027-1.345-.668-2.03-.79-3.394-1.1l-.881 2.335c1.077-.039 2.196.146 3.161.634.931.461 1.95 1.567 1.397 2.679C.565-5.193-4.34-8.861-6.368-4.792-7.746-2.043-6.116.027-3.94 1.114c1.048.522 2.104.876 3.156 1.028z" style="fill:#17233a;fill-opacity:1;fill-rule:nonzero;stroke:none" transform="translate(418.944 372.502)"/><path d="M0 0c-.869-.558-1.825-1.104-2.811-1.451-4.191-1.484-7.849-.419-9.395 3.967-1.571 4.433.263 7.88 4.661 9.433.854.306 2.046.533 3.125.497l.586-2.258c-1.18.214-2.119.032-3.049-.3-2.664-.944-3.619-3.577-2.678-6.229.93-2.64 3.272-4.048 6.033-3.068 1.012.358 2.143 1.008 2.645 1.54z" style="fill:#17233a;fill-opacity:1;fill-rule:nonzero;stroke:none" transform="translate(436.59 367.418)"/><path d="M0 0c4.231.831 7.172-1.568 7.961-5.64.797-4.08-.966-7.473-5.24-8.308-4.322-.847-7.168 1.589-7.975 5.722C-6.062-4.086-4.289-.835 0 0m2.311-11.824c2.762.545 3.306 3.195 2.834 5.629-.469 2.376-2.043 4.594-4.73 4.073-2.684-.523-3.313-3.177-2.847-5.553.477-2.43 1.981-4.691 4.743-4.149" style="fill:#17233a;fill-opacity:1;fill-rule:nonzero;stroke:none" transform="translate(441.878 382.683)"/><path d="m0 0-3.94-.21-.108 2.163 10.615.562.112-2.161L2.75.146l.609-11.555-2.748-.15z" style="fill:#17233a;fill-opacity:1;fill-rule:nonzero;stroke:none" transform="translate(455.41 381.673)"/><path d="m0 0 2.748-.15-.65-11.566 5.329-.304-.117-2.161-8.083.462z" style="fill:#17233a;fill-opacity:1;fill-rule:nonzero;stroke:none" transform="translate(465.412 384.456)"/><path d="m0 0 3.068-.571 2.761-14.501-2.991.563-.587 3.312-5.48 1.027-1.755-2.879-2.806.534zm.986-2.986-.037.007-2.998-5.208 3.942-.742z" style="fill:#17233a;fill-opacity:1;fill-rule:nonzero;stroke:none" transform="translate(482.234 382.885)"/><path d="m0 0 3.215-1.052 1.789-11.393.037-.006 3.187 9.763 2.508-.818-4.262-13.062-3.2 1.046L1.471-4.121l-.045.011-3.182-9.768-2.515.82z" style="fill:#17233a;fill-opacity:1;fill-rule:nonzero;stroke:none" transform="translate(493.826 380.565)"/><path d="m0 0 3.407-1.585c3.816-1.779 6.587-4.637 4.285-9.585-2.301-4.937-6.277-4.655-10.086-2.875l-3.412 1.591zm-2.385-11.655 1.382-.647c2.086-.977 4.83-.358 6.091 2.352 1.264 2.708-.027 5.203-2.113 6.175l-1.394.647z" style="fill:#17233a;fill-opacity:1;fill-rule:nonzero;stroke:none" transform="translate(508.011 375.332)"/><path d="M0 0c-1.4-.998-3.363-.684-4.364.715-1 1.398-.668 3.372.728 4.373 1.398 1.001 3.362.66 4.36-.738A3.12 3.12 0 0 0 0 0" style="fill:#17233a;fill-opacity:1;fill-rule:nonzero;stroke:none" transform="translate(405.98 358.304)"/><path d="M0 0c-1.401-.998-3.363-.684-4.365.715-1 1.398-.668 3.372.729 4.373s3.361.66 4.359-.738A3.123 3.123 0 0 0 0 0" style="fill:#17233a;fill-opacity:1;fill-rule:nonzero;stroke:none" transform="translate(525.41 358.304)"/></g></svg>