<svg xmlns="http://www.w3.org/2000/svg" viewBox="0 0 83.61 83.61"><path d="M172.142 194.793c0 22.974-18.62 41.604-41.605 41.604-22.975 0-41.594-18.63-41.594-41.604 0-22.975 18.62-41.594 41.594-41.594 22.985 0 41.605 18.62 41.605 41.594" style="clip-rule:nonzero;fill:#fff;fill-opacity:1;fill-rule:nonzero;stroke:none;stroke-width:2.94956" transform="translate(-88.738 -152.994)"/><path d="M112.989 171.772c11.522-1.048 10.807 3.111 11.095 5.611 4.206.265 5.174 3.653 5.185 4.263.61-.45 1.717-1.9 2.166-3.572-2.143.026-3.537-1.394-3.537-3.041 0-1.66.645-3.952 3.076-3.952s3.687 1.936 4.724 4.424l2.086-1.164-.196-2.972 2.016 1.313.933-.103s-.011-.957-.057-1.683c-.795-1.175-3.445-2.12-5.15-2.534.357-.185 1.14-.254 1.866-.254 5.15 0 5.53 5.139 5.37 5.98.702.161 1.727.127 1.727.127s.37-.864.37-2.327c0-4.217-4.31-6.095-8.55-6.96-4.251-.852-10.3.553-12.662 2.201 2.719-.115 3.733 1.118 3.744 1.81-.622-.29-4.505-.53-5.484-.404-.968.127-6.049 1.314-8.722 3.238" style="fill:#e63f23;fill-opacity:1;fill-rule:nonzero;stroke:none;stroke-width:2.94956" transform="translate(-88.738 -152.994)"/><path d="M119.591 172.844c2.5 0 2.638 2.753 2.546 4.101-1.613 1.268-6.198 2.282-6.198 4.298 0 .403.16.76.507.76.345 0 2.28.05 2.28.564 0 .265-.207.254-.575.438-9.16 4.69-12.617 9.091-13.55 9.805.046-1.083.173-1.89.45-2.592.967-2.431 4.113-6.372 4.758-7.305.219-.31.369-.795-.369-.795-.749 0-1.601.127-3.1 1.797-.08-1.002.323-2.58 5.059-4.862.645-.31.853-.657.853-1.025 0-.369-.312-.738-.312-.738-1.382.05-2.96-.39-3.053-.921-.023-.208.058-.38.058-.38.184.066.288.322 1.325.041 1.037-.277 4.309-1.486 5.38-1.913 1.049-.438 2.8-1.278 3.941-1.278M129.27 173.512a3.9 3.9 0 0 1 2.246-.668c.46 0 2.19.253 2.523 2.684l-.83.067-1.647 1.383-.023-1.233-.715-.99c.496-.162.726-.324.726-.715 0-.403-.392-.945-2.281-.53M145.768 171.427c.311.622.369.852.369 1.267s-.495 1.221-1.371 1.44c.253-.622.357-1.463.334-1.832.184-.104.45-.403.668-.875" style="fill:#e63f23;fill-opacity:1;fill-rule:nonzero;stroke:none;stroke-width:2.94956" transform="translate(-88.738 -152.994)"/><path d="M131.435 181.197c.738.472 2.074 1.901 2.074 3.122 0 .61-.103.968-.31 1.21-.197.23-3.4 3.814-3.642 6.729.922 1.221 6.44 10.865 6.44 15.024 0 4.148-1.762 8.976-4.112 9.61.518-1.648.61-3.308.61-5.197 0-4.044-3.214-9.01-9.517-10.577 1.648-1.118 3.491-3.307 3.491-6.337s-2.12-5.588-2.12-5.588c3.296-.772 6.349-4.528 7.086-7.996" style="fill:#ffdc00;fill-opacity:1;fill-rule:nonzero;stroke:none;stroke-width:2.94956" transform="translate(-88.738 -152.994)"/><path d="M123.37 178.12c1.106 0 3.618.507 4.666 3.204-.403 1.762-3.986 5.311-4.908 6.233s-6.729 7.374-7.109 14.736c-.357 6.867 2.074 14.863 3.111 18.25-1.705-2.12-6.083-8.514-6.602-9.17-.507-.646-2.085-3.1-4.69-4.586-.149.668.346 3.237 2.996 4.677-5.472-1.37-7.327-5.956-8.145-8.007 0-4.943 2.938-10.335 3.744-11.464 3.837-5.346 12.755-8.918 14.875-9.275l-.116.496c-1.025.426-7.8 4.977-8.675 5.783-.876.796-3.664 4.655-3.664 6.257 0 .449.046.99.507.99.472 0 2.166-.15 3.629-3.433.876-1.797 2.373-3.307 2.373-3.307 2.097-1.21 5.197-3.18 6.441-4.136 1.256-.956 2.316-1.82 2.316-2.996 0-1.186-1.13-2.43-6.348-2.35 1.175-.956 3.606-1.901 5.6-1.901" style="fill:#ffdc00;fill-opacity:1;fill-rule:nonzero;stroke:none;stroke-width:2.94956" transform="translate(-88.738 -152.994)"/><path d="M124.822 194.654c-1.233.957-2.627 2.524-2.627 4.505 0 1.982.945 6.349 6.475 6.499 1.026 1.405 3.11 4.516 1.694 9.39-.83-1.095-2.385-4.033-2.95-4.701-.714-.853-2.465-2.788-4.182-1.982 1.348 1.602 5.046 6.36 5.415 6.994.38.634 2.212 3.986 1.694 6.118l-3.745-4.32c-.91-1.568-3.134-3.607-6.602-4.563-3.733-3.733-1.624-18.919 4.828-17.94" style="fill:#ffdc00;fill-opacity:1;fill-rule:nonzero;stroke:none;stroke-width:2.94956" transform="translate(-88.738 -152.994)"/><path d="m125.19 216.557.738.53 1.486 3.088-1.267 1.67-1.037-1.74zm0 0" style="fill:#ffdc00;fill-opacity:1;fill-rule:nonzero;stroke:none;stroke-width:2.94956" transform="translate(-88.738 -152.994)"/><path d="m123.889 215.14-1.832-.46c-.23 3.698 2.2 9.136 5.357 12.109-2.097-4.356-2.915-6.418-3.525-11.649" style="fill:#ffdc00;fill-opacity:1;fill-rule:nonzero;stroke:none;stroke-width:2.94956" transform="translate(-88.738 -152.994)"/><path d="M146.897 175.816c.45 0 1.29.91 1.383 1.049l.104 1.233 1.878.449v.276l-5.427-.033-1.071-.161c.092-.346.794-1.302 1.083-1.567l1.37 1.037h.888v-.772l-.841-.864c-.104-.208.196-.646.633-.646M144.04 177.326c-.207.276-.714 1.255-.714 1.255l-1.049-.15.473-.713zM142.197 177.879l-.37.484-1.44-.323.853-1.118c.058.38.07 1.003.957.957M136.862 176.611c-2.316 3.007-1.601 4.84 2.247 7.063-.818.403-3.157 1.66-2.915 5.23.23 3.573 2.523 4.01 2.523 4.01.864-.219 7.074-.91 8.895.6.426 1.152 2.05 3.468 5.346 3.468 1.751 0 3.088-2.062 3.088-2.062l.092 3.306-.484.23-1.106-.161-1.636.956-.68-.207c-1.164-.76-3.733-1.556-4.298-1.556-.576 0-2.27.427-2.27.427 1.58.795 3.734 4.078 3.734 6.648s-.784 9.655-4.47 9.275c.322-.357.91-.876.91-2.051s-.75-1.233-.75-1.233c-.518.162-3.767 3.18-6.659 5.807-2.408 2.178-4.586 4.044-4.586 4.044s4.033-5.565 4.033-12.19c0-1.659-.369-7.938-5.116-12.731 3.826.795 10.197 10.91 12.283 10.91.264 0 .68-.322.656-.84-.034-.507-.449-2.765-.449-2.765-.899-.876-5.415-4.505-6.521-4.99-3.952-1.75-7.363-4.458-7.363-6.636 0-1.21.404-2.811.703-3.26.311-.461 3.007-4.563 3.007-4.563l-.115-1.026c-.714-.092-1.348-1.129-2.108-2.742.391-.852 2.327-2.442 4.01-2.96M157.094 181.865c.254.162.76 1.106.738 1.51-.024.403-.242 1.278-1.233 2.465-.07-.104-.15-.241-.15-.369v-.933c-.507-.749-1.521-1.717-1.521-1.717l.115-.265c.519.254.876.196 1.521.162.634-.034 1.037-.104.53-.853" style="fill:#006330;fill-opacity:1;fill-rule:nonzero;stroke:none;stroke-width:2.94956" transform="translate(-88.738 -152.994)"/><path d="M149.41 182.142c-1.003.288-2.559 1.175-2.559 3.249 0 1.106.75 2.546 2.904 2.546.564 0 1.394-.242 1.705-.38-.68-.059-2.385-.461-2.385-1.106 0-.657.496-.668.496-.668.357 0 .357.195.921.195s.899-.138 1.152-.496c-1.037.059-2.776-.322-2.776-1.624 0-.795.276-1.28.541-1.717M152.013 189.493c-.265.599-.714 1.37-1.601 1.417-.876.042-3.641.058-3.952.058s-.841.116-.841.116l1.301-1.383s3.33-.025 3.791-.058c.461-.026 1.003-.059 1.302-.15M155.389 187.488l-2.281 2.224c.265.207.83.956.518 1.67h1.302c.415-.737.933-1.797.933-2.339-.23-.058-.714.289-.714.289l-.023-.646.207-.265zm0 0" style="fill:#006330;fill-opacity:1;fill-rule:nonzero;stroke:none;stroke-width:2.94956" transform="translate(-88.738 -152.994)"/><path d="M161.737 194.793c0 17.236-13.964 31.2-31.2 31.2-17.225 0-31.19-13.964-31.19-31.2 0-17.225 13.965-31.19 31.19-31.19 17.236 0 31.2 13.965 31.2 31.19zm10.405 0c0 22.974-18.631 41.604-41.605 41.604-22.975 0-41.594-18.63-41.594-41.604 0-22.975 18.62-41.594 41.594-41.594s41.605 18.62 41.605 41.594zm0 0" style="clip-rule:nonzero;fill:none;stroke:#14a335;stroke-width:.409988;stroke-linecap:butt;stroke-linejoin:miter;stroke-miterlimit:10;stroke-opacity:1" transform="translate(-88.738 -152.994)"/><path d="m109.602 164.237 1.601.472c.173.05.311.185.38.346l.588 1.567.933-1.383a.56.56 0 0 1 .45-.242l1.67-.083-1.014-1.314a.58.58 0 0 1-.103-.506l.449-1.614-1.579.565a.6.6 0 0 1-.507-.059l-1.394-.933.046 1.682a.56.56 0 0 1-.207.46zM165.482 196.337c.138 0 .276.058.38.137l1.268 1.107.16-1.671a.54.54 0 0 1 .266-.426l1.44-.865-1.532-.68a.55.55 0 0 1-.323-.392l-.38-1.636-1.118 1.256a.52.52 0 0 1-.472.185l-1.67-.138.84 1.44a.59.59 0 0 1 .034.519l-.645 1.543 1.636-.368c.035 0 .08-.008.116-.008M109.763 224.772l1.256 1.106c.138.127.207.3.196.484l-.15 1.66 1.452-.842a.56.56 0 0 1 .507-.033l1.543.645-.368-1.636a.6.6 0 0 1 .126-.496l1.095-1.267-1.67-.161a.57.57 0 0 1-.427-.277l-.864-1.429-.668 1.533a.6.6 0 0 1-.392.334zm0 0" style="fill:#11a335;fill-opacity:1;fill-rule:nonzero;stroke:none;stroke-width:2.94956" transform="translate(-88.738 -152.994)"/><path d="M115.213 160.043a.568.568 0 0 1 .737.691l-.668 2.397 1.52 1.97c.08.092.116.207.116.335a32.1 32.1 0 0 1 13.619-3.02c16.913 0 30.832 13.043 32.249 29.589l2.2.195 1.648-1.866a.6.6 0 0 1 .576-.173c.196.058.369.219.415.426l.564 2.42 2.27 1.002c.046.025.08.042.115.067-.368-21.753-18.192-39.335-40.038-39.335-7.028 0-13.63 1.82-19.38 5.012l1.706 1.129zm0 0" style="clip-rule:nonzero;fill:#ffdc00;fill-opacity:1;fill-rule:nonzero;stroke:none;stroke-width:2.94956" transform="translate(-88.738 -152.994)"/><path d="m110.051 226.546-1.867-1.647a.56.56 0 0 1-.172-.565.56.56 0 0 1 .426-.414l2.42-.576.944-2.178c-8.238-5.876-13.63-15.508-13.63-26.385 0-10.876 5.404-20.52 13.653-26.384a.66.66 0 0 1-.345-.335l-.864-2.339-2.397-.691a.58.58 0 0 1-.392-.45.57.57 0 0 1 .196-.553l1.959-1.544-.058-2.016C98.287 167.486 90.5 180.24 90.5 194.781c0 14.517 7.754 27.249 19.345 34.277v-.034zm0 0" style="fill:#11a335;fill-opacity:1;fill-rule:nonzero;stroke:none;stroke-width:2.94956" transform="translate(-88.738 -152.994)"/><path d="m168.397 196.302-.254 2.477a.53.53 0 0 1-.345.472.5.5 0 0 1-.22.05.57.57 0 0 1-.368-.137l-1.878-1.636-2.442.541c-.046.008-.104.008-.15.008-1.648 16.304-15.462 29.07-32.203 29.07a32.1 32.1 0 0 1-13.47-2.938c-.023.033-.034.067-.057.092l-1.636 1.89.541 2.43a.56.56 0 0 1-.196.565.58.58 0 0 1-.576.083l-2.304-.956-2.131 1.256a39.7 39.7 0 0 0 19.828 5.265c22.018 0 39.946-17.858 40.05-39.853-.023.008-.034.033-.058.05zm0 0" style="fill:#e63f23;fill-opacity:1;fill-rule:nonzero;stroke:none;stroke-width:2.94956" transform="translate(-88.738 -152.994)"/><path d="M117.413 169.283c-.288.68-.68 1.625-.576 2.017h-4.113m31.696 3.214c.196-.622.473-1.117.473-2.742 0-1.636-.116-2.719-.116-2.719-1.74-1.648-2.523-1.751-3.445-2.108-3.168-1.233-8.445-1.925-15.093-1.637-.392.026-7.547 3.515-7.604 3.699-1.06 3.065.726 6.97 3.664 10.773h18.826m-24.84-6.499c.748 1.44 3.099 6.119 4.493 7.467l2.12.299 19.667-.138m-39.116 25.094c.426-1.094.703-2.684.703-2.684-.588-.83-1.049-1.487-1.694-2.051m2.086 6.59c.564-1.647 1.417-3.883 1.417-3.883.887-.668 3.606-2.396 6.21-2.396s4.84.426 10.128 4.516 6.648 4.505 6.648 4.505v10.186l-3.02 1.832-2.004 1.405m2.846 0-.945 1.13 1.325-.208m3.25-9.24c-.185-1.752.126-3.63.357-4.413l6.13-3.664s2.615-1.682 3.467-2.19c.864-.495 4.401-2.442 7.224-2.442s3.595.392 3.595.392l-1.866-2.5-.484-.084-2.397-1.094-.691-3.768-1.29-4.862-1.556.23s.104.645.242 1.21c.138.564 1.313 5.208 2.108 7.19-.587.633-2.5 2.361-3.134 2.73-.633.38-5.472 3.053-5.472 3.053s-2.074.957-2.95 1.487-2.708 1.659-2.708 1.659l-.576-.034c-2.074-.84-4.47-2.362-6.429-3.802-1.97-1.429-4.655-3.572-5.6-4.136s-2.672-1.579-2.672-1.579.242-.633.702-1.693c.461-1.06 1.383-3.618 1.902-5.185.506-1.556 2.143-6.614 2.143-6.614l2.085-2.097-.127-1.394-2.73.323-1.164 4.298-.668.956-3.342 10.761c-.472.495-2.753 1.13-3.272 1.268-.507.137-3.572 1.002-4.055 1.267-.473.253-1.164.507-1.164.507l-3.457-2.835" style="fill:none;stroke:#fff;stroke-width:.409988;stroke-linecap:butt;stroke-linejoin:miter;stroke-miterlimit:10;stroke-opacity:1" transform="translate(-88.738 -152.994)"/><path d="m103.011 220.763-2.811-3.342.76-.656 1.994 2.373.599-.506-1.901-2.259.749-.622 1.9 2.259 1.095-.922.83.98zM99.451 216.396l-2.385-3.918.83-.506 1.716 2.811.576-.346-1.624-2.673.737-.45 1.625 2.673.576-.345-1.752-2.892.853-.518 2.431 3.975zm-2.454-1.21-.738-1.21 1.625.46.472.784zM98.806 208.838l-.83-2.12c-.196-.519-.426-.658-.98-.439l-.53.208c-.552.219-.621.472-.414.99l.83 2.12zm-2.42 2.338-1.428-3.606c-.461-1.198-.242-1.774.725-2.154l1.187-.461c.968-.38 1.521-.115 1.993 1.083l1.418 3.606zM94.001 204.655l-.922-4.493.945-.196.669 3.238.656-.138-.622-3.065.853-.173.622 3.065.657-.138-.68-3.307.99-.196.934 4.563zm-1.912-1.97-.277-1.383 1.371.98.185.898zM94.9 197.42l-.08-2.12c-.012-.346-.15-.473-.45-.461h-.138c-.369.025-.438.207-.415.61l.07 2.016zm-2.005 1.36-.15-3.872c-.034-.991.45-1.28 1.199-1.302l.265-.008c.564-.025.898.092 1.06.68h.011c.058-.393.208-.714.899-.738l.714-.025.046 1.279-.507.025c-.437.008-.576.15-.564.542l.08 2.028 1.083-.05.046 1.29zM95.545 190.702l.23-1.636-1.682.61zm-2.523-.334.23-1.66 4.47-1.704-.195 1.417-.795.299-.357 2.58.68.473-.196 1.417zM93.667 186.22l1.417-4.689.991.3-.518 1.728 3.018.91-.368 1.233-3.02-.91-.53 1.728zM95.499 180.644l.507-1.187 3.86 1.636-.507 1.187zM99.105 178.293c.53.311.795.323 1.095-.207l.83-1.417c.31-.53.172-.76-.358-1.06l-.38-.23c-.46-.265-.795-.311-1.13.277l-.76 1.302c-.345.587-.138.852.323 1.117zm-1.394.714c-1.06-.61-.968-1.36-.38-2.35l1.037-1.786c.576-1.002 1.175-1.452 2.235-.841l1.083.634c1.06.622.968 1.36.38 2.362l-1.037 1.774c-.576 1.003-1.175 1.452-2.235.841zM100.142 172.175l1.302-1.509 3.895.173v-.008l-2.305-1.993.853-.968 3.157 2.742-1.302 1.498-3.883-.161 2.293 2.004-.841.968zM164.318 203.203l-.645 2.19c-.15.53-.058.771.519.944l.541.162c.565.161.784 0 .933-.53l.646-2.19zm3.353-.357-1.094 3.722c-.358 1.233-.888 1.544-1.89 1.256l-1.221-.357c-.991-.3-1.268-.853-.91-2.086l1.094-3.721zM165.62 209.31l-2.016 4.125-.876-.427 1.452-2.96-.6-.3-1.37 2.811-.784-.38 1.371-2.812-.61-.299-1.475 3.042-.91-.45 2.05-4.182zM161.357 216.937l-2.765 3.4-.772-.635 1.947-2.408-.61-.484-1.855 2.282-.76-.61 1.854-2.293-1.106-.9.807-.99zM155.366 220.29c-.403-.46-.657-.542-1.106-.138l-1.233 1.095c-.45.403-.392.657.012 1.117l.3.335c.345.392.656.542 1.163.092l1.13-1.003c.494-.45.38-.771.033-1.163zm1.555-.241c.818.91.496 1.59-.368 2.361l-1.544 1.372c-.864.771-1.567 1.013-2.385.092l-.83-.934c-.818-.921-.495-1.59.369-2.362l1.532-1.37c.864-.772 1.579-1.015 2.397-.093zM150.354 224.346c-.323-.519-.553-.646-1.072-.335l-1.405.853c-.519.323-.507.588-.185 1.106l.23.38c.277.45.542.657 1.13.3l1.279-.784c.588-.345.53-.68.253-1.129zm1.567.05c.634 1.048.196 1.66-.784 2.258l-1.762 1.072c-.991.6-1.729.703-2.374-.346l-.645-1.06c-.634-1.048-.208-1.659.783-2.258l1.763-1.071c.991-.6 1.728-.714 2.374.334zM146.99 228.99l-4.551 1.831-.392-.968 1.682-.68-1.175-2.915 1.187-.484 1.175 2.927 1.682-.68zM139.927 229.772l-2.224.507c-.23.05-.346.162-.3.392.058.242.208.3.438.242l2.224-.496zm-.346-1.486-2.247.507c-.265.067-.437.173-.38.403.058.277.254.3.53.242l2.247-.507zm1.959 2.835-3.606.806c-1.003.231-1.544.067-1.729-.737-.161-.703.07-.887.392-1.072v-.025c-.565.059-.841-.184-.98-.807-.195-.898.289-1.198 1.003-1.36l3.998-.91zM133.106 230.003l-1.636.067.91 1.532zm.15 2.535-1.67.083-2.501-4.078 1.429-.067.426.725 2.604-.115.345-.76 1.43-.067zM128.474 232.618l-1.279-.138.334-3.099-2.88-.31.115-1.06 4.148.437zM123.497 232.008l-1.245-.3.738-3.03-2.811-.68.253-1.048 4.056.99zm0 0" style="fill:#ffdc00;fill-opacity:1;fill-rule:nonzero;stroke:none;stroke-width:2.94956" transform="translate(-88.738 -152.994)"/><path d="m118.98 161.656 1.245-.334c.115.426.3.414.656.322l1.521-.403c.265-.083.53-.173.438-.484-.092-.357-.242-.334-1.843.092-1.867.496-2.143.323-2.408-.668-.196-.737-.277-1.313 1.29-1.728l1.728-.472c1.44-.38 1.706.066 1.89.783l.034.127-1.244.334c-.081-.299-.15-.414-.715-.265l-1.382.37c-.277.083-.438.23-.38.448.092.345.253.311 1.578-.05 1.924-.518 2.408-.518 2.72.657.299 1.095-.024 1.371-1.671 1.809l-1.51.403c-1.129.3-1.636.22-1.878-.668zm0 0" style="fill:#14a335;fill-opacity:1;fill-rule:nonzero;stroke:none;stroke-width:2.94956" transform="translate(-88.738 -152.994)"/><path d="m126.654 155.688 1.394-.139-1.106 1.267-.91.092zm-2.155 1.694 4.563-.45.103.957-3.295.334.07.668 3.11-.31.093.863-3.111.311.07.668 3.352-.334.104 1.002-4.632.461zm0 0" style="clip-rule:nonzero;fill:#14a335;fill-opacity:1;fill-rule:nonzero;stroke:none;stroke-width:2.94956" transform="translate(-88.738 -152.994)"/><path d="m130.295 156.863 1.981.127 2.213 3.203h.011l.208-3.042 1.278.092-.276 4.183-1.993-.138-2.2-3.192h-.013l-.207 3.03-1.279-.083zM139.812 156.586l1.36.323-1.453.83-.898-.22zm-2.593.888 4.46 1.071-.231.945-3.203-.772-.162.657 3.042.726-.207.841-3.03-.725-.162.656 3.284.783-.23.98-4.54-1.083zM142.197 160.216c.472-1.13 1.22-1.13 2.292-.68l1.786.75c1.337.564 1.325 1.128 1.003 1.889l-.046.115-1.164-.484c.161-.391-.034-.53-.426-.691l-1.28-.542c-.598-.242-.817-.173-1.094.496l-.196.472c-.288.668-.184.876.415 1.13l1.256.53c.311.126.645.218.795-.162l.046-.115-1.463-.61.334-.808 2.65 1.118-.461 1.106c-.46 1.106-1.06.922-2.397.357l-1.417-.599c-1.071-.45-1.59-.99-1.117-2.12zM149.052 164.71l1.371.886.161-1.774zm1.36-2.155 1.405.91-.345 4.77-1.199-.783.07-.841-2.19-1.406-.714.415-1.21-.784zM154.329 165.274l.956.853-2.062 2.327 2.143 1.913-.714.806-3.111-2.776zm0 0" style="fill:#14a335;fill-opacity:1;fill-rule:nonzero;stroke:none;stroke-width:2.94956" transform="translate(-88.738 -152.994)"/><path d="m157.313 171.738 1.049 1.267.68-1.648zm1.947-1.648 1.072 1.302-1.775 4.436-.91-1.106.323-.772-1.66-2.016-.806.184-.922-1.106zM162.118 173.858l.702 1.083-3.537 2.27-.691-1.084zM160.908 177.06l.564 1.153c-.403.195-.345.38-.184.703l.691 1.417c.116.253.265.484.553.345.334-.16.288-.31-.449-1.797-.841-1.74-.737-2.04.196-2.489.68-.334 1.233-.53 1.947.934l.784 1.613c.656 1.325.265 1.67-.392 1.993l-.127.058-.564-1.152c.276-.138.38-.219.115-.749l-.622-1.279c-.127-.265-.3-.392-.507-.3-.323.162-.265.312.345 1.545.876 1.786.98 2.258-.126 2.8-1.014.495-1.348.23-2.097-1.302l-.68-1.406c-.518-1.048-.53-1.555.288-1.959zM166.162 181.658l1.325 4.39-.933.276-.957-3.157-.645.196.91 2.996-.83.241-.91-2.984-.645.185.98 3.238-.968.287-1.348-4.459zm0 0" style="fill:#14a335;fill-opacity:1;fill-rule:nonzero;stroke:none;stroke-width:2.94956" transform="translate(-88.738 -152.994)"/></svg>