<svg xmlns="http://www.w3.org/2000/svg" xml:space="preserve" id="Livello_1" width="147.7" height="250" version="1.1" viewBox="0 0 295.4 500"><style>.st1{fill:#ffc908}</style><path d="m147.7 500-1-.2c-25.3-6.8-49.8-16.7-72.8-29.3-48.4-27-73.9-61.2-73.9-99V116.6c.1-10.8 8.9-19.4 19.7-19.3h256c10.8-.1 19.6 8.6 19.7 19.3v255c0 38.6-25.6 73-73.9 99.6-23 12.5-47.5 22.1-72.8 28.6z" style="fill:#ff0028"/><path d="m147.7 500-1-.2c-25.3-6.8-49.8-16.7-72.8-29.3-48.4-27-73.9-61.2-73.9-99V116.6c.1-10.8 8.9-19.4 19.7-19.3h256c10.8-.1 19.6 8.6 19.7 19.3v255c0 38.6-25.6 73-73.9 99.6-23 12.5-47.5 22.1-72.8 28.6zm-135-389.2v258.8c0 34.3 22.7 64.3 67.3 89.4 30.7 17.2 61.9 26 67.7 27.6 12.2-3.1 135-36.7 135-116.9V110.8zm96.6-82.9h29.3L147.7 0l9.1 27.9h29.3l-23.7 17.2 9 27.9-23.7-17.2L124 73l9-27.9z" class="st1"/><path d="m85.3 425.4-3.8 3.3-3.4-2.7c.6-.5 1-1.2 1-2v-10.5c0-.5-.1-1-.4-1.5-.3-.3-.7-.5-1-.7l-1.2 1-.5-.6 3.6-3.1c.4.2.8.5 1.2.7s.7.5 1 .9c.2.4.3.8.4 1.2.1.5.1 1.1.1 1.6v11.6c.1.2.3.4.4.6.3.4.6.6.8.6.1 0 .3-.2.7-.5l.6-.6zm14.4-8.3c0 2.2-.6 4.3-1.6 6.2-1.3 2.1-3 3.9-5 5.4l-5.5-2.7 2.3-2.3 4.6 2.5c1.8-2 2.7-4.6 2.5-7.2v-1.1l-6.3 4.5c-2.6-1.1-3.9-2.9-3.9-5.3 0-1.5.5-2.9 1.4-4.1 1.3-1.6 2.9-3 4.7-4.1 2 .5 3.7 1.7 5.1 3.2 1.1 1.3 1.8 3.1 1.7 5m-2.9.1c-.3-1.4-.9-2.6-1.9-3.7q-1.65-1.5-3.9-2.1c-1.2.8-2 2.1-1.9 3.6 0 1.2.4 2.3 1.2 3.2.6.8 1.5 1.3 2.6 1.4h.4c.2 0 .4-.1.5-.3zm111.2.9c0 2-.5 3.9-1.5 5.6-1.3 2-2.9 3.7-4.8 5-2-.6-3.8-1.8-5-3.5s-1.9-3.8-1.8-6c0-2 .5-4.1 1.6-5.8 1.2-1.9 2.9-3.6 4.8-4.8q3 1.35 5.1 3.9c1.1 1.7 1.7 3.6 1.6 5.6m-2.2 1.3c0-1.9-.6-3.7-1.8-5.1-1.3-1.5-3-2.5-4.9-2.9-.6.7-1.2 1.6-1.5 2.5s-.5 1.8-.4 2.7c-.1 2.2.6 4.3 1.9 6.1 1.2 1.7 2.9 2.8 4.9 3.2 1.2-1.8 1.9-4.1 1.8-6.5m17.1-2.3c0 2.2-.6 4.3-1.6 6.2-1.3 2.1-3 4-5.1 5.4l-5.5-2.7 2.4-2.3 4.6 2.5c1.7-1.7 2.5-4.2 2.5-7.3v-1.1l-6.4 4.5q-3.9-1.65-3.9-5.4c0-1.5.5-2.9 1.4-4.1 1.3-1.6 2.9-3 4.7-4.1 2 .6 3.7 1.7 5.1 3.2 1.2 1.4 1.9 3.3 1.8 5.2m-3 0c-.3-1.4-.9-2.7-1.9-3.7q-1.65-1.5-3.9-2.1c-1.2.8-2 2.2-1.9 3.6 0 1.2.4 2.3 1.2 3.2.6.8 1.5 1.3 2.6 1.4h.4c.2-.1.4-.1.5-.3zm-35.7 1.6c0 20.2-16.4 36.5-36.5 36.5s-36.5-16.4-36.5-36.5c0-20.2 16.4-36.5 36.5-36.5 20.2 0 36.5 16.3 36.5 36.5m-36.5-32.5c-17.9 0-32.5 14.5-32.5 32.5 0 17.9 14.5 32.5 32.5 32.5s32.5-14.5 32.5-32.5c-.1-17.9-14.6-32.5-32.5-32.5" class="st1"/><path d="M133.3 410.7v4.4h-3.4v-13.6h8.7c1.6-.1 3.1.3 4.4 1.2 1 .8 1.6 2.1 1.5 3.4v.1c0 .9-.2 1.9-.7 2.7-.4.6-1.1 1.1-1.8 1.4l3.1 4.8H141l-2.5-4.4zm5.2-6.3h-5.2v3.4h5c.7 0 1.4-.1 2.1-.4.4-.3.7-.8.7-1.3v-.1c0-.5-.2-1-.6-1.3-.6-.3-1.3-.4-2-.3m13.9 10.7v-13.7h14.1v3H156v2.5h9.5v2.8H156v5.4zm0 20.8v-13.6h14.1v2.9H156v2.6h9.5v2.8H156v5.3zm-22.5-13.6h14.7v2.9h-11.1v2.3h9.7v2.8h-9.7v2.7h11.2v2.9h-14.8zm24-64.3c-2.4.3-4.7 2.5-5.2 3.1v-.6c0-.8-.2-1.6-.4-2.4 3-.2 5.3-2.1 5.3-4.7 0-2.1-1.4-4-3.4-4.5 0-.3.1-.5.1-.8.1-.3.2-.8.2-.8l-.9.3q-.45.15-.9.6c-.1-.2-.2-.4-.3-.7-.2-.3-.4-.5-.7-.7-.3.2-.5.4-.8.6-.2.3-.4.5-.6.8-.2-.2-.5-.4-.8-.5-.4-.1-.9-.1-1.4 0l.7.7.3.6c-2.2.2-3.3 2.4-3.3 4.4 0 2.5 2.4 4.5 5.4 4.7.1.8.2 1.6.2 2.4v.3c-.8-.5-4.1-2.8-5.6-3.1-2.2-.5-4.8-.1-5.8-.2.6.5 1.3 1 1.9 1.6 1 .9 2.2 1.6 3.5 2 2 .5 4.1.4 6.1-.2-.1.9-.4 1.8-.7 2.7 0 0 .7-.2.9-.3.3-.1.5-.2.8-.2l.2-2 .9-.1c.4-.1 2.8.2 5 .2 1.5-.1 3-.7 4.2-1.7.6-.4 1.6-.9 1.6-.9-2.1-.7-4.3-.9-6.5-.6m-7.7-4.6c0-1.6.6-3.1 1.8-4.2 2.3 2.3 2.3 6 .1 8.3l-.1.1c-1.1-1.1-1.8-2.6-1.8-4.2m9.1-67.8h-3l-.6.8c.9.1 1.7.6 2.3 1.3l.1.1.1-.2c.5-.7 1.3-1.1 2.2-1.2l-.6-.8zm-17.1-7.4c-1.1 0-2 .9-2 1.9 0 .4.1.7.3 1.1l.6 1.3c.2-.5.7-.8 1.3-.8.7 0 1.3.4 1.5 1.1h2.3c.2-.6.8-1.1 1.5-1.1.6 0 1.1.3 1.3.8l.6-1.3c.2-.3.3-.7.3-1.1 0-1.1-.9-2-2-1.9-.8 0-1.5.5-1.8 1.2v.1-.1c.5-1.1.7-2.2.7-3.4 0-1.9-1.8-3.9-1.8-3.9s-1.8 2-1.8 3.9c0 1.2.3 2.3.7 3.4v.1-.1c-.1-.7-.9-1.2-1.7-1.2m11.9 4.4c.2-.5.7-.8 1.3-.8.7 0 1.3.4 1.5 1.1h2.3c.2-.6.8-1.1 1.5-1.1.6 0 1.1.3 1.3.8l.6-1.3c.2-.3.3-.7.3-1.1 0-1.1-.9-2-2-1.9-.8 0-1.5.5-1.8 1.2v.1-.1c.5-1.1.7-2.2.7-3.4 0-1.9-1.8-3.9-1.8-3.9s-1.8 2-1.8 3.9c0 1.2.3 2.3.7 3.4v.1-.1c-.4-1-1.6-1.5-2.6-1-.7.3-1.2 1-1.2 1.8 0 .4.1.7.3 1.1zm6.8.9h-5.7v1.4h5.7zm-10.4 8.7c.1.1 0 .1 0 0-.4-1-1.6-1.5-2.6-1-.7.3-1.2 1-1.2 1.8 0 .4.1.7.3 1.1l.6 1.3c.2-.5.7-.8 1.3-.8.7 0 1.3.4 1.5 1.1h2.3c.2-.6.8-1.1 1.5-1.1.6 0 1.1.3 1.3.8l.6-1.3c.2-.3.3-.7.3-1.1 0-1.1-.9-2-2-1.9-.8 0-1.5.5-1.8 1.2v.1-.1c.5-1.1.7-2.2.7-3.4 0-1.9-1.8-3.9-1.8-3.9s-1.8 2-1.8 3.9c.1 1.1.4 2.2.8 3.3m2.4 6.2h-3l-.6.8c.9.1 1.7.6 2.3 1.3l.1.1.1-.2c.5-.7 1.3-1.1 2.2-1.2l-.6-.8zm-9-13.5h4.1v-1.4h-5.7v1.4zm4.9 11.4h-.1v1.4h5.8v-1.4zm-1.2-9.9-.6-.8h-3.5l-.6.8c.9.1 1.7.6 2.3 1.3l.1.1.1-.2c.4-.6 1.2-1.1 2.2-1.2m34.9-61.8c2.6 1 4.8 2.7 6.5 5 1.2-.8 3.3-1.5 4.7-.8h.1c.2-.2-.5-1.2-.9-1.2h-.1c-.1.1-.4.3-.5.4h-.1c0-.1.1-.3.1-.4v-.1c-.2-.3-.6-.3-.9 0-.1.1-.2.2-.2.4v.1l.3.3c.1 0 0 .1-.1.1-.3 0-.8.1-1-.2-.1-.1-.2-.3-.1-.5v-.1c-.1 0-.3 0-.4-.1-.3-.3 0-.6.2-.8 0 0 .1-.1.1 0s.1.3.1.4v.1c.3.1.7 0 .8-.4.1-.1.1-.3 0-.4h-.1c-.1 0-.3-.1-.4-.1 0 0-.1-.1 0-.1.2-.1.5-.2.6-.3h.1c.1-.3 0-.7-.4-.8-.1-.1-.3-.1-.5 0v.1c-.1.2-.2.5-.3.6h-.1c0-.1-.1-.3-.1-.4v-.1c-.3-.1-.7 0-.8.4-.1.1-.1.3 0 .5h.1c.2 0 .3.1.4.1s0 .1 0 .1c-.3.3-.6.6-1 .3-.2-.1-.3-.4-.2-.6-.2.1-.4 0-.6-.1-.5-.4-.1-.8.1-1.1l.1-.1c.1.1.1.3.2.4 0 0 0 .1.1.1.3.1.7-.1.8-.4 0-.2 0-.3-.1-.5h-.1c-.1 0-.3 0-.5-.1 0 0-.1 0 0-.1s.4-.3.6-.4c0 0 .1 0 .1-.1.1-.3-.1-.7-.4-.8-.2 0-.3 0-.5.1v.1c-.1.2-.2.6-.2.6h-.1s-.1-.3-.2-.4c0 0 0-.1-.1-.1-.3-.1-.7.1-.8.5 0 .2 0 .3.1.4h.1l.5.1c.1 0 0 .1 0 .2-.3.3-.6.8-1 .4-.2-.1-.2-.3-.2-.5-.2.1-.5.1-.6 0-.4-.3-.2-.7 0-1l.1-.1c.1.1.2.3.2.4 0 0 0 .1.1.1.3 0 .6-.2.7-.6 0-.2 0-.3-.1-.4h-.6s-.1 0 0-.1.4-.4.5-.4c0 0 .1 0 .1-.1 0-.2-.1-.5-.3-.6s-.5-.1-.7 0v.1c0 .2-.1.5-.1.7h-.1c0-.1-.2-.3-.2-.4l-.1-.1c-.3 0-.6.2-.7.5 0 .2 0 .3.1.4h.6c.1 0 0 .1 0 .2-.2.3-.3.6-.7.4-.1-.1-.2-.2-.2-.3h-.1c-.1.1-.3.1-.5 0-.3-.1-.4-.7-.4-.9 0-.1 0-.2.1-.1s.3.2.4.2h.1c.3-.1.5-.5.4-.8-.1-.1-.2-.3-.3-.3h-.1c-.1.1-.3.2-.4.2h-.1c0-.1.2-.4.2-.6v-.1c-.1-.4-1.3-.8-1.4-.5v.1c.9.8.8 3 .3 4.4m-3.7 30.5c-2.6-.8-5.4.6-6.2 3.2-.4 1.1-.3 2.3.1 3.4 0-.4.1-.9.3-1.2.2-.4.5-.7.8-.9-.2.5-.3 1-.2 1.5.1.6.3 1.2.7 1.6 0-.3.1-.6.2-.9 0-.1.1-.2.3-.2.1 0 .2.1.3.2.1.3.1.6.2.9 0 .3 0 .6-.1.9-.5 1.5-2.1 2.3-3.5 1.8-.3-.1-.5-.2-.7-.4-.6-.4-1.2-.6-1.9-.9-.8-.2-1.6-.2-2.4.2-.6.3-1 .8-1.1 1.5.4-.5 1.1-.7 1.7-.5.2 0 .3.2.3.4.1.6.7 1 1.4.9.1 0 .2 0 .4-.1s.5-.2.8-.3c.1 0 .3.1.3.2.1.2 0 .4-.2.4-.4.1-.7.2-1.1.3-.7.4-1.3 1-1.6 1.8-.2.6-.1 1.3.2 1.8 0-.6.3-1.2.9-1.5.2-.1.4-.1.5 0 .5.3 1.2.2 1.6-.2.1-.1.1-.2.2-.3s.3-.7.5-1c.1-.2.3-.2.4-.2.1.1.2.2.2.4-.1.3-.2.6-.2.9 0 .8.3 1.6.7 2.3.4.5 1 .7 1.7.7-.6-.3-.9-.9-.9-1.5 0-.2.1-.4.3-.4.6-.3.8-1 .6-1.5-.1-.1-.1-.2-.2-.3s-.1-.3-.2-.4c-.1-.2 0-.4.2-.4h.3c2.1 1.3 4.9.9 6.5-1-.4 0-.8-.1-1.2-.2s-.7-.3-1-.5c1.1-.1 2.1-.7 2.7-1.7-.7.3-1.6-.1-1.8-.9-.3-.7.1-1.6.9-1.8q.45-.15.9 0c.2.1.5 0 .6-.2v-.1c.6-2.6-.8-5-3.2-5.8m-9-24.3c.3.4.8.7 1.3.9.3.1.6.1.9.1h5.5c-1.6-.4-3.6-.7-5.1-1.2-.4-.1-.8-.4-1.1-.7-.9-1-2.5-1.1-3.6-.3.3 0 .5 0 .8.1.5.2.9.6 1.3 1.1" class="st1"/><path d="M170.4 229.8c0 .4.1.9.4 1.2.3-.9 1.2-1.3 2.1-1s1.3 1.2 1 2.1c-.2.7-1 1.2-1.7 1.1h-.1c-.5-.1-.8-.6-.7-1.1-.2.2-.3.4-.4.7-.3.8-.2 1.6-.5 2.2-.2.5-.6.4-.8.9 2.3-.7 2.7-.1 3.2-.2 1-.4 2-.8 3-1.1.2-.1.4-.4.3-.6v-.1c-.1-.3-.1-.7 0-1l.3-.6c.1-.1.1-.1.2 0 0 0 .1.1 0 .2 0 .1-.1.2-.1.3-.1.4-.1.8.1 1.1 0 .1.1.2.2.3.1.2.3.4.4.6v.2c-.2.1-1.4.4-1.7.6-.2.1-.4.3-.3.6 0 .3 0 .5-.2.7s-.5.4-.8.4c-1.4 0-2.8.2-4.2.5-1.1.4-1.8 1.4-1.8 2.6 1.1-.2 2.1 0 3.1.5l.7.4-.7.5c-.8.7-1.2 1.7-1.2 2.7 1-.4 2.1-.4 3.1.1l.6.3-.5.5c-.7.7-.9 1.8-.4 2.7.9-.8 2.2-1 3.4-.7l.4.1.1.4v.1c0 .8.3 1.5.8 2 .8-.9 1.9-1.5 3.1-1.6 1-.4 1.8-1.4 2-2.5-2.1 1-1.9-.4-1.4-.8 1.2-1.3 1.5-2.8 2-4.5 0-.1.1-.2.1-.3.1-.2 0-.5-.2-.6-.2-.2-.3-.5-.4-.8 1.3.9 2.4-.6 2.3-1.5-.8 1-1.1.5-1.1.1s.4-4.2-.5-6.1c.9.2 1.7-.2 2-1.1 0-.1 0-.2.1-.3-.7.3-1.4.1-1.9-.4-.3-.4-.5-.7-.9-1-1.3-1.4-3-2.5-4.8-3.1-.4.4-1 .6-1.6.6l-2.6-.1c-.5-.2-1 .1-1.3.5-.7.5-1.5.9-2.3 1.2-.3.1-.4.3-.4.6 0 .1.1.2.2.3.3.3.4.8.3 1.2m3.8-2v-.1h.1l2.2.6c-.6.9-1.8 1-2.7.4l-.1-.1v-.2z" class="st1"/><path d="M154.7 234.9c.4.5 1.1.6 1.6.3.1-.1.2-.2.3-.2.2-.1.3-.2.5-.3s.4 0 .5.1c0 .1.1.1 0 .2v.1c-.3 1 .2 2.1 1.2 2.4.2.1.3.1.5.1.4.6.8 1.1 1.3 1.5-.1.1-.2.1-.3.1-.6 0-1.2-.4-1.5-1-.1.6.1 1.3.6 1.7.6.5 1.4.8 2.2.8-.7.3-1.4.4-2.1.1.4.6.9 1 1.6 1.2q2.1.45 4.2.6c1 .2 1 1.1 2 .9.7-.3 1.4-.6 2-1 .2-.4.4-.8.7-1.2-.7-.2-1.5-.2-2.2.1l-.8.3v-.9c-.1-.7 0-1.4.3-2-.8 0-1.5-.2-2.3-.4-.3-.1-.6-.2-.8-.3-.7-.4-1.4-.8-1.9-1.4l-.1-.1-.1-.1v-.1l-.1-.1v-.3c0-.1-.1-.1-.1-.2-.1-.2-.2-.3-.3-.5-.4-.8-.7-1.7-.7-2.6-.2-.4-.2-.8-.2-1.2 0-.6.2-.7.3-1.6.1-.8-.2-1.6-.6-2.3-.4-.5-.9-.7-1.5-.7h-.2c.5.3.9.9.9 1.5 0 .2-.1.4-.3.4-.6.3-.9.9-.7 1.5.1.1.1.2.2.3.1.2.1.4.2.6v.3c-.1.2-.2.3-.4.2-.1 0-.1-.1-.2-.1l-.3-.3c-.4-.5-.3-.6-.8-1.4-.5-.6-1.2-1.1-2-1.3-.6-.1-1.2.1-1.6.4l-.1.1c.6-.1 1.3.1 1.7.6.1.1.1.4 0 .5-.2.6 0 1.3.5 1.6.1 0 .2.1.3.1.3.1.6.3.8.6.1.1.2.2.1.4 0 .1-.2.2-.3.2h-1.1c-.8.1-1.6.6-2.1 1.2-.4.5-.5 1-.4 1.6v.2c.2-.6.7-1.1 1.3-1.2 0-.3.2-.2.3 0m32.9 1.8c-2.1 4.5 1.5 9.3 3.2 13.3.9 2.3 1.3 4.8 1.1 7.2 0 .3-.1.6-.2.8-.5 1.5-1.9 2.4-3.4 2.3q-.3 0-.3-.3c-.1-1.3-.7-2.5-1.7-3.4-2.4-2-3.2-2.3-4.5-3.9-.9-.9-1.1-2.3-.7-3.5-1.1 0-2.2.6-2.8 1.5l-.3.4-.5-.2c-1.1-.6-1.8-1.7-1.8-2.9-.9-.1-1.8.2-2.4 1l-.4.5-.4-.5c-.2-.2-.3-.4-.4-.6l-1.1-.1c-.4.8-.9 1.6-1.5 2.3 2.6 1.4 4.9 2.3 7.3 3.7 2.4 1.5 3.5 4.4 2.8 7.1-.1.4-1.1 4-.7 5.9.1 1.2.7 2.3 1.6 3.1-.2-.4-.2-.8-.2-1.3 0-.4.1-.8.3-1.1 0 .5.1 1 .4 1.4.3.5.8.9 1.4 1.2-.2-.5-.2-1-.1-1.5.2-.6.7-1.1 1.3-1.3 1.1-.4 2-1.3 2.3-2.5.3 1 .2 2-.4 2.9.6.5.8 1.3.5 2-.1.8-.6 1.5-1.2 1.9-.1 0-.9.4-3-.4-.8-.2-1.6-.2-2.4.2-.6.3-1 .8-1.1 1.5.4-.5 1.1-.7 1.7-.5.2 0 .3.2.3.4.1.6.7 1 1.4.9.1 0 .2 0 .4-.1s.5-.2.8-.3c.2 0 .3.2.3.3s-.1.3-.2.3c-.4.1-.7.2-1.1.3-.7.4-1.3 1-1.6 1.8-.2.6-.1 1.3.2 1.8 0-.6.3-1.2.9-1.5.2-.1.4-.1.5 0 .5.3 1.2.2 1.6-.2.1-.1.1-.2.2-.3s.3-.7.5-1c.1-.2.3-.2.4-.2.1.1.2.2.2.4-.1.5-.3.9-.6 1.4-.4.7-.5 1.6-.4 2.4.2.6.6 1.1 1.2 1.4-.4-.5-.4-1.2-.1-1.8.1-.2.3-.3.5-.2.6 0 1.2-.5 1.2-1.1 0-.5-.4-.8-.3-1.1 0-.2.2-.3.3-.3 1 .2 2-.5 2.2-1.5.1-.4 0-.8-.1-1.1-1-2.2 2.8-3.9 2.8-5.2.3-1-.2-2-1.2-2.3-.3-.1-.6-.1-.9-.1-.5.1-.9-.2-1-.7-.2-.9-.6-1.8-1.2-2.6l.3-.6c2.5.3 4.9-1.3 5.7-3.7.2-.6.3-1.2.3-1.9.1-2.6-.4-5.1-1.3-7.5-1.7-4.2-6-9.1-2.4-13.5 1.5-1.8 3.5-1.5 4.3-.8.7.5 1.4 1.4 2.1 3.7.4 1.6 1.7 2.8 3.3 3-.6-.5-1-1.3-1.2-2.1-.1-.2.1-.5.3-.5s.3 0 .5.1c1.1 1.6 3.3 1.9 4.9.8.5-.4.9-.8 1.1-1.4-.7.5-1.7.6-2.5.2-1.3-.4-1.5-2.3-2.4-3.4-.8-1.2-2.1-2.2-3.5-2.7-3.4-1-7.5.7-9.1 4.3" class="st1"/><path d="M161.2 255.6c.4.4 1 .6 1.5.6h.2c-.6-.3-1-.8-1-1.5 0-.2.1-.4.3-.4.5-.3.8-1 .5-1.6-.1-.1-.1-.2-.2-.3-.1-.2-.2-.4-.2-.6v-.3c.1-.1.2-.2.4-.2h.1c.9.5 2.1.1 2.5-.8.1-.2.1-.3.2-.5.6-.3 1.2-.6 1.7-1 .1.1.1.2.1.3-.1.6-.6 1.1-1.2 1.3.6.2 1.3.1 1.8-.3.6-.5 1-1.3 1.1-2.1.2.7.2 1.5-.2 2.1.9-.4 1.5-1.2 1.6-2.2v-.1c0-.2.2-.3.3-.3s.1 0 .2.1c.3.1.6.1.9.1-.3-.9-.2-2 .3-2.8-.7-.2-1.4 0-2 .4l-.6.5-.2-.7c-.2-.6-.3-1.3-.2-1.9-2.9 2.2-3 3.4-5.7 4.3q-1.35.45-2.7.3-.6.15-1.2 0c-.6-.1-.6-.3-1.5-.6q-1.2-.3-2.4.3c-.5.3-.9.8-1 1.3v.2c.4-.5 1-.7 1.7-.6.2 0 .3.2.4.4.2.6.8 1 1.4.9.1 0 .2-.1.4-.1s.4-.1.6-.1h.3c.2.1.2.3.1.5 0 .1-.1.1-.1.1-.1.1-.2.2-.4.3-.5.3-.7.2-1.5.6-.7.4-1.3 1-1.6 1.8-.2.5-.1 1.1.2 1.6 0 .1.1.1.1.2 0-.6.3-1.2.8-1.6.2-.1.4-.1.5 0 .5.3 1.2.2 1.6-.3.2-.4.5-.7.9-1 .1-.1.3-.1.4-.1.1.1.2.2.2.4-.1.4-.1.7-.2 1.1-.1.8.2 1.6.8 2.3" class="st1"/><path d="M82.3 324.7c0 15.1 7.3 27.2 21 35.2 11.4 6.6 27.2 10.2 44.5 10.2 31.6 0 65.3-11.9 65.3-45.4V210.2H82.3zm25 32.1c-.6-.3-1.1-.6-1.6-.9-1.9-1.1-3.8-2.3-5.5-3.7v-65.8h7.1zm6 2.1v-72.5h7.1v72.4c-1.2.2-2.5.3-3.8.3-1.1-.1-2.2-.1-3.3-.2m34.5 6.5c-10.3.1-20.6-1.4-30.5-4.5 8.3-.2 16.2-4.2 22.2-11.4 3.9-4.7 6.7-10.2 8.1-16.2 1.3 6.1 4 11.7 8 16.5 5.7 6.8 14.1 10.9 23 11.1-10 3.1-20.4 4.6-30.8 4.5m-21.4-8.4v-70.6h.8c.2 5.9 2.4 11.5 6.3 15.9v50.4c-2.2 1.7-4.6 3.2-7.1 4.3m13.1-10.4v-39.7c2.2 1.1 4.7 1.8 7.2 1.9v16.1c0 7.8-2.5 15.4-7.2 21.7m68.9-21.9c0 13.7-6.3 24.2-18.6 31.3q-2.25 1.35-4.8 2.4c-1.7.4-3.5.6-5.3.6-8.7.1-17.1-3.8-22.7-10.5-5.5-6.7-8.5-15.1-8.4-23.7v-16.1c2.8-.2 5.5-1 7.9-2.3v7.3c-2.6.8-4.1 3.5-3.3 6.1.5 1.6 1.7 2.9 3.3 3.3v5c0 2.4.4 4.7 1.1 7-2.1 1.8-2.3 4.9-.5 6.9.9 1.1 2.3 1.7 3.7 1.7q.9 0 1.8-.3c3 3.2 6.8 5.4 11.1 6.3.4 2.7 3 4.5 5.6 4 2.1-.3 3.7-2 4-4 4.3-1 8.1-3.2 11.1-6.4 2.5 1 5.4-.3 6.4-2.8.8-2 .2-4.2-1.4-5.5.7-2.2 1.1-4.6 1.1-6.9v-5c2.6-.8 4.1-3.5 3.3-6.1-.5-1.6-1.7-2.9-3.3-3.3V300c2.6-.8 4.1-3.5 3.4-6.1-.8-2.6-3.5-4.1-6.1-3.4-1.6.5-2.9 1.7-3.3 3.3h-11.2c-.8-2.6-3.5-4.1-6.1-3.3-1.6.5-2.8 1.7-3.3 3.3h-7.2c.8-2.5 1.3-5 1.4-7.6h40.4zm-45.5 9.7c-.9-.4-1.8-.6-2.8-.4-.6-1.9-.9-3.8-.9-5.8v-5c1.6-.5 2.8-1.7 3.3-3.3H173c.2.7.5 1.4.9 2zm.6 4.5c0 1.5-1.2 2.7-2.7 2.7s-2.7-1.2-2.7-2.7 1.2-2.7 2.7-2.7c1.5-.1 2.7 1.2 2.7 2.7m1.5-2.7 11.1-12.6c.3.2.7.3 1.1.4v20.2c-1.4.4-2.6 1.4-3.1 2.8-3.5-.9-6.7-2.7-9.2-5.3 1.1-1.6 1.2-3.8.1-5.5m10.3-17.7c0-1.8 1.5-3.2 3.3-3.2s3.2 1.5 3.2 3.3-1.5 3.2-3.2 3.2c-1.8 0-3.3-1.5-3.3-3.3m3.2 27.7c1.5 0 2.7 1.2 2.7 2.7s-1.2 2.7-2.7 2.7-2.7-1.2-2.7-2.7c0-1.4 1.2-2.7 2.7-2.7m1.4-2v-20.1c.4-.1.8-.2 1.1-.4l11.1 12.5c-1.1 1.7-1 3.9.2 5.5-2.5 2.6-5.7 4.4-9.2 5.3-.6-1.3-1.8-2.3-3.2-2.8m3.3-22.3c.4-.6.8-1.3 1-2h10.3c.5 1.6 1.7 2.8 3.3 3.3v5c0 2-.3 3.9-.9 5.8h-.6c-.7 0-1.4.2-2.1.5zm13.1 14.2c1.5 0 2.7 1.2 2.7 2.7s-1.2 2.7-2.7 2.7-2.7-1.2-2.7-2.7c0-1.4 1.2-2.6 2.7-2.7m.1-17.6c0-1.5 1.2-2.7 2.7-2.7s2.7 1.2 2.7 2.7-1.2 2.7-2.7 2.7c-1.4 0-2.7-1.2-2.7-2.7m0-23.1c0-1.5 1.2-2.7 2.7-2.7s2.7 1.2 2.7 2.7-1.2 2.7-2.7 2.7c-1.4 0-2.7-1.2-2.7-2.7m.7 4.4c.2.1.5.2.7.3v13.7c-1.6.5-2.8 1.7-3.3 3.3h-10.3c-.2-.6-.4-1.2-.8-1.7zm-15.8 13.7c-.5-.3-.9-.4-1.4-.6V300c1.6-.5 2.8-1.7 3.3-3.3h11.2q.15.6.6 1.2zm-2.8-15.4c-1.5 0-2.7-1.2-2.7-2.7s1.2-2.7 2.7-2.7 2.7 1.2 2.7 2.7-1.2 2.7-2.7 2.7m-1.4 2V313c-.5.1-.9.3-1.4.6l-12.1-13.7q1.05-1.5 1.8-3h8.4c.5 1.5 1.7 2.7 3.3 3.2m-3.4 15.3c-.3.5-.6 1.1-.7 1.7h-10.4c-.5-1.6-1.7-2.8-3.3-3.3v-9.2c1-.8 1.9-1.6 2.7-2.6zm-13.1 3.1c0 1.5-1.2 2.7-2.7 2.7s-2.7-1.2-2.7-2.7 1.2-2.7 2.7-2.7 2.7 1.2 2.7 2.7m-12-103.6h59.8v69.4H168c-.5-12.1-8.9-21.8-19.4-22.4zm15.8 70.4c0 11-7.5 19.9-16.8 19.9s-16.8-8.9-16.8-19.9 7.5-19.9 16.8-19.9 16.8 8.9 16.8 19.9M87 214.9h59.7v46.9c-4.3.3-8.5 2-11.6 5H130v-18.6h2.2v-8H130v-5.3h1.6v-4.7h-1.4v1.9h-1.4v-1.9H126v1.9h-1.4v-1.9h-1.4v4.7h1.6v5.3H120v-11.6h1.9V223h-1.4v1.9h-2.3V223h-2.8v1.9H113V223h-1.4v5.6h1.9v11.6h-4.9v-5.3h1.6v-4.7h-1.4v1.9h-1.4v-1.9h-2.8v1.9h-1.4v-1.9h-1.4v4.7h1.6v5.3h-2.2v8h2.2v18.6h-4v9.3H113v-6.6c0-2.1 1.7-3.7 3.7-3.7 2.1 0 3.7 1.7 3.7 3.7v6.6h8.4c-1 2.6-1.5 5.4-1.6 8.1H87zm37.5 35.7v5.2h-4.1v-5.2c0-1.1 1-2 2.1-2 1.1.1 2 .9 2 2m-11.5 0v5.2h-4.1v-5.2c0-1.1 1-2 2.1-2 1.1.1 2 .9 2 2m-26 35.7h7.2v60c-4.9-6.1-7.4-13.8-7.2-21.6zm-21.1-65.8c0-.7-.6-1.3-1.3-1.3h-17c-.7 0-1.3.6-1.3 1.3 0 .5.3.9.7 1.1.9.6 1.3 1.6 1.3 2.6.1 1-.4 2-1.2 2.6-.5.3-.8.8-.7 1.4-.1.8.5 1.5 1.3 1.5h17.1c.8-.1 1.3-.7 1.3-1.5 0-.6-.3-1.1-.8-1.4-.8-.6-1.3-1.5-1.2-2.5-.1-1 .3-2 1.2-2.5.3-.3.6-.8.6-1.3M43.6 342.2h24.8v7.1H43.6zm10.4-91c3.3-.4 6.7-.7 10-.7v-18.6H48.2v20.4c1.9-.4 3.8-.8 5.8-1.1m9.3 46.5c-5.3 2.9-10.5 5.4-15.1 7.4v26.2c0 3.4-.7 5.7-1.6 7.2-.2.4-.2.8.2 1.1.1.1.2.1.4.1h17.9c.5 0 .8-.7.4-1.2-.9-1.5-1.5-3.7-1.5-7.2v-33.9zM66 274v8.2c2.2-1.4 4.3-3.1 6.1-5l1-1c-1.3-1-4.3-2-7.1-2.2m8.3 81.2c-1.8.5-3.7.6-5.6.3-1.5-.3-3-.8-4.5-1.4-2.4-1.1-5-1.6-7.6-1.6-2.7 0-5.3.6-7.8 1.7-1.5.6-3 1.1-4.5 1.4q-2.7.3-5.4-.3c-.5-.1-1.1-.2-1.7-.3v2.5c.4 0 .8.1 1.2.2 1.4.3 2.8.5 4.2.5.7 0 1.5-.1 2.2-.2 1.7-.3 3.3-.8 4.9-1.5q3.3-1.5 6.9-1.5c2.3 0 4.6.5 6.7 1.5 1.6.7 3.2 1.2 4.9 1.5 2.2.3 4.4.2 6.5-.3.4-.1.8-.2 1-.2V355c-.4 0-.9.1-1.4.2" class="st1"/><path d="M74.3 360.8c-1.8.5-3.7.6-5.6.3-1.5-.3-3-.8-4.5-1.4-2.4-1.1-5-1.6-7.6-1.6-2.7 0-5.3.6-7.8 1.7-1.5.6-3 1.1-4.5 1.4q-2.7.3-5.4-.3c-.5-.1-1.1-.2-1.7-.3v2.5c.4 0 .8.1 1.2.2 1.4.3 2.8.5 4.2.5.7 0 1.5-.1 2.2-.2 1.7-.3 3.3-.8 4.9-1.5q3.3-1.5 6.9-1.5c2.3 0 4.6.5 6.7 1.5 1.6.7 3.2 1.2 4.9 1.5 2.2.3 4.4.2 6.5-.3.4-.1.8-.2 1-.2v-2.5c-.4 0-.9.1-1.4.2" class="st1"/><path d="M74.3 366.1c-1.8.5-3.7.6-5.6.3-1.5-.3-3-.8-4.5-1.4-2.4-1.1-5-1.6-7.6-1.6-2.7 0-5.3.6-7.8 1.7-1.5.6-3 1.1-4.5 1.4q-2.7.3-5.4-.3c-.5-.1-1.1-.2-1.7-.3v2.5c.4 0 .8.1 1.2.2 1.4.3 2.8.5 4.2.5.7 0 1.5-.1 2.2-.2 1.7-.3 3.3-.8 4.9-1.5q3.3-1.5 6.9-1.5c2.3 0 4.6.5 6.7 1.5 1.6.7 3.2 1.2 4.9 1.5 2.2.3 4.4.2 6.5-.3.4-.1.8-.2 1-.2v-2.5c-.4 0-.9.1-1.4.2M64 266.4c-2.4.1-4.7.2-6.8.5-3.1.4-6.1 1.1-9 2v22.4c4.6-1.9 9-4.1 13.3-6.7.8-.5 1.6-1 2.5-1.5zm-22.4 37.2c-.2.7-.3 1.3-.4 1.9 12.8-4.2 32.5-15.6 33.7-17.8l-1.1-8.8c-2.2 2.2-7 5.4-11 7.7-7 4.1-14 7.3-19.1 8.8-.6 1.7-1.4 5.3-2.1 8.2m2.1-44.5-.6.2 1 2.6.6-.3c.6-.3.8-1.1.5-1.7-.2-.6-.8-1-1.5-.8" class="st1"/><path d="M54.3 253.4C43 255 34.5 259.5 31.9 263c-.6.7-.9 1.5-.8 2.4.2.6 2.3 5.3 4.1 9.3l.6-.9c3.1-4.2 12-8 21.2-9.2 3-.4 6-.5 9-.5 5.8 0 10.8.4 14.2 1.5V254c-2.9-.9-8.6-1.3-14.8-1.3-3.7 0-7.4.2-11.1.7m-6.9 7.2q-.45 1.2-3 2.1l1.2 3.1-2.1.8-2.9-7.3 3.2-1.2c2.3-.9 3.2-.1 3.5.8.3.6.3 1.2.1 1.7m3.6 3.6v-.1l-1.7-7.5.4-.1c.2 0 .5-.1.8-.1s.5-.1.7-.2l.4-.1v.1l1.5 6.5c1.1-.2 2-.5 2.8-.8h.1l.3 1.2zm13.3-8.7c-1 2.3-2 4.7-2.8 7.1v.1l-1.3.1v-.1c-1.2-2.2-2.5-4.5-4.2-7.3l-.1-.2h.2c.4 0 2-.1 2.3-.2h.1v.1c.6 1.2 1.2 2.5 1.9 3.6.3.5.5.9.8 1.4.6-1.5 1.4-3.5 1.9-5.4v-.1h.1c.4 0 .8 0 1.2-.1h.3zm1.9 6.3c.2-.4.4-.9.5-1.3v-.1h.5v.1c.2.7.8 1.3 1.6 1.3.7.1 1.5-.2 1.5-.9s-.6-1.1-1.5-1.5c-1.1-.5-2.3-1.1-2.1-2.7.1-1.2 1.2-2.4 3.4-2.2.8 0 1.5.3 2.1.8l.1.1-.1.1c-.2.3-.4.7-.5 1v.1h-.4v-.1c-.2-.6-.7-1-1.3-1-.9-.1-1.4.2-1.4.8-.1.6.6.9 1.4 1.3 1.1.6 2.4 1.3 2.3 2.8-.1 1.4-1.5 2.3-3.4 2.3h-.6c-.8-.1-1.5-.3-2.2-.7l-.1-.1z" class="st1"/><path d="M46.2 281.7v-10.2q-1.8 0-3.6-.3c-1.9.9-3.7 2.3-5.1 3.9-.1.2-.3.4-.4.6l-.7 1.3v.1c.5 2.6 4.2 4.2 9.8 4.6m100.7-147.8h1.6v-2.6h1.9v-1.6h-1.9v-2.2h-1.6v2.2H145v1.6h1.9zm-58.6 45.2c.1.2 0 .3-.2.4-1 .6-1.7 1.5-2.1 2.5-.1.2 0 .4.2.5h.3c2.2-1 4.8 0 5.8 2.2.2.4.3.7.3 1.1 0 .2.2.3.4.3.1 0 .1 0 .2-.1 1.2-.9 3-.6 3.8.6.6.8.7 1.9.3 2.8-.1.2 0 .4.1.5 5.8 3.7 9.6 9.9 10.3 16.8 0 .2.2.3.4.3 23-6.8 55.8-6.8 78.9 0 .2 0 .4-.1.5-.3.7-6.9 4.5-13 10.3-16.8.2-.1.2-.3.1-.5-.6-1.4 0-3 1.3-3.7.9-.4 2-.3 2.8.3.2.1.4.1.5-.1 0 0 .1-.1.1-.2.4-2.4 2.6-4 5-3.7.4.1.8.2 1.1.3.2.1.4 0 .5-.2v-.3c-.3-1.1-1.1-2-2.1-2.5-.1-.1-.2-.3-.1-.4 1.2-2.5 2-5.2 2.4-8 1.7-13.9-11.4-21.1-30.6-18.3-4.2-7.1-15.1-9.5-29-6.5-.2-1.3-.1-3.6-2.2-3.6s-2.2 2.2-2.2 3.6c-13.9-3-24.8-.6-29 6.5-19.1-2.9-32.2 4.4-30.6 18.3.5 3 1.3 5.7 2.5 8.2m23.8 22c-1.1 0-1.9-.9-1.9-1.9 0-1.1.9-1.9 1.9-1.9 1.1 0 1.9.9 1.9 1.9 0 1.1-.8 1.9-1.9 1.9m16.3-4.2-4.9 3.2c-.1.1-.3.1-.4 0l-5.4-2.1c-.2 0-.3-.2-.2-.4 0-.1.1-.2.2-.2l4.8-3.1c.2-.1.2-.1.4-.1l5.4 2.1c.2 0 .3.2.2.4 0 .1 0 .2-.1.2m6.8 1.8c-1.2 0-2.2-1-2.2-2.2s1-2.2 2.2-2.2 2.2 1 2.2 2.2-1 2.2-2.2 2.2m18.1-2.5c-1.8.9-3.6 1.8-5.4 2.8-.1.1-.3.1-.4 0l-5.4-2.8c-.2-.1-.2-.3-.1-.5 0-.1.1-.1.2-.2 1.8-.9 3.6-1.8 5.4-2.8.2-.1.2-.1.4 0 1.8.9 3.6 1.8 5.4 2.8.2.1.3.3.2.4-.2.2-.2.3-.3.3m6.9 2.5c-1.2 0-2.2-1-2.2-2.2s1-2.2 2.2-2.2 2.2 1 2.2 2.2-1 2.2-2.2 2.2m17.5-.7-5.4 2.1c-.1.1-.3.1-.4 0l-4.9-3.2c-.2-.1-.2-.3-.1-.5 0-.1.1-.1.2-.1l5.4-2.1c.2-.1.2-.1.4.1l4.8 3.1c.2.1.3.4 0 .6m5.6 3.1c-1.1 0-1.9-.8-1.9-1.9s.8-1.9 1.9-1.9 1.9.8 1.9 1.9-.9 1.9-1.9 1.9m-5.7-24.7c.2-1.1 1-1.9 2.1-1.9q.3 0 .3-.3c0-.1 0-.2-.1-.2-.4-.3-.8-.6-1.2-.7-.7-.2-1.2-.8-1-1.3 2.6-5.4 4.5-12.3 1.8-18 11.8-1.2 20.5 1.4 23.7 8.4 1.7 3.8 1.7 8.5.2 13.8-.1.1-.1.3 0 .4.4.7.8 1.4 1.1 2.1.1.2 0 .4-.1.5h-.1c-.6.1-1.1.3-1.6.7-.2.1-.4.1-.5-.1q-.45-1.35-1.5-2.4c-.4-.4-.7.1-.9.3-1.2 1.3-1.9 2.9-2 4.6 0 .2-.1.4-.3.4-.1 0-.2 0-.3-.1-.9-1.2-2.4-1.6-3.8-1.1-.1.1-.2.2-.2.3-.1.6-.1 1.1.1 1.7.1.2-.1.4-.2.4h-.3c-1.2-.8-2.8-.5-3.6.7q-.15.15 0 .3c.4 1 1.3 1.7 2.3 1.9.2 0 .3.2.3.4 0 .1 0 .1-.1.1-.2.3-.4.6-.5 1 0 .2.1.4.3.4h.3c.7-.4 1.5-.5 2.3-.2.5 1.8-.5 3.7-2.4 4.2-1.8.5-3.7-.5-4.2-2.4-.1-.2-.1-.4-.1-.7.9-.4 1.3-1.5.8-2.4s-1.5-1.3-2.4-.8c-.9.4-1.2 1.5-.9 2.4-3 2.5-9.3 1.6-8.5-2.8.1-1.2 1.2-2.1 2.5-1.9h.2c1.1.2 1.8 1.1 1.9 2.1q0 .3.3.3c.1 0 .2 0 .2-.1q.75-.75.9-1.8c0-.2 0-.4.2-.5.1-.1.2 0 .4 0 1.1.2 2.3-.2 3.1-1 .1-.1.1-.3.1-.4-.5-1-1.4-1.8-2.5-2-.1 0-.3 0-.4-.1-.1-.2 0-.3 0-.5.1-.7 0-1.4-.2-2-.1-.2-.2-.2-.4-.2-.1 0-.1.1-.2.2-.5 1.2-1.9 1.7-3.1 1.2-1.4-.8-2-1.8-1.8-2.9m-.5 3.3c.6 1.1.2 2.6-.9 3.2s-2.6.2-3.2-.9c-.5-1-.3-2.1.5-2.9 1-.9 2.4-.8 3.3.2.1 0 .3.2.3.4M151 164.5c.5 0 .9-.4 1-.9v-.1c0-.2 0-.3-.1-.5-1-2.7-1.5-5.6-1.5-8.5 0-2.4-.1-4.7-.3-7.2 11.2-2.1 19.7-1 23.6 4.1 3.8 4.9 2 12-.2 17.2-.1.2 0 .4.1.5.7.5 1.4 1 2 1.5.6.6-.6 1.8-1.4 1.9-.5 0-1 .1-1.4.3-.2.1-.2.2-.2.4 0 .1.1.2.2.2 1.2.5 1.7 1.9 1.2 3.1s-1.9 1.7-3.1 1.2c-.8-.3-1.3-1.1-1.4-2q0-.3-.3-.3c-.1 0-.2 0-.2.1q-.75.75-.9 1.8c0 .2 0 .4-.2.5-.1.1-.2 0-.4 0-1.1-.2-2.3.2-3.1 1-.1.1-.1.3-.1.4.5 1 1.4 1.8 2.5 2 .1 0 .3 0 .4.1.1.2 0 .3 0 .5-.1.7 0 1.4.2 2 .1.2.2.2.4.2.1 0 .1-.1.2-.2.5-1.2 1.9-1.7 3-1.2 1 .4 1.6 1.5 1.4 2.6-.7 4.3-7.4 3.4-9.5-.3.9-.4 1.3-1.5.8-2.4s-1.5-1.3-2.4-.8-1.3 1.5-.8 2.4c.1.2.2.3.3.5-3.2 4-12.2 3.1-11.2-2.2.3-1.5 1.8-2.4 3.3-2.1 1 .2 1.8 1 2.1 2 0 .2.2.3.4.3.1 0 .2-.1.2-.2.4-.7.7-1.4.7-2.2 0-.5-.1-.7.5-.7 1.3 0 2.6-.7 3.3-1.8.1-.1.1-.4 0-.5-.7-1.1-2-1.8-3.3-1.8-.6 0-.5-.2-.5-.7 0-.8-.2-1.6-.7-2.2-.1-.2-.3-.2-.5-.1-.1.1-.2.1-.2.3-.4 1.5-1.9 2.4-3.3 2-1.5-.4-2.4-1.9-2-3.3.2-1 1-1.7 2-2 .2 0 .3-.2.3-.4 0-.1-.1-.2-.2-.2-.5-.3-1-.5-1.6-.6-.8-.1-1.4-.9-1.4-1.7 0-1 .8-1.7 1.8-1.7.3-.3.4-.3.5-.3m-.6 12.4c.2 1.5-.8 2.9-2.3 3.1s-2.9-.8-3.1-2.3v-.9c.2-1.5 1.6-2.5 3.1-2.3 1.2.3 2.1 1.2 2.3 2.4m-28.7-25.4c3.9-5.1 12.4-6.2 23.6-4.1-.1 1.4-.2 4.7-.3 7.2-.1 2.9-.6 5.8-1.5 8.5-.1.1-.1.3-.1.5 0 .5.4.9.9 1h.1c.9-.2 1.9.4 2.1 1.4v.3c0 .8-.6 1.6-1.4 1.7-.6.1-1.1.3-1.6.6-.2.1-.2.3-.1.5.1.1.1.2.2.2 1.5.4 2.4 1.9 2 3.3s-1.9 2.4-3.3 2c-1-.2-1.7-1-2-2 0-.2-.2-.3-.4-.3-.1 0-.2.1-.2.2-.4.7-.7 1.4-.7 2.2 0 .5.1.7-.5.7-1.3 0-2.6.7-3.3 1.8-.1.1-.1.4 0 .5.7 1.1 2 1.8 3.3 1.8.6 0 .5.2.5.7 0 .8.2 1.6.7 2.2.1.2.3.2.5.1.1-.1.2-.1.2-.2.4-1.5 1.9-2.3 3.3-2 1 .3 1.8 1.1 2 2.1 1 5.3-8.1 6.2-11.2 2.2.7-.7.7-1.9 0-2.6s-1.9-.7-2.6 0-.7 1.9 0 2.6c.1.1.3.3.5.3-2.1 3.8-8.8 4.7-9.5.3-.3-1.2.5-2.4 1.7-2.7h.2c1-.2 2.1.4 2.5 1.3.1.2.2.2.4.2.1 0 .1-.1.2-.2.3-.6.4-1.3.2-2 0-.2-.1-.4 0-.5s.2-.1.4-.1c1.1-.2 2.1-.9 2.6-2 .1-.1 0-.3-.1-.4-.8-.8-1.9-1.2-3.1-1-.1 0-.3.1-.4 0-.2-.1-.1-.3-.2-.5q-.15-1.05-.9-1.8c-.1-.1-.3-.1-.4 0s-.1.1-.1.2c-.1 1.3-1.2 2.2-2.5 2.2s-2.2-1.2-2.2-2.5c.1-.9.6-1.6 1.4-2 .2-.1.2-.2.2-.4 0-.1-.1-.2-.2-.2-.4-.2-.9-.3-1.4-.3-.9 0-2-1.3-1.4-1.9.6-.5 1.3-1 2-1.5.2-.1.2-.3.1-.5-2.2-5.2-4-12.3-.2-17.1m-3.4 28.2c.6-1.1 2-1.6 3.2-1 .2.1.3.2.5.3 1 .9 1 2.3.2 3.3-.9 1-2.3 1-3.3.2-1-.7-1.2-1.9-.6-2.8m-27.4-1.2c.3-.7.7-1.4 1.1-2.1.1-.1.1-.3 0-.4-1.5-5.3-1.5-10 .2-13.8 3.2-7 11.9-9.6 23.7-8.4-2.7 5.7-.9 12.7 1.8 18 .2.5-.3 1.1-1 1.3-.5.2-.9.4-1.2.7-.1.1-.1.3 0 .4s.1.1.2.1c1.3.1 2.2 1.2 2.1 2.5s-1.2 2.2-2.5 2.1c-.9-.1-1.6-.6-2-1.4-.1-.2-.2-.2-.4-.2-.1 0-.2.1-.2.2-.3.6-.4 1.3-.2 2 0 .2.1.4 0 .5s-.2.1-.4.1c-1.1.2-2.1.9-2.5 2-.1.1 0 .3.1.4.8.8 1.9 1.2 3.1 1 .1 0 .3-.1.4 0 .2.1.1.3.2.5q.15 1.05.9 1.8c.1.1.3.1.4 0s.1-.1.1-.2c.1-1.3 1.2-2.2 2.5-2.1 1.1.1 2 .9 2.1 1.9.8 4.5-5.5 5.3-8.5 2.8.1-.2.2-.5.2-.7 0-1-.8-1.8-1.8-1.8a1.793 1.793 0 0 0-.8 3.4c-.2 1.9-1.8 3.3-3.7 3.1s-3.3-1.8-3.1-3.7c0-.2.1-.4.1-.6.8-.3 1.6-.2 2.3.2.2.1.4 0 .5-.1 0-.1.1-.2 0-.3-.1-.4-.3-.7-.5-1-.1-.2-.1-.4.1-.5l.1-.1c1-.2 1.9-.9 2.3-1.9.1-.1 0-.2 0-.3-.8-1.1-2.4-1.4-3.6-.7-.2.1-.4.1-.5-.1q-.15-.15 0-.3c.1-.5.1-1.1.1-1.7 0-.1-.1-.2-.2-.3-1.4-.5-2.9 0-3.8 1.1-.1.2-.3.2-.5.1-.1-.1-.1-.2-.1-.3-.1-1.7-.8-3.3-2-4.6-.2-.2-.6-.7-.9-.3q-.9 1.05-1.5 2.4c-.1.2-.3.2-.5.1-.5-.3-1-.5-1.6-.7-.6.4-.7.2-.6-.1q0 .15 0 0m56-43.9c-1.4.3-2.5 1.4-2.7 2.8h2.7zm1.6 0v2.8h2.7c-.2-1.4-1.3-2.5-2.7-2.8m-.8 7.1c1.7 0 3.2-1.2 3.5-2.8h-7c.3 1.6 1.8 2.8 3.5 2.8m101.4 78.8c0-.7-.6-1.3-1.3-1.3h-17.1c-.7 0-1.3.6-1.3 1.3 0 .5.3 1 .8 1.2.8.6 1.3 1.5 1.2 2.5.1 1-.4 2-1.2 2.5-.5.3-.8.8-.8 1.4-.1.8.5 1.5 1.3 1.5h17.1c.8-.1 1.3-.7 1.3-1.5 0-.6-.3-1.1-.7-1.4-.8-.6-1.3-1.5-1.2-2.6-.1-1 .4-2 1.3-2.6.3 0 .6-.5.6-1m-22.2 121.7h24.8v7.1h-24.8zm14.5-90.9c2 .3 3.9.7 5.7 1.1V232h-15.8v18.6c3.5 0 6.8.2 10.1.7m-9.3 46.4c-.2-.1-.4-.2-.6-.4v33.9c0 3.5-.6 5.8-1.5 7.2-.3.5-.1 1.2.4 1.2h17.9c.4 0 .7-.4.7-.9 0-.1-.1-.2-.1-.4-.9-1.5-1.6-3.9-1.6-7.2v-26.2c-4.7-1.7-10-4.3-15.2-7.2m-2.7-23.6c-2.8.2-5.8 1.2-7.1 2.2l1 1c1.9 1.9 3.9 3.5 6.1 5zm21.7 81.5c-1.5-.3-3-.8-4.5-1.4-2.5-1.1-5.1-1.6-7.8-1.7-2.6 0-5.2.6-7.6 1.6-1.5.6-3 1.1-4.5 1.4-1.9.2-3.8.1-5.6-.3-.5-.1-1-.2-1.5-.2v2.5c.3 0 .7.1 1 .2 2.1.5 4.4.7 6.5.3 1.7-.3 3.3-.8 4.9-1.5 2.1-.9 4.4-1.5 6.7-1.5q3.6 0 6.9 1.5c1.6.6 3.2 1.1 4.9 1.5.7.1 1.4.2 2.2.2 1.4 0 2.8-.2 4.2-.5.4-.1.8-.2 1.2-.2V355c-.6 0-1.1.1-1.7.3-1.7.4-3.5.5-5.3.3" class="st1"/><path d="M251.1 361.2c-1.5-.3-3.1-.8-4.5-1.4-2.5-1.1-5.1-1.6-7.8-1.7-2.6 0-5.2.6-7.6 1.6-1.5.6-3 1.1-4.5 1.4-1.9.2-3.8.1-5.6-.3-.5-.1-1-.2-1.5-.2v2.5c.3 0 .7.1 1 .2 2.1.5 4.4.7 6.5.3 1.7-.3 3.3-.8 4.9-1.5 2.1-.9 4.4-1.5 6.7-1.5q3.6 0 6.9 1.5c1.6.6 3.2 1.1 4.9 1.5.7.1 1.4.2 2.2.2 1.4 0 2.8-.2 4.2-.5.4-.1.8-.2 1.2-.2v-2.5c-.6 0-1.1.1-1.7.3-1.7.5-3.5.6-5.3.3" class="st1"/><path d="M251.1 366.5c-1.5-.3-3.1-.8-4.5-1.4-2.5-1.1-5.1-1.6-7.8-1.7-2.6 0-5.2.6-7.6 1.6-1.5.6-3 1.1-4.5 1.4-1.9.2-3.8.1-5.6-.3-.5-.1-1-.2-1.5-.2v2.5c.3 0 .7.1 1 .2 2.1.5 4.4.7 6.5.3 1.7-.3 3.3-.8 4.9-1.5 2.1-.9 4.4-1.5 6.7-1.5q3.6 0 6.9 1.5c1.6.6 3.2 1.1 4.9 1.5.7.1 1.4.2 2.2.2 1.4 0 2.8-.2 4.2-.5.4-.1.8-.2 1.2-.2v-2.5c-.6 0-1.1.1-1.7.3-1.7.4-3.5.5-5.3.3m-3.9-75.1V269c-2.9-1-5.9-1.7-9-2-2.1-.3-4.4-.4-6.8-.5v16.8c.8.5 1.7 1 2.5 1.5 4.3 2.4 8.7 4.6 13.3 6.6m-26.6-3.8c1.2 2.2 20.9 13.6 33.7 17.8-.1-.6-.3-1.2-.4-1.9-.7-2.9-1.5-6.4-1.9-8.2-5.2-1.5-12.1-4.7-19.1-8.8-4-2.4-8.8-5.5-11-7.7zm26.4-28.7c0-.2.1-.3.1-.5 0-.8-.8-.9-1.5-1.1h-.1l-.6 2.6q.75.3 1.5 0c.3-.3.5-.6.6-1m8.3 5.8.1-2.3-1.9 1.4z" class="st1"/><path d="M263.5 263.1c-2.6-3.6-11.1-8-22.4-9.6-3.7-.5-7.4-.7-11.1-.7-6.2 0-11.8.3-14.8 1.3v11.7c3.4-1.1 8.4-1.5 14.2-1.5 3 0 6 .2 9 .5 9.2 1.1 18.1 5 21.2 9.2l.6.9c1.8-4 3.9-8.8 4.1-9.3 0-1-.2-1.9-.8-2.5m-37.1-7.7c-.8 2.3-1.6 4.8-2.2 7.2v.1h-.2c-.4 0-.7.1-1.1.2h-.1l-.1-.1c-1.3-2.1-2.8-4.3-4.7-7l-.1-.2h.2c.4 0 1.9-.3 2.3-.3h.1v.1c.6 1.2 1.4 2.4 2.1 3.5.3.4.6.9.9 1.3.5-1.6 1.1-3.5 1.6-5.5v-.1h.1c.4 0 .8-.1 1.2-.2l.2-.1zm7.7 6.9v.2l-5.4-.1.2-7.8h.1c.3 0 1.7.1 2 0h.1l-.2 6.8c1.1 0 2 0 2.9-.1h.2v.2c.1.2.1.5.1.8m7.2-5.8c-.7-.1-1.4-.3-2.2-.4l-.7 6.8h-.1c-.3-.1-1.7-.2-2-.2h-.1l.7-6.8c-.8-.1-1.6-.1-2.3-.1h-.2l.1-.2c.1-.3.1-.6.1-.9v-.2l7.2.7v.2c-.1.3-.1.6-.1.9v.2zm7.3 8.7c-.4-.1-2-.5-2.3-.6h-.1l-1-2.7c-.1-.2-.2-.5-.3-.8-.1-.1-.1-.3-.2-.4l-.8 3.3h-.1c-.3-.1-1.6-.4-1.9-.5h-.1l1.9-7.7 3.1.7c.7.1 1.3.4 1.9.7.7.4 1 1.2.8 2-.3 1-1.3 1.7-2.4 1.6.3.9.8 1.8 1.1 2.6.1.3.2.5.3.8l.5 1.1zm8.6 4.3-.2-.1c-.3-.2-1.7-.9-2-1h-.1v-.2c.1-.8.2-1.6.2-2.3l-2.6-1.3c-.2.2-.4.3-.6.5-.4.4-.9.7-1.3 1.1l-.1.1-.1-.1c-.2-.1-.9-.5-1.1-.6l-.2-.1 7.3-5.3.1.1c.1.1.3.2.4.3s.3.1.5.2h.1z" class="st1"/><path d="M257.8 275.2c-1.4-1.6-3.1-3-5.1-3.9-1.2.2-2.4.2-3.6.3v10.2c5.7-.4 9.3-2 9.7-4.5v-.1l-.7-1.3c0-.3-.1-.5-.3-.7m-20.2-68.8v-11c-.3-.2-.5-.3-.8-.4-.2-.1-.5-.1-.8-.1-1.2 0-2.3.7-2.8 1.8 0 .1.1.3.1.4 1 2.6 2.6 6.4 3.7 9.3zm-11.4-6.7c.1.1.1.2.2.3 1.2 1.8 3 4.6 5.3 8.3.5-.3 1-.5 1.5-.7-1.1-2.7-2.6-6.4-3.6-9 0-.1 0-.1-.1-.2-.2-.1-.5-.1-.8-.1-1 .1-1.9.6-2.5 1.4m21.7 8.5c2.3-3.7 4.1-6.4 5.2-8.2.1-.1.1-.2.2-.3-.6-.9-1.6-1.4-2.6-1.4-.2 0-.4 0-.7.1 0 .1 0 .1-.1.2-1 2.6-2.5 6.2-3.6 8.9.6.2 1.1.5 1.6.7m-8.9-19.9c.5-.2 1-.2 1.4 0v-2.6h1.9v-1.4h-1.9v-2.2H239v2.2h-1.9v1.4h1.9z" class="st1"/><path d="M229.6 210c.3-.2.5-.4.8-.6.1-.1.2-.2.4-.2-1.6-2.6-3.9-6.2-5.4-8.5-.1-.1-.1-.2-.1-.2l-.1-.1c-1.1-1.9-1.1-3.9 0-5.1.7-.8 1.7-1.2 2.8-1.1.4 0 .8 0 1.1.1 0-.5 0-1 .1-1.5-.4-.1-.8-.1-1.2-.1-1.5 0-2.9.6-3.9 1.7-1.6 1.9-1.6 4.7.1 7.3 1.4 2.2 3.7 5.7 5.4 8.3m.4-15.2v.5c.1 1 .4 2 .7 2.9l.1.1c1 2.6 2.5 6.4 3.6 9.1.4-.2.9-.3 1.4-.4-1.1-2.7-2.7-6.5-3.7-9.2l-.1-.2c-.4-.9-.6-1.9-.7-2.8v-.6c0-.3 0-.5.1-.8v-.3c0-.1 0-.2.1-.2.3-1.4 1.6-2.3 3-2.2q1.8.15 3.3 1.2V190q-1.5-.9-3.3-.9c-1 0-2 .3-2.8.9-.7.6-1.3 1.4-1.6 2.3 0 .1 0 .1-.1.2v.4c-.1.6-.2 1.3-.1 1.9zm21.6-.7c1.1-.1 2.1.4 2.8 1.1 1.1 1.3 1.1 3.3-.1 5.2v.1s0 .1-.1.1c-1.2 1.8-3 4.6-5.3 8.3.1.1.2.1.3.2.3.2.6.4 1 .7 1.6-2.6 3.9-6.1 5.3-8.3 1.7-2.6 1.7-5.4.1-7.3-1-1.1-2.4-1.7-3.9-1.7-.4 0-.8 0-1.2.1.1.5.1 1 .1 1.5.3.1.7 0 1 0m-5.3 2.8c-.5-1.2-1.6-2-2.9-2-.3 0-.5 0-.8.1s-.5.2-.7.3v11c.2 0 .4.1.6.1 1.6-3.9 2.9-7.1 3.7-9.2 0-.1 0-.2.1-.3" class="st1"/><path d="M241.6 191.7q1.5-1.05 3.3-1.2c1.4-.1 2.6.9 3 2.2 0 .1 0 .2.1.2v.3c0 .3.1.5.1.8v.6c-.1 1-.3 1.9-.7 2.8l-.2.4c-1 2.7-2.5 6.3-3.6 8.9.5.1 1 .3 1.5.4 1.1-2.7 2.6-6.5 3.6-9.1v-.1c.4-.9.6-1.9.7-2.9v-.6c0-.6 0-1.3-.1-1.9v-.4c0-.1 0-.1-.1-.2-.6-1.9-2.4-3.2-4.4-3.2q-1.8 0-3.3.9v2.1zm-1-1.8c0-.1 0-.1-.1-.2-.2-.4-.8-.6-1.2-.4-.2.1-.3.2-.4.4v16.8h1.7zm7.8 20.3c-.1-.1-.2-.1-.3-.2h-.1l-.2-.1-.1-.1-.1-.1c-.7-.4-1.4-.7-2.2-1h-.1c-.1 0-.1 0-.1-.1l-.3-.1c-.6-.2-1.2-.4-1.8-.5l-.4-.1h-.1c-.3-.1-.7-.1-1.2-.2h-3.3c-.4 0-.8.1-1.1.2h-.1l-.4.1c-.6.1-1.2.3-1.8.5l-.5.2c-.7.3-1.5.6-2.2 1l-.6.4c-.1.1-.2.1-.3.2-.2.2-.7.4-.9.6l2.8 4c0 .1.1.1.2.1h.1c.5-.3.9-.5 1.4-.7l.3-.1c1.6-.6 3.3-1 5-1 1.6 0 3.2.3 4.7.9h.1c.1 0 .1 0 .2.1.5.2 1 .5 1.5.7h.1c.1 0 .1 0 .2-.1l2.8-4.1c-.4 0-.9-.3-1.2-.5m-190.2-4.1c.2 0 .3 0 .5.1.5-1.6 1.1-3.2 1.4-4.1 1.1-3 2.8-5.8 5-8.1.1-.1.1-.1.2-.1 0-2.4-1.9-4.3-4.3-4.4-1 0-2 .3-2.8 1zm2 .4c.6.2 1.2.3 1.8.6.6-1.9 1.1-3.1 1.3-3.8.9-3.1 2.7-5.9 5-8.2-.3-.1-.7-.1-1-.1h-.5c-.2 0-.5.1-.7.2-2.1 2.1-3.6 4.7-4.6 7.5-.2.8-.7 2.3-1.3 3.8m3.3 1.1q1.65.75 3 1.8c1.8-2.7 3.5-5.5 4.9-8.4v-.1c.8-1.9.1-4-1.5-5.2l-.2.2c-2.6 2.1-4.1 5.4-4.9 7.8-.3 1-.9 2.8-1.3 3.9m-12.1-5.5c.3.8.8 2.3 1.3 3.9v.1c.1 0 .3 0 .4-.1v-15.5c-1.8-1.5-4.5-1.2-6 .7q-.9 1.2-.9 2.7s.1 0 .1.1c2.3 2.3 4.1 5.1 5.1 8.1M40.1 201c1.5 2.9 3.1 5.7 4.9 8.4q1.5-1.05 3-1.8c-.4-1.1-1-3-1.3-3.9-.8-2.4-2.3-5.7-4.9-7.8l-.2-.2c-1.6 1.2-2.3 3.3-1.5 5.2zm14.8-13.2c.6-.2 1.1-.2 1.6 0h.1v-1.9h1.9v-1.7h-1.9V182h-1.7v2.2H53v1.7h1.9zm1.8 2.1c0-.5-.4-1-1-1s-1 .4-1 1V206c.6 0 1.3-.1 1.9 0v-16.1zm-11.1 20.9 2.8 4.3c.1.2.3.2.5.2.1 0 .2 0 .3-.1 2.1-1.1 4.4-1.7 6.7-1.7s4.6.6 6.7 1.7c.3.1.6.1.8-.2l2.6-4.4v-.1h-.1c-6.1-4.4-14.3-4.3-20.3.3m2.6-7.6c.3.8.8 2.3 1.3 3.8.6-.2 1.1-.4 1.7-.5-.5-1.5-1-3-1.3-3.8-1-2.8-2.5-5.3-4.6-7.5-.2-.1-.4-.1-.7-.2h-.4c-.3 0-.6 0-.9.1 2.3 2.3 3.9 5 4.9 8.1" class="st1"/></svg>