<svg xmlns="http://www.w3.org/2000/svg" viewBox="0.03 0.03 24.07 38.5"><path fill="#015794" fill-rule="evenodd" d="M6.43 5.83c-.507.137-2.235.609-2.554.722-.376.134-.885.326-1.294.694A2.67 2.67 0 0 0 1.74 8.6c-.15.569-.117.953-.117.953l-1.396.008s-.2 2.268-.2 4.386c0 2.117.45 5.57.75 6.987s.784 3.285 1.184 4.369 1.117 2.818 1.884 4.168 1.017 1.685 1.35 2.218 1.268 1.684 1.718 2.218 2.018 2.151 2.385 2.451 1.5 1.234 2.034 1.618c.251.18.513.382.72.546h.014a25 25 0 0 1 .72-.546c.534-.384 1.668-1.317 2.035-1.618.366-.3 1.934-1.917 2.384-2.45.45-.535 1.384-1.685 1.718-2.219s.583-.867 1.35-2.218 1.485-3.085 1.885-4.168.884-2.952 1.184-4.37c.3-1.417.75-4.869.75-6.986s-.2-4.386-.2-4.386l-1.396-.008s.033-.384-.117-.953a2.67 2.67 0 0 0-.843-1.354c-.409-.368-.918-.56-1.293-.694-.32-.113-2.048-.585-2.555-.722q.003-.085.003-.172a5.632 5.632 0 1 0-11.26.172"/><path fill="#015794" fill-rule="evenodd" stroke="#015794" stroke-width=".0129924" d="M12.06 2.54a3.12 3.12 0 0 1 3.118 3.118 3.118 3.118 0 1 1-3.119-3.118z"/><path fill="none" d="M12.137 3.903s.21.096.443.271.43.372.43.372.029.046.029.092-.113.473-.192.636c-.08.163-.176.342-.176.342s-.025.071-.112.075c-.088.005-.93 0-.93 0"/><path fill="none" d="M12.517 5.691s-.854.005-.942 0c-.09-.004-.114-.075-.114-.075s-.098-.18-.178-.342-.194-.59-.194-.636.03-.092.03-.092.198-.196.435-.372c.236-.175.448-.271.448-.271s.065-.03.135 0M13.089 4.446s-.267-.247-.434-.372-.438-.276-.438-.276-.084-.037-.088-.104-.004-.652-.004-.652-.008-.08.117-.113c.125-.034.235-.094.517-.092s.506.09.506.09M13.708 3.17s.294.26.39.382c.096.12.088.18.092.238s.012.422.008.464-.008.096-.062.1c-.055.004-.338.004-.522.03-.183.024-.388.079-.388.079s-.083.033-.137-.017M13.222 4.6s.238-.087.463-.104.455-.004.455-.004.062.02.112.08c.05.058.247.258.36.513s.15.469.15.469.012.092-.009.158c-.02.067-.17.544-.25.71-.08.168-.096.252-.238.29a4 4 0 0 1-.542.083c-.155.012-.3.004-.3.004s-.047-.004-.076-.1-.275-.498-.346-.619-.217-.276-.217-.276-.033-.054-.004-.142.167-.297.25-.577.109-.426.109-.426.016-.046.083-.058M13.447 6.924s.25-.008.443-.029c.191-.02.42-.07.42-.07s.06-.018.063.045c.005.063.06.52.026.64"/><path fill="none" d="M13.346 8.352s-.061-.002-.128-.052-.346-.318-.346-.318-.071-.054-.038-.109c.033-.054.13-.13.334-.472.204-.343.2-.41.2-.41s.013-.064.08-.067M14.325 3.716s.032.182.023.362-.016.26-.016.26-.021.066.02.133c.042.067.176.2.288.393.113.192.138.263.176.36.037.095.062.242.062.242s-.004.054.038.075.18.004.18.004M15.044 5.658l-.116.004s-.046-.012-.062.084-.08.363-.167.572c-.088.21-.159.33-.159.33s-.054.084-.054.18.04.318.039.512M11.595 5.808s.196.013.434.013.509-.013.509-.013.046-.02.104.026c.059.046.259.342.405.593s.204.385.204.385.03.058-.004.138c-.033.079-.142.3-.263.497-.12.196-.246.36-.246.36s-.017.045-.1.062-.309.054-.521.054-.626-.037-.626-.037-.03-.009-.071-.05-.28-.364-.355-.498-.187-.38-.187-.38-.025-.067-.017-.117.175-.351.259-.498c.083-.146.346-.497.346-.497s.037-.054.13-.038M13.193 8.42s-.125-.07-.196-.133-.221-.222-.221-.222-.03-.041-.067-.054-.292.046-.572.046-.638-.042-.638-.042-.1-.025-.146.034c-.046.058-.213.225-.27.267s-.097.09-.153.106M12.572 2.718s-.155.023-.268.048c-.112.025-.175.067-.175.067s-.033.02-.067.02"/><path fill="none" d="M11.57 2.718s.154.023.267.048.175.067.175.067.034.02.067.02"/><path fill="#ffd600" fill-rule="evenodd" d="M12.137 3.903c-.07-.03-.135 0-.135 0s-.212.096-.448.271-.436.372-.436.372-.03.046-.03.092.115.473.195.636.178.342.178.342.025.071.114.075c.043.003.273.003.495.002.219 0 .446 0 .489-.002.087-.004.112-.075.112-.075s.096-.18.176-.342.192-.59.192-.636-.03-.092-.03-.092-.196-.196-.43-.372a2.7 2.7 0 0 0-.442-.271"/><path fill="none" d="m11.704 2.74-.255-.05M12.438 2.74l.29-.066"/><g fill-rule="evenodd"><path fill="#ffd600" d="M12.55 2.714a3 3 0 0 0-.98 0l.132.025h.002c.043.008.091.017.133.027.113.025.175.067.175.067s.028.017.059.02c.03-.003.058-.02.058-.02s.063-.042.175-.067c.042-.01.09-.019.134-.026zM12.538 5.808s-.271.013-.509.013-.434-.013-.434-.013c-.092-.016-.13.038-.13.038s-.262.351-.345.497c-.084.147-.25.448-.259.498-.008.05.017.117.017.117s.112.246.187.38.313.456.355.498.07.05.07.05.414.037.627.037.438-.037.521-.054.1-.063.1-.063.125-.163.246-.36a5 5 0 0 0 .263-.496c.034-.08.004-.138.004-.138s-.058-.134-.204-.385c-.146-.25-.346-.547-.405-.593-.058-.046-.104-.026-.104-.026M12.78 5.662c-.03.088.004.142.004.142s.146.155.217.276.317.523.346.619c.03.096.075.1.075.1s.146.008.3-.004c.155-.013.401-.046.543-.084.142-.037.159-.12.238-.288.08-.167.23-.644.25-.71.021-.067.008-.16.008-.16s-.037-.213-.15-.468-.308-.455-.359-.514-.112-.079-.112-.079-.23-.013-.455.004-.463.105-.463.105c-.067.012-.083.058-.083.058s-.025.146-.109.426-.22.49-.25.577M13.226 4.463s.205-.055.388-.08.467-.025.522-.029.058-.058.062-.1a9 9 0 0 0-.008-.464c-.004-.059.004-.117-.092-.238-.096-.122-.39-.382-.39-.382a3 3 0 0 0-.443-.243s-.224-.088-.506-.09-.392.058-.517.092-.117.113-.117.113 0 .585.004.652.088.104.088.104.27.15.438.276.434.372.434.372c.054.05.137.017.137.017M14.353 4.471c.041.067.175.2.287.393.113.192.138.263.176.36.037.095.062.242.062.242s-.004.054.038.075a.3.3 0 0 0 .126.009 2.97 2.97 0 0 0-.717-1.834s.032.182.023.362-.016.26-.016.26-.021.066.02.133M14.699 6.318c-.088.21-.159.33-.159.33s-.054.084-.054.18.04.318.039.512a2.97 2.97 0 0 0 .519-1.682l-.116.004s-.046-.012-.062.084-.08.363-.167.572M14.373 6.87c-.004-.063-.062-.046-.062-.046s-.23.05-.421.071a7 7 0 0 1-.443.03c-.066.002-.079.066-.079.066s.004.067-.2.41-.3.418-.334.472c-.033.055.038.109.038.109s.28.267.346.318c.067.05.128.052.128.052A3 3 0 0 0 14.4 7.51c.035-.12-.021-.577-.026-.64M12.709 8.011c-.038-.012-.292.046-.572.046s-.638-.042-.638-.042-.1-.025-.146.034c-.046.058-.213.225-.27.267s-.097.09-.153.106c.348.142.73.22 1.13.22s.784-.079 1.133-.222c0 0-.125-.07-.196-.133s-.221-.222-.221-.222-.03-.041-.067-.054M11.348 5.662c.029.088-.004.142-.004.142s-.146.155-.217.276-.317.523-.347.619-.075.1-.075.1-.146.008-.3-.004a4 4 0 0 1-.542-.084c-.142-.037-.159-.12-.238-.288a9 9 0 0 1-.25-.71c-.021-.067-.009-.16-.009-.16s.038-.213.15-.468.31-.455.36-.514.112-.079.112-.079.23-.013.455.004.463.105.463.105c.066.012.083.058.083.058s.025.146.108.426.222.49.25.577M10.901 4.463s-.204-.055-.388-.08c-.183-.025-.467-.025-.521-.029s-.058-.058-.063-.1a9 9 0 0 1 .009-.464c.004-.059-.004-.117.091-.238.096-.122.39-.382.39-.382a3 3 0 0 1 .444-.243s.224-.088.506-.09c.281-.002.392.058.517.092s.117.113.117.113 0 .585-.005.652c-.004.067-.087.104-.087.104s-.271.15-.438.276-.434.372-.434.372c-.054.05-.138.017-.138.017M9.775 4.471c-.042.067-.175.2-.288.393-.112.192-.137.263-.175.36-.038.095-.063.242-.063.242s.005.054-.037.075a.3.3 0 0 1-.126.009c.025-.7.29-1.337.716-1.834 0 0-.031.182-.023.362s.017.26.017.26.02.066-.021.133M9.429 6.318c.087.21.158.33.158.33s.055.084.055.18-.04.318-.04.512a2.97 2.97 0 0 1-.518-1.682l.115.004s.046-.012.063.084.08.363.167.572M9.754 6.87c.004-.063.063-.046.063-.046s.23.05.421.071c.192.021.442.03.442.03.067.002.08.066.08.066s-.005.067.2.41c.204.343.3.418.333.472.034.055-.037.109-.037.109s-.28.267-.346.318a.25.25 0 0 1-.129.052 3 3 0 0 1-1.053-.842c-.034-.12.022-.577.026-.64"/><path fill="#ffd600" d="M8.941 5.658a3.119 3.119 0 1 1 6.237.001 3.119 3.119 0 0 1-6.237 0m3.118-3.27a3.271 3.271 0 1 0 .001 6.542 3.271 3.271 0 0 0 0-6.542"/><path fill="#ffd600" d="M7.237 5.658a4.823 4.823 0 1 1 9.646.001 4.823 4.823 0 0 1-9.646 0M12.059.69a4.97 4.97 0 1 0 .001 9.938 4.97 4.97 0 0 0 0-9.938"/><path fill="#ffd600" d="M.872 10.205s-.083.97-.1 1.522c-.017.551-.045 2.453-.012 3.387s.233 3.202.4 4.202.667 3.335 1.134 4.836c.467 1.5 1.334 3.602 2.301 5.27s1.701 2.634 2.868 4.068c1.168 1.434 2.635 2.668 3.736 3.535.284.224.579.45.86.662.282-.212.577-.438.86-.662 1.101-.867 2.569-2.1 3.736-3.535 1.167-1.434 1.9-2.401 2.868-4.069.967-1.667 1.834-3.768 2.301-5.269s.967-3.835 1.134-4.836c.167-1 .367-3.268.4-4.202s.005-2.836-.011-3.387c-.017-.552-.1-1.522-.1-1.522H21.82v-.894c0-.268-.034-.727-.5-1.32-.468-.594-1.26-.795-1.26-.795l-3.215-.938a4.824 4.824 0 0 1-9.571 0l-3.215.938s-.793.2-1.26.794-.5 1.053-.5 1.32v.895z"/><path fill="#015794" d="M17.044 8.036a5.55 5.55 0 0 1-1.84 2.161h1.04a6.2 6.2 0 0 0 1.77-2.902l-.626-.185a5.5 5.5 0 0 1-.344.926M18.227 8.601a6.9 6.9 0 0 1-1.06 1.596h.844a7.5 7.5 0 0 0 1.26-2.529l-.625-.185a7 7 0 0 1-.419 1.118M19.929 7.863a8.1 8.1 0 0 1-1.075 2.334h.776a8.8 8.8 0 0 0 .894-2.033 2 2 0 0 0-.123-.09c-.275-.184-.472-.21-.472-.21M21.037 8.751a9.4 9.4 0 0 1-.638 1.446h.753v-.702c0-.134.025-.418-.075-.66a1 1 0 0 0-.04-.084M3.504 9.777a9 9 0 0 1-.423-1.025 1 1 0 0 0-.04.082c-.1.243-.074.527-.074.66v.703h.752a9 9 0 0 1-.215-.42M3.594 8.165a8.8 8.8 0 0 0 .894 2.032h.776A8.2 8.2 0 0 1 4.19 7.863s-.197.027-.473.21q-.06.042-.123.092M5.314 8.906q.333.688.793 1.291h.845a6.85 6.85 0 0 1-1.48-2.714l-.624.185q.18.645.466 1.238M6.496 8.337c.34.705.81 1.335 1.379 1.86h1.039A5.55 5.55 0 0 1 6.731 7.11l-.626.185q.15.544.39 1.042M22.641 10.878H1.468s-.133 1.835-.117 2.485c.017.65.017 1.234.017 1.234h21.373s0-.584.017-1.234-.117-2.485-.117-2.485M2.85 23.985s.933 2.668 1.9 4.47c.967 1.8 1.868 3.134 2.335 3.668.467.533 1.667 2 2.167 2.434s.534.534.534.534V23.985zM14.287 23.985v11.106s.033-.1.534-.534c.5-.433 1.7-1.9 2.167-2.434s1.368-1.868 2.335-3.669 1.9-4.469 1.9-4.469zM14.354 19.916h7.848c.083-.266.267-1.734.333-2.284s.184-2.368.184-2.368l-8.365.017zM9.79 19.916v-4.635l-8.366-.017s.117 1.818.184 2.368.25 2.018.333 2.284z"/><path fill="#ffd600" stroke="#ffd600" stroke-width=".0129924" d="M4.88 13.873q-.257 0-.504-.089a1.3 1.3 0 0 1-.45-.27l.293-.35q.154.125.316.198.162.075.354.074a.43.43 0 0 0 .24-.056.18.18 0 0 0 .085-.156v-.006a.2.2 0 0 0-.018-.085.2.2 0 0 0-.067-.069A.7.7 0 0 0 4.99 13a2 2 0 0 0-.23-.068 3 3 0 0 1-.308-.093.9.9 0 0 1-.234-.126.5.5 0 0 1-.15-.188.65.65 0 0 1-.052-.28v-.006q0-.154.057-.277a.6.6 0 0 1 .163-.214.7.7 0 0 1 .248-.138 1 1 0 0 1 .318-.048q.247 0 .454.074.207.075.38.212l-.257.372a1.6 1.6 0 0 0-.295-.162.8.8 0 0 0-.289-.06q-.144 0-.216.057a.17.17 0 0 0-.072.14v.006q0 .054.02.095a.2.2 0 0 0 .076.072.7.7 0 0 0 .15.06q.094.03.238.068.171.045.303.101a.8.8 0 0 1 .225.135.5.5 0 0 1 .138.184q.047.107.047.254v.006q0 .167-.061.297a.6.6 0 0 1-.17.218.8.8 0 0 1-.26.135q-.15.047-.334.047zM6.09 11.607h.545l.587 1.582.588-1.582h.532l-.908 2.262h-.436zM8.927 11.62h1.694v.44H9.418v.455h1.059v.44h-1.06v.471h1.22v.44h-1.71zM12.417 12.71q.183 0 .281-.086a.3.3 0 0 0 .098-.231v-.007q0-.16-.103-.24a.45.45 0 0 0-.285-.08h-.491v.644zm-.994-1.09h1.026q.427 0 .655.227.192.193.193.514v.006q0 .273-.134.445a.77.77 0 0 1-.348.251l.549.803h-.578l-.481-.72h-.388v.72h-.494zM14.035 11.62h.494v2.246h-.494zM16.45 13.917a1.3 1.3 0 0 1-.48-.087 1.087 1.087 0 0 1-.614-.606 1.2 1.2 0 0 1-.086-.462v-.007a1.15 1.15 0 0 1 1.177-1.161q.15 0 .275.02.123.022.23.06.105.039.198.096.093.059.18.132l-.311.375a1 1 0 0 0-.129-.096.8.8 0 0 0-.282-.115 1 1 0 0 0-.177-.017.6.6 0 0 0-.252.057.68.68 0 0 0-.343.372.7.7 0 0 0-.05.271v.006q0 .155.05.284.05.13.141.227a.64.64 0 0 0 .49.202q.276 0 .465-.135v-.32h-.497v-.428h.975v.976a1.7 1.7 0 0 1-.412.252q-.24.104-.547.104zM18.204 11.62h1.694v.44h-1.203v.455h1.06v.44h-1.06v.471h1.22v.44h-1.71z"/><path fill="#ffd600" d="M9.47 8.264q.058.056.094.129a.4.4 0 0 1 .043.158l-.142.016a.5.5 0 0 0-.028-.114.3.3 0 0 0-.064-.093.13.13 0 0 0-.065-.04.06.06 0 0 0-.053.017l-.002.002a.1.1 0 0 0-.014.022.1.1 0 0 0 0 .03.2.2 0 0 0 .017.045l.037.065q.03.045.049.088a.3.3 0 0 1 .025.08.2.2 0 0 1-.007.074.2.2 0 0 1-.049.074l-.001.001a.197.197 0 0 1-.156.063.2.2 0 0 1-.086-.023.42.42 0 0 1-.207-.303l.138-.028q.012.055.031.1.02.045.052.076.033.032.061.035a.05.05 0 0 0 .047-.016l.001-.002a.1.1 0 0 0 .016-.025.1.1 0 0 0-.001-.033.2.2 0 0 0-.02-.046l-.04-.067A1 1 0 0 1 9.1 8.46a.3.3 0 0 1-.021-.079.2.2 0 0 1 .009-.071.2.2 0 0 1 .044-.067l.002-.002a.2.2 0 0 1 .078-.053.2.2 0 0 1 .086-.012q.043.003.087.026a.3.3 0 0 1 .085.062m-.87.11-.091-.145.322-.418-.517.106-.088-.14.75-.135.072.116zm-.514-.851-.19-.494.128-.05.135.351.133-.05-.119-.31.128-.049.12.309.137-.053-.137-.356.128-.049.192.5zm-.276-.806-.025-.14.368-.4-.425.076-.027-.15.691-.122.023.13-.38.411.44-.077.026.15zm.602-1.195a.5.5 0 0 1-.033.157.4.4 0 0 1-.09.137l-.106-.095a.5.5 0 0 0 .066-.096.3.3 0 0 0 .027-.11.14.14 0 0 0-.015-.076.06.06 0 0 0-.048-.028h-.002q-.015 0-.027.005c-.012.005-.015.01-.022.02a.2.2 0 0 0-.022.042l-.023.071a1 1 0 0 1-.033.095.3.3 0 0 1-.042.072.2.2 0 0 1-.06.045.2.2 0 0 1-.088.013h-.002a.198.198 0 0 1-.15-.074.2.2 0 0 1-.041-.079.42.42 0 0 1 .087-.357l.113.084a.5.5 0 0 0-.054.09.2.2 0 0 0-.021.09q-.002.045.015.068a.05.05 0 0 0 .043.024h.002a.1.1 0 0 0 .03-.005q.012-.006.023-.023c.01-.017.014-.026.02-.046l.024-.074a1 1 0 0 1 .035-.093.3.3 0 0 1 .044-.069.2.2 0 0 1 .06-.041.2.2 0 0 1 .08-.012h.001a.2.2 0 0 1 .092.023.2.2 0 0 1 .067.055.2.2 0 0 1 .039.083.4.4 0 0 1 .01.104m-.658-.61.038-.15.298.075-.23-.35.046-.182.22.35.464-.193-.045.18-.342.14.062.098.208.052-.037.15zm.806-1.078-.245-.025.157.19zm-.441-.05.067-.127.765.067-.076.142-.169-.017-.139.262.109.13-.074.14zm.617-.953.371-.385.101.098-.264.273.108.104.232-.24.101.097-.232.24.195.19-.107.11zm1.222-.31a.2.2 0 0 0 .063-.06.2.2 0 0 0 .032-.075.22.22 0 0 0-.033-.162v-.002a.2.2 0 0 0-.059-.064.21.21 0 0 0-.334.125.22.22 0 0 0 .033.162v.001a.2.2 0 0 0 .059.064.21.21 0 0 0 .157.041.2.2 0 0 0 .082-.03m.073.122a.38.38 0 0 1-.282.051.35.35 0 0 1-.224-.16l-.001-.002a.36.36 0 0 1-.046-.273.386.386 0 0 1 .17-.233.38.38 0 0 1 .283-.052.35.35 0 0 1 .224.16l.001.003a.35.35 0 0 1 .046.273.386.386 0 0 1-.17.233m.421-.878-.2.077-.05-.133.543-.209.05.133-.198.077.2.522-.144.056zm1.013.155a.15.15 0 0 0 .076-.032q.025-.024.018-.062v-.002a.07.07 0 0 0-.037-.05q-.03-.015-.089-.005l-.176.03.027.153zm-.09-.272a.16.16 0 0 0 .077-.03q.026-.023.02-.062v-.002a.06.06 0 0 0-.035-.048.13.13 0 0 0-.078-.005l-.15.026.026.146zm-.338-.228.321-.057q.12-.021.192.03.056.039.068.109v.002a.17.17 0 0 1-.01.098.2.2 0 0 1-.023.037.2.2 0 0 1-.031.03.24.24 0 0 1 .106.045.16.16 0 0 1 .053.102v.002a.163.163 0 0 1-.046.155.3.3 0 0 1-.075.05.5.5 0 0 1-.104.03l-.329.058zm1.234.465q.046.003.086-.011a.2.2 0 0 0 .07-.042.22.22 0 0 0 .069-.15V1.68a.2.2 0 0 0-.01-.086.21.21 0 0 0-.343-.096.22.22 0 0 0-.069.15v.002a.2.2 0 0 0 .01.086.21.21 0 0 0 .102.126.2.2 0 0 0 .085.023m-.012.142a.38.38 0 0 1-.26-.124.35.35 0 0 1-.086-.262v-.002a.355.355 0 0 1 .247-.318.4.4 0 0 1 .151-.018.38.38 0 0 1 .26.124.35.35 0 0 1 .086.262v.002a.355.355 0 0 1-.247.318.4.4 0 0 1-.151.018m.737-.628.15.04-.146.543.338.09-.036.136-.488-.13zm.735.24.141.063-.228.513.32.142-.058.128-.46-.205zm.715.371.438.307-.08.115-.312-.218-.086.122.275.192-.08.115-.275-.192-.156.223-.127-.089zm.936.528.096.11-.102.09-.097-.111zm.14.162.096.11-.102.09-.096-.111zm-.596.475a.2.2 0 0 0 .068.053.2.2 0 0 0 .08.02.22.22 0 0 0 .155-.058l.001-.001a.2.2 0 0 0 .054-.068.21.21 0 0 0-.175-.31.22.22 0 0 0-.155.057l-.001.002a.2.2 0 0 0-.055.067.21.21 0 0 0-.015.162.2.2 0 0 0 .043.076m-.11.092a.38.38 0 0 1-.095-.271.35.35 0 0 1 .124-.247l.002-.001a.355.355 0 0 1 .4-.05.4.4 0 0 1 .119.094.38.38 0 0 1 .095.271.35.35 0 0 1-.123.247h-.002a.36.36 0 0 1-.263.09.386.386 0 0 1-.257-.132m.822.532q.027.05.065.065t.078-.007l.002-.001q.044-.024.051-.064a.14.14 0 0 0-.02-.09l-.072-.136-.178.095zm.155-.434.15.283q.063.118.034.214a.22.22 0 0 1-.114.128l-.002.001a.22.22 0 0 1-.142.029.24.24 0 0 1-.12-.06l-.141.27-.085-.16.128-.238-.001-.002-.056-.105-.198.105-.073-.136zm-.055 1.311q.015.05.04.072.025.023.063.012h.002a.07.07 0 0 0 .046-.042q.012-.03-.004-.09l-.05-.17-.148.042zm.26-.117q.015.05.04.073.024.024.062.013h.002a.06.06 0 0 0 .045-.04.13.13 0 0 0-.003-.077l-.042-.147-.143.04zm.192-.36.09.313q.034.117-.009.194a.16.16 0 0 1-.101.079h-.002a.168.168 0 0 1-.171-.047.24.24 0 0 1-.034.11.16.16 0 0 1-.096.064l-.002.001a.164.164 0 0 1-.159-.03.3.3 0 0 1-.057-.07.5.5 0 0 1-.041-.1l-.092-.32zm-.468 1.231a.3.3 0 0 1 .058-.228q.072-.088.226-.102l.4-.035.013.154-.395.035q-.087.008-.126.051a.14.14 0 0 0-.034.115.15.15 0 0 0 .052.107q.045.036.129.029l.4-.035.014.154-.395.034a.4.4 0 0 1-.14-.01.252.252 0 0 1-.171-.145.4.4 0 0 1-.031-.124m.726.63-.025.14-.482.25.425.075-.026.15-.692-.122.023-.13.499-.257-.44-.077.027-.15zm-.83 1.002a.2.2 0 0 0-.017.086q0 .042.016.078.017.036.047.064t.074.045h.001a.2.2 0 0 0 .086.017.191.191 0 0 0 .143-.063.2.2 0 0 0 .045-.075l.043-.112-.395-.151zm.623-.054-.098.256a.4.4 0 0 1-.079.131.4.4 0 0 1-.111.084.33.33 0 0 1-.27.008h-.001a.4.4 0 0 1-.12-.076.3.3 0 0 1-.076-.111.4.4 0 0 1-.027-.137q0-.075.029-.15l.098-.256zm-.398.875-.28.45-.117-.073.199-.32-.12-.075-.176.281-.117-.073.176-.28-.125-.079-.202.324-.117-.073.283-.453zm-.707.711.146-.156.104.097-.397.426-.104-.097.146-.157-.41-.381.106-.113zM10.796 9.335l-.14-.014.01-.134.234.013.111.037-.243.687-.161-.054zm.635.333q.063.009.103-.017a.1.1 0 0 0 .046-.071v-.002a.1.1 0 0 0-.025-.084.15.15 0 0 0-.096-.044.15.15 0 0 0-.102.017.1.1 0 0 0-.046.073v.002a.1.1 0 0 0 .025.083.15.15 0 0 0 .095.043m-.088.382a.4.4 0 0 1-.243-.12l.107-.107q.038.037.074.058a.3.3 0 0 0 .087.027q.072.009.117-.03a.2.2 0 0 0 .064-.11.2.2 0 0 1-.073.025.39.39 0 0 1-.204-.03.3.3 0 0 1-.08-.057.2.2 0 0 1-.047-.08.2.2 0 0 1-.005-.1v-.002a.24.24 0 0 1 .108-.168.3.3 0 0 1 .102-.039.4.4 0 0 1 .123-.002.5.5 0 0 1 .126.036.2.2 0 0 1 .047.03.3.3 0 0 1 .072.09.3.3 0 0 1 .02.062.4.4 0 0 1 .009.076q0 .043-.007.096v.002a.5.5 0 0 1-.046.155.4.4 0 0 1-.082.114.3.3 0 0 1-.118.065.4.4 0 0 1-.15.009m.958-.1a.14.14 0 0 0 .07-.023.2.2 0 0 0 .049-.052.2.2 0 0 0 .027-.074.3.3 0 0 0 .004-.092v-.002a.3.3 0 0 0-.02-.09q-.017-.04-.043-.07c-.026-.03-.036-.033-.059-.043a.14.14 0 0 0-.071-.011.15.15 0 0 0-.118.074.2.2 0 0 0-.028.075.3.3 0 0 0-.004.092v.002q.004.05.021.09.015.041.041.07a.2.2 0 0 0 .059.043q.033.014.072.011m.01.143q-.077.006-.144-.016c-.067-.022-.084-.038-.117-.069a.4.4 0 0 1-.08-.111.4.4 0 0 1-.038-.144v-.002a.4.4 0 0 1 .012-.148.4.4 0 0 1 .06-.124.33.33 0 0 1 .243-.129q.078-.006.144.016a.3.3 0 0 1 .117.069q.05.046.08.111.032.066.04.144v.002a.4.4 0 0 1-.013.148.4.4 0 0 1-.06.124.33.33 0 0 1-.243.129m.912-.463-.063-.216-.137.272zm.037.123-.37.103-.058-.1.284-.556.14-.04.126.425.101-.028.037.124-.102.028.045.15-.159.044zM10.018 8.994a.117.117 0 0 1 .117.117.117.117 0 1 1-.117-.117M14.073 8.994a.117.117 0 0 1 .117.117.117.117 0 1 1-.117-.117"/></g></svg>