<svg xmlns="http://www.w3.org/2000/svg" xml:space="preserve" id="svg3318" x="0" y="0" version="1.0" viewBox="120.24 38.24 491.61 491.61"><style>.st1{fill:#e70013}.st2{fill:#fff}.st9{stroke:#000;stroke-width:.8215;stroke-miterlimit:2.1116}.st14{fill:#1a1a1a}</style><g id="layer4" transform="translate(-77.857 494.343)"><circle id="path3429" cx="443.9" cy="-210.3" r="241.7" style="fill:#fff;stroke:#e70013;stroke-width:8.2146;stroke-miterlimit:2.1116"/><circle id="path4313" cx="443.9" cy="-210.3" r="179.7" class="st1"/><circle id="path4315" cx="444.9" cy="-170.4" r="105.8" class="st2"/><path id="path3433" d="M444.9-258.2c-48.4 0-87.7 39.3-87.7 87.7s39.3 87.7 87.7 87.7c33.9 0 63.2-19.2 77.9-47.3-13 19.2-34.9 31.7-59.8 31.7-39.9 0-72.2-32.3-72.2-72.2s32.3-72.2 72.2-72.2c24.9 0 46.8 12.6 59.8 31.8-14.6-28-44-47.2-77.9-47.2" class="st1"/><path id="path3440" d="M508.7-142.6 473-154.2l-20.3 31.6v-37.6l-36.4-9.6 35.8-11.6-2.1-37.5 22.1 30.4 35-13.6-22.1 30.4z" style="fill-rule:evenodd;clip-rule:evenodd;fill:#e70013"/><circle id="path4299" cx="444.9" cy="-170.4" r="111.3" style="fill:none;stroke:#fff;stroke-width:8.6166;stroke-linecap:round;stroke-miterlimit:2.1116"/><path id="path4309" d="m365.6-247.1-.8 2.7-21.2 30.2-8.3 50.1-4.7-.2s-6.6-.1-13.3-.9-10.6-2.2-12.3-2.9c-1.8-.7-2.8-2.2-.6-1.6s.1-2.3-.3-3.7c-.4-1.3 2.9-1 4.1-2.1s-1.3-.7-2.5-2.6 4.5 1 5.7 0-2.3-1.3-2.6-4c-.3-2.6 4.3.4 3.1-.7-1.2-1.2-2.3-2.2 10.2-1.7-15.8-.4-34.7-9.2-36.2-10.3-1.5-1.2 2.3-1.2-3.1-2.2s4.4-1.1 7-1.9-11.7-4.1-.2-3.1c8.9.8.2-1.1.2-2.7s3.7-.4 2.1-2.6 4.4.6 1.8-1.2-1.8-1.6-4.3-4.2c-22.9-7.4-35.1-16.8-30.4-16.9s-1-5.8.9-5.6c5.7.4 5.1-.7 1.1-3.3-1.5-1 5.4 0 1.6-1.6s2.1-2.3 6.3-1.9c-14.4-7-21.9-17.7-24.2-19.8s4.8-.4 8.4-2.2c3.5-1.8-3.8-1.3-4.8-3.7-1-2.3 4.7 2.2 6.2.7s-5.3-1.3-5.3-3.1 4.1 1.2 7 .1c2.9-1-1.5-1.5-3.7-2.9-2.2-1.5-2.3-2.8 4.1-1.7-9.4-5.9-24.1-26.6-24.1-26.6s-.9-3.2 1.4-2.6 7.8 3.1 5.9.6-8.7-6.3-6.9-6.3 4.4 2.9 5.6 1.5c1.2-1.5-6-7-2.3-5.9 3.7 1.2 1.9-.7 1.9-3.2s2.6-.4 3.2-1.6-1.9-5-.7-4.7 1.3 2.8 2.8 2.3c1.5-.4-6.7-12.5 0-4.3C309-266.9 395-274.8 395-274.8l-10.6 11.6-18.7 16.2" class="st2"/><path id="path4307" d="m521.3-245.5.8 2.7 21.2 30.2 8.3 50.1 4.7-.2s6.6-.1 13.3-.9c6.7-.7 10.6-2.2 12.3-2.9 1.8-.7 2.8-2.2.6-1.6s-.1-2.3.3-3.7c.4-1.3-2.9-1-4.1-2.1s1.3-.7 2.5-2.6-4.5 1-5.7 0 2.3-1.3 2.6-4c.3-2.6-4.3.4-3.1-.7s2.3-2.2-10.2-1.7c15.8-.4 34.7-9.2 36.2-10.3 1.5-1.2-2.3-1.2 3.1-2.2s-4.4-1.1-7-1.9 11.7-4.1.2-3.1c-8.9.8-.2-1.1-.2-2.7s-3.7-.4-2.1-2.6-4.4.6-1.8-1.2 1.8-1.6 4.3-4.2c22.9-7.4 35.1-16.8 30.4-16.9s1-5.8-.9-5.6c-5.7.4-5.1-.7-1.1-3.3 1.5-1-5.4 0-1.6-1.6s-2.1-2.3-6.3-1.9c14.4-7 21.9-17.7 24.2-19.8s-4.8-.4-8.4-2.2c-3.5-1.8 3.8-1.3 4.8-3.7 1-2.3-4.7 2.2-6.2.7s5.3-1.3 5.3-3.1-4.1 1.2-7 .1 1.5-1.5 3.7-2.9c2.2-1.5 2.3-2.8-4.1-1.7 9.4-5.9 24.1-26.6 24.1-26.6s.9-3.2-1.4-2.6-7.8 3.1-5.9.6 8.7-6.3 6.9-6.3-4.4 2.9-5.6 1.5c-1.2-1.5 6-7 2.3-5.9-3.7 1.2-1.9-.7-1.9-3.2s-2.6-.4-3.2-1.6 1.9-5 .7-4.7-1.3 2.8-2.8 2.3 6.7-12.5 0-4.3c-65.6 58.5-151.6 50.6-151.6 50.6l10.6 11.6 18.7 16.2" class="st2"/><path id="path4295" d="M586.4-208c8.5-.4 9.4-.6 6.7 1.2-2.6 1.8 3.4-1 1.8 1.2s2.1 1 2.1 2.6-8.7 3.5.2 2.7c11.5-1-2.8 2.3-.2 3.1s12.5.9 7 1.9c-5.4 1-1.6 1-3.1 2.2s-20.4 10-40.9 10.6m57.2-57.3c4.8-1 10.7-.3 6.9 1.3s3.1.6 1.6 1.6c-3.9 2.6-4.6 3.8 1.1 3.3 1.9-.1-3.8 5.5.9 5.6s-7.5 9.5-19.4 13.9-23.3 6.5-34 6.7c-10.7.3-22-2.8-22-2.8m77-61.8c7.3-2.1 7.2-.7 5 .7-2.2 1.5-6.6 1.9-3.7 2.9s7-1.9 7-.1-6.7 1.6-5.3 3.1c1.5 1.5 7.2-3.1 6.2-.7-1 2.3-8.4 1.9-4.8 3.7 3.5 1.8 10.7.1 8.4 2.2s-9.8 12.8-23.6 19.2-32 9.2-46.8 9.1-33.6-6.2-33.6-6.2m105.4-85.7c-65.6 58.5-151.6 50.6-151.6 50.6l10.6 11.6 18.7 16.2s9.5-.8 15.8-5.2 16.6-13.7 16.6-13.7 6 9.8 25.7 8.1 43.4-12.7 51.9-17.6c8.5-5 23.2-25.7 23.2-25.7s.9-3.2-1.4-2.6-7.8 3.1-5.9.6 8.7-6.3 6.9-6.3-4.4 2.9-5.6 1.5c-1.2-1.5 6-7 2.3-5.9-3.7 1.2-1.9-.7-1.9-3.2s-2.6-.4-3.2-1.6 1.9-5 .7-4.7-1.3 2.8-2.8 2.3 6.7-12.5 0-4.4zm-73.9 140.7c7.8-.3 6.6.7 5.4 1.9s3.4-1.9 3.1.7-3.8 2.9-2.6 4c1.2 1 6.9-1.9 5.7 0s-3.6 1.6-2.5 2.6 4.5.7 4.1 2.1c-.4 1.3-2.5 4.3-.3 3.7s1.2.9-.6 1.6-5.6 2.2-12.3 2.9-13.3.9-13.3.9l-4.7.2-8.3-50.1-21.2-30.2-.8-2.7" style="fill:#fff;stroke:#000;stroke-width:1.6429;stroke-miterlimit:2.1116"/><path id="path4301" d="M300.6-209.1c-8.5-.4-9.4-.6-6.7 1.2 2.6 1.8-3.4-1-1.8 1.2s-2.1 1-2.1 2.6 8.7 3.5-.2 2.7c-11.5-1 2.8 2.3.2 3.1s-12.5.9-7 1.9c5.4 1 1.6 1 3.1 2.2s20.4 10 40.9 10.6m-57.2-57.3c-4.8-1-10.7-.3-6.9 1.3s-3.1.6-1.6 1.6c3.9 2.6 4.6 3.8-1.1 3.3-1.9-.1 3.8 5.5-.9 5.6s7.5 9.5 19.4 13.9 23.3 6.5 34 6.7c10.7.3 22-2.8 22-2.8M257.8-273c-7.3-2.1-7.2-.7-5 .7 2.2 1.5 6.6 1.9 3.7 2.9s-7-1.9-7-.1 6.7 1.6 5.3 3.1c-1.5 1.5-7.2-3.1-6.2-.7 1 2.3 8.4 1.9 4.8 3.7-3.5 1.8-10.7.1-8.4 2.2s9.8 12.8 23.6 19.2c13.8 6.5 32 9.2 46.8 9.1s33.6-6.2 33.6-6.2m-105.5-85.8c65.6 58.5 159.3 50.4 159.3 50.4l-1 4.9-15.8 9.2-20.1 13.9s-9.5-.8-15.8-5.2c-6.2-4.4-16.6-13.7-16.6-13.7s-6 9.8-25.7 8.1-43.4-12.7-51.9-17.6c-8.5-5-23.2-25.7-23.2-25.7s-.9-3.2 1.4-2.6 7.8 3.1 5.9.6-8.7-6.3-6.9-6.3 4.4 2.9 5.6 1.5c1.2-1.5-6-7-2.3-5.9 3.7 1.2 1.9-.7 1.9-3.2s2.6-.4 3.2-1.6-1.9-5-.7-4.7 1.3 2.8 2.8 2.3c1.4-.5-6.8-12.5-.1-4.4zm74 140.8c-7.8-.3-6.6.7-5.4 1.9s-3.4-1.9-3.1.7 3.8 2.9 2.6 4c-1.2 1-6.9-1.9-5.7 0s3.6 1.6 2.5 2.6c-1.2 1-4.5.7-4.1 2.1s2.5 4.3.3 3.7-1.2.9.6 1.6 5.6 2.2 12.3 2.9 13.3.9 13.3.9l4.7.2 8.3-50.1 21.2-30.2.8-2.7" style="fill:none;stroke:#000;stroke-width:1.6429;stroke-miterlimit:2.1116"/><circle id="path3431" cx="444.9" cy="-170.4" r="106.1" style="fill:none;stroke:#e70013;stroke-width:8.2146;stroke-linecap:round;stroke-miterlimit:2.1116"/><path id="path4280" d="M407.8-324.8c-2.2 6.1 1.5 12.5 6.6 15.7 4.2 2.4 7.7 8.1 1.8 10.9-5.6 4-7.4 10.9-10.2 16.9-1.6 6 2.9 11.8 7.3 15.3 2.5-3.6-2-11.3 2.3-15.6 1.3-4 5.8-5 5.9.2 1.6 3.4-.4 11.2 3.4 11.8-.2-4.9-2.1-15.3 6.4-11.9 2.6 1.6 3.3 12.3 5.1 4.9 1-2.2 1.9-12.1 4.8-7-.1 5.4-.6 11 1.5 16.1 2 7.3 2.9-4.3 2.7-7.1.2-2 4.4-9.6 8-10.6 4.1-1.1 7.8 4.7 10.6 3.5.8-.3 3.1-7.3 3.9-7.3 6.6-1.6.3 4.7.3 10.5 1.2 5.5-1.3 14.9-1.7 20.6 2.7 6.6 4.3-10.2 4.6-12.3 3.8-7.6 3.1-13.3 10-17.9 5.4-4.3 9.9 2 12.9 5.8 4.9.3 3.7-8.5 3.4-12.1-2.5-5.2-9-9.2-7.7-15.9 0-18.1-5.7-37.6-20.5-49-8.9-6.8-19.3-12.5-30.6-13.9-10-.2-20.9-.2-29.4 5.9-3 2-6.8 3.7-7.1 7.7-2.6 9-5.2 17.9-7.8 26.9.8 1.5.2 4.6 2.4 4.7 3.7 1.1 7.4 2.2 11.1 3.2z" style="fill:#fff;stroke:#000;stroke-width:1.2322;stroke-miterlimit:2.1116"/><path id="path4283" d="M497.3-291.6c3.7 13.9 10.4 26.3 9.3 27.8-1 1.5-11.4-9.1-15.4-11-3.9-1.9-6-3.1-9.5-1.9s-6.8 3.7-8.5 7.3c-1.7 3.5-3.7-.2-2.1-2.5 1.7-2.3 1.5-8.3 3.9-10.8 2.5-2.5 1.9-4.8 7.1-5.4s5.8-2.3 8.3.6 3.1 7.7 4.8 4.1c1.7-3.5 2.1-8.5 2.1-8.2z" class="st9"/><path id="path4285" d="M466.4-264.8c-5.9-10.1-14.7-19.8-9.8-18.5s7.2 1.3 8.8-1.9 4.6-8.2 5.5-5.2c1 3-2 3.2-2.3 8.2s-1.5 17.6-2.2 17.4z" style="stroke:#000;stroke-width:1.0494;stroke-miterlimit:2.1116"/><path id="path4221" d="M424.5-359c-4.9-.3-11.9 5.5-7.6 11.1 5.3 2.5 18.1 7.7 23.6 6.1 4.1-1.2 4.3-3.8 4.1-6-.3-3-.7-5.8-3.5-7.1-5.4-2.8-5 1.7-13.5 2.4-1.7 0-4.3-.2-5.9-.8-1.4-1 .3-3.4 2-3.8 3-.8 4.9 1.3 4.9-.8z" class="st9"/><path id="path4225" d="M443.4-348.5c0 3.3-2.7 5.9-5.9 5.9-3.3 0-5.7-2.5-4.8-5.6.8-2.5 3.3-3.7 5.6-4.7 3-1.2 5.1 1.2 5.1 4.4" style="fill-rule:evenodd;clip-rule:evenodd;fill:#fff"/><path id="path3444" d="M401.8-348.1c2.6 2.1 4.1 4.4 2.6 4.8s-3 1.3-3.8-.3c-.9-1.6 1.2-4.4 1.2-4.5z" style="fill:none;stroke:#000;stroke-width:.8215;stroke-miterlimit:2.1116"/><circle id="path4223" cx="437.5" cy="-348.5" r="2.6" style="fill-rule:evenodd;clip-rule:evenodd"/><path id="path4274" d="M433.4-342.5c.4 3.7-.2 4-.7 4-.4 0-1 .2-1.2-.3-.1-.5.4-1.2-.1-3s1.9-.6 2-.7" class="st14"/><path id="path4276" d="M429.2-343.5c.4 3.7-.2 4-.7 4-.4 0-1 .2-1.2-.3-.1-.5.4-1.2-.1-3s1.8-.6 2-.7" class="st14"/><path id="path4278" d="M424.3-345.2c.4 3.7-.2 4-.7 4s-1 .2-1.2-.3c-.1-.5.4-1.2-.1-3-.4-1.8 1.9-.7 2-.7" class="st14"/><path id="path3446" d="M433.2-329c-11.3-1.9-33.2-2.9-39 .1-1.1-.4 1.2-1.7 4-2.4 2.9-.7 30.2-3.5 32.4-2.7m-27.4-28.8c9.8 8.1 7.6 13.1 10 16.1 2.3 3.1 8.2 8.4 11.7 10.6s8.7 1.9 10.4 3.8 2.8 4.8 2.8 4.8-6.6-2.9-8.9-1.5c-2.3 1.5-1.9 5.7-2.5 6.5-.6.7-3.1 2.1-4.5 1.9-1.5-.1-5.7-3.1-7.8-3.1s-13.5-2.8-15.5-3.5c-2.1-.7-5.9-2.6-7.3-1.2-1.5 1.5-3.5 2.5-4.1 4.5s.6 7.2-.1 7.5-6.6-5.7-5.7-13.9c.7-8.1 12.7-25.7 21.5-32.5z" style="fill-rule:evenodd;clip-rule:evenodd;stroke:#000;stroke-width:.8215;stroke-miterlimit:2.1116"/><g id="text4321" transform="matrix(1.55608 0 0 1.55608 153.958 -659.74)"><path id="path4399" d="m53 297.6-7.9 1-.5-3.8 18.4-2.3 1.6 12.9-3.2.4-1.1-9.1-4.2.5 1 8.1-3.2.4z"/><path id="path4401" d="m68.3 312.5.5 2.5-3.9-2.7-.3-1.3zM54.4 311l-5.5 1.1 1.8 9.5-1.8.4-2.2-11.6 16.1-3.1 2.2 11.2-1.8.4-1.8-9.1-5.1 1 1.7 8.8-1.8.4z"/><path id="path4403" d="m49.7 325.1 15.8-4.4 1.7 6.1c.6 2 .3 3.8-.8 5.3s-2.8 2.6-5.3 3.3-4.6.7-6.3-.1c-1.7-.7-2.9-2.1-3.4-4.1zm2.3 1.5 1 3.7c.4 1.6 1.3 2.6 2.6 3.1s2.9.5 4.9-.1 3.4-1.4 4.2-2.5 1-2.4.6-4l-1-3.7z"/><path id="path4405" d="m75.9 339.1.9 2.4-4.3-1.9-.5-1.3zM62 340l-5.3 2 3.4 9-1.7.7-4.2-11 15.3-5.8 4 10.6-1.7.7-3.3-8.7-4.9 1.9 3.2 8.3-1.7.7z"/><path id="path4407" d="M71.5 360c0 .5 0 1-.1 1.4s-.3.8-.6 1.1-.5.5-.8.7-.6.4-1 .6c-.1.1-.3.1-.5.2s-.4.2-.5.3c-.5.3-1 .6-1.3.9q-.45.45-.6 1.2l-.5.2-1.1-2.3c.5-.6 1.2-1.1 2.2-1.6l1.3-.7c.9-.5 1.5-1 1.7-1.6s.1-1.3-.3-2.2l-2.4-4.8-6.3 3.2-.9-1.9 14.7-7.4 3.4 6.8c.7 1.4.9 2.7.6 3.8s-1 2-2.3 2.6c-.8.4-1.6.6-2.3.5-.8 0-1.6-.4-2.4-1m3.4-1.2c1-.5 1.5-1.1 1.6-1.8s-.1-1.5-.5-2.4l-2.3-4.5-5 2.5 2.3 4.5c.5 1 1.1 1.6 1.7 1.9s1.4.2 2.2-.2"/><path id="path4409" d="m76 373.5-3.4-5.3-5.1 1.2-1.2-1.9 17-4 1.5 2.3-10.7 13.7-1.3-2zm1.2-1.4 4.9-6.2-7.7 1.8z"/><path id="path4411" d="m90.1 376.2-11.3 9.1-1.3-1.6 11.3-9.1-3.4-4.2 1.4-1.2 8.1 10-1.4 1.2z"/><path id="path4413" d="m97.4 381.6-11.9 11.3-1.5-1.5 12-11.3z"/><path id="path4415" d="M104.4 399.4c-1.6 1.8-3.5 2.9-5.6 3.2s-4.1-.4-5.9-2-2.7-3.4-2.8-5.5c-.1-2.2.8-4.2 2.4-6.1q2.55-2.85 5.7-3.3c2.1-.2 4.1.4 5.9 1.9 1.8 1.6 2.7 3.4 2.8 5.6.1 2.1-.7 4.2-2.5 6.2M103 389c-1.3-1.1-2.8-1.6-4.4-1.3-1.6.2-3.1 1.1-4.4 2.6s-2 3.1-2 4.8c0 1.6.7 3 2 4.2 1.3 1.1 2.8 1.6 4.4 1.4s3.1-1.1 4.4-2.6c1.4-1.6 2-3.2 2.1-4.8-.1-1.7-.8-3.1-2.1-4.3"/><path id="path4417" d="m121 400.1-9 13.7-2-1.3.1-15.8-7.3 11.1-1.7-1.1 9-13.7 1.9 1.2-.1 15.9 7.3-11.2z"/><path id="path4419" d="m134.1 407.4-6 14.1-3.5-1.5 6-14.1-5.2-2.2 1.2-2.9 13.7 5.8-1.2 2.9z"/><path id="path4421" d="m150 411.6 2 .6-3.3 11c-.5 1.6-1.4 2.7-2.8 3.3s-3 .6-4.8.1c-1.9-.6-3.2-1.4-4-2.7-.8-1.2-.9-2.7-.5-4.3l3.3-11 2 .6-3.3 11c-.3 1.1-.2 2.1.3 2.9.6.8 1.5 1.3 2.7 1.7 1.3.4 2.3.4 3.2 0s1.5-1.1 1.8-2.2z"/><path id="path4423" d="m166.2 414.8-2.9 16.1-2.3-.4-6-14.6-2.4 13.1-1.9-.4 2.9-16.1 2.2.4 6 14.7 2.4-13.2z"/><path id="path4425" d="m171.2 415.3-1.8 16.3-2.1-.2 1.8-16.3z"/><path id="path4427" d="M179 431c.8 0 1.6 0 2.1-.2.6-.2 1-.4 1.3-.7q.45-.45.6-.9c.1-.3.2-.6.2-1 .1-1.2-.9-2.2-2.9-2.8l-4-1.3c-2.1-.7-3.1-2-3-4 .1-1.5.6-2.6 1.7-3.4s2.5-1.2 4.3-1.1c1.9.1 3.3.6 4.3 1.6 1 .9 1.5 2.2 1.4 3.8l-2-.1c0-1.1-.3-1.9-1-2.5s-1.7-1-3-1c-1.1-.1-2 .2-2.7.6-.7.5-1 1.1-1.1 2 0 .6.1 1.1.5 1.5s1.1.7 2 1l4.1 1.3c1.1.4 1.9.9 2.5 1.7.6.7.8 1.6.8 2.6 0 .4-.1.9-.2 1.3s-.3.8-.7 1.3c-.3.4-.7.8-1.2 1.1s-1.1.6-1.9.8-1.6.3-2.6.2c-.6 0-1.2-.1-1.8-.2-.5-.1-1.1-.3-1.7-.6s-1.1-.7-1.5-1.1-.7-1-1-1.7q-.3-1.05-.3-2.4l2 .1v.1c0 .5 0 .9.1 1.3q.15.6.6 1.2c.3.4.8.7 1.4 1 1 .3 1.8.4 2.7.5"/><path id="path4429" d="m190.4 416.1.2 16.4h-2.1l-.2-16.4z"/><path id="path4431" d="m196 424.8.4 5.6 9.6-.8.1 1.8-11.7.9-1.3-16.4 11.3-.9.1 1.8-9.2.7.4 5.2 8.9-.7.1 1.8z"/><path id="path4433" d="m218.8 412.7 3 16.1-2.3.4-10.8-11.5 2.4 13.1-1.9.4-3-16.1 2.2-.4 10.9 11.6-2.5-13.2z"/><path id="path4435" d="m232.6 408.6 4.8 15.7-2.3.7-12-10.2 3.9 12.7-1.9.6-4.8-15.7 2.2-.7 12.1 10.3-3.9-12.8z"/><path id="path4437" d="m239.9 415.2 2.2 5.2 8.9-3.8.7 1.7-10.8 4.7-6.5-15.1 10.4-4.5.7 1.7-8.5 3.7 2.1 4.8 8.2-3.5.7 1.7z"/><path id="path4439" d="m260.1 413.8-8.8-13.8 5.3-3.4c1.8-1.1 3.5-1.4 5.3-.8s3.4 2 4.7 4.1c1.4 2.1 2 4.2 1.7 6-.2 1.9-1.2 3.4-2.9 4.5zm.8-2.7 3.3-2.1c1.4-.9 2.1-2 2.2-3.4s-.4-2.9-1.5-4.7q-1.65-2.7-3.6-3.3c-1.3-.5-2.6-.2-4 .6l-3.3 2.1z"/><path id="path4441" d="m270.6 397.7 3.6 4.4 7.5-6.1 1.2 1.4-9.1 7.5-10.4-12.7 8.8-7.2 1.2 1.4-7.2 5.9 3.3 4.1 6.9-5.7 1.2 1.4z"/><path id="path4443" d="m286 382.6 6 5.3-2.5 2.9-13.9-12.3 8.6-9.8 2.4 2.1-6.1 6.9 3.1 2.8 5.4-6.1 2.4 2.1z"/><path id="path4445" d="M301.4 362.3c2 1.4 3.3 3.1 3.8 5.2s.1 4.1-1.3 6.1c-1.3 2-3.1 3.1-5.2 3.4s-4.3-.3-6.4-1.7-3.4-3.2-3.9-5.3-.1-4.1 1.2-6.1c1.4-2 3.1-3.1 5.2-3.4q3.45-.45 6.6 1.8m-10.1 2.7c-1 1.4-1.3 2.9-.8 4.5.4 1.6 1.5 2.9 3.1 4.1 1.7 1.1 3.3 1.6 5 1.4 1.6-.2 2.9-1 3.9-2.5 1-1.4 1.3-2.9.8-4.5-.4-1.6-1.4-2.9-3.1-4.1s-3.4-1.7-5-1.5c-1.6.3-2.9 1.1-3.9 2.6"/><path id="path4447" d="M309 347.6c2.2 1.1 3.6 2.7 4.4 4.7s.6 4.1-.5 6.2-2.7 3.5-4.7 4c-2.1.6-4.3.3-6.5-.9s-3.8-2.8-4.5-4.8c-.8-2-.6-4.1.5-6.2s2.7-3.5 4.7-4 4.2-.2 6.6 1m-9.8 3.9c-.8 1.5-.9 3.1-.3 4.6q.9 2.25 3.6 3.6c2.7 1.35 3.5 1.2 5.1.8s2.8-1.4 3.6-2.9.9-3.1.3-4.6-1.8-2.7-3.5-3.6c-1.8-.9-3.6-1.2-5.2-.8s-2.8 1.3-3.6 2.9"/><path id="path4449" d="m305.2 338.6 13.6 5.2-.7 2-13.6-5.2-1.9 5-1.7-.7 4.6-12 1.7.7z"/><path id="path4451" d="M320.1 323.6c1.4.4 2.3 1.1 2.9 2.2s.7 2.3.3 3.7l-2 7.1-15.8-4.4 1.8-6.4c.2-.9.6-1.6 1-2.2s.9-1 1.4-1.2 1-.3 1.5-.4c.5 0 .9 0 1.4.1 1.6.4 2.6 1.5 2.8 3.1q1.05-1.35 2.1-1.8c.8 0 1.6-.1 2.6.2m-6.1 4.7c.6-2.1 0-3.4-1.6-3.9-1.7-.5-2.8.4-3.4 2.5l-1.1 3.9 5 1.4zm7.5.9c.2-.7.2-1.3 0-1.9-.2-.5-.5-.9-.8-1.2q-.45-.3-1.2-.6c-.8-.2-1.6-.2-2.2.2s-1.1 1-1.3 1.9l-1.4 4.9 5.4 1.5z"/><path id="path4453" d="m321.7 313.1-1.1 6.2 4.6 2.6-.4 2.2-15.2-8.6.5-2.7 17.1-2.8-.4 2.3zm-1.9.3-7.8 1.2 6.9 3.9z"/><path id="path4455" d="m311.2 304.4 14.5 1.3.7-8.1 1.8.2-.9 10.2-16.3-1.4z"/><path id="path4457" d="m312 293 14.6.2.1-8.1h1.8l-.2 10.2-16.4-.3z"/></g><path id="path4351" d="M223.3-203.9C236.2-59.2 326 13.3 446.2 13.3s219.4-88.9 218.8-226" style="fill:none"/><g id="text4459" transform="matrix(1.55608 0 0 1.64007 153.958 -678.898)"><path id="path4480" d="m258.9 178.9 3.8-1.1c.3-.1.4.1.4.4 0 .4 0 .9-.2 1.5s-.4 1.4-.7 2.2-.7 1.7-1.1 2.5-.9 1.6-1.4 2.4-1 1.4-1.5 2q-.75.75-1.5 1.2c-.5.2-1 .2-1.4 0l-7.9-4.8 3.5-5.7 7.2 4.4zm7.6-5.3v.4l-.3.3-2.6.9c-.1.1-.3.1-.4 0l-.3-.3-.9-2.6v-.1l-2.1.8c-.2.1-.3 0-.4 0l-.3-.3-.9-2.6v-.4l.3-.3 2.6-.9c.2-.1.3 0 .4 0l.3.3.9 2.6v.1l2.1-.8c.1-.1.3-.1.4 0l.3.3z"/><path id="path4482" d="m240.5 181.6 3.1-5.9 7.6 4-3.1 5.9z"/><path id="path4484" d="m233.7 178.4 2.8-6 7.8 3.7-2.8 6z"/><path id="path4486" d="m226.7 175.6 2.5-6.2 8 3.2-2.5 6.2z"/><path id="path4488" d="m219.6 173.2 2.2-6.3 8.1 2.8-2.2 6.3z"/><path id="path4490" d="m214.9 171.9-2.1-.5c-1-.1-1.7-.5-2.2-1q-.75-.9-.9-2.1c-.1-.8.1-1.7.5-2.7s1-2 1.9-3c1.4-1.6 2.6-2.7 3.7-3.3s1.9-.7 2.6-.4c.7.4 1.1 1.2 1.4 2.4.3 1.3.3 3 .1 5.1l2 .5-1.6 6.5-2.2-.6c-1.4 1.7-2.7 3-4 3.8s-2.6 1.2-3.9 1.1c-1.2-.1-2.4-.6-3.6-1.7-1.1-1-2.2-2.5-3.2-4.5l.3-.7c.7.7 1.5 1.3 2.5 1.8.9.5 1.9.8 2.9 1s2 .2 3-.1c.9-.2 1.9-.8 2.8-1.6m2.1-6.5c0-.6 0-1.1-.1-1.5s-.3-.7-.5-.9-.5-.3-.8-.4c-.3 0-.6 0-.9.1q-.45.15-.9.6c-.3.3-.5.6-.7.9.1.2.3.4.4.5s.3.2.4.3.2.1.4.1c.1 0 .2 0 .4.1s.5.1.8.2.5.1.8.2h.6c.1.1.1 0 .1-.2"/><path id="path4492" d="m201.3 157.7 3-2.5c.2-.2.4-.1.6.2s.3.8.4 1.5c.1.6.2 1.4.2 2.3v2.7c-.1.9-.2 1.9-.3 2.8q-.15 1.35-.6 2.4c-.3.7-.6 1.3-.9 1.7s-.8.6-1.3.5l-9.1-1.2.9-6.6 8.3 1.2zm3-7.2c.1.1.1.2.1.4 0 .1-.1.3-.2.4l-2 1.9c-.1.1-.2.1-.4.1-.1 0-.3-.1-.4-.2l-1.9-2c-.1-.1-.2-.3-.2-.4s.1-.3.2-.4l2-1.9c.1-.1.2-.1.4-.1.1 0 .3.1.4.2z"/><path id="path4494" d="m185.5 167.7.4-6.7 8.6.5-.4 6.6z"/><path id="path4496" d="m178 167.8-.1-6.7 8.6-.1v6.7z"/><path id="path4498" d="m170.5 168.4-.5-6.7 8.6-.6.4 6.6z"/><path id="path4500" d="m163 169.4-.9-6.6 8.5-1.1.9 6.6z"/><path id="path4502" d="m155.7 170.9-1.3-6.5 8.4-1.6 1.2 6.5z"/><path id="path4504" d="m148.4 172.8-1.6-6.5 8.3-2.1 1.6 6.5z"/><path id="path4506" d="M139.5 175.5c-.2.1-.4.1-.7.2h-.8c-.3 0-.5-.1-.8-.3-.3-.1-.5-.4-.7-.6l.2 1.9-5.8 2.5c.2 1.3.1 2.6-.2 3.7-.3 1.2-.7 2.2-1.3 3.1s-1.3 1.6-2.2 2.2q-1.2.9-2.7 1.2c-.9.2-1.9.2-2.9.1-1-.2-1.9-.6-2.8-1.3s-1.6-1.6-2.3-2.8q-1.05-1.8-1.5-4.5c0-.3-.1-.6-.1-.9v-1c0-.3.1-.6.1-.8s.1-.3.2-.3c.2 0 .3.1.4.1s.2.2.2.4c.2 1.3.6 2.4 1.1 3.3s1.1 1.5 1.8 2 1.4.7 2.2.8 1.6 0 2.3-.2c.8-.2 1.5-.6 2.1-1.1.7-.5 1.2-1.1 1.6-1.9.5-.9.8-1.6.9-2.2.2-.6.2-1.2.1-1.6q-.15-.75-.6-1.2c-.3-.4-.7-.7-1.1-1s-.9-.7-1.4-1c-.5-.4-1.1-.8-1.7-1.2 0-.1 0-.4-.1-.6v-2.1c0-.4.1-.7.1-1q.15-.45.3-.6c.1-.2.3-.2.5-.1.9.4 1.7.9 2.2 1.4.6.5 1 1 1.3 1.5s.6.8.8 1.1.3.4.5.4l4.2-1.8-1.5-2.7 1.6-3.6s.1 0 .1.1q.15.15.3.6c.1.3.3.6.5.9s.4.7.7 1.1.6.7.9 1.1l1.2.9 2-.9 1.5-.6-1.5-2.7 1.6-3.6s.1 0 .1.1c.1.1.1.3.3.6.1.3.3.6.5.9s.4.7.7 1.1.6.7.9 1.1l1.2.9 2.6.1 1.7 6.3-1.6.4c-.5.3-.4.1-.7.2h-.8c-.3 0-.8-.9-1-1-.3-.1-.5-.4-.7-.6l.3 1.9z"/></g></g></svg>