<svg xmlns="http://www.w3.org/2000/svg" xmlns:xlink="http://www.w3.org/1999/xlink" xml:space="preserve" id="katman_1" x="0" y="0" version="1.0" viewBox="180 42.03 200 315.57"><style>.st0{fill:#fff}.st1{fill:#ffc905}.st3{fill:#d8000f}.st5{fill:#ffc905;stroke:#ffc905;stroke-width:.73;stroke-linejoin:round}</style><path d="M182.6 261.6c-.3-56.3.2-124.1-.7-173 69.4.4 122.8 0 195.5.5-.6 61.2-.2 107.6-1 173.9-8.6 35.5-60.9 79.3-96.2 91.5-61.3-13.4-94.2-81.6-97.6-92.9" class="st0"/><path d="M279.4 357.6c-59-26.8-87.2-50.2-98.9-95.9-1-56.8-.2-118.2-.1-175H380c-.3 58.8-.6 117.5-1 176.3-9 42.9-50 73.7-99.6 94.6m93.7-94.9c.4-56.7 2.2-121.2 2.2-171.6l-191.2-.2c.3 56.3.2 65.7 1 170.8 12.4 44.6 49.4 71.8 94.3 90.4 43.6-19.1 84.6-47.6 93.7-89.4" class="st1"/><path d="m248.9 111.1.1 128.3c21.3 0 42.5.1 63.8 0l.1-.1c0-40.9-.1-87.3-.2-128.2-10.7 4.5-19.3 6.6-31.8 11.5-14-4.7-18.4-6.4-32-11.5m82 24.2c-2.8 2.6-5 8.9-.6 11.1v10.8c-1.5-4.1-5.9-5.6-10.2-5 .1 4.3 2.8 9.2 8.1 8.3.9-.2 1.8-.9 2.1-2v12.9l-.1-.4-.1-.4-.3-.5-.3-.5-.3-.4-.2-.2-.5-.4-.5-.4-.8-.5-.8-.5-.8-.3-.8-.3-.9-.2-.9-.2-1.4-.1-1.4-.1-.1.1-.1.1v1.8l.1.7.1.7.2.7.2.7.4.6.4.6.4.5.4.5.6.5.6.5.7.3.7.3.7.1.7.1h1.4l.6-.3.6-.3.3-.3.3-.3.2-.4.2-.4v13.4l-.2-.6-.2-.6-.3-.5-.3-.5-.6-.6-.6-.6-.7-.4-.7-.4-.5-.2-.5-.2-.8-.2-.8-.2-1.1-.1-1.1-.1-1.9.2h-.2l.1 1 .1 1 .2.8.2.8.4.8.4.8.5.5.5.5.6.5.6.5.7.3.7.3.6.1.6.1h1.6l.5-.2.5-.2.4-.3.4-.3.3-.5.3-.5v14.4l-.2-.6-.2-.6-.5-.8-.5-.5-.5-.5-.6-.4-.6-.4-.8-.3-.8-.3-.9-.2-.9-.2h-3.2l-.5.1-.5.1.1.7.1.7.1.6.1.6.2.6.2.5.4.7.4.7.5.6.5.6.7.5.7.5.7.3.7.3.7.1.7.1h1.6l.4-.1.4-.1.4-.2.4-.2.3-.3.3-.3.1-.3.1-.3v14l-.2-.5-.2-.5-.4-.5-.4-.5-.6-.5-.6-.5-.7-.4-.7-.4-.9-.3-.9-.3-.9-.1-.9-.1-.9.1-.9.1-1 .2-1 .2-.2.2.2.8.2.8.3.8.3.8.4.7.4.7.9.8.9.8.8.3.8.3.7.2.7.2h2l.6-.2.6-.2.4-.3.4-.3.6-1.1v19.6h1.3v-19.6l.2.3.2.4.4.3.4.3.5.2.5.2.7.1.7.1.8-.1.8-.1.6-.2.6-.2.6-.3.6-.3.8-.7.8-.7.5-.7.5-.7.3-.6.3-.6.2-.8.2-.8.1-.3.1-.3-.5-.1-.5-.1-.6-.1-.6-.1h-2.7l-.9.2-.9.2-.6.3-.6.3-.6.4-.6.4-.5.5-.5.5-.3.4-.3.4-.5 1v-13.8l.1.3.1.3.3.3.3.3.7.3.7.3h2l.5-.2.5-.2.8-.3.8-.3.7-.6.7-.6.4-.5.4-.5.4-.7.4-.7.2-.8.2-.8.1-.8.1-.8-.1-.1-.1-.1-.7-.1-.7-.1h-2.6l-1 .2-1 .2-.8.3-.8.3.5.9-.6.4-.5.5-.5.5-.3.5-.3.5-.1.3-.1.3v-14.2l.2.4.2.4.4.3.4.3.5.2.5.2 1.9.1.7-.2.7-.2.6-.3.6-.3.5-.4.5-.4.8-.8.5-.7.5-.7.3-.8.3-.8.3-1.5v-1.3h-.6l-1.5-.1-1 .1-1 .1-.8.2-.8.2-.6.2-.6.2-.5.3-.6.5-.6.5-.6.5-.4.6-.4.6-.2.6-.2.6V173l.3.5.3.5.4.3.4.3.4.2.4.2h.6l.6.1c4.6-.8 6.9-4.4 6.5-8.7h-.8c-3.6 0-7.3 1-8.9 4.4l-.3.7v-12.8l.1.4.1.4c4.5 4.4 10.6-2.6 9.9-7.2-3.4-.1-8.3 1-10.2 4.9v-10.6c5.3-2.7 1.3-9.9-.5-11.3m-99.5.4c-2.8 2.6-5 8.9-.6 11.1v10.8c-1.5-4.1-5.9-5.6-10.2-5 .1 4.3 2.8 9.2 8.1 8.3.9-.2 1.8-.9 2.1-2v12.9l-.1-.4-.1-.4-.3-.5-.3-.5-.3-.4-.3-.4-.5-.4-.5-.4-.8-.5-.8-.5-.8-.3-.8-.3-.9-.2-.9-.2-1.4-.1-1.4-.1-.2.2v1.8l.2 1.4.2.7.2.7.4.6.4.6.4.5.4.5.6.5.6.5.7.3.7.3.7.1.7.1 1.3-.1.6-.3.6-.3.3-.3.3-.3.2-.4.2-.4v13.4l-.2-.6-.2-.6-.3-.5-.3-.5-.6-.6-.6-.6-.7-.4-.7-.4-.5-.2-.5-.2-.8-.2-.8-.2-1.1-.1-1.1-.1-1.9.2h-.1l-.1.1.1 1 .1 1 .2.8.2.8.4.8.4.8.5.5.5.5.6.4.6.5.7.3.7.3.6.1.6.1h1.6l.5-.2.5-.2.4-.3.4-.3.3-.5.3-.5v14.4l-.5-1.1-.3-.4-.3-.4-.5-.5-.5-.5-.6-.4-.6-.4-.8-.3-.8-.3-.9-.2-.9-.2h-3.2l-.5.1-.5.1.1.7.1.7.1.6.1.6.4 1.1.4.7.4.7.5.6.5.6.7.5.7.5.7.3.7.3.7.1.7.1h1.6l.4-.1.4-.1.4-.2.4-.2.3-.3.3-.3.1-.3.1-.3v14l-.2-.5-.2-.5-.4-.5-.4-.5-.6-.5-.6-.5-.7-.4-.7-.4-.9-.3-.9-.3-.9-.1-.9-.1-.9.1-.9.1-1 .2-1 .2-.2.2.2.8.2.8.3.8.3.8.4.7.4.7.9.8.9.8.8.3.8.3.7.2.7.2h2l.6-.2.6-.2.4-.3.4-.3.3-.5.3-.5V239h1.3v-19.6l.2.4.2.3.4.3.4.3.5.2.5.2.7.1.7.1.8-.1.8-.1.6-.2.6-.2.6-.3.6-.3.8-.7.8-.7.5-.7.5-.7.3-.6.3-.6.2-.8.2-.8.1-.3.1-.3-.5-.1-.5-.1-.6-.1-.6-.1h-2.7l-.9.2-.9.2-.6.3-.6.3-.6.4-.6.4-.5.5-.5.5-.3.4-.3.4-.5 1v-13.8l.1.4.1.3.3.3.3.3.7.3.7.3h2l.5-.2.5-.2.8-.3.8-.3.7-.6.7-.6.8-1 .4-.7.4-.7.5-1.7.1-.8.1-.8-.1-.1-.1-.1-.7-.1-.7-.1h-2.6l-1 .2-.9.2-.8.3-.8.3-.6.4-.6.4-.5.5-.5.5-.3.5-.3.5-.1.3-.1.3v-14.2l.4.8.4.3.4.3.5.2.5.2h1.8l.7-.2.7-.2.6-.3.6-.3.5-.4.5-.4.4-.4.4-.4.5-.7.5-.7.3-.8.3-.8.1-.7.2-.7v-.9h-.6l-1.5-.1-1 .1-1 .1-.8.2-.8.2-.6.2-.6.2-1.1.6-.6.5-.6.5-.4.6-.4.6-.2.6-.2.6v-13.6l.3.5.3.5.4.3.4.3.4.2.4.2h.6l.6.1c4.6-.8 6.9-4.4 6.5-8.7h-.8c-3.6 0-7.3 1-8.9 4.4l-.3.7V159l.1.4.1.4c4.5 4.4 10.6-2.6 9.9-7.2-3.4-.1-8.3 1-10.2 4.9v-10.6c6.7-2.6 2.7-9.8.9-11.2m43.5.3h11.9c5.3 8.8 8.1 13.5 13.9 22.7-2.8 0-6.1 0-9.4.1-.6-1.2-1.2-2.5-1.9-3.8h-17.1l-1.8 3.8H261c4.7-7.9 8.7-14.4 13.9-22.8m5.9 4.3c-1.8 2.8-4 6-6.1 9.1h12.1c-1.6-2.8-4-5.9-6-9.1M261 167.1h9.3v17.3h21.1v-17.3h9.3v17.7c-2.2 2-5.3 4.5-9 5.2h-20.8c-4-.4-7.3-2.6-10-5.3v-17.6zm1.1 33h38.4v4.6H271v4.5h29.1v4.3H271v9.5h-8.9zm-13.2 81.8v28.5h.1c11.2-3 18.4-5.5 31.8-9.7 13.6 4.1 15.8 4.9 31.8 9.7h.1v-28.5c-20.9-.1-42.6 0-63.8 0" class="st1"/><path d="M266.7 278.1h-45.4v-4.8H262l.6.9.6.7.6.7.8.8.8.8.6.5zm52.7 0h-22.7l1-.8 1-.8.8-.9.8-.9.6-.7.6-.7h40.6v4.8zm-60.1-9.5-38-.1v-4.8H258l.1.8.1.8.2.9.2.9.3.7zm63.8-.1h-19l.2-.3.2-.3.3-1.2.3-1.2.1-.9.1-.9H342v4.8zm-65-9.5h-36.7v-4.8h37.9v.1l-.4 1.2-.4 1.2-.2 1.1zm83.9 0h-36.7l-.1-.6-.1-.6-.2-.7-.2-.7-.3-.9-.3-.9-.1-.4h38zm-80.1-9.5h-40.5v-4.8h45.2l-1.6 1.4-1.6 1.4zm59.9 0h-20.3l-.7-.8-.7-.8-1-1-1-1h-.2l-.6-.5-.6-.5H342v4.8z" style="fill:#55b5e5"/><path d="M282.5 234c-1.5-.1-4.9.2-6 .4-.4.1-.4.1-.2.4.2.2 2.3 2.2 2.8 2.6.2.2.4.4.5.4.1.1.1.1.9.1 1.3.1 2.9.2 6.5.5 2.1.2 3.6.3 4 .3h.6c.4 0 .5 0 1-.2.6-.2 2.2-1.1 2.3-1.1 0 0 0-.1-.1-.1-.5-.3-2.4-1.1-3.7-1.6-2.3-.9-5.7-1.5-8.6-1.7m-2.8 5-.2.1c-.2.2-.6.5-2.2 1.9-1.8 1.6-2.5 2.2-2.7 2.3-.1 0-.1.1-.1.1l-.4.4-.3.3c0 .1.2.5.8 1.9 1.1 2.4 1.8 3.9 1.9 3.9.1.1.9.2 5.7.6 4.6.4 6.4.5 7 .6.3 0 .4 0 .8-.2.9-.6 3.9-2.9 4.6-3.5l.3-.2-.1-.3c-.4-.9-1.6-3.9-2.4-5.8-.4-1-.5-1.2-.6-1.3-.1 0-4.2-.3-11.4-.9zm-5.1 4.4q.15 0 0 0c.1.1.1.1 0 .1 0 .1-.1.1 0-.1-.1 0 0 0 0 0m-14.8.8c-.1.1-.7.7-1.5 1.9-1.1 1.5-2.1 3.6-2.9 5.5-.2.6-.4 1.1-.6 1.8-.1.4-.2.7-.2.8s-.1.2-.1.2c0 .1.2.2 1 .6.7.3 1.3.6 1.7.7.1 0 .2.1.2.1.1 0 .3-.3.9-1.3.8-1.4 2.9-5.4 3.3-6.4l.1-.2-.1-.1c-.2-.4-1.3-2.6-1.6-3.3-.1-.3-.1-.3-.2-.3m12.9.7-.6.2c-1 .3-2.6.9-7.4 2.6-1.1.4-2 .7-2 .7s-2.6 4.9-3 5.7c-.5 1-1.2 2.3-1.3 2.5l-.1.1.2.4c.6.9 2.1 3.4 2.9 4.7l.5.7h.1c.1 0 .6-.1 1.1-.3 2-.5 1.9-.5 1.9-.5 0-.1.1-.1.2 0l1.9-.4c1.5-.4 1.8-.5 2-.6.1-.1.2-.3.4-.6 1.3-2 3.2-4.9 4.4-6.8s1.3-2 1.5-2.3l.1-.2-.2-.5c-.3-.7-.5-1.1-.5-1.2 0 0 0-.1-.1-.1-.1-.1-.6-1-1-1.9-.4-1.1-.9-2-1-2.2m22.8 3.4c-.1 0-1.1.7-3.1 2.2-.8.6-1.5 1.1-1.7 1.2l-.3.2v.3c0 .2 0 .6.1 1 .1.9 1 9 1.1 9.5.1.4.1.4.7.8s3.9 2.3 5.6 3.2c.3.2.6.3.6.3.1 0 1.6-1.3 4.6-4 1.2-1 1.2-1.1 1.2-1.2s0-.1.1-.1h.1s.1-.1.3-.2.5-.4.7-.6l.4-.4-.2-1.5c-.3-2.1-.5-3.1-.6-3.5 0-.1 0-.1-.5-.5-2.1-1.5-9-6.7-9.1-6.7m-20.9.4q.15 0 0 0c.1.1.1.1 0 .1zm33.4 4.4c-.1 0-1.4 1.8-1.6 2.1-.2.4-.2.7 0 2.3.1.5.2 1.5.3 2.2l.2 1.2.7 1c.4.6.9 1.2 1.1 1.4s.3.4.3.4.1-.7.2-1.3v-3.3c-.1-1.6-.3-2.6-.5-3.7-.3-1.2-.6-2.3-.7-2.3m-38.8 8.7c-.1 0-.8.2-1.7.4l-5.2 1.3s-.1.5-.1 1.4v.7l.1.2.1.2-.1.1-.1.1v1c0 1.8-.2 4.7-.2 5.4v.7l.3.3 2.5 2.5c2.2 2.3 2.9 3 3.1 3.1.1.1.1 0 .3 0 .5-.1 2.1-.6 4.2-1.3 2-.6 2.1-.7 2.1-.7 0-.1.1-.1.1 0h.1s.9-.3 1.9-.6l1.8-.6.4-2.1c.5-3 .7-4 .6-4.1 0 0-3.2-2.7-6.1-5.1-1.6-1.3-3.3-2.7-3.7-3-.2.1-.4.1-.4.1m21.9 2.5-.2.1c-.5.3-2.4 1.3-5.2 2.9-1.7.9-2.7 1.5-2.9 1.6-.1.1-.2.1-.1.1 0 0 .1 0 .1.1s0 .1-.1.1c0 0-.1 0-.1-.1l-.3.1c-.1.1-.6.4-1 .6s-.8.4-.8.5c0 0-.3 1.7-.7 4.1-.3 1.8-.3 1.9-.3 2 .2.2.8.7 5.1 3.7 1.4 1 2.6 1.8 2.8 2s.3.2.3.2h.1c.1 0 .1 0 .1.1v.1s.5.3.6.4c.1 0 .2.1.2.1.1 0 .6-.3 1.7-1 1.5-.9 5.4-3.4 6-3.7.1-.1.2-.1.2-.2s.3-1.9.6-4c.8-5.3.8-5.5.6-5.7s-4.9-3-6.3-3.6zm-29.9 9.8h-.9c-2 .1-2.5.2-2.7.2-.1 0-.1 0-.1.1.1.4 1.8 2.7 2.8 3.9 1.2 1.4 3 3 4.6 4.2.4.3 1.3.9 1.6 1.1.1.1.2.1.2.1l.2-.6c0-.3.1-1.2.2-2v-.9c-.4-.5-5-5.2-5.5-5.8-.2-.1-.4-.3-.4-.3m35.9 4.7-4 2.5-4 2.5-.8 1.4c-.7 1.3-1 1.8-1 1.9h.1c.3.1 2.6-.5 4.5-1.3 1-.4 1.1-.4 1.1-.5s.1-.1.1 0 1.5-.7 2.5-1.2c1.2-.7 2.4-1.5 3.2-2.2 1-.8 3.2-2.8 3.2-2.9 0-.2-1-.2-3.4-.2z" class="st0"/><path d="M279.6 289c-3.9-.3-7.4-1.2-10.8-2.8-2.8-1.3-4.8-2.7-7.1-4.8-2-1.9-3.1-3.1-4.7-5.4-.6-.9-1.6-2.7-1.7-3 0-.1-.1-.2-.1-.3-.2-.1-.6-1.3-1.1-2.7-1.2-3.6-1.8-7.5-1.5-10.7.1-1.4.5-3.7.7-4.7 1.2-4.8 3.6-9.2 7-12.6 4.8-4.9 10.5-7.8 17.5-8.8 1.7-.2 6-.2 7.8 0 5 .7 9.6 2.6 13.6 5.6 1.3.9 3.5 3 4.5 4.2 3.5 4.1 5.6 8.8 6.5 14.2.1.8.2 1.7.2 3.7 0 2.3 0 2.8-.2 4-.4 2.5-1.2 5.2-2.1 7.3-2.3 5-6.3 9.5-11 12.4-1.3.8-2.6 1.5-2.7 1.4 0 0-.1 0-.2.1-.2.2-2.4 1.1-3.9 1.6-2.4.7-4.4 1.1-7.1 1.2-1.6.2-2 .2-3.6.1m9.5-2.1c3.5-1 6.9-2.7 9.6-4.7.8-.6 3.4-3 3.4-3.1 0-.2-1-.3-2.9-.3h-2.1l-4 2.5-4 2.5-.9 1.6c-.5.9-.9 1.7-.9 1.7.1.2.7.1 1.8-.2m-22.2-3.6c.1-.3.1-1.1.2-1.7l.1-1.3-2.5-2.6c-1.4-1.4-2.7-2.8-3-3.1l-.5-.5-1.8.1c-1.5.1-1.8.1-1.8.2 0 .2 1.6 2.5 2.6 3.8 1.3 1.5 3.4 3.4 5.1 4.6.8.5 1.4 1 1.4 1s.1-.3.2-.5m25.8-3c2.1-1.3 3.9-2.4 3.9-2.5 0 0 .3-2.2.7-4.8.7-4.6.7-4.8.5-5-.3-.3-6.5-3.8-6.7-3.8-.1 0-2 1-4.1 2.3-2.2 1.2-4 2.3-4.1 2.3s-.2.1-.2.1-.5.3-1.1.6-1 .6-1 .6-1 5.8-1 6 .7.7 4 3c2.2 1.5 4.1 2.9 4.2 2.9.3.3.9.6 1 .6-.1.1 1.7-1 3.9-2.3m-20.9-2.1c2-.6 4.3-1.4 5.1-1.6l1.4-.4.5-2.6c.3-1.5.5-2.8.5-3.1v-.4l-4.9-4.1c-3-2.5-5-4.1-5.1-4.1s-1.7.4-3.6.9l-3.4.9-.1 1.1c0 .6-.1 1.2-.1 1.4 0 .6-.1 5.3-.2 6.3l-.1 1 .6.6c.3.3 1.7 1.7 2.9 3 1.7 1.8 2.3 2.4 2.5 2.4.2-.1 2-.6 4-1.3m29.5-13.5c1.6-1.4 3.2-2.8 3.7-3.2l.8-.7-.4-2.6c-.2-1.4-.4-2.6-.4-2.6-.6-.6-9.4-7.3-9.4-7.3-.1 0-1.2.8-2.6 1.8l-2.5 1.8v.5c0 .3.1 1.4.2 2.5s.4 3.3.6 4.9.3 3.1.4 3.2c0 .2.4.4 3.4 2.2 1.8 1.1 3.4 1.9 3.4 1.9 0 .1 1.3-1.1 2.8-2.4m7.9-2.3c.1-1.6-.1-4.8-.4-6.6-.3-1.4-.7-2.8-.8-2.8 0 0-.5.5-.9 1.2-1 1.4-1 .8-.5 4.3l.3 2.3 1.1 1.5c.6.8 1.1 1.5 1.1 1.4s.1-.6.1-1.3m-45.3-.4c4.3-1.1 5.1-1.3 5.2-1.4.2-.1 6-9.1 6.2-9.6l.2-.4-.4-.9c-.2-.5-.4-.9-.4-.9s0-.1-.1-.1-.5-.9-1-1.9-.9-1.9-1-1.9-2 .6-5 1.7l-4.9 1.8-2.2 4.1c-1.2 2.3-2.2 4.2-2.1 4.2.1.2 3.5 5.7 3.6 5.7 0 .1.9-.2 1.9-.4m-4.2-10.1c1.1-2.1 2.1-3.9 2.1-4s-1.7-3.6-1.8-3.7-.5.4-1.5 1.8c-1.4 2.1-2.8 4.9-3.5 7.3-.2.5-.3 1-.3 1.1s.2.3 1.3.8c.8.4 1.5.6 1.6.6 0 0 .3-.4 2.1-3.9m32.5-2.6c1.7-1.2 2.6-2 2.6-2.1s-3-7.2-3.1-7.3c0 0-2.7-.2-6-.5l-6-.4-.3.2c-.2.1-1.3 1.1-2.5 2.2s-2.2 1.9-2.3 2c-.1 0-.1.1-.1.1l-.4.4c-.2.2-.4.3-.4.4s2.7 5.7 2.8 5.8 1 .2 6.2.6c2.7.2 5.3.4 5.7.5.4 0 .9.1 1 .1.2-.1.7-.4 2.8-2m1.3-11.1c.8-.4 1.4-.7 1.5-.8s-3.2-1.5-4.5-2c-1.9-.6-4.1-1.1-6.3-1.3-1.6-.2-2-.2-3.7-.1-2 .1-4 .3-4.2.5-.1.1.2.4 1.1 1.2.7.6 1.5 1.3 1.8 1.6l.6.5 1.4.1c.8.1 3.1.2 5.2.4 2.1.1 4.1.3 4.5.3 1.1.3 1 .3 2.6-.4"/><path d="M261.2 158.4c.1-.2 1.9-3.1 4-6.6s5.1-8.4 6.8-11.1l2.9-4.8h11.9l.7 1.2c4.4 7.3 7.1 11.8 11.5 18.8 1.3 2.1 1.6 2.6 1.5 2.6h-9.3l-.8-1.6c-.4-.9-.8-1.7-.9-1.9l-.2-.4h-17.2l-.9 1.9-.9 1.9H261zm25.7-9.1c0-.1-1.1-1.7-2.5-3.8-1.7-2.5-2.6-3.9-3.2-4.9-.1-.2-.3-.4-.3-.4s-.3.4-.6.9-1.3 1.9-2.1 3.1c-1.9 2.8-3.4 5.1-3.4 5.1h12.1M270.2 189.9c-3.1-.5-5.9-2-8.6-4.6l-.6-.6v-17.6h9.3v17.4h21.1v-17.3h9.2v17.7l-.1.1c-.1.1-.4.3-.6.6-2.7 2.3-5.2 3.8-7.7 4.4l-.4.1h-21zM262.1 211.5V200h38.3v4.6H271v4.6h29v4.3h-29v9.4h-8.8z" class="st3"/><defs><path id="SVGID_1_" d="M184.4 42.1h195.4v38.4H184.4z"/></defs><clipPath id="SVGID_2_"><use xlink:href="#SVGID_1_" style="overflow:visible"/></clipPath><g style="clip-path:url(#SVGID_2_)"><path d="m379.5 56.8-12.3 8.9 4.7 14.4-12.2-9-12.2 8.8 4.8-14.3-12.3-8.8 15.1.1 4.6-14.4 4.6 14.4zM321.1 80l-12.2-8.9-12.2 8.9 4.6-14.3-12.2-8.9h15.1l4.6-14.3 4.6 14.3 15.1.1-12.3 8.8zM255.3 71.1 243.1 80l4.7-14.3-12.3-8.8 15.1-.1 4.6-14.3 4.6 14.3h15.1l-12.2 8.9 4.7 14.3zM192.3 79.9l4.7-14.3-12.2-9 15.1.1 4.7-14.3 4.5 14.4h15.1L212 65.7l4.6 14.4-12.1-8.9z" class="st5"/></g></svg>