<svg xmlns="http://www.w3.org/2000/svg" xml:space="preserve" width="191.318" height="216" viewBox="0 0 50.62 57.15"><defs><clipPath id="a" clipPathUnits="userSpaceOnUse"><path d="M-15.519-34.845h30.864V0h-30.864Z"/></clipPath><clipPath id="b" clipPathUnits="userSpaceOnUse"><path d="M-15.51-34.245h30.864V.6H-15.51Z"/></clipPath><clipPath id="c" clipPathUnits="userSpaceOnUse"><path d="M-15.546-33.142h30.864V1.703h-30.864Z"/></clipPath><clipPath id="d" clipPathUnits="userSpaceOnUse"><path d="M-20.286-9.647h30.864v34.845h-30.864Z"/></clipPath><clipPath id="e" clipPathUnits="userSpaceOnUse"><path d="M-15.628-13.429h30.864v34.845h-30.864Z"/></clipPath><clipPath id="f" clipPathUnits="userSpaceOnUse"><path d="M-13.494-26.67H17.37V8.175h-30.864Z"/></clipPath><clipPath id="g" clipPathUnits="userSpaceOnUse"><path d="M-21.743-24.13H9.12v34.845h-30.864Z"/></clipPath><clipPath id="h" clipPathUnits="userSpaceOnUse"><path d="M-9.753-26.673H21.11V8.172H-9.753Z"/></clipPath><clipPath id="i" clipPathUnits="userSpaceOnUse"><path d="M-6.742-28.494h30.864V6.351H-6.742Z"/></clipPath><clipPath id="j" clipPathUnits="userSpaceOnUse"><path d="M-7.223-28.494h30.864V6.351H-7.223Z"/></clipPath><clipPath id="k" clipPathUnits="userSpaceOnUse"><path d="M-8.552-27.603h30.864V7.242H-8.552Z"/></clipPath><clipPath id="l" clipPathUnits="userSpaceOnUse"><path d="M-9.316-28.494h30.864V6.351H-9.316Z"/></clipPath><clipPath id="m" clipPathUnits="userSpaceOnUse"><path d="M-10.314-28.494H20.55V6.351h-30.864Z"/></clipPath><clipPath id="n" clipPathUnits="userSpaceOnUse"><path d="M53.907 193.638h30.864v34.845H53.907Z"/></clipPath><clipPath id="o" clipPathUnits="userSpaceOnUse"><path d="M-11.945-27.735H18.92V7.11h-30.864Z"/></clipPath><clipPath id="p" clipPathUnits="userSpaceOnUse"><path d="M-12.925-28.494H17.94V6.351h-30.864Z"/></clipPath><clipPath id="q" clipPathUnits="userSpaceOnUse"><path d="M-14.44-27.792h30.864V7.053H-14.44Z"/></clipPath><clipPath id="r" clipPathUnits="userSpaceOnUse"><path d="M-14.971-28.494h30.864V6.351h-30.864Z"/></clipPath><clipPath id="s" clipPathUnits="userSpaceOnUse"><path d="M-16.58-28.494h30.865V6.351H-16.58Z"/></clipPath><clipPath id="t" clipPathUnits="userSpaceOnUse"><path d="M-17.764-27.924H13.1V6.921h-30.864Z"/></clipPath><clipPath id="u" clipPathUnits="userSpaceOnUse"><path d="M-18.913-27.924H11.95V6.921h-30.864Z"/></clipPath><clipPath id="v" clipPathUnits="userSpaceOnUse"><path d="M-19.69-28.494h30.864V6.351H-19.69Z"/></clipPath><clipPath id="w" clipPathUnits="userSpaceOnUse"><path d="M-21.064-27.603H9.8V7.242h-30.864Z"/></clipPath><clipPath id="x" clipPathUnits="userSpaceOnUse"><path d="M-22.349-27.792H8.515V7.053h-30.864Z"/></clipPath><clipPath id="y" clipPathUnits="userSpaceOnUse"><path d="M-22.877-28.494H7.987V6.351h-30.864Z"/></clipPath><clipPath id="z" clipPathUnits="userSpaceOnUse"><path d="M-23.797-28.494H7.067V6.351h-30.864Z"/></clipPath><clipPath id="A" clipPathUnits="userSpaceOnUse"><path d="M-10.646-15.573h30.864v34.845h-30.864Z"/></clipPath><clipPath id="B" clipPathUnits="userSpaceOnUse"><path d="M-11.185-15.516h30.864v34.845h-30.864Z"/></clipPath><clipPath id="C" clipPathUnits="userSpaceOnUse"><path d="M-12.314-15.516H18.55v34.845h-30.864Z"/></clipPath><clipPath id="D" clipPathUnits="userSpaceOnUse"><path d="M-13.806-15.705h30.864V19.14h-30.864Z"/></clipPath><clipPath id="E" clipPathUnits="userSpaceOnUse"><path d="M-15.55-15.605h30.864V19.24H-15.55Z"/></clipPath><clipPath id="F" clipPathUnits="userSpaceOnUse"><path d="M53.907 193.638h30.864v34.845H53.907Z"/></clipPath><clipPath id="G" clipPathUnits="userSpaceOnUse"><path d="M-17.246-15.573h30.864v34.845h-30.864Z"/></clipPath><clipPath id="H" clipPathUnits="userSpaceOnUse"><path d="M-17.659-16.275h30.864V18.57h-30.864Z"/></clipPath><clipPath id="I" clipPathUnits="userSpaceOnUse"><path d="M53.907 193.638h30.864v34.845H53.907Z"/></clipPath><clipPath id="J" clipPathUnits="userSpaceOnUse"><path d="M-19.777-15.705h30.864V19.14h-30.864Z"/></clipPath><clipPath id="K" clipPathUnits="userSpaceOnUse"><path d="M-20.779-16.275h30.864V18.57h-30.864Z"/></clipPath><clipPath id="L" clipPathUnits="userSpaceOnUse"><path d="M-8.784-7.026H22.08v34.845H-8.784Z"/></clipPath><clipPath id="M" clipPathUnits="userSpaceOnUse"><path d="M-13.837-12.102h30.864v34.845h-30.864Z"/></clipPath><clipPath id="N" clipPathUnits="userSpaceOnUse"><path d="M-16.293-8.159h30.864v34.845h-30.864Z"/></clipPath><clipPath id="O" clipPathUnits="userSpaceOnUse"><path d="M-14.418-8.529h30.864v34.845h-30.864Z"/></clipPath><clipPath id="P" clipPathUnits="userSpaceOnUse"><path d="M-17.468-12.066h30.864v34.845h-30.864Z"/></clipPath><clipPath id="Q" clipPathUnits="userSpaceOnUse"><path d="M-18.51-8.659h30.865v34.845H-18.51Z"/></clipPath><clipPath id="R" clipPathUnits="userSpaceOnUse"><path d="M-15.53-33.559h30.864V1.286H-15.53Z"/></clipPath></defs><path d="m0 0 15.335-5.868s.352-9.308-2.995-15.972C9.522-28.064 4.048-32.614.038-34.845c-4.342 2.422-8.247 5.27-11.505 11.067-.851 1.938-3.075 4.675-4.051 17.822C-9.911-3.874 0 0 0 0" clip-path="url(#a)" style="fill:#173321;fill-opacity:1;fill-rule:nonzero;stroke:none" transform="matrix(1.64012 0 0 -1.64012 25.451 0)"/><path d="m0 0 14.717-5.654s.338-8.967-2.874-15.387C9.139-27.037 3.884-31.421.037-33.57c-4.168 2.333-7.915 5.076-11.042 10.662-.817 1.867-2.951 4.504-3.888 17.169C-9.512-3.733 0 0 0 0" clip-path="url(#b)" style="fill:#fff;fill-opacity:1;fill-rule:nonzero;stroke:none" transform="matrix(1.64012 0 0 -1.64012 25.437 .984)"/><path d="m0 0 13.55-5.27s.311-8.358-2.646-14.343c-2.49-5.588-7.328-9.674-10.87-11.678-3.837 2.175-7.287 4.732-10.166 9.939-.752 1.739-2.717 4.198-3.58 16.003C-8.758-3.479 0 0 0 0" clip-path="url(#c)" style="fill:#173321;fill-opacity:1;fill-rule:nonzero;stroke:none" transform="matrix(1.64012 0 0 -1.64012 25.496 2.793)"/><path d="M0 0a4.689 4.689 0 1 0-9.377 0A4.689 4.689 0 0 0 0 0" clip-path="url(#d)" style="fill:#fff;fill-opacity:1;fill-rule:nonzero;stroke:none" transform="matrix(1.64012 0 0 -1.64012 33.27 41.328)"/><path d="M0 0a3.785 3.785 0 1 1 0-7.57A3.785 3.785 0 0 1 0 0m0-.74a3.05 3.05 0 0 0 3.046-3.045A3.05 3.05 0 0 0 0-6.831a3.05 3.05 0 0 0-3.046 3.046A3.05 3.05 0 0 0 0-.74" clip-path="url(#e)" style="fill:#173321;fill-opacity:1;fill-rule:nonzero;stroke:none" transform="matrix(1.64012 0 0 -1.64012 25.63 35.125)"/><path d="M0 0h5.303l.005-2.023H2.341v-1.828h2.325v-2.018H2.341v-3.92H0Z" clip-path="url(#f)" style="fill:#fff;fill-opacity:1;fill-rule:nonzero;stroke:none" transform="matrix(1.64012 0 0 -1.64012 22.13 13.408)"/><path d="M0 0h-.001l-.75-3.503H.743Zm-1.165 2.541H1.23l2.63-9.789h-2.3l-.357 1.637h-2.408l-.363-1.637H-3.79Z" clip-path="url(#g)" style="fill:#fff;fill-opacity:1;fill-rule:nonzero;stroke:none" transform="matrix(1.64012 0 0 -1.64012 35.66 17.574)"/><path d="M0 0h2.327v-7.168c0-1.238-.601-2.626-2.888-2.626-2.386 0-2.994 1.211-2.994 2.626V0h2.337v-7.098c0-.405.175-.723.565-.723.391 0 .653.306.653.653z" clip-path="url(#h)" style="fill:#fff;fill-opacity:1;fill-rule:nonzero;stroke:none" transform="matrix(1.64012 0 0 -1.64012 15.996 13.403)"/><path d="M0 0h.304v-.676a.7.7 0 0 0-.027-.19.4.4 0 0 0-.085-.156.34.34 0 0 0-.123-.094.5.5 0 0 0-.213-.038q-.072 0-.157.012a.4.4 0 0 0-.143.046.4.4 0 0 0-.104.097.4.4 0 0 0-.065.131.8.8 0 0 0-.029.192V0h.305v-.692a.22.22 0 0 1 .044-.145.16.16 0 0 1 .125-.052q.078 0 .123.051T0-.692Z" clip-path="url(#i)" style="fill:#fff;fill-opacity:1;fill-rule:nonzero;stroke:none" transform="matrix(1.64012 0 0 -1.64012 11.056 10.416)"/><path d="M0 0h.863v-.227L.309-.891h.575v-.244h-.937v.236l.548.657H0Z" clip-path="url(#j)" style="fill:#fff;fill-opacity:1;fill-rule:nonzero;stroke:none" transform="matrix(1.64012 0 0 -1.64012 11.845 10.416)"/><path d="M0 0h.156q.078 0 .111.032.032.033.032.086a.1.1 0 0 1-.032.081Q.235.23.155.23H0Zm0 .446h.133q.07 0 .099.028T.26.556a.1.1 0 0 1-.028.077Q.204.661.135.661H0Zm-.308.445h.571q.142 0 .219-.082A.28.28 0 0 0 .559.608.27.27 0 0 0 .504.436.23.23 0 0 0 .398.36.27.27 0 0 0 .555.259a.3.3 0 0 0 .05-.18.35.35 0 0 0-.036-.159.3.3 0 0 0-.098-.111.3.3 0 0 0-.115-.037 1 1 0 0 0-.137-.016h-.527z" clip-path="url(#k)" style="fill:#fff;fill-opacity:1;fill-rule:nonzero;stroke:none" transform="matrix(1.64012 0 0 -1.64012 14.026 11.878)"/><path d="M0 0h.817v-.242H.306v-.181H.78v-.231H.306v-.224h.526v-.257H0Z" clip-path="url(#l)" style="fill:#fff;fill-opacity:1;fill-rule:nonzero;stroke:none" transform="matrix(1.64012 0 0 -1.64012 15.278 10.416)"/><path d="M0 0h.305v-.429L.624 0h.406L.67-.428l.377-.707H.671l-.208.467-.158-.19v-.277H0Z" clip-path="url(#m)" style="fill:#fff;fill-opacity:1;fill-rule:nonzero;stroke:none" transform="matrix(1.64012 0 0 -1.64012 16.915 10.416)"/><path d="M65.381 222.132h.306v-1.135h-.306z" clip-path="url(#n)" style="fill:#fff;fill-opacity:1;fill-rule:nonzero;stroke:none" transform="matrix(1.64012 0 0 -1.64012 -88.415 374.74)"/><path d="m0 0 .29.021a.3.3 0 0 1 .039-.124.15.15 0 0 1 .134-.069.14.14 0 0 1 .101.035.11.11 0 0 1 .035.082.1.1 0 0 1-.033.079.4.4 0 0 1-.157.066.6.6 0 0 0-.286.138.3.3 0 0 0-.086.219q0 .087.044.165.045.078.133.122.089.045.242.045.19 0 .289-.081.1-.081.118-.257L.576.421a.2.2 0 0 1-.048.112.14.14 0 0 1-.102.034q-.053 0-.08-.026A.08.08 0 0 1 .319.479q0-.028.022-.049Q.363.407.444.388q.2-.05.286-.1a.32.32 0 0 0 .166-.294.4.4 0 0 0-.053-.201.34.34 0 0 0-.147-.14.5.5 0 0 0-.237-.048q-.252 0-.349.112A.47.47 0 0 0 0 0" clip-path="url(#o)" style="fill:#fff;fill-opacity:1;fill-rule:nonzero;stroke:none" transform="matrix(1.64012 0 0 -1.64012 19.59 11.661)"/><path d="M0 0h.927v-.28H.616v-.855H.311v.855H0Z" clip-path="url(#p)" style="fill:#fff;fill-opacity:1;fill-rule:nonzero;stroke:none" transform="matrix(1.64012 0 0 -1.64012 21.197 10.416)"/><path d="m0 0-.109.408L-.217 0Zm.063-.245h-.346l-.048-.188h-.312L-.272.702h.333L.432-.433H.113Z" clip-path="url(#q)" style="fill:#fff;fill-opacity:1;fill-rule:nonzero;stroke:none" transform="matrix(1.64012 0 0 -1.64012 23.682 11.568)"/><path d="M0 0h.285l.371-.628V0h.288v-1.135H.656l-.369.623v-.623H0Z" clip-path="url(#r)" style="fill:#fff;fill-opacity:1;fill-rule:nonzero;stroke:none" transform="matrix(1.64012 0 0 -1.64012 24.553 10.416)"/><path d="M0 0h.754v-.244H.306v-.198h.383v-.229H.306v-.464H0Z" clip-path="url(#s)" style="fill:#fff;fill-opacity:1;fill-rule:nonzero;stroke:none" transform="matrix(1.64012 0 0 -1.64012 27.19 10.416)"/><path d="M0 0q0-.172.056-.247a.18.18 0 0 1 .151-.075q.098 0 .152.073.054.074.054.264 0 .16-.056.235a.18.18 0 0 1-.153.074.18.18 0 0 1-.148-.075Q0 .173 0 0m-.305.002q0 .278.135.432a.47.47 0 0 0 .375.155.48.48 0 0 0 .38-.152Q.717.285.718.011a.8.8 0 0 0-.059-.326.45.45 0 0 0-.168-.199.5.5 0 0 0-.274-.07.56.56 0 0 0-.277.061.45.45 0 0 0-.177.193.7.7 0 0 0-.068.332" clip-path="url(#t)" style="fill:#fff;fill-opacity:1;fill-rule:nonzero;stroke:none" transform="matrix(1.64012 0 0 -1.64012 29.135 11.351)"/><path d="M0 0q0-.172.055-.247a.18.18 0 0 1 .151-.075q.099 0 .153.073.054.074.054.264 0 .16-.056.235a.18.18 0 0 1-.153.074.18.18 0 0 1-.148-.075Q0 .173 0 0m-.305.002q0 .278.134.432.135.155.376.155.246 0 .379-.152Q.718.285.718.011a.8.8 0 0 0-.059-.326.45.45 0 0 0-.168-.199.5.5 0 0 0-.274-.07.56.56 0 0 0-.277.061.45.45 0 0 0-.177.193.7.7 0 0 0-.068.332" clip-path="url(#u)" style="fill:#fff;fill-opacity:1;fill-rule:nonzero;stroke:none" transform="matrix(1.64012 0 0 -1.64012 31.019 11.351)"/><path d="M0 0h.927v-.28H.616v-.855H.311v.855H0Z" clip-path="url(#v)" style="fill:#fff;fill-opacity:1;fill-rule:nonzero;stroke:none" transform="matrix(1.64012 0 0 -1.64012 32.293 10.416)"/><path d="M0 0h.156q.078 0 .111.032.032.033.032.086a.1.1 0 0 1-.032.081Q.235.23.155.23H0Zm0 .446h.133q.07 0 .099.028A.12.12 0 0 1 .26.556q0 .049-.028.077T.135.661H0Zm-.308.445h.571q.143 0 .219-.082A.28.28 0 0 0 .559.608.27.27 0 0 0 .504.436.23.23 0 0 0 .398.36.27.27 0 0 0 .554.259a.3.3 0 0 0 .051-.18.35.35 0 0 0-.036-.159.3.3 0 0 0-.098-.111.3.3 0 0 0-.116-.037 1 1 0 0 0-.136-.016h-.527z" clip-path="url(#w)" style="fill:#fff;fill-opacity:1;fill-rule:nonzero;stroke:none" transform="matrix(1.64012 0 0 -1.64012 34.546 11.878)"/><path d="m0 0-.109.408L-.217 0Zm.063-.245h-.346l-.048-.188h-.312L-.272.702h.333L.432-.433H.113Z" clip-path="url(#x)" style="fill:#fff;fill-opacity:1;fill-rule:nonzero;stroke:none" transform="matrix(1.64012 0 0 -1.64012 36.653 11.568)"/><path d="M0 0h.305v-.855h.476v-.28H0Z" clip-path="url(#y)" style="fill:#fff;fill-opacity:1;fill-rule:nonzero;stroke:none" transform="matrix(1.64012 0 0 -1.64012 37.52 10.416)"/><path d="M0 0h.305v-.855h.476v-.28H0Z" clip-path="url(#z)" style="fill:#fff;fill-opacity:1;fill-rule:nonzero;stroke:none" transform="matrix(1.64012 0 0 -1.64012 39.03 10.416)"/><path d="m0 0-.124.408L-.246 0Zm.072-.245h-.393l-.054-.188h-.353l.42 1.135h.377L.49-.433H.128Z" clip-path="url(#A)" style="fill:#fff;fill-opacity:1;fill-rule:nonzero;stroke:none" transform="matrix(1.64012 0 0 -1.64012 17.46 31.608)"/><path d="m0 0 .329.021a.3.3 0 0 1 .043-.124.18.18 0 0 1 .153-.069.17.17 0 0 1 .114.035q.04.036.04.082a.1.1 0 0 1-.038.079.44.44 0 0 1-.177.066Q.236.141.14.228a.28.28 0 0 0-.098.219q0 .087.05.165a.32.32 0 0 0 .15.122q.1.045.275.045A.56.56 0 0 0 .844.698Q.957.617.978.441L.652.421Q.64.498.598.532a.17.17 0 0 1-.115.036q-.06 0-.091-.027a.08.08 0 0 1-.03-.062q0-.028.025-.049Q.411.407.503.388q.226-.05.325-.1A.34.34 0 0 0 .97.162a.3.3 0 0 0 .045-.168q0-.11-.06-.201a.37.37 0 0 0-.166-.14.7.7 0 0 0-.269-.048q-.286 0-.396.112A.45.45 0 0 0 0 0" clip-path="url(#B)" style="fill:#fff;fill-opacity:1;fill-rule:nonzero;stroke:none" transform="matrix(1.64012 0 0 -1.64012 18.344 31.702)"/><path d="m0 0 .329.021a.3.3 0 0 1 .043-.124.18.18 0 0 1 .153-.069.17.17 0 0 1 .114.035q.04.036.04.082a.1.1 0 0 1-.038.079.44.44 0 0 1-.177.066Q.236.141.14.228a.28.28 0 0 0-.098.219q0 .087.05.165a.32.32 0 0 0 .15.122q.1.045.275.045A.56.56 0 0 0 .844.698Q.957.617.978.441L.653.421Q.64.498.598.532a.17.17 0 0 1-.115.036q-.06 0-.091-.027a.08.08 0 0 1-.03-.062q0-.028.025-.049Q.411.407.503.388q.226-.05.325-.1A.34.34 0 0 0 .97.162a.3.3 0 0 0 .045-.168q0-.11-.06-.201a.37.37 0 0 0-.166-.14.7.7 0 0 0-.269-.048q-.286 0-.396.112A.45.45 0 0 0 0 0" clip-path="url(#C)" style="fill:#fff;fill-opacity:1;fill-rule:nonzero;stroke:none" transform="matrix(1.64012 0 0 -1.64012 20.196 31.702)"/><path d="M0 0q0-.171.063-.247a.21.21 0 0 1 .171-.075q.112 0 .173.073.06.074.061.265 0 .159-.064.234a.22.22 0 0 1-.173.074.21.21 0 0 1-.168-.075Q0 .173 0 0m-.346.002q0 .278.153.432.153.155.425.155.28 0 .43-.152Q.814.286.814.011a.7.7 0 0 0-.066-.326.5.5 0 0 0-.191-.199.6.6 0 0 0-.311-.07.7.7 0 0 0-.314.061.5.5 0 0 0-.201.193.66.66 0 0 0-.077.332" clip-path="url(#D)" style="fill:#fff;fill-opacity:1;fill-rule:nonzero;stroke:none" transform="matrix(1.64012 0 0 -1.64012 22.642 31.392)"/><path d="m0 0 .303-.093a.6.6 0 0 0-.096-.216.4.4 0 0 0-.163-.131.6.6 0 0 0-.248-.044.7.7 0 0 0-.298.054.5.5 0 0 0-.199.189.65.65 0 0 0-.084.346q0 .283.148.433Q-.49.69-.22.69A.56.56 0 0 0 .113.603.5.5 0 0 0 .292.337L-.013.268a.3.3 0 0 1-.033.076.2.2 0 0 1-.165.083.2.2 0 0 1-.18-.096.4.4 0 0 1-.048-.223q0-.189.057-.259a.2.2 0 0 1 .158-.07q.1 0 .15.057A.35.35 0 0 1 0 0" clip-path="url(#E)" style="fill:#fff;fill-opacity:1;fill-rule:nonzero;stroke:none" transform="matrix(1.64012 0 0 -1.64012 25.503 31.556)"/><path d="M69.942 209.913h.347v-1.135h-.347z" clip-path="url(#F)" style="fill:#fff;fill-opacity:1;fill-rule:nonzero;stroke:none" transform="matrix(1.64012 0 0 -1.64012 -88.415 374.74)"/><path d="m0 0-.124.408L-.246 0Zm.072-.245h-.393l-.054-.188h-.353l.42 1.135h.377L.49-.433H.128Z" clip-path="url(#G)" style="fill:#fff;fill-opacity:1;fill-rule:nonzero;stroke:none" transform="matrix(1.64012 0 0 -1.64012 28.284 31.608)"/><path d="M0 0h1.051v-.28H.698v-.855H.352v.855H0Z" clip-path="url(#H)" style="fill:#fff;fill-opacity:1;fill-rule:nonzero;stroke:none" transform="matrix(1.64012 0 0 -1.64012 28.962 30.457)"/><path d="M72.787 209.913h.347v-1.135h-.347z" clip-path="url(#I)" style="fill:#fff;fill-opacity:1;fill-rule:nonzero;stroke:none" transform="matrix(1.64012 0 0 -1.64012 -88.415 374.74)"/><path d="M0 0q0-.171.063-.247a.21.21 0 0 1 .171-.075q.112 0 .173.073.06.074.061.265 0 .159-.064.234a.22.22 0 0 1-.173.074.21.21 0 0 1-.168-.075Q0 .173 0 0m-.346.002q0 .278.153.432.153.155.425.155.28 0 .43-.152Q.813.286.813.011a.7.7 0 0 0-.065-.326.5.5 0 0 0-.191-.199.6.6 0 0 0-.311-.07.7.7 0 0 0-.314.061.5.5 0 0 0-.201.193.66.66 0 0 0-.077.332" clip-path="url(#J)" style="fill:#fff;fill-opacity:1;fill-rule:nonzero;stroke:none" transform="matrix(1.64012 0 0 -1.64012 32.435 31.392)"/><path d="M0 0h.323l.421-.628V0h.326v-1.135H.744l-.419.623v-.623H0Z" clip-path="url(#K)" style="fill:#fff;fill-opacity:1;fill-rule:nonzero;stroke:none" transform="matrix(1.64012 0 0 -1.64012 34.078 30.457)"/><path d="m0 0 18.298 7.912-.538-1.25L.68-.714Z" clip-path="url(#L)" style="fill:#fff;fill-opacity:1;fill-rule:nonzero;stroke:none" transform="matrix(1.64012 0 0 -1.64012 14.406 45.627)"/><path d="M0 0c.474-.768.082-1.563.082-1.563l.262-.151c.657.959 1.31.823 1.31.823l-.011.332C.654-.608.284.18.284.18S.021.028 0 0" clip-path="url(#M)" style="fill:#050606;fill-opacity:1;fill-rule:nonzero;stroke:none" transform="matrix(1.64012 0 0 -1.64012 22.693 37.301)"/><path d="M0 0c-.817-.384-1.562.094-1.562.094l-.18-.243c.879-.761.67-1.393.67-1.393l.331-.027A1.42 1.42 0 0 0 .147-.302S.025-.024 0 0" clip-path="url(#N)" style="fill:#050606;fill-opacity:1;fill-rule:nonzero;stroke:none" transform="matrix(1.64012 0 0 -1.64012 26.721 43.768)"/><path d="M0 0c-.618.658-.393 1.515-.393 1.515l-.287.096C-1.132.54-1.798.543-1.798.543l.077-.323C-.762.466-.242-.233-.242-.233S-.015-.032 0 0" clip-path="url(#O)" style="fill:#050606;fill-opacity:1;fill-rule:nonzero;stroke:none" transform="matrix(1.64012 0 0 -1.64012 23.646 43.161)"/><path d="M0 0c-.59-.683-1.466-.548-1.466-.548l-.066-.295C-.42-1.182-.354-1.845-.354-1.845l.314.11C-.384-.806.257-.217.257-.217S.033-.011 0 0" clip-path="url(#P)" style="fill:#050606;fill-opacity:1;fill-rule:nonzero;stroke:none" transform="matrix(1.64012 0 0 -1.64012 28.648 37.36)"/><path d="M0 0c-.834.345-.983 1.218-.983 1.218s-.02-.001-.301-.031c.03-1.162-.578-1.434-.578-1.434l.203-.263c.773.62 1.534.198 1.534.198S-.001-.035 0 0" clip-path="url(#Q)" style="fill:#050606;fill-opacity:1;fill-rule:nonzero;stroke:none" transform="matrix(1.64012 0 0 -1.64012 30.356 42.948)"/><path d="M0 0s-9.041-3.581-14.155-5.505c.89-12.15 2.919-14.68 3.695-16.47 2.972-5.359 6.534-7.99 10.495-10.229 3.657 2.062 8.651 6.267 11.221 12.019 3.053 6.159 2.731 14.761 2.731 14.761zm.002-.473 13.551-5.255c.02-1.537-.034-8.9-2.691-14.261l-.004-.008-.004-.008c-2.416-5.407-7.13-9.556-10.82-11.692-4.044 2.311-7.318 4.913-10.099 9.917-.103.236-.223.477-.361.755-.872 1.752-2.487 4.997-3.265 15.224C-8.968-4.017-1.21-.952.002-.473" clip-path="url(#R)" style="fill:#eb272e;fill-opacity:1;fill-rule:nonzero;stroke:none" transform="matrix(1.64012 0 0 -1.64012 25.47 2.11)"/></svg>